<?xml version="1.0" encoding="utf-8"?>
<!-- Generator: Adobe Illustrator 25.0.1, SVG Export Plug-In . SVG Version: 6.00 Build 0)  -->
<svg version="1.1" id="Capa_1" xmlns="http://www.w3.org/2000/svg" xmlns:xlink="http://www.w3.org/1999/xlink" x="0px" y="0px"
	 viewBox="0 0 109 120" style="enable-background:new 0 0 109 120;" xml:space="preserve">
<style type="text/css">
	.st0{fill:url(#SVGID_1_);}
	.st1{fill:#FFFFFF;fill-opacity:0.1;}
	.st2{fill:url(#SVGID_2_);}
	.st3{fill:url(#SVGID_3_);fill-opacity:0.23;}
	.st4{fill-rule:evenodd;clip-rule:evenodd;fill:url(#SVGID_4_);}
	.st5{fill-rule:evenodd;clip-rule:evenodd;fill:url(#SVGID_5_);}
</style>
<linearGradient id="SVGID_1_" gradientUnits="userSpaceOnUse" x1="47.3775" y1="122.0863" x2="46.2155" y2="1.5716" gradientTransform="matrix(1 0 0 -1 0 122)">
	<stop  offset="0" style="stop-color:#56D599"/>
	<stop  offset="0.1563" style="stop-color:#1EAD64"/>
	<stop  offset="0.5417" style="stop-color:#1EAE65"/>
	<stop  offset="0.75" style="stop-color:#57D69A"/>
	<stop  offset="0.9168" style="stop-color:#1EA65F"/>
	<stop  offset="1" style="stop-color:#178E4E"/>
</linearGradient>
<path class="st0" d="M91.6,14.3L62.4,0.1C61.8,0,46.6,0,46,0.1L2.3,14.3C0.9,14.7,0,16.1,0,17.6v51.8C0,76.1,2.5,83,7.5,89.9
	c3.8,5.2,9.1,10.5,15.7,15.6c11.1,8.6,22,13.9,22.4,14.1c0.4,0.2,14.4,0.3,14.9,0.3s0.9-0.1,1.3-0.3c0.5-0.2-2.2-5.5,8.9-14.1
	c6.6-5.1,11.9-10.4,15.7-15.6c5-6.9,7.5-13.8,7.5-20.5V17.6C93.9,16.1,93,14.7,91.6,14.3z"/>
<path class="st1" d="M91.6,14.3L62.4,0.1C61.8,0,46.6,0,46,0.1L2.3,14.3C0.9,14.7,0,16.1,0,17.6v51.8C0,76.1,2.5,83,7.5,89.9
	c3.8,5.2,9.1,10.5,15.7,15.6c11.1,8.6,22,13.9,22.4,14.1c0.4,0.2,14.4,0.3,14.9,0.3s0.9-0.1,1.3-0.3c0.5-0.2-2.2-5.5,8.9-14.1
	c6.6-5.1,11.9-10.4,15.7-15.6c5-6.9,7.5-13.8,7.5-20.5V17.6C93.9,16.1,93,14.7,91.6,14.3z"/>
<linearGradient id="SVGID_2_" gradientUnits="userSpaceOnUse" x1="61.5655" y1="122" x2="61.5655" y2="2" gradientTransform="matrix(1 0 0 -1 0 122)">
	<stop  offset="0" style="stop-color:#1FA05B"/>
	<stop  offset="0.5692" style="stop-color:#1DB369"/>
	<stop  offset="1" style="stop-color:#62DDA3"/>
</linearGradient>
<path class="st2" d="M106.2,14.3L62.5,0.1c-0.6-0.2-1.3-0.2-1.9,0L16.9,14.3c-1.4,0.4-2.3,1.8-2.3,3.4v51.8c0,6.7,2.5,13.6,7.5,20.5
	c3.8,5.2,9.1,10.5,15.7,15.6c11.1,8.6,22,13.9,22.4,14.1c0.4,0.2,0.9,0.3,1.3,0.3s0.9-0.1,1.3-0.3c0.5-0.2,11.4-5.5,22.4-14.1
	c6.6-5.1,11.9-10.4,15.7-15.6c5-6.9,7.5-13.8,7.5-20.5V17.6C108.5,16.1,107.6,14.7,106.2,14.3z"/>
<linearGradient id="SVGID_3_" gradientUnits="userSpaceOnUse" x1="21.9132" y1="62" x2="104.87" y2="62" gradientTransform="matrix(1 0 0 -1 0 122)">
	<stop  offset="0.4791" style="stop-color:#FFFFFF;stop-opacity:0"/>
	<stop  offset="0.4792" style="stop-color:#FFFFFF"/>
	<stop  offset="1" style="stop-color:#FFFFFF;stop-opacity:0"/>
</linearGradient>
<path class="st3" d="M106.2,14.3L62.5,0.1c-0.6-0.2-1.3-0.2-1.9,0L16.9,14.3c-1.4,0.4-2.3,1.8-2.3,3.4v51.8c0,6.7,2.5,13.6,7.5,20.5
	c3.8,5.2,9.1,10.5,15.7,15.6c11.1,8.6,22,13.9,22.4,14.1c0.4,0.2,0.9,0.3,1.3,0.3s0.9-0.1,1.3-0.3c0.5-0.2,11.4-5.5,22.4-14.1
	c6.6-5.1,11.9-10.4,15.7-15.6c5-6.9,7.5-13.8,7.5-20.5V17.6C108.5,16.1,107.6,14.7,106.2,14.3z"/>
<linearGradient id="SVGID_4_" gradientUnits="userSpaceOnUse" x1="92.3721" y1="109.7214" x2="12.2166" y2="14.8173" gradientTransform="matrix(1 0 0 -1 0 122)">
	<stop  offset="0.2176" style="stop-color:#20B56C"/>
	<stop  offset="0.8779" style="stop-color:#B2F5D4"/>
	<stop  offset="1" style="stop-color:#1FA25D"/>
</linearGradient>
<path class="st4" d="M22.1,89.9c-5-6.9-7.5-13.8-7.5-20.5V17.6c0-1.6,0.9-2.9,2.3-3.4L60.6,0.1c0.6-0.2,1.3-0.2,1.9,0l43.7,14.1
	c1.4,0.4,2.3,1.8,2.3,3.4v51.8c0,6.7-2.5,13.6-7.5,20.5c-3.8,5.2-9.1,10.5-15.7,15.6c-11.1,8.6-22,13.9-22.4,14.1
	c-0.4,0.2-0.9,0.3-1.3,0.3s-0.9-0.1-1.3-0.3c-0.5-0.2-11.4-5.5-22.4-14.1C31.2,100.4,25.9,95.1,22.1,89.9z M40.4,102.3
	c9.5,7.4,19,12.3,21.2,13.4c2.2-1.1,11.7-6,21.2-13.4c6.4-5,11.3-10,14.9-14.8c4.6-6.3,6.7-12.4,6.7-18V18.1L61.6,4.2L18.8,18.1
	v51.4c0,5.6,2.1,11.7,6.7,18C29,92.3,34,97.3,40.4,102.3z M18.2,18.2L18.2,18.2L18.2,18.2z M61.2,4.1L61.2,4.1L61.2,4.1 M61.2,4.1
	C61.2,4.1,61.2,4.1,61.2,4.1L61.2,4.1z M104.9,18.2C104.9,18.2,104.9,18.2,104.9,18.2L104.9,18.2z"/>
<linearGradient id="SVGID_5_" gradientUnits="userSpaceOnUse" x1="25.3192" y1="116.3889" x2="66.6913" y2="67.1747" gradientTransform="matrix(1 0 0 -1 0 122)">
	<stop  offset="0" style="stop-color:#FFFFFF;stop-opacity:0.4"/>
	<stop  offset="1" style="stop-color:#FFFFFF;stop-opacity:0"/>
</linearGradient>
<path class="st5" d="M22.1,89.9c-5-6.9-7.5-13.8-7.5-20.5V17.6c0-1.6,0.9-2.9,2.3-3.4L60.6,0.1c0.6-0.2,1.3-0.2,1.9,0l43.7,14.1
	c1.4,0.4,2.3,1.8,2.3,3.4v51.8c0,6.7-2.5,13.6-7.5,20.5c-3.8,5.2-9.1,10.5-15.7,15.6c-11.1,8.6-22,13.9-22.4,14.1
	c-0.4,0.2-0.9,0.3-1.3,0.3s-0.9-0.1-1.3-0.3c-0.5-0.2-11.4-5.5-22.4-14.1C31.2,100.4,25.9,95.1,22.1,89.9z M40.4,102.3
	c9.5,7.4,19,12.3,21.2,13.4c2.2-1.1,11.7-6,21.2-13.4c6.4-5,11.3-10,14.9-14.8c4.6-6.3,6.7-12.4,6.7-18V18.1L61.6,4.2L18.8,18.1
	v51.4c0,5.6,2.1,11.7,6.7,18C29,92.3,34,97.3,40.4,102.3z M18.2,18.2L18.2,18.2L18.2,18.2z M61.2,4.1L61.2,4.1L61.2,4.1 M61.2,4.1
	C61.2,4.1,61.2,4.1,61.2,4.1L61.2,4.1z M104.9,18.2C104.9,18.2,104.9,18.2,104.9,18.2L104.9,18.2z"/>
</svg>
