<svg width="429" height="382" viewBox="0 0 429 382" fill="none" xmlns="http://www.w3.org/2000/svg">
<path d="M93.7362 359.662L9.01622 213.462C4.27523 205.28 1.90473 201.19 0.977057 196.839C0.156271 192.99 0.156271 189.01 0.977056 185.161C1.90473 180.81 4.27522 176.72 9.01621 168.538L93.7362 22.3381C98.4524 14.1995 100.81 10.1302 104.104 7.17105C107.019 4.55276 110.45 2.57522 114.177 1.3663C118.389 2.51678e-05 123.092 2.49622e-05 132.498 2.4551e-05L296.502 1.73822e-05C305.908 1.69711e-05 310.611 1.67655e-05 314.823 1.36629C318.55 2.57521 321.981 4.55275 324.896 7.17104C328.19 10.1302 330.548 14.1995 335.264 22.3381L419.984 168.538C424.725 176.72 427.095 180.81 428.023 185.161C428.844 189.01 428.844 192.99 428.023 196.839C427.095 201.19 424.725 205.28 419.984 213.462L335.264 359.662C330.548 367.8 328.19 371.87 324.896 374.829C321.981 377.447 318.55 379.425 314.823 380.634C310.611 382 305.908 382 296.502 382L132.498 382C123.092 382 118.389 382 114.177 380.634C110.45 379.425 107.019 377.447 104.104 374.829C100.81 371.87 98.4524 367.801 93.7362 359.662L93.7362 359.662Z" fill="url(#paint0_linear)"/>
<defs>
<linearGradient id="paint0_linear" x1="106.731" y1="5.17239" x2="506.105" y2="37.1901" gradientUnits="userSpaceOnUse">
<stop stop-color="#FFDC67"/>
<stop offset="1" stop-color="#F0B90B"/>
</linearGradient>
</defs>
</svg>
