<svg width="508" height="445" viewBox="0 0 508 445" fill="none" xmlns="http://www.w3.org/2000/svg">
<path d="M112.381 422.098L112.381 422.098L9.79643 244.398C5.0521 236.18 2.80187 232.259 1.92073 228.113C1.13417 224.412 1.13417 220.588 1.92073 216.887C2.80187 212.741 5.05209 208.82 9.79642 200.602L112.381 22.9016C117.126 14.6822 119.397 10.7722 122.547 7.93564C125.359 5.40363 128.672 3.49094 132.27 2.3216C136.302 1.01163 140.823 1 150.314 1L357.686 1C367.177 1 371.698 1.01163 375.73 2.3216C379.328 3.49094 382.641 5.40363 385.453 7.93564C388.603 10.7722 390.874 14.6822 395.619 22.9016L498.204 200.602C502.948 208.82 505.198 212.741 506.079 216.887C506.866 220.588 506.866 224.412 506.079 228.113C505.198 232.259 502.948 236.18 498.204 244.398L395.619 422.098C390.874 430.318 388.603 434.228 385.453 437.064C382.641 439.596 379.328 441.509 375.73 442.678C371.698 443.988 367.177 444 357.686 444L150.314 444C140.823 444 136.302 443.988 132.27 442.678C128.672 441.509 125.359 439.596 122.547 437.064C119.397 434.228 117.126 430.318 112.381 422.098Z" stroke="#1CBA6E" stroke-width="2"/>
</svg>
