<svg width="100" height="100" viewBox="0 0 100 100" fill="none" xmlns="http://www.w3.org/2000/svg">
<rect width="100" height="100" rx="18" fill="white"/>
<path d="M64.959 33.4136C64.959 37.6494 63.4399 41.3159 60.4434 44.313C57.4468 47.3096 53.7798 48.8286 49.5439 48.8286H49.5366C45.3062 48.8271 41.6416 47.3081 38.645 44.313C35.6479 41.3159 34.1294 37.6494 34.1294 33.4136C34.1294 29.1792 35.6479 25.5122 38.645 22.5156C41.6401 19.52 45.3047 18.0015 49.5366 18H49.5439C53.7783 18 57.4453 19.519 60.4434 22.5156C63.4399 25.5122 64.959 29.1792 64.959 33.4136Z" fill="#FFBB85"/>
<path d="M76.646 70.9932C76.646 74.335 75.583 77.0405 73.4893 79.0332C71.4199 81.0024 68.6831 82 65.3555 82H34.5391C31.2114 82 28.4746 81.0024 26.4067 79.0332C24.3115 77.0391 23.25 74.334 23.25 70.9932C23.25 69.708 23.2925 68.4365 23.3774 67.2139C23.4639 65.9639 23.6387 64.6035 23.8965 63.1685C24.1562 61.7217 24.4902 60.354 24.8901 59.104C25.3052 57.8101 25.8667 56.5337 26.5615 55.311C27.2832 54.042 28.1309 52.9365 29.0811 52.0264C30.0771 51.0737 31.2949 50.3086 32.7026 49.751C34.1055 49.1963 35.6606 48.915 37.3247 48.915C37.9775 48.915 38.6099 49.1821 39.8286 49.9761C40.5913 50.4736 41.4702 51.04 42.4404 51.6602C43.2783 52.1943 44.4131 52.6953 45.8159 53.1479C47.0488 53.5469 48.3003 53.7695 49.5366 53.8081C49.6729 53.813 49.8091 53.8154 49.9453 53.8154C51.3184 53.8154 52.707 53.5903 54.0762 53.1479C55.479 52.6953 56.6152 52.1943 57.4526 51.6602C58.4331 51.0337 59.312 50.4678 60.0635 49.9775C61.2832 49.1821 61.9146 48.915 62.5688 48.915C64.2314 48.915 65.7866 49.1963 67.1904 49.751C68.5981 50.3086 69.8159 51.0752 70.811 52.0264C71.7627 52.9365 72.6104 54.042 73.3315 55.311C74.0269 56.5347 74.5894 57.8101 75.0029 59.1025C75.4033 60.354 75.7383 61.7217 75.998 63.1694C76.2544 64.606 76.4297 65.9663 76.5156 67.2129C76.6021 68.4316 76.6445 69.7031 76.646 70.9932Z" fill="url(#paint0_linear)"/>
<path d="M76.646 70.9932C76.646 74.335 75.583 77.0405 73.4893 79.0332C71.4199 81.0024 68.6831 82 65.3555 82H34.5391C31.2114 82 28.4746 81.0024 26.4067 79.0332C24.3115 77.0391 23.25 74.334 23.25 70.9932C23.25 69.708 23.2925 68.4365 23.3774 67.2139C23.4639 65.9639 23.6387 64.6035 23.8965 63.1685C24.1562 61.7217 24.4902 60.354 24.8901 59.104C25.3052 57.8101 25.8667 56.5337 26.5615 55.311C27.2832 54.042 28.1309 52.9365 29.0811 52.0264C30.0771 51.0737 31.2949 50.3086 32.7026 49.751C34.1055 49.1963 35.6606 48.915 37.3247 48.915C37.9775 48.915 38.6099 49.1821 39.8286 49.9761C40.5913 50.4736 41.4702 51.04 42.4404 51.6602C43.2783 52.1943 44.4131 52.6953 45.8159 53.1479C47.0488 53.5469 48.3003 53.7695 49.5366 53.8081C49.6729 53.813 49.8091 53.8154 49.9453 53.8154C51.3184 53.8154 52.707 53.5903 54.0762 53.1479C55.479 52.6953 56.6152 52.1943 57.4526 51.6602C58.4331 51.0337 59.312 50.4678 60.0635 49.9775C61.2832 49.1821 61.9146 48.915 62.5688 48.915C64.2314 48.915 65.7866 49.1963 67.1904 49.751C68.5981 50.3086 69.8159 51.0752 70.811 52.0264C71.7627 52.9365 72.6104 54.042 73.3315 55.311C74.0269 56.5347 74.5894 57.8101 75.0029 59.1025C75.4033 60.354 75.7383 61.7217 75.998 63.1694C76.2544 64.606 76.4297 65.9663 76.5156 67.2129C76.6021 68.4316 76.6445 69.7031 76.646 70.9932Z" fill="url(#paint1_linear)" fill-opacity="0.23"/>
<path d="M49.5439 48.8286H49.5366V18H49.5439C53.7783 18 57.4453 19.519 60.4434 22.5156C63.4399 25.5122 64.959 29.1792 64.959 33.4136C64.959 37.6494 63.4399 41.3159 60.4434 44.313C57.4468 47.3096 53.7798 48.8286 49.5439 48.8286Z" fill="#F5A86C"/>
<defs>
<linearGradient id="paint0_linear" x1="49.948" y1="48.915" x2="49.948" y2="93.8899" gradientUnits="userSpaceOnUse">
<stop stop-color="#1FA05B"/>
<stop offset="0.569228" stop-color="#1DB369"/>
<stop offset="1" stop-color="#62DDA3"/>
</linearGradient>
<linearGradient id="paint1_linear" x1="74.6183" y1="63.9067" x2="23.25" y2="63.9067" gradientUnits="userSpaceOnUse">
<stop offset="0.479067" stop-color="white" stop-opacity="0"/>
<stop offset="0.479167" stop-color="white"/>
<stop offset="1" stop-color="white" stop-opacity="0"/>
</linearGradient>
</defs>
</svg>
