<svg width="200" height="47" viewBox="0 0 200 47" fill="none" xmlns="http://www.w3.org/2000/svg">
<path d="M2.66775 13.2922V33.7079L0 35.2531V11.7471L2.66775 13.2922Z" fill="#E79811"/>
<path d="M40.5957 11.747L37.9278 13.2922L20.2939 3.0903V0L40.5957 11.747Z" fill="#E79811"/>
<path d="M40.5957 35.2527L20.2939 46.9997V43.9095L37.9278 33.7075L40.5957 35.2527Z" fill="#E79811"/>
<g opacity="0.3">
<path opacity="0.3" d="M20.2944 43.9095V46.9997L0 35.2527L2.66775 33.7075L20.2944 43.9095Z" fill="#E79811"/>
</g>
<g opacity="0.3">
<path opacity="0.3" d="M40.5965 11.7471V35.2531L37.9287 33.7079V13.2922L40.5965 11.7471Z" fill="#E79811"/>
</g>
<g opacity="0.3">
<path opacity="0.3" d="M20.2944 0V3.0903L2.66775 13.2922L0 11.747L20.2944 0Z" fill="#E79811"/>
</g>
<path fill-rule="evenodd" clip-rule="evenodd" d="M20.2896 12.9844L27.2794 15.1004C27.3802 15.1438 27.4616 15.2228 27.508 15.3225C27.5544 15.4222 27.5627 15.5355 27.5313 15.6409C27.4997 15.7463 27.4308 15.8363 27.3374 15.894C27.2439 15.9516 27.1325 15.973 27.0246 15.9537L20.2896 13.9139L13.574 15.9537C13.4658 15.9736 13.354 15.9529 13.2601 15.8954C13.1661 15.8379 13.0966 15.7477 13.0649 15.642C13.0332 15.5364 13.0414 15.4227 13.088 15.3228C13.1347 15.2228 13.2164 15.1436 13.3176 15.1004L20.2896 12.9844Z" fill="#E79811"/>
<path fill-rule="evenodd" clip-rule="evenodd" d="M30.3703 16.345C30.3542 16.25 30.3085 16.1624 30.2399 16.0949C30.1714 16.0274 30.0834 15.9832 29.9884 15.9686C29.8934 15.9541 29.7962 15.9699 29.7107 16.0139C29.6251 16.0578 29.5556 16.1277 29.5118 16.2134L25.461 24.1335H15.1343L11.088 16.2134C11.0457 16.1328 10.9809 16.0664 10.9014 16.0222C10.822 15.9782 10.7314 15.9585 10.6409 15.9654C10.5394 15.9735 10.4435 16.0152 10.3682 16.0838C10.2929 16.1526 10.2426 16.2444 10.225 16.345C9.85742 18.908 9.99106 21.5184 10.6185 24.0304C11.6126 27.9933 14.1209 32.5885 20.0957 35.5098L20.291 35.604L20.4846 35.5098C26.4551 32.5885 28.9798 27.9933 29.9649 24.0348C30.5974 21.5223 30.7351 18.9102 30.3703 16.345ZM11.4814 23.8167C11.0069 21.8819 10.8276 19.8863 10.9494 17.8975L14.4696 24.779L19.2387 34.0514C14.4353 31.2704 12.3488 27.291 11.4814 23.8167ZM20.291 34.141L15.5948 25.0256H25.0035L20.291 34.141ZM29.1065 23.8167C28.2331 27.2866 26.1407 31.2659 21.3403 34.0485L26.1287 24.7835L29.6474 17.9094C29.7651 19.8947 29.5828 21.8863 29.1065 23.8167Z" fill="#E79811"/>
<path fill-rule="evenodd" clip-rule="evenodd" d="M54.5708 25.3273C54.8412 25.6065 55.1659 25.8271 55.5248 25.9751C55.8837 26.1232 56.2692 26.1957 56.6573 26.1881H71.3314V24.1962H56.6587C56.4033 24.1992 56.1564 24.1028 55.9703 23.9272C55.7953 23.7401 55.6983 23.4932 55.6991 23.2368V11.424C55.6969 11.3005 55.7198 11.1779 55.7664 11.0636C55.813 10.9492 55.8823 10.8456 55.9703 10.759C56.0586 10.6647 56.1653 10.5895 56.2836 10.5381C56.402 10.4867 56.5297 10.4602 56.6587 10.4602H71.333V8.47269H56.6587C56.2716 8.47072 55.8878 8.54569 55.5295 8.69327C55.1714 8.84085 54.8459 9.05811 54.572 9.33253C54.298 9.60693 54.0809 9.93305 53.9334 10.292C53.7859 10.651 53.7108 11.0357 53.7123 11.424V23.2368C53.7056 23.6258 53.7784 24.012 53.9261 24.3718C54.0736 24.7315 54.2931 25.0572 54.5708 25.3289V25.3273ZM82.7014 8.47269V26.1896H98.8272V24.1962H84.6911V18.3398H96.0522V16.327H84.6911V10.4691H98.8272V8.47269H82.7014ZM110.178 26.1896V8.4951H124.906C125.684 8.50403 126.429 8.81816 126.979 9.37027C127.53 9.92239 127.843 10.6687 127.852 11.4494V16.6408C127.856 17.0293 127.782 17.4149 127.635 17.7743C127.487 18.1337 127.269 18.4597 126.994 18.7329C126.722 19.0111 126.398 19.231 126.039 19.379C125.68 19.5269 125.295 19.6001 124.907 19.5936H122.204L127.751 26.1686V26.1896H125.123L119.609 19.5966L112.172 19.5712V26.1896H110.178ZM113.124 17.5792H124.906C125.028 17.5817 125.15 17.5588 125.264 17.5122C125.378 17.4653 125.48 17.3956 125.566 17.3072C125.654 17.2211 125.724 17.1177 125.771 17.0032C125.817 16.8888 125.84 16.7658 125.837 16.6422V11.4494C125.84 11.3258 125.817 11.2029 125.771 11.0885C125.724 10.9741 125.654 10.8705 125.566 10.7844C125.484 10.6895 125.383 10.6136 125.269 10.562C125.155 10.5104 125.031 10.4843 124.906 10.4856H113.124C112.995 10.4862 112.868 10.513 112.75 10.5644C112.631 10.6158 112.525 10.6906 112.436 10.7844C112.348 10.8712 112.279 10.9749 112.233 11.0892C112.187 11.2036 112.165 11.3261 112.167 11.4494V16.6408C112.164 16.7641 112.186 16.8869 112.232 17.0013C112.279 17.1158 112.348 17.2194 112.436 17.3057C112.622 17.4811 112.869 17.5784 113.124 17.5776V17.5792ZM146.184 10.4646V26.1896H148.173V10.4646H156.004V8.47269H138.334V10.4646H146.184ZM166.5 8.47269H168.512V26.1896H166.5V8.47269ZM180.632 8.47269V26.1896H182.643V18.3398H188.337L194.918 26.1896H197.495V26.1672L190.084 17.3326L197.47 8.4966V8.47418H194.918L188.339 16.327H182.645V8.47269H180.632Z" fill="#E79811"/>
<path d="M168.552 26.2287H166.466V8.43558H168.552V26.2287ZM166.54 26.154H168.477V8.51031H166.54V26.154ZM197.54 26.2257H194.91L194.897 26.2122L188.329 18.3775H182.683V26.2257H180.597V8.44305H182.683V16.2929H188.322L194.902 8.44305H197.507V8.51628L197.497 8.52674L190.132 17.3433L197.532 26.1599L197.54 26.2257ZM194.943 26.151H197.441L190.043 17.3344L190.063 17.3104L197.416 8.51328H194.943L188.361 16.3601H182.61V8.51031H180.672V26.151H182.61V18.3028H188.361L188.372 18.3161L194.943 26.151ZM148.22 26.2257H146.155V10.4993H138.305V8.43558H156.051V10.4993H148.22V26.2257ZM146.229 26.151H148.146V10.4275H155.976V8.51031H138.372V10.4275H146.222L146.229 26.151ZM127.796 26.2257H125.114L125.102 26.2122L119.588 19.6371L112.204 19.6147V26.2332H110.142V8.458H124.907C125.695 8.46578 126.448 8.78316 127.006 9.34197C127.563 9.90077 127.88 10.6564 127.887 11.4467V16.641C127.891 17.0344 127.816 17.4246 127.667 17.7886C127.517 18.1525 127.297 18.4828 127.018 18.7599C126.744 19.0416 126.415 19.2641 126.052 19.4142C125.689 19.5642 125.299 19.6385 124.907 19.6327H122.285L127.789 26.1525L127.796 26.2257ZM125.15 26.151H127.698L122.132 19.558H124.914C125.294 19.5617 125.672 19.4883 126.023 19.3422C126.374 19.1961 126.693 18.9802 126.959 18.7077C127.23 18.4372 127.445 18.1151 127.591 17.7602C127.737 17.4052 127.81 17.0248 127.807 16.641V11.4497C127.8 10.6787 127.492 9.9413 126.948 9.39586C126.405 8.85043 125.67 8.54051 124.901 8.53271H110.216V26.151H112.131V19.5326L119.623 19.558L119.634 19.5715L125.15 26.151ZM98.8728 26.2257H82.6652V8.44305H98.8655V10.4993H84.7292V16.2824H96.0903V18.3744H84.7292V24.156H98.8655L98.8728 26.2257ZM82.7471 26.151H98.791V24.2337H84.6549V18.3028H96.0158V16.3601H84.6549V10.4275H98.791V8.51031H82.7397L82.7471 26.151ZM71.3786 26.2257H56.6597C56.2667 26.2323 55.8764 26.1585 55.5127 26.0087C55.1491 25.8589 54.8199 25.6363 54.5449 25.3545C54.2646 25.0789 54.043 24.7493 53.8936 24.3852C53.7442 24.0213 53.6702 23.6305 53.6761 23.237V11.4243C53.6742 11.0313 53.7502 10.6418 53.8992 10.2784C54.0485 9.91504 54.268 9.58485 54.5452 9.30697C54.8222 9.02909 55.1516 8.80902 55.5139 8.65945C55.8764 8.5099 56.2649 8.43381 56.6567 8.43558H71.3681V10.4993H56.6597C56.536 10.4989 56.4135 10.5239 56.2997 10.5728C56.186 10.6216 56.0833 10.6932 55.998 10.7832C55.9135 10.8661 55.8467 10.9655 55.8019 11.0752C55.7571 11.1849 55.735 11.3027 55.7372 11.4213V23.234C55.7336 23.3564 55.7552 23.4781 55.8003 23.5917C55.8455 23.7054 55.9133 23.8085 55.9997 23.895C56.0863 23.9813 56.1894 24.049 56.3028 24.0939C56.4163 24.1388 56.5378 24.1599 56.6597 24.156H71.3681L71.3786 26.2257ZM54.606 25.3022C54.8739 25.5768 55.1949 25.7936 55.5494 25.9396C55.9038 26.0856 56.2841 26.1576 56.6672 26.151H71.3041V24.2337H56.6597C56.3949 24.2362 56.1391 24.1361 55.9458 23.9544C55.7638 23.7601 55.6625 23.5036 55.6627 23.237V11.4243C55.6603 11.2959 55.6842 11.1684 55.733 11.0497C55.7817 10.9309 55.8541 10.8235 55.9458 10.7339C56.0383 10.638 56.1494 10.562 56.2721 10.5106C56.3949 10.4592 56.5267 10.4335 56.6597 10.435H71.2966V8.51031H56.6597C56.2775 8.50852 55.8986 8.58266 55.545 8.72843C55.1914 8.87421 54.8702 9.08874 54.5997 9.35963C54.3292 9.63054 54.115 9.95245 53.9692 10.3068C53.8235 10.6612 53.7492 11.041 53.7505 11.4243V23.237C53.7449 23.621 53.8171 24.002 53.9628 24.357C54.1086 24.712 54.3249 25.0336 54.5986 25.3022H54.606ZM124.914 17.6153H113.125C112.861 17.6152 112.606 17.5143 112.413 17.3328C112.321 17.2431 112.249 17.1353 112.2 17.0162C112.152 16.8973 112.128 16.7695 112.131 16.641V11.4497C112.128 11.3215 112.152 11.1942 112.2 11.0754C112.248 10.9567 112.32 10.8491 112.411 10.7593C112.503 10.6625 112.614 10.5854 112.737 10.5327C112.86 10.4801 112.992 10.4529 113.125 10.4529H124.907C125.036 10.4509 125.165 10.4773 125.284 10.5302C125.403 10.5831 125.508 10.6613 125.594 10.7593C125.685 10.8487 125.758 10.9561 125.806 11.075C125.855 11.1938 125.878 11.3213 125.875 11.4497V16.641C125.876 16.769 125.852 16.8959 125.804 17.0143C125.755 17.1328 125.684 17.2404 125.594 17.3311C125.504 17.4217 125.397 17.4936 125.279 17.5423C125.161 17.591 125.034 17.6159 124.907 17.6153H124.914ZM113.133 10.5277C113.009 10.5279 112.887 10.5532 112.773 10.602C112.659 10.6508 112.557 10.7221 112.471 10.8116C112.387 10.8947 112.321 10.9942 112.276 11.104C112.232 11.2137 112.21 11.3313 112.213 11.4497V16.641C112.21 16.7594 112.232 16.8771 112.276 16.9868C112.321 17.0964 112.387 17.1959 112.471 17.2791C112.65 17.4477 112.887 17.5414 113.133 17.5406H124.914C125.032 17.5425 125.149 17.5202 125.258 17.4753C125.367 17.4303 125.465 17.3635 125.548 17.2791C125.633 17.1969 125.7 17.0977 125.745 16.9877C125.79 16.8779 125.812 16.7598 125.808 16.641V11.4497C125.811 11.331 125.79 11.213 125.745 11.1031C125.7 10.9933 125.633 10.894 125.548 10.8116C125.469 10.7212 125.371 10.649 125.262 10.6C125.153 10.5509 125.034 10.5263 124.914 10.5277H113.133Z" fill="#E79811"/>
<path d="M59.5806 37.2943H58.9218V37.0656C58.9204 36.9821 58.8867 36.9024 58.8276 36.8433C58.7687 36.7842 58.6893 36.7504 58.6059 36.7488H54.7087C54.6252 36.7504 54.5459 36.7842 54.487 36.8433C54.4279 36.9024 54.3941 36.9821 54.3926 37.0656V38.3761C54.3941 38.459 54.4282 38.538 54.4874 38.5958C54.5465 38.6537 54.626 38.6859 54.7087 38.6855H58.6059C58.734 38.6852 58.8609 38.7105 58.9792 38.7595C59.0975 38.8085 59.2051 38.8806 59.2956 38.9713C59.3862 39.0622 59.4579 39.17 59.5068 39.2886C59.5557 39.4073 59.5809 39.5344 59.5806 39.6628V40.9734C59.5817 41.102 59.5571 41.2295 59.5086 41.3486C59.4598 41.4675 59.3881 41.5757 59.2973 41.6666C59.2067 41.7576 59.0989 41.8295 58.9801 41.8783C58.8614 41.927 58.7342 41.9516 58.6059 41.9507H54.7087C54.5804 41.9516 54.4532 41.927 54.3346 41.8783C54.216 41.8295 54.1084 41.7575 54.0177 41.6666C53.9271 41.5756 53.8556 41.4675 53.807 41.3484C53.7585 41.2294 53.7341 41.1018 53.7354 40.9734V40.7448H54.3926V40.9734C54.3941 41.0569 54.4279 41.1366 54.487 41.1957C54.5459 41.2547 54.6252 41.2886 54.7087 41.2901H58.6059C58.6893 41.2886 58.7687 41.2547 58.8276 41.1957C58.8867 41.1366 58.9204 41.0569 58.9218 40.9734V39.6628C58.92 39.5801 58.8857 39.5015 58.8268 39.4437C58.7678 39.3859 58.6884 39.3534 58.6059 39.3534H54.7087C54.5806 39.3539 54.4537 39.3288 54.3354 39.2799C54.217 39.2309 54.1095 39.1588 54.019 39.068C53.9285 38.9771 53.857 38.8693 53.8082 38.7506C53.7596 38.6318 53.7348 38.5046 53.7354 38.3761V37.0656C53.7345 36.9371 53.7588 36.8099 53.8074 36.691C53.856 36.5723 53.9277 36.4642 54.0182 36.3735C54.1088 36.2826 54.2165 36.2108 54.3351 36.1621C54.4535 36.1134 54.5806 36.0888 54.7087 36.0899H58.6059C58.7342 36.0886 58.8614 36.1131 58.98 36.1616C59.0987 36.2102 59.2065 36.2821 59.2973 36.3728C59.3881 36.4637 59.4598 36.5718 59.5084 36.6907C59.5571 36.8096 59.5817 36.9371 59.5806 37.0656V37.2943Z" fill="#E79811"/>
<path d="M58.6056 41.9909H54.7083C54.5747 41.9923 54.442 41.9669 54.3183 41.9163C54.1945 41.8657 54.082 41.7907 53.9875 41.6959C53.8929 41.6013 53.8183 41.4885 53.7678 41.3644C53.7173 41.2403 53.692 41.1073 53.6934 40.9732V40.7044H54.4386V40.9732C54.4408 41.0459 54.4706 41.1148 54.5219 41.1662C54.5731 41.2176 54.6419 41.2475 54.7144 41.2497H58.6115C58.684 41.2475 58.7528 41.2176 58.804 41.1662C58.8553 41.1148 58.8851 41.0459 58.8873 40.9732V39.6627C58.885 39.5908 58.855 39.5226 58.8036 39.4725C58.7522 39.4224 58.6833 39.3942 58.6115 39.3937H54.7083C54.4392 39.3934 54.1814 39.2861 53.9911 39.0952C53.8008 38.9046 53.6937 38.6459 53.6934 38.3761V37.0656C53.692 36.9315 53.7173 36.7987 53.7678 36.6744C53.8183 36.5503 53.8929 36.4377 53.9875 36.3429C54.082 36.2481 54.1945 36.1732 54.3183 36.1225C54.442 36.0719 54.5747 36.0465 54.7083 36.0479H58.6056C58.7394 36.0465 58.8719 36.0719 58.9956 36.1225C59.1195 36.1732 59.2319 36.2481 59.3264 36.3429C59.4209 36.4377 59.4956 36.5503 59.5462 36.6744C59.5967 36.7987 59.622 36.9315 59.6206 37.0656V37.3346H58.8755V37.0656C58.8731 36.9929 58.8434 36.924 58.7922 36.8726C58.7409 36.8212 58.672 36.7913 58.5997 36.7891H54.7083C54.6359 36.7913 54.567 36.8212 54.5159 36.8726C54.4647 36.924 54.4348 36.9929 54.4326 37.0656V38.3761C54.4345 38.4482 54.4645 38.5165 54.5159 38.5668C54.5675 38.6171 54.6365 38.6451 54.7083 38.6451H58.6056C58.8748 38.6451 59.133 38.7523 59.3233 38.9431C59.5136 39.1339 59.6206 39.3929 59.6206 39.6627V40.9732C59.622 41.1073 59.5967 41.2403 59.5462 41.3644C59.4956 41.4885 59.4209 41.6013 59.3264 41.6959C59.2319 41.7907 59.1195 41.8657 58.9956 41.9163C58.8719 41.9669 58.7394 41.9923 58.6056 41.9909ZM53.7814 40.7865V40.9732C53.78 41.0965 53.8031 41.2189 53.8495 41.3329C53.8959 41.447 53.9645 41.5507 54.0515 41.6379C54.1384 41.725 54.2419 41.7938 54.3556 41.8403C54.4695 41.8869 54.5914 41.9101 54.7144 41.9087H58.6115C58.7345 41.9101 58.8564 41.8869 58.9703 41.8403C59.084 41.7938 59.1875 41.725 59.2744 41.6379C59.3614 41.5507 59.43 41.447 59.4764 41.3329C59.5228 41.2189 59.5459 41.0965 59.5445 40.9732V39.6627C59.5442 39.4148 59.4458 39.177 59.2709 39.0017C59.0959 38.8264 58.8589 38.7277 58.6115 38.7272H54.7083C54.6148 38.7269 54.5251 38.6901 54.4584 38.6245C54.3917 38.559 54.3529 38.4698 54.3506 38.3761V37.0656C54.3519 36.9708 54.3898 36.8803 54.4567 36.8132C54.5236 36.7463 54.6139 36.7081 54.7083 36.707H58.6056C58.7001 36.7081 58.7905 36.7463 58.8573 36.8132C58.924 36.8803 58.9622 36.9708 58.9633 37.0656V37.2478H59.5386V37.0611C59.54 36.9378 59.5169 36.8156 59.4705 36.7015C59.424 36.5873 59.3553 36.4836 59.2684 36.3965C59.1815 36.3094 59.0781 36.2405 58.9644 36.1939C58.8505 36.1474 58.7286 36.1242 58.6056 36.1256H54.7083C54.5854 36.1242 54.4634 36.1474 54.3497 36.1939C54.2358 36.2405 54.1325 36.3094 54.0454 36.3965C53.9586 36.4836 53.89 36.5873 53.8436 36.7015C53.7972 36.8156 53.7739 36.9378 53.7753 37.0611V38.3716C53.7753 38.6198 53.8736 38.8577 54.0486 39.033C54.2236 39.2085 54.4609 39.307 54.7083 39.307H58.6056C58.699 39.3075 58.7887 39.3443 58.8556 39.4098C58.9223 39.4755 58.9609 39.5646 58.9633 39.6583V40.9688C58.9622 41.0636 58.924 41.1542 58.8573 41.221C58.7905 41.2881 58.7001 41.3263 58.6056 41.3274H54.7083C54.6139 41.3263 54.5236 41.2881 54.4567 41.221C54.3898 41.1542 54.3519 41.0636 54.3506 40.9688V40.7821L53.7814 40.7865Z" fill="#E79811"/>
<path d="M58.6058 41.9711H54.7084C54.5773 41.9724 54.4475 41.9473 54.3261 41.8976C54.2048 41.8478 54.0945 41.7743 54.0018 41.6814C53.9092 41.5885 53.8359 41.4779 53.7862 41.3563C53.7367 41.2346 53.7117 41.1043 53.7129 40.973V40.7234H54.4134V40.973C54.4134 41.0521 54.4448 41.1282 54.5006 41.1842C54.5565 41.2402 54.6323 41.2717 54.7114 41.2717H58.6087C58.6878 41.2717 58.7636 41.2402 58.8195 41.1842C58.8754 41.1282 58.9068 41.0521 58.9068 40.973V39.6623C58.9042 39.5849 58.8715 39.5116 58.8159 39.4577C58.7603 39.404 58.6861 39.3739 58.6087 39.374H54.7084C54.4445 39.3736 54.1915 39.2683 54.005 39.0811C53.8183 38.894 53.7132 38.6404 53.7129 38.3757V37.0652C53.7117 36.9338 53.7367 36.8034 53.7862 36.6817C53.8359 36.5601 53.9092 36.4497 54.0018 36.3566C54.0945 36.2637 54.2048 36.1902 54.3261 36.1406C54.4475 36.0908 54.5773 36.0659 54.7084 36.067H58.6058C58.7368 36.0655 58.867 36.0905 58.9884 36.1401C59.1098 36.1898 59.2201 36.2633 59.3128 36.3562C59.4056 36.4492 59.4789 36.5598 59.5284 36.6816C59.5779 36.8033 59.6028 36.9338 59.6014 37.0652V37.3148H58.9009V37.0652C58.9009 36.986 58.8695 36.91 58.8136 36.8539C58.7576 36.7978 58.6818 36.7663 58.6028 36.7663H54.7084C54.6293 36.7663 54.5536 36.7978 54.4976 36.8539C54.4418 36.91 54.4104 36.986 54.4104 37.0652V38.3757C54.4131 38.4531 54.4458 38.5265 54.5012 38.5804C54.5568 38.6341 54.6312 38.6642 54.7084 38.6642H58.6058C58.8697 38.6645 59.1226 38.7698 59.3094 38.957C59.4959 39.144 59.6009 39.3977 59.6014 39.6623V40.973C59.6028 41.1044 59.5779 41.2348 59.5284 41.3565C59.4789 41.4782 59.4056 41.5888 59.3128 41.6819C59.2201 41.7748 59.1098 41.8483 58.9884 41.8979C58.867 41.9476 58.7368 41.9725 58.6058 41.9711ZM53.7561 40.7666V40.973C53.7547 41.0986 53.7784 41.2235 53.8258 41.34C53.8731 41.4564 53.9432 41.5624 54.032 41.6512C54.1206 41.7402 54.2262 41.8105 54.3423 41.858C54.4586 41.9055 54.5829 41.9291 54.7084 41.9279H58.6058C58.7312 41.9294 58.8559 41.9058 58.9722 41.8583C59.0884 41.811 59.194 41.7406 59.2828 41.6517C59.3715 41.5627 59.4415 41.4568 59.4889 41.3402C59.5362 41.2236 59.5597 41.0988 59.5581 40.973V39.6623C59.5578 39.4093 59.4573 39.1666 59.2787 38.9875C59.1003 38.8086 58.8583 38.7079 58.6058 38.7074H54.7084C54.6203 38.7071 54.5357 38.6722 54.4728 38.6103C54.4098 38.5482 54.3736 38.4641 54.3717 38.3757V37.0652C54.3725 36.9758 54.4081 36.8901 54.4711 36.8268C54.534 36.7633 54.6192 36.7271 54.7084 36.726H58.6058C58.6951 36.7271 58.7804 36.7632 58.8437 36.8266C58.9068 36.8899 58.9429 36.9756 58.944 37.0652V37.273H59.5581V37.0652C59.5595 36.9394 59.5359 36.8146 59.4884 36.6982C59.4411 36.5816 59.3711 36.4759 59.2823 36.3869C59.1936 36.2979 59.0881 36.2277 58.9718 36.1801C58.8558 36.1326 58.7312 36.1089 58.6058 36.1103H54.7084C54.5831 36.1091 54.4587 36.1331 54.3426 36.1805C54.2265 36.2282 54.1211 36.2983 54.0323 36.3873C53.9437 36.4762 53.8736 36.5819 53.8262 36.6983C53.7787 36.8147 53.755 36.9394 53.7561 37.0652V38.3757C53.7561 38.6291 53.8564 38.8722 54.035 39.0515C54.2136 39.2308 54.4557 39.3317 54.7084 39.332H58.6058C58.694 39.332 58.7787 39.3665 58.8418 39.4282C58.9051 39.49 58.9417 39.5739 58.944 39.6623V40.973C58.9429 41.0624 58.9068 41.1481 58.8437 41.2114C58.7804 41.2749 58.6951 41.3109 58.6058 41.3122H54.7084C54.6192 41.3109 54.534 41.2747 54.4711 41.2114C54.4081 41.148 54.3725 41.0624 54.3717 40.973V40.7666H53.7561Z" fill="#E79811"/>
<path d="M58.6056 42.012H54.7084C54.5712 42.0145 54.435 41.9896 54.3078 41.9384C54.1804 41.8872 54.0648 41.8109 53.9675 41.714C53.8701 41.6172 53.7932 41.5018 53.7414 41.3745C53.6893 41.2472 53.6634 41.1109 53.6651 40.9733V40.6851H54.4475V40.9749C54.4482 41.0421 54.4751 41.1065 54.5225 41.1543C54.5698 41.2019 54.6339 41.2293 54.7009 41.2304H58.5982C58.6654 41.2293 58.7297 41.2019 58.7772 41.1543C58.8247 41.1066 58.8518 41.0423 58.8531 40.9749V39.6644C58.8511 39.5979 58.8234 39.5351 58.7757 39.4891C58.7281 39.4428 58.6643 39.4173 58.5982 39.4178H54.7084C54.4317 39.4178 54.1664 39.3076 53.9706 39.1113C53.775 38.9152 53.6651 38.6492 53.6651 38.3717V37.0612C53.6634 36.9238 53.6893 36.7873 53.7414 36.6601C53.7932 36.5329 53.8701 36.4175 53.9675 36.3205C54.0648 36.2237 54.1804 36.1474 54.3078 36.0963C54.435 36.0451 54.5712 36.02 54.7084 36.0227H58.6056C58.7426 36.0203 58.8789 36.0454 59.0059 36.0966C59.1331 36.1478 59.2487 36.2241 59.3461 36.3209C59.4432 36.4178 59.5203 36.5332 59.5722 36.6603C59.6242 36.7875 59.6503 36.9238 59.6489 37.0612V37.3601H58.8665V37.0612C58.8653 36.994 58.8381 36.9298 58.7904 36.8823C58.7429 36.835 58.6787 36.8079 58.6117 36.8071H54.7084C54.6414 36.8079 54.5775 36.835 54.53 36.8824C54.4826 36.9299 54.4557 36.9941 54.455 37.0612V38.3717C54.4568 38.4378 54.4845 38.5005 54.5318 38.5466C54.579 38.5926 54.6425 38.6183 54.7084 38.6183H58.6056C58.8823 38.6183 59.1476 38.7284 59.3434 38.9247C59.539 39.1209 59.6489 39.3869 59.6489 39.6644V40.9749C59.6501 41.1121 59.6239 41.2483 59.5718 41.3753C59.5197 41.5022 59.4428 41.6174 59.3454 41.714C59.2482 41.8107 59.1326 41.887 59.0056 41.9381C58.8786 41.9893 58.7426 42.0144 58.6056 42.012ZM53.7962 40.8076V40.9733C53.795 41.0938 53.8178 41.2133 53.8632 41.3247C53.9087 41.4363 53.9757 41.5376 54.0607 41.6227C54.1456 41.7079 54.2467 41.7751 54.3579 41.8207C54.469 41.8663 54.5882 41.8892 54.7084 41.8879H58.6056C58.7257 41.8892 58.845 41.8663 58.9561 41.8207C59.0673 41.7751 59.1684 41.7079 59.2532 41.6227C59.3382 41.5376 59.4053 41.4363 59.4507 41.3247C59.4962 41.2133 59.5189 41.0938 59.5178 40.9733V39.6628C59.5173 39.4204 59.4211 39.1881 59.2501 39.0166C59.0792 38.8452 58.8475 38.7487 58.6056 38.7483H54.7084C54.6093 38.748 54.5143 38.7089 54.4437 38.6393C54.3729 38.5699 54.3322 38.4754 54.3298 38.3763V37.0657C54.3314 36.9655 54.3717 36.8699 54.4423 36.7989C54.5131 36.7281 54.6084 36.6877 54.7084 36.6861H58.6056C58.7056 36.6877 58.8009 36.7281 58.8717 36.7989C58.9423 36.8699 58.9826 36.9655 58.9842 37.0657V37.2315H59.5178V37.0657C59.52 36.9451 59.4979 36.8253 59.4528 36.7132C59.4078 36.6014 59.3406 36.4999 59.2554 36.4145C59.1703 36.3293 59.0689 36.2622 58.9572 36.2172C58.8456 36.1721 58.7259 36.1502 58.6056 36.1527H54.7084C54.5881 36.1502 54.4684 36.1721 54.3568 36.2172C54.2451 36.2622 54.1437 36.3293 54.0586 36.4145C53.9734 36.4999 53.9062 36.6014 53.8612 36.7132C53.8161 36.8253 53.794 36.9451 53.7962 37.0657V38.3763C53.7967 38.6186 53.8928 38.8511 54.0639 39.0225C54.2348 39.1939 54.4665 39.2904 54.7084 39.2907H58.6056C58.7047 39.2912 58.7997 39.3302 58.8703 39.3998C58.9411 39.4692 58.9818 39.5636 58.9842 39.6628V40.9733C58.9831 41.0737 58.9428 41.1696 58.872 41.2404C58.8014 41.3114 58.7057 41.3518 58.6056 41.3529H54.7084C54.6082 41.3518 54.5126 41.3114 54.442 41.2404C54.3712 41.1696 54.3309 41.0737 54.3298 40.9733V40.8076H53.7962Z" fill="#E79811"/>
<path d="M67.0175 36.7485H62.3408V38.6911H66.0996V39.359H62.3408V41.3017H67.0175V41.9622H61.6807V36.0894H67.0146L67.0175 36.7485Z" fill="#E79811"/>
<path d="M67.0571 41.9907H61.6426V36.0522H67.0571V36.7994H62.3818V38.6554H66.1405V39.4026H62.3818V41.2586H67.0571V41.9907ZM61.7246 41.9086H66.9752V41.3318H62.2999V39.3114H66.0585V38.7272H62.2999V36.7068H66.9752V36.13H61.7246V41.9086Z" fill="#E79811"/>
<path d="M67.0454 41.9715H61.6621V36.0674H67.0454V36.7697H62.3626V38.6645H66.1213V39.3743H62.3626V41.2692H67.0454V41.9715ZM61.7129 41.9281H67.0037V41.3124H62.3195V39.34H66.0782V38.7154H62.3195V36.7263H66.9962V36.1106H61.7054L61.7129 41.9281Z" fill="#E79811"/>
<path d="M67.0793 42.0117H61.6201V36.0269H67.0793V36.8114H62.4026V38.6225H66.1614V39.416H62.4026V41.2287H67.0793V42.0117ZM61.7454 41.8876H66.9542V41.3528H62.2759V39.2906H66.0361V38.7421H62.2759V36.6798H66.9528V36.1464H61.7454V41.8876Z" fill="#E79811"/>
<path d="M70.0786 36.7488C69.9954 36.7504 69.916 36.7842 69.8569 36.8433C69.798 36.9024 69.7643 36.9821 69.7627 37.0656V40.9733C69.7643 41.0568 69.798 41.1366 69.8569 41.1957C69.916 41.2547 69.9954 41.2886 70.0786 41.2901H74.9343V41.9506H70.0786C69.9505 41.9516 69.8233 41.927 69.7047 41.8783C69.5861 41.8295 69.4783 41.7575 69.3879 41.6664C69.2972 41.5756 69.2257 41.4675 69.1771 41.3484C69.1286 41.2293 69.1043 41.1018 69.1055 40.9733V37.0656C69.1046 36.9371 69.129 36.8099 69.1775 36.691C69.2261 36.5723 69.2977 36.4642 69.3883 36.3734C69.479 36.2826 69.5866 36.2108 69.705 36.1621C69.8236 36.1134 69.9507 36.0888 70.0786 36.0899H74.9343V36.7488H70.0786Z" fill="#E79811"/>
<path d="M74.9743 41.9909H70.0785C69.9448 41.9923 69.8121 41.9669 69.6884 41.9163C69.5646 41.8657 69.4523 41.7907 69.3578 41.6959C69.2632 41.6013 69.1884 41.4885 69.1379 41.3644C69.0874 41.2403 69.0621 41.1073 69.0635 40.9732V37.0656C69.0621 36.9315 69.0874 36.7987 69.1379 36.6744C69.1884 36.5503 69.2632 36.4377 69.3578 36.3429C69.4523 36.2481 69.5646 36.1732 69.6884 36.1225C69.8121 36.0719 69.9448 36.0465 70.0785 36.0479H74.9743V36.7951H70.0785C70.006 36.7974 69.9373 36.8272 69.886 36.8786C69.8348 36.9299 69.8049 36.9989 69.8028 37.0716V40.9793C69.8049 41.0518 69.8348 41.1209 69.886 41.1722C69.9373 41.2236 70.006 41.2535 70.0785 41.2557H74.9743V41.9909ZM70.0785 36.1302C69.9556 36.1287 69.8337 36.1519 69.7198 36.1985C69.606 36.245 69.5026 36.3138 69.4156 36.401C69.3287 36.4881 69.2601 36.5919 69.2137 36.7059C69.1673 36.8201 69.1442 36.9423 69.1456 37.0656V40.9732C69.1442 41.0965 69.1673 41.2189 69.2137 41.3329C69.2601 41.447 69.3287 41.5507 69.4156 41.6379C69.5026 41.725 69.606 41.7938 69.7198 41.8403C69.8337 41.8869 69.9556 41.9101 70.0785 41.9087H74.8923V41.332H70.0785C69.984 41.3307 69.8937 41.2926 69.8268 41.2256C69.7599 41.1585 69.722 41.068 69.7207 40.9732V37.0656C69.722 36.9708 69.7599 36.8803 69.8268 36.8132C69.8937 36.7463 69.984 36.7081 70.0785 36.707H74.8923V36.1302H70.0785Z" fill="#E79811"/>
<path d="M74.9551 41.9716H70.0785C69.9476 41.9728 69.8176 41.9478 69.6962 41.8981C69.5749 41.8483 69.4646 41.7748 69.372 41.6819C69.2793 41.589 69.206 41.4784 69.1563 41.3568C69.1068 41.2351 69.0818 41.1047 69.0831 40.9733V37.0657C69.0818 36.9343 69.1068 36.8039 69.1563 36.6822C69.206 36.5606 69.2793 36.45 69.372 36.3571C69.4646 36.2642 69.5749 36.1907 69.6962 36.1409C69.8176 36.0912 69.9476 36.0662 70.0785 36.0674H74.9551V36.7698H70.0785C69.9996 36.7698 69.9237 36.8013 69.8679 36.8573C69.812 36.9134 69.7805 36.9894 69.7805 37.0687V40.9764C69.7805 41.0555 69.812 41.1317 69.8679 41.1876C69.9237 41.2437 69.9996 41.2752 70.0785 41.2752H74.9551V41.9716ZM70.0785 36.1108C69.9532 36.1096 69.8288 36.1334 69.7127 36.181C69.5966 36.2286 69.4912 36.2988 69.4026 36.3878C69.3138 36.4766 69.2438 36.5824 69.1963 36.6988C69.1488 36.8152 69.1251 36.9399 69.1263 37.0657V40.9733C69.1249 41.0991 69.1485 41.224 69.1959 41.3404C69.2432 41.4569 69.3134 41.5627 69.4021 41.6517C69.4909 41.7406 69.5963 41.811 69.7126 41.8585C69.8287 41.9059 69.9532 41.9296 70.0785 41.9282H74.9118V41.3126H70.0785C69.9893 41.3114 69.9041 41.2752 69.8412 41.2119C69.7782 41.1484 69.7426 41.0629 69.7418 40.9733V37.0657C69.7426 36.9763 69.7782 36.8906 69.8412 36.8271C69.9041 36.7638 69.9893 36.7276 70.0785 36.7264H74.9118V36.1108H70.0785Z" fill="#E79811"/>
<path d="M74.9957 42.0114H70.0775C69.9403 42.014 69.8042 41.9889 69.6769 41.9379C69.5497 41.8866 69.4339 41.8103 69.3366 41.7135C69.2394 41.6166 69.1624 41.5011 69.1105 41.3739C69.0585 41.2467 69.0327 41.1104 69.0342 40.9728V37.0651C69.0327 36.9277 69.0585 36.7912 69.1105 36.664C69.1624 36.5368 69.2394 36.4213 69.3366 36.3245C69.4339 36.2275 69.5497 36.1514 69.6769 36.1002C69.8042 36.0489 69.9403 36.024 70.0775 36.0265H74.9957V36.8111H70.0775C70.0105 36.8119 69.9466 36.8389 69.8992 36.8863C69.8519 36.9338 69.8249 36.998 69.8241 37.0651V40.9728C69.8249 41.0402 69.8518 41.1044 69.8991 41.1522C69.9464 41.1998 70.0103 41.2272 70.0775 41.2283H74.9957V42.0114ZM70.0775 36.152C69.9572 36.1497 69.8375 36.1716 69.726 36.2166C69.6142 36.2615 69.5128 36.3287 69.4277 36.414C69.3425 36.4992 69.2753 36.6009 69.2303 36.7127C69.1852 36.8246 69.1632 36.9444 69.1653 37.0651V40.9728C69.1642 41.0933 69.1869 41.2127 69.2324 41.3242C69.2778 41.4358 69.3449 41.537 69.4299 41.6222C69.5149 41.7073 69.6158 41.7746 69.7271 41.8202C69.8382 41.8657 69.9574 41.8885 70.0775 41.8874H74.8705V41.3524H70.0789C69.9789 41.3512 69.8833 41.3109 69.8125 41.2399C69.7419 41.169 69.7016 41.0731 69.7003 40.9728V37.0651C69.7019 36.965 69.7424 36.8692 69.813 36.7984C69.8836 36.7276 69.9791 36.687 70.0789 36.6856H74.8721V36.152H70.0775Z" fill="#E79811"/>
<path d="M82.1683 36.0894H82.8257V40.973C82.8266 41.1016 82.8021 41.2291 82.7535 41.348C82.7049 41.4671 82.633 41.5752 82.5424 41.6662C82.4516 41.7571 82.3438 41.8292 82.2252 41.8779C82.1065 41.9266 81.9793 41.9512 81.851 41.9503H77.9552C77.8269 41.9512 77.6997 41.9266 77.581 41.8779C77.4622 41.8292 77.3544 41.7571 77.2636 41.6662C77.173 41.5752 77.1013 41.4671 77.0525 41.348C77.0039 41.2291 76.9794 41.1016 76.9805 40.973V36.0894H77.6377V40.973C77.6393 41.0568 77.6732 41.1367 77.7324 41.1957C77.7918 41.2548 77.8716 41.2885 77.9552 41.2898H81.851C81.9346 41.2885 82.0144 41.2548 82.0736 41.1957C82.1329 41.1367 82.1669 41.0568 82.1683 40.973V36.0894Z" fill="#E79811"/>
<path d="M81.8507 41.9907H77.9549C77.821 41.9924 77.6884 41.9672 77.5645 41.9166C77.4404 41.866 77.3279 41.7911 77.2332 41.6963C77.1385 41.6015 77.0637 41.4887 77.0131 41.3645C76.9624 41.2404 76.9371 41.1072 76.9385 40.9731V36.0522H77.6837V40.9836C77.6856 41.0563 77.7153 41.1256 77.7665 41.177C77.8178 41.2283 77.8868 41.2581 77.9593 41.26H81.8553C81.9278 41.2581 81.9968 41.2283 82.0481 41.177C82.0993 41.1256 82.129 41.0563 82.1309 40.9836V36.0522H82.8761V40.9836C82.8761 41.1176 82.8495 41.2503 82.7978 41.3739C82.7459 41.4975 82.6701 41.6095 82.5745 41.7032C82.479 41.797 82.3659 41.8708 82.2415 41.9202C82.1173 41.9695 81.9843 41.9935 81.8507 41.9907ZM77.022 36.13V40.9731C77.0206 41.0963 77.0437 41.2186 77.0901 41.3327C77.1365 41.4469 77.2051 41.5506 77.2921 41.6377C77.379 41.7248 77.4824 41.7938 77.5962 41.8403C77.7101 41.8867 77.832 41.91 77.9549 41.9086H81.8507C81.9737 41.91 82.0956 41.8867 82.2093 41.8403C82.3232 41.7938 82.4267 41.7248 82.5136 41.6377C82.6004 41.5506 82.6692 41.4469 82.7156 41.3327C82.762 41.2186 82.7851 41.0963 82.7837 40.9731V36.13H82.2084V40.9731C82.2073 41.0679 82.1692 41.1585 82.1023 41.2254C82.0356 41.2924 81.9453 41.3307 81.8507 41.3317H77.9549C77.8603 41.3307 77.7698 41.2924 77.7028 41.2255C77.6357 41.1586 77.5973 41.0681 77.5957 40.9731V36.13H77.022Z" fill="#E79811"/>
<path d="M81.8504 41.9715H77.9545C77.8234 41.9729 77.6934 41.948 77.572 41.8983C77.4506 41.8487 77.3403 41.7752 77.2475 41.6821C77.1548 41.5892 77.0815 41.4786 77.032 41.3569C76.9825 41.2352 76.9576 41.1047 76.959 40.9732V36.0674H77.6579V40.9732C77.6579 41.0525 77.6894 41.1285 77.7453 41.1846C77.8012 41.2407 77.877 41.2721 77.9561 41.2721H81.8518C81.9309 41.2721 82.0067 41.2407 82.0626 41.1846C82.1185 41.1285 82.1499 41.0525 82.1499 40.9732V36.0674H82.8429V40.9732C82.8443 41.1045 82.8196 41.2347 82.7702 41.3563C82.7209 41.4777 82.6479 41.5881 82.5556 41.6812C82.4631 41.7741 82.3532 41.8476 82.2321 41.8974C82.111 41.9474 81.9812 41.9724 81.8504 41.9715ZM77.0008 36.1106V40.9732C76.9994 41.0992 77.0231 41.2241 77.0706 41.3406C77.1179 41.4573 77.1883 41.5631 77.2772 41.6521C77.3659 41.7411 77.4717 41.8114 77.5881 41.8587C77.7043 41.9062 77.829 41.9297 77.9545 41.9281H81.8504C81.9759 41.9297 82.1006 41.9062 82.217 41.8587C82.3332 41.8114 82.439 41.7411 82.5279 41.6521C82.6167 41.5631 82.687 41.4573 82.7345 41.3406C82.7818 41.2241 82.8056 41.0992 82.8042 40.9732V36.1106H82.1887V40.9732C82.1874 41.0628 82.1515 41.1485 82.0884 41.2118C82.0251 41.2751 81.9398 41.3113 81.8504 41.3124H77.9545C77.8653 41.3113 77.7798 41.2751 77.7167 41.2118C77.6534 41.1485 77.6175 41.0628 77.6162 40.9732V36.1106H77.0008Z" fill="#E79811"/>
<path d="M81.8512 42.0117H77.9554C77.8184 42.014 77.6822 41.989 77.555 41.9377C77.4279 41.8865 77.3123 41.8102 77.215 41.7134C77.1178 41.6166 77.0408 41.5011 76.9887 41.3741C76.9367 41.2468 76.9108 41.1105 76.9122 40.9732V36.0269H77.6945V40.9732C77.6964 41.0404 77.7239 41.1043 77.7712 41.1517C77.8187 41.1992 77.8825 41.2268 77.9494 41.2287H81.8453C81.9125 41.2276 81.9765 41.2002 82.0242 41.1525C82.0717 41.1049 82.0989 41.0405 82.1001 40.9732V36.0269H82.8825V40.9732C82.8839 41.1096 82.8583 41.2448 82.807 41.3712C82.7556 41.4975 82.6798 41.6124 82.5839 41.709C82.4878 41.8057 82.3736 41.8823 82.2478 41.9341C82.122 41.9862 81.9872 42.0125 81.8512 42.0117ZM77.0433 36.1523V40.9732C77.0419 41.0936 77.0645 41.2132 77.1098 41.3247C77.1551 41.4364 77.2223 41.5378 77.3073 41.623C77.3923 41.7081 77.4934 41.7754 77.6047 41.8209C77.7159 41.8663 77.8351 41.889 77.9554 41.8876H81.8512C81.9712 41.8889 82.0904 41.866 82.2017 41.8206C82.3128 41.775 82.4139 41.7076 82.4989 41.6225C82.5837 41.5373 82.6509 41.4361 82.6962 41.3246C82.7417 41.213 82.7645 41.0936 82.7633 40.9732V36.1523H82.2298V40.9732C82.2286 41.0734 82.1883 41.1693 82.1176 41.2403C82.0469 41.3112 81.9512 41.3515 81.8512 41.3528H77.9554C77.8551 41.3515 77.7594 41.3112 77.6884 41.2403C77.6175 41.1695 77.5769 41.0736 77.5753 40.9732V36.1523H77.0433Z" fill="#E79811"/>
<path d="M90.7735 38.7915C90.7741 38.9198 90.7492 39.047 90.7006 39.1658C90.6519 39.2846 90.5803 39.3925 90.4899 39.4834C90.3994 39.5742 90.2919 39.6461 90.1734 39.6952C90.0552 39.7442 89.9283 39.7691 89.8002 39.7688H88.9059L90.7422 41.9506H89.8733L88.0461 39.7688H85.903C85.797 39.764 85.6916 39.753 85.5869 39.7359V41.9506H84.9297V36.0972H89.8017C89.9297 36.0969 90.0566 36.1218 90.175 36.1708C90.2933 36.2198 90.4008 36.2917 90.4913 36.3826C90.5817 36.4735 90.6534 36.5814 90.702 36.7002C90.7508 36.8189 90.7755 36.9461 90.7749 37.0745L90.7735 38.7915ZM89.8002 39.1008C89.8408 39.1008 89.8808 39.0928 89.9183 39.0773C89.9556 39.0618 89.9897 39.0389 90.0183 39.0102C90.047 38.9816 90.0697 38.9474 90.0852 38.9098C90.1008 38.8724 90.1088 38.8321 90.1088 38.7915V37.0745C90.1091 36.9916 90.077 36.9117 90.0194 36.8521C89.9617 36.7926 89.883 36.7581 89.8002 36.7563H85.903C85.8194 36.7578 85.7397 36.7918 85.6806 36.8512C85.6217 36.9106 85.5881 36.9906 85.5869 37.0745V38.7915C85.5889 38.8742 85.623 38.9529 85.682 39.0107C85.7411 39.0685 85.8203 39.1008 85.903 39.1008H89.8002Z" fill="#E79811"/>
<path d="M90.8298 41.9907H89.8478L88.0206 39.8091H85.9028C85.8103 39.806 85.7182 39.797 85.627 39.7822V41.9907H84.8818V36.0522H89.8C90.069 36.0527 90.327 36.16 90.5173 36.3507C90.7075 36.5415 90.8145 36.8002 90.815 37.07V38.7869C90.8145 39.0566 90.7075 39.3153 90.5173 39.5061C90.327 39.6968 90.069 39.8041 89.8 39.8046H88.9953L90.8298 41.9907ZM89.8925 41.9086H90.654L88.8179 39.7269H89.8C90.0473 39.7264 90.2843 39.6277 90.4593 39.4524C90.6342 39.2771 90.7326 39.0394 90.7329 38.7914V37.0743C90.7329 36.8263 90.6346 36.5884 90.4598 36.4129C90.2848 36.2374 90.0475 36.1389 89.8 36.1389H84.9698V41.9086H85.545V39.6894L85.6329 39.6999C85.7221 39.7146 85.8123 39.7236 85.9028 39.7269H88.0593L89.8925 41.9086ZM89.8 39.1425H85.9028C85.8092 39.1422 85.7197 39.1054 85.6528 39.0397C85.5861 38.9742 85.5473 38.8851 85.545 38.7914V37.0743C85.5462 36.9796 85.5842 36.8892 85.6511 36.8221C85.7179 36.7551 85.8082 36.717 85.9028 36.7157H89.8C89.8934 36.7181 89.982 36.7569 90.0471 36.824C90.1123 36.8909 90.1489 36.9808 90.1487 37.0743V38.7914C90.1487 38.8843 90.1121 38.9733 90.0467 39.0393C89.9814 39.1051 89.8926 39.1422 89.8 39.1425ZM85.9028 36.7994C85.8301 36.8013 85.7612 36.831 85.7098 36.8824C85.6586 36.934 85.6289 37.0032 85.627 37.0759V38.7928C85.6293 38.8646 85.6593 38.9327 85.7109 38.9825C85.7623 39.0325 85.8311 39.0604 85.9028 39.0604H89.8C89.8707 39.0604 89.9386 39.0322 89.9887 38.9821C90.0387 38.9319 90.0668 38.8638 90.0668 38.7928V37.0743C90.0671 37.0024 90.0395 36.9333 89.9896 36.8816C89.9398 36.8299 89.8717 36.7999 89.8 36.798L85.9028 36.7994Z" fill="#E79811"/>
<path d="M90.7882 41.9714H89.8627V41.9639L88.0355 39.7882H85.9029C85.8094 39.7843 85.7164 39.7754 85.6241 39.7613H85.6077V41.9729H84.9072V36.0762H89.8C90.0639 36.0766 90.3171 36.1819 90.5036 36.369C90.6902 36.5562 90.7952 36.8098 90.7957 37.0745V38.7915C90.7952 39.0561 90.6902 39.3098 90.5036 39.4968C90.3171 39.684 90.0639 39.7893 89.8 39.7896H88.9536L90.7882 41.9714ZM89.8835 41.9281H90.6958L88.8611 39.7464H89.8C90.0525 39.7459 90.2946 39.6452 90.473 39.4663C90.6516 39.2872 90.7521 39.0445 90.7524 38.7915V37.0745C90.7524 36.8211 90.6522 36.578 90.4736 36.3987C90.295 36.2194 90.0529 36.1185 89.8 36.118H84.9505V41.9281H85.566V39.7119L85.63 39.7195C85.7203 39.7342 85.8114 39.7431 85.9029 39.7464H88.0594L89.8835 41.9281ZM89.8 39.1218H85.9029C85.8147 39.1218 85.7302 39.0872 85.6672 39.0254C85.6043 38.9637 85.5679 38.8797 85.566 38.7915V37.0745C85.5668 36.985 85.6024 36.8995 85.6653 36.836C85.7283 36.7726 85.8136 36.7364 85.9029 36.7353H89.8C89.8883 36.7376 89.9721 36.7743 90.0335 36.8377C90.095 36.901 90.1296 36.9861 90.1294 37.0745V38.7915C90.1294 38.8348 90.121 38.8777 90.1044 38.9178C90.0879 38.9579 90.0636 38.9942 90.033 39.025C90.0024 39.0557 89.9661 39.0799 89.9261 39.0965C89.8861 39.1132 89.8433 39.1218 89.8 39.1218ZM85.9029 36.7785C85.8238 36.7785 85.7479 36.81 85.6921 36.8661C85.6361 36.9222 85.6047 36.9982 85.6047 37.0774V38.7945C85.6074 38.8719 85.64 38.9452 85.6957 38.9991C85.7513 39.0528 85.8255 39.0829 85.9029 39.0829H89.8C89.8763 39.0824 89.9492 39.0519 90.003 38.998C90.0569 38.944 90.0874 38.8708 90.0877 38.7945V37.0745C90.0879 36.9969 90.0578 36.9225 90.0041 36.8667C89.9505 36.8109 89.8774 36.7784 89.8 36.7755L85.9029 36.7785Z" fill="#E79811"/>
<path d="M90.8764 42.012H89.848L88.0223 39.8302H85.9031C85.8183 39.8282 85.7336 39.8207 85.6497 39.8078V42.012H84.8672V36.0347H89.8003C90.077 36.0347 90.3423 36.1448 90.5381 36.341C90.7338 36.5373 90.8436 36.8033 90.8436 37.0807V38.7976C90.8417 39.0738 90.7309 39.338 90.5355 39.5326C90.34 39.727 90.0758 39.8362 89.8003 39.8362H89.0417L90.8764 42.012ZM89.9017 41.8879H90.6081L88.7734 39.7063H89.8003C90.0422 39.7058 90.2739 39.6093 90.4448 39.4379C90.6158 39.2665 90.712 39.0341 90.7125 38.7917V37.0746C90.712 36.8323 90.6158 36.5999 90.4448 36.4285C90.2739 36.257 90.0422 36.1606 89.8003 36.1602H84.9909V41.8879H85.5259V39.6643L85.6362 39.6794C85.7252 39.6933 85.8147 39.7022 85.9045 39.7063H88.0775L88.0894 39.7212L89.9017 41.8879ZM89.8003 39.1638H85.9031C85.8041 39.1635 85.7091 39.1243 85.6384 39.0549C85.5677 38.9853 85.5269 38.891 85.5245 38.7917V37.0746C85.5261 36.9745 85.5664 36.8788 85.637 36.808C85.7077 36.7372 85.8031 36.6967 85.9031 36.6952H89.8003C89.8994 36.6975 89.9934 36.7384 90.0628 36.8094C90.1322 36.8802 90.1711 36.9755 90.1714 37.0746V38.7917C90.1711 38.8902 90.1319 38.9847 90.0623 39.0544C89.9928 39.1241 89.8986 39.1635 89.8003 39.1638ZM85.9031 36.8191C85.8359 36.8204 85.772 36.8476 85.7247 36.8954C85.6773 36.943 85.6505 37.0074 85.6497 37.0746V38.7917C85.6516 38.8578 85.6792 38.9205 85.7264 38.9665C85.7738 39.0126 85.8372 39.0383 85.9031 39.0383H89.8003C89.8656 39.0383 89.9281 39.0123 89.9742 38.9661C90.0203 38.9198 90.0462 38.857 90.0462 38.7917V37.0746C90.0467 37.0084 90.0212 36.9444 89.9752 36.8966C89.9292 36.849 89.8666 36.8211 89.8003 36.8191H85.9031Z" fill="#E79811"/>
<path d="M92.8613 36.0894H93.5187V41.9502H92.8613V36.0894Z" fill="#E79811"/>
<path d="M93.5606 41.9907H92.8154V36.0522H93.5606V41.9907ZM92.9032 41.9086H93.4785V36.13H92.9032V41.9086Z" fill="#E79811"/>
<path d="M93.5413 41.9715H92.8408V36.0674H93.5413V41.9715ZM92.8839 41.9281H93.498V36.1106H92.8839V41.9281Z" fill="#E79811"/>
<path d="M93.5812 42.0117H92.7988V36.0269H93.5812V42.0117ZM92.924 41.8876H93.4574V36.1523H92.924V41.8876Z" fill="#E79811"/>
<path d="M101.411 36.0894V36.7485H98.8218V41.9502H98.1631V36.7485H95.5654V36.0894H101.411Z" fill="#E79811"/>
<path d="M98.8623 41.9909H98.1171V36.7891H95.5254V36.042H101.453V36.7891H98.8623V41.9909ZM98.2051 41.9087H98.7804V36.7069H101.371V36.13H95.6074V36.7069H98.2051V41.9087Z" fill="#E79811"/>
<path d="M98.8421 41.9715H98.1418V36.7697H95.5439V36.0674H101.432V36.7697H98.8421V41.9715ZM98.1849 41.9281H98.7989V36.7263H101.389V36.1106H95.5872V36.7263H98.1849V41.9281Z" fill="#E79811"/>
<path d="M98.8831 42.0117H98.1021V36.8114H95.5029V36.0269H101.473V36.8114H98.8831V42.0117ZM98.2259 41.8876H98.7593V36.6858H101.35V36.1523H95.6281V36.6858H98.2259V41.8876Z" fill="#E79811"/>
<path d="M108.953 36.0894L106.271 39.7431V41.9502H105.613V39.7431C104.745 38.5476 103.812 37.2849 102.931 36.0894H103.686L105.944 38.954C106.649 38.0425 107.47 37.001 108.18 36.0894H108.953Z" fill="#E79811"/>
<path d="M106.308 41.9913H105.563V39.7573C104.703 38.5738 103.788 37.3379 102.904 36.1425L102.834 36.0483H103.691L105.944 38.892C106.494 38.1823 107.104 37.4066 107.693 36.6506L108.166 36.0527H109.038L108.991 36.1185L106.308 39.7618V41.9913ZM105.651 41.9091H106.226V39.7303L106.234 39.7198L108.873 36.1334H108.202L107.755 36.7073C107.159 37.4709 106.535 38.263 105.976 38.9832L105.944 39.025L103.66 36.1334H103.005C103.883 37.3289 104.794 38.5483 105.643 39.7198L105.652 39.7303L105.651 41.9091Z" fill="#E79811"/>
<path d="M106.288 41.9712H105.588V39.7506C104.726 38.5642 103.808 37.3238 102.922 36.1253L102.88 36.067H103.688V36.076L105.937 38.9152C106.49 38.201 107.104 37.421 107.698 36.6603L108.166 36.0625H108.99L108.965 36.097L106.282 39.746L106.288 41.9712ZM105.63 41.9278H106.242V39.7371L108.904 36.1164H108.185L107.733 36.6917C107.136 37.4568 106.512 38.2474 105.954 38.9676L105.938 38.9886L105.92 38.9676L103.662 36.1104H102.963C103.849 37.3058 104.765 38.5461 105.625 39.7312L105.63 41.9278Z" fill="#E79811"/>
<path d="M106.329 42.0121H105.546V39.7705C104.715 38.6245 103.85 37.4559 102.889 36.1557L102.798 36.0332H103.708L103.722 36.0497L105.943 38.859C106.434 38.2239 106.977 37.5336 107.501 36.8656L108.154 36.0332H109.074L106.326 39.7691L106.329 42.0121ZM105.671 41.888H106.205V39.7227V39.7122L108.823 36.1527H108.205L107.758 36.7177C107.103 37.5515 106.518 38.2972 105.98 38.9936L105.931 39.0563L105.881 38.9936L103.636 36.1543H103.039C103.866 37.2706 104.796 38.5288 105.653 39.7092V39.7197V39.7392L105.671 41.888Z" fill="#E79811"/>
<path d="M114.439 36.0811H115.097V41.2902H120.283V41.9507H114.439V36.0811Z" fill="#E79811"/>
<path d="M120.322 41.991H114.395V36.0405H115.14V41.2498H120.328L120.322 41.991ZM114.477 41.9088H120.24V41.3319H115.052V36.1228H114.477V41.9088Z" fill="#E79811"/>
<path d="M120.303 41.9717H114.414V36.0601H115.115V41.2694H120.303V41.9717ZM114.457 41.9283H120.259V41.3126H115.071V36.1019H114.457V41.9283Z" fill="#E79811"/>
<path d="M120.343 42.0115H114.374V36.0176H115.155V41.2285H120.343V42.0115ZM114.498 41.8874H120.219V41.3524H115.036V36.1432H114.502L114.498 41.8874Z" fill="#E79811"/>
<path d="M127.32 36.7485H122.644V38.6911H126.402V39.359H122.644V41.3017H127.32V41.9622H121.986V36.0894H127.32V36.7485Z" fill="#E79811"/>
<path d="M127.36 41.9907H121.944V36.0522H127.36V36.7994H122.685V38.6554H126.444V39.4026H122.685V41.2586H127.36V41.9907ZM122.026 41.9086H127.278V41.3318H122.603V39.3114H126.362V38.7272H122.603V36.7068H127.278V36.13H122.026V41.9086Z" fill="#E79811"/>
<path d="M127.342 41.9715H121.966V36.0674H127.342V36.7697H122.665V38.6645H126.425V39.3743H122.665V41.2692H127.342V41.9715ZM122.008 41.9281H127.298V41.3124H122.623V39.34H126.382V38.7154H122.623V36.7263H127.298V36.1106H122.008V41.9281Z" fill="#E79811"/>
<path d="M127.383 42.0117H121.924V36.0269H127.383V36.8114H122.706V38.6225H126.465V39.416H122.706V41.2287H127.383V42.0117ZM122.049 41.8876H127.265V41.3528H122.581V39.2906H126.34V38.7421H122.581V36.6798H127.256V36.1464H122.04L122.049 41.8876Z" fill="#E79811"/>
<path d="M134.294 36.0899C134.422 36.0886 134.549 36.1131 134.668 36.1616C134.787 36.2102 134.894 36.2821 134.985 36.3728C135.076 36.4637 135.148 36.5718 135.196 36.6907C135.245 36.8096 135.269 36.9371 135.269 37.0656V41.9506H134.611V39.8093H130.088V41.9506H129.431V37.0656C129.43 36.9371 129.454 36.8096 129.503 36.6907C129.552 36.5718 129.623 36.4637 129.714 36.3728C129.805 36.2821 129.913 36.2102 130.031 36.1616C130.15 36.1131 130.277 36.0886 130.405 36.0899H134.294ZM134.611 39.1502V37.0581C134.61 36.9744 134.576 36.8945 134.517 36.8353C134.457 36.7762 134.377 36.7426 134.294 36.7413H130.398C130.314 36.7426 130.235 36.7762 130.175 36.8353C130.116 36.8945 130.082 36.9744 130.081 37.0581V39.1502H134.611Z" fill="#E79811"/>
<path d="M135.304 41.991H134.559V39.8511H130.122V41.991H129.377V37.0598C129.376 36.9255 129.401 36.7925 129.452 36.6683C129.502 36.544 129.577 36.4312 129.672 36.3364C129.766 36.2417 129.879 36.1668 130.003 36.1163C130.127 36.0657 130.26 36.0405 130.393 36.0421H134.289C134.423 36.0405 134.556 36.0657 134.68 36.1163C134.804 36.1668 134.916 36.2417 135.011 36.3364C135.106 36.4312 135.181 36.544 135.231 36.6683C135.282 36.7925 135.307 36.9255 135.306 37.0598L135.304 41.991ZM134.645 41.9089H135.222V37.0657C135.223 36.9424 135.2 36.8201 135.154 36.706C135.107 36.5918 135.038 36.4881 134.951 36.401C134.864 36.3139 134.761 36.2451 134.647 36.1986C134.533 36.152 134.411 36.1289 134.288 36.1303H130.398C130.275 36.1289 130.153 36.152 130.039 36.1986C129.925 36.2451 129.822 36.314 129.735 36.4011C129.648 36.4882 129.58 36.592 129.533 36.706C129.487 36.8202 129.464 36.9424 129.465 37.0657V41.9089H130.04V39.769H134.651L134.645 41.9089ZM134.645 39.1906H130.04V37.0657C130.041 36.9709 130.08 36.8804 130.146 36.8133C130.213 36.7464 130.303 36.7082 130.398 36.7071H134.294C134.388 36.7082 134.479 36.7464 134.545 36.8133C134.612 36.8804 134.65 36.9709 134.651 37.0657L134.645 39.1906ZM130.116 39.1085H134.564V37.0657C134.562 36.993 134.532 36.9238 134.481 36.8724C134.429 36.8209 134.36 36.7911 134.288 36.7892H130.398C130.325 36.7911 130.256 36.8209 130.205 36.8724C130.154 36.9238 130.124 36.993 130.122 37.0657L130.116 39.1085Z" fill="#E79811"/>
<path d="M135.291 41.9711H134.59V39.8298H130.103V41.9711H129.402V37.0652C129.401 36.9338 129.426 36.8033 129.475 36.6816C129.525 36.5598 129.598 36.4492 129.691 36.3562C129.784 36.2633 129.894 36.1898 130.015 36.1401C130.137 36.0905 130.267 36.0655 130.398 36.067H134.294C134.425 36.0655 134.555 36.0905 134.677 36.1401C134.798 36.1898 134.909 36.2633 135.001 36.3562C135.094 36.4491 135.168 36.5597 135.217 36.6814C135.267 36.8031 135.292 36.9336 135.291 37.0652V41.9711ZM134.632 41.9278H135.248V37.0652C135.249 36.9393 135.225 36.8146 135.177 36.698C135.13 36.5814 135.06 36.4757 134.971 36.3867C134.882 36.2979 134.776 36.2275 134.66 36.1801C134.544 36.1326 134.419 36.1089 134.294 36.1103H130.398C130.273 36.1089 130.148 36.1326 130.032 36.1801C129.916 36.2275 129.81 36.2979 129.721 36.3867C129.632 36.4757 129.562 36.5814 129.514 36.698C129.467 36.8146 129.443 36.9393 129.444 37.0652V41.9278H130.06V39.7879H134.632V41.9278ZM134.632 39.1707H130.06V37.0652C130.061 36.9756 130.097 36.8899 130.16 36.8266C130.223 36.7632 130.309 36.7271 130.398 36.726H134.294C134.383 36.7271 134.469 36.7632 134.532 36.8266C134.595 36.8899 134.631 36.9756 134.632 37.0652V39.1707ZM130.103 39.1288H134.59V37.0652C134.59 36.986 134.559 36.91 134.503 36.8539C134.447 36.7978 134.371 36.7663 134.292 36.7663H130.398C130.319 36.7663 130.243 36.7978 130.187 36.8539C130.131 36.91 130.1 36.986 130.1 37.0652L130.103 39.1288Z" fill="#E79811"/>
<path d="M135.331 42.0118H134.548V39.8719H130.143V42.0118H129.36V37.0656C129.359 36.9282 129.385 36.7919 129.437 36.6648C129.489 36.5376 129.566 36.4221 129.663 36.3253C129.761 36.2285 129.876 36.1523 130.003 36.101C130.131 36.0497 130.267 36.0247 130.404 36.027H134.299C134.437 36.0247 134.573 36.0497 134.7 36.101C134.827 36.1523 134.943 36.2285 135.04 36.3253C135.137 36.4221 135.214 36.5376 135.266 36.6648C135.318 36.7919 135.344 36.9282 135.343 37.0656L135.331 42.0118ZM134.674 41.8878H135.206V37.0656C135.208 36.9449 135.186 36.8251 135.141 36.7132C135.096 36.6013 135.029 36.4997 134.943 36.4144C134.858 36.3292 134.757 36.262 134.645 36.217C134.533 36.1721 134.414 36.1501 134.294 36.1525H130.398C130.277 36.1501 130.158 36.1721 130.046 36.217C129.934 36.262 129.833 36.3292 129.748 36.4144C129.663 36.4997 129.596 36.6013 129.551 36.7132C129.505 36.8251 129.483 36.9449 129.486 37.0656V41.8878H130.019V39.7464H134.674V41.8878ZM134.674 39.213H130.019V37.0656C130.021 36.9654 130.061 36.8697 130.132 36.7989C130.202 36.7281 130.298 36.6875 130.398 36.6859H134.294C134.394 36.6875 134.489 36.7279 134.56 36.7987C134.631 36.8696 134.672 36.9653 134.674 37.0656V39.213ZM130.143 39.0875H134.548V37.0656C134.547 36.9983 134.52 36.9341 134.472 36.8866C134.425 36.8393 134.361 36.8124 134.294 36.8116H130.398C130.331 36.8124 130.267 36.8393 130.219 36.8866C130.171 36.9341 130.144 36.9983 130.143 37.0656V39.0875Z" fill="#E79811"/>
<path d="M142.3 36.0899C142.428 36.0886 142.555 36.1131 142.674 36.1616C142.793 36.2102 142.901 36.2821 142.992 36.3728C143.082 36.4637 143.154 36.5718 143.203 36.6907C143.251 36.8096 143.276 36.9371 143.275 37.0656V40.9734C143.276 41.102 143.251 41.2295 143.203 41.3486C143.154 41.4675 143.082 41.5757 142.992 41.6666C142.901 41.7576 142.793 41.8295 142.674 41.8783C142.556 41.927 142.428 41.9516 142.3 41.9507H137.43V36.0899H142.3ZM142.618 37.0656C142.616 36.9818 142.582 36.9019 142.523 36.8428C142.464 36.7836 142.384 36.7499 142.3 36.7488H138.404C138.321 36.7499 138.241 36.7836 138.182 36.8428C138.122 36.9019 138.088 36.9818 138.087 37.0656V40.9734C138.088 41.0572 138.122 41.1371 138.182 41.1961C138.241 41.2554 138.321 41.289 138.404 41.2901H142.3C142.384 41.289 142.464 41.2554 142.523 41.1961C142.582 41.1371 142.616 41.0572 142.618 40.9734V37.0656Z" fill="#E79811"/>
<path d="M142.3 41.9912H137.382V36.0528H142.3C142.434 36.0511 142.567 36.0763 142.69 36.1269C142.815 36.1775 142.927 36.2524 143.022 36.3472C143.116 36.442 143.191 36.5548 143.242 36.679C143.293 36.8031 143.318 36.9363 143.316 37.0704V40.9781C143.317 41.1119 143.291 41.2444 143.241 41.3682C143.19 41.4918 143.115 41.6041 143.02 41.6984C142.925 41.7927 142.813 41.8672 142.69 41.9175C142.566 41.9677 142.433 41.9928 142.3 41.9912ZM137.47 41.909H142.3C142.423 41.9104 142.545 41.8872 142.659 41.8407C142.773 41.7942 142.876 41.7254 142.963 41.6383C143.05 41.5512 143.119 41.4475 143.166 41.3334C143.212 41.2192 143.236 41.0968 143.235 40.9735V37.066C143.236 36.9425 143.212 36.8203 143.166 36.7061C143.119 36.5921 143.05 36.4883 142.963 36.4012C142.876 36.3141 142.773 36.2452 142.659 36.1988C142.545 36.1523 142.423 36.1291 142.3 36.1305H137.47V41.909ZM142.3 41.3323H138.404C138.31 41.3311 138.219 41.293 138.152 41.2259C138.086 41.1589 138.048 41.0683 138.047 40.9735V37.066C138.048 36.9712 138.086 36.8806 138.152 36.8136C138.219 36.7465 138.31 36.7085 138.404 36.7072H142.3C142.395 36.7085 142.485 36.7465 142.552 36.8136C142.618 36.8806 142.657 36.9712 142.658 37.066V40.9735C142.657 41.0683 142.618 41.1589 142.552 41.2259C142.485 41.293 142.395 41.3311 142.3 41.3323ZM138.404 36.7895C138.332 36.7913 138.263 36.8211 138.211 36.8725C138.16 36.924 138.13 36.9931 138.128 37.066V40.9735C138.13 41.0464 138.16 41.1155 138.211 41.167C138.263 41.2184 138.332 41.2482 138.404 41.2501H142.3C142.372 41.2482 142.442 41.2184 142.493 41.167C142.544 41.1155 142.574 41.0464 142.576 40.9735V37.066C142.574 36.9931 142.544 36.924 142.493 36.8725C142.442 36.8211 142.372 36.7913 142.3 36.7895H138.404Z" fill="#E79811"/>
<path d="M142.301 41.9711H137.409V36.067H142.301C142.432 36.0655 142.562 36.0905 142.683 36.1401C142.805 36.1898 142.915 36.2633 143.008 36.3562C143.1 36.4492 143.174 36.5598 143.223 36.6816C143.273 36.8033 143.298 36.9338 143.296 37.0652V40.973C143.298 41.1044 143.273 41.2348 143.223 41.3565C143.174 41.4782 143.1 41.5888 143.008 41.6819C142.915 41.7748 142.805 41.8483 142.683 41.8979C142.562 41.9476 142.432 41.9725 142.301 41.9711ZM137.451 41.9279H142.301C142.426 41.9294 142.551 41.9058 142.667 41.8585C142.784 41.811 142.889 41.7408 142.978 41.6518C143.067 41.5628 143.137 41.4569 143.185 41.3404C143.232 41.2238 143.256 41.0988 143.254 40.973V37.0652C143.256 36.9393 143.232 36.8146 143.184 36.698C143.137 36.5814 143.067 36.4757 142.978 36.3867C142.889 36.2979 142.783 36.2275 142.667 36.1801C142.551 36.1326 142.426 36.1089 142.301 36.1103H137.451V41.9279ZM142.301 41.3122H138.405C138.315 41.3109 138.23 41.2749 138.167 41.2114C138.104 41.1481 138.068 41.0624 138.067 40.973V37.0652C138.068 36.9756 138.104 36.8899 138.167 36.8266C138.23 36.7632 138.315 36.7271 138.405 36.726H142.301C142.39 36.7271 142.475 36.7632 142.539 36.8266C142.602 36.8899 142.638 36.9756 142.639 37.0652V40.973C142.638 41.0624 142.602 41.1481 142.539 41.2114C142.475 41.2749 142.39 41.3109 142.301 41.3122ZM138.405 36.7693C138.326 36.7693 138.25 36.8008 138.194 36.8569C138.138 36.913 138.107 36.9889 138.107 37.0682V40.9759C138.107 41.0552 138.138 41.1312 138.194 41.1873C138.25 41.2432 138.326 41.2747 138.405 41.2747H142.301C142.38 41.2747 142.455 41.2432 142.511 41.1873C142.567 41.1312 142.599 41.0552 142.599 40.9759V37.0652C142.599 36.986 142.567 36.91 142.511 36.8539C142.455 36.7978 142.38 36.7663 142.301 36.7663L138.405 36.7693Z" fill="#E79811"/>
<path d="M142.3 42.0119H137.367V36.027H142.3C142.437 36.0247 142.573 36.0497 142.701 36.101C142.828 36.1523 142.943 36.2285 143.041 36.3253C143.138 36.4221 143.215 36.5376 143.267 36.6648C143.319 36.7919 143.345 36.9282 143.344 37.0656V40.9733C143.345 41.1107 143.319 41.247 143.267 41.3742C143.215 41.5013 143.138 41.6167 143.041 41.7136C142.943 41.8104 142.828 41.8867 142.701 41.9379C142.573 41.9891 142.437 42.0142 142.3 42.0119ZM137.492 41.8878H142.3C142.42 41.889 142.54 41.8662 142.651 41.8207C142.762 41.7751 142.863 41.7078 142.948 41.6227C143.033 41.5375 143.1 41.4363 143.145 41.3247C143.191 41.2132 143.214 41.0938 143.212 40.9733V37.0656C143.215 36.9449 143.192 36.8251 143.147 36.7132C143.102 36.6013 143.035 36.4997 142.95 36.4144C142.865 36.3292 142.764 36.262 142.652 36.217C142.54 36.1721 142.421 36.1501 142.3 36.1525H137.492V41.8878ZM142.3 41.3529H138.405C138.304 41.3517 138.209 41.3114 138.137 41.2404C138.067 41.1696 138.026 41.0737 138.025 40.9733V37.0656C138.026 36.9653 138.067 36.8696 138.138 36.7988C138.209 36.7279 138.304 36.6875 138.405 36.6859H142.3C142.4 36.6875 142.496 36.7279 142.567 36.7988C142.638 36.8696 142.678 36.9653 142.68 37.0656V40.9733C142.679 41.0737 142.638 41.1696 142.567 41.2404C142.496 41.3114 142.4 41.3517 142.3 41.3529ZM138.405 36.8116C138.337 36.8124 138.273 36.8393 138.226 36.8866C138.178 36.9341 138.151 36.9983 138.15 37.0656V40.9733C138.151 41.0407 138.178 41.1051 138.226 41.1527C138.273 41.2003 138.337 41.2277 138.405 41.2288H142.3C142.367 41.2277 142.432 41.2003 142.479 41.1527C142.527 41.1051 142.554 41.0407 142.555 40.9733V37.0656C142.554 36.9983 142.527 36.9341 142.479 36.8866C142.432 36.8393 142.367 36.8124 142.3 36.8116H138.405Z" fill="#E79811"/>
<path d="M150.752 36.7485H146.077V38.6911H149.836V39.359H146.077V41.3017H150.752V41.9622H145.42V36.0894H150.752V36.7485Z" fill="#E79811"/>
<path d="M150.794 41.9907H145.378V36.0522H150.794V36.7994H146.117V38.6554H149.876V39.4026H146.117V41.2586H150.794V41.9907ZM145.46 41.9086H150.712V41.3318H146.035V39.3114H149.794V38.7272H146.035V36.7068H150.712V36.13H145.46V41.9086Z" fill="#E79811"/>
<path d="M150.775 41.9715H145.397V36.0674H150.775V36.7697H146.098V38.6645H149.857V39.3743H146.098V41.2692H150.775V41.9715ZM145.441 41.9281H150.732V41.3124H146.056V39.34H149.815V38.7154H146.056V36.7263H150.732V36.1106H145.439L145.441 41.9281Z" fill="#E79811"/>
<path d="M150.815 42.0117H145.357V36.0269H150.815V36.8114H146.14V38.6225H149.899V39.416H146.14V41.2287H150.815V42.0117ZM145.481 41.8876H150.697V41.3528H146.021V39.2906H149.779V38.7421H146.021V36.6798H150.697V36.1464H145.481V41.8876Z" fill="#E79811"/>
<path d="M158.678 38.7915C158.678 38.92 158.653 39.0472 158.605 39.166C158.556 39.2847 158.484 39.3927 158.394 39.4834C158.303 39.5742 158.195 39.6463 158.076 39.6952C157.958 39.7442 157.831 39.7691 157.703 39.7688H156.809L158.644 41.9506H157.775L155.947 39.7688H153.804C153.698 39.764 153.593 39.753 153.488 39.7359V41.9506H152.831V36.0972H157.701C157.83 36.0969 157.956 36.1218 158.075 36.1708C158.194 36.2198 158.301 36.2917 158.392 36.3826C158.483 36.4733 158.555 36.5813 158.603 36.7C158.651 36.8188 158.676 36.946 158.676 37.0745L158.678 38.7915ZM157.703 39.1008C157.784 39.1008 157.864 39.0682 157.922 39.0102C157.98 38.9523 158.011 38.8736 158.011 38.7915V37.0745C158.012 36.9916 157.98 36.9117 157.922 36.8521C157.864 36.7926 157.786 36.7581 157.703 36.7563H153.806C153.722 36.7578 153.642 36.7918 153.584 36.8512C153.524 36.9106 153.491 36.9906 153.49 37.0745V38.7915C153.492 38.8742 153.526 38.9529 153.585 39.0107C153.644 39.0685 153.723 39.1008 153.806 39.1008H157.703Z" fill="#E79811"/>
<path d="M158.733 41.9907H157.756L155.931 39.8091H153.806C153.714 39.8061 153.622 39.797 153.531 39.7822V41.9907H152.786V36.0522H157.704C157.973 36.0522 158.231 36.1594 158.422 36.3504C158.612 36.5412 158.72 36.8 158.72 37.07V38.7869C158.72 39.0568 158.612 39.3156 158.422 39.5064C158.231 39.6974 157.973 39.8046 157.704 39.8046H156.9L158.733 41.9907ZM157.795 41.9086H158.554L156.718 39.7269H157.7C157.947 39.7264 158.184 39.6277 158.359 39.4524C158.534 39.2771 158.633 39.0394 158.633 38.7914V37.0743C158.633 36.8263 158.534 36.5884 158.359 36.4129C158.184 36.2374 157.947 36.1389 157.7 36.1389H152.87V41.9086H153.446V39.6894L153.53 39.6999C153.62 39.714 153.711 39.7229 153.803 39.7269H155.965L157.795 41.9086ZM157.703 39.1425H153.806C153.712 39.1422 153.623 39.1052 153.556 39.0397C153.49 38.9741 153.451 38.8849 153.449 38.7914V37.0743C153.45 36.9797 153.488 36.8892 153.554 36.8221C153.621 36.7551 153.711 36.717 153.806 36.7157H157.703C157.797 36.7181 157.886 36.7568 157.951 36.8238C158.015 36.8907 158.053 36.9807 158.053 37.0743V38.7914C158.053 38.8845 158.015 38.9735 157.95 39.0393C157.884 39.1051 157.795 39.1422 157.703 39.1425ZM153.806 36.7994C153.733 36.8013 153.664 36.8312 153.613 36.8826C153.562 36.9341 153.533 37.0034 153.531 37.0759V38.7928C153.533 38.8646 153.563 38.9326 153.614 38.9825C153.666 39.0325 153.734 39.0604 153.806 39.0604H157.703C157.773 39.0604 157.842 39.0322 157.892 38.9821C157.942 38.9319 157.97 38.8638 157.97 38.7928V37.0743C157.97 37.0024 157.942 36.9333 157.892 36.8816C157.842 36.8299 157.775 36.7999 157.703 36.798L153.806 36.7994Z" fill="#E79811"/>
<path d="M158.691 41.9714H157.766V41.9639L155.94 39.7882H153.806C153.712 39.7843 153.619 39.7754 153.526 39.7613H153.511V41.9729H152.811V36.0762H157.703C157.968 36.0766 158.221 36.1819 158.407 36.369C158.594 36.5562 158.699 36.8098 158.699 37.0745V38.7915C158.699 39.0561 158.594 39.3098 158.407 39.4968C158.221 39.684 157.968 39.7893 157.703 39.7896H156.857L158.691 41.9714ZM157.786 41.9281H158.599L156.766 39.7464H157.705C157.958 39.7464 158.2 39.6457 158.378 39.4666C158.557 39.2875 158.657 39.0447 158.657 38.7915V37.0745C158.657 36.8211 158.557 36.578 158.378 36.3987C158.2 36.2194 157.958 36.1185 157.705 36.118H152.855V41.9281H153.471V39.7119L153.532 39.7195C153.623 39.7334 153.715 39.7423 153.808 39.7464H155.961L157.786 41.9281ZM157.703 39.1218H153.806C153.718 39.1218 153.634 39.0872 153.571 39.0254C153.508 38.9637 153.471 38.8797 153.469 38.7915V37.0745C153.47 36.985 153.506 36.8995 153.569 36.836C153.632 36.7726 153.717 36.7364 153.806 36.7353H157.703C157.791 36.7376 157.875 36.7743 157.936 36.8377C157.999 36.901 158.033 36.9861 158.033 37.0745V38.7915C158.033 38.8348 158.024 38.8777 158.008 38.9178C157.991 38.9579 157.968 38.9942 157.936 39.025C157.905 39.0557 157.869 39.0799 157.83 39.0965C157.789 39.1132 157.747 39.1218 157.703 39.1218ZM153.806 36.7785C153.727 36.7785 153.651 36.81 153.595 36.8661C153.539 36.9222 153.508 36.9982 153.508 37.0774V38.7945C153.511 38.8719 153.543 38.9452 153.599 38.9991C153.655 39.0528 153.729 39.0829 153.806 39.0829H157.703C157.78 39.0824 157.852 39.0519 157.907 38.998C157.96 38.944 157.991 38.8708 157.991 38.7945V37.0745C157.991 36.9969 157.961 36.9225 157.908 36.8667C157.853 36.8109 157.78 36.7784 157.703 36.7755L153.806 36.7785Z" fill="#E79811"/>
<path d="M158.779 42.012H157.748L155.92 39.8302H153.805C153.72 39.8276 153.636 39.82 153.552 39.8078V42.012H152.77V36.0347H157.703C157.979 36.0347 158.245 36.1448 158.44 36.341C158.635 36.5373 158.746 36.8033 158.746 37.0807V38.7976C158.743 39.0738 158.634 39.338 158.437 39.5326C158.242 39.727 157.978 39.8362 157.703 39.8362H156.943L158.779 42.012ZM157.806 41.8879H158.51L156.676 39.7063H157.703C157.945 39.7058 158.176 39.6093 158.346 39.4379C158.518 39.2665 158.614 39.0341 158.615 38.7917V37.0746C158.614 36.8323 158.518 36.5999 158.346 36.4285C158.176 36.257 157.945 36.1606 157.703 36.1602H152.89V41.8879H153.422V39.6659L153.531 39.6794C153.62 39.693 153.71 39.7019 153.801 39.7063H155.974L155.986 39.7212L157.806 41.8879ZM157.703 39.1638H153.805C153.706 39.1635 153.611 39.1243 153.541 39.0549C153.47 38.9853 153.429 38.891 153.427 38.7917V37.0746C153.428 36.9745 153.469 36.8788 153.539 36.808C153.61 36.7372 153.705 36.6967 153.805 36.6952H157.703C157.801 36.6975 157.896 36.7384 157.965 36.8094C158.034 36.8802 158.073 36.9755 158.073 37.0746V38.7917C158.073 38.8902 158.034 38.9847 157.965 39.0544C157.895 39.1241 157.801 39.1635 157.703 39.1638ZM153.805 36.8191C153.738 36.8211 153.675 36.8487 153.628 36.8962C153.581 36.9438 153.553 37.0077 153.552 37.0746V38.7917C153.554 38.8578 153.581 38.9205 153.629 38.9665C153.676 39.0126 153.739 39.0383 153.805 39.0383H157.703C157.768 39.0383 157.831 39.0123 157.876 38.9661C157.923 38.9198 157.948 38.857 157.948 38.7917V37.0746C157.949 37.0084 157.923 36.9444 157.878 36.8966C157.831 36.849 157.768 36.8211 157.703 36.8191H153.805Z" fill="#E79811"/>
<path d="M166.304 38.8812C166.404 38.9735 166.484 39.0853 166.54 39.21C166.597 39.3346 166.626 39.4693 166.628 39.6059V40.9733C166.629 41.1018 166.604 41.2292 166.556 41.3481C166.508 41.467 166.436 41.5751 166.347 41.6661C166.256 41.757 166.148 41.8289 166.029 41.8778C165.911 41.9266 165.784 41.9514 165.656 41.9506H160.784V36.0899H165.403C165.531 36.0888 165.659 36.1134 165.778 36.1621C165.895 36.2108 166.003 36.2826 166.094 36.3734C166.184 36.4642 166.256 36.5723 166.304 36.691C166.353 36.8099 166.378 36.9371 166.376 37.0656V38.3119C166.376 38.4617 166.339 38.6091 166.272 38.7422L166.304 38.8812ZM161.758 36.7488C161.675 36.7504 161.595 36.7842 161.536 36.8431C161.476 36.9022 161.442 36.9819 161.44 37.0656V38.3119C161.442 38.3955 161.476 38.4753 161.536 38.5343C161.595 38.5934 161.675 38.6271 161.758 38.6287H165.403C165.486 38.6268 165.564 38.5925 165.622 38.5332C165.679 38.474 165.712 38.3946 165.712 38.3119V37.0656C165.712 36.9829 165.679 36.9034 165.622 36.8442C165.564 36.785 165.486 36.7507 165.403 36.7488H161.758ZM165.972 39.6059C165.97 39.5221 165.937 39.4421 165.878 39.3827C165.819 39.3233 165.739 39.2892 165.656 39.2878H161.758C161.675 39.2892 161.595 39.3233 161.536 39.3827C161.476 39.4419 161.442 39.5221 161.44 39.6059V40.9733C161.442 41.057 161.476 41.1367 161.536 41.1958C161.595 41.2547 161.675 41.2885 161.758 41.2901H165.656C165.739 41.2885 165.819 41.2547 165.878 41.1956C165.936 41.1366 165.97 41.0568 165.972 40.9733V39.6059Z" fill="#E79811"/>
<path d="M165.653 41.9904H160.734V36.0518H165.395C165.528 36.0505 165.661 36.0758 165.784 36.1265C165.909 36.1771 166.022 36.252 166.116 36.3468C166.209 36.4416 166.284 36.5544 166.336 36.6785C166.386 36.8025 166.411 36.9356 166.409 37.0695V38.3158C166.408 38.4673 166.373 38.6166 166.306 38.7521L166.333 38.8643C166.434 38.9602 166.516 39.0759 166.573 39.2042C166.63 39.3326 166.659 39.471 166.661 39.6114V40.9786C166.663 41.1117 166.636 41.2436 166.586 41.3666C166.536 41.4895 166.461 41.6014 166.367 41.6954C166.273 41.7894 166.163 41.864 166.039 41.9146C165.917 41.9652 165.786 41.991 165.653 41.9904ZM160.822 41.9082H165.653C165.775 41.9096 165.897 41.8864 166.011 41.8398C166.125 41.7933 166.228 41.7245 166.316 41.6373C166.403 41.5502 166.472 41.4465 166.517 41.3324C166.564 41.2182 166.588 41.096 166.586 40.9727V39.6055C166.584 39.4743 166.555 39.3452 166.502 39.2257C166.448 39.1062 166.37 38.999 166.273 38.9105L166.264 38.9031L166.225 38.7372V38.7237C166.291 38.5961 166.325 38.4549 166.327 38.3112V37.065C166.328 36.9418 166.305 36.8195 166.258 36.7054C166.213 36.5912 166.144 36.4876 166.056 36.4004C165.969 36.3133 165.866 36.2445 165.752 36.198C165.638 36.1514 165.516 36.1281 165.394 36.1295H160.816L160.822 41.9082ZM165.653 41.3313H161.755C161.661 41.3302 161.57 41.292 161.503 41.2251C161.438 41.158 161.398 41.0675 161.398 40.9727V39.6055C161.398 39.5107 161.438 39.4201 161.503 39.3531C161.57 39.286 161.661 39.248 161.755 39.2467H165.653C165.747 39.248 165.838 39.2862 165.903 39.3532C165.97 39.4203 166.008 39.5108 166.009 39.6055V40.9727C166.008 41.0673 165.97 41.1579 165.903 41.2249C165.838 41.292 165.747 41.3302 165.653 41.3313ZM161.755 39.329C161.683 39.3305 161.614 39.3601 161.563 39.4117C161.511 39.4631 161.481 39.5326 161.48 39.6055V40.9727C161.481 41.0454 161.511 41.1146 161.563 41.1662C161.614 41.2176 161.683 41.2473 161.755 41.2492H165.653C165.725 41.2469 165.794 41.2171 165.845 41.1656C165.895 41.1142 165.925 41.0452 165.927 40.9727V39.6055C165.925 39.5328 165.895 39.4635 165.845 39.4121C165.794 39.3606 165.725 39.3308 165.653 39.329H161.755ZM165.402 38.67H161.755C161.661 38.6688 161.57 38.6307 161.503 38.5636C161.438 38.4966 161.398 38.406 161.398 38.3112V37.065C161.398 36.9703 161.438 36.8798 161.503 36.8127C161.57 36.7457 161.661 36.7076 161.755 36.7064H165.402C165.494 36.7087 165.583 36.7476 165.648 36.8146C165.713 36.8815 165.75 36.9714 165.75 37.065V38.3112C165.75 38.4049 165.713 38.4949 165.648 38.5618C165.583 38.6288 165.494 38.6677 165.402 38.67ZM161.755 36.7886C161.683 36.7905 161.614 36.8203 161.563 36.8716C161.511 36.923 161.481 36.9923 161.48 37.065V38.3112C161.481 38.3841 161.511 38.4532 161.563 38.5047C161.614 38.5561 161.683 38.5859 161.755 38.5878H165.402C165.472 38.5854 165.541 38.5553 165.591 38.5036C165.639 38.4521 165.667 38.3832 165.667 38.3112V37.065C165.667 36.9932 165.639 36.9243 165.591 36.8726C165.541 36.821 165.472 36.791 165.402 36.7886H161.755Z" fill="#E79811"/>
<path d="M165.654 41.9716H160.76V36.0674H165.402C165.532 36.0662 165.663 36.0912 165.783 36.1409C165.905 36.1907 166.015 36.2642 166.108 36.3571C166.2 36.45 166.274 36.5606 166.324 36.6822C166.374 36.8039 166.397 36.9343 166.397 37.0657V38.312C166.396 38.4626 166.36 38.6108 166.293 38.7453L166.321 38.8693C166.422 38.9636 166.504 39.0775 166.56 39.2041C166.616 39.3308 166.646 39.4674 166.647 39.6061V40.9733C166.649 41.1047 166.624 41.2351 166.574 41.3567C166.525 41.4782 166.452 41.5888 166.36 41.6817C166.266 41.7748 166.157 41.8483 166.035 41.8979C165.915 41.9478 165.785 41.9728 165.654 41.9716ZM160.802 41.9282H165.654C165.779 41.9296 165.904 41.9059 166.019 41.8585C166.135 41.811 166.241 41.7406 166.33 41.6517C166.419 41.5627 166.488 41.4569 166.536 41.3404C166.583 41.224 166.607 41.0991 166.605 40.9733V39.6061C166.604 39.4724 166.574 39.3405 166.519 39.2186C166.465 39.0969 166.385 38.9875 166.286 38.8978V38.8918L166.252 38.7424V38.7348C166.319 38.6043 166.354 38.46 166.355 38.3134V37.0671C166.357 36.9415 166.333 36.8168 166.285 36.7004C166.238 36.584 166.168 36.4782 166.079 36.3892C165.99 36.3004 165.885 36.23 165.769 36.1826C165.652 36.135 165.529 36.1111 165.404 36.1122H160.804L160.802 41.9282ZM165.654 41.3126H161.755C161.666 41.3114 161.582 41.2753 161.518 41.2119C161.455 41.1486 161.419 41.0629 161.418 40.9733V39.6061C161.419 39.5164 161.455 39.4308 161.518 39.3675C161.582 39.3042 161.666 39.268 161.755 39.2669H165.654C165.743 39.268 165.827 39.3042 165.891 39.3676C165.954 39.4309 165.989 39.5166 165.989 39.6061V40.9733C165.989 41.0629 165.954 41.1484 165.891 41.2119C165.827 41.2752 165.743 41.3114 165.654 41.3126ZM161.755 39.3101C161.677 39.3101 161.6 39.3416 161.546 39.3977C161.489 39.4538 161.458 39.5298 161.458 39.609V40.9764C161.458 41.0555 161.489 41.1317 161.546 41.1876C161.6 41.2437 161.677 41.2752 161.755 41.2752H165.654C165.732 41.2752 165.808 41.2437 165.865 41.1876C165.919 41.1317 165.952 41.0555 165.952 40.9764V39.609C165.952 39.5298 165.919 39.4538 165.865 39.3977C165.808 39.3416 165.732 39.3101 165.654 39.3101H161.755ZM165.402 38.6496H161.755C161.666 38.6488 161.582 38.6131 161.518 38.55C161.455 38.4868 161.419 38.4015 161.418 38.312V37.0657C161.419 36.9761 161.455 36.8904 161.518 36.8271C161.582 36.7637 161.666 36.7276 161.755 36.7264H165.402C165.489 36.7287 165.574 36.7655 165.635 36.829C165.696 36.8923 165.73 36.9772 165.73 37.0657V38.312C165.73 38.4002 165.696 38.485 165.635 38.5481C165.574 38.6112 165.489 38.6477 165.402 38.6496ZM161.755 36.7698C161.677 36.7698 161.6 36.8013 161.546 36.8573C161.489 36.9134 161.458 36.9894 161.458 37.0687V38.315C161.458 38.3942 161.489 38.4702 161.546 38.5263C161.6 38.5822 161.677 38.6137 161.755 38.6137H165.402C165.479 38.6108 165.55 38.5779 165.605 38.5221C165.658 38.4665 165.688 38.3922 165.688 38.315V37.0687C165.688 36.9914 165.658 36.9172 165.605 36.8614C165.55 36.8056 165.479 36.7729 165.402 36.7698H161.755Z" fill="#E79811"/>
<path d="M165.653 42.0114H160.719V36.0265H165.402C165.537 36.024 165.673 36.0489 165.802 36.1002C165.928 36.1514 166.044 36.2275 166.142 36.3245C166.239 36.4213 166.316 36.5368 166.367 36.664C166.42 36.7912 166.445 36.9277 166.444 37.0651V38.3114C166.444 38.4632 166.409 38.6128 166.342 38.7493L166.366 38.848C166.467 38.9457 166.55 39.0631 166.606 39.1932C166.664 39.3233 166.694 39.4635 166.695 39.6056V40.9728C166.697 41.1102 166.672 41.2465 166.619 41.3737C166.567 41.5008 166.491 41.6163 166.394 41.7131C166.295 41.8099 166.18 41.8862 166.053 41.9374C165.927 41.9887 165.789 42.0139 165.653 42.0114ZM160.844 41.8874H165.653C165.773 41.8896 165.892 41.8675 166.005 41.8223C166.116 41.7771 166.217 41.7098 166.302 41.6244C166.387 41.539 166.455 41.4373 166.498 41.3253C166.544 41.2133 166.566 41.0935 166.564 40.9728V39.6056C166.562 39.4781 166.536 39.3521 166.484 39.2355C166.433 39.1188 166.358 39.0139 166.266 38.9271L166.256 38.9181L166.248 38.9017L166.208 38.7344V38.7223C166.273 38.5952 166.309 38.4544 166.309 38.3114V37.0651C166.312 36.9446 166.291 36.8249 166.245 36.7131C166.2 36.6014 166.133 36.4998 166.048 36.4146C165.962 36.3294 165.862 36.2622 165.75 36.217C165.639 36.1719 165.519 36.1498 165.4 36.152H160.842L160.844 41.8874ZM165.653 41.3524H161.755C161.655 41.3513 161.559 41.3109 161.489 41.2401C161.417 41.1691 161.377 41.0732 161.375 40.9728V39.6056C161.377 39.505 161.417 39.4093 161.489 39.3383C161.559 39.2675 161.655 39.2271 161.755 39.226H165.653C165.753 39.2276 165.848 39.268 165.919 39.3388C165.989 39.4098 166.03 39.5053 166.031 39.6056V40.9728C166.03 41.0731 165.989 41.1687 165.919 41.2395C165.848 41.3104 165.753 41.3509 165.653 41.3524ZM161.755 39.3501C161.689 39.3519 161.625 39.3794 161.577 39.427C161.53 39.4745 161.503 39.5384 161.5 39.6056V40.9728C161.503 41.04 161.53 41.104 161.577 41.1514C161.625 41.1989 161.689 41.2265 161.755 41.2283H165.653C165.72 41.2273 165.784 41.1998 165.831 41.1522C165.878 41.1044 165.905 41.0402 165.906 40.9728V39.6056C165.905 39.5385 165.878 39.4746 165.83 39.427C165.783 39.3795 165.72 39.3519 165.653 39.3501H161.755ZM165.402 38.691H161.755C161.655 38.6894 161.559 38.649 161.489 38.5782C161.417 38.5074 161.377 38.4118 161.375 38.3114V37.0651C161.377 36.9648 161.417 36.8691 161.489 36.7983C161.559 36.7275 161.655 36.687 161.755 36.6856H165.402C165.5 36.688 165.594 36.7289 165.662 36.7998C165.731 36.8708 165.77 36.9661 165.77 37.0651V38.3114C165.77 38.4105 165.731 38.5058 165.662 38.5768C165.594 38.6476 165.5 38.6886 165.402 38.691ZM161.755 36.8111C161.689 36.8125 161.625 36.8398 161.578 36.8871C161.53 36.9344 161.503 36.9982 161.5 37.0651V38.3114C161.503 38.3784 161.53 38.4422 161.578 38.4895C161.625 38.5368 161.689 38.5639 161.755 38.5655H165.402C165.467 38.5634 165.53 38.5359 165.575 38.4884C165.62 38.4411 165.647 38.3775 165.647 38.3114V37.0651C165.647 36.999 165.62 36.9355 165.575 36.8881C165.53 36.8407 165.467 36.813 165.402 36.8111H161.755Z" fill="#E79811"/>
<path d="M173.585 36.0899C173.713 36.0886 173.839 36.1131 173.958 36.1616C174.077 36.2102 174.185 36.2821 174.275 36.3728C174.368 36.4637 174.438 36.5718 174.488 36.6907C174.536 36.8096 174.56 36.9371 174.56 37.0656V40.9734C174.56 41.102 174.536 41.2295 174.488 41.3486C174.439 41.4675 174.368 41.5757 174.277 41.6666C174.185 41.7576 174.077 41.8295 173.958 41.8783C173.841 41.927 173.713 41.9516 173.585 41.9507H169.688C169.56 41.9516 169.432 41.927 169.313 41.8783C169.194 41.8295 169.086 41.7576 168.996 41.6666C168.905 41.5757 168.833 41.4675 168.785 41.3486C168.736 41.2295 168.711 41.102 168.713 40.9734V37.0656C168.711 36.9371 168.736 36.8096 168.785 36.6907C168.833 36.5718 168.905 36.4637 168.996 36.3728C169.086 36.2821 169.194 36.2102 169.313 36.1616C169.432 36.1131 169.56 36.0886 169.688 36.0899H173.585ZM173.585 41.2901C173.668 41.2886 173.747 41.2547 173.807 41.1957C173.866 41.1366 173.899 41.0569 173.9 40.9734V37.0656C173.899 36.9821 173.866 36.9024 173.807 36.8433C173.747 36.7842 173.668 36.7504 173.585 36.7488H169.688C169.604 36.7504 169.525 36.7842 169.466 36.8433C169.407 36.9024 169.374 36.9821 169.372 37.0656V40.9734C169.374 41.0569 169.407 41.1366 169.466 41.1957C169.525 41.2547 169.604 41.2886 169.688 41.2901H173.585Z" fill="#E79811"/>
<path d="M173.584 41.9909H169.688C169.553 41.9923 169.42 41.9669 169.297 41.9163C169.174 41.8657 169.061 41.7907 168.966 41.6959C168.872 41.6013 168.797 41.4885 168.747 41.3644C168.695 41.2403 168.67 41.1073 168.672 40.9732V37.0656C168.67 36.9315 168.695 36.7987 168.747 36.6744C168.797 36.5503 168.872 36.4377 168.966 36.3429C169.061 36.2481 169.174 36.1732 169.297 36.1225C169.42 36.0719 169.553 36.0465 169.688 36.0479H173.584C173.719 36.0465 173.85 36.0719 173.975 36.1225C174.098 36.1732 174.211 36.2481 174.305 36.3429C174.4 36.4377 174.475 36.5503 174.525 36.6744C174.575 36.7987 174.6 36.9315 174.6 37.0656V40.9732C174.6 41.1073 174.575 41.2403 174.525 41.3644C174.475 41.4885 174.4 41.6013 174.305 41.6959C174.211 41.7907 174.098 41.8657 173.975 41.9163C173.85 41.9669 173.719 41.9923 173.584 41.9909ZM169.688 36.1302C169.564 36.1287 169.442 36.1519 169.328 36.1985C169.214 36.245 169.111 36.3138 169.025 36.401C168.938 36.4881 168.869 36.5919 168.822 36.7059C168.777 36.8201 168.753 36.9423 168.755 37.0656V40.9732C168.753 41.0965 168.777 41.2189 168.822 41.3329C168.869 41.447 168.938 41.5507 169.025 41.6379C169.111 41.725 169.214 41.7938 169.328 41.8403C169.442 41.8869 169.564 41.9101 169.688 41.9087H173.584C173.708 41.9101 173.83 41.8869 173.944 41.8403C174.056 41.7938 174.161 41.725 174.247 41.6379C174.334 41.5507 174.403 41.447 174.448 41.3329C174.495 41.2189 174.519 41.0965 174.517 40.9732V37.0656C174.519 36.9423 174.495 36.8201 174.448 36.7059C174.403 36.5919 174.334 36.4881 174.247 36.401C174.161 36.3138 174.056 36.245 173.944 36.1985C173.83 36.1519 173.708 36.1287 173.584 36.1302H169.688ZM173.584 41.332H169.688C169.592 41.3307 169.502 41.2926 169.436 41.2256C169.369 41.1585 169.331 41.068 169.33 40.9732V37.0656C169.331 36.9708 169.369 36.8803 169.436 36.8132C169.502 36.7463 169.592 36.7081 169.688 36.707H173.584C173.678 36.7081 173.769 36.7463 173.836 36.8132C173.903 36.8803 173.941 36.9708 173.942 37.0656V40.9732C173.941 41.068 173.903 41.1585 173.836 41.2256C173.769 41.2926 173.678 41.3307 173.584 41.332ZM169.688 36.7891C169.614 36.7913 169.545 36.8212 169.495 36.8726C169.444 36.924 169.414 36.9929 169.411 37.0656V40.9732C169.414 41.0459 169.444 41.1148 169.495 41.1662C169.545 41.2176 169.614 41.2475 169.688 41.2497H173.584C173.656 41.2475 173.725 41.2176 173.777 41.1662C173.828 41.1148 173.858 41.0459 173.859 40.9732V37.0656C173.858 36.9929 173.828 36.924 173.777 36.8726C173.725 36.8212 173.656 36.7913 173.584 36.7891H169.688Z" fill="#E79811"/>
<path d="M173.585 41.9711H169.688C169.557 41.9724 169.427 41.9473 169.305 41.8976C169.183 41.8478 169.074 41.7743 168.982 41.6814C168.888 41.5885 168.814 41.4779 168.766 41.3563C168.716 41.2346 168.691 41.1043 168.692 40.973V37.0652C168.691 36.9338 168.716 36.8034 168.766 36.6817C168.814 36.5601 168.888 36.4497 168.982 36.3566C169.074 36.2637 169.183 36.1902 169.305 36.1406C169.427 36.0908 169.557 36.0659 169.688 36.067H173.585C173.716 36.0655 173.846 36.0905 173.967 36.1401C174.089 36.1898 174.199 36.2633 174.292 36.3562C174.385 36.4492 174.458 36.5598 174.508 36.6816C174.556 36.8033 174.581 36.9338 174.58 37.0652V40.973C174.581 41.1044 174.556 41.2348 174.508 41.3565C174.458 41.4782 174.385 41.5888 174.292 41.6819C174.199 41.7748 174.089 41.8483 173.967 41.8979C173.846 41.9476 173.716 41.9725 173.585 41.9711ZM169.688 36.1103C169.563 36.1091 169.438 36.1331 169.322 36.1805C169.205 36.2282 169.1 36.2983 169.011 36.3873C168.922 36.4762 168.852 36.5819 168.805 36.6983C168.758 36.8147 168.735 36.9394 168.735 37.0652V40.973C168.733 41.0986 168.758 41.2235 168.805 41.34C168.852 41.4564 168.922 41.5624 169.011 41.6512C169.1 41.7402 169.205 41.8105 169.321 41.858C169.438 41.9055 169.561 41.9291 169.688 41.9279H173.585C173.71 41.9294 173.835 41.9058 173.952 41.8583C174.067 41.811 174.174 41.7406 174.261 41.6517C174.35 41.5627 174.42 41.4568 174.467 41.3402C174.516 41.2236 174.539 41.0988 174.538 40.973V37.0652C174.538 36.9394 174.514 36.8146 174.467 36.6982C174.42 36.5816 174.35 36.4759 174.261 36.3869C174.172 36.2979 174.067 36.2277 173.95 36.1801C173.835 36.1326 173.71 36.1089 173.585 36.1103H169.688ZM173.585 41.3122H169.688C169.599 41.3109 169.513 41.2747 169.45 41.2114C169.388 41.148 169.352 41.0624 169.35 40.973V37.0652C169.352 36.9758 169.388 36.8901 169.45 36.8268C169.513 36.7633 169.599 36.7271 169.688 36.726H173.585C173.674 36.7271 173.76 36.7632 173.822 36.8266C173.886 36.8899 173.922 36.9756 173.924 37.0652V40.973C173.922 41.0624 173.886 41.1481 173.822 41.2114C173.76 41.2749 173.674 41.3109 173.585 41.3122ZM169.688 36.7693C169.608 36.7693 169.533 36.8008 169.477 36.8569C169.421 36.913 169.389 36.9889 169.389 37.0682V40.9759C169.389 41.0552 169.421 41.1312 169.477 41.1873C169.533 41.2432 169.608 41.2747 169.688 41.2747H173.585C173.664 41.2747 173.739 41.2432 173.796 41.1873C173.852 41.1312 173.883 41.0552 173.883 40.9759V37.0652C173.883 36.986 173.852 36.91 173.796 36.8539C173.739 36.7978 173.664 36.7663 173.585 36.7663L169.688 36.7693Z" fill="#E79811"/>
<path d="M173.584 42.0114H169.687C169.55 42.014 169.414 41.9889 169.286 41.9379C169.159 41.8866 169.044 41.8103 168.947 41.7135C168.848 41.6166 168.772 41.5011 168.72 41.3739C168.669 41.2467 168.642 41.1104 168.644 40.9728V37.0651C168.642 36.9277 168.669 36.7912 168.72 36.664C168.772 36.5368 168.848 36.4213 168.947 36.3245C169.044 36.2275 169.159 36.1514 169.286 36.1002C169.414 36.0489 169.55 36.024 169.687 36.0265H173.584C173.722 36.024 173.858 36.0489 173.984 36.1002C174.112 36.1514 174.228 36.2275 174.325 36.3245C174.422 36.4213 174.5 36.5368 174.551 36.664C174.603 36.7912 174.63 36.9277 174.628 37.0651V40.9728C174.63 41.1104 174.603 41.2467 174.551 41.3739C174.5 41.5011 174.422 41.6166 174.325 41.7135C174.228 41.8103 174.112 41.8866 173.984 41.9379C173.858 41.9889 173.722 42.014 173.584 42.0114ZM169.687 36.152C169.567 36.1497 169.447 36.1716 169.336 36.2166C169.223 36.2615 169.122 36.3287 169.037 36.414C168.951 36.4992 168.884 36.6009 168.84 36.7127C168.795 36.8246 168.773 36.9444 168.775 37.0651V40.9728C168.773 41.0933 168.797 41.2127 168.842 41.3242C168.887 41.4358 168.955 41.537 169.039 41.6222C169.125 41.7073 169.225 41.7746 169.336 41.8202C169.448 41.8657 169.567 41.8885 169.687 41.8874H173.584C173.705 41.8885 173.823 41.8657 173.934 41.8202C174.047 41.7746 174.147 41.7073 174.233 41.6222C174.317 41.537 174.384 41.4358 174.43 41.3242C174.475 41.2127 174.498 41.0933 174.497 40.9728V37.0651C174.498 36.9444 174.476 36.8246 174.431 36.7127C174.386 36.6009 174.319 36.4992 174.234 36.414C174.148 36.3287 174.048 36.2615 173.936 36.2166C173.825 36.1716 173.705 36.1497 173.584 36.152H169.687ZM173.584 41.3524H169.687C169.587 41.3508 169.492 41.3104 169.422 41.2395C169.35 41.1686 169.309 41.0731 169.308 40.9728V37.0651C169.309 36.965 169.35 36.8692 169.422 36.7984C169.492 36.7276 169.587 36.687 169.687 36.6856H173.584C173.684 36.687 173.78 36.7276 173.85 36.7984C173.92 36.8692 173.961 36.965 173.962 37.0651V40.9728C173.962 41.0731 173.922 41.169 173.851 41.2399C173.78 41.3109 173.684 41.3512 173.584 41.3524ZM169.687 36.8111C169.62 36.8119 169.556 36.8389 169.509 36.8863C169.461 36.9338 169.434 36.998 169.434 37.0651V40.9728C169.434 41.0402 169.461 41.1044 169.509 41.1522C169.556 41.1998 169.62 41.2272 169.687 41.2283H173.584C173.651 41.2272 173.715 41.2 173.764 41.1522C173.811 41.1046 173.837 41.0402 173.839 40.9728V37.0651C173.837 36.9979 173.811 36.9336 173.762 36.8863C173.715 36.8389 173.651 36.8119 173.584 36.8111H169.687Z" fill="#E79811"/>
<path d="M181.558 36.0899C181.686 36.0886 181.812 36.1131 181.931 36.1616C182.05 36.2102 182.158 36.2821 182.25 36.3728C182.34 36.4637 182.412 36.5718 182.461 36.6907C182.509 36.8096 182.534 36.9371 182.533 37.0656V41.9506H181.873V39.8093H177.345V41.9506H176.686V37.0656C176.684 36.9371 176.709 36.8096 176.757 36.6907C176.806 36.5718 176.878 36.4637 176.968 36.3728C177.059 36.2821 177.167 36.2102 177.286 36.1616C177.404 36.1131 177.532 36.0886 177.661 36.0899H181.558ZM181.873 39.1502V37.0581C181.872 36.9746 181.839 36.895 181.779 36.8358C181.72 36.7767 181.64 36.7429 181.558 36.7413H177.661C177.576 36.7429 177.498 36.7767 177.439 36.8358C177.379 36.895 177.347 36.9746 177.345 37.0581V39.1502H181.873Z" fill="#E79811"/>
<path d="M182.574 41.991H181.829V39.8511H177.38V41.991H176.635V37.0598C176.633 36.9257 176.658 36.7926 176.708 36.6686C176.76 36.5445 176.833 36.4318 176.929 36.3371C177.022 36.2423 177.135 36.1674 177.26 36.1166C177.383 36.066 177.516 36.0406 177.649 36.042H181.546C181.68 36.0406 181.813 36.066 181.936 36.1166C182.06 36.1674 182.172 36.2423 182.268 36.3371C182.361 36.4318 182.436 36.5445 182.486 36.6686C182.538 36.7926 182.563 36.9257 182.561 37.0598L182.574 41.991ZM181.916 41.9089H182.491V37.0657C182.493 36.9424 182.469 36.8202 182.424 36.706C182.377 36.592 182.308 36.4882 182.221 36.4011C182.135 36.3139 182.03 36.2451 181.918 36.1986C181.804 36.152 181.682 36.1288 181.558 36.1303H177.661C177.538 36.1288 177.416 36.152 177.302 36.1986C177.188 36.2451 177.085 36.3139 176.999 36.4011C176.911 36.4882 176.843 36.592 176.796 36.706C176.75 36.8202 176.727 36.9424 176.729 37.0657V41.9089H177.304V39.769H181.924L181.916 41.9089ZM181.916 39.1906H177.296V37.0657C177.297 36.9709 177.335 36.8804 177.402 36.8133C177.469 36.7464 177.56 36.7082 177.654 36.7071H181.55C181.646 36.7082 181.736 36.7464 181.802 36.8133C181.869 36.8804 181.907 36.9709 181.908 37.0657L181.916 39.1906ZM177.385 39.1085H181.835V37.0657C181.832 36.993 181.802 36.9241 181.75 36.8727C181.699 36.8213 181.63 36.7915 181.558 36.7892H177.661C177.588 36.7915 177.519 36.8213 177.469 36.8727C177.418 36.9241 177.388 36.993 177.385 37.0657V39.1085Z" fill="#E79811"/>
<path d="M182.549 41.9711H181.849V39.8298H177.361V41.9711H176.661V37.0652C176.66 36.9338 176.685 36.8034 176.735 36.6817C176.783 36.5601 176.857 36.4497 176.95 36.3566C177.042 36.2637 177.153 36.1902 177.274 36.1406C177.396 36.0908 177.525 36.0659 177.657 36.067H181.553C181.685 36.0655 181.814 36.0905 181.936 36.1401C182.058 36.1898 182.167 36.2633 182.261 36.3562C182.353 36.4492 182.427 36.5598 182.477 36.6816C182.525 36.8033 182.55 36.9338 182.549 37.0652V41.9711ZM181.892 41.9278H182.507V37.0652C182.508 36.9394 182.483 36.8146 182.436 36.6982C182.389 36.5816 182.319 36.4759 182.23 36.3869C182.141 36.2979 182.036 36.2277 181.919 36.1801C181.803 36.1326 181.678 36.1089 181.553 36.1103H177.661C177.536 36.1091 177.411 36.1331 177.296 36.1805C177.178 36.2282 177.074 36.2983 176.985 36.3873C176.896 36.4762 176.825 36.5819 176.778 36.6983C176.732 36.8147 176.708 36.9394 176.708 37.0652V41.9278H177.324V39.7879H181.897L181.892 41.9278ZM181.892 39.1707H177.319V37.0652C177.321 36.9758 177.357 36.8901 177.419 36.8268C177.482 36.7633 177.567 36.7271 177.657 36.726H181.553C181.642 36.7271 181.728 36.7632 181.791 36.8266C181.855 36.8899 181.891 36.9756 181.892 37.0652V39.1707ZM177.361 39.1288H181.849V37.0652C181.849 36.986 181.817 36.91 181.761 36.8539C181.705 36.7978 181.63 36.7663 181.55 36.7663H177.661C177.582 36.7663 177.507 36.7978 177.45 36.8539C177.394 36.91 177.363 36.986 177.363 37.0652L177.361 39.1288Z" fill="#E79811"/>
<path d="M182.594 42.0113H181.813V39.8714H177.408V42.0113H176.625V37.0651C176.624 36.9277 176.649 36.7912 176.702 36.664C176.753 36.5368 176.83 36.4213 176.927 36.3245C177.025 36.2275 177.141 36.1514 177.267 36.1002C177.395 36.0489 177.531 36.024 177.669 36.0265H181.566C181.703 36.024 181.839 36.0489 181.966 36.1002C182.094 36.1514 182.209 36.2275 182.306 36.3245C182.403 36.4213 182.48 36.5368 182.533 36.664C182.584 36.7912 182.611 36.9277 182.608 37.0651L182.594 42.0113ZM181.936 41.8874H182.47V37.0651C182.472 36.9444 182.45 36.8246 182.405 36.7127C182.359 36.6009 182.292 36.4992 182.208 36.414C182.122 36.3287 182.02 36.2615 181.909 36.2166C181.798 36.1716 181.678 36.1497 181.558 36.152H177.661C177.541 36.1497 177.42 36.1716 177.309 36.2166C177.197 36.2615 177.095 36.3287 177.011 36.414C176.925 36.4992 176.858 36.6009 176.814 36.7127C176.769 36.8246 176.747 36.9444 176.748 37.0651V41.8874H177.281V39.746H181.936V41.8874ZM181.936 39.2125H177.281V37.0651C177.283 36.965 177.323 36.8692 177.395 36.7984C177.466 36.7276 177.561 36.687 177.661 36.6856H181.558C181.658 36.687 181.753 36.7276 181.823 36.7984C181.894 36.8692 181.934 36.965 181.936 37.0651V39.2125ZM177.408 39.087H181.813V37.0651C181.811 36.9979 181.784 36.9336 181.736 36.8863C181.689 36.8389 181.625 36.8119 181.558 36.8111H177.661C177.594 36.8119 177.53 36.8389 177.483 36.8863C177.434 36.9338 177.408 36.998 177.408 37.0651V39.087Z" fill="#E79811"/>
<path d="M190.514 38.7915C190.514 38.92 190.489 39.0472 190.44 39.166C190.39 39.2847 190.319 39.3927 190.228 39.4834C190.137 39.5742 190.031 39.6463 189.912 39.6952C189.794 39.7442 189.667 39.7691 189.539 39.7688H188.645L190.479 41.9506H189.611L187.784 39.7688H185.64C185.534 39.764 185.428 39.753 185.323 39.7359V41.9506H184.667V36.0972H189.537C189.665 36.0969 189.792 36.1218 189.911 36.1708C190.03 36.2198 190.137 36.2917 190.228 36.3826C190.317 36.4733 190.389 36.5813 190.439 36.7C190.487 36.8188 190.512 36.946 190.512 37.0745L190.514 38.7915ZM189.539 39.1008C189.62 39.1008 189.698 39.0682 189.756 39.0102C189.814 38.9523 189.847 38.8736 189.847 38.7915V37.0745C189.848 36.9916 189.815 36.9117 189.758 36.8521C189.7 36.7926 189.622 36.7581 189.539 36.7563H185.642C185.558 36.7578 185.478 36.7918 185.419 36.8512C185.361 36.9106 185.326 36.9906 185.325 37.0745V38.7915C185.328 38.8742 185.361 38.9529 185.42 39.0107C185.479 39.0685 185.559 39.1008 185.642 39.1008H189.539Z" fill="#E79811"/>
<path d="M190.569 41.9907H189.592L187.765 39.8091H185.64C185.548 39.8061 185.456 39.797 185.365 39.7822V41.9907H184.62V36.0522H189.539C189.808 36.0522 190.065 36.1594 190.256 36.3504C190.447 36.5412 190.553 36.8 190.553 37.07V38.7869C190.553 39.0568 190.447 39.3156 190.256 39.5064C190.065 39.6974 189.808 39.8046 189.539 39.8046H188.734L190.569 41.9907ZM189.631 41.9086H190.392L188.558 39.7269H189.539C189.786 39.7264 190.023 39.6277 190.198 39.4524C190.373 39.2771 190.472 39.0394 190.472 38.7914V37.0743C190.472 36.8263 190.373 36.5884 190.198 36.4129C190.023 36.2374 189.786 36.1389 189.539 36.1389H184.708V41.9086H185.286V39.6894L185.37 39.6999C185.459 39.7139 185.55 39.7228 185.642 39.7269H187.804L189.631 41.9086ZM189.539 39.1425H185.642C185.548 39.1422 185.459 39.1052 185.392 39.0397C185.325 38.9741 185.287 38.8849 185.286 38.7914V37.0743C185.286 36.9797 185.323 36.8892 185.39 36.8221C185.456 36.7551 185.547 36.717 185.642 36.7157H189.539C189.633 36.7181 189.722 36.7568 189.786 36.8238C189.851 36.8907 189.889 36.9807 189.889 37.0743V38.7914C189.889 38.8845 189.851 38.9735 189.786 39.0393C189.72 39.1051 189.631 39.1422 189.539 39.1425ZM185.642 36.7994C185.569 36.8013 185.5 36.8312 185.448 36.8826C185.398 36.9341 185.369 37.0034 185.367 37.0759V38.7928C185.369 38.8646 185.398 38.9326 185.45 38.9825C185.501 39.0325 185.57 39.0604 185.642 39.0604H189.539C189.609 39.0604 189.678 39.0322 189.728 38.9821C189.778 38.9319 189.806 38.8639 189.808 38.7928V37.0743C189.808 37.0023 189.779 36.9332 189.729 36.8815C189.678 36.8299 189.611 36.7999 189.539 36.798L185.642 36.7994Z" fill="#E79811"/>
<path d="M190.526 41.9714H189.601V41.9639L187.775 39.7882H185.642C185.548 39.7843 185.454 39.7754 185.361 39.7613H185.346V41.9729H184.646V36.0762H189.539C189.803 36.0766 190.056 36.1819 190.242 36.369C190.429 36.5562 190.534 36.8098 190.534 37.0745V38.7915C190.534 39.0561 190.429 39.3098 190.242 39.4968C190.056 39.684 189.803 39.7893 189.539 39.7896H188.692L190.526 41.9714ZM189.621 41.9281H190.434L188.6 39.7464H189.539C189.664 39.7464 189.787 39.7217 189.903 39.6737C190.018 39.6256 190.123 39.5553 190.212 39.4666C190.3 39.3779 190.37 39.2728 190.418 39.1569C190.467 39.0411 190.49 38.9169 190.49 38.7915V37.0745C190.49 36.8211 190.39 36.578 190.212 36.3987C190.034 36.2194 189.792 36.1185 189.539 36.118H184.689V41.9281H185.304V39.7119L185.367 39.7195C185.457 39.7334 185.55 39.7425 185.642 39.7464H187.795L189.621 41.9281ZM189.539 39.1218H185.642C185.553 39.1218 185.468 39.0872 185.406 39.0254C185.343 38.9637 185.306 38.8797 185.304 38.7915V37.0745C185.306 36.985 185.34 36.8995 185.404 36.836C185.467 36.7726 185.551 36.7364 185.642 36.7353H189.539C189.626 36.7376 189.711 36.7743 189.771 36.8377C189.834 36.901 189.868 36.9861 189.868 37.0745V38.7915C189.868 38.8348 189.859 38.8777 189.843 38.9178C189.826 38.9579 189.801 38.9942 189.771 39.025C189.74 39.0557 189.704 39.0799 189.665 39.0965C189.625 39.1132 189.582 39.1218 189.539 39.1218ZM185.642 36.7785C185.562 36.7785 185.486 36.81 185.431 36.8661C185.375 36.9222 185.343 36.9982 185.343 37.0774V38.7945C185.346 38.8719 185.378 38.9452 185.434 38.9991C185.49 39.0528 185.564 39.0829 185.642 39.0829H189.539C189.615 39.0824 189.687 39.0519 189.742 38.998C189.795 38.944 189.826 38.8708 189.826 38.7945V37.0745C189.826 36.9969 189.796 36.9225 189.742 36.8667C189.689 36.8109 189.615 36.7784 189.539 36.7755L185.642 36.7785Z" fill="#E79811"/>
<path d="M190.616 42.012H189.583L187.756 39.8302H185.642C185.556 39.8276 185.472 39.82 185.388 39.8078V42.012H184.606V36.0347H189.539C189.816 36.0347 190.081 36.1448 190.277 36.341C190.472 36.5373 190.583 36.8033 190.583 37.0807V38.7976C190.58 39.0738 190.469 39.338 190.274 39.5326C190.078 39.727 189.814 39.8362 189.539 39.8362H188.78L190.616 42.012ZM189.642 41.8879H190.347L188.511 39.7063H189.538C189.78 39.7058 190.011 39.6093 190.181 39.4379C190.353 39.2665 190.449 39.0341 190.45 38.7917V37.0746C190.45 36.8321 190.353 36.5996 190.183 36.4281C190.011 36.2565 189.78 36.1602 189.538 36.1602H184.73V41.8879H185.261V39.6659L185.371 39.6794C185.46 39.693 185.55 39.7019 185.641 39.7063H187.813L187.825 39.7212L189.642 41.8879ZM189.539 39.1638H185.642C185.542 39.1635 185.447 39.1243 185.377 39.0549C185.306 38.9853 185.266 38.891 185.263 38.7917V37.0746C185.264 36.9745 185.305 36.8788 185.375 36.808C185.447 36.7372 185.542 36.6967 185.642 36.6952H189.539C189.638 36.6975 189.731 36.7384 189.802 36.8094C189.871 36.8802 189.91 36.9755 189.91 37.0746V38.7917C189.91 38.8902 189.871 38.9847 189.802 39.0544C189.731 39.1241 189.638 39.1635 189.539 39.1638ZM185.642 36.8191C185.575 36.8211 185.511 36.8487 185.464 36.8962C185.417 36.9438 185.389 37.0077 185.388 37.0746V38.7917C185.391 38.8578 185.417 38.9205 185.466 38.9665C185.513 39.0126 185.575 39.0383 185.642 39.0383H189.539C189.605 39.0383 189.667 39.0123 189.713 38.9661C189.76 38.9198 189.785 38.857 189.785 38.7917V37.0746C189.785 37.0084 189.76 36.9444 189.714 36.8966C189.667 36.849 189.605 36.8211 189.539 36.8191H185.642Z" fill="#E79811"/>
<path d="M197.48 36.0899C197.608 36.0886 197.734 36.1131 197.853 36.1616C197.972 36.2102 198.08 36.2821 198.17 36.3728C198.261 36.4637 198.333 36.5718 198.381 36.6907C198.431 36.8096 198.455 36.9371 198.455 37.0656V40.9734C198.455 41.102 198.431 41.2295 198.381 41.3486C198.333 41.4675 198.261 41.5757 198.17 41.6666C198.08 41.7576 197.972 41.8295 197.853 41.8783C197.734 41.927 197.608 41.9516 197.48 41.9507H192.609V36.0899H197.48ZM197.797 37.0656C197.795 36.9818 197.761 36.9019 197.702 36.8428C197.642 36.7836 197.563 36.7499 197.48 36.7488H193.578C193.494 36.7499 193.414 36.7836 193.355 36.8428C193.295 36.9019 193.263 36.9818 193.261 37.0656V40.9734C193.263 41.0572 193.295 41.1371 193.355 41.1961C193.414 41.2554 193.494 41.289 193.578 41.2901H197.473C197.558 41.289 197.638 41.2554 197.697 41.1961C197.755 41.1371 197.789 41.0572 197.791 40.9734L197.797 37.0656Z" fill="#E79811"/>
<path d="M197.479 41.9912H192.561V36.0528H197.479C197.612 36.0511 197.745 36.0763 197.87 36.1269C197.993 36.1775 198.106 36.2524 198.201 36.3472C198.295 36.442 198.37 36.5548 198.422 36.679C198.472 36.8031 198.497 36.9363 198.495 37.0704V40.9781C198.497 41.1119 198.47 41.2444 198.42 41.3682C198.368 41.4918 198.293 41.6041 198.2 41.6984C198.104 41.7927 197.992 41.8672 197.868 41.9175C197.745 41.9677 197.612 41.9928 197.479 41.9912ZM192.65 41.909H197.479C197.603 41.9104 197.725 41.8872 197.839 41.8407C197.951 41.7942 198.056 41.7254 198.142 41.6383C198.229 41.5512 198.298 41.4475 198.345 41.3334C198.392 41.2192 198.415 41.0968 198.414 40.9735V37.066C198.415 36.9425 198.392 36.8203 198.345 36.7061C198.298 36.5921 198.229 36.4883 198.142 36.4012C198.056 36.3141 197.951 36.2452 197.839 36.1988C197.725 36.1523 197.603 36.1291 197.479 36.1305H192.65V41.909ZM197.479 41.3323H193.578C193.482 41.3311 193.392 41.293 193.326 41.2259C193.259 41.1589 193.221 41.0683 193.22 40.9735V37.066C193.221 36.9712 193.259 36.8806 193.326 36.8136C193.392 36.7465 193.482 36.7085 193.578 36.7072H197.473C197.568 36.7085 197.657 36.7465 197.725 36.8136C197.792 36.8806 197.829 36.9712 197.831 37.066V40.9735C197.829 41.0674 197.792 41.157 197.726 41.2239C197.662 41.2906 197.573 41.3295 197.479 41.3323ZM193.578 36.7895C193.504 36.7913 193.436 36.8211 193.384 36.8725C193.332 36.924 193.303 36.9931 193.301 37.066V40.9735C193.303 41.0464 193.332 41.1155 193.384 41.167C193.436 41.2184 193.504 41.2482 193.578 41.2501H197.473C197.545 41.2482 197.615 41.2184 197.665 41.167C197.717 41.1155 197.747 41.0464 197.75 40.9735V37.066C197.747 36.9931 197.717 36.924 197.665 36.8725C197.615 36.8211 197.545 36.7913 197.473 36.7895H193.578Z" fill="#E79811"/>
<path d="M197.48 41.9711H192.588V36.067H197.48C197.611 36.0655 197.741 36.0905 197.863 36.1401C197.983 36.1898 198.094 36.2633 198.186 36.3562C198.28 36.4492 198.354 36.5598 198.402 36.6816C198.452 36.8033 198.477 36.9338 198.475 37.0652V40.973C198.477 41.1044 198.452 41.2348 198.402 41.3565C198.354 41.4782 198.28 41.5888 198.186 41.6819C198.094 41.7748 197.983 41.8483 197.863 41.8979C197.741 41.9476 197.611 41.9725 197.48 41.9711ZM192.63 41.9279H197.48C197.605 41.9294 197.73 41.9058 197.846 41.8585C197.963 41.811 198.069 41.7408 198.157 41.6518C198.246 41.5628 198.316 41.4569 198.365 41.3404C198.411 41.2238 198.435 41.0988 198.433 40.973V37.0652C198.435 36.9393 198.411 36.8146 198.363 36.698C198.316 36.5814 198.246 36.4757 198.157 36.3867C198.068 36.2979 197.963 36.2275 197.846 36.1801C197.73 36.1326 197.605 36.1089 197.48 36.1103H192.63V41.9279ZM197.48 41.3122H193.579C193.489 41.3109 193.404 41.2749 193.339 41.2114C193.277 41.1481 193.241 41.0624 193.239 40.973V37.0652C193.241 36.9756 193.277 36.8899 193.339 36.8266C193.404 36.7632 193.489 36.7271 193.579 36.726H197.474C197.563 36.7271 197.649 36.7632 197.711 36.8266C197.775 36.8899 197.811 36.9756 197.813 37.0652V40.973C197.811 41.0615 197.775 41.1462 197.715 41.2094C197.652 41.2727 197.568 41.3095 197.48 41.3122ZM193.579 36.7693C193.499 36.7693 193.424 36.8008 193.368 36.8569C193.311 36.913 193.28 36.9889 193.28 37.0682V40.9759C193.28 41.0552 193.311 41.1312 193.368 41.1873C193.424 41.2432 193.499 41.2747 193.579 41.2747H197.474C197.554 41.2747 197.629 41.2432 197.685 41.1873C197.741 41.1312 197.772 41.0552 197.772 40.9759V37.0652C197.772 36.986 197.741 36.91 197.685 36.8539C197.629 36.7978 197.554 36.7663 197.474 36.7663L193.579 36.7693Z" fill="#E79811"/>
<path d="M197.48 42.0119H192.547V36.027H197.48C197.617 36.0247 197.753 36.0497 197.88 36.101C198.006 36.1523 198.122 36.2285 198.22 36.3253C198.317 36.4221 198.394 36.5376 198.445 36.6648C198.498 36.7919 198.523 36.9282 198.523 37.0656V40.9733C198.523 41.1107 198.498 41.247 198.445 41.3742C198.394 41.5013 198.317 41.6167 198.22 41.7136C198.122 41.8104 198.006 41.8867 197.88 41.9379C197.753 41.9891 197.617 42.0142 197.48 42.0119ZM192.672 41.8878H197.48C197.6 41.8892 197.719 41.8665 197.83 41.821C197.942 41.7756 198.042 41.7082 198.128 41.6232C198.213 41.5379 198.28 41.4366 198.325 41.3249C198.37 41.2133 198.394 41.0938 198.392 40.9733V37.0656C198.394 36.9449 198.372 36.8251 198.327 36.7132C198.281 36.6013 198.214 36.4997 198.13 36.4144C198.044 36.3292 197.942 36.262 197.831 36.217C197.719 36.1721 197.6 36.1501 197.48 36.1525H192.672V41.8878ZM197.48 41.3529H193.578C193.478 41.3517 193.381 41.3114 193.311 41.2404C193.239 41.1696 193.2 41.0737 193.198 40.9733V37.0656C193.2 36.9653 193.241 36.8696 193.311 36.7988C193.383 36.7279 193.478 36.6875 193.578 36.6859H197.473C197.573 36.6875 197.669 36.7279 197.741 36.7988C197.811 36.8696 197.852 36.9653 197.853 37.0656V40.9733C197.852 41.0728 197.813 41.1677 197.742 41.2384C197.673 41.3092 197.578 41.3503 197.48 41.3529ZM193.578 36.8116C193.511 36.8124 193.447 36.8393 193.398 36.8866C193.352 36.9341 193.323 36.9983 193.323 37.0656V40.9733C193.323 41.0407 193.352 41.1051 193.398 41.1527C193.447 41.2003 193.511 41.2277 193.578 41.2288H197.473C197.541 41.2277 197.605 41.2003 197.653 41.1527C197.7 41.1051 197.727 41.0407 197.728 40.9733V37.0656C197.727 36.9983 197.7 36.9341 197.653 36.8866C197.605 36.8393 197.541 36.8124 197.473 36.8116H193.578Z" fill="#E79811"/>
</svg>
