<svg width="511" height="507" viewBox="0 0 511 507" fill="none" xmlns="http://www.w3.org/2000/svg">
<path opacity="0.4" d="M140.2 286.887C108.461 290.191 90.6064 286.887 90.6064 286.887" stroke="#76808F" stroke-width="0.5"/>
<g opacity="0.7">
<path d="M504.578 200.206C504.635 200.488 504.635 200.77 504.692 200.941C504.805 201.335 504.919 201.675 504.977 202.07C504.863 201.393 504.692 200.827 504.578 200.206ZM506.114 208.341C506.398 209.866 506.797 211.448 506.967 212.973C506.512 210.092 506.285 208.567 506.114 208.341ZM488.537 151.115C488.765 151.736 488.937 152.244 489.163 152.809C489.049 152.47 488.879 152.018 488.709 151.453C488.651 151.341 488.651 151.227 488.537 151.115ZM489.277 153.205C488.935 152.867 488.595 152.358 488.254 151.906C480.858 135.354 472.042 119.931 461.803 105.978C459.755 102.815 457.708 99.651 455.376 96.657C468.629 113.209 482.622 132.867 489.277 153.205C489.277 153.149 489.277 153.205 489.277 153.205ZM230.865 1.69481C230.922 1.69481 230.922 1.63819 230.922 1.63819L230.865 1.69481ZM510.323 255.624C510.323 253.873 510.209 252.009 509.926 250.144C509.926 251.557 509.982 252.969 509.982 254.324C510.096 255.964 510.267 256.585 510.323 255.624ZM172.449 492.775C171.368 492.38 170.401 492.04 169.604 491.758C168.239 491.307 167.215 490.911 166.589 490.685C167.442 491.023 168.637 491.42 169.604 491.758C171.083 492.323 172.449 492.775 172.449 492.775C143.097 482.382 116.477 466.959 93.4964 447.809C118.241 469.444 148.216 486.336 183.654 496.447C183.654 496.391 183.541 496.335 183.597 496.221C179.843 495.148 176.089 494.131 172.449 492.775ZM288.714 2.5986C288.714 2.5986 290.534 2.76816 288.714 2.5986V2.5986ZM301.796 4.63237C301.796 4.63237 303.958 5.0278 301.796 4.63237V4.63237ZM454.351 407.869C427.447 441.482 392.465 468.653 352.933 485.996C398.551 468.879 439.847 441.199 460.78 404.366C454.807 412.218 448.436 419.618 441.44 426.512C446.388 420.409 450.597 414.196 454.351 407.869ZM427.447 66.8294C427.959 67.2249 428.414 67.6203 427.447 66.8294V66.8294ZM383.989 34.9683C384.103 35.0247 384.275 35.1941 384.331 35.1941C384.331 35.1377 384.217 35.0812 383.989 34.9683ZM383.989 34.9683C383.875 34.9118 383.591 34.6858 383.308 34.5728C383.308 34.5164 383.649 34.7423 383.989 34.9683ZM323.298 9.49061C323.582 9.54708 323.752 9.60355 323.923 9.60355C323.638 9.54708 323.298 9.49061 323.298 9.49061ZM240.535 0.847329C239.852 0.903797 239.169 0.903797 240.535 0.847329V0.847329ZM264.311 0.564986H263.628H264.311ZM264.311 0.564986C264.595 0.564986 264.653 0.564986 264.311 0.564986V0.564986ZM394.399 41.2953L394.456 41.3518C394.911 41.6343 395.536 42.0297 395.992 42.3687C395.764 42.1991 395.253 41.8601 394.399 41.2953ZM333.65 81.0089C331.09 82.4777 337.177 90.1604 339.053 90.1604C341.272 89.3131 336.266 79.5401 333.65 81.0089ZM327.621 57.9603C325.686 57.9603 325.46 55.5877 324.776 53.5539C323.354 52.7066 321.932 51.8027 320.511 50.9553C319.714 51.1813 318.633 51.5203 317.382 52.0851C319.998 55.4746 323.354 57.4519 327.621 57.9603ZM276.2 125.694C264.767 114.508 273.981 94.9622 271.592 83.8898C259.988 87.1664 273.981 78.4103 267.554 69.541C266.871 68.5807 254.528 74.2863 254.528 74.3994C258.566 61.2368 272.616 49.204 277.849 57.9038C278.475 48.5263 279.612 47.0575 281.205 53.6104C282.399 51.8593 285.016 44.4023 289.681 46.2665C294.288 48.0742 287.973 59.203 293.207 60.107C294.344 58.0167 294.857 56.6044 295.027 55.5877C295.311 56.8869 296.164 58.6947 298.384 60.8978C296.847 58.0732 296.734 55.2487 297.928 52.3112C305.494 49.204 303.56 69.767 308.338 78.0713C307.598 77.5063 306.802 76.998 305.949 76.5459C305.664 76.5459 313.513 84.2853 313.173 86.997C312.546 87.2794 312.035 87.3924 311.523 87.4488C310.101 86.0365 308.622 84.8502 307.2 84.1723C308.338 86.6015 309.759 87.6749 311.523 87.4488C316.585 92.5331 319.656 100.498 306.802 97.4478C299.407 95.6966 290.762 129.648 285.472 132.643C280.124 123.942 283.253 110.328 276.2 125.694ZM488.709 151.341C488.823 151.623 488.935 151.793 488.993 152.076C488.935 151.85 488.879 151.68 488.709 151.397V151.341ZM324.776 53.5539C324.151 51.8027 323.24 50.3905 320.511 50.9553C319.542 50.3339 318.633 49.769 317.666 49.1476C326.027 50.5034 338.827 56.0396 337.632 61.6322C333.365 58.9207 329.1 56.209 324.776 53.5539ZM248.385 168.854C250.489 168.854 254.584 174.841 260.274 173.937C265.904 173.09 251.228 152.923 249.636 154.278C250.888 155.578 242.412 168.854 248.385 168.854ZM210.673 51.8593C213.801 49.4301 207.942 49.4865 204.529 49.4865C182.004 49.4865 199.182 50.2209 194.802 54.8533C197.647 55.3617 207.999 54.0058 210.673 51.8593ZM229.898 52.2547C226.883 58.2992 209.364 58.6382 205.496 56.8869C205.496 55.5311 222.617 46.8879 225.688 46.0971C222.787 46.7185 218.124 48.8086 214.938 46.9444C220.456 44.4023 226.201 42.7076 232.173 42.0862C229.898 44.0068 226.713 46.9444 221.821 51.4072C223.641 53.1585 225.688 53.2714 227.908 51.9722C228.305 52.1981 228.817 52.2547 229.898 52.2547ZM226.201 46.0406C224.779 46.6054 224.721 46.7185 225.974 46.436C226.258 46.1535 226.258 46.0971 226.201 46.0406C226.258 46.0406 226.315 45.9841 226.429 45.9841C226.315 45.9841 226.201 46.0406 226.088 46.0406H226.201ZM211.468 61.1239C210.729 64.7392 203.79 74.2298 199.353 73.8908C200.036 73.9473 198.329 66.3211 189.798 66.3211C206.577 66.208 197.817 51.3507 211.468 61.1239ZM238.544 41.8037C237.349 41.8037 236.155 41.9168 234.96 42.0297C233.368 44.4587 231.945 46.8879 238.544 41.8037ZM171.708 25.0822C171.026 25.8166 170.627 26.4381 170.229 26.9464H170.287C165.906 33.443 179.729 23.6699 183.483 25.1387C169.718 32.5391 196.622 23.6699 195.655 23.6699C197.703 26.8335 200.548 29.0931 204.132 30.5055C199.125 31.9176 192.413 35.4202 188.375 38.9226C194.461 41.0128 189.512 47.114 196.736 45.9841C192.527 47.2834 188.261 48.5261 184.052 49.769C197.078 53.6669 194.461 48.6957 179.615 57.5084C180.924 59.0336 187.976 54.0058 186.725 57.7909C183.027 68.5807 177.112 72.1397 194.291 69.3151C186.611 85.9801 209.25 75.3596 214.427 72.1962C214.427 75.5292 213.46 78.6362 211.526 81.3477C215.905 79.2576 217.327 79.653 215.963 82.3081C208.681 86.9405 198.784 93.8323 196.111 95.979C191.901 99.312 173.358 101.572 181.663 111.684C183.824 114.282 197.761 138.912 192.015 140.155C202.084 138.009 212.095 110.102 220.74 103.493C222.561 106.938 219.659 111.627 220.286 114.791C222.162 112.418 224.381 110.441 226.997 108.746C227.224 108.746 247.588 130.212 248.896 136.822C255.723 170.265 231.378 140.778 212.606 162.639C218.636 162.922 224.381 161.848 229.898 159.476C233.368 164.107 234.448 169.248 233.198 174.954C237.919 181.055 226.883 193.709 218.238 190.772C230.525 161.848 187.806 198.568 178.876 190.828C169.832 198.454 156.578 242.914 148.216 245.116C137.58 247.941 146.054 207.38 132.859 210.261C118.98 213.368 67.8428 204.442 90.5394 244.043C95.6018 252.913 108.514 236.925 118.98 245.512C119.833 246.247 106.636 280.876 107.205 281.441C111.584 282.458 115.68 281.667 119.435 279.181C125.521 279.746 121.823 300.083 126.146 304.038C142.187 318.782 150.208 298.896 166.759 316.521C169.66 319.629 198.5 314.715 209.819 329.685C219.489 342.621 235.815 344.768 246.393 356.801C258.907 371.092 229.898 364.653 231.889 373.805C231.264 370.98 273.242 388.323 270.227 388.775C276.655 387.702 317.78 385.498 311.295 409.169C302.308 441.99 277.395 450.972 251.4 457.243C264.369 457.807 219.659 476.167 205.099 475.432C202.368 473.907 200.32 472.213 201.742 469.784C199.467 473.625 201.117 475.206 205.099 475.432C207.828 476.958 211.07 478.314 211.923 480.121C215.166 486.618 194.347 480.348 194.746 480.234C195.713 483.906 186.384 487.692 178.648 485.149C181.607 488.03 185.019 490.403 188.717 492.154C174.723 496.503 164.939 489.047 152.825 479.725C155.781 481.477 158.796 481.533 161.755 479.951C159.593 476.619 156.806 473.851 153.506 471.648C154.815 472.664 156.009 472.664 157.204 471.704C155.44 466.789 163.575 432.216 154.473 424.477C125.635 399.847 120.572 377.419 114.885 348.496C111.926 333.582 134.223 342.904 131.664 325.787C130.527 318.161 92.0741 265.058 84.8501 259.804C71.199 249.919 62.4965 261.33 62.8942 231.333C63.1796 209.696 71.3706 187.721 72.3375 165.406C60.7327 165.973 67.0474 207.155 62.3265 204.274C31.269 185.348 91.5625 123.038 108.456 99.1991C107.831 101.007 107.661 102.363 108.797 102.08C108.342 102.193 129.047 76.5459 133.882 73.2129C119.492 72.4221 137.41 69.767 141.05 65.4171C133.77 63.0445 151.8 49.3736 158.228 44.2329C153.848 41.4082 148.671 42.4251 143.609 44.1199C144.576 43.2725 145.373 42.4251 146.112 41.7472C156.181 41.0128 158.001 31.0703 146.112 41.7472C144.007 41.8601 141.505 41.6907 138.718 40.7303C140.48 38.4707 141.561 35.8721 142.017 33.1041C142.586 33.4995 146.909 32.4826 152.141 31.0138C157.715 29.9405 163.461 28.0198 171.708 25.0822ZM218.294 62.8185C214.938 62.8185 211.81 67.1119 212.663 70.7274C218.294 69.767 227.624 62.8185 218.294 62.8185ZM508.787 244.213C507.592 232.124 506.058 214.555 505.944 209.584C506.398 211.052 506.797 212.295 506.967 212.917C506.911 212.521 506.626 211.956 506.512 211.504C508.731 224.554 509.754 237.322 509.868 250.031C509.64 248.28 509.242 246.247 508.787 244.213ZM210.843 94.0019C202.709 91.0079 203.391 101.12 203.391 101.12C207.714 98.5777 211.64 103.21 216.019 97.222C198.842 95.0188 216.644 96.1486 210.843 94.0019ZM248.726 106.543C260.444 110.893 240.536 77.5063 240.478 78.6362C241.616 62.536 220.684 75.4727 220.456 75.4727C241.217 75.4727 225.063 85.8671 220.172 92.1942C221.48 92.5331 240.877 116.486 243.492 111.345C242.469 106.826 242.412 102.419 243.209 98.0128C247.759 94.0019 246.337 105.696 248.726 106.543ZM232.572 94.7363C232.515 94.6232 232.458 94.4538 232.345 94.3409C232.572 92.42 235.927 83.8898 233.425 83.6075C222.674 94.2844 230.069 89.991 232.345 94.3409C232.345 94.6798 232.345 94.9057 232.572 94.7363ZM316.13 7.6264C316.586 7.73934 316.869 7.85228 316.983 7.85228C316.756 7.73934 316.13 7.6264 316.13 7.6264ZM452.817 413.574C452.417 414.139 452.077 414.479 452.817 413.574V413.574ZM508.503 282.401C508.219 284.773 507.878 287.146 507.536 289.518C507.82 287.486 508.219 285.564 508.503 283.531C507.706 290.367 506.626 297.146 505.261 303.868C505.489 302.794 505.602 301.777 505.716 300.704C505.431 302.06 505.261 303.473 504.977 304.772C505.033 304.432 505.205 304.094 505.261 303.811C505.147 304.602 504.863 305.505 504.692 306.354C504.238 308.727 503.669 311.099 503.157 313.472C502.758 315.28 502.302 317.088 501.791 318.894C493.828 349.569 479.949 378.945 460.836 404.197C473.692 381.599 478.924 355.445 472.667 326.182C453.044 315.392 442.92 337.706 425.969 342.225C412.43 345.785 409.587 337.141 401.623 330.588C379.724 312.681 389.451 326.522 392.294 295.564C395.025 265.622 393.319 243.252 407.255 212.351C412.544 200.602 429.836 191.054 438.596 183.598C443.317 179.586 446.616 197.042 450.711 198.342C447.355 197.212 469.652 189.02 467.492 194.557C472.156 182.751 491.61 158.911 469.54 144.618C471.302 149.137 473.009 153.657 474.545 158.233C468.118 148.008 468.346 160.831 467.151 163.316C443.146 155.013 481.371 120.553 444.967 117.276C449.233 120.214 452.475 123.999 454.751 128.631C454.751 132.417 447.924 127.614 444.626 124.564C444.057 123.547 443.601 122.756 443.146 122.304C442.406 122.191 443.203 123.264 444.626 124.564C450.144 134.789 460.041 171.339 462.316 171.226C453.044 171.565 442.464 148.121 431.031 150.55C429.836 150.833 459.983 171.169 453.897 180.943C434.387 164.842 432.623 174.107 419.314 169.418C418.119 173.655 417.664 176.254 417.606 177.892C416.639 177.948 415.218 178.513 412.999 179.756C412.43 180.094 418.403 215.514 400.371 204.33C384.103 194.217 403.102 174.39 391.327 161.058C404.126 154.787 395.65 124.338 392.522 116.26C399.234 118.689 407.709 122.248 413.796 125.242C411.577 114.96 410.156 87.1664 399.29 83.7204C400.429 87.3924 399.234 88.2397 395.65 86.2061C398.437 88.6351 398.893 91.2902 397.129 94.2844C388.484 95.0752 381.601 74.9642 375.628 79.3141C376.937 78.3537 406.117 113.153 406.287 114.734C406.06 114.734 406.003 114.791 405.889 114.791C402.932 113.378 397.528 111.345 388.198 108.633C389.507 111.119 389.849 114.339 387.971 116.881C380.349 111.514 354.582 70.3885 357.654 60.9543C357.882 61.0108 366.698 57 374.491 58.5817C376.765 60.107 379.554 61.6887 382.113 63.101C382.568 63.7225 383.08 64.4004 383.478 65.1348C372.784 61.5758 387.687 67.6203 378.074 66.3211C380.179 68.8632 379.78 71.4052 379.212 74.0604C384.388 71.1228 389.906 70.9533 395.594 73.7215C384.502 66.8859 383.022 64.9088 391.157 67.7898C390.532 67.3944 386.606 65.5302 382.169 63.101C380.065 60.5589 377.392 59.203 374.547 58.5817C371.533 56.548 369.201 54.5708 368.802 52.9325C396.845 60.6718 358.849 36.4371 346.277 32.3132C353.842 32.0307 361.238 33.2735 368.234 36.1546C358.621 30.1665 352.933 33.0476 343.434 28.9236C349.975 29.0367 348.724 28.5282 339.508 27.3983C350.032 24.4043 332.684 28.2458 347.302 24.6868C333.024 22.0882 311.807 18.7552 297.872 21.8057C306.574 8.64314 299.92 17.9079 318.975 13.3884C306.177 9.60355 283.196 3.33299 269.999 7.11789C271.763 7.90875 273.299 9.03872 274.606 10.4509C272.332 11.8632 247.246 3.27652 234.734 5.19721C222.617 7.11789 197.761 23.9524 184.45 16.7214C191.674 12.9365 201.287 12.1457 208.625 8.81269C204.074 9.09518 200.945 9.20812 198.67 9.15165H199.523C168.693 15.8176 138.604 28.0198 110.675 46.1535C103.054 50.7293 95.6018 55.87 88.7194 61.8583C95.8857 56.1525 103.166 51.0118 110.675 46.1535C152.653 21.1843 204.472 16.6085 252.423 26.664C223.926 20.8453 196.338 21.0148 170.515 26.4381C170.855 25.8731 171.254 25.3083 171.88 24.5739C169.832 25.3083 160.332 28.4152 152.711 30.5619C149.354 31.2963 146.168 31.7482 142.7 31.9742C142.472 32.9345 142.244 33.8385 141.903 34.7423C95.6018 52.1981 56.9226 87.0534 31.7805 132.585C64.0889 61.5758 129.332 7.17436 227.054 1.63819C227.338 1.63819 228.533 1.58172 230.978 1.41232C229.784 2.20317 210.217 4.18032 207.6 4.63237C207.373 4.63237 206.919 4.74531 206.519 4.85824C205.894 4.97118 205.439 5.08427 206.519 4.85824C206.805 4.80178 207.146 4.80178 207.6 4.63237C208.567 4.51928 208.966 4.40635 209.023 4.40635C208.567 4.46281 208.056 4.51928 207.714 4.63237C203.676 5.4797 193.779 7.73934 194.746 8.69975C194.86 8.9821 195.941 9.15165 198.215 9.15165C196.053 9.09519 195.03 8.86916 194.746 8.69975C194.119 7.51331 209.42 4.51928 209.023 4.40635C215.735 3.61549 230.239 2.25964 230.978 1.29938C235.415 1.01689 243.664 0.621454 255.665 0H257.599C268.691 0.0564683 262.321 0.0564697 258.282 0.0564697C289.112 0.395431 320.056 6.55305 348.894 17.7948C340.589 14.5183 332.114 11.5242 323.468 9.15165C339.224 13.4449 354.582 19.2636 369.143 26.551C367.096 25.5906 365.106 24.7433 363.114 23.8395C373.978 28.8107 384.445 34.5728 394.569 41.0128C394.627 41.0128 394.627 41.0693 394.683 41.0693C395.081 41.3518 395.48 41.6343 395.878 41.8601C399.234 44.0068 402.59 46.3796 405.889 48.6957C407.653 49.9951 409.473 51.2943 411.237 52.5937C411.634 52.9325 412.09 53.3281 412.544 53.7235C412.544 53.7235 412.601 53.7235 412.601 53.78C416.525 56.9434 420.508 60.6718 424.432 64.9652C438.311 76.8849 450.939 90.4994 462.031 105.639C473.18 123.208 480.404 141.963 488.481 151.567C488.823 152.358 489.221 153.093 489.562 153.826C489.676 153.826 489.676 153.487 489.504 152.809V152.753C489.504 152.64 489.448 152.527 489.448 152.414C495.42 168.74 500.882 183.766 504.977 200.544C505.545 203.031 505.944 205.516 506.398 208.002C506.285 207.776 506.285 208.284 506.285 209.358C502.815 198.906 492.178 171.283 484.1 169.813C480.858 185.574 503.099 217.831 509.015 243.987C509.47 248.337 509.812 252.066 510.153 254.042C510.096 260.483 509.868 266.866 509.356 273.193C508.901 277.205 508.673 280.254 508.503 282.401ZM351.511 19.2636C355.209 20.7888 358.963 22.3707 362.659 24.0089C358.905 22.3141 355.209 20.7888 351.511 19.2636ZM411.293 53.2714C411.293 53.2714 412.032 53.8364 412.317 54.0624C412.204 53.9494 411.862 53.6669 411.293 53.2714ZM440.928 89.0306C445.137 95.8661 459.983 117.898 468.459 119.988C466.184 112.87 448.949 91.3468 440.928 89.0306ZM479.21 374.708C479.493 374.256 479.665 373.917 479.665 373.917C479.493 374.256 479.38 374.426 479.21 374.708ZM508.105 286.413C508.048 286.751 508.048 287.033 507.992 287.203C507.934 286.977 508.048 286.751 508.105 286.413ZM295.141 3.44593C295.994 3.61549 295.597 3.55902 295.141 3.44593V3.44593ZM508.503 283.588C509.584 274.323 510.209 265.002 510.267 255.681C510.323 265.002 509.926 274.38 508.503 283.588ZM433.59 72.5352C434.443 73.326 434.046 72.9306 433.59 72.5352V72.5352ZM452.817 93.4369C452.817 93.4369 453.67 94.5103 452.817 93.4369V93.4369ZM226.941 1.92068C226.599 1.92068 227.908 1.86421 230.922 1.63819C229.558 1.69481 228.305 1.86421 226.941 1.92068ZM249.921 0.451899H251.342H249.921ZM335.754 54.7968C338.541 56.1525 341.386 57.5648 344.229 58.8642C342.295 56.0396 339.452 54.6273 335.754 54.7968ZM334.56 120.383C350.486 106.204 330.009 105.413 330.18 105.413C324.663 105.413 326.54 103.662 320.795 106.487C321.534 108.125 333.65 121.118 334.56 120.383ZM393.375 146.031C397.642 137.896 365.503 121.57 366.187 120.609C365.162 122.022 372.216 133.772 372.67 134.507C378.871 126.09 386.834 158.515 393.375 146.031ZM369.655 137.388C369.543 141.568 370.338 156.763 379.496 156.763C390.985 156.763 369.827 133.434 369.655 137.388ZM363.57 104.396C363.853 109.311 366.129 112.983 370.51 115.243C370.338 110.441 368.063 106.826 363.57 104.396ZM504.919 305.449C504.578 307.257 504.124 309.347 504.919 305.449V305.449ZM215.791 499.442C210.729 498.707 205.61 498.085 200.434 497.634C197.134 496.617 215.337 503.056 215.791 499.442ZM190.423 497.973C190.707 498.029 190.991 498.085 191.162 498.199C191.105 498.199 190.024 497.973 187.181 497.408C182.8 496.165 188.318 497.408 190.423 497.973ZM83.8831 337.536C86.1586 337.536 88.8894 326.916 88.8894 326.916C84.6239 327.029 80.8685 325.787 77.6276 323.018C77.1722 322.906 78.1953 337.536 83.8831 337.536ZM326.313 35.4766C331.261 35.0812 327.28 34.6293 314.424 34.1774C318.292 34.8552 322.273 35.3637 326.313 35.4766ZM202.766 300.139C199.637 303.133 208.511 306.636 209.99 306.636C218.124 306.579 207.43 295.564 202.766 300.139ZM331.431 41.4647C324.549 39.0357 317.496 37.6233 310.215 37.2279C312.945 37.8494 315.675 38.5271 318.406 39.0921C314.708 38.4707 311.012 37.9058 307.314 37.2844C308.337 37.6798 327.45 44.0068 331.431 41.4647ZM325.118 31.9742C336.38 39.1486 352.989 43.103 365.845 47.4529C358.393 44.3458 331.773 26.3816 325.118 31.9742ZM159.365 269.464C174.95 265.622 115.51 238.677 129.616 249.919C133.94 255.906 149.241 271.951 159.365 269.464ZM214.313 503.339C252.822 510.232 305.21 503.905 352.933 485.996C303.332 507.745 246.565 513.96 189.57 498.199C185.758 497.576 183.881 497.012 183.597 496.503C190.991 498.651 198.67 500.401 206.519 501.927C206.577 501.983 207.373 502.153 209.478 502.548C208.453 502.323 207.544 502.153 206.519 501.927C206.236 501.701 218.352 503.679 214.313 503.339ZM205.838 316.409C215.11 311.494 195.713 311.776 205.838 316.409V316.409ZM256.178 45.0802C257.884 44.4023 259.704 44.1199 261.183 42.9901C259.591 42.5381 257.259 44.0068 256.178 45.0802ZM91.221 445.887C5.1031 368.663 -14.5209 234.044 31.4967 133.094C19.2666 155.351 10.1656 180.152 4.98939 206.815C-12.3025 297.823 23.5896 388.153 91.221 445.887ZM239.169 44.5718C234.904 44.8543 232.798 44.6283 239.169 44.5718V44.5718ZM187.181 280.48C181.777 273.024 158.796 270.708 168.751 282.909C170.685 282.401 191.162 285.96 187.181 280.48ZM260.955 10.1685C272.161 9.15165 243.095 10.1685 260.955 10.1685V10.1685ZM366.698 49.4301C371.305 51.0118 375.514 49.4301 366.698 49.4301V49.4301ZM229.898 58.5253C229.216 57.8473 236.326 56.774 239.739 56.0396C240.136 55.7006 240.478 55.4181 240.877 55.0792C239.91 54.9662 237.975 54.8533 234.676 54.8533C231.831 55.8136 228.931 56.7175 226.088 57.7342C228.647 57.0565 229.898 57.2259 229.898 58.5253ZM315.335 46.4925C323.98 49.5995 326.596 49.7126 323.24 46.9444C327.222 46.3796 329.042 47.9048 328.758 51.5768C324.265 49.8255 319.77 48.1873 315.335 46.4925ZM245.256 52.1416C246.337 51.8027 247.532 51.3507 248.271 50.3905C247.646 50.5599 244.915 50.8989 245.256 52.1416ZM255.665 47.2834C252.423 49.4865 249.238 51.8027 245.996 54.0058C250.433 56.0396 256.348 46.775 255.665 47.2834ZM252.822 45.9275C251.683 46.1535 251.741 45.8711 252.878 45.0802C248.213 46.549 243.664 48.3567 239.455 50.5599C241.275 51.0683 252.195 49.9949 252.822 45.9275ZM239.796 56.0396C235.132 59.881 229.728 66.1515 229.386 67.1684C231.889 65.7561 236.952 66.5469 238.715 69.0326C238.715 62.7056 246.507 64.7958 237.235 63.9483C237.179 63.8354 244.745 55.2487 245.426 53.1585C244.403 52.876 242.811 53.8364 240.877 55.2487C242.356 55.3052 241.559 55.6442 239.796 56.0396ZM240.25 44.4587C244.573 44.1199 250.375 43.1595 252.083 41.0128C248.213 39.9395 244.573 44.0068 240.25 44.4587ZM254.13 46.7185C252.48 46.6619 251.855 48.8086 250.319 48.8086C251.797 48.7521 252.878 47.4529 254.13 46.7185ZM274.606 45.1367C268.521 46.8315 268.293 46.549 261.297 46.549C254.017 46.549 245.826 60.1634 243.778 66.8859C245.54 61.0108 277.735 52.1981 274.606 45.1367Z" fill="url(#paint0_linear)"/>
</g>
<path d="M315.432 232.68L323.908 234.904L321.596 226.451L315.432 232.68ZM322.127 231.572C323.562 231.146 324.987 230.707 326.399 230.259L325.941 228.811C324.536 229.257 323.12 229.693 321.693 230.118L322.127 231.572ZM330.68 228.858C332.094 228.38 333.498 227.893 334.89 227.395L334.38 225.965C332.996 226.46 331.601 226.946 330.194 227.419L330.68 228.858ZM339.126 225.837C340.525 225.309 341.913 224.77 343.289 224.222L342.726 222.812C341.358 223.357 339.98 223.893 338.588 224.418L339.126 225.837ZM347.456 222.516C348.839 221.936 350.208 221.347 351.565 220.749L350.954 219.36C349.604 219.955 348.242 220.54 346.87 221.117L347.456 222.516ZM355.664 218.899C357.025 218.269 358.373 217.63 359.711 216.983L359.049 215.617C357.721 216.259 356.38 216.895 355.026 217.52L355.664 218.899ZM363.736 214.989C365.075 214.31 366.402 213.624 367.713 212.93L367.004 211.588C365.699 212.277 364.381 212.961 363.05 213.634L363.736 214.989ZM371.665 210.794C372.979 210.069 374.28 209.337 375.567 208.596L374.811 207.28C373.532 208.017 372.238 208.745 370.931 209.466L371.665 210.794ZM379.443 206.324C380.731 205.553 382.005 204.776 383.263 203.992L382.462 202.704C381.21 203.482 379.944 204.255 378.662 205.022L379.443 206.324ZM387.06 201.585C388.32 200.77 389.564 199.95 390.794 199.126L389.948 197.864C388.725 198.686 387.488 199.501 386.236 200.31L387.06 201.585ZM394.51 196.586C395.738 195.73 396.952 194.869 398.15 194.006L397.262 192.775C396.07 193.634 394.865 194.49 393.642 195.34L394.51 196.586ZM401.784 191.337C402.986 190.438 404.17 189.538 405.339 188.634L404.41 187.433C403.249 188.332 402.069 189.229 400.875 190.121L401.784 191.337ZM408.876 185.85C410.051 184.909 411.209 183.964 412.349 183.02L411.381 181.851C410.247 182.791 409.096 183.728 407.927 184.664L408.876 185.85ZM415.775 180.135C416.926 179.149 418.057 178.164 419.168 177.181L418.161 176.044C417.056 177.023 415.931 178.002 414.788 178.981L415.775 180.135ZM422.482 174.198C423.603 173.173 424.704 172.15 425.785 171.128L424.742 170.026C423.667 171.04 422.573 172.059 421.458 173.079L422.482 174.198ZM429.018 168.023C430.096 166.971 431.152 165.923 432.184 164.882L431.107 163.813C430.079 164.849 429.03 165.89 427.958 166.937L429.018 168.023ZM435.337 161.653C436.389 160.559 437.415 159.472 438.417 158.394L437.306 157.361C436.31 158.432 435.289 159.513 434.243 160.603L435.337 161.653ZM441.429 155.105C442.452 153.968 443.446 152.845 444.412 151.736L443.267 150.739C442.306 151.841 441.318 152.958 440.299 154.089L441.429 155.105ZM447.34 148.32C448.328 147.146 449.281 145.994 450.201 144.865L449.025 143.905C448.109 145.029 447.161 146.175 446.178 147.34L447.34 148.32ZM453 141.367C453.956 140.153 454.869 138.97 455.739 137.823L454.53 136.906C453.665 138.046 452.757 139.222 451.807 140.429L453 141.367ZM458.419 134.225C459.351 132.949 460.226 131.727 461.038 130.567L459.796 129.696C458.989 130.848 458.12 132.061 457.193 133.33L458.419 134.225ZM463.585 126.859C464.505 125.488 465.315 124.243 466.02 123.14L464.739 122.324C464.042 123.418 463.237 124.652 462.323 126.013L463.585 126.859ZM468.397 119.287C468.767 118.666 469.044 118.187 469.229 117.863C469.32 117.7 469.39 117.577 469.437 117.493C469.459 117.451 469.478 117.419 469.49 117.398C469.496 117.387 469.5 117.379 469.503 117.373C469.505 117.37 469.505 117.368 469.506 117.367C469.506 117.366 469.506 117.365 469.508 117.365C469.508 117.364 469.508 117.364 469.508 117.364V117.364C469.508 117.364 469.508 117.364 468.842 117C468.175 116.637 468.175 116.637 468.175 116.637V116.637C468.175 116.637 468.175 116.637 468.175 116.638C468.174 116.639 468.174 116.641 468.172 116.643C468.169 116.648 468.165 116.655 468.16 116.665C468.149 116.685 468.133 116.714 468.11 116.754C468.066 116.834 467.999 116.954 467.908 117.112C467.729 117.428 467.457 117.899 467.093 118.512L468.397 119.287Z" fill="#AEB4BC"/>
<path d="M42.9951 383.395L50.6897 387.592L50.4772 378.83L42.9951 383.395ZM49.7 383.858C51.0327 383.767 52.5492 383.647 54.2387 383.491L54.099 381.979C52.4217 382.134 50.9174 382.252 49.5952 382.343L49.7 383.858ZM58.7288 383.026C60.1375 382.865 61.6281 382.683 63.1977 382.474L62.9973 380.969C61.4384 381.177 59.9568 381.358 58.5573 381.517L58.7288 383.026ZM67.656 381.839C69.0768 381.624 70.5507 381.388 72.0717 381.13L71.8182 379.633C70.3063 379.89 68.8415 380.124 67.4283 380.338L67.656 381.839ZM76.4875 380.345C77.9265 380.077 79.402 379.79 80.9123 379.482L80.6087 377.994C79.1075 378.301 77.6396 378.586 76.2097 378.853L76.4875 380.345ZM85.3493 378.541C86.7747 378.225 88.2274 377.894 89.7044 377.542L89.3537 376.065C87.8843 376.414 86.4408 376.745 85.023 377.057L85.3493 378.541ZM94.0701 376.469C95.5136 376.101 96.9769 375.717 98.4615 375.313L98.0638 373.849C96.5884 374.249 95.1311 374.632 93.6966 374.998L94.0701 376.469ZM102.756 374.111C104.181 373.701 105.625 373.273 107.082 372.827L106.639 371.376C105.188 371.819 103.753 372.244 102.335 372.654L102.756 374.111ZM111.375 371.479C112.784 371.024 114.204 370.553 115.637 370.066L115.149 368.628C113.723 369.114 112.31 369.582 110.909 370.034L111.375 371.479ZM119.909 368.575C121.298 368.077 122.699 367.563 124.108 367.033L123.575 365.612C122.172 366.14 120.779 366.65 119.397 367.145L119.909 368.575ZM128.341 365.403C129.713 364.862 131.093 364.305 132.481 363.733L131.902 362.33C130.522 362.899 129.15 363.453 127.786 363.991L128.341 365.403ZM136.655 361.97C138.012 361.384 139.375 360.783 140.744 360.167L140.121 358.783C138.759 359.396 137.403 359.994 136.054 360.577L136.655 361.97ZM144.86 358.273C146.197 357.643 147.542 356.998 148.89 356.336L148.22 354.974C146.88 355.63 145.544 356.272 144.213 356.899L144.86 358.273ZM152.941 354.308C154.259 353.635 155.581 352.948 156.905 352.243L156.193 350.903C154.875 351.603 153.562 352.287 152.252 352.957L152.941 354.308ZM160.886 350.086C162.183 349.37 163.482 348.638 164.783 347.89L164.027 346.574C162.734 347.318 161.44 348.045 160.152 348.758L160.886 350.086ZM168.683 345.607C169.958 344.846 171.236 344.069 172.514 343.278L171.715 341.988C170.443 342.774 169.173 343.547 167.904 344.304L168.683 345.607ZM176.325 340.872C177.581 340.066 178.836 339.245 180.09 338.409L179.249 337.146C178.001 337.978 176.754 338.794 175.506 339.596L176.325 340.872ZM183.809 335.886C185.042 335.034 186.273 334.167 187.504 333.287L186.62 332.053C185.397 332.929 184.172 333.789 182.947 334.636L183.809 335.886ZM191.124 330.647C192.329 329.753 193.535 328.844 194.737 327.919L193.812 326.716C192.616 327.636 191.419 328.539 190.219 329.428L191.124 330.647ZM198.263 325.164C199.433 324.234 200.601 323.288 201.768 322.327L200.803 321.155C199.643 322.11 198.482 323.05 197.317 323.976L198.263 325.164ZM205.218 319.437C206.351 318.472 207.482 317.493 208.611 316.498L207.606 315.358C206.484 316.348 205.361 317.323 204.233 318.282L205.218 319.437ZM211.986 313.471C213.08 312.474 214.171 311.462 215.26 310.434L214.218 309.33C213.136 310.351 212.051 311.357 210.962 312.35L211.986 313.471ZM218.517 307.312C219.586 306.27 220.65 305.214 221.713 304.144L220.635 303.075C219.578 304.139 218.52 305.189 217.458 306.225L218.517 307.312ZM224.846 300.932C225.885 299.848 226.922 298.749 227.954 297.635L226.842 296.602C225.816 297.709 224.785 298.802 223.75 299.881L224.846 300.932ZM230.969 294.335C231.966 293.223 232.959 292.099 233.949 290.959L232.803 289.963C231.819 291.097 230.831 292.215 229.838 293.321L230.969 294.335ZM236.885 287.523C237.839 286.388 238.788 285.239 239.734 284.076L238.556 283.12C237.616 284.275 236.672 285.416 235.723 286.546L236.885 287.523ZM242.556 280.55C243.023 279.955 243.489 279.357 243.955 278.756L242.755 277.827C242.292 278.425 241.827 279.02 241.363 279.612L242.556 280.55Z" fill="#AEB4BC"/>
<path d="M251.29 30.4077L248.349 38.663L256.969 37.0834L251.29 30.4077ZM251.687 37.2261C251.892 38.5338 252.119 40.0368 252.365 41.7373L253.868 41.5201C253.621 39.8136 253.391 38.3046 253.186 36.991L251.687 37.2261ZM252.992 46.2301C253.183 47.6465 253.382 49.1611 253.586 50.7745L255.091 50.584C254.887 48.9663 254.688 47.4478 254.496 46.0273L252.992 46.2301ZM254.14 55.2862C254.311 56.7269 254.486 58.2324 254.663 59.8032L256.171 59.6335C255.995 58.0596 255.819 56.5507 255.647 55.1065L254.14 55.2862ZM255.158 64.3345C255.315 65.8003 255.471 67.3152 255.629 68.8797L257.139 68.7275C256.981 67.1602 256.825 65.6424 256.669 64.1738L255.158 64.3345ZM256.071 73.3877C256.212 74.8542 256.351 76.3597 256.491 77.9045L258.003 77.7676C257.863 76.2203 257.722 74.7124 257.582 73.2434L256.071 73.3877ZM256.89 82.4393C257.018 83.9266 257.145 85.447 257.271 87.0009L258.785 86.8778C258.659 85.3217 258.531 83.7991 258.404 82.3095L256.89 82.4393ZM257.631 91.5367C257.745 93.0158 257.857 94.5229 257.969 96.0581L259.483 95.9478C259.371 94.4105 259.258 92.9014 259.144 91.4203L257.631 91.5367ZM258.293 100.624C258.396 102.111 258.498 103.624 258.598 105.161L260.113 105.062C260.013 103.523 259.911 102.009 259.808 100.52L258.293 100.624ZM258.885 109.694C258.977 111.201 259.068 112.731 259.158 114.283L260.675 114.195C260.583 112.641 260.492 111.11 260.4 109.601L258.885 109.694ZM259.412 118.788C259.494 120.293 259.575 121.819 259.654 123.364L261.169 123.287C261.09 121.739 261.01 120.212 260.928 118.705L259.412 118.788ZM259.879 127.891C259.95 129.393 260.022 130.914 260.09 132.455L261.607 132.387C261.538 130.846 261.467 129.322 261.394 127.818L259.879 127.891ZM260.287 136.995C260.35 138.498 260.412 140.018 260.471 141.555L261.988 141.496C261.928 139.958 261.866 138.436 261.804 136.932L260.287 136.995ZM260.641 146.1C260.694 147.606 260.747 149.125 260.797 150.662L262.315 150.611C262.264 149.074 262.212 147.553 262.158 146.045L260.641 146.1ZM260.942 155.203C260.987 156.714 261.033 158.238 261.075 159.777L262.592 159.734C262.549 158.194 262.505 156.668 262.46 155.158L260.942 155.203ZM261.194 164.308C261.232 165.825 261.268 167.355 261.303 168.9L262.819 168.865C262.786 167.32 262.75 165.788 262.712 164.27L261.194 164.308ZM261.397 173.416C261.427 174.934 261.456 176.464 261.484 178.008L263 177.982C262.974 176.437 262.945 174.905 262.915 173.385L261.397 173.416ZM261.556 182.53C261.578 184.04 261.599 185.563 261.619 187.097L263.137 187.079C263.117 185.543 263.096 184.019 263.073 182.507L261.556 182.53ZM261.67 191.654C261.685 193.157 261.699 194.67 261.71 196.194L263.228 196.184C263.217 194.657 263.203 193.143 263.188 191.639L261.67 191.654ZM261.742 200.795C261.749 202.289 261.757 203.792 261.761 205.307L263.279 205.301C263.275 203.786 263.267 202.281 263.26 200.788L261.742 200.795ZM261.77 209.879C261.772 210.647 261.772 211.417 261.772 212.189H263.29C263.29 211.417 263.29 210.645 263.288 209.877L261.77 209.879Z" fill="#AEB4BC"/>
<path d="M275.095 297.461L272.151 305.716L280.772 304.137L275.095 297.461ZM275.095 503.701C275.851 503.774 275.851 503.774 275.851 503.774V503.772C275.851 503.771 275.851 503.768 275.851 503.765C275.852 503.76 275.852 503.751 275.854 503.739C275.855 503.716 275.86 503.681 275.864 503.634C275.872 503.543 275.886 503.405 275.902 503.223C275.937 502.86 275.987 502.321 276.053 501.615L274.541 501.477C274.475 502.182 274.425 502.719 274.392 503.08C274.374 503.262 274.362 503.399 274.352 503.49C274.348 503.536 274.345 503.571 274.343 503.593C274.342 503.606 274.34 503.613 274.34 503.619C274.34 503.622 274.34 503.624 274.34 503.625C274.339 503.627 274.339 503.627 274.339 503.627C274.339 503.628 274.339 503.628 274.339 503.628C274.339 503.628 274.339 503.628 275.095 503.701ZM276.452 497.109C276.566 495.796 276.692 494.303 276.828 492.646L275.315 492.52C275.178 494.176 275.052 495.667 274.94 496.977L276.452 497.109ZM277.191 488.156C277.303 486.742 277.42 485.246 277.54 483.67L276.025 483.555C275.907 485.129 275.79 486.624 275.678 488.036L277.191 488.156ZM277.874 479.18C277.98 477.73 278.088 476.227 278.197 474.676L276.683 474.57C276.573 476.12 276.467 477.621 276.361 479.071L277.874 479.18ZM278.507 470.156C278.604 468.708 278.703 467.224 278.8 465.708L277.285 465.611C277.188 467.126 277.091 468.607 276.994 470.054L278.507 470.156ZM279.084 461.221C279.175 459.739 279.266 458.23 279.356 456.694L277.841 456.606C277.75 458.139 277.659 459.647 277.567 461.127L279.084 461.221ZM279.611 452.236C279.694 450.758 279.775 449.259 279.855 447.741L278.34 447.661C278.26 449.177 278.178 450.676 278.096 452.151L279.611 452.236ZM280.087 443.233C280.162 441.758 280.233 440.267 280.304 438.761L278.788 438.69C278.717 440.194 278.645 441.683 278.571 443.157L280.087 443.233ZM280.509 434.244C280.575 432.765 280.637 431.273 280.699 429.769L279.181 429.706C279.12 431.209 279.058 432.7 278.993 434.177L280.509 434.244ZM280.874 425.265C280.93 423.777 280.983 422.281 281.035 420.773L279.518 420.722C279.466 422.226 279.413 423.723 279.357 425.209L280.874 425.265ZM281.18 416.277C281.226 414.785 281.27 413.284 281.311 411.776L279.793 411.735C279.753 413.241 279.709 414.739 279.664 416.232L281.18 416.277ZM281.425 407.285C281.46 405.788 281.491 404.287 281.522 402.779L280.004 402.749C279.975 404.255 279.942 405.755 279.907 407.248L281.425 407.285ZM281.601 398.288C281.625 396.789 281.645 395.288 281.663 393.782L280.145 393.766C280.127 395.268 280.107 396.768 280.083 398.263L281.601 398.288ZM281.705 389.289C281.716 387.789 281.724 386.288 281.728 384.787L280.21 384.782C280.206 386.282 280.198 387.78 280.187 389.279L281.705 389.289ZM281.73 380.289C281.727 378.789 281.721 377.29 281.71 375.79L280.192 375.801C280.203 377.297 280.209 378.794 280.212 380.292L281.73 380.289ZM281.668 371.289C281.651 369.788 281.628 368.288 281.602 366.791L280.084 366.819C280.11 368.312 280.133 369.809 280.151 371.307L281.668 371.289ZM281.511 362.289C281.476 360.786 281.437 359.288 281.393 357.793L279.875 357.837C279.919 359.329 279.958 360.824 279.993 362.324L281.511 362.289ZM281.246 353.292C281.191 351.786 281.132 350.288 281.068 348.794L279.551 348.86C279.615 350.349 279.674 351.846 279.729 353.347L281.246 353.292ZM280.858 344.3C280.783 342.791 280.701 341.291 280.614 339.799L279.099 339.889C279.186 341.376 279.268 342.871 279.342 344.376L280.858 344.3ZM280.333 335.316C280.232 333.805 280.124 332.302 280.01 330.811L278.496 330.926C278.61 332.413 278.717 333.911 278.818 335.418L280.333 335.316ZM279.646 326.35C279.514 324.83 279.375 323.326 279.23 321.837L277.718 321.984C277.864 323.469 278.002 324.967 278.134 326.48L279.646 326.35ZM278.764 317.366C278.597 315.856 278.422 314.364 278.238 312.888L276.731 313.075C276.915 314.543 277.089 316.031 277.255 317.533L278.764 317.366ZM277.646 308.409C277.437 306.912 277.218 305.437 276.991 303.984L275.491 304.219C275.717 305.664 275.936 307.131 276.144 308.62L277.646 308.409Z" fill="#76808F"/>
<path opacity="0.4" d="M310.142 383.395C320.06 414.463 320.06 458.751 320.06 458.751" stroke="#76808F" stroke-width="0.5"/>
<path opacity="0.4" d="M143.506 439.583C127.636 458.751 110.443 466.684 110.443 466.684" stroke="#76808F" stroke-width="0.5"/>
<path opacity="0.4" d="M385.523 383.395C398.088 395.293 415.942 399.921 415.942 399.921" stroke="#76808F" stroke-width="0.5"/>
<path opacity="0.4" d="M301.545 330.512C312.785 347.699 330.64 365.547 330.64 365.547" stroke="#76808F" stroke-width="0.5"/>
<path opacity="0.4" d="M315.432 149.392C312.126 165.917 293.609 192.358 293.609 192.358" stroke="#76808F" stroke-width="0.5"/>
<path opacity="0.4" d="M335.268 150.052C333.946 158.645 326.012 169.884 326.012 169.884" stroke="#76808F" stroke-width="0.5"/>
<path opacity="0.4" d="M213.6 88.5781C219.55 91.8833 224.84 105.105 224.84 105.105" stroke="#76808F" stroke-width="0.5"/>
<path opacity="0.4" d="M105.154 58.8315C105.154 67.4253 115.073 81.3077 115.073 81.3077" stroke="#76808F" stroke-width="0.5"/>
<path opacity="0.4" d="M29.7705 191.698C37.7064 203.597 52.9149 208.884 52.9149 208.884" stroke="#76808F" stroke-width="0.5"/>
<path opacity="0.4" d="M352.461 60.1533C349.817 72.0525 345.188 83.2904 345.188 83.2904" stroke="#76808F" stroke-width="0.5"/>
<path opacity="0.4" d="M299.562 31.7295C306.174 39.0013 307.496 50.9003 307.496 50.9003" stroke="#76808F" stroke-width="0.5"/>
<path d="M220.873 234.003L215.139 227.374L212.264 235.652L220.873 234.003ZM70.1071 112.375C69.3906 112.625 69.3906 112.625 69.3906 112.626C69.3906 112.626 69.3906 112.626 69.3906 112.626C69.3906 112.626 69.3906 112.626 69.3906 112.627C69.3906 112.627 69.3906 112.628 69.3922 112.629C69.3922 112.631 69.3937 112.633 69.3937 112.637C69.3967 112.643 69.3997 112.653 69.4043 112.665C69.4134 112.689 69.4255 112.725 69.4438 112.771C69.4772 112.865 69.5288 113.002 69.5971 113.182C69.7352 113.542 69.9462 114.072 70.2346 114.759L71.6342 114.171C71.3519 113.498 71.1469 112.983 71.0149 112.638C70.9481 112.465 70.8995 112.335 70.8676 112.249C70.8524 112.206 70.8403 112.173 70.8327 112.153C70.8297 112.142 70.8266 112.134 70.8251 112.13C70.8236 112.127 70.8236 112.126 70.8236 112.125C70.8236 112.124 70.8236 112.124 70.8236 112.124C70.8236 112.124 70.8236 112.124 70.8236 112.124V112.124C70.8236 112.124 70.8236 112.124 70.1071 112.375ZM72.1017 118.885C72.6861 120.1 73.3738 121.473 74.1753 122.988L75.5186 122.279C74.7263 120.78 74.0462 119.425 73.4709 118.227L72.1017 118.885ZM76.3505 126.943C77.0579 128.183 77.8275 129.49 78.6624 130.856L79.9587 130.065C79.1314 128.711 78.3694 127.418 77.6681 126.19L76.3505 126.943ZM81.0865 134.707C81.8804 135.929 82.7214 137.191 83.6109 138.487L84.8617 137.628C83.9798 136.344 83.1464 135.093 82.3601 133.88L81.0865 134.707ZM86.2294 142.201C87.0931 143.395 87.9948 144.613 88.939 145.854L90.1473 144.935C89.2107 143.704 88.3151 142.496 87.459 141.312L86.2294 142.201ZM91.7396 149.45C92.6671 150.611 93.628 151.789 94.6237 152.983L95.7895 152.009C94.7998 150.825 93.8465 149.656 92.9267 148.502L91.7396 149.45ZM97.5549 156.416C98.531 157.533 99.5374 158.662 100.574 159.802L101.697 158.779C100.667 157.648 99.6679 156.528 98.6995 155.417L97.5549 156.416ZM103.684 163.145C104.708 164.221 105.758 165.306 106.837 166.396L107.917 165.329C106.845 164.245 105.801 163.169 104.785 162.099L103.684 163.145ZM110.054 169.584C111.132 170.631 112.235 171.683 113.366 172.738L114.401 171.629C113.28 170.58 112.182 169.535 111.112 168.496L110.054 169.584ZM116.692 175.786C117.805 176.785 118.942 177.787 120.101 178.792L121.096 177.644C119.942 176.646 118.812 175.65 117.707 174.657L116.692 175.786ZM123.57 181.737C124.714 182.69 125.88 183.645 127.069 184.6L128.02 183.416C126.838 182.467 125.678 181.518 124.541 180.571L123.57 181.737ZM130.66 187.431C131.835 188.34 133.03 189.249 134.246 190.157L135.153 188.939C133.945 188.038 132.757 187.135 131.589 186.231L130.66 187.431ZM137.937 192.863C139.143 193.73 140.366 194.597 141.611 195.461L142.478 194.214C141.239 193.355 140.022 192.493 138.824 191.631L137.937 192.863ZM145.389 198.04C146.623 198.867 147.877 199.693 149.149 200.515L149.973 199.24C148.709 198.422 147.461 197.601 146.233 196.778L145.389 198.04ZM153.011 202.97C154.272 203.756 155.55 204.541 156.845 205.323L157.63 204.022C156.34 203.245 155.069 202.465 153.815 201.683L153.011 202.97ZM160.787 207.656C162.071 208.403 163.371 209.147 164.688 209.886L165.432 208.564C164.121 207.828 162.827 207.087 161.551 206.344L160.787 207.656ZM168.687 212.093C169.998 212.803 171.325 213.511 172.668 214.214L173.371 212.869C172.035 212.169 170.715 211.466 169.411 210.759L168.687 212.093ZM176.712 216.293C178.051 216.969 179.405 217.641 180.776 218.309L181.441 216.944C180.076 216.28 178.728 215.612 177.397 214.938L176.712 216.293ZM184.855 220.264C186.224 220.908 187.607 221.547 189.005 222.181L189.633 220.799C188.24 220.167 186.863 219.531 185.501 218.89L184.855 220.264ZM193.111 224.012C194.495 224.618 195.892 225.219 197.305 225.815L197.895 224.416C196.488 223.822 195.098 223.224 193.719 222.622L193.111 224.012ZM201.476 227.544C202.865 228.109 204.266 228.671 205.683 229.226L206.238 227.813C204.828 227.259 203.431 226.702 202.049 226.139L201.476 227.544ZM209.95 230.869C211.34 231.395 212.744 231.916 214.16 232.432L214.681 231.005C213.269 230.492 211.871 229.973 210.487 229.449L209.95 230.869Z" fill="#76808F"/>
<path d="M469.504 351.665L462.009 347.121L461.82 355.882L469.504 351.665ZM293.732 278.826C294.282 279.382 294.834 279.931 295.387 280.478L296.454 279.398C295.905 278.855 295.357 278.308 294.81 277.757L293.732 278.826ZM298.727 283.708C299.854 284.775 300.988 285.827 302.128 286.862L303.148 285.739C302.016 284.71 300.89 283.665 299.769 282.604L298.727 283.708ZM305.6 289.95C306.77 290.97 307.947 291.973 309.129 292.96L310.102 291.795C308.929 290.815 307.76 289.819 306.597 288.805L305.6 289.95ZM312.725 295.903C313.938 296.875 315.154 297.828 316.374 298.766L317.299 297.562C316.087 296.63 314.878 295.683 313.674 294.718L312.725 295.903ZM320.087 301.559C321.338 302.48 322.592 303.385 323.85 304.275L324.726 303.034C323.477 302.151 322.231 301.252 320.987 300.337L320.087 301.559ZM327.67 306.916C328.957 307.787 330.247 308.642 331.539 309.481L332.365 308.208C331.08 307.374 329.799 306.526 328.521 305.659L327.67 306.916ZM335.455 311.969C336.776 312.792 338.099 313.596 339.423 314.386L340.2 313.082C338.884 312.297 337.57 311.497 336.257 310.68L335.455 311.969ZM343.426 316.719C344.78 317.492 346.134 318.248 347.488 318.987L348.215 317.654C346.87 316.919 345.524 316.168 344.179 315.401L343.426 316.719ZM351.568 321.167C352.951 321.889 354.334 322.595 355.715 323.286L356.394 321.927C355.022 321.241 353.646 320.54 352.271 319.82L351.568 321.167ZM359.872 325.315C361.28 325.988 362.687 326.643 364.092 327.284L364.722 325.903C363.325 325.267 361.927 324.614 360.526 323.946L359.872 325.315ZM368.325 329.169C369.754 329.79 371.177 330.396 372.597 330.985L373.178 329.582C371.766 328.996 370.35 328.395 368.931 327.777L368.325 329.169ZM376.905 332.727C378.348 333.298 379.784 333.851 381.216 334.388L381.749 332.967C380.326 332.433 378.898 331.883 377.462 331.316L376.905 332.727ZM385.594 335.992C387.06 336.516 388.519 337.023 389.968 337.513L390.456 336.076C389.014 335.587 387.562 335.083 386.104 334.563L385.594 335.992ZM394.373 338.965C395.866 339.443 397.347 339.904 398.815 340.349L399.255 338.896C397.795 338.455 396.321 337.995 394.836 337.52L394.373 338.965ZM403.252 341.656C404.758 342.086 406.25 342.5 407.727 342.896L408.12 341.431C406.652 341.035 405.168 340.624 403.668 340.196L403.252 341.656ZM412.229 344.07C413.749 344.452 415.248 344.818 416.727 345.166L417.075 343.689C415.604 343.342 414.112 342.978 412.601 342.597L412.229 344.07ZM421.234 346.192C422.781 346.53 424.303 346.852 425.797 347.156L426.099 345.668C424.613 345.366 423.098 345.046 421.559 344.709L421.234 346.192ZM430.358 348.044C431.916 348.335 433.437 348.607 434.923 348.86L435.178 347.364C433.701 347.112 432.186 346.841 430.638 346.551L430.358 348.044ZM439.495 349.603C441.072 349.845 442.602 350.069 444.078 350.272L444.286 348.768C442.816 348.566 441.295 348.344 439.726 348.103L439.495 349.603ZM448.682 350.866C450.306 351.061 451.851 351.233 453.31 351.383L453.465 349.873C452.014 349.724 450.479 349.554 448.864 349.36L448.682 350.866ZM457.946 351.814C459.646 351.955 461.178 352.065 462.529 352.148L462.621 350.633C461.281 350.55 459.76 350.442 458.072 350.302L457.946 351.814Z" fill="#76808F"/>
<defs>
<linearGradient id="paint0_linear" x1="255.5" y1="0" x2="255.5" y2="507" gradientUnits="userSpaceOnUse">
<stop stop-color="#2D3137"/>
<stop offset="1" stop-color="#434852"/>
</linearGradient>
</defs>
</svg>
