<?xml version="1.0" encoding="utf-8"?>
<!-- Generator: Adobe Illustrator 25.0.1, SVG Export Plug-In . SVG Version: 6.00 Build 0)  -->
<svg version="1.1" id="Capa_1" xmlns="http://www.w3.org/2000/svg" xmlns:xlink="http://www.w3.org/1999/xlink" x="0px" y="0px"
	 viewBox="0 0 463 461" style="enable-background:new 0 0 463 461;" xml:space="preserve">
<style type="text/css">
	.st0{opacity:0.4;fill:none;stroke:#76808F;stroke-width:0.5;enable-background:new    ;}
	.st1{opacity:0.7;}
	.st2{fill:url(#SVGID_1_);}
	.st3{fill:#AEB4BC;}
	.st4{fill:#76808F;}
	.st5{fill:url(#SVGID_2_);}
	.st6{fill:none;stroke:url(#SVGID_3_);}
	.st7{fill:none;stroke:url(#SVGID_4_);}
</style>
<path class="st0" d="M126.8,260.6c-28.8,3-45.1,0-45.1,0"/>
<g class="st1">
	
		<linearGradient id="SVGID_1_" gradientUnits="userSpaceOnUse" x1="231.5" y1="462" x2="231.5" y2="1.4051" gradientTransform="matrix(1 0 0 -1 0 462)">
		<stop  offset="0" style="stop-color:#2D3137"/>
		<stop  offset="1" style="stop-color:#434852"/>
	</linearGradient>
	<path class="st2" d="M457.8,181.9c0.1,0.3,0.1,0.5,0.1,0.7c0.1,0.4,0.2,0.7,0.3,1C458,183,457.9,182.4,457.8,181.9z M459.2,189.3
		c0.3,1.4,0.6,2.8,0.8,4.2C459.5,190.9,459.3,189.5,459.2,189.3z M443.2,137.3c0.2,0.6,0.4,1,0.6,1.5c-0.1-0.3-0.3-0.7-0.4-1.2
		C443.3,137.5,443.3,137.4,443.2,137.3z M443.9,139.2c-0.3-0.3-0.6-0.8-0.9-1.2c-6.7-15-14.7-29-24-41.7c-1.9-2.9-3.7-5.7-5.8-8.5
		C425.1,102.8,437.8,120.7,443.9,139.2C443.9,139.1,443.9,139.2,443.9,139.2z M209.1,1.5C209.2,1.5,209.2,1.5,209.1,1.5L209.1,1.5z
		 M463,232.2c0-1.6-0.1-3.3-0.4-5c0,1.3,0.1,2.6,0.1,3.8C462.8,232.5,462.9,233.1,463,232.2z M156.1,447.7c-1-0.4-1.9-0.7-2.6-0.9
		c-1.2-0.4-2.2-0.8-2.7-1c0.8,0.3,1.9,0.7,2.7,1C154.8,447.3,156.1,447.7,156.1,447.7c-26.7-9.4-50.8-23.5-71.7-40.9
		c22.5,19.7,49.7,35,81.9,44.2c0-0.1-0.1-0.1-0.1-0.2C162.8,449.8,159.4,448.9,156.1,447.7z M261.7,2.4
		C261.7,2.4,263.3,2.5,261.7,2.4L261.7,2.4z M273.6,4.2C273.6,4.2,275.5,4.6,273.6,4.2L273.6,4.2z M412.2,370.5
		c-24.4,30.5-56.2,55.2-92.1,71c41.4-15.5,79-40.7,98-74.2c-5.4,7.1-11.2,13.9-17.6,20.1C404.9,381.9,408.7,376.3,412.2,370.5z
		 M387.7,60.7C388.2,61.1,388.6,61.4,387.7,60.7L387.7,60.7z M348.2,31.8c0.1,0.1,0.3,0.2,0.3,0.2C348.5,31.9,348.4,31.9,348.2,31.8
		z M348.2,31.8c-0.1-0.1-0.4-0.3-0.6-0.4C347.6,31.4,347.9,31.6,348.2,31.8z M293.1,8.6c0.3,0.1,0.4,0.1,0.6,0.1
		C293.4,8.7,293.1,8.6,293.1,8.6z M217.9,0.8C217.3,0.8,216.7,0.8,217.9,0.8L217.9,0.8z M239.5,0.5h-0.6H239.5z M239.5,0.5
		C239.8,0.5,239.8,0.5,239.5,0.5L239.5,0.5z M357.7,37.5L357.7,37.5c0.5,0.3,1,0.7,1.4,1C358.9,38.3,358.5,38,357.7,37.5z
		 M302.5,73.6c-2.3,1.3,3.2,8.3,4.9,8.3C309.4,81.1,304.9,72.3,302.5,73.6z M297,52.7c-1.8,0-2-2.2-2.6-4c-1.3-0.8-2.6-1.6-3.9-2.4
		c-0.7,0.2-1.7,0.5-2.8,1C290.1,50.4,293.1,52.2,297,52.7z M250.3,114.2c-10.4-10.2-2-27.9-4.2-38c-10.5,3,2.2-5-3.7-13
		c-0.6-0.9-11.8,4.3-11.8,4.4c3.7-12,16.4-22.9,21.2-15c0.6-8.5,1.6-9.9,3.1-3.9c1.1-1.6,3.5-8.4,7.7-6.7c4.2,1.6-1.6,11.8,3.2,12.6
		c1-1.9,1.5-3.2,1.7-4.1c0.3,1.2,1,2.8,3,4.8c-1.4-2.6-1.5-5.1-0.4-7.8c6.9-2.8,5.1,15.9,9.5,23.4c-0.7-0.5-1.4-1-2.2-1.4
		c-0.3,0,6.9,7,6.6,9.5c-0.6,0.3-1,0.4-1.5,0.4c-1.3-1.3-2.6-2.4-3.9-3c1,2.2,2.3,3.2,3.9,3c4.6,4.6,7.4,11.9-4.3,9.1
		c-6.7-1.6-14.6,29.3-19.4,32C253.9,112.6,256.7,100.2,250.3,114.2z M443.4,137.5c0.1,0.3,0.2,0.4,0.3,0.7
		C443.6,138,443.5,137.8,443.4,137.5L443.4,137.5z M294.4,48.7c-0.6-1.6-1.4-2.9-3.9-2.4c-0.9-0.6-1.7-1.1-2.6-1.6
		c7.6,1.2,19.2,6.3,18.1,11.3C302.2,53.5,298.4,51.1,294.4,48.7z M225,153.4c1.9,0,5.6,5.4,10.8,4.6c5.1-0.8-8.2-19.1-9.7-17.9
		C227.3,141.3,219.6,153.4,225,153.4z M190.8,47.1c2.8-2.2-2.5-2.2-5.6-2.2c-20.5,0-4.9,0.7-8.8,4.9
		C178.9,50.3,188.3,49.1,190.8,47.1z M208.2,47.5c-2.7,5.5-18.7,5.8-22.2,4.2c0-1.2,15.6-9.1,18.3-9.8c-2.6,0.6-6.9,2.5-9.8,0.8
		c5-2.3,10.2-3.8,15.7-4.4c-2.1,1.7-5,4.4-9.4,8.5c1.7,1.6,3.5,1.7,5.5,0.5C206.8,47.4,207.3,47.5,208.2,47.5z M204.9,41.8
		c-1.3,0.5-1.3,0.6-0.2,0.4C204.9,41.9,204.9,41.9,204.9,41.8c0.1,0,0.1-0.1,0.2-0.1c-0.1,0-0.2,0.1-0.3,0.1H204.9z M191.5,55.5
		c-0.7,3.3-7,11.9-11,11.6c0.6,0.1-0.9-6.9-8.7-6.9C187.1,60.1,179.1,46.7,191.5,55.5z M216.1,38c-1.1,0-2.2,0.1-3.3,0.2
		C211.4,40.4,210.1,42.6,216.1,38z M155.4,22.8c-0.6,0.7-1,1.2-1.3,1.7h0.1c-4,5.9,8.6-3,12-1.6c-12.5,6.7,11.9-1.3,11.1-1.3
		c1.9,2.9,4.4,4.9,7.7,6.2c-4.5,1.3-10.6,4.5-14.3,7.6c5.5,1.9,1,7.4,7.6,6.4c-3.8,1.2-7.7,2.3-11.5,3.4c11.8,3.5,9.5-1-4,7
		c1.2,1.4,7.6-3.2,6.5,0.3c-3.4,9.8-8.7,13,6.9,10.5c-7,15.1,13.6,5.5,18.3,2.6c0,3-0.9,5.9-2.6,8.3c4-1.9,5.3-1.5,4,0.9
		c-6.6,4.2-15.6,10.5-18,12.4c-3.8,3-20.7,5.1-13.1,14.3c2,2.4,14.6,24.7,9.4,25.9c9.1-2,18.2-27.3,26.1-33.3
		c1.7,3.1-1,7.4-0.4,10.3c1.7-2.2,3.7-4,6.1-5.5c0.2,0,18.7,19.5,19.9,25.5c6.2,30.4-15.9,3.6-33,23.5c5.5,0.3,10.7-0.7,15.7-2.9
		c3.2,4.2,4.1,8.9,3,14.1c4.3,5.5-5.7,17-13.6,14.4c11.2-26.3-27.6,7.1-35.8,0.1c-8.2,6.9-20.3,47.3-27.9,49.3
		c-9.7,2.6-2-34.3-14-31.7c-12.6,2.8-59.1-5.3-38.4,30.7c4.6,8.1,16.3-6.5,25.8,1.3c0.8,0.7-11.2,32.1-10.7,32.6
		c4,0.9,7.7,0.2,11.1-2.1c5.5,0.5,2.2,19,6.1,22.6c14.6,13.4,21.9-4.7,36.9,11.3c2.6,2.8,28.8-1.6,39.1,12
		c8.8,11.8,23.6,13.7,33.2,24.6c11.4,13-15,7.1-13.2,15.4c-0.6-2.6,37.6,13.2,34.8,13.6c5.8-1,43.2-3,37.3,18.5
		c-8.2,29.8-30.8,38-54.4,43.7c11.8,0.5-28.8,17.2-42.1,16.5c-2.5-1.4-4.3-2.9-3-5.1c-2.1,3.5-0.6,4.9,3,5.1
		c2.5,1.4,5.4,2.6,6.2,4.3c2.9,5.9-16,0.2-15.6,0.1c0.9,3.3-7.6,6.8-14.6,4.5c2.7,2.6,5.8,4.8,9.1,6.4c-12.7,4-21.6-2.8-32.6-11.3
		c2.7,1.6,5.4,1.6,8.1,0.2c-2-3-4.5-5.5-7.5-7.5c1.2,0.9,2.3,0.9,3.4,0.1c-1.6-4.5,5.8-35.9-2.5-42.9c-26.2-22.4-30.8-42.8-36-69
		c-2.7-13.5,17.6-5.1,15.2-20.6c-1-6.9-36-55.2-42.5-59.9c-12.4-9-20.3,1.4-19.9-25.9c0.3-19.7,7.7-39.6,8.6-59.9
		c-10.5,0.5-4.8,37.9-9.1,35.3c-28.2-17.2,26.6-73.8,41.9-95.5c-0.6,1.6-0.7,2.9,0.3,2.6c-0.4,0.1,18.4-23.2,22.8-26.2
		c-13.1-0.7,3.2-3.1,6.5-7.1c-6.6-2.2,9.8-14.6,15.6-19.2c-4-2.6-8.7-1.6-13.3-0.1c0.9-0.8,1.6-1.5,2.3-2.2c9.1-0.7,10.8-9.7,0,0
		c-1.9,0.1-4.2-0.1-6.7-0.9c1.6-2.1,2.6-4.4,3-6.9c0.5,0.4,4.4-0.6,9.2-1.9C142.7,27.2,147.9,25.5,155.4,22.8z M197.7,57.1
		c-3,0-5.9,3.9-5.1,7.2C197.7,63.4,206.2,57.1,197.7,57.1z M461.6,221.9c-1.1-11-2.5-26.9-2.6-31.5c0.4,1.3,0.8,2.5,0.9,3
		c-0.1-0.4-0.3-0.9-0.4-1.3c2,11.9,2.9,23.5,3,35C462.4,225.6,462,223.7,461.6,221.9z M190.9,85.4c-7.4-2.7-6.8,6.5-6.8,6.5
		c3.9-2.3,7.5,1.9,11.5-3.5C180,86.3,196.2,87.3,190.9,85.4z M225.3,96.8c10.6,4-7.4-26.4-7.5-25.4c1-14.6-18-2.9-18.2-2.9
		c18.9,0,4.2,9.4-0.3,15.2c1.2,0.3,18.8,22.1,21.2,17.4c-0.9-4.1-1-8.1-0.3-12.1C224.5,85.4,223.2,96,225.3,96.8z M210.7,86.1
		c-0.1-0.1-0.1-0.3-0.2-0.4c0.2-1.7,3.3-9.5,1-9.8c-9.8,9.7-3,5.8-1,9.8C210.5,86,210.5,86.2,210.7,86.1z M286.6,6.9
		c0.4,0.1,0.7,0.2,0.8,0.2C287.1,7,286.6,6.9,286.6,6.9z M410.8,375.7C410.4,376.2,410.1,376.5,410.8,375.7L410.8,375.7z
		 M461.3,256.6c-0.3,2.2-0.6,4.3-0.9,6.5c0.3-1.8,0.6-3.6,0.9-5.4c-0.7,6.2-1.7,12.4-2.9,18.5c0.2-1,0.3-1.9,0.4-2.9
		c-0.3,1.2-0.4,2.5-0.7,3.7c0.1-0.3,0.2-0.6,0.3-0.9c-0.1,0.7-0.4,1.5-0.5,2.3c-0.4,2.2-0.9,4.3-1.4,6.5c-0.4,1.6-0.8,3.3-1.2,4.9
		c-7.2,27.9-19.8,54.6-37.2,77.5c11.7-20.5,16.4-44.3,10.7-70.9c-17.8-9.8-27,10.5-42.4,14.6c-12.3,3.2-14.9-4.6-22.1-10.6
		c-19.9-16.3-11.1-3.7-8.5-31.8c2.5-27.2,0.9-47.5,13.6-75.6c4.8-10.7,20.5-19.3,28.5-26.1c4.3-3.6,7.3,12.2,11,13.4
		c-3-1,17.2-8.5,15.2-3.4c4.2-10.7,21.9-32.4,1.9-45.4c1.6,4.1,3.2,8.2,4.5,12.4c-5.8-9.3-5.6,2.4-6.7,4.6
		c-21.8-7.5,12.9-38.8-20.2-41.8c3.9,2.7,6.8,6.1,8.9,10.3c0,3.4-6.2-0.9-9.2-3.7c-0.5-0.9-0.9-1.6-1.3-2.1
		c-0.7-0.1,0.1,0.9,1.3,2.1c5,9.3,14,42.5,16.1,42.4c-8.4,0.3-18-21-28.4-18.8c-1.1,0.3,26.3,18.7,20.8,27.6
		c-17.7-14.6-19.3-6.2-31.4-10.5c-1.1,3.8-1.5,6.2-1.6,7.7c-0.9,0.1-2.2,0.6-4.2,1.7c-0.5,0.3,4.9,32.5-11.5,22.3
		c-14.8-9.2,2.5-27.2-8.2-39.3c11.6-5.7,3.9-33.4,1.1-40.7c6.1,2.2,13.8,5.4,19.3,8.2c-2-9.3-3.3-34.6-13.2-37.7
		c1,3.3-0.1,4.1-3.3,2.3c2.5,2.2,2.9,4.6,1.3,7.3c-7.9,0.7-14.1-17.6-19.5-13.6c1.2-0.9,27.7,30.7,27.9,32.2c-0.2,0-0.3,0.1-0.4,0.1
		c-2.7-1.3-7.6-3.1-16.1-5.6c1.2,2.3,1.5,5.2-0.2,7.5c-6.9-4.9-30.3-42.2-27.5-50.8c0.2,0.1,8.2-3.6,15.3-2.2
		c2.1,1.4,4.6,2.8,6.9,4.1c0.4,0.6,0.9,1.2,1.2,1.8c-9.7-3.2,3.8,2.3-4.9,1.1c1.9,2.3,1.5,4.6,1,7c4.7-2.7,9.7-2.8,14.9-0.3
		c-10.1-6.2-11.4-8-4-5.4c-0.6-0.4-4.1-2.1-8.2-4.3c-1.9-2.3-4.3-3.5-6.9-4.1c-2.7-1.8-4.9-3.6-5.2-5.1c25.5,7-9-15-20.5-18.7
		c6.9-0.3,13.6,0.9,19.9,3.5c-8.7-5.4-13.9-2.8-22.5-6.6c5.9,0.1,4.8-0.4-3.6-1.4c9.6-2.7-6.2,0.8,7.1-2.5
		c-13-2.4-32.2-5.4-44.9-2.6c7.9-12,1.9-3.5,19.2-7.6c-11.6-3.4-32.5-9.1-44.5-5.7c1.6,0.7,3,1.7,4.2,3c-2.1,1.3-24.9-6.5-36.2-4.8
		c-11,1.7-33.6,17-45.7,10.5c6.6-3.4,15.3-4.2,22-7.2c-4.1,0.3-7,0.4-9,0.3h0.8c-28,6.1-55.3,17.1-80.7,33.6
		C93,46.1,86.2,50.8,80,56.2c6.5-5.2,13.1-9.9,19.9-14.3c38.1-22.7,85.2-26.8,128.8-17.7c-25.9-5.3-51-5.1-74.4-0.2
		c0.3-0.5,0.7-1,1.2-1.7c-1.9,0.7-10.5,3.5-17.4,5.4c-3,0.7-5.9,1.1-9.1,1.3c-0.2,0.9-0.4,1.7-0.7,2.5
		c-42.1,15.9-77.2,47.5-100,88.9C57.6,55.9,116.9,6.5,205.7,1.5c0.3,0,1.3-0.1,3.6-0.2C208.1,2,190.4,3.8,188,4.2
		c-0.2,0-0.6,0.1-1,0.2c-0.6,0.1-1,0.2,0,0c0.3-0.1,0.6-0.1,1-0.2c0.9-0.1,1.2-0.2,1.3-0.2c-0.4,0.1-0.9,0.1-1.2,0.2
		C184.4,5,175.4,7,176.3,7.9c0.1,0.3,1.1,0.4,3.2,0.4c-2-0.1-2.9-0.3-3.2-0.4c-0.6-1.1,13.3-3.8,13-3.9c6.1-0.7,19.3-2,19.9-2.8
		c4-0.3,11.5-0.6,22.4-1.2h1.8c10.1,0.1,4.3,0.1,0.6,0.1c28,0.3,56.1,5.9,82.3,16.1c-7.5-3-15.2-5.7-23.1-7.9
		c14.3,3.9,28.3,9.2,41.5,15.8c-1.9-0.9-3.7-1.6-5.5-2.5c9.9,4.5,19.4,9.8,28.6,15.6c0.1,0,0.1,0.1,0.1,0.1c0.4,0.3,0.7,0.5,1.1,0.7
		c3,2,6.1,4.1,9.1,6.2c1.6,1.2,3.3,2.4,4.9,3.5c0.4,0.3,0.8,0.7,1.2,1c0,0,0.1,0,0.1,0.1c3.6,2.9,7.2,6.3,10.7,10.2
		c12.6,10.8,24.1,23.2,34.2,37c10.1,16,16.7,33,24,41.7c0.3,0.7,0.7,1.4,1,2.1c0.1,0,0.1-0.3-0.1-0.9v-0.1c0-0.1-0.1-0.2-0.1-0.3
		c5.4,14.8,10.4,28.5,14.1,43.7c0.5,2.3,0.9,4.5,1.3,6.8c-0.1-0.2-0.1,0.3-0.1,1.2c-3.2-9.5-12.8-34.6-20.2-35.9
		c-2.9,14.3,17.3,43.6,22.6,67.4c0.4,4,0.7,7.3,1,9.1c-0.1,5.9-0.3,11.7-0.7,17.4C461.7,251.8,461.5,254.6,461.3,256.6z M318.7,17.5
		c3.4,1.4,6.8,2.8,10.1,4.3C325.4,20.3,322.1,18.9,318.7,17.5z M373,48.4c0,0,0.7,0.5,0.9,0.7C373.9,49,373.6,48.8,373,48.4z
		 M400,80.9c3.8,6.2,17.3,26.2,25,28.1C422.9,102.5,407.2,83,400,80.9z M434.7,340.4c0.3-0.4,0.4-0.7,0.4-0.7
		C435,340,434.9,340.2,434.7,340.4z M461,260.2c-0.1,0.3-0.1,0.6-0.1,0.7C460.8,260.7,460.9,260.5,461,260.2z M267.5,3.1
		C268.3,3.3,267.9,3.2,267.5,3.1L267.5,3.1z M461.3,257.6c1-8.4,1.6-16.9,1.6-25.4C463,240.7,462.6,249.3,461.3,257.6z M393.3,65.9
		C394.1,66.6,393.7,66.3,393.3,65.9L393.3,65.9z M410.8,84.9C410.8,84.9,411.5,85.9,410.8,84.9L410.8,84.9z M205.6,1.7
		c-0.3,0,0.9-0.1,3.6-0.3C207.9,1.5,206.8,1.7,205.6,1.7z M226.4,0.4h1.3H226.4z M304.4,49.8c2.5,1.2,5.1,2.5,7.7,3.7
		C310.4,50.9,307.8,49.6,304.4,49.8z M303.3,109.4c14.5-12.9-4.1-13.6-4-13.6c-5,0-3.3-1.6-8.5,1C291.5,98.2,302.5,110,303.3,109.4z
		 M356.8,132.7c3.9-7.4-25.3-22.2-24.7-23.1c-0.9,1.3,5.5,12,5.9,12.6C343.6,114.5,350.8,144,356.8,132.7z M335.2,124.8
		c-0.1,3.8,0.6,17.6,8.9,17.6C354.6,142.4,335.4,121.2,335.2,124.8z M329.7,94.8c0.3,4.5,2.3,7.8,6.3,9.9
		C335.8,100.3,333.8,97,329.7,94.8z M458.1,277.5C457.8,279.1,457.4,281,458.1,277.5L458.1,277.5z M195.4,453.7
		c-4.6-0.7-9.2-1.2-14-1.6C178.5,451.2,195,457,195.4,453.7z M172.4,452.4c0.3,0.1,0.5,0.1,0.7,0.2c-0.1,0-1-0.2-3.6-0.7
		C165.5,450.8,170.5,451.9,172.4,452.4z M75.6,306.6c2.1,0,4.5-9.6,4.5-9.6c-3.9,0.1-7.3-1-10.2-3.5
		C69.5,293.4,70.4,306.6,75.6,306.6z M295.8,32.2c4.5-0.4,0.9-0.8-10.8-1.2C288.5,31.7,292.2,32.1,295.8,32.2z M183.6,272.7
		c-2.8,2.7,5.2,5.9,6.6,5.9C197.5,278.5,187.8,268.5,183.6,272.7z M300.5,37.7c-6.3-2.2-12.7-3.5-19.3-3.8c2.5,0.6,5,1.2,7.4,1.7
		c-3.4-0.6-6.7-1.1-10.1-1.6C279.5,34.2,296.9,40,300.5,37.7z M294.7,29c10.2,6.5,25.3,10.1,37,14.1C325,40.3,300.8,24,294.7,29z
		 M144.2,244.8c14.2-3.5-39.8-28-27-17.8C121.1,232.5,135,247.1,144.2,244.8z M194.1,457.3c35,6.3,82.6,0.5,125.9-15.8
		c-45.1,19.8-96.6,25.4-148.4,11.1c-3.5-0.6-5.2-1.1-5.4-1.5c6.7,2,13.7,3.5,20.8,4.9c0.1,0.1,0.8,0.2,2.7,0.6
		c-0.9-0.2-1.8-0.4-2.7-0.6C186.7,455.8,197.8,457.6,194.1,457.3z M186.4,287.4C194.8,283,177.2,283.2,186.4,287.4L186.4,287.4z
		 M232.1,41c1.6-0.6,3.2-0.9,4.5-1.9C235.2,38.6,233.1,40,232.1,41z M82.3,405.1C4,334.9-13.8,212.6,28,120.9
		c-11.1,20.2-19.4,42.8-24.1,67C-11.8,270.6,20.8,352.6,82.3,405.1z M216.7,40.5C212.8,40.7,210.9,40.5,216.7,40.5L216.7,40.5z
		 M169.4,254.8c-4.9-6.8-25.8-8.9-16.7,2.2C154.4,256.6,173.1,259.8,169.4,254.8z M236.5,9.2C246.6,8.3,220.2,9.2,236.5,9.2
		L236.5,9.2z M332.5,44.9C336.7,46.3,340.5,44.9,332.5,44.9L332.5,44.9z M208.2,53.2c-0.6-0.6,5.8-1.6,8.9-2.3
		c0.4-0.3,0.7-0.6,1-0.9c-0.9-0.1-2.6-0.2-5.6-0.2c-2.6,0.9-5.2,1.7-7.8,2.6C207.1,51.8,208.2,52,208.2,53.2z M285.9,42.2
		c7.9,2.8,10.2,2.9,7.2,0.4c3.6-0.5,5.3,0.9,5,4.2C294,45.3,289.9,43.8,285.9,42.2z M222.2,47.4c1-0.3,2.1-0.7,2.7-1.6
		C224.4,45.9,221.9,46.2,222.2,47.4z M231.6,43c-2.9,2-5.8,4.1-8.8,6.1C226.9,50.9,232.3,42.5,231.6,43z M229.1,41.7
		c-1,0.2-1-0.1,0.1-0.8c-4.2,1.3-8.4,3-12.2,5C218.6,46.4,228.5,45.4,229.1,41.7z M217.2,50.9c-4.2,3.5-9.1,9.2-9.5,10.1
		c2.3-1.3,6.9-0.6,8.5,1.7c0-5.7,7.1-3.8-1.3-4.6c-0.1-0.1,6.8-7.9,7.4-9.8c-0.9-0.3-2.4,0.6-4.1,1.9
		C219.6,50.2,218.8,50.6,217.2,50.9z M217.6,40.4c3.9-0.3,9.2-1.2,10.8-3.1C224.9,36.3,221.6,40,217.6,40.4z M230.3,42.4
		c-1.5-0.1-2.1,1.9-3.5,1.9C228.1,44.3,229.1,43.1,230.3,42.4z M248.9,41c-5.5,1.5-5.7,1.3-12.1,1.3c-6.6,0-14.1,12.4-15.9,18.5
		C222.5,55.4,251.7,47.4,248.9,41z"/>
</g>
<path class="st3" d="M285.9,211.4l7.7,2l-2.1-7.7L285.9,211.4z M292,210.4c1.3-0.4,2.6-0.8,3.9-1.2l-0.4-1.3
	c-1.3,0.4-2.6,0.8-3.9,1.2L292,210.4z M299.8,207.9c1.3-0.4,2.6-0.9,3.8-1.3l-0.5-1.3c-1.3,0.4-2.5,0.9-3.8,1.3L299.8,207.9z
	 M307.5,205.2c1.3-0.5,2.5-1,3.8-1.5l-0.5-1.3c-1.2,0.5-2.5,1-3.8,1.5L307.5,205.2z M315,202.1c1.3-0.5,2.5-1.1,3.7-1.6l-0.6-1.3
	c-1.2,0.5-2.5,1.1-3.7,1.6L315,202.1z M322.5,198.9c1.2-0.6,2.5-1.2,3.7-1.7l-0.6-1.2c-1.2,0.6-2.4,1.2-3.7,1.7L322.5,198.9z
	 M329.8,195.3c1.2-0.6,2.4-1.2,3.6-1.9l-0.6-1.2c-1.2,0.6-2.4,1.2-3.6,1.9L329.8,195.3z M337,191.5c1.2-0.7,2.4-1.3,3.5-2l-0.7-1.2
	c-1.2,0.7-2.3,1.3-3.5,2L337,191.5z M344.1,187.4c1.2-0.7,2.3-1.4,3.5-2.1l-0.7-1.2c-1.1,0.7-2.3,1.4-3.5,2.1L344.1,187.4z
	 M351,183.1c1.1-0.7,2.3-1.5,3.4-2.2l-0.8-1.1c-1.1,0.7-2.2,1.5-3.4,2.2L351,183.1z M357.8,178.6c1.1-0.8,2.2-1.6,3.3-2.3l-0.8-1.1
	c-1.1,0.8-2.2,1.6-3.3,2.3L357.8,178.6z M364.4,173.8c1.1-0.8,2.2-1.6,3.2-2.5l-0.8-1.1c-1.1,0.8-2.1,1.6-3.2,2.4L364.4,173.8z
	 M370.8,168.8c1.1-0.9,2.1-1.7,3.2-2.6l-0.9-1.1c-1,0.9-2.1,1.7-3.1,2.6L370.8,168.8z M377.1,163.6c1-0.9,2.1-1.8,3.1-2.7l-0.9-1
	c-1,0.9-2,1.8-3.1,2.7L377.1,163.6z M383.2,158.3c1-0.9,2-1.9,3-2.8l-0.9-1c-1,0.9-2,1.8-3,2.8L383.2,158.3z M389.1,152.6
	c1-1,1.9-1.9,2.9-2.9l-1-1c-0.9,0.9-1.9,1.9-2.9,2.8L389.1,152.6z M394.9,146.9c1-1,1.9-2,2.8-3l-1-0.9c-0.9,1-1.8,2-2.8,2.9
	L394.9,146.9z M400.4,140.9c0.9-1,1.8-2.1,2.7-3.1l-1-0.9c-0.9,1-1.8,2-2.7,3L400.4,140.9z M405.8,134.7c0.9-1.1,1.8-2.1,2.6-3.1
	l-1.1-0.9c-0.8,1-1.7,2.1-2.6,3.1L405.8,134.7z M410.9,128.4c0.9-1.1,1.7-2.2,2.5-3.2l-1.1-0.8c-0.8,1-1.6,2.1-2.5,3.2L410.9,128.4z
	 M415.8,121.9c0.8-1.2,1.6-2.3,2.4-3.3l-1.1-0.8c-0.7,1-1.5,2.1-2.4,3.3L415.8,121.9z M420.5,115.2c0.8-1.2,1.6-2.4,2.2-3.4
	l-1.2-0.7c-0.6,1-1.4,2.1-2.2,3.4L420.5,115.2z M424.9,108.4c0.3-0.6,0.6-1,0.8-1.3c0.1-0.1,0.1-0.3,0.2-0.3c0,0,0-0.1,0-0.1
	c0,0,0,0,0,0c0,0,0,0,0,0c0,0,0,0,0,0l0,0l0,0c0,0,0,0-0.6-0.3c-0.6-0.3-0.6-0.3-0.6-0.3l0,0v0c0,0,0,0,0,0c0,0,0,0,0,0
	c0,0,0,0,0,0.1c0,0.1-0.1,0.2-0.2,0.3c-0.2,0.3-0.4,0.7-0.7,1.3L424.9,108.4z"/>
<path class="st3" d="M38.4,348.3l7,3.8l-0.2-8L38.4,348.3z M44.5,348.7c1.2-0.1,2.6-0.2,4.1-0.3l-0.1-1.4c-1.5,0.1-2.9,0.2-4.1,0.3
	L44.5,348.7z M52.7,348c1.3-0.1,2.6-0.3,4.1-0.5l-0.2-1.4c-1.4,0.2-2.8,0.4-4,0.5L52.7,348z M60.8,346.9c1.3-0.2,2.6-0.4,4-0.6
	l-0.2-1.4c-1.4,0.2-2.7,0.4-4,0.6L60.8,346.9z M68.9,345.5c1.3-0.2,2.6-0.5,4-0.8l-0.3-1.4c-1.4,0.3-2.7,0.5-4,0.8L68.9,345.5z
	 M76.9,343.9c1.3-0.3,2.6-0.6,4-0.9l-0.3-1.3c-1.3,0.3-2.6,0.6-3.9,0.9L76.9,343.9z M84.8,342c1.3-0.3,2.6-0.7,4-1l-0.4-1.3
	c-1.3,0.4-2.7,0.7-4,1L84.8,342z M92.7,339.9c1.3-0.4,2.6-0.8,3.9-1.2l-0.4-1.3c-1.3,0.4-2.6,0.8-3.9,1.2L92.7,339.9z M100.6,337.5
	c1.3-0.4,2.6-0.8,3.9-1.3l-0.4-1.3c-1.3,0.4-2.6,0.9-3.9,1.3L100.6,337.5z M108.3,334.8c1.3-0.5,2.5-0.9,3.8-1.4l-0.5-1.3
	c-1.3,0.5-2.5,0.9-3.8,1.4L108.3,334.8z M116,332c1.2-0.5,2.5-1,3.8-1.5l-0.5-1.3c-1.3,0.5-2.5,1-3.7,1.5L116,332z M123.5,328.8
	c1.2-0.5,2.5-1.1,3.7-1.6l-0.6-1.3c-1.2,0.6-2.5,1.1-3.7,1.6L123.5,328.8z M131,325.5c1.2-0.6,2.4-1.2,3.7-1.8l-0.6-1.2
	c-1.2,0.6-2.4,1.2-3.6,1.7L131,325.5z M138.3,321.9c1.2-0.6,2.4-1.2,3.6-1.9l-0.6-1.2c-1.2,0.6-2.4,1.3-3.6,1.9L138.3,321.9z
	 M145.5,318c1.2-0.7,2.4-1.3,3.5-2l-0.7-1.2c-1.2,0.7-2.3,1.3-3.5,2L145.5,318z M152.6,314c1.2-0.7,2.3-1.4,3.5-2.1l-0.7-1.2
	c-1.2,0.7-2.3,1.4-3.5,2.1L152.6,314z M159.6,309.7c1.1-0.7,2.3-1.5,3.4-2.2l-0.8-1.1c-1.1,0.8-2.3,1.5-3.4,2.2L159.6,309.7z
	 M166.4,305.1c1.1-0.8,2.2-1.6,3.4-2.4l-0.8-1.1c-1.1,0.8-2.2,1.6-3.3,2.3L166.4,305.1z M173,300.4c1.1-0.8,2.2-1.6,3.3-2.5
	l-0.8-1.1c-1.1,0.8-2.2,1.7-3.3,2.5L173,300.4z M179.5,295.4c1.1-0.8,2.1-1.7,3.2-2.6l-0.9-1.1c-1.1,0.9-2.1,1.7-3.2,2.6
	L179.5,295.4z M185.8,290.2c1-0.9,2.1-1.8,3.1-2.7l-0.9-1c-1,0.9-2,1.8-3.1,2.7L185.8,290.2z M192,284.8c1-0.9,2-1.8,3-2.8l-0.9-1
	c-1,0.9-2,1.8-3,2.7L192,284.8z M197.9,279.2c1-0.9,1.9-1.9,2.9-2.9l-1-1c-1,1-1.9,1.9-2.9,2.9L197.9,279.2z M203.7,273.4
	c0.9-1,1.9-2,2.8-3l-1-0.9c-0.9,1-1.9,2-2.8,3L203.7,273.4z M209.2,267.4c0.9-1,1.8-2,2.7-3.1l-1-0.9c-0.9,1-1.8,2-2.7,3
	L209.2,267.4z M214.6,261.2c0.9-1,1.7-2.1,2.6-3.1l-1.1-0.9c-0.9,1.1-1.7,2.1-2.6,3.1L214.6,261.2z M219.7,254.9
	c0.4-0.5,0.8-1.1,1.3-1.6l-1.1-0.8c-0.4,0.5-0.8,1.1-1.3,1.6L219.7,254.9z"/>
<path class="st3" d="M227.7,27.6l-2.7,7.5l7.8-1.4L227.7,27.6z M228,33.8c0.2,1.2,0.4,2.6,0.6,4.1l1.4-0.2c-0.2-1.6-0.4-2.9-0.6-4.1
	L228,33.8z M229.2,42c0.2,1.3,0.4,2.7,0.5,4.1l1.4-0.2c-0.2-1.5-0.4-2.8-0.5-4.1L229.2,42z M230.3,50.2c0.2,1.3,0.3,2.7,0.5,4.1
	l1.4-0.2c-0.2-1.4-0.3-2.8-0.5-4.1L230.3,50.2z M231.2,58.4c0.1,1.3,0.3,2.7,0.4,4.1l1.4-0.1c-0.1-1.4-0.3-2.8-0.4-4.1L231.2,58.4z
	 M232,66.7c0.1,1.3,0.3,2.7,0.4,4.1l1.4-0.1c-0.1-1.4-0.3-2.8-0.4-4.1L232,66.7z M232.8,74.9c0.1,1.4,0.2,2.7,0.3,4.1l1.4-0.1
	c-0.1-1.4-0.2-2.8-0.3-4.2L232.8,74.9z M233.4,83.2c0.1,1.3,0.2,2.7,0.3,4.1l1.4-0.1c-0.1-1.4-0.2-2.8-0.3-4.1L233.4,83.2z
	 M234,91.4c0.1,1.4,0.2,2.7,0.3,4.1l1.4-0.1c-0.1-1.4-0.2-2.8-0.3-4.1L234,91.4z M234.6,99.7c0.1,1.4,0.2,2.8,0.2,4.2l1.4-0.1
	c-0.1-1.4-0.2-2.8-0.2-4.2L234.6,99.7z M235.1,107.9c0.1,1.4,0.1,2.8,0.2,4.2l1.4-0.1c-0.1-1.4-0.1-2.8-0.2-4.2L235.1,107.9z
	 M235.5,116.2c0.1,1.4,0.1,2.7,0.2,4.1l1.4-0.1c-0.1-1.4-0.1-2.8-0.2-4.2L235.5,116.2z M235.8,124.5c0.1,1.4,0.1,2.7,0.2,4.1
	l1.4-0.1c-0.1-1.4-0.1-2.8-0.2-4.1L235.8,124.5z M236.2,132.7c0,1.4,0.1,2.7,0.1,4.1l1.4,0c0-1.4-0.1-2.8-0.1-4.1L236.2,132.7z
	 M236.4,141c0,1.4,0.1,2.8,0.1,4.2l1.4,0c0-1.4-0.1-2.8-0.1-4.2L236.4,141z M236.7,149.3c0,1.4,0.1,2.8,0.1,4.2l1.4,0
	c0-1.4-0.1-2.8-0.1-4.2L236.7,149.3z M236.9,157.5c0,1.4,0.1,2.8,0.1,4.2l1.4,0c0-1.4,0-2.8-0.1-4.2L236.9,157.5z M237,165.8
	c0,1.4,0,2.8,0.1,4.1l1.4,0c0-1.4,0-2.8-0.1-4.2L237,165.8z M237.1,174.1c0,1.4,0,2.7,0,4.1l1.4,0c0-1.4,0-2.8,0-4.1L237.1,174.1z
	 M237.2,182.4c0,1.4,0,2.7,0,4.1l1.4,0c0-1.4,0-2.7,0-4.1L237.2,182.4z M237.2,190.7c0,0.7,0,1.4,0,2.1h1.4c0-0.7,0-1.4,0-2.1
	L237.2,190.7z"/>
<path class="st4" d="M249.3,270.2l-2.7,7.5l7.8-1.4L249.3,270.2z M249.3,457.6c0.7,0.1,0.7,0.1,0.7,0.1v0c0,0,0,0,0,0c0,0,0,0,0,0
	c0,0,0-0.1,0-0.1c0-0.1,0-0.2,0-0.4c0-0.3,0.1-0.8,0.1-1.5l-1.4-0.1c-0.1,0.6-0.1,1.1-0.1,1.5c0,0.2,0,0.3,0,0.4c0,0,0,0.1,0,0.1
	c0,0,0,0,0,0c0,0,0,0,0,0c0,0,0,0,0,0c0,0,0,0,0,0S248.6,457.5,249.3,457.6z M250.5,451.6c0.1-1.2,0.2-2.5,0.3-4.1l-1.4-0.1
	c-0.1,1.5-0.2,2.9-0.3,4L250.5,451.6z M251.2,443.5c0.1-1.3,0.2-2.6,0.3-4.1l-1.4-0.1c-0.1,1.4-0.2,2.8-0.3,4.1L251.2,443.5z
	 M251.8,435.3c0.1-1.3,0.2-2.7,0.3-4.1l-1.4-0.1c-0.1,1.4-0.2,2.8-0.3,4.1L251.8,435.3z M252.4,427.1c0.1-1.3,0.2-2.7,0.3-4
	l-1.4-0.1c-0.1,1.4-0.2,2.7-0.3,4L252.4,427.1z M252.9,419c0.1-1.3,0.2-2.7,0.2-4.1l-1.4-0.1c-0.1,1.4-0.2,2.8-0.2,4.1L252.9,419z
	 M253.4,410.8c0.1-1.3,0.1-2.7,0.2-4.1l-1.4-0.1c-0.1,1.4-0.1,2.7-0.2,4.1L253.4,410.8z M253.8,402.7c0.1-1.3,0.1-2.7,0.2-4.1
	l-1.4-0.1c-0.1,1.4-0.1,2.7-0.2,4.1L253.8,402.7z M254.2,394.5c0.1-1.3,0.1-2.7,0.2-4.1l-1.4-0.1c-0.1,1.4-0.1,2.7-0.2,4.1
	L254.2,394.5z M254.6,386.3c0.1-1.4,0.1-2.7,0.1-4.1l-1.4,0c0,1.4-0.1,2.7-0.1,4.1L254.6,386.3z M254.8,378.2c0-1.4,0.1-2.7,0.1-4.1
	l-1.4,0c0,1.4-0.1,2.7-0.1,4.1L254.8,378.2z M255.1,370c0-1.4,0.1-2.7,0.1-4.1l-1.4,0c0,1.4-0.1,2.7-0.1,4.1L255.1,370z
	 M255.2,361.8c0-1.4,0-2.7,0.1-4.1l-1.4,0c0,1.4,0,2.7-0.1,4.1L255.2,361.8z M255.3,353.7c0-1.4,0-2.7,0-4.1l-1.4,0
	c0,1.4,0,2.7,0,4.1L255.3,353.7z M255.3,345.5c0-1.4,0-2.7,0-4.1l-1.4,0c0,1.4,0,2.7,0,4.1L255.3,345.5z M255.3,337.3
	c0-1.4,0-2.7-0.1-4.1l-1.4,0c0,1.4,0,2.7,0.1,4.1L255.3,337.3z M255.1,329.1c0-1.4-0.1-2.7-0.1-4.1l-1.4,0c0,1.4,0.1,2.7,0.1,4.1
	L255.1,329.1z M254.9,321c-0.1-1.4-0.1-2.7-0.2-4.1l-1.4,0.1c0.1,1.4,0.1,2.7,0.2,4.1L254.9,321z M254.5,312.8
	c-0.1-1.4-0.1-2.7-0.2-4.1l-1.4,0.1c0.1,1.4,0.2,2.7,0.2,4.1L254.5,312.8z M254.1,304.6c-0.1-1.4-0.2-2.7-0.3-4.1l-1.4,0.1
	c0.1,1.4,0.2,2.7,0.3,4.1L254.1,304.6z M253.4,296.5c-0.1-1.4-0.2-2.7-0.4-4.1l-1.4,0.1c0.1,1.3,0.3,2.7,0.4,4.1L253.4,296.5z
	 M252.6,288.3c-0.2-1.4-0.3-2.7-0.5-4.1l-1.4,0.2c0.2,1.3,0.3,2.7,0.5,4L252.6,288.3z M251.6,280.2c-0.2-1.4-0.4-2.7-0.6-4l-1.4,0.2
	c0.2,1.3,0.4,2.6,0.6,4L251.6,280.2z"/>
<path class="st0" d="M281.1,348.3c9,28.2,9,68.5,9,68.5"/>
<path class="st0" d="M129.8,399.3c-14.4,17.4-30,24.6-30,24.6"/>
<path class="st0" d="M349.6,348.3c11.4,10.8,27.6,15,27.6,15"/>
<path class="st0" d="M273.3,300.3c10.2,15.6,26.4,31.8,26.4,31.8"/>
<path class="st0" d="M285.9,135.7c-3,15-19.8,39-19.8,39"/>
<path class="st0" d="M304,136.3c-1.2,7.8-8.4,18-8.4,18"/>
<path class="st0" d="M193.4,80.5c5.4,3,10.2,15,10.2,15"/>
<path class="st0" d="M94.9,53.4c0,7.8,9,20.4,9,20.4"/>
<path class="st0" d="M26.4,174.2c7.2,10.8,21,15.6,21,15.6"/>
<path class="st0" d="M319.6,54.6c-2.4,10.8-6.6,21-6.6,21"/>
<path class="st0" d="M271.5,28.8c6,6.6,7.2,17.4,7.2,17.4"/>
<path class="st4" d="M200,212.6l-5.2-6l-2.6,7.5L200,212.6z M63.1,102.1c-0.7,0.2-0.7,0.2-0.7,0.2c0,0,0,0,0,0l0,0c0,0,0,0,0,0
	c0,0,0,0,0,0c0,0,0,0,0,0c0,0,0,0.1,0,0.1c0,0.1,0.1,0.2,0.1,0.4c0.1,0.3,0.3,0.8,0.6,1.4l1.3-0.5c-0.3-0.6-0.4-1.1-0.6-1.4
	c-0.1-0.2-0.1-0.3-0.1-0.4c0,0,0-0.1,0-0.1c0,0,0,0,0,0c0,0,0,0,0,0c0,0,0,0,0,0l0,0l0,0C63.7,101.9,63.7,101.9,63.1,102.1z
	 M64.9,108c0.5,1.1,1.2,2.4,1.9,3.7l1.2-0.6c-0.7-1.4-1.3-2.6-1.9-3.7L64.9,108z M68.7,115.3c0.6,1.1,1.3,2.3,2.1,3.6l1.2-0.7
	c-0.8-1.2-1.4-2.4-2.1-3.5L68.7,115.3z M73.1,122.4c0.7,1.1,1.5,2.3,2.3,3.4l1.1-0.8c-0.8-1.2-1.6-2.3-2.3-3.4L73.1,122.4z
	 M77.7,129.2c0.8,1.1,1.6,2.2,2.5,3.3l1.1-0.8c-0.9-1.1-1.7-2.2-2.4-3.3L77.7,129.2z M82.7,135.8c0.8,1.1,1.7,2.1,2.6,3.2l1.1-0.9
	c-0.9-1.1-1.8-2.1-2.6-3.2L82.7,135.8z M88,142.1c0.9,1,1.8,2,2.7,3.1l1-0.9c-0.9-1-1.8-2-2.7-3.1L88,142.1z M93.6,148.2
	c0.9,1,1.9,2,2.9,3l1-1c-1-1-1.9-2-2.8-2.9L93.6,148.2z M99.4,154.1c1,1,2,1.9,3,2.9l0.9-1c-1-1-2-1.9-3-2.8L99.4,154.1z
	 M105.4,159.7c1,0.9,2,1.8,3.1,2.7l0.9-1c-1-0.9-2.1-1.8-3.1-2.7L105.4,159.7z M111.6,165.1c1,0.9,2.1,1.7,3.2,2.6l0.9-1.1
	c-1.1-0.9-2.1-1.7-3.2-2.6L111.6,165.1z M118.1,170.3c1.1,0.8,2.2,1.7,3.3,2.5l0.8-1.1c-1.1-0.8-2.2-1.6-3.2-2.5L118.1,170.3z
	 M124.7,175.2c1.1,0.8,2.2,1.6,3.3,2.4l0.8-1.1c-1.1-0.8-2.2-1.6-3.3-2.3L124.7,175.2z M131.5,179.9c1.1,0.8,2.3,1.5,3.4,2.2
	l0.7-1.2c-1.1-0.7-2.3-1.5-3.4-2.2L131.5,179.9z M138.4,184.4c1.1,0.7,2.3,1.4,3.5,2.1l0.7-1.2c-1.2-0.7-2.3-1.4-3.5-2.1
	L138.4,184.4z M145.5,188.6c1.2,0.7,2.3,1.4,3.5,2l0.7-1.2c-1.2-0.7-2.4-1.3-3.5-2L145.5,188.6z M152.6,192.7
	c1.2,0.6,2.4,1.3,3.6,1.9l0.6-1.2c-1.2-0.6-2.4-1.3-3.6-1.9L152.6,192.7z M159.9,196.5c1.2,0.6,2.4,1.2,3.7,1.8l0.6-1.2
	c-1.2-0.6-2.5-1.2-3.7-1.8L159.9,196.5z M167.3,200.1c1.2,0.6,2.5,1.2,3.8,1.7l0.6-1.3c-1.3-0.6-2.5-1.2-3.8-1.7L167.3,200.1z
	 M174.8,203.5c1.3,0.6,2.5,1.1,3.8,1.6l0.5-1.3c-1.3-0.5-2.5-1.1-3.8-1.6L174.8,203.5z M182.4,206.7c1.3,0.5,2.5,1,3.8,1.5l0.5-1.3
	c-1.3-0.5-2.5-1-3.8-1.5L182.4,206.7z M190.1,209.7c1.3,0.5,2.5,1,3.8,1.4l0.5-1.3c-1.3-0.5-2.6-0.9-3.8-1.4L190.1,209.7z"/>
<path class="st4" d="M425.9,319.5l-6.8-4.1l-0.2,8L425.9,319.5z M266.2,253.3c0.5,0.5,1,1,1.5,1.5l1-1c-0.5-0.5-1-1-1.5-1.5
	L266.2,253.3z M270.8,257.7c1,1,2.1,1.9,3.1,2.9l0.9-1c-1-0.9-2.1-1.9-3.1-2.8L270.8,257.7z M277,263.4c1.1,0.9,2.1,1.8,3.2,2.7
	l0.9-1.1c-1.1-0.9-2.1-1.8-3.2-2.7L277,263.4z M283.5,268.8c1.1,0.9,2.2,1.7,3.3,2.6l0.8-1.1c-1.1-0.8-2.2-1.7-3.3-2.6L283.5,268.8z
	 M290.2,274c1.1,0.8,2.3,1.7,3.4,2.5l0.8-1.1c-1.1-0.8-2.3-1.6-3.4-2.5L290.2,274z M297.1,278.8c1.2,0.8,2.3,1.6,3.5,2.3l0.8-1.2
	c-1.2-0.8-2.3-1.5-3.5-2.3L297.1,278.8z M304.1,283.4c1.2,0.7,2.4,1.5,3.6,2.2l0.7-1.2c-1.2-0.7-2.4-1.4-3.6-2.2L304.1,283.4z
	 M311.4,287.7c1.2,0.7,2.5,1.4,3.7,2.1l0.7-1.2c-1.2-0.7-2.4-1.4-3.7-2L311.4,287.7z M318.8,291.8c1.3,0.7,2.5,1.3,3.8,1.9l0.6-1.2
	c-1.2-0.6-2.5-1.3-3.7-1.9L318.8,291.8z M326.3,295.5c1.3,0.6,2.6,1.2,3.8,1.8l0.6-1.3c-1.3-0.6-2.5-1.2-3.8-1.8L326.3,295.5z
	 M334,299c1.3,0.6,2.6,1.1,3.9,1.6l0.5-1.3c-1.3-0.5-2.6-1.1-3.9-1.6L334,299z M341.8,302.3c1.3,0.5,2.6,1,3.9,1.5l0.5-1.3
	c-1.3-0.5-2.6-1-3.9-1.5L341.8,302.3z M349.7,305.2c1.3,0.5,2.7,0.9,4,1.4l0.4-1.3c-1.3-0.4-2.6-0.9-4-1.4L349.7,305.2z
	 M357.7,307.9c1.4,0.4,2.7,0.9,4,1.3l0.4-1.3c-1.3-0.4-2.7-0.8-4-1.3L357.7,307.9z M365.7,310.4c1.4,0.4,2.7,0.8,4.1,1.1l0.4-1.3
	c-1.3-0.4-2.7-0.7-4-1.1L365.7,310.4z M373.9,312.6c1.4,0.3,2.7,0.7,4.1,1l0.3-1.3c-1.3-0.3-2.7-0.6-4.1-1L373.9,312.6z
	 M382.1,314.5c1.4,0.3,2.8,0.6,4.1,0.9l0.3-1.4c-1.4-0.3-2.7-0.6-4.1-0.9L382.1,314.5z M390.4,316.2c1.4,0.3,2.8,0.5,4.1,0.7
	l0.2-1.4c-1.3-0.2-2.7-0.5-4.1-0.7L390.4,316.2z M398.7,317.6c1.4,0.2,2.8,0.4,4.2,0.6l0.2-1.4c-1.3-0.2-2.7-0.4-4.1-0.6
	L398.7,317.6z M407,318.8c1.5,0.2,2.9,0.3,4.2,0.5l0.1-1.4c-1.3-0.1-2.7-0.3-4.2-0.5L407,318.8z M415.4,319.6
	c1.5,0.1,2.9,0.2,4.2,0.3l0.1-1.4c-1.2-0.1-2.6-0.2-4.1-0.3L415.4,319.6z"/>
<linearGradient id="SVGID_2_" gradientUnits="userSpaceOnUse" x1="231.9545" y1="299.384" x2="231.9545" y2="163.113" gradientTransform="matrix(1 0 0 -1 0 462)">
	<stop  offset="0" style="stop-color:#2C2F36"/>
	<stop  offset="0.7231" style="stop-color:#2F333A"/>
	<stop  offset="1" style="stop-color:#444A53"/>
</linearGradient>
<path class="st5" d="M299.6,230.8c0,37.4-30.3,67.6-67.6,67.6s-67.6-30.3-67.6-67.6c0-37.4,30.3-67.6,67.6-67.6
	S299.6,193.4,299.6,230.8z"/>
<linearGradient id="SVGID_3_" gradientUnits="userSpaceOnUse" x1="275.5224" y1="302.9284" x2="188.3784" y2="159.5544" gradientTransform="matrix(1 0 0 -1 0 462)">
	<stop  offset="0.6705" style="stop-color:#3B4148"/>
	<stop  offset="0.9258" style="stop-color:#6D727C"/>
	<stop  offset="1" style="stop-color:#32353A"/>
</linearGradient>
<path class="st6" d="M299.6,230.8c0,37.4-30.3,67.6-67.6,67.6s-67.6-30.3-67.6-67.6c0-37.4,30.3-67.6,67.6-67.6
	S299.6,193.4,299.6,230.8z"/>
<linearGradient id="SVGID_4_" gradientUnits="userSpaceOnUse" x1="179.8077" y1="321.3878" x2="220.1087" y2="251.7248" gradientTransform="matrix(1 0 0 -1 0 462)">
	<stop  offset="0" style="stop-color:#FFFFFF;stop-opacity:0.4"/>
	<stop  offset="1" style="stop-color:#FFFFFF;stop-opacity:0"/>
</linearGradient>
<path class="st7" d="M299.6,230.8c0,37.4-30.3,67.6-67.6,67.6s-67.6-30.3-67.6-67.6c0-37.4,30.3-67.6,67.6-67.6
	S299.6,193.4,299.6,230.8z"/>
</svg>
