<svg width="149" height="44" viewBox="0 0 149 44" fill="none" xmlns="http://www.w3.org/2000/svg">
<path d="M144.552 0H4.44776C1.99133 0 0 1.96995 0 4.4V39.6C0 42.0301 1.99133 44 4.44776 44H144.552C147.009 44 149 42.0301 149 39.6V4.4C149 1.96995 147.009 0 144.552 0Z" fill="#2B2F36"/>
<path fill-rule="evenodd" clip-rule="evenodd" d="M17.1127 32.2791L27.5177 22.0099L17.1127 11.7211C16.8564 12.1302 16.6792 12.7928 16.6792 13.7474V30.2523C16.6792 31.207 16.8564 31.8696 17.1127 32.2791Z" fill="#01D1FF"/>
<path fill-rule="evenodd" clip-rule="evenodd" d="M31.9121 26.3548L28.5025 22.9646L18.3735 33H18.4723C19.3391 33 20.088 32.6878 21.29 32.0448L31.9121 26.3548Z" fill="#F5364A"/>
<path fill-rule="evenodd" clip-rule="evenodd" d="M33.1921 18.3267L29.4873 22.0099L33.1921 25.6732L35.4386 24.4649C36.2661 24.0165 37.5275 23.1981 37.5275 22.0099C37.5275 20.8016 36.2661 19.9831 35.4386 19.5348L33.1921 18.3267Z" fill="#F2C103"/>
<path fill-rule="evenodd" clip-rule="evenodd" d="M18.3735 11L28.5025 21.0352L31.9121 17.6448L21.29 11.9546C20.088 11.3117 19.3393 11 18.4723 11H18.3735Z" fill="#01ED75"/>
<path d="M48.6419 14.5838V15.4H49.4125V12.5356H47.4432V13.2825H48.564V13.6983C48.564 14.3682 47.9647 14.7147 47.2798 14.7147C46.4236 14.7147 45.8476 14.1372 45.8476 13.1516V12.2738C45.8476 11.2882 46.4236 10.7107 47.2798 10.7107C47.9414 10.7107 48.3772 11.0572 48.5874 11.5577L49.3035 11.1419C48.9299 10.3873 48.2527 9.93298 47.2798 9.93298C45.8554 9.93298 44.9058 10.9186 44.9058 12.7127C44.9058 14.5145 45.8554 15.4924 47.1474 15.4924C47.9725 15.4924 48.5018 15.0997 48.6107 14.5838H48.6419ZM50.635 15.4H54.1143V14.63H51.5146V13.0592H53.873V12.2892H51.5146V10.7954H54.1143V10.0254H50.635V15.4ZM56.3854 10.7954V15.4H57.265V10.7954H58.884V10.0254H54.7664V10.7954H56.3854ZM61.3472 15.4H63.7135V14.6916H62.9662V10.7338H63.7135V10.0254H61.3472V10.7338H62.0867V14.6916H61.3472V15.4ZM65.9096 10.7954V15.4H66.7892V10.7954H68.4082V10.0254H64.2907V10.7954H65.9096ZM73.2065 15.4924C74.6231 15.4924 75.5494 14.5222 75.5494 12.7127C75.5494 10.9032 74.6231 9.93298 73.2065 9.93298C71.7899 9.93298 70.8637 10.9032 70.8637 12.7127C70.8637 14.5222 71.7899 15.4924 73.2065 15.4924ZM73.2065 14.7147C72.3659 14.7147 71.8055 14.1141 71.8055 13.1362V12.2892C71.8055 11.3113 72.3659 10.7107 73.2065 10.7107C74.0472 10.7107 74.6076 11.3113 74.6076 12.2892V13.1362C74.6076 14.1141 74.0472 14.7147 73.2065 14.7147ZM78.1095 12.4278L79.8842 15.4H80.8649V10.0254H80.0243V14.1372H80.0009L79.4016 12.9976L77.6269 10.0254H76.6462V15.4H77.4868V11.2882H77.5102L78.1095 12.4278Z" fill="white"/>
<path d="M52.8062 30.2675V31.8999H54.3474V26.1711H50.4089V27.6649H52.6505V28.4965C52.6505 29.8363 51.4519 30.5293 50.082 30.5293C48.3696 30.5293 47.2176 29.3743 47.2176 27.4031V25.6475C47.2176 23.6763 48.3696 22.5213 50.082 22.5213C51.4052 22.5213 52.2769 23.2143 52.6973 24.2153L54.1294 23.3837C53.3822 21.8745 52.0279 20.9659 50.082 20.9659C47.2332 20.9659 45.334 22.9371 45.334 26.5253C45.334 30.1289 47.2332 32.0847 49.8173 32.0847C51.4674 32.0847 52.526 31.2993 52.744 30.2675H52.8062ZM59.8438 32.0847C62.101 32.0847 63.5644 30.4523 63.5644 27.8959C63.5644 25.3395 62.101 23.7071 59.8438 23.7071C57.5866 23.7071 56.1233 25.3395 56.1233 27.8959C56.1233 30.4523 57.5866 32.0847 59.8438 32.0847ZM59.8438 30.6987C58.6918 30.6987 57.9135 29.9903 57.9135 28.5735V27.2183C57.9135 25.8015 58.6918 25.0931 59.8438 25.0931C60.9958 25.0931 61.7741 25.8015 61.7741 27.2183V28.5735C61.7741 29.9903 60.9958 30.6987 59.8438 30.6987ZM68.6307 32.0847C70.8879 32.0847 72.3512 30.4523 72.3512 27.8959C72.3512 25.3395 70.8879 23.7071 68.6307 23.7071C66.3735 23.7071 64.9101 25.3395 64.9101 27.8959C64.9101 30.4523 66.3735 32.0847 68.6307 32.0847ZM68.6307 30.6987C67.4787 30.6987 66.7004 29.9903 66.7004 28.5735V27.2183C66.7004 25.8015 67.4787 25.0931 68.6307 25.0931C69.7827 25.0931 70.561 25.8015 70.561 27.2183V28.5735C70.561 29.9903 69.7827 30.6987 68.6307 30.6987ZM81.3406 32.6545C81.3406 31.2685 80.5 30.4369 78.5074 30.4369H76.5148C75.7987 30.4369 75.3784 30.2675 75.3784 29.8363C75.3784 29.4359 75.752 29.1741 76.1567 29.0355C76.4525 29.1125 76.8261 29.1587 77.2153 29.1587C79.2702 29.1587 80.4533 28.0653 80.4533 26.4483C80.4533 25.5243 80.0485 24.7543 79.3169 24.2769V23.9535H80.967V22.5983H79.7216C79.0055 22.5983 78.6631 23.0295 78.6631 23.7379V23.9535C78.2427 23.7841 77.7446 23.7071 77.1998 23.7071C75.1449 23.7071 73.9773 24.8159 73.9773 26.4483C73.9773 27.5263 74.5066 28.3733 75.4562 28.8199V28.8815C74.6779 29.0663 74.024 29.4667 74.024 30.2983C74.024 30.8989 74.351 31.3455 74.9425 31.5303V31.6997C74.0863 31.8845 73.557 32.3619 73.557 33.2397C73.557 34.4563 74.5845 35.1647 77.2309 35.1647C80.1419 35.1647 81.3406 34.3177 81.3406 32.6545ZM77.2153 27.9421C76.219 27.9421 75.643 27.4955 75.643 26.5869V26.2789C75.643 25.3703 76.219 24.9237 77.2153 24.9237C78.2116 24.9237 78.7876 25.3703 78.7876 26.2789V26.5869C78.7876 27.4955 78.2116 27.9421 77.2153 27.9421ZM79.7528 32.8393C79.7528 33.5785 79.0989 33.9481 77.7757 33.9481H76.7172C75.4562 33.9481 74.9736 33.5015 74.9736 32.8547C74.9736 32.4697 75.1605 32.1463 75.5341 31.9307H78.2739C79.3792 31.9307 79.7528 32.2849 79.7528 32.8393ZM84.3312 31.8999H85.4209V30.5293H84.3V20.5039H82.6032V30.2367C82.6032 31.2685 83.1792 31.8999 84.3312 31.8999ZM90.218 32.0847C91.728 32.0847 92.9111 31.4379 93.5183 30.4677L92.5219 29.4975C92.0549 30.2367 91.3855 30.6987 90.3892 30.6987C89.0193 30.6987 88.2565 29.8209 88.2565 28.5889V28.3271H93.814V27.6957C93.814 25.4781 92.5998 23.7071 90.218 23.7071C87.9141 23.7071 86.4975 25.3395 86.4975 27.8959C86.4975 30.4523 87.9141 32.0847 90.218 32.0847ZM90.218 25.0161C91.3388 25.0161 92.0238 25.8323 92.0238 27.0643V27.2183H88.2565V27.1105C88.2565 25.8785 89.0505 25.0161 90.218 25.0161ZM99.4959 31.8999H101.255V27.6187H104.166C106.159 27.6187 107.326 26.3405 107.326 24.3847C107.326 22.4289 106.159 21.1507 104.166 21.1507H99.4959V31.8999ZM101.255 26.0941V22.6753H104.057C104.944 22.6753 105.474 23.1527 105.474 24.0151V24.7543C105.474 25.6167 104.944 26.0941 104.057 26.0941H101.255ZM110.859 31.8999H111.949V30.5293H110.828V20.5039H109.131V30.2367C109.131 31.2685 109.707 31.8999 110.859 31.8999ZM119.502 31.8999H120.451V30.5293H119.595V26.5099C119.595 24.7235 118.427 23.7071 116.341 23.7071C114.769 23.7071 113.82 24.3693 113.29 25.2625L114.302 26.1711C114.707 25.5397 115.283 25.0777 116.232 25.0777C117.369 25.0777 117.898 25.6475 117.898 26.6177V27.2953H116.435C114.178 27.2953 112.979 28.1115 112.979 29.6977C112.979 31.1453 113.928 32.0847 115.594 32.0847C116.777 32.0847 117.649 31.5611 117.96 30.5601H118.038C118.147 31.3455 118.614 31.8999 119.502 31.8999ZM116.077 30.8065C115.236 30.8065 114.707 30.4369 114.707 29.7285V29.4513C114.707 28.7583 115.283 28.3733 116.466 28.3733H117.898V29.5283C117.898 30.3137 117.12 30.8065 116.077 30.8065ZM126.974 23.8919L125.355 28.6043L124.841 30.3445H124.763L124.296 28.6043L122.677 23.8919H120.98L123.923 32.2541L123.456 33.6093H122.086V34.9799H123.066C124.327 34.9799 124.81 34.5641 125.199 33.4861L128.608 23.8919H126.974Z" fill="white"/>
</svg>
