<svg width="149" height="44" viewBox="0 0 149 44" fill="none" xmlns="http://www.w3.org/2000/svg">
<g opacity="0.5">
<path d="M144.552 0H4.44776C1.99133 0 0 1.96995 0 4.4V39.6C0 42.0301 1.99133 44 4.44776 44H144.552C147.009 44 149 42.0301 149 39.6V4.4C149 1.96995 147.009 0 144.552 0Z" fill="#2B2F36"/>
<path fill-rule="evenodd" clip-rule="evenodd" d="M17.1132 32.2792L27.5182 22.01L17.1132 11.7212C16.8569 12.1303 16.6797 12.7929 16.6797 13.7475V30.2525C16.6797 31.2071 16.8569 31.8697 17.1132 32.2792Z" fill="#01D1FF"/>
<path fill-rule="evenodd" clip-rule="evenodd" d="M31.9116 26.3546L28.502 22.9644L18.373 32.9998H18.4718C19.3387 32.9998 20.0875 32.6876 21.2896 32.0445L31.9116 26.3546Z" fill="#F5364A"/>
<path fill-rule="evenodd" clip-rule="evenodd" d="M33.193 18.3267L29.4883 22.0099L33.193 25.6732L35.4396 24.4649C36.2671 24.0165 37.5285 23.1981 37.5285 22.0099C37.5285 20.8016 36.2671 19.9831 35.4396 19.5348L33.193 18.3267Z" fill="#F2C103"/>
<path fill-rule="evenodd" clip-rule="evenodd" d="M18.373 11L28.502 21.0352L31.9116 17.6448L21.2896 11.9546C20.0875 11.3117 19.3388 11 18.4718 11H18.373Z" fill="#01ED75"/>
<path d="M48.6424 14.5839V15.4001H49.4129V12.5357H47.4437V13.2826H48.5645V13.6984C48.5645 14.3683 47.9652 14.7148 47.2802 14.7148C46.4241 14.7148 45.8481 14.1373 45.8481 13.1517V12.2739C45.8481 11.2883 46.4241 10.7108 47.2802 10.7108C47.9418 10.7108 48.3777 11.0573 48.5879 11.5578L49.304 11.142C48.9304 10.3874 48.2532 9.93311 47.2802 9.93311C45.8558 9.93311 44.9062 10.9187 44.9062 12.7128C44.9062 14.5146 45.8559 15.4925 47.1479 15.4925C47.973 15.4925 48.5023 15.0998 48.6112 14.5839H48.6424ZM50.6355 15.4001H54.1148V14.6301H51.5151V13.0593H53.8735V12.2893H51.5151V10.7955H54.1148V10.0255H50.6355V15.4001ZM56.3859 10.7955V15.4001H57.2655V10.7955H58.8845V10.0255H54.7669V10.7955H56.3859ZM61.3477 15.4001H63.7139V14.6917H62.9667V10.7339H63.7139V10.0255H61.3477V10.7339H62.0872V14.6917H61.3477V15.4001ZM65.9101 10.7955V15.4001H66.7897V10.7955H68.4087V10.0255H64.2912V10.7955H65.9101ZM73.207 15.4925C74.6236 15.4925 75.5499 14.5223 75.5499 12.7128C75.5499 10.9033 74.6236 9.93311 73.207 9.93311C71.7904 9.93311 70.8642 10.9033 70.8642 12.7128C70.8642 14.5223 71.7904 15.4925 73.207 15.4925ZM73.207 14.7148C72.3664 14.7148 71.806 14.1142 71.806 13.1363V12.2893C71.806 11.3114 72.3664 10.7108 73.207 10.7108C74.0477 10.7108 74.6081 11.3114 74.6081 12.2893V13.1363C74.6081 14.1142 74.0477 14.7148 73.207 14.7148ZM78.11 12.4279L79.8847 15.4001H80.8654V10.0255H80.0248V14.1373H80.0014L79.4021 12.9977L77.6274 10.0255H76.6467V15.4001H77.4873V11.2883H77.5107L78.11 12.4279Z" fill="white"/>
<path d="M52.8062 30.2675V31.8999H54.3474V26.1711H50.4089V27.6649H52.6505V28.4965C52.6505 29.8363 51.4519 30.5293 50.082 30.5293C48.3696 30.5293 47.2176 29.3743 47.2176 27.4031V25.6475C47.2176 23.6763 48.3696 22.5213 50.082 22.5213C51.4052 22.5213 52.2769 23.2143 52.6973 24.2153L54.1294 23.3837C53.3822 21.8745 52.0279 20.9659 50.082 20.9659C47.2332 20.9659 45.334 22.9371 45.334 26.5253C45.334 30.1289 47.2332 32.0847 49.8173 32.0847C51.4674 32.0847 52.526 31.2993 52.744 30.2675H52.8062ZM59.8438 32.0847C62.101 32.0847 63.5644 30.4523 63.5644 27.8959C63.5644 25.3395 62.101 23.7071 59.8438 23.7071C57.5866 23.7071 56.1233 25.3395 56.1233 27.8959C56.1233 30.4523 57.5866 32.0847 59.8438 32.0847ZM59.8438 30.6987C58.6918 30.6987 57.9135 29.9903 57.9135 28.5735V27.2183C57.9135 25.8015 58.6918 25.0931 59.8438 25.0931C60.9958 25.0931 61.7741 25.8015 61.7741 27.2183V28.5735C61.7741 29.9903 60.9958 30.6987 59.8438 30.6987ZM68.6307 32.0847C70.8879 32.0847 72.3512 30.4523 72.3512 27.8959C72.3512 25.3395 70.8879 23.7071 68.6307 23.7071C66.3735 23.7071 64.9101 25.3395 64.9101 27.8959C64.9101 30.4523 66.3735 32.0847 68.6307 32.0847ZM68.6307 30.6987C67.4787 30.6987 66.7004 29.9903 66.7004 28.5735V27.2183C66.7004 25.8015 67.4787 25.0931 68.6307 25.0931C69.7827 25.0931 70.561 25.8015 70.561 27.2183V28.5735C70.561 29.9903 69.7827 30.6987 68.6307 30.6987ZM81.3406 32.6545C81.3406 31.2685 80.5 30.4369 78.5074 30.4369H76.5148C75.7987 30.4369 75.3784 30.2675 75.3784 29.8363C75.3784 29.4359 75.752 29.1741 76.1567 29.0355C76.4525 29.1125 76.8261 29.1587 77.2153 29.1587C79.2702 29.1587 80.4533 28.0653 80.4533 26.4483C80.4533 25.5243 80.0485 24.7543 79.3169 24.2769V23.9535H80.967V22.5983H79.7216C79.0055 22.5983 78.6631 23.0295 78.6631 23.7379V23.9535C78.2427 23.7841 77.7446 23.7071 77.1998 23.7071C75.1449 23.7071 73.9773 24.8159 73.9773 26.4483C73.9773 27.5263 74.5066 28.3733 75.4562 28.8199V28.8815C74.6779 29.0663 74.024 29.4667 74.024 30.2983C74.024 30.8989 74.351 31.3455 74.9425 31.5303V31.6997C74.0863 31.8845 73.557 32.3619 73.557 33.2397C73.557 34.4563 74.5845 35.1647 77.2309 35.1647C80.1419 35.1647 81.3406 34.3177 81.3406 32.6545ZM77.2153 27.9421C76.219 27.9421 75.643 27.4955 75.643 26.5869V26.2789C75.643 25.3703 76.219 24.9237 77.2153 24.9237C78.2116 24.9237 78.7876 25.3703 78.7876 26.2789V26.5869C78.7876 27.4955 78.2116 27.9421 77.2153 27.9421ZM79.7528 32.8393C79.7528 33.5785 79.0989 33.9481 77.7757 33.9481H76.7172C75.4562 33.9481 74.9736 33.5015 74.9736 32.8547C74.9736 32.4697 75.1605 32.1463 75.5341 31.9307H78.2739C79.3792 31.9307 79.7528 32.2849 79.7528 32.8393ZM84.3312 31.8999H85.4209V30.5293H84.3V20.5039H82.6032V30.2367C82.6032 31.2685 83.1792 31.8999 84.3312 31.8999ZM90.218 32.0847C91.728 32.0847 92.9111 31.4379 93.5183 30.4677L92.5219 29.4975C92.0549 30.2367 91.3855 30.6987 90.3892 30.6987C89.0193 30.6987 88.2565 29.8209 88.2565 28.5889V28.3271H93.814V27.6957C93.814 25.4781 92.5998 23.7071 90.218 23.7071C87.9141 23.7071 86.4975 25.3395 86.4975 27.8959C86.4975 30.4523 87.9141 32.0847 90.218 32.0847ZM90.218 25.0161C91.3388 25.0161 92.0238 25.8323 92.0238 27.0643V27.2183H88.2565V27.1105C88.2565 25.8785 89.0505 25.0161 90.218 25.0161ZM99.4959 31.8999H101.255V27.6187H104.166C106.159 27.6187 107.326 26.3405 107.326 24.3847C107.326 22.4289 106.159 21.1507 104.166 21.1507H99.4959V31.8999ZM101.255 26.0941V22.6753H104.057C104.944 22.6753 105.474 23.1527 105.474 24.0151V24.7543C105.474 25.6167 104.944 26.0941 104.057 26.0941H101.255ZM110.859 31.8999H111.949V30.5293H110.828V20.5039H109.131V30.2367C109.131 31.2685 109.707 31.8999 110.859 31.8999ZM119.502 31.8999H120.451V30.5293H119.595V26.5099C119.595 24.7235 118.427 23.7071 116.341 23.7071C114.769 23.7071 113.82 24.3693 113.29 25.2625L114.302 26.1711C114.707 25.5397 115.283 25.0777 116.232 25.0777C117.369 25.0777 117.898 25.6475 117.898 26.6177V27.2953H116.435C114.178 27.2953 112.979 28.1115 112.979 29.6977C112.979 31.1453 113.928 32.0847 115.594 32.0847C116.777 32.0847 117.649 31.5611 117.96 30.5601H118.038C118.147 31.3455 118.614 31.8999 119.502 31.8999ZM116.077 30.8065C115.236 30.8065 114.707 30.4369 114.707 29.7285V29.4513C114.707 28.7583 115.283 28.3733 116.466 28.3733H117.898V29.5283C117.898 30.3137 117.12 30.8065 116.077 30.8065ZM126.974 23.8919L125.355 28.6043L124.841 30.3445H124.763L124.296 28.6043L122.677 23.8919H120.98L123.923 32.2541L123.456 33.6093H122.086V34.9799H123.066C124.327 34.9799 124.81 34.5641 125.199 33.4861L128.608 23.8919H126.974Z" fill="white"/>
</g>
</svg>
