<svg width="186" height="47" viewBox="0 0 186 47" fill="none" xmlns="http://www.w3.org/2000/svg">
<g clip-path="url(#clip0)">
<path d="M20.0575 14.4721C20.0575 7.72682 16.7805 1.91239 14.2813 0.0124964C14.2813 0.0124964 14.09 -0.102262 14.1155 0.178259C13.886 13.2735 7.24274 16.7545 3.58321 21.5106C-1.98896 28.3706 -0.943377 38.4311 5.90389 43.9905C7.4085 45.2146 9.12988 46.1582 10.9788 46.7575C15.4544 48.007 9.93319 44.5643 9.23189 37.2835C8.37757 28.4343 20.0575 21.7656 20.0575 14.4721Z" fill="#1C2143"/>
<path d="M24.4441 18.9612C24.4058 18.9102 24.3421 18.8974 24.2911 18.9229C24.2783 18.9357 24.2656 18.9484 24.2528 18.9612C23.4113 21.9959 21.9832 24.8521 20.045 27.3385C12.3562 38.2661 16.7553 43.5323 19.2162 46.2865C20.6316 47.9313 19.2162 46.2865 22.7992 44.6033C27.109 42.1934 29.978 37.8453 30.4881 32.9362C30.8833 27.5681 28.6264 22.3529 24.4441 18.9612Z" fill="#2AAAE0"/>
<path d="M157.666 18.0046C159.624 18.0046 161.211 16.4175 161.211 14.4598C161.211 12.5021 159.624 10.915 157.666 10.915C155.708 10.915 154.121 12.5021 154.121 14.4598C154.121 16.4175 155.708 18.0046 157.666 18.0046Z" fill="#2AAAE0"/>
<path d="M59.7134 10.9531V24.6476H46.1209V12.7383C46.1209 11.7564 45.3175 10.9531 44.3357 10.9531H39.7199V43.6848C39.7071 44.6666 40.4977 45.47 41.4795 45.4827H41.6198H46.2101V30.1943H59.7899V43.6976C59.7899 44.6794 60.5932 45.4827 61.575 45.4827H66.1653V12.7383C66.1653 11.7564 65.362 10.9531 64.3802 10.9531H64.3674H59.7134ZM86.6689 19.509V35.9195C86.6816 37.4114 85.9038 38.8012 84.6287 39.579C82.4228 41.0071 79.4773 40.3696 78.062 38.1637C77.5774 37.4113 77.3097 36.5315 77.3097 35.639V21.2941C77.3097 20.3123 76.5063 19.509 75.5245 19.509H70.9342V36.2C70.9597 41.5809 75.3078 45.929 80.6887 45.9545H83.2899C88.6707 45.929 93.0188 41.5809 93.0443 36.2V21.2941C93.0443 20.3123 92.241 19.509 91.2592 19.509H86.6689Z" fill="#1C2143"/>
<path d="M156.25 45.4823H160.84V22.2373C160.84 21.2555 160.037 20.4521 159.055 20.4521H154.49V43.6716C154.478 44.6662 155.268 45.4695 156.25 45.4823Z" fill="#2AAAE0"/>
<path d="M109.505 19.4961C103.104 19.2028 97.6849 24.1502 97.3917 30.5384C97.3917 30.6404 97.3789 30.7552 97.3789 30.8572V34.453C97.4809 40.8412 102.76 45.9416 109.148 45.8268C109.263 45.8268 109.39 45.8268 109.505 45.8141C115.893 46.1201 121.312 41.1855 121.618 34.81C121.618 34.6952 121.631 34.5677 121.631 34.453V30.8572C121.516 24.4562 116.225 19.3686 109.824 19.4833C109.709 19.4833 109.607 19.4961 109.505 19.4961ZM115.179 34.9758C115.179 38.1507 112.603 40.7137 109.441 40.7137C106.279 40.7137 103.703 38.138 103.703 34.9758V30.4874C103.703 27.3124 106.279 24.7495 109.441 24.7495C112.603 24.7495 115.179 27.3252 115.179 30.4874V34.9758Z" fill="#1C2143"/>
<path d="M138.068 19.4961C136.104 19.4961 134.153 19.9424 132.381 20.8094V12.7763C132.381 11.7945 131.577 10.9912 130.595 10.9912H125.941V34.555C126.043 40.9432 131.322 46.0436 137.711 45.9288C137.825 45.9288 137.953 45.9288 138.068 45.9161C144.456 46.2221 149.875 41.2875 150.181 34.912C150.181 34.7972 150.194 34.6697 150.194 34.555V30.9592C150.13 24.5582 144.889 19.4196 138.476 19.4833C138.335 19.4833 138.208 19.4833 138.068 19.4961ZM143.754 34.9757C143.754 38.1507 141.179 40.7137 138.017 40.7137C134.842 40.7137 132.279 38.138 132.279 34.9757V30.4874C132.279 27.3124 134.854 24.7495 138.017 24.7495C141.192 24.7495 143.754 27.3252 143.754 30.4874V34.9757Z" fill="#2AAAE0"/>
</g>
<defs>
<clipPath id="clip0">
<rect width="186" height="47" fill="white"/>
</clipPath>
</defs>
</svg>
