<?xml version="1.0" encoding="utf-8"?>
<!-- Generator: Adobe Illustrator 25.0.1, SVG Export Plug-In . SVG Version: 6.00 Build 0)  -->
<svg version="1.1" id="Capa_1" xmlns="http://www.w3.org/2000/svg" xmlns:xlink="http://www.w3.org/1999/xlink" x="0px" y="0px"
	 viewBox="0 0 707 666" style="enable-background:new 0 0 707 666;" xml:space="preserve">
<style type="text/css">
	.st0{fill:none;stroke:#1CBA6E;stroke-width:2;}
	.st1{fill:url(#SVGID_1_);}
	.st2{fill:#FFFFFF;}
</style>
<path class="st0" d="M465.9,323.3L465.9,323.3L465.9,323.3l-93.5,162c-4.7,8.2-7,12.1-10.2,15c-2.8,2.5-6.1,4.4-9.7,5.6
	c-4,1.3-8.6,1.3-18,1.3H145.3c-9.5,0-14,0-18-1.3c-3.6-1.2-6.9-3.1-9.7-5.6c-3.2-2.8-5.4-6.7-10.2-15l0,0l0,0l-93.5-162
	c-4.7-8.2-7-12.1-7.9-16.3c-0.8-3.7-0.8-7.5,0-11.2c0.9-4.1,3.1-8.1,7.9-16.3l93.5-162c4.7-8.2,7-12.1,10.2-15
	c2.8-2.5,6.1-4.4,9.7-5.6c4-1.3,8.6-1.3,18-1.3h189.1c9.5,0,14,0,18,1.3c3.6,1.2,6.9,3.1,9.7,5.6c3.1,2.8,5.4,6.7,10.2,15l93.5,162
	c4.7,8.2,7,12.1,7.9,16.3c0.8,3.7,0.8,7.5,0,11.2C472.9,311.1,470.6,315,465.9,323.3z"/>
<g>
	
		<linearGradient id="SVGID_1_" gradientUnits="userSpaceOnUse" x1="161.4068" y1="375.6703" x2="550.6277" y2="344.4673" gradientTransform="matrix(1 0 0 -1 0 668)">
		<stop  offset="0" style="stop-color:#FFDC67"/>
		<stop  offset="1" style="stop-color:#F0B90B"/>
	</linearGradient>
	<path class="st1" d="M162.2,465.7L80.3,324.3c-4.7-8.2-7.1-12.3-8-16.6c-0.8-3.8-0.8-7.8,0-11.7c0.9-4.4,3.3-8.4,8-16.6L162.2,138
		c4.7-8.1,7.1-12.2,10.4-15.2c2.9-2.6,6.3-4.6,10.1-5.8c4.2-1.4,8.9-1.4,18.3-1.4h158.5c9.4,0,14.1,0,18.3,1.4
		c3.7,1.2,7.2,3.2,10.1,5.8c3.3,3,5.7,7,10.4,15.2l81.9,141.3c4.7,8.2,7.1,12.3,8,16.6c0.8,3.9,0.8,7.8,0,11.7
		c-0.9,4.4-3.3,8.4-8,16.6l-81.9,141.3c-4.7,8.1-7.1,12.2-10.4,15.2c-2.9,2.6-6.3,4.6-10.1,5.8c-4.2,1.4-8.9,1.4-18.3,1.4H200.9
		c-9.4,0-14.1,0-18.3-1.4c-3.7-1.2-7.2-3.2-10.1-5.8C169.2,477.9,166.9,473.8,162.2,465.7L162.2,465.7z"/>
</g>
<g>
	<path class="st2" d="M281.4,513.1L172.8,325.2c-4.7-8.2-7.1-12.3-8-16.6c-0.8-3.8-0.8-7.8,0-11.7c0.9-4.3,3.3-8.4,8-16.6
		L281.4,92.4c4.7-8.2,7.1-12.2,10.4-15.2c2.9-2.6,6.4-4.6,10.1-5.8c4.2-1.4,8.9-1.4,18.3-1.4H562c15.7,0,23.5,0,29.5,3.1
		c5.3,2.7,9.6,7,12.2,12.2c3.1,6,3.1,13.8,3.1,29.5v187.9v187.9c0,15.7,0,23.5-3.1,29.5c-2.7,5.3-7,9.6-12.2,12.2
		c-6,3.1-13.8,3.1-29.5,3.1H320.2c-9.4,0-14.1,0-18.3-1.4c-3.7-1.2-7.2-3.2-10.1-5.8C288.5,525.3,286.1,521.3,281.4,513.1
		L281.4,513.1z"/>
</g>
<g>
	<defs>
		<path id="SVGID_2_" d="M144,70.3h434c15.5,0,28,12.5,28,28v409c0,15.5-12.5,28-28,28H144c-15.5,0-28-12.5-28-28v-409
			C116,82.9,128.5,70.3,144,70.3z"/>
	</defs>
	<clipPath id="SVGID_3_">
		<use xlink:href="#SVGID_2_"  style="overflow:visible;"/>
	</clipPath>
</g>
</svg>
