<svg width="232" height="266" viewBox="0 0 232 266" fill="none" xmlns="http://www.w3.org/2000/svg">
<path d="M167.608 20.188C190.587 46.0397 190.587 87.9537 167.608 113.805C157.911 124.715 145.671 131.02 133.035 132.722C123.441 134.014 108.091 135.113 99.1367 132.915C91.4252 129.703 90.5879 120.775 84.3924 113.805C61.4132 87.9537 55.0173 35.8062 77.9965 9.95455C89.3233 -2.78834 111.289 0.803121 125.36 0.802776C140.071 1.43822 155.955 7.07874 167.608 20.188Z" fill="url(#paint0_linear)"/>
<path d="M216.26 180.903C190.16 161.064 159.421 150.877 128.558 150.344C95.989 149.781 63.2811 149.734 35.739 170.67C27.7802 176.714 23.0254 197.162 23.0254 208.232V265.59H228.974V208.232C228.974 197.162 224.218 186.948 216.26 180.903Z" fill="url(#paint1_linear)"/>
<path d="M144.583 20.188C167.562 46.0396 167.562 87.9537 144.583 113.805C121.603 139.657 84.3463 139.657 61.3671 113.805C38.3878 87.9537 38.3878 46.0396 61.3671 20.188C84.3463 -5.66421 121.603 -5.66421 144.583 20.188Z" fill="url(#paint2_linear)"/>
<path d="M193.235 180.903C139.593 140.128 66.3556 140.128 12.7136 180.903C4.75482 186.948 0 197.162 0 208.232V265.589H205.948V208.232C205.948 197.162 201.193 186.948 193.235 180.903Z" fill="url(#paint3_linear)"/>
<path fill-rule="evenodd" clip-rule="evenodd" d="M64.2353 22.7375C42.5485 47.1351 42.5485 86.8581 64.2353 111.256C85.688 135.39 120.262 135.39 141.714 111.256C163.401 86.8581 163.401 47.1351 141.714 22.7375L144.583 20.188C167.562 46.0396 167.562 87.9537 144.583 113.805C121.603 139.657 84.3463 139.657 61.3671 113.805C38.3878 87.9537 38.3878 46.0396 61.3671 20.188C84.3463 -5.66421 121.603 -5.66421 144.583 20.188L141.714 22.7375C120.262 -1.39729 85.688 -1.39729 64.2353 22.7375ZM190.914 183.959L190.912 183.958C138.643 144.226 67.3055 144.226 15.0359 183.958L15.0346 183.959C8.1427 189.194 3.83755 198.214 3.83755 208.232V261.752H202.111V208.232C202.111 198.214 197.805 189.194 190.914 183.959ZM205.948 265.589H0V208.232C0 197.162 4.75482 186.948 12.7136 180.903C66.3556 140.128 139.593 140.128 193.235 180.903C201.193 186.948 205.948 197.162 205.948 208.232V265.589Z" fill="url(#paint4_linear)"/>
<path fill-rule="evenodd" clip-rule="evenodd" d="M64.2353 22.7375C42.5485 47.1351 42.5485 86.8581 64.2353 111.256C85.688 135.39 120.262 135.39 141.714 111.256C163.401 86.8581 163.401 47.1351 141.714 22.7375L144.583 20.188C167.562 46.0396 167.562 87.9537 144.583 113.805C121.603 139.657 84.3463 139.657 61.3671 113.805C38.3878 87.9537 38.3878 46.0396 61.3671 20.188C84.3463 -5.66421 121.603 -5.66421 144.583 20.188L141.714 22.7375C120.262 -1.39729 85.688 -1.39729 64.2353 22.7375ZM190.914 183.959L190.912 183.958C138.643 144.226 67.3055 144.226 15.0359 183.958L15.0346 183.959C8.1427 189.194 3.83755 198.214 3.83755 208.232V261.752H202.111V208.232C202.111 198.214 197.805 189.194 190.914 183.959ZM205.948 265.589H0V208.232C0 197.162 4.75482 186.948 12.7136 180.903C66.3556 140.128 139.593 140.128 193.235 180.903C201.193 186.948 205.948 197.162 205.948 208.232V265.589Z" fill="url(#paint5_linear)"/>
<g filter="url(#filter0_d)">
<path fill-rule="evenodd" clip-rule="evenodd" d="M103.5 107.466C117.32 107.466 129.263 98.435 134.894 85.3364L138 87.0182C131.816 101.404 118.693 111.336 103.5 111.336C88.3068 111.336 75.1841 101.404 69 87.0182L72.1064 85.3364C77.7372 98.435 89.6805 107.466 103.5 107.466Z" fill="url(#paint6_linear)"/>
<path fill-rule="evenodd" clip-rule="evenodd" d="M104.5 107.466C118.32 107.466 130.263 98.435 135.894 85.3364L139 87.0182C132.816 101.404 119.693 111.336 104.5 111.336C89.3068 111.336 76.1841 101.404 70 87.0182L73.1064 85.3364C78.7372 98.435 90.6805 107.466 104.5 107.466Z" fill="url(#paint7_linear)"/>
<path fill-rule="evenodd" clip-rule="evenodd" d="M105.5 107.466C119.32 107.466 131.263 98.435 136.894 85.3364L140 87.0182C133.816 101.404 120.693 111.336 105.5 111.336C90.3068 111.336 77.1841 101.404 71 87.0182L74.1064 85.3364C79.7372 98.435 91.6805 107.466 105.5 107.466Z" fill="url(#paint8_linear)"/>
<path fill-rule="evenodd" clip-rule="evenodd" d="M106.5 107.466C120.32 107.466 132.263 98.435 137.894 85.3364L141 87.0182C134.816 101.404 121.693 111.336 106.5 111.336C91.3068 111.336 78.1841 101.404 72 87.0182L75.1064 85.3364C80.7372 98.435 92.6805 107.466 106.5 107.466Z" fill="url(#paint9_linear)"/>
</g>
<path fill-rule="evenodd" clip-rule="evenodd" d="M102.5 107.466C116.32 107.466 128.263 98.435 133.894 85.3364L137 87.0182C130.816 101.404 117.693 111.336 102.5 111.336C87.3068 111.336 74.1841 101.404 68 87.0182L71.1064 85.3364C76.7372 98.435 88.6805 107.466 102.5 107.466Z" fill="url(#paint10_linear)"/>
<path d="M231.532 167.261V184.83C231.532 186.152 230.609 187.225 229.469 187.225H201.505V219.7C201.505 221.024 200.581 222.096 199.442 222.096H184.313C183.175 222.096 182.25 221.024 182.25 219.7V187.225H154.286C153.146 187.225 152.223 186.152 152.223 184.83V167.261C152.223 165.938 153.146 164.865 154.286 164.865H182.25V132.39C182.25 131.066 183.175 129.995 184.313 129.995H199.442C200.581 129.995 201.505 131.066 201.505 132.39V164.865H229.469C230.609 164.865 231.532 165.938 231.532 167.261Z" fill="url(#paint11_linear)"/>
<path d="M231.532 167.261V184.83C231.532 186.152 230.609 187.225 229.469 187.225H201.505V219.7C201.505 221.024 200.581 222.096 199.442 222.096H184.313C183.175 222.096 182.25 221.024 182.25 219.7V187.225H154.286C153.146 187.225 152.223 186.152 152.223 184.83V167.261C152.223 165.938 153.146 164.865 154.286 164.865H182.25V132.39C182.25 131.066 183.175 129.995 184.313 129.995H199.442C200.581 129.995 201.505 131.066 201.505 132.39V164.865H229.469C230.609 164.865 231.532 165.938 231.532 167.261Z" fill="white" fill-opacity="0.1"/>
<path d="M223.857 167.262V184.831C223.857 186.153 222.934 187.226 221.794 187.226H193.83V219.701C193.83 221.025 192.906 222.097 191.767 222.097H176.638C175.5 222.097 174.575 221.025 174.575 219.701V187.226H146.611C145.471 187.226 144.548 186.153 144.548 184.831V167.262C144.548 165.939 145.471 164.866 146.611 164.866H174.575V132.391C174.575 131.067 175.5 129.996 176.638 129.996H191.767C192.906 129.996 193.83 131.067 193.83 132.391V164.866H221.794C222.935 164.866 223.857 165.939 223.857 167.262Z" fill="url(#paint12_linear)"/>
<path d="M223.857 167.262V184.831C223.857 186.153 222.934 187.226 221.794 187.226H193.83V219.701C193.83 221.025 192.906 222.097 191.767 222.097H176.638C175.5 222.097 174.575 221.025 174.575 219.701V187.226H146.611C145.471 187.226 144.548 186.153 144.548 184.831V167.262C144.548 165.939 145.471 164.866 146.611 164.866H174.575V132.391C174.575 131.067 175.5 129.996 176.638 129.996H191.767C192.906 129.996 193.83 131.067 193.83 132.391V164.866H221.794C222.935 164.866 223.857 165.939 223.857 167.262Z" fill="url(#paint13_linear)" fill-opacity="0.23"/>
<path fill-rule="evenodd" clip-rule="evenodd" d="M191.272 184.668H221.299V167.425H191.272V132.554H177.134V167.425H147.106V184.668H177.134V219.538H191.272V184.668ZM221.794 164.866C222.935 164.866 223.857 165.939 223.857 167.262V184.831C223.857 186.153 222.934 187.226 221.794 187.226H193.83V219.701C193.83 221.025 192.906 222.097 191.767 222.097H176.638C175.5 222.097 174.575 221.025 174.575 219.701V187.226H146.611C145.471 187.226 144.548 186.153 144.548 184.831V167.262C144.548 165.939 145.471 164.866 146.611 164.866H174.575V132.391C174.575 131.067 175.5 129.996 176.638 129.996H191.767C192.906 129.996 193.83 131.067 193.83 132.391V164.866H221.794Z" fill="url(#paint14_linear)"/>
<path fill-rule="evenodd" clip-rule="evenodd" d="M191.272 184.668H221.299V167.425H191.272V132.554H177.134V167.425H147.106V184.668H177.134V219.538H191.272V184.668ZM221.794 164.866C222.935 164.866 223.857 165.939 223.857 167.262V184.831C223.857 186.153 222.934 187.226 221.794 187.226H193.83V219.701C193.83 221.025 192.906 222.097 191.767 222.097H176.638C175.5 222.097 174.575 221.025 174.575 219.701V187.226H146.611C145.471 187.226 144.548 186.153 144.548 184.831V167.262C144.548 165.939 145.471 164.866 146.611 164.866H174.575V132.391C174.575 131.067 175.5 129.996 176.638 129.996H191.767C192.906 129.996 193.83 131.067 193.83 132.391V164.866H221.794Z" fill="url(#paint15_linear)"/>
<defs>
<filter id="filter0_d" x="69" y="85.3364" width="74" height="28" filterUnits="userSpaceOnUse" color-interpolation-filters="sRGB">
<feFlood flood-opacity="0" result="BackgroundImageFix"/>
<feColorMatrix in="SourceAlpha" type="matrix" values="0 0 0 0 0 0 0 0 0 0 0 0 0 0 0 0 0 0 127 0"/>
<feOffset dx="2" dy="2"/>
<feColorMatrix type="matrix" values="0 0 0 0 0 0 0 0 0 0 0 0 0 0 0 0 0 0 0.15 0"/>
<feBlend mode="normal" in2="BackgroundImageFix" result="effect1_dropShadow"/>
<feBlend mode="normal" in="SourceGraphic" in2="effect1_dropShadow" result="shape"/>
</filter>
<linearGradient id="paint0_linear" x1="62.491" y1="0.84155" x2="59.9449" y2="265.564" gradientUnits="userSpaceOnUse">
<stop stop-color="#5E5D60"/>
<stop offset="0.0989583" stop-color="#1A1919"/>
<stop offset="0.25" stop-color="#6C6C6C"/>
<stop offset="0.395833" stop-color="#282828"/>
<stop offset="0.65625" stop-color="#3C3B3D"/>
<stop offset="0.713542" stop-color="#4F5052"/>
<stop offset="0.791667" stop-color="#5A5A5A"/>
<stop offset="1" stop-color="#16171A"/>
</linearGradient>
<linearGradient id="paint1_linear" x1="62.491" y1="0.84155" x2="59.9449" y2="265.564" gradientUnits="userSpaceOnUse">
<stop stop-color="#5E5D60"/>
<stop offset="0.0989583" stop-color="#1A1919"/>
<stop offset="0.25" stop-color="#6C6C6C"/>
<stop offset="0.395833" stop-color="#282828"/>
<stop offset="0.65625" stop-color="#3C3B3D"/>
<stop offset="0.713542" stop-color="#4F5052"/>
<stop offset="0.791667" stop-color="#5A5A5A"/>
<stop offset="1" stop-color="#16171A"/>
</linearGradient>
<linearGradient id="paint2_linear" x1="102.974" y1="0.841237" x2="102.974" y2="265.589" gradientUnits="userSpaceOnUse">
<stop stop-color="#2B292A"/>
<stop offset="0.680059" stop-color="#424041"/>
<stop offset="1" stop-color="#868585"/>
</linearGradient>
<linearGradient id="paint3_linear" x1="102.974" y1="0.841237" x2="102.974" y2="265.589" gradientUnits="userSpaceOnUse">
<stop stop-color="#2B292A"/>
<stop offset="0.680059" stop-color="#424041"/>
<stop offset="1" stop-color="#868585"/>
</linearGradient>
<linearGradient id="paint4_linear" x1="187.268" y1="8.16626" x2="-8.19958" y2="234.34" gradientUnits="userSpaceOnUse">
<stop offset="0.670529" stop-color="#5C5757"/>
<stop offset="0.925805" stop-color="#514F50"/>
<stop offset="1" stop-color="#363435"/>
</linearGradient>
<linearGradient id="paint5_linear" x1="76.1113" y1="7.83433" x2="141.017" y2="126.804" gradientUnits="userSpaceOnUse">
<stop stop-color="white" stop-opacity="0.4"/>
<stop offset="1" stop-color="white" stop-opacity="0"/>
</linearGradient>
<linearGradient id="paint6_linear" x1="119.298" y1="86.0899" x2="118.355" y2="109.67" gradientUnits="userSpaceOnUse">
<stop stop-color="#767676"/>
<stop offset="0.135417" stop-color="#606060"/>
<stop offset="0.630208" stop-color="#F8F8F8"/>
<stop offset="1" stop-color="#F8F8F8"/>
</linearGradient>
<linearGradient id="paint7_linear" x1="119.298" y1="86.0899" x2="118.355" y2="109.67" gradientUnits="userSpaceOnUse">
<stop stop-color="#767676"/>
<stop offset="0.135417" stop-color="#606060"/>
<stop offset="0.630208" stop-color="#F8F8F8"/>
<stop offset="1" stop-color="#F8F8F8"/>
</linearGradient>
<linearGradient id="paint8_linear" x1="119.298" y1="86.0899" x2="118.355" y2="109.67" gradientUnits="userSpaceOnUse">
<stop stop-color="#767676"/>
<stop offset="0.135417" stop-color="#606060"/>
<stop offset="0.630208" stop-color="#F8F8F8"/>
<stop offset="1" stop-color="#F8F8F8"/>
</linearGradient>
<linearGradient id="paint9_linear" x1="119.298" y1="86.0899" x2="118.355" y2="109.67" gradientUnits="userSpaceOnUse">
<stop stop-color="#767676"/>
<stop offset="0.135417" stop-color="#606060"/>
<stop offset="0.630208" stop-color="#F8F8F8"/>
<stop offset="1" stop-color="#F8F8F8"/>
</linearGradient>
<linearGradient id="paint10_linear" x1="77.6467" y1="90.2922" x2="81.373" y2="114.064" gradientUnits="userSpaceOnUse">
<stop stop-color="#F8F8F8"/>
<stop offset="1" stop-color="#BEBEBE"/>
</linearGradient>
<linearGradient id="paint11_linear" x1="168.339" y1="129.696" x2="167.913" y2="222.094" gradientUnits="userSpaceOnUse">
<stop stop-color="#56D599"/>
<stop offset="0.15625" stop-color="#1EAD64"/>
<stop offset="0.371058" stop-color="#1EAE65"/>
<stop offset="0.75" stop-color="#57D69A"/>
<stop offset="0.91676" stop-color="#1EA65F"/>
<stop offset="1" stop-color="#178E4E"/>
</linearGradient>
<linearGradient id="paint12_linear" x1="184.202" y1="129.996" x2="184.202" y2="255.196" gradientUnits="userSpaceOnUse">
<stop stop-color="#1FA05B"/>
<stop offset="0.569228" stop-color="#1DB369"/>
<stop offset="1" stop-color="#62DDA3"/>
</linearGradient>
<linearGradient id="paint13_linear" x1="220.845" y1="171.729" x2="144.548" y2="171.729" gradientUnits="userSpaceOnUse">
<stop offset="0.479067" stop-color="white" stop-opacity="0"/>
<stop offset="0.479167" stop-color="white"/>
<stop offset="1" stop-color="white" stop-opacity="0"/>
</linearGradient>
<linearGradient id="paint14_linear" x1="177.167" y1="129.996" x2="197.389" y2="245.517" gradientUnits="userSpaceOnUse">
<stop offset="0.217623" stop-color="#20B56C"/>
<stop offset="0.656122" stop-color="#B2F5D4"/>
<stop offset="1" stop-color="#1FA25D"/>
</linearGradient>
<linearGradient id="paint15_linear" x1="214.033" y1="132.874" x2="186.511" y2="189.257" gradientUnits="userSpaceOnUse">
<stop stop-color="white" stop-opacity="0.67"/>
<stop offset="1" stop-color="white" stop-opacity="0"/>
</linearGradient>
</defs>
</svg>
