<svg width="149" height="44" viewBox="0 0 149 44" fill="none" xmlns="http://www.w3.org/2000/svg">
<g opacity="0.5">
<path d="M144.552 0H4.44776C1.99133 0 0 1.96995 0 4.4V39.6C0 42.0301 1.99133 44 4.44776 44H144.552C147.009 44 149 42.0301 149 39.6V4.4C149 1.96995 147.009 0 144.552 0Z" fill="#2B2F36"/>
<path fill-rule="evenodd" clip-rule="evenodd" d="M31.4033 11C31.5553 12.3019 31.0073 13.5834 30.2052 14.5267C29.3689 15.4546 28.0291 16.1637 26.7255 16.0724C26.5549 14.8211 27.2155 13.4891 27.9546 12.6768C28.7909 11.7539 30.2424 11.0476 31.4033 11ZM35.671 18.5073C35.5171 18.594 33.1155 19.947 33.1421 22.6993C33.172 26.0317 36.2435 27.1325 36.2796 27.1441C36.262 27.2218 35.7989 28.7335 34.6484 30.2686C33.6869 31.6199 32.6779 32.9413 31.0787 32.9646C30.3176 32.9813 29.8038 32.7756 29.2682 32.5612C28.7098 32.3377 28.1278 32.1048 27.2175 32.1048C26.2523 32.1048 25.6445 32.3454 25.0584 32.5773C24.5516 32.7779 24.0611 32.9721 23.3699 32.9986C21.846 33.052 20.681 31.5559 19.6844 30.2171C17.6934 27.4832 16.1427 22.5108 18.2216 19.1279C19.2295 17.4686 21.0666 16.4008 23.0297 16.3716C23.8944 16.3551 24.7237 16.6683 25.4508 16.9429C26.0069 17.1529 26.5032 17.3403 26.9095 17.3403C27.2668 17.3403 27.7493 17.1603 28.3116 16.9506C29.1973 16.6203 30.2808 16.2163 31.3847 16.325C32.1394 16.3455 34.2895 16.6048 35.6748 18.5052L35.671 18.5073Z" fill="white"/>
<path d="M45.1465 10.0255V15.4001H47.069C48.4545 15.4001 49.3652 14.5069 49.3652 12.7128C49.3652 10.9187 48.4545 10.0255 47.069 10.0255H45.1465ZM47.069 14.6301H46.026V10.7955H47.069C47.8785 10.7955 48.4234 11.3114 48.4234 12.2816V13.144C48.4234 14.1142 47.8785 14.6301 47.069 14.6301ZM52.5612 15.4925C53.9778 15.4925 54.9041 14.5223 54.9041 12.7128C54.9041 10.9033 53.9778 9.93311 52.5612 9.93311C51.1446 9.93311 50.2184 10.9033 50.2184 12.7128C50.2184 14.5223 51.1446 15.4925 52.5612 15.4925ZM52.5612 14.7148C51.7206 14.7148 51.1602 14.1142 51.1602 13.1363V12.2893C51.1602 11.3114 51.7206 10.7108 52.5612 10.7108C53.4019 10.7108 53.9623 11.3114 53.9623 12.2893V13.1363C53.9623 14.1142 53.4019 14.7148 52.5612 14.7148ZM56.7267 15.4001H57.7152L58.4235 12.6204L58.836 10.988H58.8516L59.2563 12.6204L59.9491 15.4001H60.9376L62.2764 10.0255H61.4124L60.8442 12.6127L60.4472 14.3914H60.4239L59.9958 12.6127L59.3575 10.0255H58.3768L57.7308 12.6127L57.2949 14.3991H57.2715L56.3375 10.0255H55.4424L56.7267 15.4001ZM64.5941 12.4279L66.3688 15.4001H67.3495V10.0255H66.5089V14.1373H66.4855L65.8862 12.9977L64.1115 10.0255H63.1308V15.4001H63.9714V11.2883H63.9948L64.5941 12.4279ZM68.6873 15.4001H71.7773V14.6301H69.5668V10.0255H68.6873V15.4001ZM74.5134 15.4925C75.93 15.4925 76.8562 14.5223 76.8562 12.7128C76.8562 10.9033 75.93 9.93311 74.5134 9.93311C73.0968 9.93311 72.1705 10.9033 72.1705 12.7128C72.1705 14.5223 73.0968 15.4925 74.5134 15.4925ZM74.5134 14.7148C73.6728 14.7148 73.1123 14.1142 73.1123 13.1363V12.2893C73.1123 11.3114 73.6728 10.7108 74.5134 10.7108C75.354 10.7108 75.9144 11.3114 75.9144 12.2893V13.1363C75.9144 14.1142 75.354 14.7148 74.5134 14.7148ZM81.1795 15.4001H82.0979L80.2454 10.0255H79.1402L77.2877 15.4001H78.1828L78.6576 13.9448H80.6891L81.1795 15.4001ZM79.6928 10.8263L80.4712 13.1979H78.8677L79.6539 10.8263H79.6928ZM82.9394 10.0255V15.4001H84.862C86.2475 15.4001 87.1581 14.5069 87.1581 12.7128C87.1581 10.9187 86.2475 10.0255 84.862 10.0255H82.9394ZM84.862 14.6301H83.819V10.7955H84.862C85.6715 10.7955 86.2163 11.3114 86.2163 12.2816V13.144C86.2163 14.1142 85.6715 14.6301 84.862 14.6301ZM92.1937 15.4925C93.6103 15.4925 94.5365 14.5223 94.5365 12.7128C94.5365 10.9033 93.6103 9.93311 92.1937 9.93311C90.7771 9.93311 89.8508 10.9033 89.8508 12.7128C89.8508 14.5223 90.7771 15.4925 92.1937 15.4925ZM92.1937 14.7148C91.3531 14.7148 90.7926 14.1142 90.7926 13.1363V12.2893C90.7926 11.3114 91.3531 10.7108 92.1937 10.7108C93.0343 10.7108 93.5947 11.3114 93.5947 12.2893V13.1363C93.5947 14.1142 93.0343 14.7148 92.1937 14.7148ZM97.0967 12.4279L98.8713 15.4001H99.8521V10.0255H99.0114V14.1373H98.9881L98.3887 12.9977L96.6141 10.0255H95.6334V15.4001H96.474V11.2883H96.4973L97.0967 12.4279ZM104.166 10.7955V15.4001H105.045V10.7955H106.664V10.0255H102.547V10.7955H104.166ZM110.861 13.0593V15.4001H111.741V10.0255H110.861V12.2893H108.401V10.0255H107.522V15.4001H108.401V13.0593H110.861ZM113.078 15.4001H116.558V14.6301H113.958V13.0593H116.316V12.2893H113.958V10.7955H116.558V10.0255H113.078V15.4001Z" fill="white"/>
<path d="M52.6039 31.8998H54.4408L50.7358 21.1506H48.5253L44.8203 31.8998H46.6105L47.5601 28.9892H51.6232L52.6039 31.8998ZM49.6306 22.7522L51.1873 27.4954H47.9805L49.5527 22.7522H49.6306ZM55.9992 23.8918V34.9798H57.696V30.5754H57.7739C58.1163 31.5148 58.9725 32.0846 60.0467 32.0846C62.086 32.0846 63.2691 30.5292 63.2691 27.8958C63.2691 25.2624 62.086 23.707 60.0467 23.707C58.9725 23.707 58.1163 24.2614 57.7739 25.2162H57.696V23.8918H55.9992ZM59.533 30.637C58.5055 30.637 57.696 30.0826 57.696 29.2664V26.5252C57.696 25.709 58.5055 25.1546 59.533 25.1546C60.7005 25.1546 61.4788 25.9708 61.4788 27.2028V28.5888C61.4788 29.8208 60.7005 30.637 59.533 30.637ZM65.2119 23.8918V34.9798H66.9087V30.5754H66.9865C67.329 31.5148 68.1852 32.0846 69.2593 32.0846C71.2986 32.0846 72.4817 30.5292 72.4817 27.8958C72.4817 25.2624 71.2986 23.707 69.2593 23.707C68.1852 23.707 67.329 24.2614 66.9865 25.2162H66.9087V23.8918H65.2119ZM68.7456 30.637C67.7182 30.637 66.9087 30.0826 66.9087 29.2664V26.5252C66.9087 25.709 67.7182 25.1546 68.7456 25.1546C69.9131 25.1546 70.6915 25.9708 70.6915 27.2028V28.5888C70.6915 29.8208 69.9131 30.637 68.7456 30.637ZM81.4814 32.0846C83.9722 32.0846 85.4199 30.7448 85.4199 28.7428C85.4199 27.0334 84.4392 26.0786 82.2754 25.6628L81.3102 25.4626C80.1427 25.2316 79.5822 24.8466 79.5822 23.9534C79.5822 23.014 80.2983 22.5058 81.5437 22.5058C82.7424 22.5058 83.5207 22.9678 84.0812 23.6916L85.311 22.6136C84.4703 21.551 83.2717 20.9658 81.6371 20.9658C79.3332 20.9658 77.8387 22.1362 77.8387 24.0458C77.8387 25.7552 78.9128 26.7254 81.0144 27.1104L81.9796 27.2798C83.2405 27.5262 83.6764 28.0036 83.6764 28.8352C83.6764 29.867 82.9603 30.5446 81.5748 30.5446C80.3917 30.5446 79.4888 30.0672 78.726 29.1432L77.5118 30.2674C78.4147 31.3762 79.6601 32.0846 81.4814 32.0846ZM89.6185 31.8998H91.0974V30.5292H89.5251V25.2624H91.2219V23.8918H89.5251V21.705H87.9995V23.1064C87.9995 23.6608 87.8127 23.8918 87.2523 23.8918H86.5673V25.2624H87.8283V30.1596C87.8283 31.253 88.451 31.8998 89.6185 31.8998ZM96.1774 32.0846C98.4346 32.0846 99.8979 30.4522 99.8979 27.8958C99.8979 25.3394 98.4346 23.707 96.1774 23.707C93.9202 23.707 92.4568 25.3394 92.4568 27.8958C92.4568 30.4522 93.9202 32.0846 96.1774 32.0846ZM96.1774 30.6986C95.0254 30.6986 94.2471 29.9902 94.2471 28.5734V27.2182C94.2471 25.8014 95.0254 25.093 96.1774 25.093C97.3294 25.093 98.1077 25.8014 98.1077 27.2182V28.5734C98.1077 29.9902 97.3294 30.6986 96.1774 30.6986ZM101.789 31.8998H103.485V26.787C103.485 25.9554 104.233 25.5088 105.571 25.5088H106.241V23.8918H105.789C104.497 23.8918 103.797 24.6156 103.563 25.4318H103.485V23.8918H101.789V31.8998ZM110.848 32.0846C112.357 32.0846 113.54 31.4378 114.148 30.4676L113.151 29.4974C112.684 30.2366 112.015 30.6986 111.019 30.6986C109.649 30.6986 108.886 29.8208 108.886 28.5888V28.327H114.443V27.6956C114.443 25.478 113.229 23.707 110.848 23.707C108.544 23.707 107.127 25.3394 107.127 27.8958C107.127 30.4522 108.544 32.0846 110.848 32.0846ZM110.848 25.016C111.968 25.016 112.653 25.8322 112.653 27.0642V27.2182H108.886V27.1104C108.886 25.8784 109.68 25.016 110.848 25.016Z" fill="white"/>
</g>
</svg>
