<svg width="149" height="44" viewBox="0 0 149 44" fill="none" xmlns="http://www.w3.org/2000/svg">
<path d="M144.552 0H4.44776C1.99133 0 0 1.96995 0 4.4V39.6C0 42.0301 1.99133 44 4.44776 44H144.552C147.009 44 149 42.0301 149 39.6V4.4C149 1.96995 147.009 0 144.552 0Z" fill="#2B2F36"/>
<path fill-rule="evenodd" clip-rule="evenodd" d="M31.4038 11C31.5558 12.3019 31.0078 13.5834 30.2057 14.5267C29.3694 15.4546 28.0296 16.1637 26.726 16.0724C26.5554 14.8211 27.216 13.4891 27.9551 12.6768C28.7914 11.7539 30.2429 11.0476 31.4038 11ZM35.6715 18.5073C35.5176 18.594 33.1159 19.947 33.1426 22.6993C33.1725 26.0317 36.2439 27.1325 36.2801 27.1441C36.2625 27.2218 35.7994 28.7335 34.6489 30.2686C33.6874 31.6199 32.6784 32.9413 31.0792 32.9646C30.3181 32.9813 29.8042 32.7756 29.2687 32.5612C28.7103 32.3377 28.1283 32.1048 27.218 32.1048C26.2528 32.1048 25.645 32.3454 25.0589 32.5773C24.5521 32.7779 24.0616 32.9721 23.3703 32.9986C21.8465 33.052 20.6814 31.5559 19.6849 30.2171C17.6939 27.4832 16.1432 22.5108 18.2221 19.1279C19.23 17.4686 21.0671 16.4008 23.0302 16.3716C23.8948 16.3551 24.7242 16.6683 25.4513 16.9429C26.0074 17.1529 26.5037 17.3403 26.91 17.3403C27.2672 17.3403 27.7498 17.1603 28.3121 16.9506C29.1978 16.6203 30.2813 16.2163 31.3852 16.325C32.1399 16.3455 34.29 16.6048 35.6753 18.5052L35.6715 18.5073Z" fill="white"/>
<path d="M45.147 10.0254V15.4H47.0695C48.455 15.4 49.3657 14.5068 49.3657 12.7127C49.3657 10.9186 48.455 10.0254 47.0695 10.0254H45.147ZM47.0695 14.63H46.0265V10.7954H47.0695C47.879 10.7954 48.4239 11.3113 48.4239 12.2815V13.1439C48.4239 14.1141 47.879 14.63 47.0695 14.63ZM52.5617 15.4924C53.9783 15.4924 54.9046 14.5222 54.9046 12.7127C54.9046 10.9032 53.9783 9.93298 52.5617 9.93298C51.1451 9.93298 50.2189 10.9032 50.2189 12.7127C50.2189 14.5222 51.1451 15.4924 52.5617 15.4924ZM52.5617 14.7147C51.7211 14.7147 51.1607 14.1141 51.1607 13.1362V12.2892C51.1607 11.3113 51.7211 10.7107 52.5617 10.7107C53.4024 10.7107 53.9628 11.3113 53.9628 12.2892V13.1362C53.9628 14.1141 53.4024 14.7147 52.5617 14.7147ZM56.7272 15.4H57.7157L58.424 12.6203L58.8365 10.9879H58.8521L59.2568 12.6203L59.9496 15.4H60.9381L62.2769 10.0254H61.4129L60.8447 12.6126L60.4477 14.3913H60.4244L59.9963 12.6126L59.358 10.0254H58.3773L57.7312 12.6126L57.2954 14.399H57.272L56.338 10.0254H55.4429L56.7272 15.4ZM64.5946 12.4278L66.3692 15.4H67.35V10.0254H66.5093V14.1372H66.486L65.8867 12.9976L64.112 10.0254H63.1313V15.4H63.9719V11.2882H63.9952L64.5946 12.4278ZM68.6877 15.4H71.7778V14.63H69.5673V10.0254H68.6877V15.4ZM74.5139 15.4924C75.9305 15.4924 76.8567 14.5222 76.8567 12.7127C76.8567 10.9032 75.9305 9.93298 74.5139 9.93298C73.0973 9.93298 72.171 10.9032 72.171 12.7127C72.171 14.5222 73.0973 15.4924 74.5139 15.4924ZM74.5139 14.7147C73.6732 14.7147 73.1128 14.1141 73.1128 13.1362V12.2892C73.1128 11.3113 73.6732 10.7107 74.5139 10.7107C75.3545 10.7107 75.9149 11.3113 75.9149 12.2892V13.1362C75.9149 14.1141 75.3545 14.7147 74.5139 14.7147ZM81.18 15.4H82.0984L80.2459 10.0254H79.1407L77.2882 15.4H78.1833L78.6581 13.9447H80.6896L81.18 15.4ZM79.6933 10.8262L80.4716 13.1978H78.8682L79.6544 10.8262H79.6933ZM82.9399 10.0254V15.4H84.8625C86.248 15.4 87.1586 14.5068 87.1586 12.7127C87.1586 10.9186 86.248 10.0254 84.8625 10.0254H82.9399ZM84.8625 14.63H83.8195V10.7954H84.8625C85.672 10.7954 86.2168 11.3113 86.2168 12.2815V13.1439C86.2168 14.1141 85.672 14.63 84.8625 14.63ZM92.1942 15.4924C93.6108 15.4924 94.537 14.5222 94.537 12.7127C94.537 10.9032 93.6108 9.93298 92.1942 9.93298C90.7776 9.93298 89.8513 10.9032 89.8513 12.7127C89.8513 14.5222 90.7776 15.4924 92.1942 15.4924ZM92.1942 14.7147C91.3535 14.7147 90.7931 14.1141 90.7931 13.1362V12.2892C90.7931 11.3113 91.3535 10.7107 92.1942 10.7107C93.0348 10.7107 93.5952 11.3113 93.5952 12.2892V13.1362C93.5952 14.1141 93.0348 14.7147 92.1942 14.7147ZM97.0972 12.4278L98.8718 15.4H99.8525V10.0254H99.0119V14.1372H98.9886L98.3892 12.9976L96.6146 10.0254H95.6338V15.4H96.4745V11.2882H96.4978L97.0972 12.4278ZM104.166 10.7954V15.4H105.046V10.7954H106.665V10.0254H102.547V10.7954H104.166ZM110.861 13.0592V15.4H111.741V10.0254H110.861V12.2892H108.402V10.0254H107.522V15.4H108.402V13.0592H110.861ZM113.079 15.4H116.558V14.63H113.958V13.0592H116.317V12.2892H113.958V10.7954H116.558V10.0254H113.079V15.4Z" fill="white"/>
<path d="M52.6039 31.8999H54.4408L50.7358 21.1507H48.5253L44.8203 31.8999H46.6105L47.5601 28.9893H51.6232L52.6039 31.8999ZM49.6306 22.7523L51.1873 27.4955H47.9805L49.5527 22.7523H49.6306ZM55.9992 23.8919V34.9799H57.696V30.5755H57.7739C58.1163 31.5149 58.9725 32.0847 60.0467 32.0847C62.086 32.0847 63.2691 30.5293 63.2691 27.8959C63.2691 25.2625 62.086 23.7071 60.0467 23.7071C58.9725 23.7071 58.1163 24.2615 57.7739 25.2163H57.696V23.8919H55.9992ZM59.533 30.6371C58.5055 30.6371 57.696 30.0827 57.696 29.2665V26.5253C57.696 25.7091 58.5055 25.1547 59.533 25.1547C60.7005 25.1547 61.4788 25.9709 61.4788 27.2029V28.5889C61.4788 29.8209 60.7005 30.6371 59.533 30.6371ZM65.2119 23.8919V34.9799H66.9087V30.5755H66.9865C67.329 31.5149 68.1852 32.0847 69.2593 32.0847C71.2986 32.0847 72.4817 30.5293 72.4817 27.8959C72.4817 25.2625 71.2986 23.7071 69.2593 23.7071C68.1852 23.7071 67.329 24.2615 66.9865 25.2163H66.9087V23.8919H65.2119ZM68.7456 30.6371C67.7182 30.6371 66.9087 30.0827 66.9087 29.2665V26.5253C66.9087 25.7091 67.7182 25.1547 68.7456 25.1547C69.9131 25.1547 70.6915 25.9709 70.6915 27.2029V28.5889C70.6915 29.8209 69.9131 30.6371 68.7456 30.6371ZM81.4814 32.0847C83.9722 32.0847 85.4199 30.7449 85.4199 28.7429C85.4199 27.0335 84.4392 26.0787 82.2754 25.6629L81.3102 25.4627C80.1427 25.2317 79.5822 24.8467 79.5822 23.9535C79.5822 23.0141 80.2983 22.5059 81.5437 22.5059C82.7424 22.5059 83.5207 22.9679 84.0812 23.6917L85.311 22.6137C84.4703 21.5511 83.2717 20.9659 81.6371 20.9659C79.3332 20.9659 77.8387 22.1363 77.8387 24.0459C77.8387 25.7553 78.9128 26.7255 81.0144 27.1105L81.9796 27.2799C83.2405 27.5263 83.6764 28.0037 83.6764 28.8353C83.6764 29.8671 82.9603 30.5447 81.5748 30.5447C80.3917 30.5447 79.4888 30.0673 78.726 29.1433L77.5118 30.2675C78.4147 31.3763 79.6601 32.0847 81.4814 32.0847ZM89.6185 31.8999H91.0974V30.5293H89.5251V25.2625H91.2219V23.8919H89.5251V21.7051H87.9995V23.1065C87.9995 23.6609 87.8127 23.8919 87.2523 23.8919H86.5673V25.2625H87.8283V30.1597C87.8283 31.2531 88.451 31.8999 89.6185 31.8999ZM96.1774 32.0847C98.4346 32.0847 99.8979 30.4523 99.8979 27.8959C99.8979 25.3395 98.4346 23.7071 96.1774 23.7071C93.9202 23.7071 92.4568 25.3395 92.4568 27.8959C92.4568 30.4523 93.9202 32.0847 96.1774 32.0847ZM96.1774 30.6987C95.0254 30.6987 94.2471 29.9903 94.2471 28.5735V27.2183C94.2471 25.8015 95.0254 25.0931 96.1774 25.0931C97.3294 25.0931 98.1077 25.8015 98.1077 27.2183V28.5735C98.1077 29.9903 97.3294 30.6987 96.1774 30.6987ZM101.789 31.8999H103.485V26.7871C103.485 25.9555 104.233 25.5089 105.571 25.5089H106.241V23.8919H105.789C104.497 23.8919 103.797 24.6157 103.563 25.4319H103.485V23.8919H101.789V31.8999ZM110.848 32.0847C112.357 32.0847 113.54 31.4379 114.148 30.4677L113.151 29.4975C112.684 30.2367 112.015 30.6987 111.019 30.6987C109.649 30.6987 108.886 29.8209 108.886 28.5889V28.3271H114.443V27.6957C114.443 25.4781 113.229 23.7071 110.848 23.7071C108.544 23.7071 107.127 25.3395 107.127 27.8959C107.127 30.4523 108.544 32.0847 110.848 32.0847ZM110.848 25.0161C111.968 25.0161 112.653 25.8323 112.653 27.0643V27.2183H108.886V27.1105C108.886 25.8785 109.68 25.0161 110.848 25.0161Z" fill="white"/>
</svg>
