<svg width="178" height="47" xmlns="http://www.w3.org/2000/svg" viewBox="0 0 176.76 24.56"><polygon points="18.9 10.72 17.89 12.43 19.02 13.93 21.1 10.38 19.82 7.75 22.51 7.75 24.22 4.54 33.64 4.54 31.89 0 23.07 0 19.98 5.39 11.76 8.04 0 16.2 9.98 12.28 8.26 16.2 12.79 18.8 14.21 16.2 17.89 8.97 18.9 10.72" style="fill:#f4bd07"/><polygon points="0 16.2 8.26 16.2 9.98 12.28 0 16.2" style="fill:#22293b"/><polygon points="5.6 18.04 2.95 24.56 8.36 24.56 8.92 19.9 12.79 18.8 8.26 16.2 5.6 18.04" style="fill:#22293b"/><path d="M18.78,30.55l0,.06,0,.06c.07.13,1,2.31,1.55,3.74l0,.07h4.7l-2.7-3.88,1.19-2.11L21.77,26l2.42-4.4.53.81-1.06,1.86,1.2,1.62,2.33-3.83-1.64-2.93.88-1.6,6.24-.13,1.95-2.95H25.2l-1.71,3.22h-2.7l1.29,2.63L20,23.86l-1.13-1.5,1-1.72-1-1.74-3.68,7.23h6.24Zm5.57-9.46Z" transform="translate(-0.98 -9.92)" style="fill:#22293b"/><polygon points="24.34 1.13 25.98 2.7 27.08 1.13 24.34 1.13" style="fill:#22293b"/><path d="M38.69,34.42V9.94h4.92L53.69,23.72H54V9.94h5.84V34.42H55L44.85,20.51h-.32V34.42Z" transform="translate(-0.98 -9.92)" style="fill:#22293b"/><path d="M65.53,34.42V9.94H82v5H71.69v5.58H81V25.3H71.69v9.12Z" transform="translate(-0.98 -9.92)" style="fill:#22293b"/><path d="M92.15,34.42V15h-7v-5h20.1v5h-7V34.42Z" transform="translate(-0.98 -9.92)" style="fill:#22293b"/><path d="M115.81,34.42h-6.16V9.94H120.3c5.65,0,9,3,9,8.08a7.34,7.34,0,0,1-4.13,6.92L130,34.42h-6.91L119,25.86h-3.18Zm0-13h3.64c2.26,0,3.6-1.27,3.6-3.39a3.3,3.3,0,0,0-3.62-3.43h-3.62Z" transform="translate(-0.98 -9.92)" style="fill:#22293b"/><path d="M150.81,34.42H134.23V9.94h16.58v5H140.38v4.88h9.81v4.58h-9.81v5h10.43Z" transform="translate(-0.98 -9.92)" style="fill:#22293b"/><path d="M162.09,22.07,154.68,9.94h7.18l4.34,8.11h.32l4.37-8.11h6.85L170,22.14l7.66,12.28h-6.93l-4.59-7.75h-.32l-4.63,7.75h-6.54Z" transform="translate(-0.98 -9.92)" style="fill:#22293b"/></svg>