<svg width="170" height="46" xmlns="http://www.w3.org/2000/svg" viewBox="0 0 139.14 19.33"><polygon points="14.88 8.44 14.08 9.79 14.97 10.97 16.61 8.17 15.6 6.1 17.72 6.1 19.07 3.57 26.48 3.57 25.11 0 18.16 0 15.73 4.24 9.26 6.33 0 12.76 7.86 9.67 6.5 12.76 10.07 14.8 11.18 12.76 14.08 7.07 14.88 8.44" style="fill:#f4bd07"/><polygon points="0 12.76 6.5 12.76 7.86 9.67 0 12.76" style="fill:#fff"/><polygon points="4.41 14.2 2.32 19.34 6.58 19.34 7.02 15.66 10.07 14.8 6.5 12.76 4.41 14.2" style="fill:#fff"/><path d="M14.54,26.59l0,.05,0,.05c.06.1.77,1.82,1.22,2.95l0,.05h3.7l-2.13-3.06L18.3,25,16.89,23l1.91-3.46.41.64-.83,1.46.94,1.27,1.83-3-1.28-2.31.69-1.25,4.91-.11L27,13.93H19.59l-1.35,2.53H16.12l1,2.07-1.64,2.8-.89-1.18.79-1.35-.79-1.38-2.9,5.7h4.92Zm4.38-7.44Z" transform="translate(-0.52 -10.36)" style="fill:#fff"/><polygon points="19.16 0.89 20.45 2.13 21.32 0.89 19.16 0.89" style="fill:#fff"/><path d="M30.21,29.65V10.36h3.87L42,21.21h.25V10.36h4.6V29.65H43l-8-11h-.25v11Z" transform="translate(-0.52 -10.36)" style="fill:#fff"/><path d="M51.34,29.65V10.36h13V14.3H56.19v4.4h7.36v3.76H56.19v7.19Z" transform="translate(-0.52 -10.36)" style="fill:#fff"/><path d="M72.3,29.65V14.3H66.81V10.36H82.63V14.3h-5.5V29.65Z" transform="translate(-0.52 -10.36)" style="fill:#fff"/><path d="M90.92,29.65H86.07V10.36h8.39c4.44,0,7.11,2.38,7.11,6.36a5.76,5.76,0,0,1-3.25,5.45l3.8,7.48H96.69L93.43,22.9H90.92Zm0-10.22h2.86a2.53,2.53,0,0,0,2.84-2.67,2.6,2.6,0,0,0-2.85-2.7H90.92Z" transform="translate(-0.52 -10.36)" style="fill:#fff"/><path d="M118.47,29.65h-13V10.36h13V14.3h-8.21v3.85H118v3.61h-7.73V25.7h8.21Z" transform="translate(-0.52 -10.36)" style="fill:#fff"/><path d="M127.35,19.92l-5.83-9.56h5.65l3.42,6.39h.25l3.44-6.39h5.39L133.58,20l6,9.68h-5.46l-3.61-6.11h-.25l-3.65,6.11h-5.14Z" transform="translate(-0.52 -10.36)" style="fill:#fff"/></svg>