<svg width="18" height="21" viewBox="0 0 18 21" fill="none" xmlns="http://www.w3.org/2000/svg">
<path d="M1.69173 4.23792L7.30349 0.709363C7.92148 0.320787 8.23047 0.126498 8.55904 0.0504591C8.84976 -0.0168197 9.15024 -0.0168197 9.44096 0.0504591C9.76953 0.126498 10.0785 0.320787 10.6965 0.709363L16.3083 4.23792C16.9246 4.62546 17.2328 4.81923 17.4569 5.0901C17.6552 5.32976 17.805 5.61203 17.8965 5.91862C18 6.26512 18 6.65211 18 7.42609V13.5739C18 14.3479 18 14.7349 17.8965 15.0814C17.805 15.388 17.6552 15.6702 17.4569 15.9099C17.2328 16.1808 16.9246 16.3745 16.3083 16.7621L10.6965 20.2906C10.0785 20.6792 9.76953 20.8735 9.44096 20.9495C9.15024 21.0168 8.84976 21.0168 8.55904 20.9495C8.23048 20.8735 7.92147 20.6792 7.3035 20.2906L1.69173 16.7621C1.0754 16.3745 0.76723 16.1808 0.543121 15.9099C0.344828 15.6702 0.19505 15.388 0.103485 15.0814C0 14.7349 0 14.3479 0 13.5739L0 7.4261C0 6.65211 0 6.26512 0.103485 5.91862C0.19505 5.61203 0.344828 5.32976 0.543121 5.0901C0.76723 4.81923 1.0754 4.62546 1.69173 4.23792Z" fill="url(#paint0_linear)"/>
<defs>
<linearGradient id="paint0_linear" x1="17.7399" y1="21" x2="-1.18531" y2="19.6047" gradientUnits="userSpaceOnUse">
<stop stop-color="#FFDC67"/>
<stop offset="1" stop-color="#F0B90B"/>
</linearGradient>
</defs>
</svg>
