<svg width="7" height="8" viewBox="0 0 7 8" fill="none" xmlns="http://www.w3.org/2000/svg">
<path d="M0.657894 1.61445L2.84025 0.270234C3.08058 0.122204 3.20074 0.0481899 3.32852 0.0192225C3.44157 -0.0064075 3.55843 -0.0064075 3.67148 0.0192225C3.79926 0.0481899 3.91942 0.122204 4.15975 0.270233L6.34211 1.61445C6.58179 1.76208 6.70163 1.8359 6.78879 1.93908C6.8659 2.03039 6.92415 2.13792 6.95976 2.25471C7 2.38671 7 2.53414 7 2.82899V5.17101C7 5.46586 7 5.61329 6.95976 5.74529C6.92415 5.86208 6.8659 5.96961 6.78879 6.06092C6.70163 6.1641 6.58179 6.23792 6.34211 6.38555L4.15975 7.72977C3.91943 7.8778 3.79926 7.95181 3.67148 7.98078C3.55843 8.00641 3.44157 8.00641 3.32852 7.98078C3.20074 7.95181 3.08057 7.87779 2.84025 7.72977L0.657895 6.38555C0.41821 6.23792 0.298367 6.1641 0.211214 6.06092C0.1341 5.96961 0.0758528 5.86208 0.0402443 5.74529C0 5.61329 0 5.46586 0 5.17101L0 2.82899C0 2.53414 0 2.38671 0.0402443 2.25471C0.0758528 2.13792 0.1341 2.03039 0.211214 1.93908C0.298367 1.8359 0.41821 1.76208 0.657894 1.61445Z" fill="url(#paint0_linear)"/>
<defs>
<linearGradient id="paint0_linear" x1="6.89884" y1="8" x2="-0.459281" y2="7.44619" gradientUnits="userSpaceOnUse">
<stop stop-color="#FFDC67"/>
<stop offset="1" stop-color="#F0B90B"/>
</linearGradient>
</defs>
</svg>
