<svg width="22" height="32" viewBox="0 0 22 32" fill="none" xmlns="http://www.w3.org/2000/svg">
<path d="M18.2249 27.4563C17.7307 29.087 17.4836 29.9023 16.9977 30.5066C16.5687 31.04 16.01 31.4545 15.3751 31.7103C14.6559 32 13.8039 32 12.1 32L6.4 32C4.15979 32 3.03969 32 2.18404 31.5641C1.43139 31.1806 0.819467 30.5686 0.435974 29.816C-2.65738e-07 28.9603 -3.6366e-07 27.8402 -5.59506e-07 25.6L-2.23802e-06 6.40003C-2.43387e-06 4.15982 -2.53179e-06 3.03972 0.435972 2.18407C0.819465 1.43142 1.43139 0.8195 2.18404 0.436006C3.03968 3.21751e-05 4.15979 3.20772e-05 6.4 3.18814e-05L12.2791 3.13674e-05C13.923 3.12237e-05 14.745 3.11518e-05 15.4462 0.273598C16.0655 0.515196 16.6147 0.907309 17.0444 1.41449C17.5309 1.98879 17.7979 2.76619 18.332 4.32099L21.3281 13.044C21.5776 13.7702 21.7023 14.1333 21.756 14.5056C21.8037 14.836 21.8098 15.1711 21.7743 15.503C21.7342 15.8771 21.6228 16.2445 21.4001 16.9793L18.2249 27.4563Z" fill="#F12F43"/>
</svg>
