<svg id="Capa_1" data-name="Capa 1" xmlns="http://www.w3.org/2000/svg" xmlns:xlink="http://www.w3.org/1999/xlink" viewBox="0 0 296.3 319.25"><defs><linearGradient id="Degradado_sin_nombre" x1="404.05" y1="845.09" x2="144.11" y2="1116.86" gradientTransform="translate(0 -758)" gradientUnits="userSpaceOnUse"><stop offset="0" stop-color="#292728"/><stop offset="0.58" stop-color="#434142"/><stop offset="1" stop-color="#8a8a8a"/></linearGradient><linearGradient id="Degradado_sin_nombre_2" x1="266.66" y1="713.68" x2="6.72" y2="985.46" xlink:href="#Degradado_sin_nombre"/><linearGradient id="Degradado_sin_nombre_3" x1="335.35" y1="779.39" x2="75.41" y2="1051.16" xlink:href="#Degradado_sin_nombre"/><linearGradient id="Degradado_sin_nombre_4" x1="202.65" y1="652.46" x2="-57.29" y2="924.23" xlink:href="#Degradado_sin_nombre"/><linearGradient id="Degradado_sin_nombre_5" x1="325.88" y1="770.33" x2="65.95" y2="1042.1" xlink:href="#Degradado_sin_nombre"/><linearGradient id="Degradado_sin_nombre_6" x1="339.4" y1="783.26" x2="79.46" y2="1055.03" xlink:href="#Degradado_sin_nombre"/><linearGradient id="Degradado_sin_nombre_7" x1="462.6" y1="901.09" x2="202.66" y2="1172.87" xlink:href="#Degradado_sin_nombre"/><linearGradient id="Degradado_sin_nombre_15" x1="55.74" y1="1018.06" x2="57.12" y2="810.52" gradientTransform="translate(0 -758)" gradientUnits="userSpaceOnUse"><stop offset="0" stop-color="#5e5d5e"/><stop offset="0.16" stop-color="#2e2e2e"/><stop offset="0.36" stop-color="#242327"/><stop offset="0.83" stop-color="#615f60"/><stop offset="0.92" stop-color="#1d1d21"/><stop offset="1" stop-color="#151619"/></linearGradient><linearGradient id="Degradado_sin_nombre_16" x1="136.22" y1="710.93" x2="377.8" y2="992.05" gradientTransform="translate(0 -758)" gradientUnits="userSpaceOnUse"><stop offset="0" stop-color="#292728"/><stop offset="0.63" stop-color="#434142"/><stop offset="1" stop-color="#8a8a8a"/></linearGradient><linearGradient id="Degradado_sin_nombre_17" x1="-15.01" y1="840.89" x2="226.57" y2="1122.01" xlink:href="#Degradado_sin_nombre_16"/><linearGradient id="Degradado_sin_nombre_18" x1="60.68" y1="775.84" x2="302.26" y2="1056.97" xlink:href="#Degradado_sin_nombre_16"/><linearGradient id="Degradado_sin_nombre_23" x1="322.29" y1="810.74" x2="319.93" y2="1024.69" xlink:href="#Degradado_sin_nombre_15"/><linearGradient id="Degradado_sin_nombre_24" x1="287.76" y1="802.52" x2="57.45" y2="1007.7" gradientTransform="translate(0 -758)" gradientUnits="userSpaceOnUse"><stop offset="0" stop-color="#f8f8f8"/><stop offset="1" stop-color="#bebebe"/></linearGradient><linearGradient id="Degradado_sin_nombre_25" x1="249.07" y1="759.08" x2="18.75" y2="964.26" xlink:href="#Degradado_sin_nombre_24"/><linearGradient id="Degradado_sin_nombre_26" x1="341.21" y1="862.51" x2="110.89" y2="1067.69" xlink:href="#Degradado_sin_nombre_24"/><linearGradient id="Degradado_sin_nombre_27" x1="302.53" y1="819.1" x2="72.22" y2="1024.28" xlink:href="#Degradado_sin_nombre_24"/><linearGradient id="Degradado_sin_nombre_32" x1="109" y1="788.12" x2="254.82" y2="1048.49" gradientTransform="translate(0 -758)" gradientUnits="userSpaceOnUse"><stop offset="0" stop-color="#343434"/><stop offset="1" stop-color="#bebebe"/></linearGradient><linearGradient id="Degradado_sin_nombre_90" x1="285.3" y1="1047.2" x2="285.3" y2="1047.2" gradientTransform="translate(0 -758)" gradientUnits="userSpaceOnUse"><stop offset="0" stop-color="#ffdc67"/><stop offset="1" stop-color="#f0b90b"/></linearGradient><linearGradient id="Degradado_sin_nombre_16-2" x1="57.71" y1="778.4" x2="299.29" y2="1059.52" xlink:href="#Degradado_sin_nombre_16"/><linearGradient id="Degradado_sin_nombre_16-3" x1="194.15" y1="661.15" x2="435.73" y2="942.27" xlink:href="#Degradado_sin_nombre_16"/><linearGradient id="Degradado_sin_nombre_16-4" x1="-72.94" y1="890.67" x2="168.64" y2="1171.79" xlink:href="#Degradado_sin_nombre_16"/><linearGradient id="Degradado_sin_nombre_16-5" x1="63.5" y1="773.42" x2="305.08" y2="1054.54" xlink:href="#Degradado_sin_nombre_16"/></defs><path d="M330.4,57.2,325.7,60V270.3l4.7,2.8Z" transform="translate(-40.5 -0.92)" style="fill:url(#Degradado_sin_nombre)"/><path d="M65.3,57.2,70,60V270.3l-4.7,2.8Z" transform="translate(-40.5 -0.92)" style="fill:url(#Degradado_sin_nombre_2)"/><path d="M76.7,19.8H319V310.5H76.7Z" transform="translate(-40.5 -0.92)" style="fill:url(#Degradado_sin_nombre_3)"/><path d="M62.7,19.3l12.7-7.7c1.4-.8-14.8-10.3-14.1-10.5a6.7,6.7,0,0,1,2,0,14,14,0,0,1,2.8,1.4L95.7,19.2a9.07,9.07,0,0,1,2.6,1.9,5.24,5.24,0,0,1,1,1.8,13.81,13.81,0,0,1,.2,3.3V39.6a13.81,13.81,0,0,1-.2,3.3,4,4,0,0,1-1,1.8,11.5,11.5,0,0,1-2.6,1.9L83,54.3a10,10,0,0,1-2.8,1.4,6.7,6.7,0,0,1-2,0,14,14,0,0,1-2.8-1.4L62.7,46.6a9.07,9.07,0,0,1-2.6-1.9,5.24,5.24,0,0,1-1-1.8,13.81,13.81,0,0,1-.2-3.3V26.2a13.81,13.81,0,0,1,.2-3.3,4,4,0,0,1,1-1.8A9.26,9.26,0,0,1,62.7,19.3Z" transform="translate(-40.5 -0.92)" style="fill:url(#Degradado_sin_nombre_4)"/><path d="M299.9,19.3,294.6,2.4A10,10,0,0,1,297.4,1a6.7,6.7,0,0,1,2,0,14,14,0,0,1,2.8,1.4L333,19.3a9.07,9.07,0,0,1,2.6,1.9,5.24,5.24,0,0,1,1,1.8,13.81,13.81,0,0,1,.2,3.3V39.7a13.81,13.81,0,0,1-.2,3.3,4,4,0,0,1-1,1.8,11.5,11.5,0,0,1-2.6,1.9l-12.7,7.7a10,10,0,0,1-2.8,1.4,6.7,6.7,0,0,1-2,0,14,14,0,0,1-2.8-1.4L300,46.7a9.07,9.07,0,0,1-2.6-1.9,5.24,5.24,0,0,1-1-1.8,13.81,13.81,0,0,1-.2-3.3V26.2a13.81,13.81,0,0,1,.2-3.3,4,4,0,0,1,1-1.8A7.2,7.2,0,0,1,299.9,19.3Z" transform="translate(-40.5 -0.92)" style="fill:url(#Degradado_sin_nombre_5)"/><path d="M62.7,283.6l12.7-7.7a10,10,0,0,1,2.8-1.4,6.7,6.7,0,0,1,2,0,14,14,0,0,1,2.8,1.4l12.7,7.7a9.07,9.07,0,0,1,2.6,1.9,5.24,5.24,0,0,1,1,1.8,13.81,13.81,0,0,1,.2,3.3V304a13.81,13.81,0,0,1-.2,3.3,4,4,0,0,1-1,1.8,11.5,11.5,0,0,1-2.6,1.9L83,318.7a10,10,0,0,1-2.8,1.4,6.7,6.7,0,0,1-2,0,14,14,0,0,1-2.8-1.4l-15.6-7.2a9.07,9.07,0,0,1-2.6-1.9,5.24,5.24,0,0,1-1-1.8,13.81,13.81,0,0,1-.2-3.3l2.9-13.9a13.81,13.81,0,0,1,.2-3.3,4,4,0,0,1,1-1.8A11.5,11.5,0,0,1,62.7,283.6Z" transform="translate(-40.5 -0.92)" style="fill:url(#Degradado_sin_nombre_6)"/><path d="M299.9,283.6l12.7-7.7a10,10,0,0,1,2.8-1.4,6.7,6.7,0,0,1,2,0,14,14,0,0,1,2.8,1.4l10.5,7.4a9.07,9.07,0,0,1,2.6,1.9,5.24,5.24,0,0,1,1,1.8,13.81,13.81,0,0,1,.2,3.3v13.4a13.81,13.81,0,0,1-.2,3.3,4,4,0,0,1-1,1.8,11.5,11.5,0,0,1-2.6,1.9l-12.4,7.1a10,10,0,0,1-2.8,1.4,6.7,6.7,0,0,1-2,0,14,14,0,0,1-2.8-1.4L296.8,311a9.07,9.07,0,0,1-2.6-1.9,5.24,5.24,0,0,1-1-1.8c-.2-.8,2.8-1.6,2.8-3.3V290.6a13.81,13.81,0,0,1,.2-3.3,4,4,0,0,1,1-1.8A16.34,16.34,0,0,1,299.9,283.6Z" transform="translate(-40.5 -0.92)" style="fill:url(#Degradado_sin_nombre_7)"/><path d="M46.9,264.3l18.8,8.6L65.5,57.1,47.1,48.3Z" transform="translate(-40.5 -0.92)" style="fill:url(#Degradado_sin_nombre_15)"/><path d="M62.9,267l-11.4-5.8-4.6,2.9,9.8,4.6Z" transform="translate(-40.5 -0.92)" style="fill:#333132;fill-opacity:0.6000000238418579"/><path d="M312,48.2,307.3,51V261.3l4.7,2.8Z" transform="translate(-40.5 -0.92)" style="fill:url(#Degradado_sin_nombre_16)"/><path d="M46.8,48.2,51.5,51V261.3l-4.7,2.8Z" transform="translate(-40.5 -0.92)" style="fill:url(#Degradado_sin_nombre_17)"/><path d="M58.3,10.7H300.6V301.4H58.3Z" transform="translate(-40.5 -0.92)" style="fill:url(#Degradado_sin_nombre_18)"/><path d="M330.3,57.5l-18.5-9.2L312,264l18.4,8.8Z" transform="translate(-40.5 -0.92)" style="fill:url(#Degradado_sin_nombre_23)"/><path d="M278.8,36.9a4.2,4.2,0,0,1-2-3.6V21.1H162.6V177H290.5V43.8Z" transform="translate(-40.5 -0.92)" style="fill:url(#Degradado_sin_nombre_24)"/><path d="M80,36.9a4.2,4.2,0,0,0,2-3.6V21.1H196.2V177H68.4V43.8Z" transform="translate(-40.5 -0.92)" style="fill:url(#Degradado_sin_nombre_25)"/><path d="M278.8,274.9a4.2,4.2,0,0,0-2,3.6v12.2H162.6V134.8H290.5V268Z" transform="translate(-40.5 -0.92)" style="fill:url(#Degradado_sin_nombre_26)"/><path d="M80,274.9a4.2,4.2,0,0,1,2,3.6v12.2H196.2V134.8H68.4V268Z" transform="translate(-40.5 -0.92)" style="fill:url(#Degradado_sin_nombre_27)"/><path d="M80.7,18.7,96.2,35.6l2.1,15.9L81.1,36.4Z" transform="translate(-40.5 -0.92)" style="fill:#302e2f;fill-opacity:0.1899999976158142"/><path d="M285,27.5,263,49.1l6.8,15.3,22.1-21.9Z" transform="translate(-40.5 -0.92)" style="fill:#fff"/><path d="M257.5,40l19.9-19.6,6.7,8.2L259.8,53.1Z" transform="translate(-40.5 -0.92)" style="fill:#bcbcbc"/><path d="M99.3,52.2,81,36,65.4,40.3,83.6,59.1Z" transform="translate(-40.5 -0.92)" style="fill:#fff;fill-opacity:0.6600000262260437"/><path d="M279.4,293.6l-16.8-17.5L261.2,261l17.2,15.1Z" transform="translate(-40.5 -0.92)" style="fill:#302e2f;fill-opacity:0.1899999976158142"/><path d="M73.4,284.3l22-21.6-6.8-15.3L66.5,269.3Z" transform="translate(-40.5 -0.92)" style="fill:#fff"/><path d="M100.9,271.8,81,291.4l-6.7-8.2,24.3-24.5Z" transform="translate(-40.5 -0.92)" style="fill:#bcbcbc"/><path d="M260.3,260.3l18.4,16.2,15.6-4.3-18.2-18.8Z" transform="translate(-40.5 -0.92)" style="fill:#fff;fill-opacity:0.6600000262260437"/><path d="M263.4,35V47.2a4.2,4.2,0,0,0,2,3.6L277,57.7V254.1L265.4,261a4.2,4.2,0,0,0-2,3.6v12.2H95.5V264.6a4.2,4.2,0,0,0-2-3.6l-11.6-6.9V57.7l11.6-6.9a4.2,4.2,0,0,0,2-3.6V35H263.4Z" transform="translate(-40.5 -0.92)" style="fill:url(#Degradado_sin_nombre_32)"/><path d="M263.4,35V47.2a4.2,4.2,0,0,0,2,3.6L277,57.7V254.1L265.4,261a4.2,4.2,0,0,0-2,3.6v12.2H95.5V264.6a4.2,4.2,0,0,0-2-3.6l-11.6-6.9V57.7l11.6-6.9a4.2,4.2,0,0,0,2-3.6V35ZM96.9,36.4V47.1a5.5,5.5,0,0,1-2.7,4.8L83.3,58.4V253.2l10.9,6.5a5.62,5.62,0,0,1,2.7,4.8v10.7h165V264.5a5.5,5.5,0,0,1,2.7-4.8l10.9-6.5V58.5L264.6,52a5.62,5.62,0,0,1-2.7-4.8V36.4Z" transform="translate(-40.5 -0.92)" style="fill:#343233;fill-opacity:0.27000001072883606;fill-rule:evenodd"/><path d="M263.4,35V47.2a4.2,4.2,0,0,0,2,3.6L277,57.7V254.1L265.4,261a4.2,4.2,0,0,0-2,3.6v12.2H95.5V264.6a4.2,4.2,0,0,0-2-3.6l-11.6-6.9V57.7l11.6-6.9a4.2,4.2,0,0,0,2-3.6V35ZM96.9,36.4V47.1a5.5,5.5,0,0,1-2.7,4.8L83.3,58.4V253.2l10.9,6.5a5.62,5.62,0,0,1,2.7,4.8v10.7h165V264.5a5.5,5.5,0,0,1,2.7-4.8l10.9-6.5V58.5L264.6,52a5.62,5.62,0,0,1-2.7-4.8V36.4Z" transform="translate(-40.5 -0.92)" style="fill:#343233;fill-opacity:0.30000001192092896;fill-rule:evenodd"/><path d="M285.3,289.2Z" transform="translate(-40.5 -0.92)" style="fill-rule:evenodd;fill:url(#Degradado_sin_nombre_90)"/><path d="M44.3,10.3,57,2.6a10,10,0,0,1,2.8-1.4,6.7,6.7,0,0,1,2,0,14,14,0,0,1,2.8,1.4l12.7,7.7a9.07,9.07,0,0,1,2.6,1.9,5.24,5.24,0,0,1,1,1.8,13.81,13.81,0,0,1,.2,3.3V30.7a13.81,13.81,0,0,1-.2,3.3,4,4,0,0,1-1,1.8,11.5,11.5,0,0,1-2.6,1.9L64.6,45.4a10,10,0,0,1-2.8,1.4,6.7,6.7,0,0,1-2,0A14,14,0,0,1,57,45.4L44.3,37.7a9.07,9.07,0,0,1-2.6-1.9,5.24,5.24,0,0,1-1-1.8,13.81,13.81,0,0,1-.2-3.3V17.2a13.81,13.81,0,0,1,.2-3.3,4,4,0,0,1,1-1.8A9.26,9.26,0,0,1,44.3,10.3Z" transform="translate(-40.5 -0.92)" style="fill:url(#Degradado_sin_nombre_16-2)"/><path d="M281.5,10.3l12.7-7.7A10,10,0,0,1,297,1.2a6.7,6.7,0,0,1,2,0,14,14,0,0,1,2.8,1.4l12.7,7.7a9.07,9.07,0,0,1,2.6,1.9,5.24,5.24,0,0,1,1,1.8,13.81,13.81,0,0,1,.2,3.3V30.7a13.81,13.81,0,0,1-.2,3.3,4,4,0,0,1-1,1.8,11.5,11.5,0,0,1-2.6,1.9l-12.7,7.7a10,10,0,0,1-2.8,1.4,6.7,6.7,0,0,1-2,0,14,14,0,0,1-2.8-1.4l-12.7-7.7a9.07,9.07,0,0,1-2.6-1.9,5.24,5.24,0,0,1-1-1.8,13.81,13.81,0,0,1-.2-3.3V17.2a13.81,13.81,0,0,1,.2-3.3,4,4,0,0,1,1-1.8A9.26,9.26,0,0,1,281.5,10.3Z" transform="translate(-40.5 -0.92)" style="fill:url(#Degradado_sin_nombre_16-3)"/><path d="M44.3,274.6,57,266.9a10,10,0,0,1,2.8-1.4,6.7,6.7,0,0,1,2,0,14,14,0,0,1,2.8,1.4l12.7,7.7a9.07,9.07,0,0,1,2.6,1.9,5.24,5.24,0,0,1,1,1.8,13.81,13.81,0,0,1,.2,3.3V295a13.81,13.81,0,0,1-.2,3.3,4,4,0,0,1-1,1.8,11.5,11.5,0,0,1-2.6,1.9l-12.7,7.7a10,10,0,0,1-2.8,1.4,6.7,6.7,0,0,1-2,0,14,14,0,0,1-2.8-1.4L44.3,302a9.07,9.07,0,0,1-2.6-1.9,5.24,5.24,0,0,1-1-1.8,13.81,13.81,0,0,1-.2-3.3V281.6a13.81,13.81,0,0,1,.2-3.3,4,4,0,0,1,1-1.8A9.07,9.07,0,0,1,44.3,274.6Z" transform="translate(-40.5 -0.92)" style="fill:url(#Degradado_sin_nombre_16-4)"/><path d="M281.5,274.6l12.7-7.7a10,10,0,0,1,2.8-1.4,6.7,6.7,0,0,1,2,0,14,14,0,0,1,2.8,1.4l12.7,7.7a9.07,9.07,0,0,1,2.6,1.9,5.24,5.24,0,0,1,1,1.8,13.81,13.81,0,0,1,.2,3.3V295a13.81,13.81,0,0,1-.2,3.3,4,4,0,0,1-1,1.8,11.5,11.5,0,0,1-2.6,1.9l-12.7,7.7a10,10,0,0,1-2.8,1.4,6.7,6.7,0,0,1-2,0,14,14,0,0,1-2.8-1.4L281.5,302a9.07,9.07,0,0,1-2.6-1.9,5.24,5.24,0,0,1-1-1.8,13.81,13.81,0,0,1-.2-3.3V281.6a13.81,13.81,0,0,1,.2-3.3,4,4,0,0,1,1-1.8A9.07,9.07,0,0,1,281.5,274.6Z" transform="translate(-40.5 -0.92)" style="fill:url(#Degradado_sin_nombre_16-5)"/></svg>