<?xml version="1.0" encoding="utf-8"?>
<!-- Generator: Adobe Illustrator 25.0.1, SVG Export Plug-In . SVG Version: 6.00 Build 0)  -->
<svg version="1.1" id="Capa_1" xmlns="http://www.w3.org/2000/svg" xmlns:xlink="http://www.w3.org/1999/xlink" x="0px" y="0px"
	 viewBox="0 0 397 321" style="enable-background:new 0 0 397 321;" xml:space="preserve">
<style type="text/css">
	.st0{fill:url(#SVGID_1_);}
	.st1{fill:url(#SVGID_2_);}
	.st2{fill:url(#SVGID_3_);}
	.st3{fill:url(#SVGID_4_);}
	.st4{fill:url(#SVGID_5_);}
	.st5{fill:url(#SVGID_6_);}
	.st6{fill:url(#SVGID_7_);}
	.st7{fill:url(#SVGID_8_);filter:url(#Adobe_OpacityMaskFilter);}
	.st8{fill:url(#SVGID_9_);}
	.st9{fill:url(#SVGID_10_);}
	.st10{fill:url(#SVGID_11_);}
	.st11{fill:url(#SVGID_12_);}
	.st12{fill:url(#SVGID_13_);}
	.st13{fill:url(#SVGID_14_);}
	.st14{mask:url(#mask0_1_);}
	.st15{fill:#FFFFFF;fill-opacity:0.11;}
	.st16{fill:#6E6D6D;}
	.st17{fill:#FFFFFF;fill-opacity:0.28;}
	.st18{fill:url(#SVGID_15_);}
	.st19{fill:#333132;fill-opacity:0.6;}
	.st20{fill:url(#SVGID_16_);}
	.st21{fill:url(#SVGID_17_);}
	.st22{fill:url(#SVGID_18_);}
	.st23{fill:url(#SVGID_19_);}
	.st24{fill:url(#SVGID_20_);}
	.st25{fill:url(#SVGID_21_);}
	.st26{fill:url(#SVGID_22_);}
	.st27{fill:url(#SVGID_23_);}
	.st28{fill:url(#SVGID_24_);}
	.st29{fill:url(#SVGID_25_);}
	.st30{fill:url(#SVGID_26_);}
	.st31{fill:url(#SVGID_27_);}
	.st32{fill:url(#SVGID_28_);filter:url(#Adobe_OpacityMaskFilter_1_);}
	.st33{fill:url(#SVGID_29_);}
	.st34{fill:url(#SVGID_30_);}
	.st35{fill:url(#SVGID_31_);}
	.st36{mask:url(#mask1_1_);}
	.st37{fill:#302E2F;fill-opacity:0.19;}
	.st38{fill:#FFFFFF;}
	.st39{fill:#BCBCBC;}
	.st40{fill:#FFFFFF;fill-opacity:0.66;}
	.st41{fill:url(#SVGID_32_);}
	.st42{fill-rule:evenodd;clip-rule:evenodd;fill:#343233;fill-opacity:0.27;}
	.st43{fill:url(#SVGID_33_);filter:url(#Adobe_OpacityMaskFilter_2_);}
	.st44{mask:url(#mask2_1_);}
	.st45{fill:url(#SVGID_34_);}
	.st46{fill:#1F1F1F;fill-opacity:0.29;}
	.st47{fill:url(#SVGID_35_);}
	.st48{fill:url(#SVGID_36_);}
	.st49{fill:url(#SVGID_37_);}
	.st50{fill:url(#SVGID_38_);}
	.st51{fill:url(#SVGID_39_);}
	.st52{fill:url(#SVGID_40_);}
	.st53{fill:url(#SVGID_41_);}
	.st54{fill:url(#SVGID_42_);}
	.st55{fill:url(#SVGID_43_);}
	.st56{fill:url(#SVGID_44_);}
	.st57{fill:url(#SVGID_45_);}
	.st58{fill:url(#SVGID_46_);}
	.st59{fill:url(#SVGID_47_);}
	.st60{fill:url(#SVGID_48_);}
	.st61{fill:url(#SVGID_49_);}
	.st62{fill:url(#SVGID_50_);}
	.st63{fill:url(#SVGID_51_);}
	.st64{fill:url(#SVGID_52_);}
	.st65{fill:url(#SVGID_53_);}
	.st66{fill:url(#SVGID_54_);}
	.st67{fill:url(#SVGID_55_);}
	.st68{fill:url(#SVGID_56_);}
	.st69{fill:url(#SVGID_57_);}
	.st70{fill:url(#SVGID_58_);}
	.st71{fill:url(#SVGID_59_);}
	.st72{fill:url(#SVGID_60_);}
	.st73{fill:url(#SVGID_61_);}
	.st74{fill:url(#SVGID_62_);}
	.st75{fill:url(#SVGID_63_);}
	.st76{fill:url(#SVGID_64_);}
	.st77{fill:url(#SVGID_65_);}
	.st78{fill:url(#SVGID_66_);}
	.st79{fill:url(#SVGID_67_);}
	.st80{fill:url(#SVGID_68_);}
	.st81{fill:url(#SVGID_69_);}
	.st82{fill:url(#SVGID_70_);}
	.st83{fill:url(#SVGID_71_);}
	.st84{fill:url(#SVGID_72_);}
	.st85{fill:url(#SVGID_73_);}
	.st86{fill:url(#SVGID_74_);}
	.st87{fill:url(#SVGID_75_);}
	.st88{fill:url(#SVGID_76_);}
	.st89{fill:url(#SVGID_77_);}
	.st90{fill:url(#SVGID_78_);}
	.st91{fill:url(#SVGID_79_);}
	.st92{fill:url(#SVGID_80_);}
	.st93{fill:url(#SVGID_81_);}
	.st94{fill:url(#SVGID_82_);}
	.st95{fill:url(#SVGID_83_);}
	.st96{fill:url(#SVGID_84_);}
	.st97{fill:url(#SVGID_85_);}
	.st98{fill:url(#SVGID_86_);}
	.st99{fill:url(#SVGID_87_);}
	.st100{fill:url(#SVGID_88_);}
	.st101{fill:url(#SVGID_89_);}
	.st102{fill-rule:evenodd;clip-rule:evenodd;fill:#343233;fill-opacity:0.3;}
	.st103{fill-rule:evenodd;clip-rule:evenodd;fill:url(#SVGID_90_);}
</style>
<linearGradient id="SVGID_1_" gradientUnits="userSpaceOnUse" x1="404.0158" y1="234.9396" x2="144.078" y2="-36.8332" gradientTransform="matrix(1 0 0 -1 0 322)">
	<stop  offset="0" style="stop-color:#292728"/>
	<stop  offset="0.5795" style="stop-color:#434142"/>
	<stop  offset="1" style="stop-color:#8A8A8A"/>
</linearGradient>
<path class="st0" d="M330.4,57.2l-4.7,2.8v210.3l4.7,2.8V57.2z"/>
<linearGradient id="SVGID_2_" gradientUnits="userSpaceOnUse" x1="266.624" y1="366.3484" x2="6.6861" y2="94.5755" gradientTransform="matrix(1 0 0 -1 0 322)">
	<stop  offset="0" style="stop-color:#292728"/>
	<stop  offset="0.5795" style="stop-color:#434142"/>
	<stop  offset="1" style="stop-color:#8A8A8A"/>
</linearGradient>
<path class="st1" d="M65.3,57.2l4.7,2.8v210.3l-4.7,2.8V57.2z"/>
<linearGradient id="SVGID_3_" gradientUnits="userSpaceOnUse" x1="335.3199" y1="300.644" x2="75.3821" y2="28.8711" gradientTransform="matrix(1 0 0 -1 0 322)">
	<stop  offset="0" style="stop-color:#292728"/>
	<stop  offset="0.5795" style="stop-color:#434142"/>
	<stop  offset="1" style="stop-color:#8A8A8A"/>
</linearGradient>
<path class="st2" d="M76.7,19.8H319v290.7H76.7V19.8z"/>
<linearGradient id="SVGID_4_" gradientUnits="userSpaceOnUse" x1="202.6862" y1="427.5018" x2="-57.2516" y2="155.729" gradientTransform="matrix(1 0 0 -1 0 322)">
	<stop  offset="0" style="stop-color:#292728"/>
	<stop  offset="0.5795" style="stop-color:#434142"/>
	<stop  offset="1" style="stop-color:#8A8A8A"/>
</linearGradient>
<path class="st3" d="M62.7,19.3l12.7-7.7c1.4-0.8-14.8-10.3-14.1-10.5c0.7-0.1,1.3-0.1,2,0c0.7,0.2,1.4,0.6,2.8,1.4l29.6,16.7
	c1.4,0.8,2.1,1.3,2.6,1.9c0.4,0.5,0.8,1.1,1,1.8c0.2,0.8,0.2,1.6,0.2,3.3v13.4c0,1.7,0,2.5-0.2,3.3c-0.2,0.7-0.5,1.3-1,1.8
	c-0.5,0.6-1.2,1-2.6,1.9l-12.7,7.7c-1.4,0.8-2.1,1.3-2.8,1.4c-0.7,0.1-1.3,0.1-2,0c-0.7-0.2-1.4-0.6-2.8-1.4l-12.7-7.7
	c-1.4-0.8-2.1-1.3-2.6-1.9c-0.4-0.5-0.8-1.1-1-1.8c-0.2-0.8-0.2-1.6-0.2-3.3V26.2c0-1.7,0-2.5,0.2-3.3c0.2-0.7,0.5-1.3,1-1.8
	C60.6,20.5,61.3,20.1,62.7,19.3z"/>
<linearGradient id="SVGID_5_" gradientUnits="userSpaceOnUse" x1="325.8726" y1="309.6799" x2="65.9348" y2="37.907" gradientTransform="matrix(1 0 0 -1 0 322)">
	<stop  offset="0" style="stop-color:#292728"/>
	<stop  offset="0.5795" style="stop-color:#434142"/>
	<stop  offset="1" style="stop-color:#8A8A8A"/>
</linearGradient>
<path class="st4" d="M299.9,19.3l-5.3-16.9c1.4-0.8,2.1-1.3,2.8-1.4c0.7-0.1,1.3-0.1,2,0c0.7,0.2,1.4,0.6,2.8,1.4L333,19.3
	c1.4,0.8,2.1,1.3,2.6,1.9c0.4,0.5,0.8,1.1,1,1.8c0.2,0.8,0.2,1.6,0.2,3.3v13.4c0,1.7,0,2.5-0.2,3.3c-0.2,0.7-0.5,1.3-1,1.8
	c-0.5,0.6-1.2,1-2.6,1.9l-12.7,7.7c-1.4,0.8-2.1,1.3-2.8,1.4c-0.7,0.1-1.3,0.1-2,0c-0.7-0.2-1.4-0.6-2.8-1.4l-12.7-7.7
	c-1.4-0.8-2.1-1.3-2.6-1.9c-0.4-0.5-0.8-1.1-1-1.8c-0.2-0.8-0.2-1.6-0.2-3.3V26.2c0-1.7,0-2.5,0.2-3.3c0.2-0.7,0.5-1.3,1-1.8
	C297.8,20.5,298.5,20.1,299.9,19.3z"/>
<linearGradient id="SVGID_6_" gradientUnits="userSpaceOnUse" x1="339.3944" y1="296.7469" x2="79.4566" y2="24.974" gradientTransform="matrix(1 0 0 -1 0 322)">
	<stop  offset="0" style="stop-color:#292728"/>
	<stop  offset="0.5795" style="stop-color:#434142"/>
	<stop  offset="1" style="stop-color:#8A8A8A"/>
</linearGradient>
<path class="st5" d="M62.7,283.6l12.7-7.7c1.4-0.8,2.1-1.3,2.8-1.4c0.7-0.1,1.3-0.1,2,0c0.7,0.2,1.4,0.6,2.8,1.4l12.7,7.7
	c1.4,0.8,2.1,1.3,2.6,1.9c0.4,0.5,0.8,1.1,1,1.8c0.2,0.8,0.2,1.6,0.2,3.3v13.4c0,1.7,0,2.5-0.2,3.3c-0.2,0.7-0.5,1.3-1,1.8
	c-0.5,0.6-1.2,1-2.6,1.9l-12.7,7.7c-1.4,0.8-2.1,1.3-2.8,1.4c-0.7,0.1-1.3,0.1-2,0c-0.7-0.2-1.4-0.6-2.8-1.4l-15.6-7.2
	c-1.4-0.8-2.1-1.3-2.6-1.9c-0.4-0.5-0.8-1.1-1-1.8c-0.2-0.8-0.2-1.6-0.2-3.3l2.9-13.9c0-1.7,0-2.5,0.2-3.3c0.2-0.7,0.5-1.3,1-1.8
	C60.6,284.9,61.3,284.5,62.7,283.6z"/>
<linearGradient id="SVGID_7_" gradientUnits="userSpaceOnUse" x1="462.6456" y1="178.863" x2="202.7078" y2="-92.9099" gradientTransform="matrix(1 0 0 -1 0 322)">
	<stop  offset="0" style="stop-color:#292728"/>
	<stop  offset="0.5795" style="stop-color:#434142"/>
	<stop  offset="1" style="stop-color:#8A8A8A"/>
</linearGradient>
<path class="st6" d="M299.9,283.6l12.7-7.7c1.4-0.8,2.1-1.3,2.8-1.4c0.7-0.1,1.3-0.1,2,0c0.7,0.2,1.4,0.6,2.8,1.4l10.5,7.4
	c1.4,0.8,2.1,1.3,2.6,1.9c0.4,0.5,0.8,1.1,1,1.8c0.2,0.8,0.2,1.6,0.2,3.3v13.4c0,1.7,0,2.5-0.2,3.3c-0.2,0.7-0.5,1.3-1,1.8
	c-0.5,0.6-1.2,1-2.6,1.9l-12.4,7.1c-1.4,0.8-2.1,1.3-2.8,1.4c-0.7,0.1-1.3,0.1-2,0c-0.7-0.2-1.4-0.6-2.8-1.4l-13.9-6.8
	c-1.4-0.8-2.1-1.3-2.6-1.9c-0.4-0.5-0.8-1.1-1-1.8c-0.2-0.8,2.8-1.6,2.8-3.3v-13.4c0-1.7,0-2.5,0.2-3.3c0.2-0.7,0.5-1.3,1-1.8
	C297.8,284.9,298.5,284.5,299.9,283.6z"/>
<defs>
	<filter id="Adobe_OpacityMaskFilter" filterUnits="userSpaceOnUse" x="54.9" y="10" width="293.6" height="311.8">
		<feColorMatrix  type="matrix" values="1 0 0 0 0  0 1 0 0 0  0 0 1 0 0  0 0 0 1 0"/>
	</filter>
</defs>
<mask maskUnits="userSpaceOnUse" x="54.9" y="10" width="293.6" height="311.8" id="mask0_1_">
	
		<linearGradient id="SVGID_8_" gradientUnits="userSpaceOnUse" x1="404.0156" y1="234.9399" x2="144.0778" y2="-36.833" gradientTransform="matrix(1 0 0 -1 0 322)">
		<stop  offset="0" style="stop-color:#292728"/>
		<stop  offset="0.5795" style="stop-color:#434142"/>
		<stop  offset="1" style="stop-color:#8A8A8A"/>
	</linearGradient>
	<path class="st7" d="M330.4,57.2l-4.7,2.8v210.3l4.7,2.8V57.2z"/>
	
		<linearGradient id="SVGID_9_" gradientUnits="userSpaceOnUse" x1="266.6239" y1="366.3485" x2="6.6861" y2="94.5755" gradientTransform="matrix(1 0 0 -1 0 322)">
		<stop  offset="0" style="stop-color:#292728"/>
		<stop  offset="0.5795" style="stop-color:#434142"/>
		<stop  offset="1" style="stop-color:#8A8A8A"/>
	</linearGradient>
	<path class="st8" d="M65.3,57.2l4.7,2.8v210.3l-4.7,2.8V57.2z"/>
	
		<linearGradient id="SVGID_10_" gradientUnits="userSpaceOnUse" x1="335.3199" y1="300.6441" x2="75.3821" y2="28.8711" gradientTransform="matrix(1 0 0 -1 0 322)">
		<stop  offset="0" style="stop-color:#292728"/>
		<stop  offset="0.5795" style="stop-color:#434142"/>
		<stop  offset="1" style="stop-color:#8A8A8A"/>
	</linearGradient>
	<path class="st9" d="M76.7,19.8H319v290.7H76.7V19.8z"/>
	
		<linearGradient id="SVGID_11_" gradientUnits="userSpaceOnUse" x1="202.6861" y1="427.5019" x2="-57.2517" y2="155.7289" gradientTransform="matrix(1 0 0 -1 0 322)">
		<stop  offset="0" style="stop-color:#292728"/>
		<stop  offset="0.5795" style="stop-color:#434142"/>
		<stop  offset="1" style="stop-color:#8A8A8A"/>
	</linearGradient>
	<path class="st10" d="M62.7,19.3l12.7-7.7c1.4-0.8-14.8-10.3-14.1-10.5c0.7-0.1,1.3-0.1,2,0c0.7,0.2,1.4,0.6,2.8,1.4l29.6,16.7
		c1.4,0.8,2.1,1.3,2.6,1.9c0.4,0.5,0.8,1.1,1,1.8c0.2,0.8,0.2,1.6,0.2,3.3v13.4c0,1.7,0,2.5-0.2,3.3c-0.2,0.7-0.5,1.3-1,1.8
		c-0.5,0.6-1.2,1-2.6,1.9l-12.7,7.7c-1.4,0.8-2.1,1.3-2.8,1.4c-0.7,0.1-1.3,0.1-2,0c-0.7-0.2-1.4-0.6-2.8-1.4l-12.7-7.7
		c-1.4-0.8-2.1-1.3-2.6-1.9c-0.4-0.5-0.8-1.1-1-1.8c-0.2-0.8-0.2-1.6-0.2-3.3V26.2c0-1.7,0-2.5,0.2-3.3c0.2-0.7,0.5-1.3,1-1.8
		C60.6,20.5,61.3,20.1,62.7,19.3z"/>
	
		<linearGradient id="SVGID_12_" gradientUnits="userSpaceOnUse" x1="325.8726" y1="309.68" x2="65.9348" y2="37.907" gradientTransform="matrix(1 0 0 -1 0 322)">
		<stop  offset="0" style="stop-color:#292728"/>
		<stop  offset="0.5795" style="stop-color:#434142"/>
		<stop  offset="1" style="stop-color:#8A8A8A"/>
	</linearGradient>
	<path class="st11" d="M299.9,19.3l-5.3-16.9c1.4-0.8,2.1-1.3,2.8-1.4c0.7-0.1,1.3-0.1,2,0c0.7,0.2,1.4,0.6,2.8,1.4L333,19.3
		c1.4,0.8,2.1,1.3,2.6,1.9c0.4,0.5,0.8,1.1,1,1.8c0.2,0.8,0.2,1.6,0.2,3.3v13.4c0,1.7,0,2.5-0.2,3.3c-0.2,0.7-0.5,1.3-1,1.8
		c-0.5,0.6-1.2,1-2.6,1.9l-12.7,7.7c-1.4,0.8-2.1,1.3-2.8,1.4c-0.7,0.1-1.3,0.1-2,0c-0.7-0.2-1.4-0.6-2.8-1.4l-12.7-7.7
		c-1.4-0.8-2.1-1.3-2.6-1.9c-0.4-0.5-0.8-1.1-1-1.8c-0.2-0.8-0.2-1.6-0.2-3.3V26.2c0-1.7,0-2.5,0.2-3.3c0.2-0.7,0.5-1.3,1-1.8
		C297.8,20.5,298.5,20.1,299.9,19.3z"/>
	
		<linearGradient id="SVGID_13_" gradientUnits="userSpaceOnUse" x1="339.3944" y1="296.747" x2="79.4566" y2="24.974" gradientTransform="matrix(1 0 0 -1 0 322)">
		<stop  offset="0" style="stop-color:#292728"/>
		<stop  offset="0.5795" style="stop-color:#434142"/>
		<stop  offset="1" style="stop-color:#8A8A8A"/>
	</linearGradient>
	<path class="st12" d="M62.7,283.6l12.7-7.7c1.4-0.8,2.1-1.3,2.8-1.4c0.7-0.1,1.3-0.1,2,0c0.7,0.2,1.4,0.6,2.8,1.4l12.7,7.7
		c1.4,0.8,2.1,1.3,2.6,1.9c0.4,0.5,0.8,1.1,1,1.8c0.2,0.8,0.2,1.6,0.2,3.3v13.4c0,1.7,0,2.5-0.2,3.3c-0.2,0.7-0.5,1.3-1,1.8
		c-0.5,0.6-1.2,1-2.6,1.9l-12.7,7.7c-1.4,0.8-2.1,1.3-2.8,1.4c-0.7,0.1-1.3,0.1-2,0c-0.7-0.2-1.4-0.6-2.8-1.4l-15.6-7.2
		c-1.4-0.8-2.1-1.3-2.6-1.9c-0.4-0.5-0.8-1.1-1-1.8c-0.2-0.8-0.2-1.6-0.2-3.3l2.9-13.9c0-1.7,0-2.5,0.2-3.3c0.2-0.7,0.5-1.3,1-1.8
		C60.6,284.9,61.3,284.5,62.7,283.6z"/>
	
		<linearGradient id="SVGID_14_" gradientUnits="userSpaceOnUse" x1="462.6454" y1="178.8633" x2="202.7076" y2="-92.9097" gradientTransform="matrix(1 0 0 -1 0 322)">
		<stop  offset="0" style="stop-color:#292728"/>
		<stop  offset="0.5795" style="stop-color:#434142"/>
		<stop  offset="1" style="stop-color:#8A8A8A"/>
	</linearGradient>
	<path class="st13" d="M299.9,283.6l12.7-7.7c1.4-0.8,2.1-1.3,2.8-1.4c0.7-0.1,1.3-0.1,2,0c0.7,0.2,1.4,0.6,2.8,1.4l10.5,7.4
		c1.4,0.8,2.1,1.3,2.6,1.9c0.4,0.5,0.8,1.1,1,1.8c0.2,0.8,0.2,1.6,0.2,3.3v13.4c0,1.7,0,2.5-0.2,3.3c-0.2,0.7-0.5,1.3-1,1.8
		c-0.5,0.6-1.2,1-2.6,1.9l-12.4,7.1c-1.4,0.8-2.1,1.3-2.8,1.4c-0.7,0.1-1.3,0.1-2,0c-0.7-0.2-1.4-0.6-2.8-1.4l-13.9-6.8
		c-1.4-0.8-2.1-1.3-2.6-1.9c-0.4-0.5-0.8-1.1-1-1.8c-0.2-0.8,2.8-1.6,2.8-3.3v-13.4c0-1.7,0-2.5,0.2-3.3c0.2-0.7,0.5-1.3,1-1.8
		C297.8,284.9,298.5,284.5,299.9,283.6z"/>
</mask>
<g class="st14">
	<path class="st15" d="M334.3,309l-16.8-10.1l-18-33.2l21,8.9c2.3,0.4,7.2,1.3,7.8,1.9c0.8,0.8,10.9,7.2,11.4,7.9
		C340.1,284.9,336.3,301,334.3,309z"/>
	<path class="st16" d="M98.2,311.1l-20.5-9.8l-22.9,7.9l6.5,11.3l23.5,1.4L98.2,311.1z"/>
	<path class="st17" d="M345.1,49.3l-27.7-14.5L310.7,10l37.8,5.9L345.1,49.3z"/>
</g>
<linearGradient id="SVGID_15_" gradientUnits="userSpaceOnUse" x1="55.7544" y1="61.9427" x2="57.1276" y2="269.4825" gradientTransform="matrix(1 0 0 -1 0 322)">
	<stop  offset="0" style="stop-color:#5E5D5E"/>
	<stop  offset="0.1563" style="stop-color:#2E2E2E"/>
	<stop  offset="0.3646" style="stop-color:#242327"/>
	<stop  offset="0.8338" style="stop-color:#615F60"/>
	<stop  offset="0.9168" style="stop-color:#1D1D21"/>
	<stop  offset="1" style="stop-color:#151619"/>
</linearGradient>
<path class="st18" d="M46.9,264.3l18.8,8.6L65.5,57.1l-18.4-8.8L46.9,264.3z"/>
<path class="st19" d="M62.9,267l-11.4-5.8l-4.6,2.9l9.8,4.6L62.9,267z"/>
<linearGradient id="SVGID_16_" gradientUnits="userSpaceOnUse" x1="136.2385" y1="369.0832" x2="377.8185" y2="87.9628" gradientTransform="matrix(1 0 0 -1 0 322)">
	<stop  offset="0" style="stop-color:#292728"/>
	<stop  offset="0.6339" style="stop-color:#434142"/>
	<stop  offset="1" style="stop-color:#8A8A8A"/>
</linearGradient>
<path class="st20" d="M312,48.2l-4.7,2.8v210.3l4.7,2.8V48.2z"/>
<linearGradient id="SVGID_17_" gradientUnits="userSpaceOnUse" x1="-14.9329" y1="239.1744" x2="226.6471" y2="-41.946" gradientTransform="matrix(1 0 0 -1 0 322)">
	<stop  offset="0" style="stop-color:#292728"/>
	<stop  offset="0.6339" style="stop-color:#434142"/>
	<stop  offset="1" style="stop-color:#8A8A8A"/>
</linearGradient>
<path class="st21" d="M46.8,48.2l4.7,2.8v210.3l-4.7,2.8V48.2z"/>
<linearGradient id="SVGID_18_" gradientUnits="userSpaceOnUse" x1="60.6529" y1="304.1288" x2="302.2329" y2="23.0084" gradientTransform="matrix(1 0 0 -1 0 322)">
	<stop  offset="0" style="stop-color:#292728"/>
	<stop  offset="0.6339" style="stop-color:#434142"/>
	<stop  offset="1" style="stop-color:#8A8A8A"/>
</linearGradient>
<path class="st22" d="M58.3,10.7h242.3v290.7H58.3V10.7z"/>
<linearGradient id="SVGID_19_" gradientUnits="userSpaceOnUse" x1="57.7587" y1="301.6418" x2="299.3388" y2="20.5214" gradientTransform="matrix(1 0 0 -1 0 322)">
	<stop  offset="0" style="stop-color:#292728"/>
	<stop  offset="0.6339" style="stop-color:#434142"/>
	<stop  offset="1" style="stop-color:#8A8A8A"/>
</linearGradient>
<path class="st23" d="M44.3,10.3L57,2.6c1.4-0.8,2.1-1.3,2.8-1.4c0.7-0.1,1.3-0.1,2,0c0.7,0.2,1.4,0.6,2.8,1.4l12.7,7.7
	c1.4,0.8,2.1,1.3,2.6,1.9c0.4,0.5,0.8,1.1,1,1.8c0.2,0.8,0.2,1.6,0.2,3.3v13.4c0,1.7,0,2.5-0.2,3.3c-0.2,0.7-0.5,1.3-1,1.8
	c-0.5,0.6-1.2,1-2.6,1.9l-12.7,7.7c-1.4,0.8-2.1,1.3-2.8,1.4c-0.7,0.1-1.3,0.1-2,0c-0.7-0.2-1.4-0.6-2.8-1.4l-12.7-7.7
	c-1.4-0.8-2.1-1.3-2.6-1.9c-0.4-0.5-0.8-1.1-1-1.8c-0.2-0.8-0.2-1.6-0.2-3.3V17.2c0-1.7,0-2.5,0.2-3.3c0.2-0.7,0.5-1.3,1-1.8
	C42.2,11.5,42.9,11.1,44.3,10.3z"/>
<linearGradient id="SVGID_20_" gradientUnits="userSpaceOnUse" x1="194.206" y1="418.8974" x2="435.786" y2="137.777" gradientTransform="matrix(1 0 0 -1 0 322)">
	<stop  offset="0" style="stop-color:#292728"/>
	<stop  offset="0.6339" style="stop-color:#434142"/>
	<stop  offset="1" style="stop-color:#8A8A8A"/>
</linearGradient>
<path class="st24" d="M281.5,10.3l12.7-7.7c1.4-0.8,2.1-1.3,2.8-1.4c0.7-0.1,1.3-0.1,2,0c0.7,0.2,1.4,0.6,2.8,1.4l12.7,7.7
	c1.4,0.8,2.1,1.3,2.6,1.9c0.4,0.5,0.8,1.1,1,1.8c0.2,0.8,0.2,1.6,0.2,3.3v13.4c0,1.7,0,2.5-0.2,3.3c-0.2,0.7-0.5,1.3-1,1.8
	c-0.5,0.6-1.2,1-2.6,1.9l-12.7,7.7c-1.4,0.8-2.1,1.3-2.8,1.4c-0.7,0.1-1.3,0.1-2,0c-0.7-0.2-1.4-0.6-2.8-1.4l-12.7-7.7
	c-1.4-0.8-2.1-1.3-2.6-1.9c-0.4-0.5-0.8-1.1-1-1.8c-0.2-0.8-0.2-1.6-0.2-3.3V17.2c0-1.7,0-2.5,0.2-3.3c0.2-0.7,0.5-1.3,1-1.8
	C279.4,11.5,280.1,11.1,281.5,10.3z"/>
<linearGradient id="SVGID_21_" gradientUnits="userSpaceOnUse" x1="-72.9001" y1="189.3604" x2="168.6799" y2="-91.76" gradientTransform="matrix(1 0 0 -1 0 322)">
	<stop  offset="0" style="stop-color:#292728"/>
	<stop  offset="0.6339" style="stop-color:#434142"/>
	<stop  offset="1" style="stop-color:#8A8A8A"/>
</linearGradient>
<path class="st25" d="M44.3,274.6l12.7-7.7c1.4-0.8,2.1-1.3,2.8-1.4c0.7-0.1,1.3-0.1,2,0c0.7,0.2,1.4,0.6,2.8,1.4l12.7,7.7
	c1.4,0.8,2.1,1.3,2.6,1.9c0.4,0.5,0.8,1.1,1,1.8c0.2,0.8,0.2,1.6,0.2,3.3v13.4c0,1.7,0,2.5-0.2,3.3c-0.2,0.7-0.5,1.3-1,1.8
	c-0.5,0.6-1.2,1-2.6,1.9l-12.7,7.7c-1.4,0.8-2.1,1.3-2.8,1.4c-0.7,0.1-1.3,0.1-2,0c-0.7-0.2-1.4-0.6-2.8-1.4l-12.7-7.7
	c-1.4-0.8-2.1-1.3-2.6-1.9c-0.4-0.5-0.8-1.1-1-1.8c-0.2-0.8-0.2-1.6-0.2-3.3v-13.4c0-1.7,0-2.5,0.2-3.3c0.2-0.7,0.5-1.3,1-1.8
	C42.2,275.9,42.9,275.4,44.3,274.6z"/>
<linearGradient id="SVGID_22_" gradientUnits="userSpaceOnUse" x1="63.5471" y1="306.616" x2="305.1271" y2="25.4956" gradientTransform="matrix(1 0 0 -1 0 322)">
	<stop  offset="0" style="stop-color:#292728"/>
	<stop  offset="0.6339" style="stop-color:#434142"/>
	<stop  offset="1" style="stop-color:#8A8A8A"/>
</linearGradient>
<path class="st26" d="M281.5,274.6l12.7-7.7c1.4-0.8,2.1-1.3,2.8-1.4c0.7-0.1,1.3-0.1,2,0c0.7,0.2,1.4,0.6,2.8,1.4l12.7,7.7
	c1.4,0.8,2.1,1.3,2.6,1.9c0.4,0.5,0.8,1.1,1,1.8c0.2,0.8,0.2,1.6,0.2,3.3v13.4c0,1.7,0,2.5-0.2,3.3c-0.2,0.7-0.5,1.3-1,1.8
	c-0.5,0.6-1.2,1-2.6,1.9l-12.7,7.7c-1.4,0.8-2.1,1.3-2.8,1.4c-0.7,0.1-1.3,0.1-2,0c-0.7-0.2-1.4-0.6-2.8-1.4l-12.7-7.7
	c-1.4-0.8-2.1-1.3-2.6-1.9c-0.4-0.5-0.8-1.1-1-1.8c-0.2-0.8-0.2-1.6-0.2-3.3v-13.4c0-1.7,0-2.5,0.2-3.3c0.2-0.7,0.5-1.3,1-1.8
	C279.4,275.9,280.1,275.4,281.5,274.6z"/>
<linearGradient id="SVGID_23_" gradientUnits="userSpaceOnUse" x1="322.2314" y1="269.2646" x2="319.8734" y2="55.3075" gradientTransform="matrix(1 0 0 -1 0 322)">
	<stop  offset="0" style="stop-color:#5E5D5E"/>
	<stop  offset="0.1563" style="stop-color:#2E2E2E"/>
	<stop  offset="0.3646" style="stop-color:#242327"/>
	<stop  offset="0.8338" style="stop-color:#615F60"/>
	<stop  offset="0.9168" style="stop-color:#1D1D21"/>
	<stop  offset="1" style="stop-color:#151619"/>
</linearGradient>
<path class="st27" d="M330.3,57.5l-18.5-9.2L312,264l18.4,8.8L330.3,57.5z"/>
<linearGradient id="SVGID_24_" gradientUnits="userSpaceOnUse" x1="287.7673" y1="277.4793" x2="57.451" y2="72.2999" gradientTransform="matrix(1 0 0 -1 0 322)">
	<stop  offset="0" style="stop-color:#F8F8F8"/>
	<stop  offset="1" style="stop-color:#BEBEBE"/>
</linearGradient>
<path class="st28" d="M278.8,36.9c-1.2-0.7-2-2.1-2-3.6V21.1H162.6V177h127.9V43.8L278.8,36.9z"/>
<linearGradient id="SVGID_25_" gradientUnits="userSpaceOnUse" x1="249.0964" y1="320.8879" x2="18.78" y2="115.7085" gradientTransform="matrix(1 0 0 -1 0 322)">
	<stop  offset="0" style="stop-color:#F8F8F8"/>
	<stop  offset="1" style="stop-color:#BEBEBE"/>
</linearGradient>
<path class="st29" d="M80,36.9c1.2-0.7,2-2.1,2-3.6V21.1h114.2V177H68.4V43.8L80,36.9z"/>
<linearGradient id="SVGID_26_" gradientUnits="userSpaceOnUse" x1="341.1898" y1="217.512" x2="110.8734" y2="12.3326" gradientTransform="matrix(1 0 0 -1 0 322)">
	<stop  offset="0" style="stop-color:#F8F8F8"/>
	<stop  offset="1" style="stop-color:#BEBEBE"/>
</linearGradient>
<path class="st30" d="M278.8,274.9c-1.2,0.7-2,2.1-2,3.6v12.2H162.6V134.8h127.9V268L278.8,274.9z"/>
<linearGradient id="SVGID_27_" gradientUnits="userSpaceOnUse" x1="302.5189" y1="260.9206" x2="72.2025" y2="55.7411" gradientTransform="matrix(1 0 0 -1 0 322)">
	<stop  offset="0" style="stop-color:#F8F8F8"/>
	<stop  offset="1" style="stop-color:#BEBEBE"/>
</linearGradient>
<path class="st31" d="M80,274.9c1.2,0.7,2,2.1,2,3.6v12.2h114.2V134.8H68.4V268L80,274.9z"/>
<defs>
	<filter id="Adobe_OpacityMaskFilter_1_" filterUnits="userSpaceOnUse" x="65.3" y="18.7" width="229" height="274.9">
		<feColorMatrix  type="matrix" values="1 0 0 0 0  0 1 0 0 0  0 0 1 0 0  0 0 0 1 0"/>
	</filter>
</defs>
<mask maskUnits="userSpaceOnUse" x="65.3" y="18.7" width="229" height="274.9" id="mask1_1_">
	
		<linearGradient id="SVGID_28_" gradientUnits="userSpaceOnUse" x1="287.7674" y1="277.4794" x2="57.451" y2="72.2999" gradientTransform="matrix(1 0 0 -1 0 322)">
		<stop  offset="0" style="stop-color:#F8F8F8"/>
		<stop  offset="1" style="stop-color:#BEBEBE"/>
	</linearGradient>
	<path class="st32" d="M278.8,36.9c-1.2-0.7-2-2.1-2-3.6V21.1H162.6V177h127.9V43.8L278.8,36.9z"/>
	
		<linearGradient id="SVGID_29_" gradientUnits="userSpaceOnUse" x1="249.0964" y1="320.888" x2="18.78" y2="115.7085" gradientTransform="matrix(1 0 0 -1 0 322)">
		<stop  offset="0" style="stop-color:#F8F8F8"/>
		<stop  offset="1" style="stop-color:#BEBEBE"/>
	</linearGradient>
	<path class="st33" d="M80,36.9c1.2-0.7,2-2.1,2-3.6V21.1h114.2V177H68.4V43.8L80,36.9z"/>
	
		<linearGradient id="SVGID_30_" gradientUnits="userSpaceOnUse" x1="341.1898" y1="217.5121" x2="110.8735" y2="12.3326" gradientTransform="matrix(1 0 0 -1 0 322)">
		<stop  offset="0" style="stop-color:#F8F8F8"/>
		<stop  offset="1" style="stop-color:#BEBEBE"/>
	</linearGradient>
	<path class="st34" d="M278.8,274.9c-1.2,0.7-2,2.1-2,3.6v12.2H162.6V134.8h127.9V268L278.8,274.9z"/>
	
		<linearGradient id="SVGID_31_" gradientUnits="userSpaceOnUse" x1="302.5189" y1="260.9207" x2="72.2025" y2="55.7411" gradientTransform="matrix(1 0 0 -1 0 322)">
		<stop  offset="0" style="stop-color:#F8F8F8"/>
		<stop  offset="1" style="stop-color:#BEBEBE"/>
	</linearGradient>
	<path class="st35" d="M80,274.9c1.2,0.7,2,2.1,2,3.6v12.2h114.2V134.8H68.4V268L80,274.9z"/>
</mask>
<g class="st36">
	<path class="st37" d="M80.7,18.7l15.5,16.9l2.1,15.9L81.1,36.4L80.7,18.7z"/>
	<path class="st38" d="M285,27.5l-22,21.6l6.8,15.3l22.1-21.9L285,27.5z"/>
	<path class="st39" d="M257.5,40l19.9-19.6l6.7,8.2l-24.3,24.5L257.5,40z"/>
	<path class="st40" d="M99.3,52.2L81,36l-15.6,4.3l18.2,18.8L99.3,52.2z"/>
	<path class="st37" d="M279.4,293.6l-16.8-17.5l-1.4-15.1l17.2,15.1L279.4,293.6z"/>
	<path class="st38" d="M73.4,284.3l22-21.6l-6.8-15.3l-22.1,21.9L73.4,284.3z"/>
	<path class="st39" d="M100.9,271.8L81,291.4l-6.7-8.2l24.3-24.5L100.9,271.8z"/>
	<path class="st40" d="M260.3,260.3l18.4,16.2l15.6-4.3l-18.2-18.8L260.3,260.3z"/>
</g>
<linearGradient id="SVGID_32_" gradientUnits="userSpaceOnUse" x1="108.9789" y1="291.8702" x2="254.7988" y2="31.4988" gradientTransform="matrix(1 0 0 -1 0 322)">
	<stop  offset="0" style="stop-color:#343434"/>
	<stop  offset="1" style="stop-color:#BEBEBE"/>
</linearGradient>
<path class="st41" d="M263.4,35v12.2c0,1.5,0.8,2.9,2,3.6l11.6,6.9v77.1V177v77.1l-11.6,6.9c-1.2,0.7-2,2.1-2,3.6v12.2h-67.1h-33.6
	H95.5v-12.2c0-1.5-0.8-2.9-2-3.6l-11.6-6.9V177v-42.3V57.7l11.6-6.9c1.2-0.7,2-2.1,2-3.6V35h67.1h33.6H263.4z"/>
<path class="st42" d="M263.4,35v12.2c0,1.5,0.8,2.9,2,3.6l11.6,6.9v196.4l-11.6,6.9c-1.2,0.7-2,2.1-2,3.6v12.2H95.5v-12.2
	c0-1.5-0.8-2.9-2-3.6l-11.6-6.9V57.7l11.6-6.9c1.2-0.7,2-2.1,2-3.6V35H263.4z M96.9,36.4v10.7c0,2-1,3.8-2.7,4.8l-10.9,6.5v194.8
	l10.9,6.5c1.7,1,2.7,2.9,2.7,4.8v10.7h165v-10.7c0-2,1-3.8,2.7-4.8l10.9-6.5V58.5L264.6,52c-1.7-1-2.7-2.9-2.7-4.8V36.4H96.9z"/>
<defs>
	<filter id="Adobe_OpacityMaskFilter_2_" filterUnits="userSpaceOnUse" x="58.1" y="35" width="333.3" height="333.6">
		<feColorMatrix  type="matrix" values="1 0 0 0 0  0 1 0 0 0  0 0 1 0 0  0 0 0 1 0"/>
	</filter>
</defs>
<mask maskUnits="userSpaceOnUse" x="58.1" y="35" width="333.3" height="333.6" id="mask2_1_">
	
		<linearGradient id="SVGID_33_" gradientUnits="userSpaceOnUse" x1="135.8163" y1="292.8424" x2="225.4343" y2="32.3244" gradientTransform="matrix(1 0 0 -1 0 322)">
		<stop  offset="0" style="stop-color:#BEBEBE"/>
		<stop  offset="1" style="stop-color:#F8F8F8"/>
	</linearGradient>
	<path class="st43" d="M263.4,35v12.2c0,1.5,0.8,2.9,2,3.6l11.6,6.9v77.1V177v77.1l-11.6,6.9c-1.2,0.7-2,2.1-2,3.6v12.2h-67.1h-33.6
		H95.5v-12.2c0-1.5-0.8-2.9-2-3.6l-11.6-6.9V177v-42.3V57.7l11.6-6.9c1.2-0.7,2-2.1,2-3.6V35h67.1h33.6H263.4z"/>
</mask>
<g class="st44">
	
		<linearGradient id="SVGID_34_" gradientUnits="userSpaceOnUse" x1="183.7729" y1="170.3572" x2="286.6539" y2="42.7992" gradientTransform="matrix(1 0 0 -1 0 322)">
		<stop  offset="0" style="stop-color:#FFFFFF;stop-opacity:0.28"/>
		<stop  offset="1" style="stop-color:#FFFFFF;stop-opacity:0"/>
	</linearGradient>
	<path class="st45" d="M58.1,302.1l220-266.3l94.1,43.1l19.2,248.9c-61.7,14.4-186.1,42.7-190.1,40.7
		C197.4,366.6,104.2,323.4,58.1,302.1z"/>
	<path class="st46" d="M83.8,36.4h38v62.7h-38V36.4z"/>
	<path class="st46" d="M84.5,109.8h96.9v71.7H84.5V109.8z"/>
	<path class="st46" d="M131.6,181.5h49.8v11.8h-49.8V181.5z"/>
	<path class="st46" d="M94.9,224.8H138v29.8H94.9V224.8z"/>
	<path class="st46" d="M130.6,215.1h50.8v63.1h-50.8V215.1z"/>
	<path class="st46" d="M83.8,193.3H174v11.4H83.8V193.3z"/>
	<path class="st46" d="M94.9,205.1v49.5H83.8v-49.5H94.9z"/>
	<path class="st46" d="M117.8,254.6v23.6h-11.1v-23.6H117.8z"/>
	<path class="st46" d="M131.6,69.6h17.5v40.2h-17.5V69.6z"/>
	<path class="st46" d="M157.2,69.6h24.2v29.4h-24.2V69.6z"/>
	<path class="st46" d="M143.4,69.6h17.5v15.2h-17.5V69.6z"/>
	<path class="st46" d="M279,36.4h-38v62.7h38V36.4z"/>
	<path class="st46" d="M278.3,109.8h-96.9v71.7h96.9V109.8z"/>
	<path class="st46" d="M231.2,181.5h-49.8v11.8h49.8V181.5z"/>
	<path class="st46" d="M267.9,224.8h-43.1v29.8h43.1V224.8z"/>
	<path class="st46" d="M232.2,215.1h-50.8v63.1h50.8V215.1z"/>
	<path class="st46" d="M279,193.3h-83.4v11.4H279V193.3z"/>
	<path class="st46" d="M267.9,205.1v49.5H279v-49.5H267.9z"/>
	<path class="st46" d="M245,254.6v23.6h11.1v-23.6H245z"/>
	<path class="st46" d="M231.2,69.6h-17.5v40.2h17.5V69.6z"/>
	<path class="st46" d="M205.6,69.6h-24.2v29.4h24.2V69.6z"/>
	<path class="st46" d="M219.4,69.6h-17.5v15.2h17.5V69.6z"/>
	
		<linearGradient id="SVGID_35_" gradientUnits="userSpaceOnUse" x1="97.2385" y1="256.1786" x2="286.0906" y2="228.7456" gradientTransform="matrix(1 0 0 -1 0 322)">
		<stop  offset="0" style="stop-color:#BEBEBE"/>
		<stop  offset="0.606" style="stop-color:#F8F8F8"/>
	</linearGradient>
	<path class="st47" d="M81.8,35h38v62.7h-38V35z"/>
	
		<linearGradient id="SVGID_36_" gradientUnits="userSpaceOnUse" x1="86.7721" y1="184.1268" x2="275.6242" y2="156.6938" gradientTransform="matrix(1 0 0 -1 0 322)">
		<stop  offset="0" style="stop-color:#BEBEBE"/>
		<stop  offset="0.606" style="stop-color:#F8F8F8"/>
	</linearGradient>
	<path class="st48" d="M82.5,108.4h96.9v71.7H82.5V108.4z"/>
	
		<linearGradient id="SVGID_37_" gradientUnits="userSpaceOnUse" x1="81.3202" y1="146.5951" x2="270.1723" y2="119.1621" gradientTransform="matrix(1 0 0 -1 0 322)">
		<stop  offset="0" style="stop-color:#BEBEBE"/>
		<stop  offset="0.606" style="stop-color:#F8F8F8"/>
	</linearGradient>
	<path class="st49" d="M129.6,180.1h49.8v11.8h-49.8V180.1z"/>
	
		<linearGradient id="SVGID_38_" gradientUnits="userSpaceOnUse" x1="73.051" y1="89.669" x2="261.9031" y2="62.236" gradientTransform="matrix(1 0 0 -1 0 322)">
		<stop  offset="0" style="stop-color:#BEBEBE"/>
		<stop  offset="0.606" style="stop-color:#F8F8F8"/>
	</linearGradient>
	<path class="st50" d="M92.9,223.5H136v29.8H92.9V223.5z"/>
	
		<linearGradient id="SVGID_39_" gradientUnits="userSpaceOnUse" x1="72.8823" y1="88.508" x2="261.7345" y2="61.075" gradientTransform="matrix(1 0 0 -1 0 322)">
		<stop  offset="0" style="stop-color:#BEBEBE"/>
		<stop  offset="0.606" style="stop-color:#F8F8F8"/>
	</linearGradient>
	<path class="st51" d="M128.6,213.8h50.8v63.1h-50.8V213.8z"/>
	
		<linearGradient id="SVGID_40_" gradientUnits="userSpaceOnUse" x1="79.099" y1="131.3044" x2="267.9511" y2="103.8714" gradientTransform="matrix(1 0 0 -1 0 322)">
		<stop  offset="0" style="stop-color:#BEBEBE"/>
		<stop  offset="0.606" style="stop-color:#F8F8F8"/>
	</linearGradient>
	<path class="st52" d="M81.8,191.9H172v11.4H81.8V191.9z"/>
	
		<linearGradient id="SVGID_41_" gradientUnits="userSpaceOnUse" x1="73.8959" y1="95.4853" x2="262.748" y2="68.0523" gradientTransform="matrix(1 0 0 -1 0 322)">
		<stop  offset="0" style="stop-color:#BEBEBE"/>
		<stop  offset="0.606" style="stop-color:#F8F8F8"/>
	</linearGradient>
	<path class="st53" d="M92.9,203.7v49.5H81.8v-49.5H92.9z"/>
	
		<linearGradient id="SVGID_42_" gradientUnits="userSpaceOnUse" x1="69.1693" y1="62.9469" x2="258.0214" y2="35.5139" gradientTransform="matrix(1 0 0 -1 0 322)">
		<stop  offset="0" style="stop-color:#BEBEBE"/>
		<stop  offset="0.606" style="stop-color:#F8F8F8"/>
	</linearGradient>
	<path class="st54" d="M115.8,253.2v23.6h-11.1v-23.6H115.8z"/>
	
		<linearGradient id="SVGID_43_" gradientUnits="userSpaceOnUse" x1="94.8843" y1="239.972" x2="283.7364" y2="212.539" gradientTransform="matrix(1 0 0 -1 0 322)">
		<stop  offset="0" style="stop-color:#BEBEBE"/>
		<stop  offset="0.606" style="stop-color:#F8F8F8"/>
	</linearGradient>
	<path class="st55" d="M129.6,68.3h17.5v40.2h-17.5V68.3z"/>
	
		<linearGradient id="SVGID_44_" gradientUnits="userSpaceOnUse" x1="96.2461" y1="249.3472" x2="285.0982" y2="221.9142" gradientTransform="matrix(1 0 0 -1 0 322)">
		<stop  offset="0" style="stop-color:#BEBEBE"/>
		<stop  offset="0.606" style="stop-color:#F8F8F8"/>
	</linearGradient>
	<path class="st56" d="M155.2,68.3h24.2v29.4h-24.2V68.3z"/>
	
		<linearGradient id="SVGID_45_" gradientUnits="userSpaceOnUse" x1="96.9018" y1="253.861" x2="285.7539" y2="226.428" gradientTransform="matrix(1 0 0 -1 0 322)">
		<stop  offset="0" style="stop-color:#BEBEBE"/>
		<stop  offset="0.606" style="stop-color:#F8F8F8"/>
	</linearGradient>
	<path class="st57" d="M141.4,68.3h17.5v15.2h-17.5V68.3z"/>
	
		<linearGradient id="SVGID_46_" gradientUnits="userSpaceOnUse" x1="100.4856" y1="278.5321" x2="289.3377" y2="251.0991" gradientTransform="matrix(1 0 0 -1 0 322)">
		<stop  offset="0" style="stop-color:#BEBEBE"/>
		<stop  offset="0.606" style="stop-color:#F8F8F8"/>
	</linearGradient>
	<path class="st58" d="M277,35h-38v62.7h38V35z"/>
	
		<linearGradient id="SVGID_47_" gradientUnits="userSpaceOnUse" x1="88.7746" y1="197.9122" x2="277.6267" y2="170.4792" gradientTransform="matrix(1 0 0 -1 0 322)">
		<stop  offset="0" style="stop-color:#BEBEBE"/>
		<stop  offset="0.606" style="stop-color:#F8F8F8"/>
	</linearGradient>
	<path class="st59" d="M276.3,108.4h-96.9v71.7h96.9V108.4z"/>
	
		<linearGradient id="SVGID_48_" gradientUnits="userSpaceOnUse" x1="82.3492" y1="153.6792" x2="271.2014" y2="126.2463" gradientTransform="matrix(1 0 0 -1 0 322)">
		<stop  offset="0" style="stop-color:#BEBEBE"/>
		<stop  offset="0.606" style="stop-color:#F8F8F8"/>
	</linearGradient>
	<path class="st60" d="M229.2,180.1h-49.8v11.8h49.8V180.1z"/>
	
		<linearGradient id="SVGID_49_" gradientUnits="userSpaceOnUse" x1="75.7349" y1="108.1453" x2="264.587" y2="80.7123" gradientTransform="matrix(1 0 0 -1 0 322)">
		<stop  offset="0" style="stop-color:#BEBEBE"/>
		<stop  offset="0.606" style="stop-color:#F8F8F8"/>
	</linearGradient>
	<path class="st61" d="M265.9,223.5h-43.1v29.8h43.1V223.5z"/>
	
		<linearGradient id="SVGID_50_" gradientUnits="userSpaceOnUse" x1="73.9323" y1="95.7358" x2="262.7844" y2="68.3028" gradientTransform="matrix(1 0 0 -1 0 322)">
		<stop  offset="0" style="stop-color:#BEBEBE"/>
		<stop  offset="0.606" style="stop-color:#F8F8F8"/>
	</linearGradient>
	<path class="st62" d="M230.2,213.8h-50.8v63.1h50.8V213.8z"/>
	
		<linearGradient id="SVGID_51_" gradientUnits="userSpaceOnUse" x1="81.3379" y1="146.7172" x2="270.19" y2="119.2842" gradientTransform="matrix(1 0 0 -1 0 322)">
		<stop  offset="0" style="stop-color:#BEBEBE"/>
		<stop  offset="0.606" style="stop-color:#F8F8F8"/>
	</linearGradient>
	<path class="st63" d="M277,191.9h-83.4v11.4H277V191.9z"/>
	
		<linearGradient id="SVGID_52_" gradientUnits="userSpaceOnUse" x1="77.6992" y1="121.668" x2="266.5513" y2="94.235" gradientTransform="matrix(1 0 0 -1 0 322)">
		<stop  offset="0" style="stop-color:#BEBEBE"/>
		<stop  offset="0.606" style="stop-color:#F8F8F8"/>
	</linearGradient>
	<path class="st64" d="M265.9,203.7v49.5H277v-49.5H265.9z"/>
	
		<linearGradient id="SVGID_53_" gradientUnits="userSpaceOnUse" x1="72.027" y1="82.6199" x2="260.8792" y2="55.1869" gradientTransform="matrix(1 0 0 -1 0 322)">
		<stop  offset="0" style="stop-color:#BEBEBE"/>
		<stop  offset="0.606" style="stop-color:#F8F8F8"/>
	</linearGradient>
	<path class="st65" d="M243,253.2v23.6h11.1v-23.6H243z"/>
	
		<linearGradient id="SVGID_54_" gradientUnits="userSpaceOnUse" x1="96.5808" y1="251.6514" x2="285.433" y2="224.2183" gradientTransform="matrix(1 0 0 -1 0 322)">
		<stop  offset="0" style="stop-color:#BEBEBE"/>
		<stop  offset="0.606" style="stop-color:#F8F8F8"/>
	</linearGradient>
	<path class="st66" d="M229.2,68.3h-17.5v40.2h17.5V68.3z"/>
	
		<linearGradient id="SVGID_55_" gradientUnits="userSpaceOnUse" x1="96.7468" y1="252.7935" x2="285.5989" y2="225.3605" gradientTransform="matrix(1 0 0 -1 0 322)">
		<stop  offset="0" style="stop-color:#BEBEBE"/>
		<stop  offset="0.606" style="stop-color:#F8F8F8"/>
	</linearGradient>
	<path class="st67" d="M203.6,68.3h-24.2v29.4h24.2V68.3z"/>
	
		<linearGradient id="SVGID_56_" gradientUnits="userSpaceOnUse" x1="98.1117" y1="262.1897" x2="286.9638" y2="234.7567" gradientTransform="matrix(1 0 0 -1 0 322)">
		<stop  offset="0" style="stop-color:#BEBEBE"/>
		<stop  offset="0.606" style="stop-color:#F8F8F8"/>
	</linearGradient>
	<path class="st68" d="M217.4,68.3h-17.5v15.2h17.5V68.3z"/>
</g>
<linearGradient id="SVGID_57_" gradientUnits="userSpaceOnUse" x1="107.1325" y1="200.1083" x2="214.4695" y2="106.8533" gradientTransform="matrix(1 0 0 -1 0 322)">
	<stop  offset="0" style="stop-color:#A5A5A5"/>
	<stop  offset="0.416" style="stop-color:#424242"/>
	<stop  offset="1" style="stop-color:#292728"/>
</linearGradient>
<path class="st69" d="M146.4,122.2h10.1v48.5h-8.7l-23.2-30.8v30.8h-10.1v-48.5h8.8l23.2,30.9V122.2z"/>
<linearGradient id="SVGID_58_" gradientUnits="userSpaceOnUse" x1="128.8349" y1="225.0879" x2="236.1719" y2="131.8329" gradientTransform="matrix(1 0 0 -1 0 322)">
	<stop  offset="0" style="stop-color:#A5A5A5"/>
	<stop  offset="0.416" style="stop-color:#424242"/>
	<stop  offset="1" style="stop-color:#292728"/>
</linearGradient>
<path class="st70" d="M168.6,122.2h34.7v9.4h-24.5v10.7h19.2v9.4h-19.2v19h-10.1V122.2z"/>
<linearGradient id="SVGID_59_" gradientUnits="userSpaceOnUse" x1="149.463" y1="248.831" x2="256.8" y2="155.576" gradientTransform="matrix(1 0 0 -1 0 322)">
	<stop  offset="0" style="stop-color:#A5A5A5"/>
	<stop  offset="0.416" style="stop-color:#424242"/>
	<stop  offset="1" style="stop-color:#292728"/>
</linearGradient>
<path class="st71" d="M208.6,122.2h37v9.4h-13.4v39.1h-10.1v-39.1h-13.5V122.2z"/>
<linearGradient id="SVGID_60_" gradientUnits="userSpaceOnUse" x1="107.248" y1="200.2413" x2="214.585" y2="106.9863" gradientTransform="matrix(1 0 0 -1 0 322)">
	<stop  offset="0" style="stop-color:#A5A5A5"/>
	<stop  offset="0.416" style="stop-color:#424242"/>
	<stop  offset="1" style="stop-color:#292728"/>
</linearGradient>
<path class="st72" d="M147,122.5h10.1V171h-8.7l-23.2-30.8V171H115v-48.5h8.8l23.2,30.9V122.5z"/>
<linearGradient id="SVGID_61_" gradientUnits="userSpaceOnUse" x1="128.9504" y1="225.2209" x2="236.2874" y2="131.9659" gradientTransform="matrix(1 0 0 -1 0 322)">
	<stop  offset="0" style="stop-color:#A5A5A5"/>
	<stop  offset="0.416" style="stop-color:#424242"/>
	<stop  offset="1" style="stop-color:#292728"/>
</linearGradient>
<path class="st73" d="M169.2,122.5h34.7v9.4h-24.5v10.7h19.2v9.4h-19.2v19h-10.1V122.5z"/>
<linearGradient id="SVGID_62_" gradientUnits="userSpaceOnUse" x1="149.5785" y1="248.964" x2="256.9155" y2="155.709" gradientTransform="matrix(1 0 0 -1 0 322)">
	<stop  offset="0" style="stop-color:#A5A5A5"/>
	<stop  offset="0.416" style="stop-color:#424242"/>
	<stop  offset="1" style="stop-color:#292728"/>
</linearGradient>
<path class="st74" d="M209.2,122.5h37v9.4h-13.4V171h-10.1v-39.1h-13.5V122.5z"/>
<linearGradient id="SVGID_63_" gradientUnits="userSpaceOnUse" x1="107.3638" y1="200.3746" x2="214.7008" y2="107.1196" gradientTransform="matrix(1 0 0 -1 0 322)">
	<stop  offset="0" style="stop-color:#A5A5A5"/>
	<stop  offset="0.416" style="stop-color:#424242"/>
	<stop  offset="1" style="stop-color:#292728"/>
</linearGradient>
<path class="st75" d="M147.6,122.8h10.1v48.5H149l-23.2-30.8v30.8h-10.1v-48.5h8.8l23.2,30.9V122.8z"/>
<linearGradient id="SVGID_64_" gradientUnits="userSpaceOnUse" x1="129.0662" y1="225.3542" x2="236.4032" y2="132.0992" gradientTransform="matrix(1 0 0 -1 0 322)">
	<stop  offset="0" style="stop-color:#A5A5A5"/>
	<stop  offset="0.416" style="stop-color:#424242"/>
	<stop  offset="1" style="stop-color:#292728"/>
</linearGradient>
<path class="st76" d="M169.8,122.8h34.7v9.4h-24.5v10.7h19.2v9.4h-19.2v19h-10.1V122.8z"/>
<linearGradient id="SVGID_65_" gradientUnits="userSpaceOnUse" x1="149.6943" y1="249.0972" x2="257.0313" y2="155.8422" gradientTransform="matrix(1 0 0 -1 0 322)">
	<stop  offset="0" style="stop-color:#A5A5A5"/>
	<stop  offset="0.416" style="stop-color:#424242"/>
	<stop  offset="1" style="stop-color:#292728"/>
</linearGradient>
<path class="st77" d="M209.9,122.8h37v9.4h-13.4v39.1h-10.1v-39.1h-13.5V122.8z"/>
<linearGradient id="SVGID_66_" gradientUnits="userSpaceOnUse" x1="107.4794" y1="200.5076" x2="214.8164" y2="107.2526" gradientTransform="matrix(1 0 0 -1 0 322)">
	<stop  offset="0" style="stop-color:#A5A5A5"/>
	<stop  offset="0.416" style="stop-color:#424242"/>
	<stop  offset="1" style="stop-color:#292728"/>
</linearGradient>
<path class="st78" d="M148.2,123.1h10.1v48.5h-8.7l-23.2-30.8v30.8h-10.1v-48.5h8.8l23.2,30.9V123.1z"/>
<linearGradient id="SVGID_67_" gradientUnits="userSpaceOnUse" x1="129.1817" y1="225.4872" x2="236.5187" y2="132.2322" gradientTransform="matrix(1 0 0 -1 0 322)">
	<stop  offset="0" style="stop-color:#A5A5A5"/>
	<stop  offset="0.416" style="stop-color:#424242"/>
	<stop  offset="1" style="stop-color:#292728"/>
</linearGradient>
<path class="st79" d="M170.4,123.1h34.7v9.4h-24.5v10.7h19.2v9.4h-19.2v19h-10.1V123.1z"/>
<linearGradient id="SVGID_68_" gradientUnits="userSpaceOnUse" x1="149.8101" y1="249.2305" x2="257.1471" y2="155.9755" gradientTransform="matrix(1 0 0 -1 0 322)">
	<stop  offset="0" style="stop-color:#A5A5A5"/>
	<stop  offset="0.416" style="stop-color:#424242"/>
	<stop  offset="1" style="stop-color:#292728"/>
</linearGradient>
<path class="st80" d="M210.5,123.1h37v9.4H234v39.1h-10.1v-39.1h-13.5V123.1z"/>
<linearGradient id="SVGID_69_" gradientUnits="userSpaceOnUse" x1="107.5951" y1="200.6408" x2="214.9321" y2="107.3858" gradientTransform="matrix(1 0 0 -1 0 322)">
	<stop  offset="0" style="stop-color:#A5A5A5"/>
	<stop  offset="0.416" style="stop-color:#424242"/>
	<stop  offset="1" style="stop-color:#292728"/>
</linearGradient>
<path class="st81" d="M148.8,123.4h10.1v48.5h-8.7L127,141.1v30.8h-10.1v-48.5h8.8l23.2,30.9V123.4z"/>
<linearGradient id="SVGID_70_" gradientUnits="userSpaceOnUse" x1="129.2975" y1="225.6204" x2="236.6345" y2="132.3654" gradientTransform="matrix(1 0 0 -1 0 322)">
	<stop  offset="0" style="stop-color:#A5A5A5"/>
	<stop  offset="0.416" style="stop-color:#424242"/>
	<stop  offset="1" style="stop-color:#292728"/>
</linearGradient>
<path class="st82" d="M171,123.4h34.7v9.4h-24.5v10.7h19.2v9.4h-19.2v19H171V123.4z"/>
<linearGradient id="SVGID_71_" gradientUnits="userSpaceOnUse" x1="149.9256" y1="249.3635" x2="257.2626" y2="156.1085" gradientTransform="matrix(1 0 0 -1 0 322)">
	<stop  offset="0" style="stop-color:#A5A5A5"/>
	<stop  offset="0.416" style="stop-color:#424242"/>
	<stop  offset="1" style="stop-color:#292728"/>
</linearGradient>
<path class="st83" d="M211.1,123.4h37v9.4h-13.4v39.1h-10.1v-39.1h-13.5V123.4z"/>
<linearGradient id="SVGID_72_" gradientUnits="userSpaceOnUse" x1="107.7109" y1="200.7741" x2="215.0479" y2="107.5191" gradientTransform="matrix(1 0 0 -1 0 322)">
	<stop  offset="0" style="stop-color:#A5A5A5"/>
	<stop  offset="0.416" style="stop-color:#424242"/>
	<stop  offset="1" style="stop-color:#292728"/>
</linearGradient>
<path class="st84" d="M149.5,123.7h10.1v48.5h-8.7l-23.2-30.8v30.8h-10.1v-48.5h8.8l23.2,30.9V123.7z"/>
<linearGradient id="SVGID_73_" gradientUnits="userSpaceOnUse" x1="129.4133" y1="225.7537" x2="236.7503" y2="132.4987" gradientTransform="matrix(1 0 0 -1 0 322)">
	<stop  offset="0" style="stop-color:#A5A5A5"/>
	<stop  offset="0.416" style="stop-color:#424242"/>
	<stop  offset="1" style="stop-color:#292728"/>
</linearGradient>
<path class="st85" d="M171.6,123.7h34.7v9.4h-24.5v10.7h19.2v9.4h-19.2v19h-10.1V123.7z"/>
<linearGradient id="SVGID_74_" gradientUnits="userSpaceOnUse" x1="150.0414" y1="249.4967" x2="257.3784" y2="156.2417" gradientTransform="matrix(1 0 0 -1 0 322)">
	<stop  offset="0" style="stop-color:#A5A5A5"/>
	<stop  offset="0.416" style="stop-color:#424242"/>
	<stop  offset="1" style="stop-color:#292728"/>
</linearGradient>
<path class="st86" d="M211.7,123.7h37v9.4h-13.4v39.1h-10.1v-39.1h-13.5V123.7z"/>
<linearGradient id="SVGID_75_" gradientUnits="userSpaceOnUse" x1="107.8265" y1="200.9071" x2="215.1635" y2="107.6521" gradientTransform="matrix(1 0 0 -1 0 322)">
	<stop  offset="0" style="stop-color:#A5A5A5"/>
	<stop  offset="0.416" style="stop-color:#424242"/>
	<stop  offset="1" style="stop-color:#292728"/>
</linearGradient>
<path class="st87" d="M150.1,124h10.1v48.5h-8.7l-23.2-30.8v30.8h-10.1V124h8.8l23.2,30.9V124z"/>
<linearGradient id="SVGID_76_" gradientUnits="userSpaceOnUse" x1="129.5288" y1="225.8867" x2="236.8658" y2="132.6317" gradientTransform="matrix(1 0 0 -1 0 322)">
	<stop  offset="0" style="stop-color:#A5A5A5"/>
	<stop  offset="0.416" style="stop-color:#424242"/>
	<stop  offset="1" style="stop-color:#292728"/>
</linearGradient>
<path class="st88" d="M172.3,124h34.7v9.4h-24.5v10.7h19.2v9.4h-19.2v19h-10.1V124z"/>
<linearGradient id="SVGID_77_" gradientUnits="userSpaceOnUse" x1="150.157" y1="249.6297" x2="257.494" y2="156.3747" gradientTransform="matrix(1 0 0 -1 0 322)">
	<stop  offset="0" style="stop-color:#A5A5A5"/>
	<stop  offset="0.416" style="stop-color:#424242"/>
	<stop  offset="1" style="stop-color:#292728"/>
</linearGradient>
<path class="st89" d="M212.3,124h37v9.4h-13.4v39.1h-10.1v-39.1h-13.5V124z"/>
<linearGradient id="SVGID_78_" gradientUnits="userSpaceOnUse" x1="107.942" y1="201.0401" x2="215.279" y2="107.7851" gradientTransform="matrix(1 0 0 -1 0 322)">
	<stop  offset="0" style="stop-color:#A5A5A5"/>
	<stop  offset="0.416" style="stop-color:#424242"/>
	<stop  offset="1" style="stop-color:#292728"/>
</linearGradient>
<path class="st90" d="M150.7,124.3h10.1v48.5H152L128.8,142v30.8h-10.1v-48.5h8.8l23.2,30.9V124.3z"/>
<linearGradient id="SVGID_79_" gradientUnits="userSpaceOnUse" x1="129.6444" y1="226.0197" x2="236.9814" y2="132.7647" gradientTransform="matrix(1 0 0 -1 0 322)">
	<stop  offset="0" style="stop-color:#A5A5A5"/>
	<stop  offset="0.416" style="stop-color:#424242"/>
	<stop  offset="1" style="stop-color:#292728"/>
</linearGradient>
<path class="st91" d="M172.9,124.3h34.7v9.4H183v10.7h19.2v9.4H183v19h-10.1V124.3z"/>
<linearGradient id="SVGID_80_" gradientUnits="userSpaceOnUse" x1="150.2725" y1="249.7627" x2="257.6095" y2="156.5077" gradientTransform="matrix(1 0 0 -1 0 322)">
	<stop  offset="0" style="stop-color:#A5A5A5"/>
	<stop  offset="0.416" style="stop-color:#424242"/>
	<stop  offset="1" style="stop-color:#292728"/>
</linearGradient>
<path class="st92" d="M212.9,124.3h37v9.4h-13.4v39.1h-10.1v-39.1h-13.5V124.3z"/>
<linearGradient id="SVGID_81_" gradientUnits="userSpaceOnUse" x1="108.0575" y1="201.1731" x2="215.3945" y2="107.9181" gradientTransform="matrix(1 0 0 -1 0 322)">
	<stop  offset="0" style="stop-color:#A5A5A5"/>
	<stop  offset="0.416" style="stop-color:#424242"/>
	<stop  offset="1" style="stop-color:#292728"/>
</linearGradient>
<path class="st93" d="M151.3,124.6h10.1v48.5h-8.7l-23.2-30.8v30.8h-10.1v-48.5h8.8l23.2,30.9V124.6z"/>
<linearGradient id="SVGID_82_" gradientUnits="userSpaceOnUse" x1="129.7599" y1="226.1527" x2="237.0969" y2="132.8977" gradientTransform="matrix(1 0 0 -1 0 322)">
	<stop  offset="0" style="stop-color:#A5A5A5"/>
	<stop  offset="0.416" style="stop-color:#424242"/>
	<stop  offset="1" style="stop-color:#292728"/>
</linearGradient>
<path class="st94" d="M173.5,124.6h34.7v9.4h-24.5v10.7h19.2v9.4h-19.2v19h-10.1V124.6z"/>
<linearGradient id="SVGID_83_" gradientUnits="userSpaceOnUse" x1="150.3883" y1="249.896" x2="257.7253" y2="156.641" gradientTransform="matrix(1 0 0 -1 0 322)">
	<stop  offset="0" style="stop-color:#A5A5A5"/>
	<stop  offset="0.416" style="stop-color:#424242"/>
	<stop  offset="1" style="stop-color:#292728"/>
</linearGradient>
<path class="st95" d="M213.5,124.6h37v9.4h-13.4v39.1H227V134h-13.5V124.6z"/>
<linearGradient id="SVGID_84_" gradientUnits="userSpaceOnUse" x1="108.1733" y1="201.3063" x2="215.5103" y2="108.0513" gradientTransform="matrix(1 0 0 -1 0 322)">
	<stop  offset="0" style="stop-color:#A5A5A5"/>
	<stop  offset="0.416" style="stop-color:#424242"/>
	<stop  offset="1" style="stop-color:#292728"/>
</linearGradient>
<path class="st96" d="M151.9,124.9H162v48.5h-8.7l-23.2-30.8v30.8h-10.1v-48.5h8.8l23.2,30.9V124.9z"/>
<linearGradient id="SVGID_85_" gradientUnits="userSpaceOnUse" x1="129.8757" y1="226.2859" x2="237.2127" y2="133.0309" gradientTransform="matrix(1 0 0 -1 0 322)">
	<stop  offset="0" style="stop-color:#A5A5A5"/>
	<stop  offset="0.416" style="stop-color:#424242"/>
	<stop  offset="1" style="stop-color:#292728"/>
</linearGradient>
<path class="st97" d="M174.1,124.9h34.7v9.4h-24.5V145h19.2v9.4h-19.2v19h-10.1V124.9z"/>
<linearGradient id="SVGID_86_" gradientUnits="userSpaceOnUse" x1="150.5038" y1="250.029" x2="257.8408" y2="156.774" gradientTransform="matrix(1 0 0 -1 0 322)">
	<stop  offset="0" style="stop-color:#A5A5A5"/>
	<stop  offset="0.416" style="stop-color:#424242"/>
	<stop  offset="1" style="stop-color:#292728"/>
</linearGradient>
<path class="st98" d="M214.2,124.9h37v9.4h-13.4v39.1h-10.1v-39.1h-13.5V124.9z"/>
<linearGradient id="SVGID_87_" gradientUnits="userSpaceOnUse" x1="102.0281" y1="204.3101" x2="209.3651" y2="111.0551" gradientTransform="matrix(1 0 0 -1 0 322)">
	<stop  offset="0" style="stop-color:#292728"/>
	<stop  offset="0.4345" style="stop-color:#434142"/>
	<stop  offset="1" style="stop-color:#8A8A8A"/>
</linearGradient>
<path class="st99" d="M145.8,121.9h10.1v48.5h-8.7l-23.2-30.8v30.8h-10.1v-48.5h8.8l23.2,30.9V121.9z"/>
<linearGradient id="SVGID_88_" gradientUnits="userSpaceOnUse" x1="123.7305" y1="229.2897" x2="231.0675" y2="136.0347" gradientTransform="matrix(1 0 0 -1 0 322)">
	<stop  offset="0" style="stop-color:#292728"/>
	<stop  offset="0.4345" style="stop-color:#434142"/>
	<stop  offset="1" style="stop-color:#8A8A8A"/>
</linearGradient>
<path class="st100" d="M168,121.9h34.7v9.4h-24.5V142h19.2v9.4h-19.2v19H168V121.9z"/>
<linearGradient id="SVGID_89_" gradientUnits="userSpaceOnUse" x1="144.3586" y1="253.0327" x2="251.6956" y2="159.7777" gradientTransform="matrix(1 0 0 -1 0 322)">
	<stop  offset="0" style="stop-color:#292728"/>
	<stop  offset="0.4345" style="stop-color:#434142"/>
	<stop  offset="1" style="stop-color:#8A8A8A"/>
</linearGradient>
<path class="st101" d="M208,121.9h37v9.4h-13.4v39.1h-10.1v-39.1H208V121.9z"/>
<path class="st102" d="M263.4,35v12.2c0,1.5,0.8,2.9,2,3.6l11.6,6.9v196.4l-11.6,6.9c-1.2,0.7-2,2.1-2,3.6v12.2H95.5v-12.2
	c0-1.5-0.8-2.9-2-3.6l-11.6-6.9V57.7l11.6-6.9c1.2-0.7,2-2.1,2-3.6V35H263.4z M96.9,36.4v10.7c0,2-1,3.8-2.7,4.8l-10.9,6.5v194.8
	l10.9,6.5c1.7,1,2.7,2.9,2.7,4.8v10.7h165v-10.7c0-2,1-3.8,2.7-4.8l10.9-6.5V58.5L264.6,52c-1.7-1-2.7-2.9-2.7-4.8V36.4H96.9z"/>
<linearGradient id="SVGID_90_" gradientUnits="userSpaceOnUse" x1="285.3398" y1="32.7596" x2="285.33" y2="32.7604" gradientTransform="matrix(1 0 0 -1 0 322)">
	<stop  offset="0" style="stop-color:#FFDC67"/>
	<stop  offset="1" style="stop-color:#F0B90B"/>
</linearGradient>
<path class="st103" d="M285.3,289.2C285.3,289.2,285.3,289.2,285.3,289.2C285.3,289.2,285.3,289.2,285.3,289.2z"/>
</svg>
