<?xml version="1.0" encoding="utf-8"?>
<!-- Generator: Adobe Illustrator 25.0.1, SVG Export Plug-In . SVG Version: 6.00 Build 0)  -->
<svg version="1.1" id="Capa_1" xmlns="http://www.w3.org/2000/svg" xmlns:xlink="http://www.w3.org/1999/xlink" x="0px" y="0px"
	 viewBox="0 0 151.2 157.6" style="enable-background:new 0 0 151.2 157.6;" xml:space="preserve">
<style type="text/css">
	.st0{fill:url(#SVGID_1_);}
	.st1{fill:url(#SVGID_2_);}
	.st2{fill:url(#SVGID_3_);}
	.st3{fill:url(#SVGID_4_);}
	.st4{fill:url(#SVGID_5_);}
	.st5{fill:url(#SVGID_6_);}
	.st6{fill:url(#SVGID_7_);}
	.st7{fill:url(#SVGID_8_);}
	.st8{fill:#333132;fill-opacity:0.6;}
	.st9{fill:url(#SVGID_9_);}
	.st10{fill:url(#SVGID_10_);}
	.st11{fill:url(#SVGID_11_);}
	.st12{fill:url(#SVGID_12_);}
	.st13{fill:url(#SVGID_13_);}
	.st14{fill:url(#SVGID_14_);}
	.st15{fill:url(#SVGID_15_);}
	.st16{fill:url(#SVGID_16_);}
	.st17{fill:#302E2F;fill-opacity:0.19;}
	.st18{fill:#FFFFFF;}
	.st19{fill:#BCBCBC;}
	.st20{fill:#FFFFFF;fill-opacity:0.66;}
	.st21{fill-rule:evenodd;clip-rule:evenodd;fill:#343233;fill-opacity:0.27;}
	.st22{fill-rule:evenodd;clip-rule:evenodd;fill:#343233;fill-opacity:0.3;}
	.st23{fill-rule:evenodd;clip-rule:evenodd;fill:url(#SVGID_19_);}
	.st24{fill:url(#SVGID_20_);}
	.st25{fill:url(#SVGID_21_);}
	.st26{fill:url(#SVGID_22_);}
	.st27{fill:url(#SVGID_23_);}
</style>
<linearGradient id="SVGID_1_" gradientUnits="userSpaceOnUse" x1="177.3385" y1="802.9904" x2="55.6891" y2="930.1784" gradientTransform="matrix(1 0 0 1 0 -758)">
	<stop  offset="0" style="stop-color:#292728"/>
	<stop  offset="0.5795" style="stop-color:#434142"/>
	<stop  offset="1" style="stop-color:#8A8A8A"/>
</linearGradient>
<path class="st0" d="M142.9,31l-2.2,1.3v98.4l2.2,1.3V31z"/>
<linearGradient id="SVGID_2_" gradientUnits="userSpaceOnUse" x1="113.0399" y1="741.4918" x2="-8.6095" y2="868.6799" gradientTransform="matrix(1 0 0 1 0 -758)">
	<stop  offset="0" style="stop-color:#292728"/>
	<stop  offset="0.5795" style="stop-color:#434142"/>
	<stop  offset="1" style="stop-color:#8A8A8A"/>
</linearGradient>
<path class="st1" d="M18.8,31l2.2,1.3v98.4l-2.2,1.3V31z"/>
<linearGradient id="SVGID_3_" gradientUnits="userSpaceOnUse" x1="145.1892" y1="772.241" x2="23.5398" y2="899.4292" gradientTransform="matrix(1 0 0 1 0 -758)">
	<stop  offset="0" style="stop-color:#292728"/>
	<stop  offset="0.5795" style="stop-color:#434142"/>
	<stop  offset="1" style="stop-color:#8A8A8A"/>
</linearGradient>
<path class="st2" d="M24.1,13.5h113.4v136H24.1V13.5z"/>
<linearGradient id="SVGID_4_" gradientUnits="userSpaceOnUse" x1="83.084" y1="712.8404" x2="-38.5654" y2="840.0285" gradientTransform="matrix(1 0 0 1 0 -758)">
	<stop  offset="0" style="stop-color:#292728"/>
	<stop  offset="0.5795" style="stop-color:#434142"/>
	<stop  offset="1" style="stop-color:#8A8A8A"/>
</linearGradient>
<path class="st3" d="M17.6,13.3l5.9-3.6c0.7-0.4-6.9-4.8-6.6-4.9c0.3,0,0.6,0,0.9,0c0.3,0.1,0.7,0.3,1.3,0.7L33,13.2
	c0.7,0.4,1,0.6,1.2,0.9c0.2,0.2,0.4,0.5,0.5,0.8c0.1,0.4,0.1,0.7,0.1,1.5v6.3c0,0.8,0,1.2-0.1,1.5c-0.1,0.3-0.2,0.6-0.5,0.8
	C34,25.4,33.7,25.6,33,26l-5.9,3.6c-0.7,0.4-1,0.6-1.3,0.7c-0.3,0-0.6,0-0.9,0c-0.3-0.1-0.7-0.3-1.3-0.7L17.6,26
	c-0.7-0.4-1-0.6-1.2-0.9c-0.2-0.2-0.4-0.5-0.5-0.8c-0.1-0.4-0.1-0.7-0.1-1.5v-6.3c0-0.8,0-1.2,0.1-1.5c0.1-0.3,0.2-0.6,0.5-0.8
	C16.6,13.8,16.9,13.6,17.6,13.3z"/>
<linearGradient id="SVGID_5_" gradientUnits="userSpaceOnUse" x1="140.7579" y1="768.0028" x2="19.1086" y2="895.1909" gradientTransform="matrix(1 0 0 1 0 -758)">
	<stop  offset="0" style="stop-color:#292728"/>
	<stop  offset="0.5795" style="stop-color:#434142"/>
	<stop  offset="1" style="stop-color:#8A8A8A"/>
</linearGradient>
<path class="st4" d="M128.6,13.3l-2.5-7.9c0.7-0.4,1-0.6,1.3-0.7c0.3,0,0.6,0,0.9,0c0.3,0.1,0.7,0.3,1.3,0.7l14.4,7.9
	c0.7,0.4,1,0.6,1.2,0.9c0.2,0.2,0.4,0.5,0.5,0.8c0.1,0.4,0.1,0.7,0.1,1.5v6.3c0,0.8,0,1.2-0.1,1.5c-0.1,0.3-0.2,0.6-0.5,0.8
	c-0.2,0.3-0.6,0.5-1.2,0.9l-5.9,3.6c-0.7,0.4-1,0.6-1.3,0.7c-0.3,0-0.6,0-0.9,0c-0.3-0.1-0.7-0.3-1.3-0.7l-5.9-3.6
	c-0.7-0.4-1-0.6-1.2-0.9c-0.2-0.2-0.4-0.5-0.5-0.8c-0.1-0.4-0.1-0.7-0.1-1.5v-6.3c0-0.8,0-1.2,0.1-1.5c0.1-0.3,0.2-0.6,0.5-0.8
	C127.6,13.8,127.9,13.6,128.6,13.3z"/>
<linearGradient id="SVGID_6_" gradientUnits="userSpaceOnUse" x1="147.0822" y1="774.0516" x2="25.4328" y2="901.2397" gradientTransform="matrix(1 0 0 1 0 -758)">
	<stop  offset="0" style="stop-color:#292728"/>
	<stop  offset="0.5795" style="stop-color:#434142"/>
	<stop  offset="1" style="stop-color:#8A8A8A"/>
</linearGradient>
<path class="st5" d="M17.6,137l5.9-3.6c0.7-0.4,1-0.6,1.3-0.7c0.3,0,0.6,0,0.9,0c0.3,0.1,0.7,0.3,1.3,0.7L33,137
	c0.7,0.4,1,0.6,1.2,0.9c0.2,0.2,0.4,0.5,0.5,0.8c0.1,0.4,0.1,0.7,0.1,1.5v6.3c0,0.8,0,1.2-0.1,1.5c-0.1,0.3-0.2,0.6-0.5,0.8
	c-0.2,0.3-0.6,0.5-1.2,0.9l-5.9,3.6c-0.7,0.4-1,0.6-1.3,0.7c-0.3,0-0.6,0-0.9,0c-0.3-0.1-0.7-0.3-1.3-0.7l-7.3-3.4
	c-0.7-0.4-1-0.6-1.2-0.9c-0.2-0.2-0.4-0.5-0.5-0.8c-0.1-0.4-0.1-0.7-0.1-1.5l1.4-6.5c0-0.8,0-1.2,0.1-1.5c0.1-0.3,0.2-0.6,0.5-0.8
	C16.6,137.6,16.9,137.4,17.6,137z"/>
<linearGradient id="SVGID_7_" gradientUnits="userSpaceOnUse" x1="204.7409" y1="829.1995" x2="83.0916" y2="956.3876" gradientTransform="matrix(1 0 0 1 0 -758)">
	<stop  offset="0" style="stop-color:#292728"/>
	<stop  offset="0.5795" style="stop-color:#434142"/>
	<stop  offset="1" style="stop-color:#8A8A8A"/>
</linearGradient>
<path class="st6" d="M128.6,137l5.9-3.6c0.7-0.4,1-0.6,1.3-0.7c0.3,0,0.6,0,0.9,0c0.3,0.1,0.7,0.3,1.3,0.7l4.9,3.5
	c0.7,0.4,1,0.6,1.2,0.9c0.2,0.2,0.4,0.5,0.5,0.8c0.1,0.4,0.1,0.7,0.1,1.5v6.3c0,0.8,0,1.2-0.1,1.5c-0.1,0.3-0.2,0.6-0.5,0.8
	c-0.2,0.3-0.6,0.5-1.2,0.9l-5.8,3.3c-0.7,0.4-1,0.6-1.3,0.7c-0.3,0-0.6,0-0.9,0c-0.3-0.1-0.7-0.3-1.3-0.7l-6.5-3.2
	c-0.7-0.4-1-0.6-1.2-0.9c-0.2-0.2-0.4-0.5-0.5-0.8c-0.1-0.4,1.3-0.7,1.3-1.5v-6.3c0-0.8,0-1.2,0.1-1.5c0.1-0.3,0.2-0.6,0.5-0.8
	C127.6,137.6,127.9,137.4,128.6,137z"/>
<linearGradient id="SVGID_8_" gradientUnits="userSpaceOnUse" x1="14.3331" y1="883.9373" x2="14.9758" y2="786.8099" gradientTransform="matrix(1 0 0 1 0 -758)">
	<stop  offset="0" style="stop-color:#5E5D5E"/>
	<stop  offset="0.1563" style="stop-color:#2E2E2E"/>
	<stop  offset="0.3646" style="stop-color:#242327"/>
	<stop  offset="0.8338" style="stop-color:#615F60"/>
	<stop  offset="0.9168" style="stop-color:#1D1D21"/>
	<stop  offset="1" style="stop-color:#151619"/>
</linearGradient>
<path class="st7" d="M10.2,127.9l8.8,4L18.9,31l-8.6-4.1L10.2,127.9z"/>
<path class="st8" d="M17.7,129.2l-5.3-2.7l-2.2,1.4l4.6,2.2L17.7,129.2z"/>
<linearGradient id="SVGID_9_" gradientUnits="userSpaceOnUse" x1="51.9961" y1="740.2051" x2="165.0541" y2="871.7678" gradientTransform="matrix(1 0 0 1 0 -758)">
	<stop  offset="0" style="stop-color:#292728"/>
	<stop  offset="0.6339" style="stop-color:#434142"/>
	<stop  offset="1" style="stop-color:#8A8A8A"/>
</linearGradient>
<path class="st9" d="M134.3,26.8l-2.2,1.3v98.4l2.2,1.3V26.8z"/>
<linearGradient id="SVGID_10_" gradientUnits="userSpaceOnUse" x1="-18.7776" y1="801.0243" x2="94.2804" y2="932.587" gradientTransform="matrix(1 0 0 1 0 -758)">
	<stop  offset="0" style="stop-color:#292728"/>
	<stop  offset="0.6339" style="stop-color:#434142"/>
	<stop  offset="1" style="stop-color:#8A8A8A"/>
</linearGradient>
<path class="st10" d="M10.1,26.8l2.2,1.3v98.4l-2.2,1.3V26.8z"/>
<linearGradient id="SVGID_11_" gradientUnits="userSpaceOnUse" x1="16.6458" y1="770.5833" x2="129.7039" y2="902.146" gradientTransform="matrix(1 0 0 1 0 -758)">
	<stop  offset="0" style="stop-color:#292728"/>
	<stop  offset="0.6339" style="stop-color:#434142"/>
	<stop  offset="1" style="stop-color:#8A8A8A"/>
</linearGradient>
<path class="st11" d="M15.5,9.2h113.4v136H15.5V9.2z"/>
<linearGradient id="SVGID_12_" gradientUnits="userSpaceOnUse" x1="139.0752" y1="786.9122" x2="137.9717" y2="887.0428" gradientTransform="matrix(1 0 0 1 0 -758)">
	<stop  offset="0" style="stop-color:#5E5D5E"/>
	<stop  offset="0.1563" style="stop-color:#2E2E2E"/>
	<stop  offset="0.3646" style="stop-color:#242327"/>
	<stop  offset="0.8338" style="stop-color:#615F60"/>
	<stop  offset="0.9168" style="stop-color:#1D1D21"/>
	<stop  offset="1" style="stop-color:#151619"/>
</linearGradient>
<path class="st12" d="M142.8,31.1l-8.7-4.3l0.1,100.9l8.6,4.1L142.8,31.1z"/>
<linearGradient id="SVGID_13_" gradientUnits="userSpaceOnUse" x1="122.9181" y1="783.0657" x2="15.1314" y2="879.0885" gradientTransform="matrix(1 0 0 1 0 -758)">
	<stop  offset="0" style="stop-color:#F8F8F8"/>
	<stop  offset="1" style="stop-color:#BEBEBE"/>
</linearGradient>
<path class="st13" d="M118.7,21.5c-0.6-0.3-0.9-1-0.9-1.7v-5.7H64.3v73h59.9V24.7L118.7,21.5z"/>
<linearGradient id="SVGID_14_" gradientUnits="userSpaceOnUse" x1="104.8095" y1="762.7386" x2="-2.9772" y2="858.7614" gradientTransform="matrix(1 0 0 1 0 -758)">
	<stop  offset="0" style="stop-color:#F8F8F8"/>
	<stop  offset="1" style="stop-color:#BEBEBE"/>
</linearGradient>
<path class="st14" d="M25.7,21.5c0.6-0.3,0.9-1,0.9-1.7v-5.7h53.4v73H20.3V24.7L25.7,21.5z"/>
<linearGradient id="SVGID_15_" gradientUnits="userSpaceOnUse" x1="147.9284" y1="811.1401" x2="40.1417" y2="907.1628" gradientTransform="matrix(1 0 0 1 0 -758)">
	<stop  offset="0" style="stop-color:#F8F8F8"/>
	<stop  offset="1" style="stop-color:#BEBEBE"/>
</linearGradient>
<path class="st15" d="M118.7,132.9c-0.6,0.3-0.9,1-0.9,1.7v5.7H64.3v-73h59.9v62.3L118.7,132.9z"/>
<linearGradient id="SVGID_16_" gradientUnits="userSpaceOnUse" x1="129.8302" y1="790.8245" x2="22.0434" y2="886.8474" gradientTransform="matrix(1 0 0 1 0 -758)">
	<stop  offset="0" style="stop-color:#F8F8F8"/>
	<stop  offset="1" style="stop-color:#BEBEBE"/>
</linearGradient>
<path class="st16" d="M25.7,132.9c0.6,0.3,0.9,1,0.9,1.7v5.7h53.4v-73H20.3v62.3L25.7,132.9z"/>
<g>
	<path class="st17" d="M26,13l7.3,7.9l1,7.4l-8-7.1L26,13z"/>
	<path class="st18" d="M121.6,17.1l-10.3,10.1l3.2,7.2l10.3-10.2L121.6,17.1z"/>
	<path class="st19" d="M108.8,23l9.3-9.2l3.1,3.8l-11.4,11.5L108.8,23z"/>
	<path class="st20" d="M34.7,28.7l-8.6-7.6l-7.3,2l8.5,8.8L34.7,28.7z"/>
	<path class="st17" d="M119,141.6l-7.9-8.2l-0.7-7.1l8,7.1L119,141.6z"/>
	<path class="st18" d="M22.6,137.3l10.3-10.1l-3.2-7.2l-10.3,10.2L22.6,137.3z"/>
	<path class="st19" d="M35.5,131.4l-9.3,9.2l-3.1-3.8l11.4-11.5L35.5,131.4z"/>
	<path class="st20" d="M110.1,126.1l8.6,7.6l7.3-2l-8.5-8.8L110.1,126.1z"/>
</g>
<g>
	<defs>
		<path id="SVGID_17_" d="M111.5,20.6v5.7c0,0.7,0.4,1.4,0.9,1.7l5.4,3.2v36.1v19.7v36.1l-5.4,3.2c-0.6,0.3-0.9,1-0.9,1.7v5.7H80.1
			H64.4H32.9v-5.7c0-0.7-0.4-1.4-0.9-1.7l-5.4-3.2V87.1V67.3v-36L32,28c0.6-0.3,0.9-1,0.9-1.7v-5.7h31.4h15.7H111.5z"/>
	</defs>
	<clipPath id="SVGID_18_">
		<use xlink:href="#SVGID_17_"  style="overflow:visible;"/>
	</clipPath>
	<g style="clip-path:url(#SVGID_18_);">
		<image style="overflow:visible;" width="120" height="120" xlink:href="21@2x.png"  transform="matrix(1 0 0 1 11.2 17.0758)">
		</image>
	</g>
</g>
<path class="st21" d="M111.5,20.6v5.7c0,0.7,0.4,1.4,0.9,1.7l5.4,3.2v91.9l-5.4,3.2c-0.6,0.3-0.9,1-0.9,1.7v5.7H32.9v-5.7
	c0-0.7-0.4-1.4-0.9-1.7l-5.4-3.2V31.2L32,28c0.6-0.3,0.9-1,0.9-1.7v-5.7H111.5z M33.6,21.3v5c0,0.9-0.5,1.8-1.3,2.2l-5.1,3v91.2
	l5.1,3c0.8,0.5,1.3,1.4,1.3,2.2v5h77.2v-5c0-0.9,0.5-1.8,1.3-2.2l5.1-3V31.6l-5.1-3c-0.8-0.5-1.3-1.4-1.3-2.2v-5.1H33.6z"/>
<path class="st22" d="M111.5,20.6v5.7c0,0.7,0.4,1.4,0.9,1.7l5.4,3.2v91.9l-5.4,3.2c-0.6,0.3-0.9,1-0.9,1.7v5.7H32.9v-5.7
	c0-0.7-0.4-1.4-0.9-1.7l-5.4-3.2V31.2L32,28c0.6-0.3,0.9-1,0.9-1.7v-5.7H111.5z M33.6,21.3v5c0,0.9-0.5,1.8-1.3,2.2l-5.1,3v91.2
	l5.1,3c0.8,0.5,1.3,1.4,1.3,2.2v5h77.2v-5c0-0.9,0.5-1.8,1.3-2.2l5.1-3V31.6l-5.1-3c-0.8-0.5-1.3-1.4-1.3-2.2v-5.1H33.6z"/>
<linearGradient id="SVGID_19_" gradientUnits="userSpaceOnUse" x1="121.765" y1="897.5759" x2="121.765" y2="897.5759" gradientTransform="matrix(1 0 0 1 0 -758)">
	<stop  offset="0" style="stop-color:#FFDC67"/>
	<stop  offset="1" style="stop-color:#F0B90B"/>
</linearGradient>
<path class="st23" d="M121.8,139.6L121.8,139.6L121.8,139.6z"/>
<linearGradient id="SVGID_20_" gradientUnits="userSpaceOnUse" x1="15.2532" y1="771.78" x2="128.3113" y2="903.3427" gradientTransform="matrix(1 0 0 1 0 -758)">
	<stop  offset="0" style="stop-color:#292728"/>
	<stop  offset="0.6339" style="stop-color:#434142"/>
	<stop  offset="1" style="stop-color:#8A8A8A"/>
</linearGradient>
<path class="st24" d="M9,9.1l5.9-3.6c0.7-0.4,1-0.6,1.3-0.7c0.3,0,0.6,0,0.9,0c0.3,0.1,0.7,0.3,1.3,0.7l5.9,3.6
	c0.7,0.4,1,0.6,1.2,0.9c0.2,0.2,0.4,0.5,0.5,0.8c0.1,0.4,0.1,0.7,0.1,1.5v6.3c0,0.8,0,1.2-0.1,1.5c-0.1,0.3-0.2,0.6-0.5,0.8
	c-0.2,0.3-0.6,0.5-1.2,0.9l-5.9,3.6c-0.7,0.4-1,0.6-1.3,0.7c-0.3,0-0.6,0-0.9,0c-0.3-0.1-0.7-0.3-1.3-0.7L9,21.9
	c-0.7-0.4-1-0.6-1.2-0.9c-0.2-0.2-0.4-0.5-0.5-0.8c-0.1-0.4-0.1-0.7-0.1-1.5v-6.3c0-0.8,0-1.2,0.1-1.5c0.1-0.3,0.2-0.6,0.5-0.8
	C8,9.6,8.3,9.4,9,9.1z"/>
<linearGradient id="SVGID_21_" gradientUnits="userSpaceOnUse" x1="79.1069" y1="716.9075" x2="192.1649" y2="848.4702" gradientTransform="matrix(1 0 0 1 0 -758)">
	<stop  offset="0" style="stop-color:#292728"/>
	<stop  offset="0.6339" style="stop-color:#434142"/>
	<stop  offset="1" style="stop-color:#8A8A8A"/>
</linearGradient>
<path class="st25" d="M120,9.1l5.9-3.6c0.7-0.4,1-0.6,1.3-0.7c0.3,0,0.6,0,0.9,0c0.3,0.1,0.7,0.3,1.3,0.7l5.9,3.6
	c0.7,0.4,1,0.6,1.2,0.9c0.2,0.2,0.4,0.5,0.5,0.8c0.1,0.4,0.1,0.7,0.1,1.5v6.3c0,0.8,0,1.2-0.1,1.5c-0.1,0.3-0.2,0.6-0.5,0.8
	c-0.2,0.3-0.6,0.5-1.2,0.9l-5.9,3.6c-0.7,0.4-1,0.6-1.3,0.7c-0.3,0-0.6,0-0.9,0c-0.3-0.1-0.7-0.3-1.3-0.7l-5.9-3.6
	c-0.7-0.4-1-0.6-1.2-0.9c-0.2-0.2-0.4-0.5-0.5-0.8c-0.1-0.4-0.1-0.7-0.1-1.5v-6.3c0-0.8,0-1.2,0.1-1.5c0.1-0.3,0.2-0.6,0.5-0.8
	C119,9.6,119.3,9.4,120,9.1z"/>
<linearGradient id="SVGID_22_" gradientUnits="userSpaceOnUse" x1="-45.8884" y1="824.3219" x2="67.1696" y2="955.8846" gradientTransform="matrix(1 0 0 1 0 -758)">
	<stop  offset="0" style="stop-color:#292728"/>
	<stop  offset="0.6339" style="stop-color:#434142"/>
	<stop  offset="1" style="stop-color:#8A8A8A"/>
</linearGradient>
<path class="st26" d="M9,132.7l5.9-3.6c0.7-0.4,1-0.6,1.3-0.7s0.6,0,0.9,0c0.3,0.1,0.7,0.3,1.3,0.7l5.9,3.6c0.7,0.4,1,0.6,1.2,0.9
	c0.2,0.2,0.4,0.5,0.5,0.8c0.1,0.4,0.1,0.7,0.1,1.5v6.3c0,0.8,0,1.2-0.1,1.5c-0.1,0.3-0.2,0.6-0.5,0.8c-0.2,0.3-0.6,0.5-1.2,0.9
	l-5.9,3.6c-0.7,0.4-1,0.6-1.3,0.7c-0.3,0-0.6,0-0.9,0c-0.3-0.1-0.7-0.3-1.3-0.7L9,145.6c-0.7-0.4-1-0.6-1.2-0.9
	c-0.2-0.2-0.4-0.5-0.5-0.8c-0.1-0.4-0.1-0.7-0.1-1.5V136c0-0.8,0-1.2,0.1-1.5c0.1-0.3,0.2-0.6,0.5-0.8C8,133.4,8.3,133.1,9,132.7z"
	/>
<linearGradient id="SVGID_23_" gradientUnits="userSpaceOnUse" x1="17.9653" y1="769.4494" x2="131.0233" y2="901.0121" gradientTransform="matrix(1 0 0 1 0 -758)">
	<stop  offset="0" style="stop-color:#292728"/>
	<stop  offset="0.6339" style="stop-color:#434142"/>
	<stop  offset="1" style="stop-color:#8A8A8A"/>
</linearGradient>
<path class="st27" d="M120,132.7l5.9-3.6c0.7-0.4,1-0.6,1.3-0.7c0.3,0,0.6,0,0.9,0c0.3,0.1,0.7,0.3,1.3,0.7l5.9,3.6
	c0.7,0.4,1,0.6,1.2,0.9c0.2,0.2,0.4,0.5,0.5,0.8c0.1,0.4,0.1,0.7,0.1,1.5v6.3c0,0.8,0,1.2-0.1,1.5c-0.1,0.3-0.2,0.6-0.5,0.8
	c-0.2,0.3-0.6,0.5-1.2,0.9l-5.9,3.6c-0.7,0.4-1,0.6-1.3,0.7c-0.3,0-0.6,0-0.9,0c-0.3-0.1-0.7-0.3-1.3-0.7l-5.9-3.6
	c-0.7-0.4-1-0.6-1.2-0.9c-0.2-0.2-0.4-0.5-0.5-0.8c-0.1-0.4-0.1-0.7-0.1-1.5V136c0-0.8,0-1.2,0.1-1.5c0.1-0.3,0.2-0.6,0.5-0.8
	C119,133.4,119.3,133.1,120,132.7z"/>
</svg>
