<svg width="574" height="409" viewBox="0 0 574 409" fill="none" xmlns="http://www.w3.org/2000/svg">
<mask id="mask0" mask-type="alpha" maskUnits="userSpaceOnUse" x="0" y="5" width="392" height="359">
<path fill-rule="evenodd" clip-rule="evenodd" d="M346.192 166.772L275.231 40.4568L226.496 40.4568C234.784 55.6895 245.649 75.7161 256.461 95.6658C267.332 115.725 278.154 135.714 286.258 150.688C289.727 157.097 292.697 162.587 294.961 166.772L346.192 166.772ZM265.145 184.273C262.869 180.067 259.862 174.51 256.342 168.006C248.24 153.036 237.421 133.053 226.555 113.002C215.687 92.9489 204.775 72.8353 196.485 57.5998C192.75 50.7354 189.553 44.873 187.135 40.4568L117.661 40.4568L92.0782 85.5165L152.963 85.5165C159.209 85.5165 164.979 88.9715 168.088 94.5762L241.782 227.419L265.145 184.273ZM271.117 245.811L294.716 202.228L346.192 202.228L321.708 245.811L271.117 245.811ZM301.789 281.268L242.246 281.268C235.988 281.268 230.209 277.806 227.095 272.192C227.095 272.192 227.095 272.192 227.095 272.192L153.229 139.039L127.524 186.512L205.468 328.543L275.231 328.543L301.789 281.268ZM166.048 328.543L96.7282 202.228L45.9452 202.228L117.661 328.543L166.048 328.543ZM45.9452 166.772L98.9192 166.772L123.717 120.973L71.9474 120.973L45.9452 166.772ZM182.492 32.0616C182.49 32.0579 182.512 32.0945 182.563 32.182C182.519 32.1089 182.493 32.0653 182.492 32.0616ZM388.713 171.883C393.096 179.684 393.096 189.316 388.713 197.117L301.983 351.502C297.636 359.239 289.638 364 280.986 364L111.937 364C103.325 364 95.3569 359.283 90.9961 351.602L3.34325 197.217C-1.11439 189.366 -1.11439 179.634 3.34325 171.783L90.9962 17.3981C95.3569 9.71748 103.325 4.99999 111.937 4.99999L280.986 5C289.638 5 297.636 9.76096 301.983 17.4981L388.713 171.883Z" fill="#F7F7F7"/>
</mask>
<g mask="url(#mask0)">
<path d="M101.908 365L8.07124 200.652C2.45061 190.808 2.45744 178.725 8.08918 168.887L101.908 5M105.213 365L11.3756 200.652C5.75501 190.808 5.76184 178.725 11.3936 168.887L105.213 5M108.517 365L14.68 200.652C9.05941 190.808 9.06624 178.725 14.698 168.887L108.517 5M111.822 365L17.9844 200.652C12.3638 190.808 12.3706 178.725 18.0024 168.887L111.822 5M115.126 365L21.2888 200.652C15.6682 190.808 15.675 178.725 21.3068 168.887L115.126 5M118.43 365L24.5932 200.652C18.9726 190.808 18.9794 178.725 24.6112 168.887L118.43 5M121.735 365L27.8976 200.652C22.277 190.808 22.2838 178.725 27.9156 168.887L121.735 5M125.039 365L31.202 200.652C25.5814 190.808 25.5882 178.725 31.22 168.887L125.039 5M128.344 365L34.5064 200.652C28.8858 190.808 28.8926 178.725 34.5244 168.887L128.344 5M131.648 365L37.8108 200.652C32.1902 190.808 32.197 178.725 37.8288 168.887L131.648 5M134.952 365L41.1152 200.652C35.4946 190.808 35.5014 178.725 41.1332 168.887L134.952 5M138.257 365L44.4196 200.652C38.799 190.808 38.8058 178.725 44.4376 168.887L138.257 5M141.561 365L47.724 200.652C42.1034 190.808 42.1102 178.725 47.742 168.887L141.561 5M144.866 365L51.0284 200.652C45.4078 190.808 45.4146 178.725 51.0464 168.887L144.866 5M148.17 365L54.3328 200.652C48.7122 190.808 48.719 178.725 54.3508 168.887L148.17 5M151.474 365L57.6372 200.652C52.0166 190.808 52.0234 178.725 57.6552 168.887L151.474 5M154.779 365L60.9416 200.652C55.321 190.808 55.3278 178.725 60.9596 168.887L154.779 5M158.083 365L64.246 200.652C58.6254 190.808 58.6322 178.725 64.264 168.887L158.083 5M161.388 365L67.5504 200.652C61.9298 190.808 61.9366 178.725 67.5684 168.887L161.388 5M164.692 365L70.8548 200.652C65.2342 190.808 65.241 178.725 70.8728 168.887L164.692 5M167.996 365L74.1592 200.652C68.5386 190.808 68.5454 178.725 74.1772 168.887L167.996 5M171.301 365L77.4636 200.652C71.843 190.808 71.8498 178.725 77.4816 168.887L171.301 5M174.605 365L80.768 200.652C75.1474 190.808 75.1542 178.725 80.786 168.887L174.605 5M177.91 365L84.0724 200.652C78.4518 190.808 78.4586 178.725 84.0904 168.887L177.91 5M181.214 365L87.3768 200.652C81.7562 190.808 81.763 178.725 87.3948 168.887L181.214 5M184.518 365L90.6812 200.652C85.0606 190.808 85.0674 178.725 90.6992 168.887L184.518 5M187.823 365L93.9856 200.652C88.365 190.808 88.3718 178.725 94.0036 168.887L187.823 5M191.127 365L97.29 200.652C91.6694 190.808 91.6762 178.725 97.308 168.887L191.127 5M194.432 365L100.594 200.652C94.9738 190.808 94.9806 178.725 100.612 168.887L194.432 5M197.736 365L103.899 200.652C98.2782 190.808 98.285 178.725 103.917 168.887L197.736 5M201.04 365L107.203 200.652C101.583 190.808 101.589 178.725 107.221 168.887L201.04 5M204.345 365L110.508 200.652C104.887 190.808 104.894 178.725 110.526 168.887L204.345 5M207.649 365L113.812 200.652C108.191 190.808 108.198 178.725 113.83 168.887L207.649 5M210.954 365L117.116 200.652C111.496 190.808 111.503 178.725 117.134 168.887L210.954 5M214.258 365L120.421 200.652C114.8 190.808 114.807 178.725 120.439 168.887L214.258 5M217.562 365L123.725 200.652C118.105 190.808 118.111 178.725 123.743 168.887L217.562 5M220.867 365L127.03 200.652C121.409 190.808 121.416 178.725 127.048 168.887L220.867 5M224.171 365L130.334 200.652C124.713 190.808 124.72 178.725 130.352 168.887L224.171 5M227.476 365L133.638 200.652C128.018 190.808 128.025 178.725 133.656 168.887L227.476 5M230.78 365L136.943 200.652C131.322 190.808 131.329 178.725 136.961 168.887L230.78 5M234.084 365L140.247 200.652C134.627 190.808 134.633 178.725 140.265 168.887L234.084 5M237.389 365L143.552 200.652C137.931 190.808 137.938 178.725 143.57 168.887L237.389 5M240.693 365L146.856 200.652C141.235 190.808 141.242 178.725 146.874 168.887L240.693 5M243.998 365L150.16 200.652C144.54 190.808 144.547 178.725 150.178 168.887L243.998 5M247.302 365L153.465 200.652C147.844 190.808 147.851 178.725 153.483 168.887L247.302 5M250.606 365L156.769 200.652C151.149 190.808 151.155 178.725 156.787 168.887L250.606 5M253.911 365L160.074 200.652C154.453 190.808 154.46 178.725 160.092 168.887L253.911 5M257.215 365L163.378 200.652C157.757 190.808 157.764 178.725 163.396 168.887L257.215 5M260.52 365L166.682 200.652C161.062 190.808 161.069 178.725 166.7 168.887L260.52 5M263.824 365L169.987 200.652C164.366 190.808 164.373 178.725 170.005 168.887L263.824 5M267.128 365L173.291 200.652C167.671 190.808 167.677 178.725 173.309 168.887L267.128 5M270.433 365L176.596 200.652C170.975 190.808 170.982 178.725 176.614 168.887L270.433 5M273.737 365L179.9 200.652C174.279 190.808 174.286 178.725 179.918 168.887L273.737 5M277.042 365L183.204 200.652C177.584 190.808 177.591 178.725 183.222 168.887L277.042 5M280.346 365L186.509 200.652C180.888 190.808 180.895 178.725 186.527 168.887L280.346 5M283.65 365L189.813 200.652C184.193 190.808 184.199 178.725 189.831 168.887L283.65 5M286.955 365L193.118 200.652C187.497 190.808 187.504 178.725 193.136 168.887L286.955 5M290.259 365L196.422 200.652C190.801 190.808 190.808 178.725 196.44 168.887L290.259 5M293.564 365L199.726 200.652C194.106 190.808 194.113 178.725 199.744 168.887L293.564 5M296.868 365L203.031 200.652C197.41 190.808 197.417 178.725 203.049 168.887L296.868 5M300.172 365L206.335 200.652C200.715 190.808 200.721 178.725 206.353 168.887L300.172 5M303.477 365L209.64 200.652C204.019 190.808 204.026 178.725 209.658 168.887L303.477 5M306.781 365L212.944 200.652C207.323 190.808 207.33 178.725 212.962 168.887L306.781 5M310.086 365L216.248 200.652C210.628 190.808 210.635 178.725 216.266 168.887L310.086 5M313.39 365L219.553 200.652C213.932 190.808 213.939 178.725 219.571 168.887L313.39 5M316.694 365L222.857 200.652C217.237 190.808 217.243 178.725 222.875 168.887L316.694 5M319.999 365L226.162 200.652C220.541 190.808 220.548 178.725 226.18 168.887L319.999 5M323.303 365L229.466 200.652C223.845 190.808 223.852 178.725 229.484 168.887L323.303 5M326.608 365L232.77 200.652C227.15 190.808 227.157 178.725 232.788 168.887L326.608 5M329.912 365L236.075 200.652C230.454 190.808 230.461 178.725 236.093 168.887L329.912 5M333.216 365L239.379 200.652C233.759 190.808 233.765 178.725 239.397 168.887L333.216 5M336.521 365L242.684 200.652C237.063 190.808 237.07 178.725 242.702 168.887L336.521 5M339.825 365L245.988 200.652C240.367 190.808 240.374 178.725 246.006 168.887L339.825 5M343.13 365L249.292 200.652C243.672 190.808 243.679 178.725 249.31 168.887L343.13 5M346.434 365L252.597 200.652C246.976 190.808 246.983 178.725 252.615 168.887L346.434 5M349.738 365L255.901 200.652C250.281 190.808 250.287 178.725 255.919 168.887L349.738 5M353.043 365L259.206 200.652C253.585 190.808 253.592 178.725 259.224 168.887L353.043 5M356.347 365L262.51 200.652C256.889 190.808 256.896 178.725 262.528 168.887L356.347 5M359.652 365L265.814 200.652C260.194 190.808 260.201 178.725 265.832 168.887L359.652 5M362.956 365L269.119 200.652C263.498 190.808 263.505 178.725 269.137 168.887L362.956 5M366.26 365L272.423 200.652C266.803 190.808 266.809 178.725 272.441 168.887L366.26 5M369.565 365L275.728 200.652C270.107 190.808 270.114 178.725 275.746 168.887L369.565 5M372.869 365L279.032 200.652C273.411 190.808 273.418 178.725 279.05 168.887L372.869 5M376.174 365L282.336 200.652C276.716 190.808 276.723 178.725 282.354 168.887L376.174 5M379.478 365L285.641 200.652C280.02 190.808 280.027 178.725 285.659 168.887L379.478 5M382.782 365L288.945 200.652C283.325 190.808 283.331 178.725 288.963 168.887L382.782 5M386.087 365L292.25 200.652C286.629 190.808 286.636 178.725 292.268 168.887L386.087 5M389.391 365L295.554 200.652C289.933 190.808 289.94 178.725 295.572 168.887L389.391 5M392.696 365L298.858 200.652C293.238 190.808 293.245 178.725 298.876 168.887L392.696 5M396 365L302.163 200.652C296.542 190.808 296.549 178.725 302.181 168.887L396 5" stroke="#5C677D" stroke-opacity="0.07" stroke-width="2"/>
</g>
<path d="M354.61 46.9264L354.61 46.9267L420.839 162.094C425.552 170.29 427.788 174.2 428.663 178.333C429.445 182.022 429.445 185.835 428.663 189.524C427.788 193.657 425.552 197.567 420.839 205.763L354.61 320.93C349.87 329.173 347.602 333.094 344.45 335.939C341.637 338.478 338.32 340.397 334.716 341.57C330.679 342.884 326.149 342.896 316.641 342.896L182.908 342.896C173.4 342.896 168.87 342.884 164.833 341.57C161.229 340.397 157.912 338.478 155.099 335.939C151.947 333.094 149.679 329.173 144.939 320.93L78.7101 205.763C73.9969 197.567 71.7614 193.657 70.8859 189.524C70.1043 185.835 70.1043 182.022 70.8859 178.333C71.7614 174.2 73.9968 170.29 78.7101 162.094L144.939 46.9267C149.679 38.6842 151.947 34.7632 155.099 31.9184C157.912 29.379 161.229 27.4604 164.833 26.2874C168.87 24.9733 173.4 24.9616 182.908 24.9616L316.641 24.9616C326.149 24.9616 330.679 24.9733 334.716 26.2874C338.32 27.4604 341.637 29.379 344.45 31.9184C347.591 34.7532 349.854 38.6567 354.56 46.8396C354.577 46.8686 354.593 46.8974 354.61 46.9264Z" stroke="#1CBA6E" stroke-width="2"/>
<g filter="url(#filter0_d)">
<path d="M217.788 305.861L160.549 206.704C155.839 198.544 153.484 194.464 152.562 190.127C151.747 186.29 151.747 182.324 152.562 178.486C153.484 174.149 155.839 170.069 160.549 161.91L217.788 62.7518C222.499 54.5903 224.854 50.5096 228.15 47.5417C231.066 44.9158 234.502 42.9321 238.234 41.7194C242.452 40.3488 247.164 40.3488 256.587 40.3488L366.753 40.3487C376.177 40.3487 380.889 40.3487 385.107 41.7194C388.839 42.9321 392.274 44.9158 395.19 47.5417C398.486 50.5096 400.842 54.5903 405.553 62.7518L462.791 161.91C467.501 170.069 469.856 174.149 470.778 178.486C471.594 182.323 471.594 186.29 470.778 190.127C469.856 194.464 467.501 198.544 462.791 206.704L405.553 305.861C400.842 314.023 398.486 318.104 395.19 321.071C392.274 323.697 388.839 325.681 385.107 326.894C380.889 328.264 376.177 328.264 366.753 328.264L256.587 328.264C247.164 328.264 242.452 328.264 238.234 326.894C234.502 325.681 231.066 323.697 228.15 321.071C224.854 318.104 222.499 314.023 217.788 305.861L217.788 305.861Z" fill="url(#paint0_linear)"/>
</g>
<path d="M317.82 339.348L243.657 210.548C238.297 201.24 235.617 196.585 234.568 191.639C233.64 187.262 233.64 182.738 234.568 178.361C235.617 173.415 238.297 168.76 243.657 159.452L317.82 30.6517C323.2 21.3073 325.891 16.6351 329.659 13.2368C332.992 10.2301 336.922 7.95847 341.191 6.56967C346.016 5 351.407 5 362.19 5L522.116 5C540.038 5 548.998 5 555.844 8.4878C561.865 11.5558 566.76 16.4511 569.828 22.4723C573.316 29.3175 573.316 38.2783 573.316 56.2L573.316 185L573.316 313.8C573.316 331.722 573.316 340.683 569.828 347.528C566.76 353.549 561.865 358.444 555.844 361.512C548.998 365 540.038 365 522.116 365L362.19 365C351.407 365 346.016 365 341.191 363.43C336.922 362.042 332.992 359.77 329.659 356.763C325.891 353.365 323.2 348.693 317.82 339.348Z" fill="white"/>
<path d="M259.25 250.928H361.23L373 295.491H392.844L428 245.935V135.508H259.25V250.928Z" fill="url(#paint1_linear)"/>
<path d="M372.844 295.491L341.23 250.928H239.25V135.508H408V245.935L372.844 295.491Z" fill="url(#paint2_linear)"/>
<mask id="mask1" mask-type="alpha" maskUnits="userSpaceOnUse" x="239" y="135" width="169" height="161">
<path d="M372.844 295.491L341.23 250.928H239.25V135.508H408V245.935L372.844 295.491Z" fill="url(#paint3_linear)"/>
</mask>
<g mask="url(#mask1)">
<path d="M188 250.876V142.33C188 92.657 225.682 52.2444 272 52.2444C318.318 52.2444 356 92.657 356 142.33C356 192.004 318.318 232.417 272 232.417C256.845 232.417 242.179 228.105 229.264 219.898L188 250.876Z" fill="#171717" fill-opacity="0.25"/>
</g>
<path fill-rule="evenodd" clip-rule="evenodd" d="M341.23 250.928L372.844 295.491L408 245.935V135.508H239.25V250.928H341.23ZM242.25 247.964H342.79L372.844 290.326L405 245V138.472H242.25V247.964Z" fill="url(#paint4_linear)"/>
<path fill-rule="evenodd" clip-rule="evenodd" d="M341.23 250.928L372.844 295.491L408 245.935V135.508H239.25V250.928H341.23ZM242.25 247.964H342.79L372.844 290.326L405 245V138.472H242.25V247.964Z" fill="url(#paint5_linear)"/>
<g filter="url(#filter1_d)">
<path d="M376.031 170.636H283.219V185.691H376.031V170.636Z" fill="url(#paint6_linear)"/>
<path d="M352.594 200.745H283.219V215.8H352.594V200.745Z" fill="url(#paint7_linear)"/>
</g>
<path d="M370.031 170.636H277.219V185.691H370.031V170.636Z" fill="url(#paint8_linear)"/>
<path d="M346.594 200.745H277.219V215.8H346.594V200.745Z" fill="url(#paint9_linear)"/>
<path d="M265.344 52.2041C191 47.3031 188 89.3489 188 135.006V201.959L168 234.774H188L225.994 206.302C237.886 213.845 251.39 217.808 265.344 217.808C307.991 217.808 342.688 180.663 342.688 135.006C342.688 89.3489 307.991 52.2041 265.344 52.2041Z" fill="url(#paint10_linear)"/>
<path d="M168 234.774V135.006C168 89.349 202.696 52.2041 245.344 52.2041C287.991 52.2041 322.688 89.349 322.688 135.006C322.688 180.663 287.991 217.808 245.344 217.808C231.39 217.808 217.886 213.845 205.994 206.302L168 234.774Z" fill="url(#paint11_linear)"/>
<path fill-rule="evenodd" clip-rule="evenodd" d="M205.994 206.302C217.886 213.845 231.39 217.808 245.344 217.808C287.991 217.808 322.688 180.663 322.688 135.006C322.688 89.349 287.991 52.2041 245.344 52.2041C202.696 52.2041 168 89.349 168 135.006V234.774L205.994 206.302ZM171 228.806L205.851 202.688L207.615 203.807C219.032 211.049 231.975 214.843 245.344 214.843C286.113 214.843 319.688 179.253 319.688 135.006C319.688 90.7584 286.113 55.1688 245.344 55.1688C204.575 55.1688 171 90.7584 171 135.006V228.806Z" fill="url(#paint12_linear)"/>
<path fill-rule="evenodd" clip-rule="evenodd" d="M205.994 206.302C217.886 213.845 231.39 217.808 245.344 217.808C287.991 217.808 322.688 180.663 322.688 135.006C322.688 89.349 287.991 52.2041 245.344 52.2041C202.696 52.2041 168 89.349 168 135.006V234.774L205.994 206.302ZM171 228.806L205.851 202.688L207.615 203.807C219.032 211.049 231.975 214.843 245.344 214.843C286.113 214.843 319.688 179.253 319.688 135.006C319.688 90.7584 286.113 55.1688 245.344 55.1688C204.575 55.1688 171 90.7584 171 135.006V228.806Z" fill="url(#paint13_linear)"/>
<path d="M257.375 147.552H243.312V122.46H250.344C254.221 122.46 257.375 119.083 257.375 114.933C257.375 110.782 254.221 107.405 250.344 107.405C246.467 107.405 243.312 110.782 243.312 114.933H229.25C229.25 102.481 238.713 92.3503 250.344 92.3503C261.975 92.3503 271.438 102.481 271.438 114.933C271.438 124.746 265.56 133.118 257.375 136.225V147.552Z" fill="url(#paint14_linear)"/>
<path d="M257.375 147.552H243.312V122.46H250.344C254.221 122.46 257.375 119.083 257.375 114.933C257.375 110.782 254.221 107.405 250.344 107.405C246.467 107.405 243.312 110.782 243.312 114.933H229.25C229.25 102.481 238.713 92.3503 250.344 92.3503C261.975 92.3503 271.438 102.481 271.438 114.933C271.438 124.746 265.56 133.118 257.375 136.225V147.552Z" fill="white" fill-opacity="0.1"/>
<path d="M257.375 162.606H243.312V177.661H257.375V162.606Z" fill="url(#paint15_linear)"/>
<path d="M257.375 162.606H243.312V177.661H257.375V162.606Z" fill="white" fill-opacity="0.1"/>
<path d="M252.375 147.552H238.312V122.46H245.344C249.221 122.46 252.375 119.083 252.375 114.933C252.375 110.782 249.221 107.405 245.344 107.405C241.467 107.405 238.312 110.782 238.312 114.933H224.25C224.25 102.481 233.713 92.3503 245.344 92.3503C256.975 92.3503 266.438 102.481 266.438 114.933C266.438 124.746 260.56 133.118 252.375 136.225V147.552Z" fill="url(#paint16_linear)"/>
<path d="M252.375 147.552H238.312V122.46H245.344C249.221 122.46 252.375 119.083 252.375 114.933C252.375 110.782 249.221 107.405 245.344 107.405C241.467 107.405 238.312 110.782 238.312 114.933H224.25C224.25 102.481 233.713 92.3503 245.344 92.3503C256.975 92.3503 266.438 102.481 266.438 114.933C266.438 124.746 260.56 133.118 252.375 136.225V147.552Z" fill="url(#paint17_linear)" fill-opacity="0.23"/>
<path d="M252.375 162.606H238.312V177.661H252.375V162.606Z" fill="url(#paint18_linear)"/>
<path d="M252.375 162.606H238.312V177.661H252.375V162.606Z" fill="url(#paint19_linear)" fill-opacity="0.23"/>
<path fill-rule="evenodd" clip-rule="evenodd" d="M252.375 136.225C260.56 133.118 266.438 124.746 266.438 114.933C266.438 102.481 256.975 92.3503 245.344 92.3503C234.335 92.3503 225.268 101.426 224.33 112.956C224.277 113.608 224.25 114.267 224.25 114.933H238.312C238.312 110.782 241.467 107.405 245.344 107.405C249.221 107.405 252.375 110.782 252.375 114.933C252.375 119.083 249.221 122.46 245.344 122.46H238.312V147.552H252.375V136.225ZM250.375 145.575V134.867L251.658 134.38C259.023 131.585 264.438 123.979 264.438 114.933C264.438 103.42 255.723 94.3268 245.344 94.3268C235.567 94.3268 227.266 102.397 226.336 112.956H236.511C237.367 108.752 240.893 105.429 245.344 105.429C250.473 105.429 254.375 109.842 254.375 114.933C254.375 120.023 250.473 124.437 245.344 124.437H240.312V145.575H250.375ZM250.375 164.583V175.685H240.312V164.583H250.375ZM238.312 162.606H252.375V177.661H238.312V162.606Z" fill="url(#paint20_linear)"/>
<path fill-rule="evenodd" clip-rule="evenodd" d="M252.375 136.225C260.56 133.118 266.438 124.746 266.438 114.933C266.438 102.481 256.975 92.3503 245.344 92.3503C234.335 92.3503 225.268 101.426 224.33 112.956C224.277 113.608 224.25 114.267 224.25 114.933H238.312C238.312 110.782 241.467 107.405 245.344 107.405C249.221 107.405 252.375 110.782 252.375 114.933C252.375 119.083 249.221 122.46 245.344 122.46H238.312V147.552H252.375V136.225ZM250.375 145.575V134.867L251.658 134.38C259.023 131.585 264.438 123.979 264.438 114.933C264.438 103.42 255.723 94.3268 245.344 94.3268C235.567 94.3268 227.266 102.397 226.336 112.956H236.511C237.367 108.752 240.893 105.429 245.344 105.429C250.473 105.429 254.375 109.842 254.375 114.933C254.375 120.023 250.473 124.437 245.344 124.437H240.312V145.575H250.375ZM250.375 164.583V175.685H240.312V164.583H250.375ZM238.312 162.606H252.375V177.661H238.312V162.606Z" fill="url(#paint21_linear)"/>
<defs>
<filter id="filter0_d" x="91.9507" y="0.348633" width="439.439" height="407.916" filterUnits="userSpaceOnUse" color-interpolation-filters="sRGB">
<feFlood flood-opacity="0" result="BackgroundImageFix"/>
<feColorMatrix in="SourceAlpha" type="matrix" values="0 0 0 0 0 0 0 0 0 0 0 0 0 0 0 0 0 0 127 0"/>
<feOffset dy="20"/>
<feGaussianBlur stdDeviation="30"/>
<feColorMatrix type="matrix" values="0 0 0 0 0.945098 0 0 0 0 0.733333 0 0 0 0 0.0588235 0 0 0 0.25 0"/>
<feBlend mode="normal" in2="BackgroundImageFix" result="effect1_dropShadow"/>
<feBlend mode="normal" in="SourceGraphic" in2="effect1_dropShadow" result="shape"/>
</filter>
<filter id="filter1_d" x="283.219" y="170.636" width="94.8125" height="47.1646" filterUnits="userSpaceOnUse" color-interpolation-filters="sRGB">
<feFlood flood-opacity="0" result="BackgroundImageFix"/>
<feColorMatrix in="SourceAlpha" type="matrix" values="0 0 0 0 0 0 0 0 0 0 0 0 0 0 0 0 0 0 127 0"/>
<feOffset dx="2" dy="2"/>
<feColorMatrix type="matrix" values="0 0 0 0 0 0 0 0 0 0 0 0 0 0 0 0 0 0 0.15 0"/>
<feBlend mode="normal" in2="BackgroundImageFix" result="effect1_dropShadow"/>
<feBlend mode="normal" in="SourceGraphic" in2="effect1_dropShadow" result="shape"/>
</filter>
<linearGradient id="paint0_linear" x1="230.758" y1="44.2472" x2="530.622" y2="68.1946" gradientUnits="userSpaceOnUse">
<stop stop-color="#FFDC67"/>
<stop offset="1" stop-color="#F0B90B"/>
</linearGradient>
<linearGradient id="paint1_linear" x1="291.587" y1="133.278" x2="290.439" y2="295.482" gradientUnits="userSpaceOnUse">
<stop stop-color="#5E5D60"/>
<stop offset="0.0156836" stop-color="#1A1919"/>
<stop offset="0.25" stop-color="#6C6C6C"/>
<stop offset="0.525905" stop-color="#282828"/>
<stop offset="0.649277" stop-color="#3C3B3D"/>
<stop offset="0.689726" stop-color="#5A5A5A"/>
<stop offset="0.695794" stop-color="#4F5052"/>
<stop offset="1" stop-color="#16171A"/>
</linearGradient>
<linearGradient id="paint2_linear" x1="323.625" y1="135.533" x2="323.625" y2="295.49" gradientUnits="userSpaceOnUse">
<stop stop-color="#2B292A"/>
<stop offset="0.568606" stop-color="#424041"/>
<stop offset="1" stop-color="#868585"/>
</linearGradient>
<linearGradient id="paint3_linear" x1="323.625" y1="135.533" x2="323.625" y2="295.49" gradientUnits="userSpaceOnUse">
<stop stop-color="#2B292A"/>
<stop offset="0.568606" stop-color="#424041"/>
<stop offset="1" stop-color="#868585"/>
</linearGradient>
<linearGradient id="paint4_linear" x1="392.694" y1="139.959" x2="284.505" y2="309.731" gradientUnits="userSpaceOnUse">
<stop offset="0.670529" stop-color="#5C5757"/>
<stop offset="0.925805" stop-color="#514F50"/>
<stop offset="1" stop-color="#363435"/>
</linearGradient>
<linearGradient id="paint5_linear" x1="301.614" y1="139.759" x2="333.91" y2="220.041" gradientUnits="userSpaceOnUse">
<stop stop-color="white" stop-opacity="0.4"/>
<stop offset="1" stop-color="white" stop-opacity="0"/>
</linearGradient>
<linearGradient id="paint6_linear" x1="348.057" y1="171.945" x2="345.851" y2="212.852" gradientUnits="userSpaceOnUse">
<stop stop-color="#767676"/>
<stop offset="0.135417" stop-color="#606060"/>
<stop offset="0.630208" stop-color="#F8F8F8"/>
<stop offset="1" stop-color="#F8F8F8"/>
</linearGradient>
<linearGradient id="paint7_linear" x1="348.057" y1="171.945" x2="345.851" y2="212.852" gradientUnits="userSpaceOnUse">
<stop stop-color="#767676"/>
<stop offset="0.135417" stop-color="#606060"/>
<stop offset="0.630208" stop-color="#F8F8F8"/>
<stop offset="1" stop-color="#F8F8F8"/>
</linearGradient>
<linearGradient id="paint8_linear" x1="290.195" y1="179.244" x2="298.422" y2="219.887" gradientUnits="userSpaceOnUse">
<stop stop-color="#F8F8F8"/>
<stop offset="1" stop-color="#BEBEBE"/>
</linearGradient>
<linearGradient id="paint9_linear" x1="290.195" y1="179.244" x2="298.422" y2="219.887" gradientUnits="userSpaceOnUse">
<stop stop-color="#F8F8F8"/>
<stop offset="1" stop-color="#BEBEBE"/>
</linearGradient>
<linearGradient id="paint10_linear" x1="201.475" y1="52.5517" x2="200.053" y2="234.763" gradientUnits="userSpaceOnUse">
<stop stop-color="#5E5D60"/>
<stop offset="0.0989583" stop-color="#1A1919"/>
<stop offset="0.25" stop-color="#6C6C6C"/>
<stop offset="0.395833" stop-color="#282828"/>
<stop offset="0.65625" stop-color="#3C3B3D"/>
<stop offset="0.713542" stop-color="#4F5052"/>
<stop offset="0.791667" stop-color="#5A5A5A"/>
<stop offset="1" stop-color="#16171A"/>
</linearGradient>
<linearGradient id="paint11_linear" x1="245.344" y1="52.2333" x2="245.344" y2="234.774" gradientUnits="userSpaceOnUse">
<stop stop-color="#2B292A"/>
<stop offset="0.624381" stop-color="#424041"/>
<stop offset="1" stop-color="#868585"/>
</linearGradient>
<linearGradient id="paint12_linear" x1="308.657" y1="57.2839" x2="176.017" y2="224.474" gradientUnits="userSpaceOnUse">
<stop offset="0.670529" stop-color="#5C5757"/>
<stop offset="0.925805" stop-color="#514F50"/>
<stop offset="1" stop-color="#363435"/>
</linearGradient>
<linearGradient id="paint13_linear" x1="225.167" y1="57.055" x2="267.786" y2="142.154" gradientUnits="userSpaceOnUse">
<stop stop-color="white" stop-opacity="0.4"/>
<stop offset="1" stop-color="white" stop-opacity="0"/>
</linearGradient>
<linearGradient id="paint14_linear" x1="237.823" y1="92.0733" x2="237.136" y2="177.656" gradientUnits="userSpaceOnUse">
<stop stop-color="#56D599"/>
<stop offset="0.15625" stop-color="#1EAD64"/>
<stop offset="0.371058" stop-color="#1EAE65"/>
<stop offset="0.75" stop-color="#57D69A"/>
<stop offset="0.91676" stop-color="#1EA65F"/>
<stop offset="1" stop-color="#178E4E"/>
</linearGradient>
<linearGradient id="paint15_linear" x1="237.823" y1="92.0733" x2="237.136" y2="177.656" gradientUnits="userSpaceOnUse">
<stop stop-color="#56D599"/>
<stop offset="0.15625" stop-color="#1EAD64"/>
<stop offset="0.371058" stop-color="#1EAE65"/>
<stop offset="0.75" stop-color="#57D69A"/>
<stop offset="0.91676" stop-color="#1EA65F"/>
<stop offset="1" stop-color="#178E4E"/>
</linearGradient>
<linearGradient id="paint16_linear" x1="245.344" y1="92.3503" x2="245.344" y2="208.32" gradientUnits="userSpaceOnUse">
<stop stop-color="#1FA05B"/>
<stop offset="0.569228" stop-color="#1DB369"/>
<stop offset="1" stop-color="#62DDA3"/>
</linearGradient>
<linearGradient id="paint17_linear" x1="264.835" y1="131.007" x2="224.25" y2="131.007" gradientUnits="userSpaceOnUse">
<stop offset="0.479067" stop-color="white" stop-opacity="0"/>
<stop offset="0.479167" stop-color="white"/>
<stop offset="1" stop-color="white" stop-opacity="0"/>
</linearGradient>
<linearGradient id="paint18_linear" x1="245.344" y1="92.3503" x2="245.344" y2="208.32" gradientUnits="userSpaceOnUse">
<stop stop-color="#1FA05B"/>
<stop offset="0.569228" stop-color="#1DB369"/>
<stop offset="1" stop-color="#62DDA3"/>
</linearGradient>
<linearGradient id="paint19_linear" x1="264.835" y1="131.007" x2="224.25" y2="131.007" gradientUnits="userSpaceOnUse">
<stop offset="0.479067" stop-color="white" stop-opacity="0"/>
<stop offset="0.479167" stop-color="white"/>
<stop offset="1" stop-color="white" stop-opacity="0"/>
</linearGradient>
<linearGradient id="paint20_linear" x1="241.601" y1="92.3503" x2="272.36" y2="193.258" gradientUnits="userSpaceOnUse">
<stop offset="0.217623" stop-color="#20B56C"/>
<stop offset="0.656122" stop-color="#B2F5D4"/>
<stop offset="1" stop-color="#1FA25D"/>
</linearGradient>
<linearGradient id="paint21_linear" x1="261.212" y1="95.0163" x2="229.299" y2="132.561" gradientUnits="userSpaceOnUse">
<stop stop-color="white" stop-opacity="0.67"/>
<stop offset="1" stop-color="white" stop-opacity="0"/>
</linearGradient>
</defs>
</svg>
