<svg width="574" height="409" viewBox="0 0 574 409" fill="none" xmlns="http://www.w3.org/2000/svg">
<mask id="mask0" mask-type="alpha" maskUnits="userSpaceOnUse" x="0" y="5" width="393" height="359">
<path fill-rule="evenodd" clip-rule="evenodd" d="M346.193 166.772L275.232 40.4568L226.497 40.4568C234.785 55.6895 245.65 75.7161 256.462 95.6658C267.333 115.725 278.155 135.714 286.259 150.688C289.728 157.097 292.698 162.587 294.962 166.772L346.193 166.772ZM265.146 184.273C262.87 180.067 259.863 174.51 256.343 168.006C248.241 153.036 237.422 133.053 226.556 113.002C215.688 92.9489 204.776 72.8353 196.486 57.5998C192.751 50.7354 189.554 44.873 187.136 40.4568L117.662 40.4568L92.0792 85.5165L152.964 85.5165C159.21 85.5165 164.98 88.9715 168.089 94.5762L241.783 227.419L265.146 184.273ZM271.118 245.811L294.717 202.228L346.193 202.228L321.709 245.811L271.118 245.811ZM301.79 281.268L242.247 281.268C235.989 281.268 230.21 277.806 227.096 272.192C227.096 272.192 227.096 272.192 227.096 272.192L153.23 139.039L127.525 186.512L205.469 328.543L275.232 328.543L301.79 281.268ZM166.049 328.543L96.7292 202.228L45.9461 202.228L117.662 328.543L166.049 328.543ZM45.9461 166.772L98.9202 166.772L123.718 120.973L71.9484 120.973L45.9461 166.772ZM182.493 32.0616C182.491 32.0579 182.513 32.0945 182.564 32.182C182.52 32.1089 182.494 32.0653 182.493 32.0616ZM388.714 171.883C393.097 179.684 393.097 189.316 388.714 197.117L301.984 351.502C297.637 359.239 289.639 364 280.987 364L111.938 364C103.326 364 95.3579 359.283 90.9971 351.602L3.34423 197.217C-1.11341 189.366 -1.11341 179.634 3.34423 171.783L90.9971 17.3981C95.3578 9.71748 103.326 4.99999 111.938 4.99999L280.987 5C289.639 5 297.637 9.76096 301.984 17.4981L388.714 171.883Z" fill="#F7F7F7"/>
</mask>
<g mask="url(#mask0)">
<path d="M101.909 365L8.07222 200.652C2.45159 190.808 2.45841 178.725 8.09016 168.887L101.909 5M105.214 365L11.3766 200.652C5.75599 190.808 5.76281 178.725 11.3946 168.887L105.214 5M108.518 365L14.681 200.652C9.06039 190.808 9.06721 178.725 14.699 168.887L108.518 5M111.823 365L17.9854 200.652C12.3648 190.808 12.3716 178.725 18.0034 168.887L111.823 5M115.127 365L21.2898 200.652C15.6692 190.808 15.676 178.725 21.3078 168.887L115.127 5M118.431 365L24.5942 200.652C18.9736 190.808 18.9804 178.725 24.6122 168.887L118.431 5M121.736 365L27.8986 200.652C22.278 190.808 22.2848 178.725 27.9166 168.887L121.736 5M125.04 365L31.203 200.652C25.5824 190.808 25.5892 178.725 31.221 168.887L125.04 5M128.345 365L34.5074 200.652C28.8868 190.808 28.8936 178.725 34.5254 168.887L128.345 5M131.649 365L37.8118 200.652C32.1912 190.808 32.198 178.725 37.8298 168.887L131.649 5M134.953 365L41.1162 200.652C35.4956 190.808 35.5024 178.725 41.1342 168.887L134.953 5M138.258 365L44.4206 200.652C38.8 190.808 38.8068 178.725 44.4386 168.887L138.258 5M141.562 365L47.725 200.652C42.1044 190.808 42.1112 178.725 47.743 168.887L141.562 5M144.867 365L51.0294 200.652C45.4088 190.808 45.4156 178.725 51.0474 168.887L144.867 5M148.171 365L54.3338 200.652C48.7132 190.808 48.72 178.725 54.3517 168.887L148.171 5M151.475 365L57.6382 200.652C52.0176 190.808 52.0244 178.725 57.6561 168.887L151.475 5M154.78 365L60.9426 200.652C55.322 190.808 55.3288 178.725 60.9605 168.887L154.78 5M158.084 365L64.247 200.652C58.6264 190.808 58.6332 178.725 64.2649 168.887L158.084 5M161.389 365L67.5514 200.652C61.9308 190.808 61.9376 178.725 67.5693 168.887L161.389 5M164.693 365L70.8558 200.652C65.2352 190.808 65.242 178.725 70.8737 168.887L164.693 5M167.997 365L74.1602 200.652C68.5396 190.808 68.5464 178.725 74.1781 168.887L167.997 5M171.302 365L77.4646 200.652C71.844 190.808 71.8508 178.725 77.4825 168.887L171.302 5M174.606 365L80.769 200.652C75.1484 190.808 75.1552 178.725 80.7869 168.887L174.606 5M177.911 365L84.0734 200.652C78.4528 190.808 78.4596 178.725 84.0913 168.887L177.911 5M181.215 365L87.3778 200.652C81.7572 190.808 81.764 178.725 87.3957 168.887L181.215 5M184.519 365L90.6822 200.652C85.0616 190.808 85.0684 178.725 90.7001 168.887L184.519 5M187.824 365L93.9866 200.652C88.366 190.808 88.3728 178.725 94.0045 168.887L187.824 5M191.128 365L97.291 200.652C91.6704 190.808 91.6772 178.725 97.3089 168.887L191.128 5M194.433 365L100.595 200.652C94.9748 190.808 94.9816 178.725 100.613 168.887L194.433 5M197.737 365L103.9 200.652C98.2792 190.808 98.286 178.725 103.918 168.887L197.737 5M201.041 365L107.204 200.652C101.584 190.808 101.59 178.725 107.222 168.887L201.041 5M204.346 365L110.509 200.652C104.888 190.808 104.895 178.725 110.527 168.887L204.346 5M207.65 365L113.813 200.652C108.192 190.808 108.199 178.725 113.831 168.887L207.65 5M210.955 365L117.117 200.652C111.497 190.808 111.504 178.725 117.135 168.887L210.955 5M214.259 365L120.422 200.652C114.801 190.808 114.808 178.725 120.44 168.887L214.259 5M217.563 365L123.726 200.652C118.106 190.808 118.112 178.725 123.744 168.887L217.563 5M220.868 365L127.031 200.652C121.41 190.808 121.417 178.725 127.049 168.887L220.868 5M224.172 365L130.335 200.652C124.714 190.808 124.721 178.725 130.353 168.887L224.172 5M227.477 365L133.639 200.652C128.019 190.808 128.026 178.725 133.657 168.887L227.477 5M230.781 365L136.944 200.652C131.323 190.808 131.33 178.725 136.962 168.887L230.781 5M234.085 365L140.248 200.652C134.628 190.808 134.634 178.725 140.266 168.887L234.085 5M237.39 365L143.553 200.652C137.932 190.808 137.939 178.725 143.571 168.887L237.39 5M240.694 365L146.857 200.652C141.236 190.808 141.243 178.725 146.875 168.887L240.694 5M243.999 365L150.161 200.652C144.541 190.808 144.548 178.725 150.179 168.887L243.999 5M247.303 365L153.466 200.652C147.845 190.808 147.852 178.725 153.484 168.887L247.303 5M250.607 365L156.77 200.652C151.15 190.808 151.156 178.725 156.788 168.887L250.607 5M253.912 365L160.075 200.652C154.454 190.808 154.461 178.725 160.093 168.887L253.912 5M257.216 365L163.379 200.652C157.758 190.808 157.765 178.725 163.397 168.887L257.216 5M260.521 365L166.683 200.652C161.063 190.808 161.07 178.725 166.701 168.887L260.521 5M263.825 365L169.988 200.652C164.367 190.808 164.374 178.725 170.006 168.887L263.825 5M267.129 365L173.292 200.652C167.672 190.808 167.678 178.725 173.31 168.887L267.129 5M270.434 365L176.597 200.652C170.976 190.808 170.983 178.725 176.615 168.887L270.434 5M273.738 365L179.901 200.652C174.28 190.808 174.287 178.725 179.919 168.887L273.738 5M277.043 365L183.205 200.652C177.585 190.808 177.592 178.725 183.223 168.887L277.043 5M280.347 365L186.51 200.652C180.889 190.808 180.896 178.725 186.528 168.887L280.347 5M283.651 365L189.814 200.652C184.194 190.808 184.2 178.725 189.832 168.887L283.651 5M286.956 365L193.119 200.652C187.498 190.808 187.505 178.725 193.137 168.887L286.956 5M290.26 365L196.423 200.652C190.802 190.808 190.809 178.725 196.441 168.887L290.26 5M293.565 365L199.727 200.652C194.107 190.808 194.114 178.725 199.745 168.887L293.565 5M296.869 365L203.032 200.652C197.411 190.808 197.418 178.725 203.05 168.887L296.869 5M300.173 365L206.336 200.652C200.716 190.808 200.722 178.725 206.354 168.887L300.173 5M303.478 365L209.641 200.652C204.02 190.808 204.027 178.725 209.659 168.887L303.478 5M306.782 365L212.945 200.652C207.324 190.808 207.331 178.725 212.963 168.887L306.782 5M310.087 365L216.249 200.652C210.629 190.808 210.636 178.725 216.267 168.887L310.087 5M313.391 365L219.554 200.652C213.933 190.808 213.94 178.725 219.572 168.887L313.391 5M316.695 365L222.858 200.652C217.238 190.808 217.244 178.725 222.876 168.887L316.695 5M320 365L226.163 200.652C220.542 190.808 220.549 178.725 226.181 168.887L320 5M323.304 365L229.467 200.652C223.846 190.808 223.853 178.725 229.485 168.887L323.304 5M326.609 365L232.771 200.652C227.151 190.808 227.158 178.725 232.789 168.887L326.609 5M329.913 365L236.076 200.652C230.455 190.808 230.462 178.725 236.094 168.887L329.913 5M333.217 365L239.38 200.652C233.76 190.808 233.766 178.725 239.398 168.887L333.217 5M336.522 365L242.685 200.652C237.064 190.808 237.071 178.725 242.703 168.887L336.522 5M339.826 365L245.989 200.652C240.368 190.808 240.375 178.725 246.007 168.887L339.826 5M343.131 365L249.293 200.652C243.673 190.808 243.68 178.725 249.311 168.887L343.131 5M346.435 365L252.598 200.652C246.977 190.808 246.984 178.725 252.616 168.887L346.435 5M349.739 365L255.902 200.652C250.282 190.808 250.288 178.725 255.92 168.887L349.739 5M353.044 365L259.207 200.652C253.586 190.808 253.593 178.725 259.225 168.887L353.044 5M356.348 365L262.511 200.652C256.89 190.808 256.897 178.725 262.529 168.887L356.348 5M359.653 365L265.815 200.652C260.195 190.808 260.202 178.725 265.833 168.887L359.653 5M362.957 365L269.12 200.652C263.499 190.808 263.506 178.725 269.138 168.887L362.957 5M366.261 365L272.424 200.652C266.804 190.808 266.81 178.725 272.442 168.887L366.261 5M369.566 365L275.729 200.652C270.108 190.808 270.115 178.725 275.747 168.887L369.566 5M372.87 365L279.033 200.652C273.412 190.808 273.419 178.725 279.051 168.887L372.87 5M376.175 365L282.337 200.652C276.717 190.808 276.724 178.725 282.355 168.887L376.175 5M379.479 365L285.642 200.652C280.021 190.808 280.028 178.725 285.66 168.887L379.479 5M382.783 365L288.946 200.652C283.326 190.808 283.332 178.725 288.964 168.887L382.783 5M386.088 365L292.251 200.652C286.63 190.808 286.637 178.725 292.269 168.887L386.088 5M389.392 365L295.555 200.652C289.934 190.808 289.941 178.725 295.573 168.887L389.392 5M392.697 365L298.859 200.652C293.239 190.808 293.246 178.725 298.877 168.887L392.697 5M396.001 365L302.164 200.652C296.543 190.808 296.55 178.725 302.182 168.887L396.001 5" stroke="#5C677D" stroke-opacity="0.07" stroke-width="2"/>
</g>
<path d="M354.611 46.9264L354.611 46.9267L420.84 162.094C425.553 170.29 427.789 174.2 428.664 178.333C429.446 182.022 429.446 185.835 428.664 189.524C427.789 193.657 425.553 197.567 420.84 205.763L354.611 320.93C349.871 329.173 347.603 333.094 344.451 335.939C341.638 338.478 338.321 340.397 334.717 341.57C330.68 342.884 326.15 342.896 316.642 342.896L182.909 342.896C173.401 342.896 168.871 342.884 164.834 341.57C161.23 340.397 157.913 338.478 155.1 335.939C151.948 333.094 149.68 329.173 144.94 320.93L78.7111 205.763C73.9978 197.567 71.7624 193.657 70.8868 189.524C70.1053 185.835 70.1053 182.022 70.8868 178.333C71.7624 174.2 73.9978 170.29 78.7111 162.094L144.94 46.9267C149.68 38.6842 151.948 34.7632 155.1 31.9184C157.913 29.379 161.23 27.4604 164.834 26.2874C168.871 24.9733 173.401 24.9616 182.909 24.9616L316.642 24.9616C326.15 24.9616 330.68 24.9733 334.717 26.2874C338.321 27.4604 341.638 29.379 344.451 31.9184C347.592 34.7532 349.855 38.6567 354.561 46.8396C354.578 46.8686 354.594 46.8974 354.611 46.9264Z" stroke="#1CBA6E" stroke-width="2"/>
<g filter="url(#filter0_d)">
<path d="M217.789 305.861L160.55 206.704C155.84 198.544 153.485 194.464 152.563 190.127C151.748 186.29 151.748 182.324 152.563 178.486C153.485 174.149 155.84 170.069 160.55 161.91L217.789 62.7518C222.5 54.5903 224.855 50.5096 228.151 47.5417C231.067 44.9158 234.503 42.9321 238.235 41.7194C242.453 40.3488 247.165 40.3488 256.588 40.3488L366.754 40.3487C376.178 40.3487 380.89 40.3487 385.108 41.7194C388.84 42.9321 392.275 44.9158 395.191 47.5417C398.487 50.5096 400.843 54.5903 405.554 62.7518L462.792 161.91C467.502 170.069 469.857 174.149 470.779 178.486C471.595 182.323 471.595 186.29 470.779 190.127C469.857 194.464 467.502 198.544 462.792 206.704L405.554 305.861C400.843 314.023 398.487 318.104 395.191 321.071C392.275 323.697 388.84 325.681 385.108 326.894C380.89 328.264 376.178 328.264 366.754 328.264L256.588 328.264C247.165 328.264 242.453 328.264 238.235 326.894C234.503 325.681 231.067 323.697 228.151 321.071C224.855 318.104 222.5 314.023 217.789 305.861L217.789 305.861Z" fill="url(#paint0_linear)"/>
</g>
<path d="M317.821 339.348L243.658 210.548C238.298 201.24 235.618 196.585 234.569 191.639C233.641 187.262 233.641 182.738 234.569 178.361C235.618 173.415 238.298 168.76 243.658 159.452L317.821 30.6517C323.201 21.3073 325.891 16.6351 329.659 13.2368C332.993 10.2301 336.922 7.95847 341.192 6.56967C346.017 5 351.408 5 362.191 5L522.117 5C540.038 5 548.999 5 555.844 8.4878C561.865 11.5558 566.761 16.4511 569.829 22.4723C573.317 29.3175 573.317 38.2783 573.317 56.2L573.317 185L573.317 313.8C573.317 331.722 573.317 340.683 569.829 347.528C566.761 353.549 561.865 358.444 555.844 361.512C548.999 365 540.038 365 522.117 365L362.191 365C351.408 365 346.017 365 341.192 363.43C336.922 362.042 332.993 359.77 329.659 356.763C325.891 353.365 323.201 348.693 317.821 339.348Z" fill="white"/>
<path d="M191.687 127.679H203.758L198.187 136.964L191.687 127.679Z" fill="url(#paint1_linear)"/>
<path d="M191.687 127.679H203.758L198.187 136.964L191.687 127.679Z" fill="white" fill-opacity="0.1"/>
<path d="M242.294 152.75H255.294L252.972 145.786H247.401L242.294 152.75Z" fill="url(#paint2_linear)"/>
<path d="M242.294 152.75H255.294L252.972 145.786H247.401L242.294 152.75Z" fill="white" fill-opacity="0.1"/>
<path d="M299.401 101.679H310.079L313.329 108.643L300.794 108.179L299.401 101.679Z" fill="url(#paint3_linear)"/>
<path d="M299.401 101.679H310.079L313.329 108.643L300.794 108.179L299.401 101.679Z" fill="white" fill-opacity="0.1"/>
<path d="M347.222 113.286H361.615L360.686 104H355.579L347.222 113.286Z" fill="url(#paint4_linear)"/>
<path d="M347.222 113.286H361.615L360.686 104H355.579L347.222 113.286Z" fill="white" fill-opacity="0.1"/>
<path d="M203.6 127.341L237.724 149.517L233.697 155.715L199.571 133.538L203.6 127.341Z" fill="url(#paint5_linear)"/>
<path d="M203.6 127.341L237.724 149.517L233.697 155.715L199.571 133.538L203.6 127.341Z" fill="white" fill-opacity="0.1"/>
<path d="M309.799 101.359L341.392 111.62L339.108 118.649L307.517 108.39L309.799 101.359Z" fill="url(#paint6_linear)"/>
<path d="M309.799 101.359L341.392 111.62L339.108 118.649L307.517 108.39L309.799 101.359Z" fill="white" fill-opacity="0.1"/>
<path d="M393.205 72.1897L398.366 77.4798L361.507 113.427L356.347 108.137L393.205 72.1897Z" fill="url(#paint7_linear)"/>
<path d="M393.205 72.1897L398.366 77.4798L361.507 113.427L356.347 108.137L393.205 72.1897Z" fill="white" fill-opacity="0.1"/>
<path d="M287.679 107.139L293.111 112.151L255.406 152.996L249.976 147.982L287.679 107.139Z" fill="url(#paint8_linear)"/>
<path d="M287.679 107.139L293.111 112.151L255.406 152.996L249.976 147.982L287.679 107.139Z" fill="white" fill-opacity="0.1"/>
<path d="M194.314 127.341L228.438 149.517L224.411 155.715L190.286 133.538L194.314 127.341Z" fill="url(#paint9_linear)"/>
<path d="M194.314 127.341L228.438 149.517L224.411 155.715L190.286 133.538L194.314 127.341Z" fill="url(#paint10_linear)" fill-opacity="0.23"/>
<path d="M300.513 101.359L332.106 111.62L329.822 118.649L298.231 108.39L300.513 101.359Z" fill="url(#paint11_linear)"/>
<path d="M300.513 101.359L332.106 111.62L329.822 118.649L298.231 108.39L300.513 101.359Z" fill="url(#paint12_linear)" fill-opacity="0.23"/>
<path d="M383.919 72.1897L389.08 77.4798L352.221 113.427L347.062 108.137L383.919 72.1897Z" fill="url(#paint13_linear)"/>
<path d="M383.919 72.1897L389.08 77.4798L352.221 113.427L347.062 108.137L383.919 72.1897Z" fill="url(#paint14_linear)" fill-opacity="0.23"/>
<path d="M278.393 107.139L283.825 112.151L246.121 152.996L240.691 147.982L278.393 107.139Z" fill="url(#paint15_linear)"/>
<path d="M278.393 107.139L283.825 112.151L246.121 152.996L240.691 147.982L278.393 107.139Z" fill="url(#paint16_linear)" fill-opacity="0.23"/>
<path fill-rule="evenodd" clip-rule="evenodd" d="M194.859 129.91L192.855 132.993L223.866 153.146L225.869 150.062L194.859 129.91ZM228.438 149.517L194.314 127.341L190.286 133.538L224.411 155.715L228.438 149.517ZM300.513 101.359L298.231 108.39L329.822 118.649L332.106 111.62L300.513 101.359ZM301.706 103.699L300.571 107.197L328.63 116.309L329.766 112.813L301.706 103.699ZM383.887 74.8157L349.688 108.17L352.254 110.801L386.454 77.4471L383.887 74.8157ZM383.919 72.1897L347.062 108.137L352.221 113.427L389.08 77.4798L383.919 72.1897ZM278.499 109.763L243.315 147.878L246.016 150.372L281.201 112.256L278.499 109.763ZM278.393 107.139L240.691 147.982L246.121 152.996L283.825 112.151L278.393 107.139Z" fill="url(#paint17_linear)"/>
<path fill-rule="evenodd" clip-rule="evenodd" d="M194.859 129.91L192.855 132.993L223.866 153.146L225.869 150.062L194.859 129.91ZM228.438 149.517L194.314 127.341L190.286 133.538L224.411 155.715L228.438 149.517ZM300.513 101.359L298.231 108.39L329.822 118.649L332.106 111.62L300.513 101.359ZM301.706 103.699L300.571 107.197L328.63 116.309L329.766 112.813L301.706 103.699ZM383.887 74.8157L349.688 108.17L352.254 110.801L386.454 77.4471L383.887 74.8157ZM383.919 72.1897L347.062 108.137L352.221 113.427L389.08 77.4798L383.919 72.1897ZM278.499 109.763L243.315 147.878L246.016 150.372L281.201 112.256L278.499 109.763ZM278.393 107.139L240.691 147.982L246.121 152.996L283.825 112.151L278.393 107.139Z" fill="url(#paint18_linear)"/>
<path d="M186.572 172.055H216.373V279.072H186.572V172.055Z" fill="url(#paint19_linear)"/>
<path d="M239.478 206.444H269.281V279.072H239.478V206.444Z" fill="url(#paint20_linear)"/>
<path d="M292.385 149.128H322.187V279.072H292.385V149.128Z" fill="url(#paint21_linear)"/>
<path d="M345.291 166.323H375.094V279.072H345.291V166.323Z" fill="url(#paint22_linear)"/>
<path d="M398.199 114.741H428V279.072H398.199V114.741Z" fill="url(#paint23_linear)"/>
<path d="M168 172.055H197.801V279.072H168V172.055Z" fill="url(#paint24_linear)"/>
<path d="M220.906 206.444H250.709V279.072H220.906V206.444Z" fill="url(#paint25_linear)"/>
<path d="M273.813 149.128H303.616V279.072H273.813V149.128Z" fill="url(#paint26_linear)"/>
<path d="M326.719 166.323H356.522V279.072H326.719V166.323Z" fill="url(#paint27_linear)"/>
<path d="M379.628 114.741H409.429V279.072H379.628V114.741Z" fill="url(#paint28_linear)"/>
<path fill-rule="evenodd" clip-rule="evenodd" d="M195.944 173.912H169.857V277.215H195.944V173.912ZM248.852 208.301H222.763V277.215H248.852V208.301ZM301.759 150.985H275.67V277.215H301.759V150.985ZM354.665 168.18H328.576V277.215H354.665V168.18ZM407.571 116.598H381.485V277.215H407.571V116.598ZM379.628 114.741V279.072H409.429V114.741H379.628ZM273.813 149.128V279.072H303.616V149.128H273.813ZM197.801 172.055V279.072H168V172.055H197.801ZM250.709 206.444V279.072H220.906V206.444H250.709ZM356.522 166.323V279.072H326.719V166.323H356.522Z" fill="url(#paint29_linear)"/>
<path fill-rule="evenodd" clip-rule="evenodd" d="M195.944 173.912H169.857V277.215H195.944V173.912ZM248.852 208.301H222.763V277.215H248.852V208.301ZM301.759 150.985H275.67V277.215H301.759V150.985ZM354.665 168.18H328.576V277.215H354.665V168.18ZM407.571 116.598H381.485V277.215H407.571V116.598ZM379.628 114.741V279.072H409.429V114.741H379.628ZM273.813 149.128V279.072H303.616V149.128H273.813ZM197.801 172.055V279.072H168V172.055H197.801ZM250.709 206.444V279.072H220.906V206.444H250.709ZM356.522 166.323V279.072H326.719V166.323H356.522Z" fill="url(#paint30_linear)"/>
<g filter="url(#filter1_d)">
<path d="M198.732 124.332C198.732 132.561 192.06 139.233 183.831 139.233C175.601 139.233 168.929 132.561 168.929 124.332C168.929 116.102 175.601 109.43 183.831 109.43C192.06 109.43 198.732 116.102 198.732 124.332Z" fill="url(#paint31_linear)"/>
<path d="M199.661 124.332C199.661 132.561 192.989 139.233 184.759 139.233C176.529 139.233 169.858 132.561 169.858 124.332C169.858 116.102 176.529 109.43 184.759 109.43C192.989 109.43 199.661 116.102 199.661 124.332Z" fill="url(#paint32_linear)"/>
<path d="M200.589 124.332C200.589 132.561 193.918 139.233 185.688 139.233C177.458 139.233 170.786 132.561 170.786 124.332C170.786 116.102 177.458 109.43 185.688 109.43C193.918 109.43 200.589 116.102 200.589 124.332Z" fill="url(#paint33_linear)"/>
<path d="M201.518 124.332C201.518 132.561 194.846 139.233 186.616 139.233C178.386 139.233 171.715 132.561 171.715 124.332C171.715 116.102 178.386 109.43 186.616 109.43C194.846 109.43 201.518 116.102 201.518 124.332Z" fill="url(#paint34_linear)"/>
<path d="M202.446 124.332C202.446 132.561 195.775 139.233 187.545 139.233C179.315 139.233 172.643 132.561 172.643 124.332C172.643 116.102 179.315 109.43 187.545 109.43C195.775 109.43 202.446 116.102 202.446 124.332Z" fill="url(#paint35_linear)"/>
<path d="M203.375 124.332C203.375 132.561 196.703 139.233 188.473 139.233C180.244 139.233 173.572 132.561 173.572 124.332C173.572 116.102 180.244 109.43 188.473 109.43C196.703 109.43 203.375 116.102 203.375 124.332Z" fill="url(#paint36_linear)"/>
<path d="M204.303 124.332C204.303 132.561 197.632 139.233 189.402 139.233C181.172 139.233 174.501 132.561 174.501 124.332C174.501 116.102 181.172 109.43 189.402 109.43C197.632 109.43 204.303 116.102 204.303 124.332Z" fill="url(#paint37_linear)"/>
</g>
<path d="M197.804 124.332C197.804 132.561 191.132 139.233 182.902 139.233C174.673 139.233 168.001 132.561 168.001 124.332C168.001 116.102 174.673 109.43 182.902 109.43C191.132 109.43 197.804 116.102 197.804 124.332Z" fill="url(#paint38_linear)"/>
<g filter="url(#filter2_d)">
<path d="M409.989 66.9014C409.989 75.1312 403.318 81.8028 395.088 81.8028C386.858 81.8028 380.187 75.1312 380.187 66.9014C380.187 58.6716 386.858 52 395.088 52C403.318 52 409.989 58.6716 409.989 66.9014Z" fill="url(#paint39_linear)"/>
<path d="M410.918 66.9014C410.918 75.1312 404.246 81.8028 396.016 81.8028C387.787 81.8028 381.115 75.1312 381.115 66.9014C381.115 58.6716 387.787 52 396.016 52C404.246 52 410.918 58.6716 410.918 66.9014Z" fill="url(#paint40_linear)"/>
<path d="M411.846 66.9014C411.846 75.1312 405.175 81.8028 396.945 81.8028C388.715 81.8028 382.044 75.1312 382.044 66.9014C382.044 58.6716 388.715 52 396.945 52C405.175 52 411.846 58.6716 411.846 66.9014Z" fill="url(#paint41_linear)"/>
<path d="M412.775 66.9014C412.775 75.1312 406.103 81.8028 397.874 81.8028C389.644 81.8028 382.972 75.1312 382.972 66.9014C382.972 58.6716 389.644 52 397.874 52C406.103 52 412.775 58.6716 412.775 66.9014Z" fill="url(#paint42_linear)"/>
<path d="M413.704 66.9014C413.704 75.1312 407.032 81.8028 398.802 81.8028C390.572 81.8028 383.901 75.1312 383.901 66.9014C383.901 58.6716 390.572 52 398.802 52C407.032 52 413.704 58.6716 413.704 66.9014Z" fill="url(#paint43_linear)"/>
<path d="M414.632 66.9014C414.632 75.1312 407.961 81.8028 399.731 81.8028C391.501 81.8028 384.829 75.1312 384.829 66.9014C384.829 58.6716 391.501 52 399.731 52C407.961 52 414.632 58.6716 414.632 66.9014Z" fill="url(#paint44_linear)"/>
<path d="M415.561 66.9014C415.561 75.1312 408.889 81.8028 400.659 81.8028C392.43 81.8028 385.758 75.1312 385.758 66.9014C385.758 58.6716 392.43 52 400.659 52C408.889 52 415.561 58.6716 415.561 66.9014Z" fill="url(#paint45_linear)"/>
</g>
<path d="M409.061 66.9014C409.061 75.1312 402.39 81.8028 394.16 81.8028C385.93 81.8028 379.258 75.1312 379.258 66.9014C379.258 58.6716 385.93 52 394.16 52C402.39 52 409.061 58.6716 409.061 66.9014Z" fill="url(#paint46_linear)"/>
<g filter="url(#filter3_d)">
<path d="M357.061 117.973C357.061 126.203 350.39 132.874 342.16 132.874C333.93 132.874 327.258 126.203 327.258 117.973C327.258 109.743 333.93 103.071 342.16 103.071C350.39 103.071 357.061 109.743 357.061 117.973Z" fill="url(#paint47_linear)"/>
<path d="M357.99 117.973C357.99 126.203 351.318 132.874 343.088 132.874C334.858 132.874 328.187 126.203 328.187 117.973C328.187 109.743 334.858 103.071 343.088 103.071C351.318 103.071 357.99 109.743 357.99 117.973Z" fill="url(#paint48_linear)"/>
<path d="M358.918 117.973C358.918 126.203 352.247 132.874 344.017 132.874C335.787 132.874 329.115 126.203 329.115 117.973C329.115 109.743 335.787 103.071 344.017 103.071C352.247 103.071 358.918 109.743 358.918 117.973Z" fill="url(#paint49_linear)"/>
<path d="M359.847 117.973C359.847 126.203 353.175 132.874 344.945 132.874C336.716 132.874 330.044 126.203 330.044 117.973C330.044 109.743 336.716 103.071 344.945 103.071C353.175 103.071 359.847 109.743 359.847 117.973Z" fill="url(#paint50_linear)"/>
<path d="M360.775 117.973C360.775 126.203 354.104 132.874 345.874 132.874C337.644 132.874 330.973 126.203 330.973 117.973C330.973 109.743 337.644 103.071 345.874 103.071C354.104 103.071 360.775 109.743 360.775 117.973Z" fill="url(#paint51_linear)"/>
<path d="M361.704 117.973C361.704 126.203 355.032 132.874 346.803 132.874C338.573 132.874 331.901 126.203 331.901 117.973C331.901 109.743 338.573 103.071 346.803 103.071C355.032 103.071 361.704 109.743 361.704 117.973Z" fill="url(#paint52_linear)"/>
<path d="M362.633 117.973C362.633 126.203 355.961 132.874 347.731 132.874C339.501 132.874 332.83 126.203 332.83 117.973C332.83 109.743 339.501 103.071 347.731 103.071C355.961 103.071 362.633 109.743 362.633 117.973Z" fill="url(#paint53_linear)"/>
</g>
<path d="M356.132 117.973C356.132 126.203 349.461 132.874 341.231 132.874C333.001 132.874 326.33 126.203 326.33 117.973C326.33 109.743 333.001 103.071 341.231 103.071C349.461 103.071 356.132 109.743 356.132 117.973Z" fill="url(#paint54_linear)"/>
<g filter="url(#filter4_d)">
<path d="M304.132 101.259C304.132 109.488 297.461 116.16 289.231 116.16C281.001 116.16 274.33 109.488 274.33 101.259C274.33 93.0287 281.001 86.3572 289.231 86.3572C297.461 86.3572 304.132 93.0287 304.132 101.259Z" fill="url(#paint55_linear)"/>
<path d="M305.061 101.259C305.061 109.488 298.389 116.16 290.16 116.16C281.93 116.16 275.258 109.488 275.258 101.259C275.258 93.0287 281.93 86.3572 290.16 86.3572C298.389 86.3572 305.061 93.0287 305.061 101.259Z" fill="url(#paint56_linear)"/>
<path d="M305.99 101.259C305.99 109.488 299.318 116.16 291.088 116.16C282.858 116.16 276.187 109.488 276.187 101.259C276.187 93.0287 282.858 86.3572 291.088 86.3572C299.318 86.3572 305.99 93.0287 305.99 101.259Z" fill="url(#paint57_linear)"/>
<path d="M306.918 101.259C306.918 109.488 300.247 116.16 292.017 116.16C283.787 116.16 277.115 109.488 277.115 101.259C277.115 93.0287 283.787 86.3572 292.017 86.3572C300.247 86.3572 306.918 93.0287 306.918 101.259Z" fill="url(#paint58_linear)"/>
<path d="M307.847 101.259C307.847 109.488 301.175 116.16 292.945 116.16C284.715 116.16 278.044 109.488 278.044 101.259C278.044 93.0287 284.715 86.3572 292.945 86.3572C301.175 86.3572 307.847 93.0287 307.847 101.259Z" fill="url(#paint59_linear)"/>
<path d="M308.775 101.259C308.775 109.488 302.104 116.16 293.874 116.16C285.644 116.16 278.972 109.488 278.972 101.259C278.972 93.0287 285.644 86.3572 293.874 86.3572C302.104 86.3572 308.775 93.0287 308.775 101.259Z" fill="url(#paint60_linear)"/>
<path d="M309.704 101.259C309.704 109.488 303.032 116.16 294.802 116.16C286.573 116.16 279.901 109.488 279.901 101.259C279.901 93.0287 286.573 86.3572 294.802 86.3572C303.032 86.3572 309.704 93.0287 309.704 101.259Z" fill="url(#paint61_linear)"/>
</g>
<path d="M303.204 101.259C303.204 109.488 296.533 116.16 288.303 116.16C280.073 116.16 273.401 109.488 273.401 101.259C273.401 93.0287 280.073 86.3572 288.303 86.3572C296.533 86.3572 303.204 93.0287 303.204 101.259Z" fill="url(#paint62_linear)"/>
<g filter="url(#filter5_d)">
<path d="M251.204 158.83C251.204 167.06 244.533 173.731 236.303 173.731C228.073 173.731 221.401 167.06 221.401 158.83C221.401 150.6 228.073 143.928 236.303 143.928C244.533 143.928 251.204 150.6 251.204 158.83Z" fill="url(#paint63_linear)"/>
<path d="M252.133 158.83C252.133 167.06 245.461 173.731 237.231 173.731C229.001 173.731 222.33 167.06 222.33 158.83C222.33 150.6 229.001 143.928 237.231 143.928C245.461 143.928 252.133 150.6 252.133 158.83Z" fill="url(#paint64_linear)"/>
<path d="M253.061 158.83C253.061 167.06 246.39 173.731 238.16 173.731C229.93 173.731 223.259 167.06 223.259 158.83C223.259 150.6 229.93 143.928 238.16 143.928C246.39 143.928 253.061 150.6 253.061 158.83Z" fill="url(#paint65_linear)"/>
<path d="M253.99 158.83C253.99 167.06 247.318 173.731 239.088 173.731C230.859 173.731 224.187 167.06 224.187 158.83C224.187 150.6 230.859 143.928 239.088 143.928C247.318 143.928 253.99 150.6 253.99 158.83Z" fill="url(#paint66_linear)"/>
<path d="M254.918 158.83C254.918 167.06 248.247 173.731 240.017 173.731C231.787 173.731 225.116 167.06 225.116 158.83C225.116 150.6 231.787 143.928 240.017 143.928C248.247 143.928 254.918 150.6 254.918 158.83Z" fill="url(#paint67_linear)"/>
<path d="M255.847 158.83C255.847 167.06 249.175 173.731 240.946 173.731C232.716 173.731 226.044 167.06 226.044 158.83C226.044 150.6 232.716 143.928 240.946 143.928C249.175 143.928 255.847 150.6 255.847 158.83Z" fill="url(#paint68_linear)"/>
<path d="M256.776 158.83C256.776 167.06 250.104 173.731 241.874 173.731C233.644 173.731 226.973 167.06 226.973 158.83C226.973 150.6 233.644 143.928 241.874 143.928C250.104 143.928 256.776 150.6 256.776 158.83Z" fill="url(#paint69_linear)"/>
</g>
<path d="M250.275 158.83C250.275 167.06 243.603 173.731 235.374 173.731C227.144 173.731 220.472 167.06 220.472 158.83C220.472 150.6 227.144 143.928 235.374 143.928C243.603 143.928 250.275 150.6 250.275 158.83Z" fill="url(#paint70_linear)"/>
<defs>
<filter id="filter0_d" x="91.9517" y="0.348633" width="439.439" height="407.916" filterUnits="userSpaceOnUse" color-interpolation-filters="sRGB">
<feFlood flood-opacity="0" result="BackgroundImageFix"/>
<feColorMatrix in="SourceAlpha" type="matrix" values="0 0 0 0 0 0 0 0 0 0 0 0 0 0 0 0 0 0 127 0"/>
<feOffset dy="20"/>
<feGaussianBlur stdDeviation="30"/>
<feColorMatrix type="matrix" values="0 0 0 0 0.945098 0 0 0 0 0.733333 0 0 0 0 0.0588235 0 0 0 0.25 0"/>
<feBlend mode="normal" in2="BackgroundImageFix" result="effect1_dropShadow"/>
<feBlend mode="normal" in="SourceGraphic" in2="effect1_dropShadow" result="shape"/>
</filter>
<filter id="filter1_d" x="168.929" y="109.43" width="37.3742" height="31.8028" filterUnits="userSpaceOnUse" color-interpolation-filters="sRGB">
<feFlood flood-opacity="0" result="BackgroundImageFix"/>
<feColorMatrix in="SourceAlpha" type="matrix" values="0 0 0 0 0 0 0 0 0 0 0 0 0 0 0 0 0 0 127 0"/>
<feOffset dx="2" dy="2"/>
<feColorMatrix type="matrix" values="0 0 0 0 0 0 0 0 0 0 0 0 0 0 0 0 0 0 0.15 0"/>
<feBlend mode="normal" in2="BackgroundImageFix" result="effect1_dropShadow"/>
<feBlend mode="normal" in="SourceGraphic" in2="effect1_dropShadow" result="shape"/>
</filter>
<filter id="filter2_d" x="380.187" y="52" width="37.3742" height="31.8028" filterUnits="userSpaceOnUse" color-interpolation-filters="sRGB">
<feFlood flood-opacity="0" result="BackgroundImageFix"/>
<feColorMatrix in="SourceAlpha" type="matrix" values="0 0 0 0 0 0 0 0 0 0 0 0 0 0 0 0 0 0 127 0"/>
<feOffset dx="2" dy="2"/>
<feColorMatrix type="matrix" values="0 0 0 0 0 0 0 0 0 0 0 0 0 0 0 0 0 0 0.15 0"/>
<feBlend mode="normal" in2="BackgroundImageFix" result="effect1_dropShadow"/>
<feBlend mode="normal" in="SourceGraphic" in2="effect1_dropShadow" result="shape"/>
</filter>
<filter id="filter3_d" x="327.258" y="103.071" width="37.3742" height="31.8028" filterUnits="userSpaceOnUse" color-interpolation-filters="sRGB">
<feFlood flood-opacity="0" result="BackgroundImageFix"/>
<feColorMatrix in="SourceAlpha" type="matrix" values="0 0 0 0 0 0 0 0 0 0 0 0 0 0 0 0 0 0 127 0"/>
<feOffset dx="2" dy="2"/>
<feColorMatrix type="matrix" values="0 0 0 0 0 0 0 0 0 0 0 0 0 0 0 0 0 0 0.15 0"/>
<feBlend mode="normal" in2="BackgroundImageFix" result="effect1_dropShadow"/>
<feBlend mode="normal" in="SourceGraphic" in2="effect1_dropShadow" result="shape"/>
</filter>
<filter id="filter4_d" x="274.33" y="86.3572" width="37.3742" height="31.8028" filterUnits="userSpaceOnUse" color-interpolation-filters="sRGB">
<feFlood flood-opacity="0" result="BackgroundImageFix"/>
<feColorMatrix in="SourceAlpha" type="matrix" values="0 0 0 0 0 0 0 0 0 0 0 0 0 0 0 0 0 0 127 0"/>
<feOffset dx="2" dy="2"/>
<feColorMatrix type="matrix" values="0 0 0 0 0 0 0 0 0 0 0 0 0 0 0 0 0 0 0.15 0"/>
<feBlend mode="normal" in2="BackgroundImageFix" result="effect1_dropShadow"/>
<feBlend mode="normal" in="SourceGraphic" in2="effect1_dropShadow" result="shape"/>
</filter>
<filter id="filter5_d" x="221.401" y="143.928" width="37.3742" height="31.8028" filterUnits="userSpaceOnUse" color-interpolation-filters="sRGB">
<feFlood flood-opacity="0" result="BackgroundImageFix"/>
<feColorMatrix in="SourceAlpha" type="matrix" values="0 0 0 0 0 0 0 0 0 0 0 0 0 0 0 0 0 0 127 0"/>
<feOffset dx="2" dy="2"/>
<feColorMatrix type="matrix" values="0 0 0 0 0 0 0 0 0 0 0 0 0 0 0 0 0 0 0.15 0"/>
<feBlend mode="normal" in2="BackgroundImageFix" result="effect1_dropShadow"/>
<feBlend mode="normal" in="SourceGraphic" in2="effect1_dropShadow" result="shape"/>
</filter>
<linearGradient id="paint0_linear" x1="230.759" y1="44.2472" x2="530.623" y2="68.1946" gradientUnits="userSpaceOnUse">
<stop stop-color="#FFDC67"/>
<stop offset="1" stop-color="#F0B90B"/>
</linearGradient>
<linearGradient id="paint1_linear" x1="239.968" y1="71.9184" x2="239.829" y2="155.715" gradientUnits="userSpaceOnUse">
<stop stop-color="#56D599"/>
<stop offset="0.15625" stop-color="#1EAD64"/>
<stop offset="0.371058" stop-color="#1EAE65"/>
<stop offset="0.75" stop-color="#57D69A"/>
<stop offset="0.91676" stop-color="#1EA65F"/>
<stop offset="1" stop-color="#178E4E"/>
</linearGradient>
<linearGradient id="paint2_linear" x1="239.968" y1="71.9184" x2="239.829" y2="155.715" gradientUnits="userSpaceOnUse">
<stop stop-color="#56D599"/>
<stop offset="0.15625" stop-color="#1EAD64"/>
<stop offset="0.371058" stop-color="#1EAE65"/>
<stop offset="0.75" stop-color="#57D69A"/>
<stop offset="0.91676" stop-color="#1EA65F"/>
<stop offset="1" stop-color="#178E4E"/>
</linearGradient>
<linearGradient id="paint3_linear" x1="239.968" y1="71.9184" x2="239.829" y2="155.715" gradientUnits="userSpaceOnUse">
<stop stop-color="#56D599"/>
<stop offset="0.15625" stop-color="#1EAD64"/>
<stop offset="0.371058" stop-color="#1EAE65"/>
<stop offset="0.75" stop-color="#57D69A"/>
<stop offset="0.91676" stop-color="#1EA65F"/>
<stop offset="1" stop-color="#178E4E"/>
</linearGradient>
<linearGradient id="paint4_linear" x1="239.968" y1="71.9184" x2="239.829" y2="155.715" gradientUnits="userSpaceOnUse">
<stop stop-color="#56D599"/>
<stop offset="0.15625" stop-color="#1EAD64"/>
<stop offset="0.371058" stop-color="#1EAE65"/>
<stop offset="0.75" stop-color="#57D69A"/>
<stop offset="0.91676" stop-color="#1EA65F"/>
<stop offset="1" stop-color="#178E4E"/>
</linearGradient>
<linearGradient id="paint5_linear" x1="239.968" y1="71.9184" x2="239.829" y2="155.715" gradientUnits="userSpaceOnUse">
<stop stop-color="#56D599"/>
<stop offset="0.15625" stop-color="#1EAD64"/>
<stop offset="0.371058" stop-color="#1EAE65"/>
<stop offset="0.75" stop-color="#57D69A"/>
<stop offset="0.91676" stop-color="#1EA65F"/>
<stop offset="1" stop-color="#178E4E"/>
</linearGradient>
<linearGradient id="paint6_linear" x1="239.968" y1="71.9184" x2="239.829" y2="155.715" gradientUnits="userSpaceOnUse">
<stop stop-color="#56D599"/>
<stop offset="0.15625" stop-color="#1EAD64"/>
<stop offset="0.371058" stop-color="#1EAE65"/>
<stop offset="0.75" stop-color="#57D69A"/>
<stop offset="0.91676" stop-color="#1EA65F"/>
<stop offset="1" stop-color="#178E4E"/>
</linearGradient>
<linearGradient id="paint7_linear" x1="239.968" y1="71.9184" x2="239.829" y2="155.715" gradientUnits="userSpaceOnUse">
<stop stop-color="#56D599"/>
<stop offset="0.15625" stop-color="#1EAD64"/>
<stop offset="0.371058" stop-color="#1EAE65"/>
<stop offset="0.75" stop-color="#57D69A"/>
<stop offset="0.91676" stop-color="#1EA65F"/>
<stop offset="1" stop-color="#178E4E"/>
</linearGradient>
<linearGradient id="paint8_linear" x1="239.968" y1="71.9184" x2="239.829" y2="155.715" gradientUnits="userSpaceOnUse">
<stop stop-color="#56D599"/>
<stop offset="0.15625" stop-color="#1EAD64"/>
<stop offset="0.371058" stop-color="#1EAE65"/>
<stop offset="0.75" stop-color="#57D69A"/>
<stop offset="0.91676" stop-color="#1EA65F"/>
<stop offset="1" stop-color="#178E4E"/>
</linearGradient>
<linearGradient id="paint9_linear" x1="289.683" y1="72.1897" x2="289.683" y2="185.732" gradientUnits="userSpaceOnUse">
<stop stop-color="#1FA05B"/>
<stop offset="0.569228" stop-color="#1DB369"/>
<stop offset="1" stop-color="#62DDA3"/>
</linearGradient>
<linearGradient id="paint10_linear" x1="381.531" y1="110.037" x2="190.286" y2="110.037" gradientUnits="userSpaceOnUse">
<stop offset="0.479067" stop-color="white" stop-opacity="0"/>
<stop offset="0.479167" stop-color="white"/>
<stop offset="1" stop-color="white" stop-opacity="0"/>
</linearGradient>
<linearGradient id="paint11_linear" x1="289.683" y1="72.1897" x2="289.683" y2="185.732" gradientUnits="userSpaceOnUse">
<stop stop-color="#1FA05B"/>
<stop offset="0.569228" stop-color="#1DB369"/>
<stop offset="1" stop-color="#62DDA3"/>
</linearGradient>
<linearGradient id="paint12_linear" x1="381.531" y1="110.037" x2="190.286" y2="110.037" gradientUnits="userSpaceOnUse">
<stop offset="0.479067" stop-color="white" stop-opacity="0"/>
<stop offset="0.479167" stop-color="white"/>
<stop offset="1" stop-color="white" stop-opacity="0"/>
</linearGradient>
<linearGradient id="paint13_linear" x1="289.683" y1="72.1897" x2="289.683" y2="185.732" gradientUnits="userSpaceOnUse">
<stop stop-color="#1FA05B"/>
<stop offset="0.569228" stop-color="#1DB369"/>
<stop offset="1" stop-color="#62DDA3"/>
</linearGradient>
<linearGradient id="paint14_linear" x1="381.531" y1="110.037" x2="190.286" y2="110.037" gradientUnits="userSpaceOnUse">
<stop offset="0.479067" stop-color="white" stop-opacity="0"/>
<stop offset="0.479167" stop-color="white"/>
<stop offset="1" stop-color="white" stop-opacity="0"/>
</linearGradient>
<linearGradient id="paint15_linear" x1="289.683" y1="72.1897" x2="289.683" y2="185.732" gradientUnits="userSpaceOnUse">
<stop stop-color="#1FA05B"/>
<stop offset="0.569228" stop-color="#1DB369"/>
<stop offset="1" stop-color="#62DDA3"/>
</linearGradient>
<linearGradient id="paint16_linear" x1="381.531" y1="110.037" x2="190.286" y2="110.037" gradientUnits="userSpaceOnUse">
<stop offset="0.479067" stop-color="white" stop-opacity="0"/>
<stop offset="0.479167" stop-color="white"/>
<stop offset="1" stop-color="white" stop-opacity="0"/>
</linearGradient>
<linearGradient id="paint17_linear" x1="272.048" y1="72.1897" x2="278.859" y2="179.734" gradientUnits="userSpaceOnUse">
<stop offset="0.217623" stop-color="#20B56C"/>
<stop offset="0.656122" stop-color="#B2F5D4"/>
<stop offset="1" stop-color="#1FA25D"/>
</linearGradient>
<linearGradient id="paint18_linear" x1="364.456" y1="74.7999" x2="353.612" y2="136.201" gradientUnits="userSpaceOnUse">
<stop stop-color="white" stop-opacity="0.67"/>
<stop offset="1" stop-color="white" stop-opacity="0"/>
</linearGradient>
<linearGradient id="paint19_linear" x1="232.836" y1="115.403" x2="232.006" y2="279.068" gradientUnits="userSpaceOnUse">
<stop stop-color="#5E5D60"/>
<stop offset="0.185142" stop-color="#1A1919"/>
<stop offset="0.325571" stop-color="#6C6C6C"/>
<stop offset="0.54959" stop-color="#282828"/>
<stop offset="0.65625" stop-color="#3C3B3D"/>
<stop offset="0.713542" stop-color="#4F5052"/>
<stop offset="0.863885" stop-color="#5A5A5A"/>
<stop offset="1" stop-color="#16171A"/>
</linearGradient>
<linearGradient id="paint20_linear" x1="232.836" y1="115.403" x2="232.006" y2="279.068" gradientUnits="userSpaceOnUse">
<stop stop-color="#5E5D60"/>
<stop offset="0.185142" stop-color="#1A1919"/>
<stop offset="0.325571" stop-color="#6C6C6C"/>
<stop offset="0.54959" stop-color="#282828"/>
<stop offset="0.65625" stop-color="#3C3B3D"/>
<stop offset="0.713542" stop-color="#4F5052"/>
<stop offset="0.863885" stop-color="#5A5A5A"/>
<stop offset="1" stop-color="#16171A"/>
</linearGradient>
<linearGradient id="paint21_linear" x1="232.836" y1="115.403" x2="232.006" y2="279.068" gradientUnits="userSpaceOnUse">
<stop stop-color="#5E5D60"/>
<stop offset="0.185142" stop-color="#1A1919"/>
<stop offset="0.325571" stop-color="#6C6C6C"/>
<stop offset="0.54959" stop-color="#282828"/>
<stop offset="0.65625" stop-color="#3C3B3D"/>
<stop offset="0.713542" stop-color="#4F5052"/>
<stop offset="0.863885" stop-color="#5A5A5A"/>
<stop offset="1" stop-color="#16171A"/>
</linearGradient>
<linearGradient id="paint22_linear" x1="232.836" y1="115.403" x2="232.006" y2="279.068" gradientUnits="userSpaceOnUse">
<stop stop-color="#5E5D60"/>
<stop offset="0.185142" stop-color="#1A1919"/>
<stop offset="0.325571" stop-color="#6C6C6C"/>
<stop offset="0.54959" stop-color="#282828"/>
<stop offset="0.65625" stop-color="#3C3B3D"/>
<stop offset="0.713542" stop-color="#4F5052"/>
<stop offset="0.863885" stop-color="#5A5A5A"/>
<stop offset="1" stop-color="#16171A"/>
</linearGradient>
<linearGradient id="paint23_linear" x1="232.836" y1="115.403" x2="232.006" y2="279.068" gradientUnits="userSpaceOnUse">
<stop stop-color="#5E5D60"/>
<stop offset="0.185142" stop-color="#1A1919"/>
<stop offset="0.325571" stop-color="#6C6C6C"/>
<stop offset="0.54959" stop-color="#282828"/>
<stop offset="0.65625" stop-color="#3C3B3D"/>
<stop offset="0.713542" stop-color="#4F5052"/>
<stop offset="0.863885" stop-color="#5A5A5A"/>
<stop offset="1" stop-color="#16171A"/>
</linearGradient>
<linearGradient id="paint24_linear" x1="288.714" y1="114.767" x2="288.714" y2="279.072" gradientUnits="userSpaceOnUse">
<stop stop-color="#2B292A"/>
<stop offset="0.624381" stop-color="#424041"/>
<stop offset="1" stop-color="#868585"/>
</linearGradient>
<linearGradient id="paint25_linear" x1="288.714" y1="114.767" x2="288.714" y2="279.072" gradientUnits="userSpaceOnUse">
<stop stop-color="#2B292A"/>
<stop offset="0.624381" stop-color="#424041"/>
<stop offset="1" stop-color="#868585"/>
</linearGradient>
<linearGradient id="paint26_linear" x1="288.714" y1="114.767" x2="288.714" y2="279.072" gradientUnits="userSpaceOnUse">
<stop stop-color="#2B292A"/>
<stop offset="0.624381" stop-color="#424041"/>
<stop offset="1" stop-color="#868585"/>
</linearGradient>
<linearGradient id="paint27_linear" x1="288.714" y1="114.767" x2="288.714" y2="279.072" gradientUnits="userSpaceOnUse">
<stop stop-color="#2B292A"/>
<stop offset="0.624381" stop-color="#424041"/>
<stop offset="1" stop-color="#868585"/>
</linearGradient>
<linearGradient id="paint28_linear" x1="288.714" y1="114.767" x2="288.714" y2="279.072" gradientUnits="userSpaceOnUse">
<stop stop-color="#2B292A"/>
<stop offset="0.624381" stop-color="#424041"/>
<stop offset="1" stop-color="#868585"/>
</linearGradient>
<linearGradient id="paint29_linear" x1="387.53" y1="119.313" x2="294.761" y2="322.073" gradientUnits="userSpaceOnUse">
<stop offset="0.670529" stop-color="#5C5757"/>
<stop offset="0.925805" stop-color="#514F50"/>
<stop offset="1" stop-color="#363435"/>
</linearGradient>
<linearGradient id="paint30_linear" x1="257.224" y1="119.107" x2="282.765" y2="207.54" gradientUnits="userSpaceOnUse">
<stop stop-color="white" stop-opacity="0.4"/>
<stop offset="1" stop-color="white" stop-opacity="0"/>
</linearGradient>
<linearGradient id="paint31_linear" x1="193.641" y1="110.294" x2="191.136" y2="137.132" gradientUnits="userSpaceOnUse">
<stop stop-color="#767676"/>
<stop offset="0.135417" stop-color="#606060"/>
<stop offset="0.630208" stop-color="#F8F8F8"/>
<stop offset="1" stop-color="#F8F8F8"/>
</linearGradient>
<linearGradient id="paint32_linear" x1="193.641" y1="110.294" x2="191.136" y2="137.132" gradientUnits="userSpaceOnUse">
<stop stop-color="#767676"/>
<stop offset="0.135417" stop-color="#606060"/>
<stop offset="0.630208" stop-color="#F8F8F8"/>
<stop offset="1" stop-color="#F8F8F8"/>
</linearGradient>
<linearGradient id="paint33_linear" x1="193.641" y1="110.294" x2="191.136" y2="137.132" gradientUnits="userSpaceOnUse">
<stop stop-color="#767676"/>
<stop offset="0.135417" stop-color="#606060"/>
<stop offset="0.630208" stop-color="#F8F8F8"/>
<stop offset="1" stop-color="#F8F8F8"/>
</linearGradient>
<linearGradient id="paint34_linear" x1="193.641" y1="110.294" x2="191.136" y2="137.132" gradientUnits="userSpaceOnUse">
<stop stop-color="#767676"/>
<stop offset="0.135417" stop-color="#606060"/>
<stop offset="0.630208" stop-color="#F8F8F8"/>
<stop offset="1" stop-color="#F8F8F8"/>
</linearGradient>
<linearGradient id="paint35_linear" x1="193.641" y1="110.294" x2="191.136" y2="137.132" gradientUnits="userSpaceOnUse">
<stop stop-color="#767676"/>
<stop offset="0.135417" stop-color="#606060"/>
<stop offset="0.630208" stop-color="#F8F8F8"/>
<stop offset="1" stop-color="#F8F8F8"/>
</linearGradient>
<linearGradient id="paint36_linear" x1="193.641" y1="110.294" x2="191.136" y2="137.132" gradientUnits="userSpaceOnUse">
<stop stop-color="#767676"/>
<stop offset="0.135417" stop-color="#606060"/>
<stop offset="0.630208" stop-color="#F8F8F8"/>
<stop offset="1" stop-color="#F8F8F8"/>
</linearGradient>
<linearGradient id="paint37_linear" x1="193.641" y1="110.294" x2="191.136" y2="137.132" gradientUnits="userSpaceOnUse">
<stop stop-color="#767676"/>
<stop offset="0.135417" stop-color="#606060"/>
<stop offset="0.630208" stop-color="#F8F8F8"/>
<stop offset="1" stop-color="#F8F8F8"/>
</linearGradient>
<linearGradient id="paint38_linear" x1="172.168" y1="115.111" x2="182.068" y2="138.91" gradientUnits="userSpaceOnUse">
<stop stop-color="#F8F8F8"/>
<stop offset="1" stop-color="#BEBEBE"/>
</linearGradient>
<linearGradient id="paint39_linear" x1="404.899" y1="52.8637" x2="402.394" y2="79.7018" gradientUnits="userSpaceOnUse">
<stop stop-color="#767676"/>
<stop offset="0.135417" stop-color="#606060"/>
<stop offset="0.630208" stop-color="#F8F8F8"/>
<stop offset="1" stop-color="#F8F8F8"/>
</linearGradient>
<linearGradient id="paint40_linear" x1="404.899" y1="52.8637" x2="402.394" y2="79.7018" gradientUnits="userSpaceOnUse">
<stop stop-color="#767676"/>
<stop offset="0.135417" stop-color="#606060"/>
<stop offset="0.630208" stop-color="#F8F8F8"/>
<stop offset="1" stop-color="#F8F8F8"/>
</linearGradient>
<linearGradient id="paint41_linear" x1="404.899" y1="52.8637" x2="402.394" y2="79.7018" gradientUnits="userSpaceOnUse">
<stop stop-color="#767676"/>
<stop offset="0.135417" stop-color="#606060"/>
<stop offset="0.630208" stop-color="#F8F8F8"/>
<stop offset="1" stop-color="#F8F8F8"/>
</linearGradient>
<linearGradient id="paint42_linear" x1="404.899" y1="52.8637" x2="402.394" y2="79.7018" gradientUnits="userSpaceOnUse">
<stop stop-color="#767676"/>
<stop offset="0.135417" stop-color="#606060"/>
<stop offset="0.630208" stop-color="#F8F8F8"/>
<stop offset="1" stop-color="#F8F8F8"/>
</linearGradient>
<linearGradient id="paint43_linear" x1="404.899" y1="52.8637" x2="402.394" y2="79.7018" gradientUnits="userSpaceOnUse">
<stop stop-color="#767676"/>
<stop offset="0.135417" stop-color="#606060"/>
<stop offset="0.630208" stop-color="#F8F8F8"/>
<stop offset="1" stop-color="#F8F8F8"/>
</linearGradient>
<linearGradient id="paint44_linear" x1="404.899" y1="52.8637" x2="402.394" y2="79.7018" gradientUnits="userSpaceOnUse">
<stop stop-color="#767676"/>
<stop offset="0.135417" stop-color="#606060"/>
<stop offset="0.630208" stop-color="#F8F8F8"/>
<stop offset="1" stop-color="#F8F8F8"/>
</linearGradient>
<linearGradient id="paint45_linear" x1="404.899" y1="52.8637" x2="402.394" y2="79.7018" gradientUnits="userSpaceOnUse">
<stop stop-color="#767676"/>
<stop offset="0.135417" stop-color="#606060"/>
<stop offset="0.630208" stop-color="#F8F8F8"/>
<stop offset="1" stop-color="#F8F8F8"/>
</linearGradient>
<linearGradient id="paint46_linear" x1="383.425" y1="57.6806" x2="393.325" y2="81.4798" gradientUnits="userSpaceOnUse">
<stop stop-color="#F8F8F8"/>
<stop offset="1" stop-color="#BEBEBE"/>
</linearGradient>
<linearGradient id="paint47_linear" x1="351.97" y1="103.935" x2="349.465" y2="130.773" gradientUnits="userSpaceOnUse">
<stop stop-color="#767676"/>
<stop offset="0.135417" stop-color="#606060"/>
<stop offset="0.630208" stop-color="#F8F8F8"/>
<stop offset="1" stop-color="#F8F8F8"/>
</linearGradient>
<linearGradient id="paint48_linear" x1="351.97" y1="103.935" x2="349.465" y2="130.773" gradientUnits="userSpaceOnUse">
<stop stop-color="#767676"/>
<stop offset="0.135417" stop-color="#606060"/>
<stop offset="0.630208" stop-color="#F8F8F8"/>
<stop offset="1" stop-color="#F8F8F8"/>
</linearGradient>
<linearGradient id="paint49_linear" x1="351.97" y1="103.935" x2="349.465" y2="130.773" gradientUnits="userSpaceOnUse">
<stop stop-color="#767676"/>
<stop offset="0.135417" stop-color="#606060"/>
<stop offset="0.630208" stop-color="#F8F8F8"/>
<stop offset="1" stop-color="#F8F8F8"/>
</linearGradient>
<linearGradient id="paint50_linear" x1="351.97" y1="103.935" x2="349.465" y2="130.773" gradientUnits="userSpaceOnUse">
<stop stop-color="#767676"/>
<stop offset="0.135417" stop-color="#606060"/>
<stop offset="0.630208" stop-color="#F8F8F8"/>
<stop offset="1" stop-color="#F8F8F8"/>
</linearGradient>
<linearGradient id="paint51_linear" x1="351.97" y1="103.935" x2="349.465" y2="130.773" gradientUnits="userSpaceOnUse">
<stop stop-color="#767676"/>
<stop offset="0.135417" stop-color="#606060"/>
<stop offset="0.630208" stop-color="#F8F8F8"/>
<stop offset="1" stop-color="#F8F8F8"/>
</linearGradient>
<linearGradient id="paint52_linear" x1="351.97" y1="103.935" x2="349.465" y2="130.773" gradientUnits="userSpaceOnUse">
<stop stop-color="#767676"/>
<stop offset="0.135417" stop-color="#606060"/>
<stop offset="0.630208" stop-color="#F8F8F8"/>
<stop offset="1" stop-color="#F8F8F8"/>
</linearGradient>
<linearGradient id="paint53_linear" x1="351.97" y1="103.935" x2="349.465" y2="130.773" gradientUnits="userSpaceOnUse">
<stop stop-color="#767676"/>
<stop offset="0.135417" stop-color="#606060"/>
<stop offset="0.630208" stop-color="#F8F8F8"/>
<stop offset="1" stop-color="#F8F8F8"/>
</linearGradient>
<linearGradient id="paint54_linear" x1="330.496" y1="108.752" x2="340.397" y2="132.551" gradientUnits="userSpaceOnUse">
<stop stop-color="#F8F8F8"/>
<stop offset="1" stop-color="#BEBEBE"/>
</linearGradient>
<linearGradient id="paint55_linear" x1="299.042" y1="87.2209" x2="296.537" y2="114.059" gradientUnits="userSpaceOnUse">
<stop stop-color="#767676"/>
<stop offset="0.135417" stop-color="#606060"/>
<stop offset="0.630208" stop-color="#F8F8F8"/>
<stop offset="1" stop-color="#F8F8F8"/>
</linearGradient>
<linearGradient id="paint56_linear" x1="299.042" y1="87.2209" x2="296.537" y2="114.059" gradientUnits="userSpaceOnUse">
<stop stop-color="#767676"/>
<stop offset="0.135417" stop-color="#606060"/>
<stop offset="0.630208" stop-color="#F8F8F8"/>
<stop offset="1" stop-color="#F8F8F8"/>
</linearGradient>
<linearGradient id="paint57_linear" x1="299.042" y1="87.2209" x2="296.537" y2="114.059" gradientUnits="userSpaceOnUse">
<stop stop-color="#767676"/>
<stop offset="0.135417" stop-color="#606060"/>
<stop offset="0.630208" stop-color="#F8F8F8"/>
<stop offset="1" stop-color="#F8F8F8"/>
</linearGradient>
<linearGradient id="paint58_linear" x1="299.042" y1="87.2209" x2="296.537" y2="114.059" gradientUnits="userSpaceOnUse">
<stop stop-color="#767676"/>
<stop offset="0.135417" stop-color="#606060"/>
<stop offset="0.630208" stop-color="#F8F8F8"/>
<stop offset="1" stop-color="#F8F8F8"/>
</linearGradient>
<linearGradient id="paint59_linear" x1="299.042" y1="87.2209" x2="296.537" y2="114.059" gradientUnits="userSpaceOnUse">
<stop stop-color="#767676"/>
<stop offset="0.135417" stop-color="#606060"/>
<stop offset="0.630208" stop-color="#F8F8F8"/>
<stop offset="1" stop-color="#F8F8F8"/>
</linearGradient>
<linearGradient id="paint60_linear" x1="299.042" y1="87.2209" x2="296.537" y2="114.059" gradientUnits="userSpaceOnUse">
<stop stop-color="#767676"/>
<stop offset="0.135417" stop-color="#606060"/>
<stop offset="0.630208" stop-color="#F8F8F8"/>
<stop offset="1" stop-color="#F8F8F8"/>
</linearGradient>
<linearGradient id="paint61_linear" x1="299.042" y1="87.2209" x2="296.537" y2="114.059" gradientUnits="userSpaceOnUse">
<stop stop-color="#767676"/>
<stop offset="0.135417" stop-color="#606060"/>
<stop offset="0.630208" stop-color="#F8F8F8"/>
<stop offset="1" stop-color="#F8F8F8"/>
</linearGradient>
<linearGradient id="paint62_linear" x1="277.568" y1="92.0378" x2="287.468" y2="115.837" gradientUnits="userSpaceOnUse">
<stop stop-color="#F8F8F8"/>
<stop offset="1" stop-color="#BEBEBE"/>
</linearGradient>
<linearGradient id="paint63_linear" x1="246.113" y1="144.792" x2="243.608" y2="171.63" gradientUnits="userSpaceOnUse">
<stop stop-color="#767676"/>
<stop offset="0.135417" stop-color="#606060"/>
<stop offset="0.630208" stop-color="#F8F8F8"/>
<stop offset="1" stop-color="#F8F8F8"/>
</linearGradient>
<linearGradient id="paint64_linear" x1="246.113" y1="144.792" x2="243.608" y2="171.63" gradientUnits="userSpaceOnUse">
<stop stop-color="#767676"/>
<stop offset="0.135417" stop-color="#606060"/>
<stop offset="0.630208" stop-color="#F8F8F8"/>
<stop offset="1" stop-color="#F8F8F8"/>
</linearGradient>
<linearGradient id="paint65_linear" x1="246.113" y1="144.792" x2="243.608" y2="171.63" gradientUnits="userSpaceOnUse">
<stop stop-color="#767676"/>
<stop offset="0.135417" stop-color="#606060"/>
<stop offset="0.630208" stop-color="#F8F8F8"/>
<stop offset="1" stop-color="#F8F8F8"/>
</linearGradient>
<linearGradient id="paint66_linear" x1="246.113" y1="144.792" x2="243.608" y2="171.63" gradientUnits="userSpaceOnUse">
<stop stop-color="#767676"/>
<stop offset="0.135417" stop-color="#606060"/>
<stop offset="0.630208" stop-color="#F8F8F8"/>
<stop offset="1" stop-color="#F8F8F8"/>
</linearGradient>
<linearGradient id="paint67_linear" x1="246.113" y1="144.792" x2="243.608" y2="171.63" gradientUnits="userSpaceOnUse">
<stop stop-color="#767676"/>
<stop offset="0.135417" stop-color="#606060"/>
<stop offset="0.630208" stop-color="#F8F8F8"/>
<stop offset="1" stop-color="#F8F8F8"/>
</linearGradient>
<linearGradient id="paint68_linear" x1="246.113" y1="144.792" x2="243.608" y2="171.63" gradientUnits="userSpaceOnUse">
<stop stop-color="#767676"/>
<stop offset="0.135417" stop-color="#606060"/>
<stop offset="0.630208" stop-color="#F8F8F8"/>
<stop offset="1" stop-color="#F8F8F8"/>
</linearGradient>
<linearGradient id="paint69_linear" x1="246.113" y1="144.792" x2="243.608" y2="171.63" gradientUnits="userSpaceOnUse">
<stop stop-color="#767676"/>
<stop offset="0.135417" stop-color="#606060"/>
<stop offset="0.630208" stop-color="#F8F8F8"/>
<stop offset="1" stop-color="#F8F8F8"/>
</linearGradient>
<linearGradient id="paint70_linear" x1="224.639" y1="149.609" x2="234.539" y2="173.408" gradientUnits="userSpaceOnUse">
<stop stop-color="#F8F8F8"/>
<stop offset="1" stop-color="#BEBEBE"/>
</linearGradient>
</defs>
</svg>
