<svg width="574" height="409" viewBox="0 0 574 409" fill="none" xmlns="http://www.w3.org/2000/svg">
<mask id="mask0" mask-type="alpha" maskUnits="userSpaceOnUse" x="0" y="5" width="393" height="359">
<path fill-rule="evenodd" clip-rule="evenodd" d="M346.193 166.772L275.232 40.4568L226.497 40.4568C234.785 55.6895 245.65 75.7161 256.462 95.6658C267.333 115.725 278.155 135.714 286.259 150.688C289.728 157.097 292.698 162.587 294.962 166.772L346.193 166.772ZM265.146 184.273C262.87 180.067 259.863 174.51 256.343 168.006C248.241 153.036 237.422 133.053 226.556 113.002C215.688 92.9489 204.776 72.8353 196.486 57.5998C192.751 50.7354 189.554 44.873 187.136 40.4568L117.662 40.4568L92.0792 85.5165L152.964 85.5165C159.21 85.5165 164.98 88.9715 168.089 94.5762L241.783 227.419L265.146 184.273ZM271.118 245.811L294.717 202.228L346.193 202.228L321.709 245.811L271.118 245.811ZM301.79 281.268L242.247 281.268C235.989 281.268 230.21 277.806 227.096 272.192C227.096 272.192 227.096 272.192 227.096 272.192L153.23 139.039L127.525 186.512L205.469 328.543L275.232 328.543L301.79 281.268ZM166.049 328.543L96.7292 202.228L45.9461 202.228L117.662 328.543L166.049 328.543ZM45.9461 166.772L98.9202 166.772L123.718 120.973L71.9484 120.973L45.9461 166.772ZM182.493 32.0616C182.491 32.0579 182.513 32.0945 182.564 32.182C182.52 32.1089 182.494 32.0653 182.493 32.0616ZM388.714 171.883C393.097 179.684 393.097 189.316 388.714 197.117L301.984 351.502C297.637 359.239 289.639 364 280.987 364L111.938 364C103.326 364 95.3579 359.283 90.9971 351.602L3.34423 197.217C-1.11341 189.366 -1.11341 179.634 3.34423 171.783L90.9971 17.3981C95.3578 9.71748 103.326 4.99999 111.938 4.99999L280.987 5C289.639 5 297.637 9.76096 301.984 17.4981L388.714 171.883Z" fill="#F7F7F7"/>
</mask>
<g mask="url(#mask0)">
<path d="M101.909 365L8.07222 200.652C2.45159 190.808 2.45841 178.725 8.09016 168.887L101.909 5M105.214 365L11.3766 200.652C5.75599 190.808 5.76281 178.725 11.3946 168.887L105.214 5M108.518 365L14.681 200.652C9.06039 190.808 9.06721 178.725 14.699 168.887L108.518 5M111.823 365L17.9854 200.652C12.3648 190.808 12.3716 178.725 18.0034 168.887L111.823 5M115.127 365L21.2898 200.652C15.6692 190.808 15.676 178.725 21.3078 168.887L115.127 5M118.431 365L24.5942 200.652C18.9736 190.808 18.9804 178.725 24.6122 168.887L118.431 5M121.736 365L27.8986 200.652C22.278 190.808 22.2848 178.725 27.9166 168.887L121.736 5M125.04 365L31.203 200.652C25.5824 190.808 25.5892 178.725 31.221 168.887L125.04 5M128.345 365L34.5074 200.652C28.8868 190.808 28.8936 178.725 34.5254 168.887L128.345 5M131.649 365L37.8118 200.652C32.1912 190.808 32.198 178.725 37.8298 168.887L131.649 5M134.953 365L41.1162 200.652C35.4956 190.808 35.5024 178.725 41.1342 168.887L134.953 5M138.258 365L44.4206 200.652C38.8 190.808 38.8068 178.725 44.4386 168.887L138.258 5M141.562 365L47.725 200.652C42.1044 190.808 42.1112 178.725 47.743 168.887L141.562 5M144.867 365L51.0294 200.652C45.4088 190.808 45.4156 178.725 51.0474 168.887L144.867 5M148.171 365L54.3338 200.652C48.7132 190.808 48.72 178.725 54.3517 168.887L148.171 5M151.475 365L57.6382 200.652C52.0176 190.808 52.0244 178.725 57.6561 168.887L151.475 5M154.78 365L60.9426 200.652C55.322 190.808 55.3288 178.725 60.9605 168.887L154.78 5M158.084 365L64.247 200.652C58.6264 190.808 58.6332 178.725 64.2649 168.887L158.084 5M161.389 365L67.5514 200.652C61.9308 190.808 61.9376 178.725 67.5693 168.887L161.389 5M164.693 365L70.8558 200.652C65.2352 190.808 65.242 178.725 70.8737 168.887L164.693 5M167.997 365L74.1602 200.652C68.5396 190.808 68.5464 178.725 74.1781 168.887L167.997 5M171.302 365L77.4646 200.652C71.844 190.808 71.8508 178.725 77.4825 168.887L171.302 5M174.606 365L80.769 200.652C75.1484 190.808 75.1552 178.725 80.7869 168.887L174.606 5M177.911 365L84.0734 200.652C78.4528 190.808 78.4596 178.725 84.0913 168.887L177.911 5M181.215 365L87.3778 200.652C81.7572 190.808 81.764 178.725 87.3957 168.887L181.215 5M184.519 365L90.6822 200.652C85.0616 190.808 85.0684 178.725 90.7001 168.887L184.519 5M187.824 365L93.9866 200.652C88.366 190.808 88.3728 178.725 94.0045 168.887L187.824 5M191.128 365L97.291 200.652C91.6704 190.808 91.6772 178.725 97.3089 168.887L191.128 5M194.433 365L100.595 200.652C94.9748 190.808 94.9816 178.725 100.613 168.887L194.433 5M197.737 365L103.9 200.652C98.2792 190.808 98.286 178.725 103.918 168.887L197.737 5M201.041 365L107.204 200.652C101.584 190.808 101.59 178.725 107.222 168.887L201.041 5M204.346 365L110.509 200.652C104.888 190.808 104.895 178.725 110.527 168.887L204.346 5M207.65 365L113.813 200.652C108.192 190.808 108.199 178.725 113.831 168.887L207.65 5M210.955 365L117.117 200.652C111.497 190.808 111.504 178.725 117.135 168.887L210.955 5M214.259 365L120.422 200.652C114.801 190.808 114.808 178.725 120.44 168.887L214.259 5M217.563 365L123.726 200.652C118.106 190.808 118.112 178.725 123.744 168.887L217.563 5M220.868 365L127.031 200.652C121.41 190.808 121.417 178.725 127.049 168.887L220.868 5M224.172 365L130.335 200.652C124.714 190.808 124.721 178.725 130.353 168.887L224.172 5M227.477 365L133.639 200.652C128.019 190.808 128.026 178.725 133.657 168.887L227.477 5M230.781 365L136.944 200.652C131.323 190.808 131.33 178.725 136.962 168.887L230.781 5M234.085 365L140.248 200.652C134.628 190.808 134.634 178.725 140.266 168.887L234.085 5M237.39 365L143.553 200.652C137.932 190.808 137.939 178.725 143.571 168.887L237.39 5M240.694 365L146.857 200.652C141.236 190.808 141.243 178.725 146.875 168.887L240.694 5M243.999 365L150.161 200.652C144.541 190.808 144.548 178.725 150.179 168.887L243.999 5M247.303 365L153.466 200.652C147.845 190.808 147.852 178.725 153.484 168.887L247.303 5M250.607 365L156.77 200.652C151.15 190.808 151.156 178.725 156.788 168.887L250.607 5M253.912 365L160.075 200.652C154.454 190.808 154.461 178.725 160.093 168.887L253.912 5M257.216 365L163.379 200.652C157.758 190.808 157.765 178.725 163.397 168.887L257.216 5M260.521 365L166.683 200.652C161.063 190.808 161.07 178.725 166.701 168.887L260.521 5M263.825 365L169.988 200.652C164.367 190.808 164.374 178.725 170.006 168.887L263.825 5M267.129 365L173.292 200.652C167.672 190.808 167.678 178.725 173.31 168.887L267.129 5M270.434 365L176.597 200.652C170.976 190.808 170.983 178.725 176.615 168.887L270.434 5M273.738 365L179.901 200.652C174.28 190.808 174.287 178.725 179.919 168.887L273.738 5M277.043 365L183.205 200.652C177.585 190.808 177.592 178.725 183.223 168.887L277.043 5M280.347 365L186.51 200.652C180.889 190.808 180.896 178.725 186.528 168.887L280.347 5M283.651 365L189.814 200.652C184.194 190.808 184.2 178.725 189.832 168.887L283.651 5M286.956 365L193.119 200.652C187.498 190.808 187.505 178.725 193.137 168.887L286.956 5M290.26 365L196.423 200.652C190.802 190.808 190.809 178.725 196.441 168.887L290.26 5M293.565 365L199.727 200.652C194.107 190.808 194.114 178.725 199.745 168.887L293.565 5M296.869 365L203.032 200.652C197.411 190.808 197.418 178.725 203.05 168.887L296.869 5M300.173 365L206.336 200.652C200.716 190.808 200.722 178.725 206.354 168.887L300.173 5M303.478 365L209.641 200.652C204.02 190.808 204.027 178.725 209.659 168.887L303.478 5M306.782 365L212.945 200.652C207.324 190.808 207.331 178.725 212.963 168.887L306.782 5M310.087 365L216.249 200.652C210.629 190.808 210.636 178.725 216.267 168.887L310.087 5M313.391 365L219.554 200.652C213.933 190.808 213.94 178.725 219.572 168.887L313.391 5M316.695 365L222.858 200.652C217.238 190.808 217.244 178.725 222.876 168.887L316.695 5M320 365L226.163 200.652C220.542 190.808 220.549 178.725 226.181 168.887L320 5M323.304 365L229.467 200.652C223.846 190.808 223.853 178.725 229.485 168.887L323.304 5M326.609 365L232.771 200.652C227.151 190.808 227.158 178.725 232.789 168.887L326.609 5M329.913 365L236.076 200.652C230.455 190.808 230.462 178.725 236.094 168.887L329.913 5M333.217 365L239.38 200.652C233.76 190.808 233.766 178.725 239.398 168.887L333.217 5M336.522 365L242.685 200.652C237.064 190.808 237.071 178.725 242.703 168.887L336.522 5M339.826 365L245.989 200.652C240.368 190.808 240.375 178.725 246.007 168.887L339.826 5M343.131 365L249.293 200.652C243.673 190.808 243.68 178.725 249.311 168.887L343.131 5M346.435 365L252.598 200.652C246.977 190.808 246.984 178.725 252.616 168.887L346.435 5M349.739 365L255.902 200.652C250.282 190.808 250.288 178.725 255.92 168.887L349.739 5M353.044 365L259.207 200.652C253.586 190.808 253.593 178.725 259.225 168.887L353.044 5M356.348 365L262.511 200.652C256.89 190.808 256.897 178.725 262.529 168.887L356.348 5M359.653 365L265.815 200.652C260.195 190.808 260.202 178.725 265.833 168.887L359.653 5M362.957 365L269.12 200.652C263.499 190.808 263.506 178.725 269.138 168.887L362.957 5M366.261 365L272.424 200.652C266.804 190.808 266.81 178.725 272.442 168.887L366.261 5M369.566 365L275.729 200.652C270.108 190.808 270.115 178.725 275.747 168.887L369.566 5M372.87 365L279.033 200.652C273.412 190.808 273.419 178.725 279.051 168.887L372.87 5M376.175 365L282.337 200.652C276.717 190.808 276.724 178.725 282.355 168.887L376.175 5M379.479 365L285.642 200.652C280.021 190.808 280.028 178.725 285.66 168.887L379.479 5M382.783 365L288.946 200.652C283.326 190.808 283.332 178.725 288.964 168.887L382.783 5M386.088 365L292.251 200.652C286.63 190.808 286.637 178.725 292.269 168.887L386.088 5M389.392 365L295.555 200.652C289.934 190.808 289.941 178.725 295.573 168.887L389.392 5M392.697 365L298.859 200.652C293.239 190.808 293.246 178.725 298.877 168.887L392.697 5M396.001 365L302.164 200.652C296.543 190.808 296.55 178.725 302.182 168.887L396.001 5" stroke="#5C677D" stroke-opacity="0.07" stroke-width="2"/>
</g>
<path d="M354.611 46.9264L354.611 46.9266L420.84 162.094C425.553 170.29 427.789 174.2 428.664 178.333C429.446 182.022 429.446 185.835 428.664 189.524C427.789 193.657 425.553 197.567 420.84 205.763L354.611 320.93C349.871 329.173 347.603 333.094 344.451 335.939C341.638 338.478 338.321 340.397 334.717 341.57C330.68 342.884 326.15 342.895 316.642 342.895L182.909 342.895C173.401 342.895 168.871 342.884 164.834 341.57C161.23 340.397 157.913 338.478 155.1 335.939C151.948 333.094 149.68 329.173 144.94 320.93L78.7111 205.763C73.9978 197.567 71.7624 193.657 70.8868 189.524C70.1053 185.835 70.1053 182.022 70.8868 178.333C71.7624 174.2 73.9978 170.29 78.7111 162.094L144.94 46.9267C149.68 38.6842 151.948 34.7632 155.1 31.9184C157.913 29.379 161.23 27.4604 164.834 26.2874C168.871 24.9733 173.401 24.9616 182.909 24.9616L316.642 24.9616C326.15 24.9616 330.68 24.9733 334.717 26.2874C338.321 27.4604 341.638 29.379 344.451 31.9184C347.592 34.7531 349.855 38.6567 354.561 46.8396C354.578 46.8685 354.594 46.8973 354.611 46.9264Z" stroke="#1CBA6E" stroke-width="2"/>
<g filter="url(#filter0_d)">
<path d="M217.789 305.861L160.55 206.704C155.84 198.544 153.485 194.464 152.563 190.127C151.748 186.29 151.748 182.324 152.563 178.486C153.485 174.149 155.84 170.069 160.55 161.91L217.789 62.7518C222.5 54.5904 224.855 50.5096 228.151 47.5417C231.067 44.9158 234.503 42.9321 238.235 41.7194C242.453 40.3488 247.165 40.3488 256.588 40.3488L366.754 40.3488C376.178 40.3488 380.89 40.3488 385.108 41.7194C388.84 42.9321 392.275 44.9158 395.191 47.5417C398.487 50.5096 400.843 54.5903 405.554 62.7518L462.792 161.91C467.502 170.069 469.857 174.149 470.779 178.486C471.595 182.324 471.595 186.29 470.779 190.127C469.857 194.464 467.502 198.544 462.792 206.704L405.554 305.861C400.843 314.023 398.487 318.104 395.191 321.071C392.275 323.697 388.84 325.681 385.108 326.894C380.89 328.264 376.178 328.264 366.754 328.264L256.588 328.264C247.165 328.264 242.453 328.264 238.235 326.894C234.503 325.681 231.067 323.697 228.151 321.071C224.855 318.104 222.5 314.023 217.789 305.861L217.789 305.861Z" fill="url(#paint0_linear)"/>
</g>
<path d="M317.821 339.348L243.658 210.548C238.298 201.24 235.618 196.585 234.569 191.639C233.641 187.262 233.641 182.738 234.569 178.361C235.618 173.415 238.298 168.76 243.658 159.452L317.821 30.6517C323.201 21.3073 325.891 16.6351 329.659 13.2368C332.993 10.2301 336.922 7.95847 341.192 6.56964C346.017 5 351.408 5 362.191 5L522.117 5C540.038 5 548.999 5 555.844 8.4878C561.865 11.5557 566.761 16.4511 569.829 22.4723C573.317 29.3175 573.317 38.2783 573.317 56.2L573.317 185L573.317 313.8C573.317 331.722 573.317 340.683 569.829 347.528C566.761 353.549 561.865 358.444 555.844 361.512C548.999 365 540.038 365 522.117 365L362.191 365C351.408 365 346.017 365 341.192 363.43C336.922 362.042 332.993 359.77 329.659 356.763C325.891 353.365 323.201 348.693 317.821 339.348Z" fill="white"/>
<g filter="url(#filter1_d)">
<path d="M382.593 55H198.377V315H382.593V55Z" fill="url(#paint1_linear)"/>
</g>
<path d="M370.216 55H186V315H370.216V55Z" fill="url(#paint2_linear)"/>
<path d="M344.058 83.1679H213.168V94.0011H344.058V83.1679Z" fill="#CED6E0" fill-opacity="0.7"/>
<path d="M344.058 120.543H213.168V131.376H344.058V120.543Z" fill="white" fill-opacity="0.9"/>
<path d="M344.058 158.459H213.168V169.292H344.058V158.459Z" fill="#CED6E0" fill-opacity="0.7"/>
<path d="M344.058 195.834H213.168V206.667H344.058V195.834Z" fill="white" fill-opacity="0.9"/>
<path d="M267.463 233.209H213.168V244.042H267.463V233.209Z" fill="#CED6E0" fill-opacity="0.7"/>
<path d="M279.266 283.583H214.79V287.917H279.266V283.583Z" fill="#415A6B"/>
<path d="M320.914 299.597H333.291L337.004 291.588L320.914 299.597Z" fill="url(#paint3_linear)"/>
<path d="M320.914 299.597H333.291L337.004 291.588L320.914 299.597Z" fill="white" fill-opacity="0.1"/>
<path d="M351.238 315H363.615V298.365L350 296.517L351.238 315Z" fill="url(#paint4_linear)"/>
<path d="M351.238 315H363.615V298.365L350 296.517L351.238 315Z" fill="white" fill-opacity="0.1"/>
<path d="M382.181 315H394.559V300.829L384.657 294.668L382.181 315Z" fill="url(#paint5_linear)"/>
<path d="M382.181 315H394.559V300.829L384.657 294.668L382.181 315Z" fill="white" fill-opacity="0.1"/>
<path d="M412.506 299.597H424.883L414.981 291.588H404.461L412.506 299.597Z" fill="url(#paint6_linear)"/>
<path d="M412.506 299.597H424.883L414.981 291.588H404.461L412.506 299.597Z" fill="white" fill-opacity="0.1"/>
<path d="M382.441 193.666L425.101 299.833L405.71 297.666L394.56 315L351.899 209.375L382.441 193.666Z" fill="url(#paint7_linear)"/>
<path d="M382.441 193.666L425.101 299.833L405.71 297.666L394.56 315L351.899 209.375L382.441 193.666Z" fill="white" fill-opacity="0.1"/>
<path d="M375.654 193.666L332.993 299.833L352.384 297.666L363.534 315L406.195 209.375L375.654 193.666Z" fill="url(#paint8_linear)"/>
<path d="M375.654 193.666L332.993 299.833L352.384 297.666L363.534 315L406.195 209.375L375.654 193.666Z" fill="white" fill-opacity="0.1"/>
<path d="M370.063 193.666L412.724 299.833L393.333 297.666L382.183 315L339.522 209.375L370.063 193.666Z" fill="url(#paint9_linear)"/>
<path d="M370.063 193.666L412.724 299.833L393.333 297.666L382.183 315L339.522 209.375L370.063 193.666Z" fill="url(#paint10_linear)" fill-opacity="0.23"/>
<path d="M363.276 193.666L320.616 299.833L340.007 297.666L351.157 315L393.818 209.375L363.276 193.666Z" fill="url(#paint11_linear)"/>
<path d="M363.276 193.666L320.616 299.833L340.007 297.666L351.157 315L393.818 209.375L363.276 193.666Z" fill="url(#paint12_linear)" fill-opacity="0.23"/>
<path d="M428.009 203.417C428.009 208.833 420.253 213.167 418.798 218.042C417.344 222.917 421.707 231.583 418.798 235.917C415.89 240.25 407.649 238.083 403.77 241.333C399.892 244.583 398.922 253.792 394.559 255.958C390.196 257.583 384.379 250.542 379.531 250.542C374.683 250.542 368.865 257.583 364.502 255.958C360.139 254.333 359.17 244.583 355.292 241.333C351.413 238.083 343.172 240.25 340.263 235.917C337.355 231.583 341.718 223.458 340.263 218.042C338.809 213.167 331.052 208.833 331.052 203.417C331.052 198 338.809 193.667 340.263 188.792C341.718 183.917 337.355 175.25 340.263 170.917C343.172 166.583 351.413 168.75 355.292 165.5C359.17 162.25 360.139 153.042 364.502 150.875C368.865 149.25 374.683 156.292 379.531 156.292C384.379 156.292 390.197 149.25 394.56 150.875C398.923 152.5 399.892 162.25 403.771 165.5C407.649 168.75 415.89 166.583 418.799 170.917C421.707 175.25 417.344 183.375 418.799 188.792C420.253 194.208 428.009 198 428.009 203.417Z" fill="url(#paint13_linear)"/>
<path d="M380.943 150.498H393.321L396.415 159.123L380.324 162.204L380.943 150.498Z" fill="url(#paint14_linear)"/>
<path d="M353.094 150.498H364.853L369.185 160.972L354.951 160.356L353.094 150.498Z" fill="url(#paint15_linear)"/>
<path d="M380.943 255.853H393.321V245.995L379.087 244.147L380.943 255.853Z" fill="url(#paint16_linear)"/>
<path d="M353.094 255.853H366.09V250.924L355.57 244.147L353.094 255.853Z" fill="url(#paint17_linear)"/>
<path d="M415.632 203.416C415.632 208.833 407.875 213.166 406.421 218.041C404.967 222.916 409.33 231.583 406.421 235.916C403.512 240.249 395.271 238.083 391.393 241.333C387.515 244.583 386.545 253.791 382.182 255.958C377.819 257.583 372.001 250.541 367.153 250.541C362.305 250.541 356.488 257.583 352.125 255.958C347.762 254.333 346.793 244.583 342.914 241.333C339.036 238.083 330.794 240.25 327.886 235.916C324.977 231.583 329.34 223.458 327.886 218.041C326.431 213.166 318.675 208.833 318.675 203.416C318.675 197.999 326.431 193.666 327.886 188.791C329.34 183.916 324.977 175.249 327.886 170.916C330.794 166.583 339.036 168.749 342.914 165.499C346.793 162.249 347.762 153.041 352.125 150.874C356.488 149.249 362.305 156.291 367.153 156.291C372.001 156.291 377.819 149.249 382.182 150.874C386.545 152.499 387.515 162.249 391.393 165.499C395.271 168.749 403.513 166.583 406.421 170.916C409.33 175.249 404.967 183.374 406.421 188.791C407.875 194.208 415.632 197.999 415.632 203.416Z" fill="url(#paint18_linear)"/>
<path d="M390.75 240.567L390.75 240.567C391.892 239.61 393.308 239.089 394.738 238.752C395.904 238.477 397.158 238.308 398.352 238.147C398.616 238.111 398.876 238.076 399.132 238.041C400.586 237.837 401.914 237.611 403.046 237.195C404.161 236.785 405.017 236.213 405.591 235.359C406.166 234.501 406.422 233.367 406.444 231.966C406.465 230.565 406.252 229 405.98 227.344C405.918 226.972 405.854 226.594 405.789 226.214C405.571 224.934 405.347 223.621 405.222 222.383C405.058 220.777 405.042 219.164 405.463 217.755C405.88 216.356 406.73 215.052 407.69 213.84C408.411 212.93 409.24 212.017 410.047 211.128C410.311 210.837 410.572 210.549 410.827 210.265C411.883 209.085 412.843 207.943 413.541 206.785C414.235 205.632 414.632 204.526 414.632 203.416C414.632 202.311 414.238 201.242 413.549 200.137C412.854 199.023 411.897 197.932 410.836 196.781C410.661 196.591 410.483 196.399 410.303 196.206C409.416 195.249 408.486 194.248 407.684 193.212C406.713 191.961 405.868 190.586 405.456 189.051C405.046 187.526 405.058 185.863 405.222 184.223C405.351 182.929 405.584 181.586 405.807 180.293C405.866 179.952 405.925 179.614 405.981 179.282C406.253 177.659 406.465 176.147 406.444 174.791C406.423 173.44 406.17 172.336 405.591 171.474L406.421 170.916L405.591 171.474C405.018 170.619 404.162 170.048 403.046 169.637C401.915 169.221 400.586 168.995 399.132 168.792C398.876 168.756 398.616 168.721 398.353 168.686C397.158 168.525 395.904 168.356 394.739 168.081C393.308 167.743 391.892 167.223 390.751 166.266C389.624 165.321 388.762 163.956 388.038 162.522C387.447 161.35 386.911 160.054 386.396 158.805C386.278 158.521 386.162 158.24 386.047 157.963C385.409 156.437 384.787 155.039 384.075 153.928C383.358 152.81 382.628 152.108 381.833 151.812C381.048 151.519 380.127 151.587 379.005 151.979C377.877 152.374 376.668 153.052 375.363 153.832C375.128 153.972 374.89 154.116 374.649 154.261C373.585 154.904 372.47 155.577 371.373 156.114C370.03 156.773 368.593 157.291 367.153 157.291C365.714 157.291 364.277 156.773 362.933 156.114C361.837 155.577 360.722 154.904 359.657 154.261C359.417 154.116 359.179 153.972 358.944 153.832C357.639 153.052 356.43 152.374 355.302 151.979C354.203 151.595 353.297 151.522 352.522 151.794C351.687 152.225 350.945 153.022 350.238 154.148C349.519 155.293 348.895 156.682 348.257 158.174C348.158 158.406 348.059 158.641 347.958 158.878C347.426 160.133 346.875 161.433 346.263 162.609C345.537 164.005 344.676 165.328 343.556 166.266C342.415 167.223 340.999 167.743 339.568 168.081C338.403 168.356 337.148 168.525 335.954 168.686C335.691 168.721 335.43 168.756 335.175 168.792C333.721 168.995 332.392 169.221 331.261 169.637C330.145 170.048 329.29 170.619 328.716 171.474C328.14 172.331 327.884 173.465 327.863 174.867C327.842 176.268 328.055 177.833 328.327 179.488C328.388 179.86 328.453 180.238 328.518 180.619C328.736 181.899 328.959 183.212 329.085 184.45C329.248 186.055 329.264 187.668 328.844 189.077C328.426 190.477 327.577 191.78 326.617 192.992C325.896 193.903 325.067 194.816 324.259 195.705C323.996 195.995 323.735 196.283 323.48 196.568C322.424 197.748 321.464 198.89 320.766 200.048C320.071 201.2 319.675 202.307 319.675 203.416C319.675 204.526 320.071 205.632 320.766 206.785C321.464 207.943 322.424 209.085 323.48 210.265C323.735 210.549 323.996 210.837 324.259 211.128C325.067 212.017 325.896 212.93 326.617 213.84C327.577 215.052 328.426 216.356 328.844 217.755L328.848 217.769L328.852 217.782C329.261 219.307 329.249 220.97 329.085 222.61C328.956 223.903 328.724 225.246 328.5 226.539C328.441 226.881 328.382 227.218 328.327 227.551C328.054 229.174 327.842 230.686 327.863 232.041C327.884 233.393 328.137 234.497 328.716 235.359L327.886 235.916L328.716 235.359C329.29 236.214 330.145 236.785 331.261 237.195C332.392 237.612 333.721 237.838 335.175 238.041C335.431 238.076 335.691 238.112 335.955 238.147C337.149 238.308 338.403 238.477 339.568 238.752C340.999 239.089 342.415 239.61 343.556 240.567L390.75 240.567ZM390.75 240.567C389.631 241.505 388.77 242.828 388.044 244.223C387.432 245.399 386.881 246.699 386.349 247.955C386.248 248.191 386.149 248.427 386.049 248.659C385.412 250.151 384.788 251.54 384.069 252.684C383.362 253.811 382.619 254.608 381.784 255.039M390.75 240.567L381.784 255.039M381.784 255.039C381.01 255.31 380.104 255.238 379.005 254.853C377.877 254.459 376.667 253.781 375.362 253.001C375.128 252.861 374.89 252.717 374.649 252.572C373.585 251.929 372.47 251.256 371.373 250.718C370.03 250.06 368.593 249.541 367.153 249.541C365.714 249.541 364.277 250.06 362.933 250.718C361.837 251.256 360.722 251.929 359.657 252.572C359.417 252.717 359.179 252.861 358.944 253.001C357.639 253.781 356.43 254.459 355.302 254.853C354.18 255.246 353.259 255.313 352.474 255.021C351.679 254.725 350.949 254.022 350.232 252.905C349.52 251.793 348.898 250.395 348.261 248.87C348.145 248.593 348.029 248.312 347.912 248.028C347.396 246.779 346.86 245.483 346.269 244.31C345.545 242.876 344.684 241.511 343.556 240.567L381.784 255.039Z" stroke="#656565" stroke-width="2"/>
<defs>
<filter id="filter0_d" x="91.9517" y="0.34877" width="439.439" height="407.916" filterUnits="userSpaceOnUse" color-interpolation-filters="sRGB">
<feFlood flood-opacity="0" result="BackgroundImageFix"/>
<feColorMatrix in="SourceAlpha" type="matrix" values="0 0 0 0 0 0 0 0 0 0 0 0 0 0 0 0 0 0 127 0" result="hardAlpha"/>
<feOffset dy="20"/>
<feGaussianBlur stdDeviation="30"/>
<feColorMatrix type="matrix" values="0 0 0 0 0.945098 0 0 0 0 0.733333 0 0 0 0 0.0588235 0 0 0 0.25 0"/>
<feBlend mode="normal" in2="BackgroundImageFix" result="effect1_dropShadow"/>
<feBlend mode="normal" in="SourceGraphic" in2="effect1_dropShadow" result="shape"/>
</filter>
<filter id="filter1_d" x="198.377" y="55" width="186.216" height="262" filterUnits="userSpaceOnUse" color-interpolation-filters="sRGB">
<feFlood flood-opacity="0" result="BackgroundImageFix"/>
<feColorMatrix in="SourceAlpha" type="matrix" values="0 0 0 0 0 0 0 0 0 0 0 0 0 0 0 0 0 0 127 0" result="hardAlpha"/>
<feOffset dx="2" dy="2"/>
<feColorMatrix type="matrix" values="0 0 0 0 0 0 0 0 0 0 0 0 0 0 0 0 0 0 0.15 0"/>
<feBlend mode="normal" in2="BackgroundImageFix" result="effect1_dropShadow"/>
<feBlend mode="normal" in="SourceGraphic" in2="effect1_dropShadow" result="shape"/>
</filter>
<linearGradient id="paint0_linear" x1="230.759" y1="44.2472" x2="530.623" y2="68.1946" gradientUnits="userSpaceOnUse">
<stop stop-color="#FFDC67"/>
<stop offset="1" stop-color="#F0B90B"/>
</linearGradient>
<linearGradient id="paint1_linear" x1="327.069" y1="62.5352" x2="291.02" y2="293.074" gradientUnits="userSpaceOnUse">
<stop stop-color="#767676"/>
<stop offset="0.135417" stop-color="#606060"/>
<stop offset="0.630208" stop-color="#F8F8F8"/>
<stop offset="1" stop-color="#F8F8F8"/>
</linearGradient>
<linearGradient id="paint2_linear" x1="198.377" y1="60.545" x2="357.959" y2="322.59" gradientUnits="userSpaceOnUse">
<stop stop-color="white"/>
<stop offset="1" stop-color="#DCDCDC"/>
</linearGradient>
<linearGradient id="paint3_linear" x1="351.71" y1="193.272" x2="351.074" y2="314.996" gradientUnits="userSpaceOnUse">
<stop stop-color="#56D599"/>
<stop offset="0.15625" stop-color="#1EAD64"/>
<stop offset="0.371058" stop-color="#1EAE65"/>
<stop offset="0.75" stop-color="#57D69A"/>
<stop offset="0.91676" stop-color="#1EA65F"/>
<stop offset="1" stop-color="#178E4E"/>
</linearGradient>
<linearGradient id="paint4_linear" x1="351.71" y1="193.272" x2="351.074" y2="314.996" gradientUnits="userSpaceOnUse">
<stop stop-color="#56D599"/>
<stop offset="0.15625" stop-color="#1EAD64"/>
<stop offset="0.371058" stop-color="#1EAE65"/>
<stop offset="0.75" stop-color="#57D69A"/>
<stop offset="0.91676" stop-color="#1EA65F"/>
<stop offset="1" stop-color="#178E4E"/>
</linearGradient>
<linearGradient id="paint5_linear" x1="351.71" y1="193.272" x2="351.074" y2="314.996" gradientUnits="userSpaceOnUse">
<stop stop-color="#56D599"/>
<stop offset="0.15625" stop-color="#1EAD64"/>
<stop offset="0.371058" stop-color="#1EAE65"/>
<stop offset="0.75" stop-color="#57D69A"/>
<stop offset="0.91676" stop-color="#1EA65F"/>
<stop offset="1" stop-color="#178E4E"/>
</linearGradient>
<linearGradient id="paint6_linear" x1="351.71" y1="193.272" x2="351.074" y2="314.996" gradientUnits="userSpaceOnUse">
<stop stop-color="#56D599"/>
<stop offset="0.15625" stop-color="#1EAD64"/>
<stop offset="0.371058" stop-color="#1EAE65"/>
<stop offset="0.75" stop-color="#57D69A"/>
<stop offset="0.91676" stop-color="#1EA65F"/>
<stop offset="1" stop-color="#178E4E"/>
</linearGradient>
<linearGradient id="paint7_linear" x1="351.71" y1="193.272" x2="351.074" y2="314.996" gradientUnits="userSpaceOnUse">
<stop stop-color="#56D599"/>
<stop offset="0.15625" stop-color="#1EAD64"/>
<stop offset="0.371058" stop-color="#1EAE65"/>
<stop offset="0.75" stop-color="#57D69A"/>
<stop offset="0.91676" stop-color="#1EA65F"/>
<stop offset="1" stop-color="#178E4E"/>
</linearGradient>
<linearGradient id="paint8_linear" x1="351.71" y1="193.272" x2="351.074" y2="314.996" gradientUnits="userSpaceOnUse">
<stop stop-color="#56D599"/>
<stop offset="0.15625" stop-color="#1EAD64"/>
<stop offset="0.371058" stop-color="#1EAE65"/>
<stop offset="0.75" stop-color="#57D69A"/>
<stop offset="0.91676" stop-color="#1EA65F"/>
<stop offset="1" stop-color="#178E4E"/>
</linearGradient>
<linearGradient id="paint9_linear" x1="366.67" y1="193.666" x2="366.67" y2="358.604" gradientUnits="userSpaceOnUse">
<stop stop-color="#1FA05B"/>
<stop offset="0.569228" stop-color="#1DB369"/>
<stop offset="1" stop-color="#62DDA3"/>
</linearGradient>
<linearGradient id="paint10_linear" x1="409.226" y1="248.646" x2="320.616" y2="248.646" gradientUnits="userSpaceOnUse">
<stop offset="0.479067" stop-color="white" stop-opacity="0"/>
<stop offset="0.479167" stop-color="white"/>
<stop offset="1" stop-color="white" stop-opacity="0"/>
</linearGradient>
<linearGradient id="paint11_linear" x1="366.67" y1="193.666" x2="366.67" y2="358.604" gradientUnits="userSpaceOnUse">
<stop stop-color="#1FA05B"/>
<stop offset="0.569228" stop-color="#1DB369"/>
<stop offset="1" stop-color="#62DDA3"/>
</linearGradient>
<linearGradient id="paint12_linear" x1="409.226" y1="248.646" x2="320.616" y2="248.646" gradientUnits="userSpaceOnUse">
<stop offset="0.479067" stop-color="white" stop-opacity="0"/>
<stop offset="0.479167" stop-color="white"/>
<stop offset="1" stop-color="white" stop-opacity="0"/>
</linearGradient>
<linearGradient id="paint13_linear" x1="349.632" y1="150.699" x2="348.773" y2="256.195" gradientUnits="userSpaceOnUse">
<stop stop-color="#5E5D60"/>
<stop offset="0.0989583" stop-color="#1A1919"/>
<stop offset="0.25" stop-color="#6C6C6C"/>
<stop offset="0.395833" stop-color="#282828"/>
<stop offset="0.65625" stop-color="#3C3B3D"/>
<stop offset="0.713542" stop-color="#4F5052"/>
<stop offset="0.791667" stop-color="#5A5A5A"/>
<stop offset="1" stop-color="#16171A"/>
</linearGradient>
<linearGradient id="paint14_linear" x1="349.632" y1="150.699" x2="348.773" y2="256.195" gradientUnits="userSpaceOnUse">
<stop stop-color="#5E5D60"/>
<stop offset="0.0989583" stop-color="#1A1919"/>
<stop offset="0.25" stop-color="#6C6C6C"/>
<stop offset="0.395833" stop-color="#282828"/>
<stop offset="0.65625" stop-color="#3C3B3D"/>
<stop offset="0.713542" stop-color="#4F5052"/>
<stop offset="0.791667" stop-color="#5A5A5A"/>
<stop offset="1" stop-color="#16171A"/>
</linearGradient>
<linearGradient id="paint15_linear" x1="349.632" y1="150.699" x2="348.773" y2="256.195" gradientUnits="userSpaceOnUse">
<stop stop-color="#5E5D60"/>
<stop offset="0.0989583" stop-color="#1A1919"/>
<stop offset="0.25" stop-color="#6C6C6C"/>
<stop offset="0.395833" stop-color="#282828"/>
<stop offset="0.65625" stop-color="#3C3B3D"/>
<stop offset="0.713542" stop-color="#4F5052"/>
<stop offset="0.791667" stop-color="#5A5A5A"/>
<stop offset="1" stop-color="#16171A"/>
</linearGradient>
<linearGradient id="paint16_linear" x1="349.632" y1="150.699" x2="348.773" y2="256.195" gradientUnits="userSpaceOnUse">
<stop stop-color="#5E5D60"/>
<stop offset="0.0989583" stop-color="#1A1919"/>
<stop offset="0.25" stop-color="#6C6C6C"/>
<stop offset="0.395833" stop-color="#282828"/>
<stop offset="0.65625" stop-color="#3C3B3D"/>
<stop offset="0.713542" stop-color="#4F5052"/>
<stop offset="0.791667" stop-color="#5A5A5A"/>
<stop offset="1" stop-color="#16171A"/>
</linearGradient>
<linearGradient id="paint17_linear" x1="349.632" y1="150.699" x2="348.773" y2="256.195" gradientUnits="userSpaceOnUse">
<stop stop-color="#5E5D60"/>
<stop offset="0.0989583" stop-color="#1A1919"/>
<stop offset="0.25" stop-color="#6C6C6C"/>
<stop offset="0.395833" stop-color="#282828"/>
<stop offset="0.65625" stop-color="#3C3B3D"/>
<stop offset="0.713542" stop-color="#4F5052"/>
<stop offset="0.791667" stop-color="#5A5A5A"/>
<stop offset="1" stop-color="#16171A"/>
</linearGradient>
<linearGradient id="paint18_linear" x1="367.153" y1="150.648" x2="367.153" y2="256.201" gradientUnits="userSpaceOnUse">
<stop stop-color="#2B292A"/>
<stop offset="0.680059" stop-color="#424041"/>
<stop offset="1" stop-color="#868585"/>
</linearGradient>
</defs>
</svg>
