<svg width="574" height="409" viewBox="0 0 574 409" fill="none" xmlns="http://www.w3.org/2000/svg">
<mask id="mask0" mask-type="alpha" maskUnits="userSpaceOnUse" x="0" y="5" width="392" height="359">
<path fill-rule="evenodd" clip-rule="evenodd" d="M346.192 166.772L275.231 40.4568L226.496 40.4568C234.784 55.6895 245.649 75.7161 256.461 95.6658C267.332 115.725 278.154 135.714 286.258 150.688C289.727 157.097 292.697 162.587 294.961 166.772L346.192 166.772ZM265.145 184.273C262.869 180.067 259.862 174.51 256.342 168.006C248.24 153.036 237.421 133.053 226.555 113.002C215.687 92.9489 204.775 72.8353 196.485 57.5998C192.75 50.7354 189.553 44.873 187.135 40.4568L117.661 40.4568L92.0782 85.5165L152.963 85.5165C159.209 85.5165 164.979 88.9715 168.088 94.5762L241.782 227.419L265.145 184.273ZM271.117 245.811L294.716 202.228L346.192 202.228L321.708 245.811L271.117 245.811ZM301.789 281.268L242.246 281.268C235.988 281.268 230.209 277.806 227.095 272.192C227.095 272.192 227.095 272.192 227.095 272.192L153.229 139.039L127.524 186.512L205.468 328.543L275.231 328.543L301.789 281.268ZM166.048 328.543L96.7282 202.228L45.9452 202.228L117.661 328.543L166.048 328.543ZM45.9452 166.772L98.9192 166.772L123.717 120.973L71.9474 120.973L45.9452 166.772ZM182.492 32.0616C182.49 32.0579 182.512 32.0945 182.563 32.182C182.519 32.1089 182.493 32.0653 182.492 32.0616ZM388.713 171.883C393.096 179.684 393.096 189.316 388.713 197.117L301.983 351.502C297.636 359.239 289.638 364 280.986 364L111.937 364C103.325 364 95.3569 359.283 90.9961 351.602L3.34325 197.217C-1.11439 189.366 -1.11439 179.634 3.34325 171.783L90.9962 17.3981C95.3569 9.71748 103.325 4.99999 111.937 4.99999L280.986 5C289.638 5 297.636 9.76096 301.983 17.4981L388.713 171.883Z" fill="#F7F7F7"/>
</mask>
<g mask="url(#mask0)">
<path d="M101.908 365L8.07124 200.652C2.45061 190.808 2.45744 178.725 8.08918 168.887L101.908 5M105.213 365L11.3756 200.652C5.75501 190.808 5.76184 178.725 11.3936 168.887L105.213 5M108.517 365L14.68 200.652C9.05941 190.808 9.06624 178.725 14.698 168.887L108.517 5M111.822 365L17.9844 200.652C12.3638 190.808 12.3706 178.725 18.0024 168.887L111.822 5M115.126 365L21.2888 200.652C15.6682 190.808 15.675 178.725 21.3068 168.887L115.126 5M118.43 365L24.5932 200.652C18.9726 190.808 18.9794 178.725 24.6112 168.887L118.43 5M121.735 365L27.8976 200.652C22.277 190.808 22.2838 178.725 27.9156 168.887L121.735 5M125.039 365L31.202 200.652C25.5814 190.808 25.5882 178.725 31.22 168.887L125.039 5M128.344 365L34.5064 200.652C28.8858 190.808 28.8926 178.725 34.5244 168.887L128.344 5M131.648 365L37.8108 200.652C32.1902 190.808 32.197 178.725 37.8288 168.887L131.648 5M134.952 365L41.1152 200.652C35.4946 190.808 35.5014 178.725 41.1332 168.887L134.952 5M138.257 365L44.4196 200.652C38.799 190.808 38.8058 178.725 44.4376 168.887L138.257 5M141.561 365L47.724 200.652C42.1034 190.808 42.1102 178.725 47.742 168.887L141.561 5M144.866 365L51.0284 200.652C45.4078 190.808 45.4146 178.725 51.0464 168.887L144.866 5M148.17 365L54.3328 200.652C48.7122 190.808 48.719 178.725 54.3508 168.887L148.17 5M151.474 365L57.6372 200.652C52.0166 190.808 52.0234 178.725 57.6552 168.887L151.474 5M154.779 365L60.9416 200.652C55.321 190.808 55.3278 178.725 60.9596 168.887L154.779 5M158.083 365L64.246 200.652C58.6254 190.808 58.6322 178.725 64.264 168.887L158.083 5M161.388 365L67.5504 200.652C61.9298 190.808 61.9366 178.725 67.5684 168.887L161.388 5M164.692 365L70.8548 200.652C65.2342 190.808 65.241 178.725 70.8728 168.887L164.692 5M167.996 365L74.1592 200.652C68.5386 190.808 68.5454 178.725 74.1772 168.887L167.996 5M171.301 365L77.4636 200.652C71.843 190.808 71.8498 178.725 77.4816 168.887L171.301 5M174.605 365L80.768 200.652C75.1474 190.808 75.1542 178.725 80.786 168.887L174.605 5M177.91 365L84.0724 200.652C78.4518 190.808 78.4586 178.725 84.0904 168.887L177.91 5M181.214 365L87.3768 200.652C81.7562 190.808 81.763 178.725 87.3948 168.887L181.214 5M184.518 365L90.6812 200.652C85.0606 190.808 85.0674 178.725 90.6992 168.887L184.518 5M187.823 365L93.9856 200.652C88.365 190.808 88.3718 178.725 94.0036 168.887L187.823 5M191.127 365L97.29 200.652C91.6694 190.808 91.6762 178.725 97.308 168.887L191.127 5M194.432 365L100.594 200.652C94.9738 190.808 94.9806 178.725 100.612 168.887L194.432 5M197.736 365L103.899 200.652C98.2782 190.808 98.285 178.725 103.917 168.887L197.736 5M201.04 365L107.203 200.652C101.583 190.808 101.589 178.725 107.221 168.887L201.04 5M204.345 365L110.508 200.652C104.887 190.808 104.894 178.725 110.526 168.887L204.345 5M207.649 365L113.812 200.652C108.191 190.808 108.198 178.725 113.83 168.887L207.649 5M210.954 365L117.116 200.652C111.496 190.808 111.503 178.725 117.134 168.887L210.954 5M214.258 365L120.421 200.652C114.8 190.808 114.807 178.725 120.439 168.887L214.258 5M217.562 365L123.725 200.652C118.105 190.808 118.111 178.725 123.743 168.887L217.562 5M220.867 365L127.03 200.652C121.409 190.808 121.416 178.725 127.048 168.887L220.867 5M224.171 365L130.334 200.652C124.713 190.808 124.72 178.725 130.352 168.887L224.171 5M227.476 365L133.638 200.652C128.018 190.808 128.025 178.725 133.656 168.887L227.476 5M230.78 365L136.943 200.652C131.322 190.808 131.329 178.725 136.961 168.887L230.78 5M234.084 365L140.247 200.652C134.627 190.808 134.633 178.725 140.265 168.887L234.084 5M237.389 365L143.552 200.652C137.931 190.808 137.938 178.725 143.57 168.887L237.389 5M240.693 365L146.856 200.652C141.235 190.808 141.242 178.725 146.874 168.887L240.693 5M243.998 365L150.16 200.652C144.54 190.808 144.547 178.725 150.178 168.887L243.998 5M247.302 365L153.465 200.652C147.844 190.808 147.851 178.725 153.483 168.887L247.302 5M250.606 365L156.769 200.652C151.149 190.808 151.155 178.725 156.787 168.887L250.606 5M253.911 365L160.074 200.652C154.453 190.808 154.46 178.725 160.092 168.887L253.911 5M257.215 365L163.378 200.652C157.757 190.808 157.764 178.725 163.396 168.887L257.215 5M260.52 365L166.682 200.652C161.062 190.808 161.069 178.725 166.7 168.887L260.52 5M263.824 365L169.987 200.652C164.366 190.808 164.373 178.725 170.005 168.887L263.824 5M267.128 365L173.291 200.652C167.671 190.808 167.677 178.725 173.309 168.887L267.128 5M270.433 365L176.596 200.652C170.975 190.808 170.982 178.725 176.614 168.887L270.433 5M273.737 365L179.9 200.652C174.279 190.808 174.286 178.725 179.918 168.887L273.737 5M277.042 365L183.204 200.652C177.584 190.808 177.591 178.725 183.222 168.887L277.042 5M280.346 365L186.509 200.652C180.888 190.808 180.895 178.725 186.527 168.887L280.346 5M283.65 365L189.813 200.652C184.193 190.808 184.199 178.725 189.831 168.887L283.65 5M286.955 365L193.118 200.652C187.497 190.808 187.504 178.725 193.136 168.887L286.955 5M290.259 365L196.422 200.652C190.801 190.808 190.808 178.725 196.44 168.887L290.259 5M293.564 365L199.726 200.652C194.106 190.808 194.113 178.725 199.744 168.887L293.564 5M296.868 365L203.031 200.652C197.41 190.808 197.417 178.725 203.049 168.887L296.868 5M300.172 365L206.335 200.652C200.715 190.808 200.721 178.725 206.353 168.887L300.172 5M303.477 365L209.64 200.652C204.019 190.808 204.026 178.725 209.658 168.887L303.477 5M306.781 365L212.944 200.652C207.323 190.808 207.33 178.725 212.962 168.887L306.781 5M310.086 365L216.248 200.652C210.628 190.808 210.635 178.725 216.266 168.887L310.086 5M313.39 365L219.553 200.652C213.932 190.808 213.939 178.725 219.571 168.887L313.39 5M316.694 365L222.857 200.652C217.237 190.808 217.243 178.725 222.875 168.887L316.694 5M319.999 365L226.162 200.652C220.541 190.808 220.548 178.725 226.18 168.887L319.999 5M323.303 365L229.466 200.652C223.845 190.808 223.852 178.725 229.484 168.887L323.303 5M326.608 365L232.77 200.652C227.15 190.808 227.157 178.725 232.788 168.887L326.608 5M329.912 365L236.075 200.652C230.454 190.808 230.461 178.725 236.093 168.887L329.912 5M333.216 365L239.379 200.652C233.759 190.808 233.765 178.725 239.397 168.887L333.216 5M336.521 365L242.684 200.652C237.063 190.808 237.07 178.725 242.702 168.887L336.521 5M339.825 365L245.988 200.652C240.367 190.808 240.374 178.725 246.006 168.887L339.825 5M343.13 365L249.292 200.652C243.672 190.808 243.679 178.725 249.31 168.887L343.13 5M346.434 365L252.597 200.652C246.976 190.808 246.983 178.725 252.615 168.887L346.434 5M349.738 365L255.901 200.652C250.281 190.808 250.287 178.725 255.919 168.887L349.738 5M353.043 365L259.206 200.652C253.585 190.808 253.592 178.725 259.224 168.887L353.043 5M356.347 365L262.51 200.652C256.889 190.808 256.896 178.725 262.528 168.887L356.347 5M359.652 365L265.814 200.652C260.194 190.808 260.201 178.725 265.832 168.887L359.652 5M362.956 365L269.119 200.652C263.498 190.808 263.505 178.725 269.137 168.887L362.956 5M366.26 365L272.423 200.652C266.803 190.808 266.809 178.725 272.441 168.887L366.26 5M369.565 365L275.728 200.652C270.107 190.808 270.114 178.725 275.746 168.887L369.565 5M372.869 365L279.032 200.652C273.411 190.808 273.418 178.725 279.05 168.887L372.869 5M376.174 365L282.336 200.652C276.716 190.808 276.723 178.725 282.354 168.887L376.174 5M379.478 365L285.641 200.652C280.02 190.808 280.027 178.725 285.659 168.887L379.478 5M382.782 365L288.945 200.652C283.325 190.808 283.331 178.725 288.963 168.887L382.782 5M386.087 365L292.25 200.652C286.629 190.808 286.636 178.725 292.268 168.887L386.087 5M389.391 365L295.554 200.652C289.933 190.808 289.94 178.725 295.572 168.887L389.391 5M392.696 365L298.858 200.652C293.238 190.808 293.245 178.725 298.876 168.887L392.696 5M396 365L302.163 200.652C296.542 190.808 296.549 178.725 302.181 168.887L396 5" stroke="#5C677D" stroke-opacity="0.07" stroke-width="2"/>
</g>
<path d="M354.61 46.9264L354.61 46.9267L420.839 162.094C425.552 170.29 427.788 174.2 428.663 178.333C429.445 182.022 429.445 185.835 428.663 189.524C427.788 193.657 425.552 197.567 420.839 205.763L354.61 320.93C349.87 329.173 347.602 333.094 344.45 335.939C341.637 338.478 338.32 340.397 334.716 341.57C330.679 342.884 326.149 342.896 316.641 342.896L182.908 342.896C173.4 342.896 168.87 342.884 164.833 341.57C161.229 340.397 157.912 338.478 155.099 335.939C151.947 333.094 149.679 329.173 144.939 320.93L78.7101 205.763C73.9969 197.567 71.7614 193.657 70.8859 189.524C70.1043 185.835 70.1043 182.022 70.8859 178.333C71.7614 174.2 73.9968 170.29 78.7101 162.094L144.939 46.9267C149.679 38.6842 151.947 34.7632 155.099 31.9184C157.912 29.379 161.229 27.4604 164.833 26.2874C168.87 24.9733 173.4 24.9616 182.908 24.9616L316.641 24.9616C326.149 24.9616 330.679 24.9733 334.716 26.2874C338.32 27.4604 341.637 29.379 344.45 31.9184C347.591 34.7532 349.854 38.6567 354.56 46.8396C354.577 46.8686 354.593 46.8974 354.61 46.9264Z" stroke="#1CBA6E" stroke-width="2"/>
<g filter="url(#filter0_d)">
<path d="M217.788 305.861L160.549 206.704C155.839 198.544 153.484 194.464 152.562 190.127C151.747 186.29 151.747 182.324 152.562 178.486C153.484 174.149 155.839 170.069 160.549 161.91L217.788 62.7518C222.499 54.5903 224.854 50.5096 228.15 47.5417C231.066 44.9158 234.502 42.9321 238.234 41.7194C242.452 40.3488 247.164 40.3488 256.587 40.3488L366.753 40.3487C376.177 40.3487 380.889 40.3487 385.107 41.7194C388.839 42.9321 392.274 44.9158 395.19 47.5417C398.486 50.5096 400.842 54.5903 405.553 62.7518L462.791 161.91C467.501 170.069 469.856 174.149 470.778 178.486C471.594 182.323 471.594 186.29 470.778 190.127C469.856 194.464 467.501 198.544 462.791 206.704L405.553 305.861C400.842 314.023 398.486 318.104 395.19 321.071C392.274 323.697 388.839 325.681 385.107 326.894C380.889 328.264 376.177 328.264 366.753 328.264L256.587 328.264C247.164 328.264 242.452 328.264 238.234 326.894C234.502 325.681 231.066 323.697 228.15 321.071C224.854 318.104 222.499 314.023 217.788 305.861L217.788 305.861Z" fill="url(#paint0_linear)"/>
</g>
<path d="M317.82 339.348L243.657 210.548C238.297 201.24 235.617 196.585 234.568 191.639C233.64 187.262 233.64 182.738 234.568 178.361C235.617 173.415 238.297 168.76 243.657 159.452L317.82 30.6517C323.2 21.3073 325.89 16.6351 329.658 13.2368C332.992 10.2301 336.922 7.95847 341.191 6.56967C346.016 5 351.407 5 362.19 5L522.116 5C540.037 5 548.998 5 555.843 8.4878C561.865 11.5558 566.76 16.4511 569.828 22.4723C573.316 29.3175 573.316 38.2783 573.316 56.2L573.316 185L573.316 313.8C573.316 331.722 573.316 340.683 569.828 347.528C566.76 353.549 561.865 358.444 555.843 361.512C548.998 365 540.037 365 522.116 365L362.19 365C351.407 365 346.016 365 341.191 363.43C336.922 362.042 332.992 359.77 329.658 356.763C325.89 353.365 323.2 348.693 317.82 339.348Z" fill="white"/>
<path d="M384.418 312.317H241.04C233.947 312.317 228.197 306.567 228.197 299.474V250.75L256.689 74.9801C256.689 67.8872 262.439 62.1372 269.532 62.1372H384.418C391.511 62.1372 397.261 67.8872 397.261 74.9801V299.474C397.261 306.567 391.511 312.317 384.418 312.317Z" fill="url(#paint1_linear)"/>
<path d="M386.986 69.8429V299.474C386.986 306.567 381.236 312.317 374.143 312.317H389.555C396.647 312.317 402.397 306.567 402.397 299.474V250.75C402.397 250.75 398.573 121.892 393.315 74.3487C392.126 63.5936 386.986 62.75 386.986 69.8429Z" fill="url(#paint2_linear)"/>
<path d="M384.418 57H241.04C233.947 57 228.197 62.75 228.197 69.8429V250.75L386.987 250.75L397.261 69.8429C397.261 62.75 391.511 57 384.418 57Z" fill="url(#paint3_linear)"/>
<path d="M389.555 57H374.143C381.236 57 386.986 62.75 386.986 69.8429L386.987 250.75L402.397 250.75V69.8429C402.397 62.75 396.647 57 389.555 57Z" fill="url(#paint4_linear)"/>
<path d="M364.778 312.317H221.4C214.307 312.317 208.557 306.567 208.557 299.474V250.75L237.049 74.9801C237.049 67.8872 242.799 62.1372 249.892 62.1372H364.778C371.871 62.1372 377.621 67.8872 377.621 74.9801V299.474C377.621 306.567 371.871 312.317 364.778 312.317Z" fill="url(#paint5_linear)"/>
<path d="M367.346 69.843V299.474C367.346 306.567 361.596 312.317 354.503 312.317H369.915C377.008 312.317 382.758 306.567 382.758 299.474V250.75C382.758 250.75 378.933 121.892 373.676 74.3488C372.486 63.5936 367.346 62.7501 367.346 69.843Z" fill="url(#paint6_linear)"/>
<path d="M364.778 57H221.4C214.307 57 208.557 62.75 208.557 69.8429V250.75H367.347L377.621 69.8429C377.621 62.75 371.871 57 364.778 57Z" fill="url(#paint7_linear)"/>
<path d="M369.915 57H354.503C361.596 57 367.346 62.75 367.346 69.8429L367.347 250.75H382.758V69.8429C382.758 62.75 377.008 57 369.915 57Z" fill="url(#paint8_linear)"/>
<path fill-rule="evenodd" clip-rule="evenodd" d="M370.29 58.964H221.027C215.062 58.964 210.226 63.8001 210.226 69.7659V299.551C210.226 305.517 215.062 310.353 221.027 310.353H370.29C376.256 310.353 381.092 305.517 381.092 299.551V69.7659C381.092 63.8001 376.256 58.964 370.29 58.964ZM221.027 57C213.977 57 208.262 62.7155 208.262 69.7659V299.551C208.262 306.602 213.977 312.317 221.027 312.317H370.29C377.34 312.317 383.056 306.602 383.056 299.551V69.7659C383.056 62.7155 377.34 57 370.29 57H221.027Z" fill="url(#paint9_linear)"/>
<path fill-rule="evenodd" clip-rule="evenodd" d="M370.29 58.964H221.027C215.062 58.964 210.226 63.8001 210.226 69.7659V299.551C210.226 305.517 215.062 310.353 221.027 310.353H370.29C376.256 310.353 381.092 305.517 381.092 299.551V69.7659C381.092 63.8001 376.256 58.964 370.29 58.964ZM221.027 57C213.977 57 208.262 62.7155 208.262 69.7659V299.551C208.262 306.602 213.977 312.317 221.027 312.317H370.29C377.34 312.317 383.056 306.602 383.056 299.551V69.7659C383.056 62.7155 377.34 57 370.29 57H221.027Z" fill="url(#paint10_linear)"/>
<g filter="url(#filter1_d)">
<path d="M309.339 266.161H283.941C275.623 266.161 268.88 272.904 268.88 281.222C268.88 289.54 275.623 296.283 283.941 296.283H309.339C317.656 296.283 324.399 289.54 324.399 281.222C324.4 272.904 317.657 266.161 309.339 266.161Z" fill="url(#paint11_linear)"/>
<path d="M310.321 266.161H284.923C276.605 266.161 269.862 272.904 269.862 281.222C269.862 289.54 276.605 296.283 284.923 296.283H310.321C318.638 296.283 325.381 289.54 325.381 281.222C325.382 272.904 318.639 266.161 310.321 266.161Z" fill="url(#paint12_linear)"/>
<path d="M311.303 266.161H285.905C277.587 266.161 270.844 272.904 270.844 281.222C270.844 289.54 277.587 296.283 285.905 296.283H311.303C319.62 296.283 326.363 289.54 326.363 281.222C326.364 272.904 319.621 266.161 311.303 266.161Z" fill="url(#paint13_linear)"/>
<path d="M312.284 266.161H286.887C278.569 266.161 271.826 272.904 271.826 281.222C271.826 289.54 278.569 296.283 286.887 296.283H312.284C320.602 296.283 327.345 289.54 327.345 281.222C327.346 272.904 320.603 266.161 312.284 266.161Z" fill="url(#paint14_linear)"/>
</g>
<path d="M308.356 266.161H282.959C274.641 266.161 267.898 272.904 267.898 281.222C267.898 289.54 274.641 296.283 282.959 296.283H308.356C316.674 296.283 323.417 289.54 323.417 281.222C323.418 272.904 316.675 266.161 308.356 266.161Z" fill="url(#paint15_linear)"/>
<path d="M295.168 230.321H305.479L310.389 204.298L296.641 201.843L295.168 230.321Z" fill="url(#paint16_linear)"/>
<path d="M295.168 230.321H305.479L310.389 204.298L296.641 201.843L295.168 230.321Z" fill="white" fill-opacity="0.1"/>
<path d="M415.157 102.512H190.663C183.57 102.512 177.82 108.262 177.82 115.355V182.894C177.82 189.987 183.57 195.737 190.663 195.737H279.619C282.372 195.737 284.916 197.206 286.292 199.59L303.33 229.099C304.318 230.811 306.79 230.811 307.778 229.099L324.816 199.59C326.193 197.206 328.736 195.737 331.489 195.737H415.157C422.25 195.737 428 189.987 428 182.894V115.355C428 108.262 422.25 102.512 415.157 102.512Z" fill="url(#paint17_linear)"/>
<path d="M415.157 102.512H190.663C183.57 102.512 177.82 108.262 177.82 115.355V182.894C177.82 189.987 183.57 195.737 190.663 195.737H279.619C282.372 195.737 284.916 197.206 286.292 199.59L303.33 229.099C304.318 230.811 306.79 230.811 307.778 229.099L324.816 199.59C326.193 197.206 328.736 195.737 331.489 195.737H415.157C422.25 195.737 428 189.987 428 182.894V115.355C428 108.262 422.25 102.512 415.157 102.512Z" fill="white" fill-opacity="0.1"/>
<path d="M405.337 102.512H180.843C173.75 102.512 168 108.262 168 115.355V182.894C168 189.987 173.75 195.737 180.843 195.737H269.799C272.552 195.737 275.096 197.206 276.472 199.59L293.51 229.099C294.498 230.811 296.97 230.811 297.959 229.099L314.996 199.59C316.373 197.206 318.916 195.737 321.669 195.737H405.337C412.43 195.737 418.18 189.987 418.18 182.894V115.355C418.18 108.262 412.43 102.512 405.337 102.512Z" fill="url(#paint18_linear)"/>
<path d="M405.337 102.512H180.843C173.75 102.512 168 108.262 168 115.355V182.894C168 189.987 173.75 195.737 180.843 195.737H269.799C272.552 195.737 275.096 197.206 276.472 199.59L293.51 229.099C294.498 230.811 296.97 230.811 297.959 229.099L314.996 199.59C316.373 197.206 318.916 195.737 321.669 195.737H405.337C412.43 195.737 418.18 189.987 418.18 182.894V115.355C418.18 108.262 412.43 102.512 405.337 102.512Z" fill="url(#paint19_linear)" fill-opacity="0.23"/>
<path fill-rule="evenodd" clip-rule="evenodd" d="M314.996 199.59C316.373 197.206 318.916 195.737 321.669 195.737H405.337C412.43 195.737 418.18 189.987 418.18 182.894V115.355C418.18 108.262 412.43 102.512 405.337 102.512H180.843C173.75 102.512 168 108.262 168 115.355V182.894C168 189.987 173.75 195.737 180.843 195.737H269.799C272.552 195.737 275.096 197.206 276.472 199.59L293.51 229.099C294.498 230.811 296.97 230.811 297.959 229.099L314.996 199.59ZM295.211 228.117L295.211 228.117C295.443 228.52 296.025 228.52 296.258 228.117L296.258 228.117L313.295 198.608L313.295 198.608C315.023 195.616 318.214 193.773 321.669 193.773H405.337C411.345 193.773 416.216 188.902 416.216 182.894V115.355C416.216 109.347 411.345 104.476 405.337 104.476H180.843C174.835 104.476 169.964 109.347 169.964 115.355V182.894C169.964 188.902 174.835 193.773 180.843 193.773H269.799C273.254 193.773 276.446 195.616 278.173 198.608C278.173 198.608 278.173 198.608 278.173 198.608L295.211 228.117Z" fill="url(#paint20_linear)"/>
<path fill-rule="evenodd" clip-rule="evenodd" d="M314.996 199.59C316.373 197.206 318.916 195.737 321.669 195.737H405.337C412.43 195.737 418.18 189.987 418.18 182.894V115.355C418.18 108.262 412.43 102.512 405.337 102.512H180.843C173.75 102.512 168 108.262 168 115.355V182.894C168 189.987 173.75 195.737 180.843 195.737H269.799C272.552 195.737 275.096 197.206 276.472 199.59L293.51 229.099C294.498 230.811 296.97 230.811 297.959 229.099L314.996 199.59ZM295.211 228.117L295.211 228.117C295.443 228.52 296.025 228.52 296.258 228.117L296.258 228.117L313.295 198.608L313.295 198.608C315.023 195.616 318.214 193.773 321.669 193.773H405.337C411.345 193.773 416.216 188.902 416.216 182.894V115.355C416.216 109.347 411.345 104.476 405.337 104.476H180.843C174.835 104.476 169.964 109.347 169.964 115.355V182.894C169.964 188.902 174.835 193.773 180.843 193.773H269.799C273.254 193.773 276.446 195.616 278.173 198.608C278.173 198.608 278.173 198.608 278.173 198.608L295.211 228.117Z" fill="url(#paint21_linear)"/>
<g filter="url(#filter2_d)">
<path d="M215.279 167.946L202.575 174.625C200.69 175.616 198.488 174.016 198.848 171.917L201.274 157.77C201.417 156.937 201.14 156.087 200.535 155.496L190.257 145.478C188.732 143.992 189.573 141.403 191.68 141.097L205.885 139.033C206.721 138.911 207.444 138.386 207.819 137.628L214.171 124.757C215.113 122.848 217.836 122.848 218.778 124.757L225.13 137.628C225.504 138.386 226.228 138.912 227.065 139.033L241.269 141.097C243.376 141.403 244.217 143.992 242.692 145.478L232.414 155.497C231.808 156.087 231.532 156.937 231.675 157.771L234.101 171.918C234.462 174.016 232.259 175.616 230.374 174.626L217.67 167.946C216.921 167.552 216.027 167.552 215.279 167.946Z" fill="url(#paint22_linear)"/>
<path d="M294.462 167.945L281.757 174.625C279.873 175.615 277.671 174.015 278.03 171.917L280.457 157.77C280.599 156.936 280.323 156.086 279.718 155.496L269.439 145.477C267.915 143.991 268.756 141.402 270.863 141.096L285.067 139.032C285.904 138.91 286.627 138.385 287.001 137.627L293.354 124.756C294.296 122.847 297.018 122.847 297.96 124.756L304.313 137.627C304.687 138.385 305.41 138.911 306.247 139.032L320.451 141.096C322.558 141.402 323.399 143.991 321.875 145.477L311.596 155.496C310.991 156.086 310.715 156.936 310.857 157.77L313.284 171.917C313.644 174.015 311.441 175.615 309.557 174.625L296.852 167.945C296.104 167.552 295.211 167.552 294.462 167.945Z" fill="url(#paint23_linear)"/>
<path d="M373.646 167.945L360.941 174.625C359.057 175.615 356.855 174.015 357.214 171.917L359.64 157.77C359.783 156.936 359.507 156.086 358.902 155.496L348.623 145.477C347.099 143.991 347.94 141.402 350.047 141.096L364.251 139.032C365.088 138.91 365.811 138.385 366.185 137.627L372.537 124.756C373.479 122.847 376.202 122.847 377.144 124.756L383.496 137.627C383.87 138.385 384.594 138.911 385.431 139.032L399.635 141.096C401.742 141.402 402.583 143.991 401.058 145.477L390.78 155.496C390.175 156.086 389.898 156.936 390.041 157.77L392.467 171.917C392.828 174.015 390.625 175.615 388.74 174.625L376.036 167.945C375.288 167.552 374.394 167.552 373.646 167.945Z" fill="url(#paint24_linear)"/>
<path d="M216.261 167.946L203.557 174.625C201.672 175.616 199.47 174.016 199.83 171.917L202.256 157.77C202.399 156.937 202.122 156.087 201.517 155.496L191.239 145.478C189.714 143.992 190.555 141.403 192.662 141.097L206.867 139.033C207.703 138.911 208.426 138.386 208.801 137.628L215.153 124.757C216.095 122.848 218.818 122.848 219.76 124.757L226.112 137.628C226.486 138.386 227.21 138.912 228.047 139.033L242.251 141.097C244.358 141.403 245.199 143.992 243.674 145.478L233.396 155.497C232.79 156.087 232.514 156.937 232.657 157.771L235.083 171.918C235.444 174.016 233.241 175.616 231.356 174.626L218.652 167.946C217.903 167.552 217.009 167.552 216.261 167.946Z" fill="url(#paint25_linear)"/>
<path d="M295.444 167.945L282.739 174.625C280.855 175.615 278.653 174.015 279.012 171.917L281.439 157.77C281.581 156.936 281.305 156.086 280.7 155.496L270.421 145.477C268.897 143.991 269.738 141.402 271.845 141.096L286.049 139.032C286.886 138.91 287.609 138.385 287.983 137.627L294.336 124.756C295.278 122.847 298 122.847 298.942 124.756L305.295 137.627C305.669 138.385 306.392 138.911 307.229 139.032L321.433 141.096C323.54 141.402 324.381 143.991 322.857 145.477L312.578 155.496C311.973 156.086 311.697 156.936 311.839 157.77L314.266 171.917C314.626 174.015 312.423 175.615 310.539 174.625L297.834 167.945C297.086 167.552 296.193 167.552 295.444 167.945Z" fill="url(#paint26_linear)"/>
<path d="M374.628 167.945L361.923 174.625C360.039 175.615 357.837 174.015 358.196 171.917L360.622 157.77C360.765 156.936 360.489 156.086 359.884 155.496L349.605 145.477C348.08 143.991 348.922 141.402 351.029 141.096L365.233 139.032C366.07 138.91 366.793 138.385 367.167 137.627L373.519 124.756C374.461 122.847 377.184 122.847 378.126 124.756L384.478 137.627C384.852 138.385 385.576 138.911 386.413 139.032L400.617 141.096C402.724 141.402 403.565 143.991 402.04 145.477L391.762 155.496C391.157 156.086 390.88 156.936 391.023 157.77L393.449 171.917C393.81 174.015 391.607 175.615 389.722 174.625L377.018 167.945C376.27 167.552 375.376 167.552 374.628 167.945Z" fill="url(#paint27_linear)"/>
<path d="M217.243 167.946L204.539 174.625C202.654 175.616 200.452 174.016 200.812 171.917L203.238 157.77C203.381 156.937 203.104 156.087 202.499 155.496L192.221 145.478C190.696 143.992 191.537 141.403 193.644 141.097L207.848 139.033C208.685 138.911 209.408 138.386 209.783 137.628L216.135 124.757C217.077 122.848 219.8 122.848 220.742 124.757L227.094 137.628C227.468 138.386 228.192 138.912 229.029 139.033L243.233 141.097C245.34 141.403 246.181 143.992 244.656 145.478L234.378 155.497C233.772 156.087 233.496 156.937 233.639 157.771L236.065 171.918C236.426 174.016 234.223 175.616 232.338 174.626L219.634 167.946C218.885 167.552 217.991 167.552 217.243 167.946Z" fill="url(#paint28_linear)"/>
<path d="M296.426 167.945L283.721 174.625C281.837 175.615 279.635 174.015 279.994 171.917L282.421 157.77C282.563 156.936 282.287 156.086 281.682 155.496L271.403 145.477C269.879 143.991 270.72 141.402 272.827 141.096L287.031 139.032C287.868 138.91 288.591 138.385 288.965 137.627L295.318 124.756C296.26 122.847 298.982 122.847 299.924 124.756L306.277 137.627C306.651 138.385 307.374 138.911 308.211 139.032L322.415 141.096C324.522 141.402 325.363 143.991 323.839 145.477L313.56 155.496C312.955 156.086 312.679 156.936 312.821 157.77L315.248 171.917C315.608 174.015 313.405 175.615 311.521 174.625L298.816 167.945C298.068 167.552 297.175 167.552 296.426 167.945Z" fill="url(#paint29_linear)"/>
<path d="M375.61 167.945L362.905 174.625C361.021 175.615 358.818 174.015 359.178 171.917L361.604 157.77C361.747 156.936 361.471 156.086 360.866 155.496L350.587 145.477C349.062 143.991 349.904 141.402 352.011 141.096L366.215 139.032C367.052 138.91 367.775 138.385 368.149 137.627L374.501 124.756C375.443 122.847 378.166 122.847 379.108 124.756L385.46 137.627C385.834 138.385 386.558 138.911 387.395 139.032L401.599 141.096C403.706 141.402 404.547 143.991 403.022 145.477L392.744 155.496C392.139 156.086 391.862 156.936 392.005 157.77L394.431 171.917C394.792 174.015 392.589 175.615 390.704 174.625L378 167.945C377.252 167.552 376.358 167.552 375.61 167.945Z" fill="url(#paint30_linear)"/>
<path d="M218.225 167.946L205.521 174.625C203.636 175.616 201.434 174.016 201.794 171.917L204.22 157.77C204.363 156.937 204.086 156.087 203.481 155.496L193.203 145.478C191.678 143.992 192.519 141.403 194.626 141.097L208.83 139.033C209.667 138.911 210.39 138.386 210.765 137.628L217.117 124.757C218.059 122.848 220.782 122.848 221.724 124.757L228.076 137.628C228.45 138.386 229.174 138.912 230.011 139.033L244.215 141.097C246.322 141.403 247.163 143.992 245.638 145.478L235.36 155.497C234.754 156.087 234.478 156.937 234.621 157.771L237.047 171.918C237.408 174.016 235.205 175.616 233.32 174.626L220.616 167.946C219.867 167.552 218.973 167.552 218.225 167.946Z" fill="url(#paint31_linear)"/>
<path d="M297.408 167.945L284.703 174.625C282.819 175.615 280.617 174.015 280.976 171.917L283.403 157.77C283.545 156.936 283.269 156.086 282.664 155.496L272.385 145.477C270.861 143.991 271.702 141.402 273.809 141.096L288.013 139.032C288.85 138.91 289.573 138.385 289.947 137.627L296.299 124.756C297.242 122.847 299.964 122.847 300.906 124.756L307.259 137.627C307.633 138.385 308.356 138.911 309.193 139.032L323.397 141.096C325.504 141.402 326.345 143.991 324.821 145.477L314.542 155.496C313.937 156.086 313.661 156.936 313.803 157.77L316.23 171.917C316.59 174.015 314.387 175.615 312.503 174.625L299.798 167.945C299.05 167.552 298.157 167.552 297.408 167.945Z" fill="url(#paint32_linear)"/>
<path d="M376.592 167.945L363.887 174.625C362.003 175.615 359.8 174.015 360.16 171.917L362.586 157.77C362.729 156.936 362.453 156.086 361.848 155.496L351.569 145.477C350.044 143.991 350.886 141.402 352.993 141.096L367.197 139.032C368.034 138.91 368.757 138.385 369.131 137.627L375.483 124.756C376.425 122.847 379.148 122.847 380.09 124.756L386.442 137.627C386.816 138.385 387.54 138.911 388.376 139.032L402.581 141.096C404.688 141.402 405.529 143.991 404.004 145.477L393.726 155.496C393.121 156.086 392.844 156.936 392.987 157.77L395.413 171.917C395.773 174.015 393.571 175.615 391.686 174.625L378.982 167.945C378.234 167.552 377.34 167.552 376.592 167.945Z" fill="url(#paint33_linear)"/>
</g>
<path d="M214.298 167.946L201.594 174.625C199.709 175.616 197.507 174.016 197.867 171.917L200.293 157.77C200.436 156.937 200.159 156.087 199.554 155.496L189.276 145.478C187.751 143.992 188.592 141.403 190.699 141.097L204.903 139.033C205.74 138.911 206.463 138.386 206.838 137.628L213.19 124.757C214.132 122.848 216.855 122.848 217.797 124.757L224.149 137.628C224.523 138.386 225.247 138.912 226.083 139.033L240.288 141.097C242.394 141.403 243.236 143.992 241.711 145.478L231.433 155.497C230.827 156.087 230.551 156.937 230.694 157.771L233.12 171.918C233.48 174.016 231.278 175.616 229.393 174.626L216.689 167.946C215.94 167.552 215.046 167.552 214.298 167.946Z" fill="url(#paint34_linear)"/>
<path d="M293.481 167.945L280.776 174.625C278.892 175.615 276.69 174.015 277.049 171.917L279.476 157.77C279.618 156.936 279.342 156.086 278.737 155.496L268.458 145.477C266.934 143.991 267.775 141.402 269.882 141.096L284.086 139.032C284.923 138.91 285.646 138.385 286.02 137.627L292.372 124.756C293.315 122.847 296.037 122.847 296.979 124.756L303.332 137.627C303.706 138.385 304.429 138.911 305.266 139.032L319.47 141.096C321.577 141.402 322.418 143.991 320.893 145.477L310.615 155.496C310.01 156.086 309.734 156.936 309.876 157.77L312.303 171.917C312.663 174.015 310.46 175.615 308.576 174.625L295.871 167.945C295.123 167.552 294.23 167.552 293.481 167.945Z" fill="url(#paint35_linear)"/>
<path d="M372.665 167.945L359.96 174.625C358.076 175.615 355.873 174.015 356.233 171.917L358.659 157.77C358.802 156.936 358.526 156.086 357.921 155.496L347.642 145.477C346.117 143.991 346.959 141.402 349.066 141.096L363.27 139.032C364.107 138.91 364.83 138.385 365.204 137.627L371.556 124.756C372.498 122.847 375.221 122.847 376.163 124.756L382.515 137.627C382.889 138.385 383.613 138.911 384.449 139.032L398.654 141.096C400.76 141.402 401.602 143.991 400.077 145.477L389.799 155.496C389.194 156.086 388.917 156.936 389.06 157.77L391.486 171.917C391.846 174.015 389.644 175.615 387.759 174.625L375.055 167.945C374.307 167.552 373.413 167.552 372.665 167.945Z" fill="url(#paint36_linear)"/>
<path d="M323.419 85.9992H267.9C265.772 85.9992 264.047 84.2741 264.047 82.1463C264.047 80.0185 265.772 78.2935 267.9 78.2935H323.419C325.548 78.2935 327.272 80.0185 327.272 82.1463C327.272 84.2741 325.548 85.9992 323.419 85.9992Z" fill="white" fill-opacity="0.29"/>
<defs>
<filter id="filter0_d" x="91.9507" y="0.348633" width="439.439" height="407.916" filterUnits="userSpaceOnUse" color-interpolation-filters="sRGB">
<feFlood flood-opacity="0" result="BackgroundImageFix"/>
<feColorMatrix in="SourceAlpha" type="matrix" values="0 0 0 0 0 0 0 0 0 0 0 0 0 0 0 0 0 0 127 0"/>
<feOffset dy="20"/>
<feGaussianBlur stdDeviation="30"/>
<feColorMatrix type="matrix" values="0 0 0 0 0.945098 0 0 0 0 0.733333 0 0 0 0 0.0588235 0 0 0 0.25 0"/>
<feBlend mode="normal" in2="BackgroundImageFix" result="effect1_dropShadow"/>
<feBlend mode="normal" in="SourceGraphic" in2="effect1_dropShadow" result="shape"/>
</filter>
<filter id="filter1_d" x="268.88" y="266.161" width="60.4649" height="32.1213" filterUnits="userSpaceOnUse" color-interpolation-filters="sRGB">
<feFlood flood-opacity="0" result="BackgroundImageFix"/>
<feColorMatrix in="SourceAlpha" type="matrix" values="0 0 0 0 0 0 0 0 0 0 0 0 0 0 0 0 0 0 127 0"/>
<feOffset dx="2" dy="2"/>
<feColorMatrix type="matrix" values="0 0 0 0 0 0 0 0 0 0 0 0 0 0 0 0 0 0 0.15 0"/>
<feBlend mode="normal" in2="BackgroundImageFix" result="effect1_dropShadow"/>
<feBlend mode="normal" in="SourceGraphic" in2="effect1_dropShadow" result="shape"/>
</filter>
<filter id="filter2_d" x="189.478" y="123.324" width="217.305" height="53.6024" filterUnits="userSpaceOnUse" color-interpolation-filters="sRGB">
<feFlood flood-opacity="0" result="BackgroundImageFix"/>
<feColorMatrix in="SourceAlpha" type="matrix" values="0 0 0 0 0 0 0 0 0 0 0 0 0 0 0 0 0 0 127 0"/>
<feOffset dx="2" dy="2"/>
<feColorMatrix type="matrix" values="0 0 0 0 0 0 0 0 0 0 0 0 0 0 0 0 0 0 0.15 0"/>
<feBlend mode="normal" in2="BackgroundImageFix" result="effect1_dropShadow"/>
<feBlend mode="normal" in="SourceGraphic" in2="effect1_dropShadow" result="shape"/>
</filter>
<linearGradient id="paint0_linear" x1="230.758" y1="44.2472" x2="530.622" y2="68.1946" gradientUnits="userSpaceOnUse">
<stop stop-color="#FFDC67"/>
<stop offset="1" stop-color="#F0B90B"/>
</linearGradient>
<linearGradient id="paint1_linear" x1="261.579" y1="58.0296" x2="258.802" y2="312.286" gradientUnits="userSpaceOnUse">
<stop stop-color="#5E5D60"/>
<stop offset="0.185142" stop-color="#1A1919"/>
<stop offset="0.325571" stop-color="#6C6C6C"/>
<stop offset="0.54959" stop-color="#282828"/>
<stop offset="0.65625" stop-color="#3C3B3D"/>
<stop offset="0.713542" stop-color="#4F5052"/>
<stop offset="0.863885" stop-color="#5A5A5A"/>
<stop offset="1" stop-color="#16171A"/>
</linearGradient>
<linearGradient id="paint2_linear" x1="261.579" y1="58.0296" x2="258.802" y2="312.286" gradientUnits="userSpaceOnUse">
<stop stop-color="#5E5D60"/>
<stop offset="0.185142" stop-color="#1A1919"/>
<stop offset="0.325571" stop-color="#6C6C6C"/>
<stop offset="0.54959" stop-color="#282828"/>
<stop offset="0.65625" stop-color="#3C3B3D"/>
<stop offset="0.713542" stop-color="#4F5052"/>
<stop offset="0.863885" stop-color="#5A5A5A"/>
<stop offset="1" stop-color="#16171A"/>
</linearGradient>
<linearGradient id="paint3_linear" x1="261.579" y1="58.0296" x2="258.802" y2="312.286" gradientUnits="userSpaceOnUse">
<stop stop-color="#5E5D60"/>
<stop offset="0.185142" stop-color="#1A1919"/>
<stop offset="0.325571" stop-color="#6C6C6C"/>
<stop offset="0.54959" stop-color="#282828"/>
<stop offset="0.65625" stop-color="#3C3B3D"/>
<stop offset="0.713542" stop-color="#4F5052"/>
<stop offset="0.863885" stop-color="#5A5A5A"/>
<stop offset="1" stop-color="#16171A"/>
</linearGradient>
<linearGradient id="paint4_linear" x1="261.579" y1="58.0296" x2="258.802" y2="312.286" gradientUnits="userSpaceOnUse">
<stop stop-color="#5E5D60"/>
<stop offset="0.185142" stop-color="#1A1919"/>
<stop offset="0.325571" stop-color="#6C6C6C"/>
<stop offset="0.54959" stop-color="#282828"/>
<stop offset="0.65625" stop-color="#3C3B3D"/>
<stop offset="0.713542" stop-color="#4F5052"/>
<stop offset="0.863885" stop-color="#5A5A5A"/>
<stop offset="1" stop-color="#16171A"/>
</linearGradient>
<linearGradient id="paint5_linear" x1="295.657" y1="249.47" x2="295.657" y2="312.317" gradientUnits="userSpaceOnUse">
<stop stop-color="#2B292A"/>
<stop offset="0.624381" stop-color="#424041"/>
<stop offset="1" stop-color="#868585"/>
</linearGradient>
<linearGradient id="paint6_linear" x1="295.657" y1="249.47" x2="295.657" y2="312.317" gradientUnits="userSpaceOnUse">
<stop stop-color="#2B292A"/>
<stop offset="0.624381" stop-color="#424041"/>
<stop offset="1" stop-color="#868585"/>
</linearGradient>
<linearGradient id="paint7_linear" x1="295.657" y1="57.031" x2="295.657" y2="250.749" gradientUnits="userSpaceOnUse">
<stop stop-color="#2B292A"/>
<stop offset="0.624381" stop-color="#424041"/>
<stop offset="1" stop-color="#868585"/>
</linearGradient>
<linearGradient id="paint8_linear" x1="295.657" y1="57.031" x2="295.657" y2="250.749" gradientUnits="userSpaceOnUse">
<stop stop-color="#2B292A"/>
<stop offset="0.624381" stop-color="#424041"/>
<stop offset="1" stop-color="#868585"/>
</linearGradient>
<linearGradient id="paint9_linear" x1="367.201" y1="64.1038" x2="176.749" y2="258.078" gradientUnits="userSpaceOnUse">
<stop offset="0.670529" stop-color="#5C5757"/>
<stop offset="0.925805" stop-color="#514F50"/>
<stop offset="1" stop-color="#363435"/>
</linearGradient>
<linearGradient id="paint10_linear" x1="272.859" y1="63.7838" x2="339.515" y2="171.327" gradientUnits="userSpaceOnUse">
<stop stop-color="white" stop-opacity="0.4"/>
<stop offset="1" stop-color="white" stop-opacity="0"/>
</linearGradient>
<linearGradient id="paint11_linear" x1="309.723" y1="267.034" x2="308.167" y2="294.307" gradientUnits="userSpaceOnUse">
<stop stop-color="#767676"/>
<stop offset="0.135417" stop-color="#606060"/>
<stop offset="0.630208" stop-color="#F8F8F8"/>
<stop offset="1" stop-color="#F8F8F8"/>
</linearGradient>
<linearGradient id="paint12_linear" x1="309.723" y1="267.034" x2="308.167" y2="294.307" gradientUnits="userSpaceOnUse">
<stop stop-color="#767676"/>
<stop offset="0.135417" stop-color="#606060"/>
<stop offset="0.630208" stop-color="#F8F8F8"/>
<stop offset="1" stop-color="#F8F8F8"/>
</linearGradient>
<linearGradient id="paint13_linear" x1="309.723" y1="267.034" x2="308.167" y2="294.307" gradientUnits="userSpaceOnUse">
<stop stop-color="#767676"/>
<stop offset="0.135417" stop-color="#606060"/>
<stop offset="0.630208" stop-color="#F8F8F8"/>
<stop offset="1" stop-color="#F8F8F8"/>
</linearGradient>
<linearGradient id="paint14_linear" x1="309.723" y1="267.034" x2="308.167" y2="294.307" gradientUnits="userSpaceOnUse">
<stop stop-color="#767676"/>
<stop offset="0.135417" stop-color="#606060"/>
<stop offset="0.630208" stop-color="#F8F8F8"/>
<stop offset="1" stop-color="#F8F8F8"/>
</linearGradient>
<linearGradient id="paint15_linear" x1="275.66" y1="271.903" x2="281.72" y2="298.751" gradientUnits="userSpaceOnUse">
<stop stop-color="#F8F8F8"/>
<stop offset="1" stop-color="#BEBEBE"/>
</linearGradient>
<linearGradient id="paint16_linear" x1="228.659" y1="102.097" x2="228.399" y2="230.383" gradientUnits="userSpaceOnUse">
<stop stop-color="#56D599"/>
<stop offset="0.15625" stop-color="#1EAD64"/>
<stop offset="0.371058" stop-color="#1EAE65"/>
<stop offset="0.75" stop-color="#57D69A"/>
<stop offset="0.91676" stop-color="#1EA65F"/>
<stop offset="1" stop-color="#178E4E"/>
</linearGradient>
<linearGradient id="paint17_linear" x1="228.659" y1="102.097" x2="228.399" y2="230.383" gradientUnits="userSpaceOnUse">
<stop stop-color="#56D599"/>
<stop offset="0.15625" stop-color="#1EAD64"/>
<stop offset="0.371058" stop-color="#1EAE65"/>
<stop offset="0.75" stop-color="#57D69A"/>
<stop offset="0.91676" stop-color="#1EA65F"/>
<stop offset="1" stop-color="#178E4E"/>
</linearGradient>
<linearGradient id="paint18_linear" x1="293.09" y1="102.512" x2="293.09" y2="276.337" gradientUnits="userSpaceOnUse">
<stop stop-color="#1FA05B"/>
<stop offset="0.569228" stop-color="#1DB369"/>
<stop offset="1" stop-color="#62DDA3"/>
</linearGradient>
<linearGradient id="paint19_linear" x1="408.68" y1="160.454" x2="168" y2="160.454" gradientUnits="userSpaceOnUse">
<stop offset="0.479067" stop-color="white" stop-opacity="0"/>
<stop offset="0.479167" stop-color="white"/>
<stop offset="1" stop-color="white" stop-opacity="0"/>
</linearGradient>
<linearGradient id="paint20_linear" x1="270.897" y1="102.512" x2="283.557" y2="266.84" gradientUnits="userSpaceOnUse">
<stop offset="0.217623" stop-color="#20B56C"/>
<stop offset="0.656122" stop-color="#B2F5D4"/>
<stop offset="1" stop-color="#1FA25D"/>
</linearGradient>
<linearGradient id="paint21_linear" x1="387.19" y1="106.508" x2="367.284" y2="199.165" gradientUnits="userSpaceOnUse">
<stop stop-color="white" stop-opacity="0.67"/>
<stop offset="1" stop-color="white" stop-opacity="0"/>
</linearGradient>
<linearGradient id="paint22_linear" x1="339.888" y1="124.82" x2="338.644" y2="171.66" gradientUnits="userSpaceOnUse">
<stop stop-color="#767676"/>
<stop offset="0.135417" stop-color="#606060"/>
<stop offset="0.630208" stop-color="#F8F8F8"/>
<stop offset="1" stop-color="#F8F8F8"/>
</linearGradient>
<linearGradient id="paint23_linear" x1="339.888" y1="124.82" x2="338.644" y2="171.66" gradientUnits="userSpaceOnUse">
<stop stop-color="#767676"/>
<stop offset="0.135417" stop-color="#606060"/>
<stop offset="0.630208" stop-color="#F8F8F8"/>
<stop offset="1" stop-color="#F8F8F8"/>
</linearGradient>
<linearGradient id="paint24_linear" x1="339.888" y1="124.82" x2="338.644" y2="171.66" gradientUnits="userSpaceOnUse">
<stop stop-color="#767676"/>
<stop offset="0.135417" stop-color="#606060"/>
<stop offset="0.630208" stop-color="#F8F8F8"/>
<stop offset="1" stop-color="#F8F8F8"/>
</linearGradient>
<linearGradient id="paint25_linear" x1="339.888" y1="124.82" x2="338.644" y2="171.66" gradientUnits="userSpaceOnUse">
<stop stop-color="#767676"/>
<stop offset="0.135417" stop-color="#606060"/>
<stop offset="0.630208" stop-color="#F8F8F8"/>
<stop offset="1" stop-color="#F8F8F8"/>
</linearGradient>
<linearGradient id="paint26_linear" x1="339.888" y1="124.82" x2="338.644" y2="171.66" gradientUnits="userSpaceOnUse">
<stop stop-color="#767676"/>
<stop offset="0.135417" stop-color="#606060"/>
<stop offset="0.630208" stop-color="#F8F8F8"/>
<stop offset="1" stop-color="#F8F8F8"/>
</linearGradient>
<linearGradient id="paint27_linear" x1="339.888" y1="124.82" x2="338.644" y2="171.66" gradientUnits="userSpaceOnUse">
<stop stop-color="#767676"/>
<stop offset="0.135417" stop-color="#606060"/>
<stop offset="0.630208" stop-color="#F8F8F8"/>
<stop offset="1" stop-color="#F8F8F8"/>
</linearGradient>
<linearGradient id="paint28_linear" x1="339.888" y1="124.82" x2="338.644" y2="171.66" gradientUnits="userSpaceOnUse">
<stop stop-color="#767676"/>
<stop offset="0.135417" stop-color="#606060"/>
<stop offset="0.630208" stop-color="#F8F8F8"/>
<stop offset="1" stop-color="#F8F8F8"/>
</linearGradient>
<linearGradient id="paint29_linear" x1="339.888" y1="124.82" x2="338.644" y2="171.66" gradientUnits="userSpaceOnUse">
<stop stop-color="#767676"/>
<stop offset="0.135417" stop-color="#606060"/>
<stop offset="0.630208" stop-color="#F8F8F8"/>
<stop offset="1" stop-color="#F8F8F8"/>
</linearGradient>
<linearGradient id="paint30_linear" x1="339.888" y1="124.82" x2="338.644" y2="171.66" gradientUnits="userSpaceOnUse">
<stop stop-color="#767676"/>
<stop offset="0.135417" stop-color="#606060"/>
<stop offset="0.630208" stop-color="#F8F8F8"/>
<stop offset="1" stop-color="#F8F8F8"/>
</linearGradient>
<linearGradient id="paint31_linear" x1="339.888" y1="124.82" x2="338.644" y2="171.66" gradientUnits="userSpaceOnUse">
<stop stop-color="#767676"/>
<stop offset="0.135417" stop-color="#606060"/>
<stop offset="0.630208" stop-color="#F8F8F8"/>
<stop offset="1" stop-color="#F8F8F8"/>
</linearGradient>
<linearGradient id="paint32_linear" x1="339.888" y1="124.82" x2="338.644" y2="171.66" gradientUnits="userSpaceOnUse">
<stop stop-color="#767676"/>
<stop offset="0.135417" stop-color="#606060"/>
<stop offset="0.630208" stop-color="#F8F8F8"/>
<stop offset="1" stop-color="#F8F8F8"/>
</linearGradient>
<linearGradient id="paint33_linear" x1="339.888" y1="124.82" x2="338.644" y2="171.66" gradientUnits="userSpaceOnUse">
<stop stop-color="#767676"/>
<stop offset="0.135417" stop-color="#606060"/>
<stop offset="0.630208" stop-color="#F8F8F8"/>
<stop offset="1" stop-color="#F8F8F8"/>
</linearGradient>
<linearGradient id="paint34_linear" x1="218.186" y1="133.16" x2="223.023" y2="181.009" gradientUnits="userSpaceOnUse">
<stop stop-color="#F8F8F8"/>
<stop offset="1" stop-color="#BEBEBE"/>
</linearGradient>
<linearGradient id="paint35_linear" x1="218.186" y1="133.16" x2="223.023" y2="181.009" gradientUnits="userSpaceOnUse">
<stop stop-color="#F8F8F8"/>
<stop offset="1" stop-color="#BEBEBE"/>
</linearGradient>
<linearGradient id="paint36_linear" x1="218.186" y1="133.16" x2="223.023" y2="181.009" gradientUnits="userSpaceOnUse">
<stop stop-color="#F8F8F8"/>
<stop offset="1" stop-color="#BEBEBE"/>
</linearGradient>
</defs>
</svg>
