<svg width="574" height="409" viewBox="0 0 574 409" fill="none" xmlns="http://www.w3.org/2000/svg">
<mask id="mask0" mask-type="alpha" maskUnits="userSpaceOnUse" x="0" y="5" width="393" height="359">
<path fill-rule="evenodd" clip-rule="evenodd" d="M346.193 166.772L275.232 40.4568L226.497 40.4568C234.785 55.6895 245.65 75.7161 256.462 95.6658C267.333 115.725 278.155 135.714 286.259 150.688C289.728 157.097 292.698 162.587 294.962 166.772L346.193 166.772ZM265.146 184.273C262.87 180.067 259.863 174.51 256.343 168.006C248.241 153.036 237.422 133.053 226.556 113.002C215.688 92.9489 204.776 72.8353 196.486 57.5998C192.751 50.7354 189.554 44.873 187.136 40.4568L117.662 40.4568L92.0792 85.5165L152.964 85.5165C159.21 85.5165 164.98 88.9715 168.089 94.5762L241.783 227.419L265.146 184.273ZM271.118 245.811L294.717 202.228L346.193 202.228L321.709 245.811L271.118 245.811ZM301.79 281.268L242.247 281.268C235.989 281.268 230.21 277.806 227.096 272.192C227.096 272.192 227.096 272.192 227.096 272.192L153.23 139.039L127.525 186.512L205.469 328.543L275.232 328.543L301.79 281.268ZM166.049 328.543L96.7292 202.228L45.9461 202.228L117.662 328.543L166.049 328.543ZM45.9461 166.772L98.9202 166.772L123.718 120.973L71.9484 120.973L45.9461 166.772ZM182.493 32.0616C182.491 32.0579 182.513 32.0945 182.564 32.182C182.52 32.1089 182.494 32.0653 182.493 32.0616ZM388.714 171.883C393.097 179.684 393.097 189.316 388.714 197.117L301.984 351.502C297.637 359.239 289.639 364 280.987 364L111.938 364C103.326 364 95.3579 359.283 90.9971 351.602L3.34423 197.217C-1.11341 189.366 -1.11341 179.634 3.34423 171.783L90.9971 17.3981C95.3578 9.71748 103.326 4.99999 111.938 4.99999L280.987 5C289.639 5 297.637 9.76096 301.984 17.4981L388.714 171.883Z" fill="#F7F7F7"/>
</mask>
<g mask="url(#mask0)">
<path d="M101.909 365L8.07222 200.652C2.45159 190.808 2.45841 178.725 8.09016 168.887L101.909 5M105.214 365L11.3766 200.652C5.75599 190.808 5.76281 178.725 11.3946 168.887L105.214 5M108.518 365L14.681 200.652C9.06039 190.808 9.06721 178.725 14.699 168.887L108.518 5M111.823 365L17.9854 200.652C12.3648 190.808 12.3716 178.725 18.0034 168.887L111.823 5M115.127 365L21.2898 200.652C15.6692 190.808 15.676 178.725 21.3078 168.887L115.127 5M118.431 365L24.5942 200.652C18.9736 190.808 18.9804 178.725 24.6122 168.887L118.431 5M121.736 365L27.8986 200.652C22.278 190.808 22.2848 178.725 27.9166 168.887L121.736 5M125.04 365L31.203 200.652C25.5824 190.808 25.5892 178.725 31.221 168.887L125.04 5M128.345 365L34.5074 200.652C28.8868 190.808 28.8936 178.725 34.5254 168.887L128.345 5M131.649 365L37.8118 200.652C32.1912 190.808 32.198 178.725 37.8298 168.887L131.649 5M134.953 365L41.1162 200.652C35.4956 190.808 35.5024 178.725 41.1342 168.887L134.953 5M138.258 365L44.4206 200.652C38.8 190.808 38.8068 178.725 44.4386 168.887L138.258 5M141.562 365L47.725 200.652C42.1044 190.808 42.1112 178.725 47.743 168.887L141.562 5M144.867 365L51.0294 200.652C45.4088 190.808 45.4156 178.725 51.0474 168.887L144.867 5M148.171 365L54.3338 200.652C48.7132 190.808 48.72 178.725 54.3517 168.887L148.171 5M151.475 365L57.6382 200.652C52.0176 190.808 52.0244 178.725 57.6561 168.887L151.475 5M154.78 365L60.9426 200.652C55.322 190.808 55.3288 178.725 60.9605 168.887L154.78 5M158.084 365L64.247 200.652C58.6264 190.808 58.6332 178.725 64.2649 168.887L158.084 5M161.389 365L67.5514 200.652C61.9308 190.808 61.9376 178.725 67.5693 168.887L161.389 5M164.693 365L70.8558 200.652C65.2352 190.808 65.242 178.725 70.8737 168.887L164.693 5M167.997 365L74.1602 200.652C68.5396 190.808 68.5464 178.725 74.1781 168.887L167.997 5M171.302 365L77.4646 200.652C71.844 190.808 71.8508 178.725 77.4825 168.887L171.302 5M174.606 365L80.769 200.652C75.1484 190.808 75.1552 178.725 80.7869 168.887L174.606 5M177.911 365L84.0734 200.652C78.4528 190.808 78.4596 178.725 84.0913 168.887L177.911 5M181.215 365L87.3778 200.652C81.7572 190.808 81.764 178.725 87.3957 168.887L181.215 5M184.519 365L90.6822 200.652C85.0616 190.808 85.0684 178.725 90.7001 168.887L184.519 5M187.824 365L93.9866 200.652C88.366 190.808 88.3728 178.725 94.0045 168.887L187.824 5M191.128 365L97.291 200.652C91.6704 190.808 91.6772 178.725 97.3089 168.887L191.128 5M194.433 365L100.595 200.652C94.9748 190.808 94.9816 178.725 100.613 168.887L194.433 5M197.737 365L103.9 200.652C98.2792 190.808 98.286 178.725 103.918 168.887L197.737 5M201.041 365L107.204 200.652C101.584 190.808 101.59 178.725 107.222 168.887L201.041 5M204.346 365L110.509 200.652C104.888 190.808 104.895 178.725 110.527 168.887L204.346 5M207.65 365L113.813 200.652C108.192 190.808 108.199 178.725 113.831 168.887L207.65 5M210.955 365L117.117 200.652C111.497 190.808 111.504 178.725 117.135 168.887L210.955 5M214.259 365L120.422 200.652C114.801 190.808 114.808 178.725 120.44 168.887L214.259 5M217.563 365L123.726 200.652C118.106 190.808 118.112 178.725 123.744 168.887L217.563 5M220.868 365L127.031 200.652C121.41 190.808 121.417 178.725 127.049 168.887L220.868 5M224.172 365L130.335 200.652C124.714 190.808 124.721 178.725 130.353 168.887L224.172 5M227.477 365L133.639 200.652C128.019 190.808 128.026 178.725 133.657 168.887L227.477 5M230.781 365L136.944 200.652C131.323 190.808 131.33 178.725 136.962 168.887L230.781 5M234.085 365L140.248 200.652C134.628 190.808 134.634 178.725 140.266 168.887L234.085 5M237.39 365L143.553 200.652C137.932 190.808 137.939 178.725 143.571 168.887L237.39 5M240.694 365L146.857 200.652C141.236 190.808 141.243 178.725 146.875 168.887L240.694 5M243.999 365L150.161 200.652C144.541 190.808 144.548 178.725 150.179 168.887L243.999 5M247.303 365L153.466 200.652C147.845 190.808 147.852 178.725 153.484 168.887L247.303 5M250.607 365L156.77 200.652C151.15 190.808 151.156 178.725 156.788 168.887L250.607 5M253.912 365L160.075 200.652C154.454 190.808 154.461 178.725 160.093 168.887L253.912 5M257.216 365L163.379 200.652C157.758 190.808 157.765 178.725 163.397 168.887L257.216 5M260.521 365L166.683 200.652C161.063 190.808 161.07 178.725 166.701 168.887L260.521 5M263.825 365L169.988 200.652C164.367 190.808 164.374 178.725 170.006 168.887L263.825 5M267.129 365L173.292 200.652C167.672 190.808 167.678 178.725 173.31 168.887L267.129 5M270.434 365L176.597 200.652C170.976 190.808 170.983 178.725 176.615 168.887L270.434 5M273.738 365L179.901 200.652C174.28 190.808 174.287 178.725 179.919 168.887L273.738 5M277.043 365L183.205 200.652C177.585 190.808 177.592 178.725 183.223 168.887L277.043 5M280.347 365L186.51 200.652C180.889 190.808 180.896 178.725 186.528 168.887L280.347 5M283.651 365L189.814 200.652C184.194 190.808 184.2 178.725 189.832 168.887L283.651 5M286.956 365L193.119 200.652C187.498 190.808 187.505 178.725 193.137 168.887L286.956 5M290.26 365L196.423 200.652C190.802 190.808 190.809 178.725 196.441 168.887L290.26 5M293.565 365L199.727 200.652C194.107 190.808 194.114 178.725 199.745 168.887L293.565 5M296.869 365L203.032 200.652C197.411 190.808 197.418 178.725 203.05 168.887L296.869 5M300.173 365L206.336 200.652C200.716 190.808 200.722 178.725 206.354 168.887L300.173 5M303.478 365L209.641 200.652C204.02 190.808 204.027 178.725 209.659 168.887L303.478 5M306.782 365L212.945 200.652C207.324 190.808 207.331 178.725 212.963 168.887L306.782 5M310.087 365L216.249 200.652C210.629 190.808 210.636 178.725 216.267 168.887L310.087 5M313.391 365L219.554 200.652C213.933 190.808 213.94 178.725 219.572 168.887L313.391 5M316.695 365L222.858 200.652C217.238 190.808 217.244 178.725 222.876 168.887L316.695 5M320 365L226.163 200.652C220.542 190.808 220.549 178.725 226.181 168.887L320 5M323.304 365L229.467 200.652C223.846 190.808 223.853 178.725 229.485 168.887L323.304 5M326.609 365L232.771 200.652C227.151 190.808 227.158 178.725 232.789 168.887L326.609 5M329.913 365L236.076 200.652C230.455 190.808 230.462 178.725 236.094 168.887L329.913 5M333.217 365L239.38 200.652C233.76 190.808 233.766 178.725 239.398 168.887L333.217 5M336.522 365L242.685 200.652C237.064 190.808 237.071 178.725 242.703 168.887L336.522 5M339.826 365L245.989 200.652C240.368 190.808 240.375 178.725 246.007 168.887L339.826 5M343.131 365L249.293 200.652C243.673 190.808 243.68 178.725 249.311 168.887L343.131 5M346.435 365L252.598 200.652C246.977 190.808 246.984 178.725 252.616 168.887L346.435 5M349.739 365L255.902 200.652C250.282 190.808 250.288 178.725 255.92 168.887L349.739 5M353.044 365L259.207 200.652C253.586 190.808 253.593 178.725 259.225 168.887L353.044 5M356.348 365L262.511 200.652C256.89 190.808 256.897 178.725 262.529 168.887L356.348 5M359.653 365L265.815 200.652C260.195 190.808 260.202 178.725 265.833 168.887L359.653 5M362.957 365L269.12 200.652C263.499 190.808 263.506 178.725 269.138 168.887L362.957 5M366.261 365L272.424 200.652C266.804 190.808 266.81 178.725 272.442 168.887L366.261 5M369.566 365L275.729 200.652C270.108 190.808 270.115 178.725 275.747 168.887L369.566 5M372.87 365L279.033 200.652C273.412 190.808 273.419 178.725 279.051 168.887L372.87 5M376.175 365L282.337 200.652C276.717 190.808 276.724 178.725 282.355 168.887L376.175 5M379.479 365L285.642 200.652C280.021 190.808 280.028 178.725 285.66 168.887L379.479 5M382.783 365L288.946 200.652C283.326 190.808 283.332 178.725 288.964 168.887L382.783 5M386.088 365L292.251 200.652C286.63 190.808 286.637 178.725 292.269 168.887L386.088 5M389.392 365L295.555 200.652C289.934 190.808 289.941 178.725 295.573 168.887L389.392 5M392.697 365L298.859 200.652C293.239 190.808 293.246 178.725 298.877 168.887L392.697 5M396.001 365L302.164 200.652C296.543 190.808 296.55 178.725 302.182 168.887L396.001 5" stroke="#5C677D" stroke-opacity="0.07" stroke-width="2"/>
</g>
<path d="M354.611 46.9264L354.611 46.9267L420.84 162.094C425.553 170.29 427.789 174.2 428.664 178.333C429.446 182.022 429.446 185.835 428.664 189.524C427.789 193.657 425.553 197.567 420.84 205.763L354.611 320.93C349.871 329.173 347.603 333.094 344.451 335.939C341.638 338.478 338.321 340.397 334.717 341.57C330.68 342.884 326.15 342.896 316.642 342.896L182.909 342.896C173.401 342.896 168.871 342.884 164.834 341.57C161.23 340.397 157.913 338.478 155.1 335.939C151.948 333.094 149.68 329.173 144.94 320.93L78.7111 205.763C73.9978 197.567 71.7624 193.657 70.8868 189.524C70.1053 185.835 70.1053 182.022 70.8868 178.333C71.7624 174.2 73.9978 170.29 78.7111 162.094L144.94 46.9267C149.68 38.6842 151.948 34.7632 155.1 31.9184C157.913 29.379 161.23 27.4604 164.834 26.2874C168.871 24.9733 173.401 24.9616 182.909 24.9616L316.642 24.9616C326.15 24.9616 330.68 24.9733 334.717 26.2874C338.321 27.4604 341.638 29.379 344.451 31.9184C347.592 34.7532 349.855 38.6567 354.561 46.8396C354.578 46.8686 354.594 46.8974 354.611 46.9264Z" stroke="#1CBA6E" stroke-width="2"/>
<g filter="url(#filter0_d)">
<path d="M217.788 305.861L160.55 206.704C155.84 198.544 153.485 194.464 152.563 190.127C151.747 186.29 151.747 182.324 152.563 178.486C153.485 174.149 155.84 170.069 160.55 161.91L217.788 62.7518C222.499 54.5903 224.855 50.5096 228.151 47.5417C231.067 44.9158 234.502 42.9321 238.234 41.7194C242.452 40.3488 247.164 40.3488 256.588 40.3488L366.754 40.3487C376.177 40.3487 380.889 40.3487 385.107 41.7194C388.839 42.9321 392.275 44.9158 395.191 47.5417C398.487 50.5096 400.842 54.5903 405.553 62.7518L462.792 161.91C467.502 170.069 469.857 174.149 470.779 178.486C471.594 182.323 471.594 186.29 470.779 190.127C469.857 194.464 467.502 198.544 462.792 206.704L405.553 305.861C400.842 314.023 398.487 318.104 395.191 321.071C392.275 323.697 388.839 325.681 385.107 326.894C380.889 328.264 376.177 328.264 366.754 328.264L256.588 328.264C247.164 328.264 242.452 328.264 238.234 326.894C234.502 325.681 231.067 323.697 228.151 321.071C224.855 318.104 222.499 314.023 217.788 305.861L217.788 305.861Z" fill="url(#paint0_linear)"/>
</g>
<path d="M317.821 339.348L243.658 210.548C238.298 201.24 235.618 196.585 234.569 191.639C233.641 187.262 233.641 182.738 234.569 178.361C235.618 173.415 238.298 168.76 243.658 159.452L317.821 30.6517C323.201 21.3073 325.891 16.6351 329.659 13.2368C332.993 10.2301 336.922 7.95847 341.192 6.56967C346.017 5 351.408 5 362.191 5L522.117 5C540.038 5 548.999 5 555.844 8.4878C561.865 11.5558 566.761 16.4511 569.829 22.4723C573.317 29.3175 573.317 38.2783 573.317 56.2L573.317 185L573.317 313.8C573.317 331.722 573.317 340.683 569.829 347.528C566.761 353.549 561.865 358.444 555.844 361.512C548.999 365 540.038 365 522.117 365L362.191 365C351.408 365 346.017 365 341.192 363.43C336.922 362.042 332.993 359.77 329.659 356.763C325.891 353.365 323.201 348.693 317.821 339.348Z" fill="white"/>
<path d="M424.518 95.6018V287.264H191.414V95.6018L307.966 85.2415L424.518 95.6018Z" fill="url(#paint1_linear)"/>
<path d="M406.586 95.6018V287.264H173.482V95.6018L290.034 85.2415L406.586 95.6018Z" fill="url(#paint2_linear)"/>
<path fill-rule="evenodd" clip-rule="evenodd" d="M404.793 92.7597L290.034 82.5587L175.276 92.7597V285.471H404.793V92.7597ZM290.034 80.7585L173.482 91.1189V287.264H406.586V91.1189L290.034 80.7585Z" fill="url(#paint3_linear)"/>
<path fill-rule="evenodd" clip-rule="evenodd" d="M404.793 92.7597L290.034 82.5587L175.276 92.7597V285.471H404.793V92.7597ZM290.034 80.7585L173.482 91.1189V287.264H406.586V91.1189L290.034 80.7585Z" fill="url(#paint4_linear)"/>
<path d="M423 70H201.896C198.583 70 195.896 72.6863 195.896 76V90C195.896 93.3137 198.583 96 201.896 96H423C426.314 96 429 93.3137 429 90V76C429 72.6863 426.314 70 423 70Z" fill="url(#paint5_linear)"/>
<path d="M405.069 70H175C171.686 70 169 72.6863 169 76V90C169 93.3137 171.686 96 175 96H405.069C408.383 96 411.069 93.3137 411.069 90V76C411.069 72.6863 408.383 70 405.069 70Z" fill="url(#paint6_linear)"/>
<path fill-rule="evenodd" clip-rule="evenodd" d="M405.69 71.7931H174.379C172.399 71.7931 170.793 73.3987 170.793 75.3793V90.6207C170.793 92.6013 172.399 94.2069 174.379 94.2069H405.69C407.67 94.2069 409.276 92.6013 409.276 90.6207V75.3793C409.276 73.3987 407.67 71.7931 405.69 71.7931ZM174.379 70H405.69C408.661 70 411.069 72.4084 411.069 75.3793V90.6207C411.069 93.5916 408.661 96 405.69 96H174.379C171.408 96 169 93.5916 169 90.6207V75.3793C169 72.4084 171.408 70 174.379 70Z" fill="url(#paint7_linear)"/>
<path fill-rule="evenodd" clip-rule="evenodd" d="M405.69 71.7931H174.379C172.399 71.7931 170.793 73.3987 170.793 75.3793V90.6207C170.793 92.6013 172.399 94.2069 174.379 94.2069H405.69C407.67 94.2069 409.276 92.6013 409.276 90.6207V75.3793C409.276 73.3987 407.67 71.7931 405.69 71.7931ZM174.379 70H405.69C408.661 70 411.069 72.4084 411.069 75.3793V90.6207C411.069 93.5916 408.661 96 405.69 96H174.379C171.408 96 169 93.5916 169 90.6207V75.3793C169 72.4084 171.408 70 174.379 70Z" fill="url(#paint8_linear)"/>
<path d="M379.987 179.778H209.045C206.899 179.778 205.16 178.038 205.16 175.893C205.16 173.747 206.899 172.008 209.045 172.008H379.988C382.134 172.008 383.873 173.747 383.873 175.893C383.873 178.038 382.133 179.778 379.987 179.778Z" fill="url(#paint9_linear)"/>
<path d="M379.987 179.778H209.045C206.899 179.778 205.16 178.038 205.16 175.893C205.16 173.747 206.899 172.008 209.045 172.008H379.988C382.134 172.008 383.873 173.747 383.873 175.893C383.873 178.038 382.133 179.778 379.987 179.778Z" fill="white" fill-opacity="0.1"/>
<path d="M375.505 179.778H204.563C202.416 179.778 200.678 178.038 200.678 175.893C200.678 173.747 202.417 172.008 204.563 172.008H375.505C377.652 172.008 379.39 173.747 379.39 175.893C379.39 178.038 377.651 179.778 375.505 179.778Z" fill="url(#paint10_linear)"/>
<path d="M375.505 179.778H204.563C202.416 179.778 200.678 178.038 200.678 175.893C200.678 173.747 202.417 172.008 204.563 172.008H375.505C377.652 172.008 379.39 173.747 379.39 175.893C379.39 178.038 377.651 179.778 375.505 179.778Z" fill="url(#paint11_linear)" fill-opacity="0.23"/>
<path fill-rule="evenodd" clip-rule="evenodd" d="M204.563 177.985H375.505C376.661 177.985 377.597 177.048 377.597 175.893C377.597 174.737 376.661 173.801 375.505 173.801H204.563C203.407 173.801 202.471 174.737 202.471 175.893C202.471 177.048 203.407 177.985 204.563 177.985ZM204.563 179.778H375.505C377.651 179.778 379.39 178.038 379.39 175.893C379.39 173.747 377.652 172.008 375.505 172.008H204.563C202.417 172.008 200.678 173.747 200.678 175.893C200.678 178.038 202.416 179.778 204.563 179.778Z" fill="url(#paint12_linear)"/>
<path fill-rule="evenodd" clip-rule="evenodd" d="M204.563 177.985H375.505C376.661 177.985 377.597 177.048 377.597 175.893C377.597 174.737 376.661 173.801 375.505 173.801H204.563C203.407 173.801 202.471 174.737 202.471 175.893C202.471 177.048 203.407 177.985 204.563 177.985ZM204.563 179.778H375.505C377.651 179.778 379.39 178.038 379.39 175.893C379.39 173.747 377.652 172.008 375.505 172.008H204.563C202.417 172.008 200.678 173.747 200.678 175.893C200.678 178.038 202.416 179.778 204.563 179.778Z" fill="url(#paint13_linear)"/>
<path d="M279.673 200.498H204.563C202.416 200.498 200.678 198.759 200.678 196.613C200.678 194.468 202.417 192.729 204.563 192.729H279.674C281.82 192.729 283.559 194.468 283.559 196.613C283.559 198.759 281.82 200.498 279.673 200.498Z" fill="#B0B0B0"/>
<path d="M279.673 221.219H204.563C202.416 221.219 200.678 219.479 200.678 217.334C200.678 215.188 202.417 213.449 204.563 213.449H279.674C281.82 213.449 283.559 215.188 283.559 217.334C283.559 219.479 281.82 221.219 279.673 221.219Z" fill="#B0B0B0"/>
<path d="M279.673 241.939H204.563C202.416 241.939 200.678 240.199 200.678 238.054C200.678 235.909 202.417 234.169 204.563 234.169H279.674C281.82 234.169 283.559 235.909 283.559 238.054C283.559 240.199 281.82 241.939 279.673 241.939Z" fill="#B0B0B0"/>
<path d="M279.673 262.659H204.563C202.416 262.659 200.678 260.919 200.678 258.774C200.678 256.629 202.417 254.889 204.563 254.889H279.674C281.82 254.889 283.559 256.629 283.559 258.774C283.559 260.919 281.82 262.659 279.673 262.659Z" fill="#B0B0B0"/>
<path d="M379.989 196.613H304.878V258.774H379.989V196.613Z" fill="url(#paint14_linear)"/>
<path d="M379.989 196.613H304.878V258.774H379.989V196.613Z" fill="white" fill-opacity="0.1"/>
<path d="M375.506 196.613H300.395V258.774H375.506V196.613Z" fill="url(#paint15_linear)"/>
<path d="M375.506 196.613H300.395V258.774H375.506V196.613Z" fill="url(#paint16_linear)" fill-opacity="0.23"/>
<path fill-rule="evenodd" clip-rule="evenodd" d="M373.713 198.406H302.188V256.981H373.713V198.406ZM375.506 196.613V258.774H300.395V196.613H375.506Z" fill="url(#paint17_linear)"/>
<path fill-rule="evenodd" clip-rule="evenodd" d="M373.713 198.406H302.188V256.981H373.713V198.406ZM375.506 196.613V258.774H300.395V196.613H375.506Z" fill="url(#paint18_linear)"/>
<g filter="url(#filter1_d)">
<path d="M354.231 159.057C347.235 159.057 341.781 155.995 339.997 151.067C339.267 149.049 340.31 146.822 342.329 146.092C344.344 145.362 346.573 146.405 347.304 148.423C347.923 150.137 350.707 151.288 354.23 151.288C356.864 151.288 361.321 150.469 361.321 147.4C361.321 145.297 360.36 144.57 353.6 143.464C350.596 142.973 347.49 142.465 344.873 141.088C341.271 139.192 339.368 136.004 339.368 131.865C339.368 125.001 345.479 120.207 354.229 120.207C361.222 120.207 366.675 123.267 368.461 128.192C369.192 130.21 368.149 132.437 366.133 133.169C364.114 133.903 361.888 132.857 361.157 130.841C360.536 129.128 357.753 127.977 354.23 127.977C351.596 127.977 347.139 128.796 347.139 131.865C347.139 133.964 348.099 134.69 354.855 135.795C357.86 136.287 360.968 136.795 363.585 138.172C367.188 140.068 369.092 143.259 369.092 147.399C369.093 154.263 362.981 159.057 354.231 159.057Z" fill="url(#paint19_linear)"/>
<path d="M319.837 159.057C318.386 159.057 317.04 158.244 316.373 156.928L311.963 148.226L307.553 156.928C306.821 158.373 305.264 159.215 303.659 159.034C302.049 158.856 300.719 157.696 300.321 156.127L292.446 125.046C291.918 122.966 293.178 120.853 295.258 120.326C297.337 119.8 299.451 121.058 299.978 123.138L305.307 144.17L308.496 137.876C309.158 136.57 310.498 135.747 311.962 135.747C313.425 135.747 314.765 136.57 315.427 137.876L318.617 144.17L323.946 123.138C324.473 121.058 326.587 119.799 328.666 120.326C330.746 120.853 332.005 122.966 331.478 125.046L323.602 156.127C323.204 157.697 321.874 158.856 320.264 159.034C320.123 159.049 319.98 159.057 319.837 159.057Z" fill="url(#paint20_linear)"/>
<path d="M280.672 159.057H258.718C256.572 159.057 254.833 157.318 254.833 155.172V124.092C254.833 121.946 256.572 120.207 258.718 120.207H280.672C282.818 120.207 284.557 121.946 284.557 124.092C284.557 126.237 282.818 127.977 280.672 127.977H262.603V151.287H280.672C282.818 151.287 284.557 153.027 284.557 155.172C284.557 157.317 282.818 159.057 280.672 159.057Z" fill="url(#paint21_linear)"/>
<path d="M273.354 143.517H258.718C256.572 143.517 254.833 141.778 254.833 139.632C254.833 137.487 256.572 135.747 258.718 135.747H273.354C275.5 135.747 277.239 137.487 277.239 139.632C277.239 141.778 275.5 143.517 273.354 143.517Z" fill="url(#paint22_linear)"/>
<path d="M243.179 159.057C242.064 159.057 240.976 158.576 240.224 157.695L220.534 134.628V155.172C220.534 157.318 218.795 159.057 216.65 159.057C214.503 159.057 212.765 157.318 212.765 155.172V124.092C212.765 122.464 213.779 121.009 215.306 120.446C216.832 119.883 218.548 120.331 219.604 121.569L239.293 144.636V124.092C239.293 121.946 241.033 120.207 243.178 120.207C245.324 120.207 247.063 121.946 247.063 124.092V155.172C247.063 156.8 246.049 158.255 244.522 158.818C244.083 158.979 243.629 159.057 243.179 159.057Z" fill="url(#paint23_linear)"/>
<path d="M355.127 159.057C348.131 159.057 342.678 155.995 340.894 151.067C340.164 149.049 341.207 146.822 343.225 146.092C345.24 145.362 347.47 146.405 348.2 148.423C348.82 150.137 351.603 151.288 355.126 151.288C357.761 151.288 362.218 150.469 362.218 147.4C362.218 145.297 361.257 144.57 354.497 143.464C351.492 142.973 348.386 142.465 345.769 141.088C342.168 139.192 340.264 136.004 340.264 131.865C340.264 125.001 346.375 120.207 355.126 120.207C362.118 120.207 367.571 123.267 369.357 128.192C370.089 130.21 369.046 132.437 367.029 133.169C365.01 133.903 362.784 132.857 362.053 130.841C361.432 129.128 358.649 127.977 355.127 127.977C352.492 127.977 348.035 128.796 348.035 131.865C348.035 133.964 348.995 134.69 355.752 135.795C358.757 136.287 361.864 136.795 364.482 138.172C368.084 140.068 369.989 143.259 369.989 147.399C369.989 154.263 363.878 159.057 355.127 159.057Z" fill="url(#paint24_linear)"/>
<path d="M320.734 159.057C319.283 159.057 317.937 158.244 317.27 156.928L312.86 148.226L308.45 156.928C307.718 158.373 306.16 159.215 304.556 159.034C302.946 158.856 301.616 157.696 301.218 156.127L293.342 125.046C292.815 122.966 294.074 120.853 296.155 120.326C298.234 119.8 300.348 121.058 300.874 123.138L306.203 144.17L309.393 137.876C310.055 136.57 311.394 135.747 312.858 135.747C314.322 135.747 315.662 136.57 316.324 137.876L319.513 144.17L324.842 123.138C325.37 121.058 327.484 119.799 329.562 120.326C331.642 120.853 332.901 122.966 332.374 125.046L324.499 156.127C324.101 157.697 322.771 158.856 321.161 159.034C321.019 159.049 320.876 159.057 320.734 159.057Z" fill="url(#paint25_linear)"/>
<path d="M281.568 159.057H259.615C257.469 159.057 255.73 157.318 255.73 155.172V124.092C255.73 121.946 257.469 120.207 259.615 120.207H281.568C283.715 120.207 285.453 121.946 285.453 124.092C285.453 126.237 283.714 127.977 281.568 127.977H263.5V151.287H281.568C283.715 151.287 285.453 153.027 285.453 155.172C285.453 157.317 283.715 159.057 281.568 159.057Z" fill="url(#paint26_linear)"/>
<path d="M274.251 143.517H259.615C257.469 143.517 255.73 141.778 255.73 139.632C255.73 137.487 257.469 135.747 259.615 135.747H274.251C276.397 135.747 278.136 137.487 278.136 139.632C278.136 141.778 276.396 143.517 274.251 143.517Z" fill="url(#paint27_linear)"/>
<path d="M244.076 159.057C242.96 159.057 241.873 158.576 241.12 157.695L221.431 134.628V155.172C221.431 157.318 219.692 159.057 217.546 159.057C215.4 159.057 213.661 157.318 213.661 155.172V124.092C213.661 122.464 214.676 121.009 216.202 120.446C217.728 119.883 219.445 120.331 220.501 121.569L240.19 144.636V124.092C240.19 121.946 241.929 120.207 244.075 120.207C246.221 120.207 247.96 121.946 247.96 124.092V155.172C247.96 156.8 246.945 158.255 245.419 158.818C244.98 158.979 244.525 159.057 244.076 159.057Z" fill="url(#paint28_linear)"/>
<path d="M356.024 159.057C349.028 159.057 343.575 155.995 341.79 151.067C341.06 149.049 342.104 146.822 344.122 146.092C346.137 145.362 348.366 146.405 349.097 148.423C349.716 150.137 352.5 151.288 356.023 151.288C358.657 151.288 363.114 150.469 363.114 147.4C363.114 145.297 362.153 144.57 355.393 143.464C352.389 142.973 349.283 142.465 346.666 141.088C343.064 139.192 341.161 136.004 341.161 131.865C341.161 125.001 347.272 120.207 356.022 120.207C363.015 120.207 368.468 123.267 370.254 128.192C370.986 130.21 369.943 132.437 367.926 133.169C365.907 133.903 363.681 132.857 362.95 130.841C362.329 129.128 359.546 127.977 356.023 127.977C353.389 127.977 348.932 128.796 348.932 131.865C348.932 133.964 349.892 134.69 356.648 135.795C359.653 136.287 362.761 136.795 365.378 138.172C368.981 140.068 370.885 143.259 370.885 147.399C370.886 154.263 364.774 159.057 356.024 159.057Z" fill="url(#paint29_linear)"/>
<path d="M321.63 159.057C320.179 159.057 318.834 158.244 318.166 156.928L313.756 148.226L309.346 156.928C308.614 158.373 307.057 159.215 305.452 159.034C303.842 158.856 302.512 157.696 302.114 156.127L294.239 125.046C293.712 122.966 294.971 120.853 297.051 120.326C299.13 119.8 301.244 121.058 301.771 123.138L307.1 144.17L310.289 137.876C310.951 136.57 312.291 135.747 313.755 135.747C315.219 135.747 316.558 136.57 317.22 137.876L320.41 144.17L325.739 123.138C326.266 121.058 328.38 119.799 330.459 120.326C332.539 120.853 333.798 122.966 333.271 125.046L325.395 156.127C324.997 157.697 323.667 158.856 322.057 159.034C321.916 159.049 321.773 159.057 321.63 159.057Z" fill="url(#paint30_linear)"/>
<path d="M282.465 159.057H260.511C258.365 159.057 256.626 157.318 256.626 155.172V124.092C256.626 121.946 258.366 120.207 260.511 120.207H282.465C284.611 120.207 286.35 121.946 286.35 124.092C286.35 126.237 284.611 127.977 282.465 127.977H264.396V151.287H282.465C284.611 151.287 286.35 153.027 286.35 155.172C286.35 157.317 284.611 159.057 282.465 159.057Z" fill="url(#paint31_linear)"/>
<path d="M275.147 143.517H260.511C258.365 143.517 256.626 141.778 256.626 139.632C256.626 137.487 258.366 135.747 260.511 135.747H275.147C277.293 135.747 279.032 137.487 279.032 139.632C279.032 141.778 277.293 143.517 275.147 143.517Z" fill="url(#paint32_linear)"/>
<path d="M244.972 159.057C243.857 159.057 242.769 158.576 242.017 157.695L222.328 134.628V155.172C222.328 157.318 220.588 159.057 218.443 159.057C216.296 159.057 214.558 157.318 214.558 155.172V124.092C214.558 122.464 215.572 121.009 217.099 120.446C218.625 119.883 220.341 120.331 221.397 121.569L241.086 144.636V124.092C241.086 121.946 242.826 120.207 244.971 120.207C247.117 120.207 248.856 121.946 248.856 124.092V155.172C248.856 156.8 247.842 158.255 246.315 158.818C245.876 158.979 245.422 159.057 244.972 159.057Z" fill="url(#paint33_linear)"/>
<path d="M356.92 159.057C349.924 159.057 344.471 155.995 342.687 151.067C341.957 149.049 343 146.822 345.018 146.092C347.033 145.362 349.263 146.405 349.993 148.423C350.613 150.137 353.396 151.288 356.919 151.288C359.554 151.288 364.011 150.469 364.011 147.4C364.011 145.297 363.05 144.57 356.29 143.464C353.285 142.973 350.179 142.465 347.562 141.088C343.961 139.192 342.057 136.004 342.057 131.865C342.057 125.001 348.168 120.207 356.919 120.207C363.912 120.207 369.364 123.267 371.151 128.192C371.882 130.21 370.839 132.437 368.822 133.169C366.803 133.903 364.577 132.857 363.846 130.841C363.225 129.128 360.442 127.977 356.92 127.977C354.286 127.977 349.828 128.796 349.828 131.865C349.828 133.964 350.789 134.69 357.545 135.795C360.55 136.287 363.658 136.795 366.275 138.172C369.878 140.068 371.782 143.259 371.782 147.399C371.782 154.263 365.671 159.057 356.92 159.057Z" fill="url(#paint34_linear)"/>
<path d="M322.527 159.057C321.076 159.057 319.73 158.244 319.063 156.928L314.653 148.226L310.243 156.928C309.511 158.373 307.953 159.215 306.349 159.034C304.739 158.856 303.409 157.696 303.011 156.127L295.135 125.046C294.608 122.966 295.867 120.853 297.948 120.326C300.027 119.8 302.141 121.058 302.668 123.138L307.997 144.17L311.186 137.876C311.848 136.57 313.187 135.747 314.651 135.747C316.115 135.747 317.455 136.57 318.117 137.876L321.306 144.17L326.635 123.138C327.163 121.058 329.277 119.799 331.355 120.326C333.435 120.853 334.694 122.966 334.167 125.046L326.292 156.127C325.894 157.697 324.564 158.856 322.954 159.034C322.812 159.049 322.669 159.057 322.527 159.057Z" fill="url(#paint35_linear)"/>
<path d="M283.361 159.057H261.408C259.262 159.057 257.523 157.318 257.523 155.172V124.092C257.523 121.946 259.262 120.207 261.408 120.207H283.361C285.508 120.207 287.246 121.946 287.246 124.092C287.246 126.237 285.507 127.977 283.361 127.977H265.293V151.287H283.361C285.508 151.287 287.246 153.027 287.246 155.172C287.246 157.317 285.508 159.057 283.361 159.057Z" fill="url(#paint36_linear)"/>
<path d="M276.044 143.517H261.408C259.262 143.517 257.523 141.778 257.523 139.632C257.523 137.487 259.262 135.747 261.408 135.747H276.044C278.19 135.747 279.929 137.487 279.929 139.632C279.929 141.778 278.189 143.517 276.044 143.517Z" fill="url(#paint37_linear)"/>
<path d="M245.869 159.057C244.753 159.057 243.666 158.576 242.913 157.695L223.224 134.628V155.172C223.224 157.318 221.485 159.057 219.339 159.057C217.193 159.057 215.454 157.318 215.454 155.172V124.092C215.454 122.464 216.469 121.009 217.995 120.446C219.521 119.883 221.238 120.331 222.294 121.569L241.983 144.636V124.092C241.983 121.946 243.722 120.207 245.868 120.207C248.014 120.207 249.753 121.946 249.753 124.092V155.172C249.753 156.8 248.738 158.255 247.212 158.818C246.773 158.979 246.318 159.057 245.869 159.057Z" fill="url(#paint38_linear)"/>
<path d="M357.817 159.057C350.821 159.057 345.368 155.995 343.583 151.067C342.854 149.049 343.897 146.822 345.915 146.092C347.93 145.362 350.159 146.405 350.89 148.423C351.509 150.137 354.293 151.288 357.816 151.288C360.45 151.288 364.907 150.469 364.907 147.4C364.907 145.297 363.946 144.57 357.186 143.464C354.182 142.973 351.076 142.465 348.459 141.088C344.857 139.192 342.954 136.004 342.954 131.865C342.954 125.001 349.065 120.207 357.815 120.207C364.808 120.207 370.261 123.267 372.047 128.192C372.779 130.21 371.736 132.437 369.719 133.169C367.7 133.903 365.474 132.857 364.743 130.841C364.122 129.128 361.339 127.977 357.816 127.977C355.182 127.977 350.725 128.796 350.725 131.865C350.725 133.964 351.685 134.69 358.441 135.795C361.446 136.287 364.554 136.795 367.171 138.172C370.774 140.068 372.679 143.259 372.679 147.399C372.679 154.263 366.567 159.057 357.817 159.057Z" fill="url(#paint39_linear)"/>
<path d="M323.423 159.057C321.972 159.057 320.627 158.244 319.959 156.928L315.549 148.226L311.139 156.928C310.407 158.373 308.85 159.215 307.245 159.034C305.636 158.856 304.305 157.696 303.907 156.127L296.032 125.046C295.505 122.966 296.764 120.853 298.844 120.326C300.923 119.8 303.037 121.058 303.564 123.138L308.893 144.17L312.082 137.876C312.744 136.57 314.084 135.747 315.548 135.747C317.012 135.747 318.352 136.57 319.014 137.876L322.203 144.17L327.532 123.138C328.06 121.058 330.173 119.799 332.252 120.326C334.332 120.853 335.591 122.966 335.064 125.046L327.189 156.127C326.79 157.697 325.46 158.856 323.85 159.034C323.709 159.049 323.566 159.057 323.423 159.057Z" fill="url(#paint40_linear)"/>
<path d="M284.258 159.057H262.304C260.158 159.057 258.419 157.318 258.419 155.172V124.092C258.419 121.946 260.159 120.207 262.304 120.207H284.258C286.404 120.207 288.143 121.946 288.143 124.092C288.143 126.237 286.404 127.977 284.258 127.977H266.189V151.287H284.258C286.404 151.287 288.143 153.027 288.143 155.172C288.143 157.317 286.404 159.057 284.258 159.057Z" fill="url(#paint41_linear)"/>
<path d="M276.94 143.517H262.304C260.158 143.517 258.419 141.778 258.419 139.632C258.419 137.487 260.159 135.747 262.304 135.747H276.94C279.086 135.747 280.825 137.487 280.825 139.632C280.825 141.778 279.086 143.517 276.94 143.517Z" fill="url(#paint42_linear)"/>
<path d="M246.765 159.057C245.65 159.057 244.562 158.576 243.81 157.695L224.121 134.628V155.172C224.121 157.318 222.381 159.057 220.236 159.057C218.09 159.057 216.351 157.318 216.351 155.172V124.092C216.351 122.464 217.365 121.009 218.892 120.446C220.418 119.883 222.134 120.331 223.191 121.569L242.88 144.636V124.092C242.88 121.946 244.619 120.207 246.764 120.207C248.91 120.207 250.649 121.946 250.649 124.092V155.172C250.649 156.8 249.635 158.255 248.108 158.818C247.67 158.979 247.215 159.057 246.765 159.057Z" fill="url(#paint43_linear)"/>
</g>
<path d="M353.335 159.057C346.339 159.057 340.886 155.995 339.102 151.067C338.372 149.049 339.415 146.822 341.433 146.092C343.448 145.362 345.678 146.405 346.408 148.423C347.028 150.137 349.811 151.288 353.334 151.288C355.968 151.288 360.426 150.469 360.426 147.4C360.426 145.297 359.465 144.57 352.705 143.464C349.7 142.973 346.594 142.465 343.977 141.088C340.376 139.192 338.472 136.004 338.472 131.865C338.472 125.001 344.583 120.207 353.334 120.207C360.326 120.207 365.779 123.267 367.565 128.192C368.297 130.21 367.254 132.437 365.237 133.169C363.218 133.903 360.992 132.857 360.261 130.841C359.64 129.128 356.857 127.977 353.335 127.977C350.7 127.977 346.243 128.796 346.243 131.865C346.243 133.964 347.203 134.69 353.96 135.795C356.965 136.287 360.072 136.795 362.69 138.172C366.292 140.068 368.197 143.259 368.197 147.399C368.197 154.263 362.086 159.057 353.335 159.057Z" fill="url(#paint44_linear)"/>
<path d="M318.942 159.057C317.491 159.057 316.145 158.244 315.477 156.928L311.068 148.226L306.658 156.928C305.926 158.373 304.368 159.215 302.764 159.034C301.154 158.856 299.824 157.696 299.426 156.127L291.55 125.046C291.023 122.966 292.282 120.853 294.362 120.326C296.442 119.8 298.556 121.058 299.082 123.138L304.411 144.17L307.601 137.876C308.263 136.57 309.602 135.747 311.066 135.747C312.53 135.747 313.87 136.57 314.532 137.876L317.721 144.17L323.05 123.138C323.578 121.058 325.692 119.799 327.77 120.326C329.85 120.853 331.109 122.966 330.582 125.046L322.707 156.127C322.308 157.697 320.979 158.856 319.369 159.034C319.227 159.049 319.084 159.057 318.942 159.057Z" fill="url(#paint45_linear)"/>
<path d="M279.776 159.057H257.823C255.676 159.057 253.938 157.318 253.938 155.172V124.092C253.938 121.946 255.677 120.207 257.823 120.207H279.776C281.922 120.207 283.661 121.946 283.661 124.092C283.661 126.237 281.922 127.977 279.776 127.977H261.708V151.287H279.776C281.922 151.287 283.661 153.027 283.661 155.172C283.661 157.317 281.922 159.057 279.776 159.057Z" fill="url(#paint46_linear)"/>
<path d="M272.459 143.517H257.823C255.676 143.517 253.938 141.778 253.938 139.632C253.938 137.487 255.677 135.747 257.823 135.747H272.459C274.605 135.747 276.343 137.487 276.343 139.632C276.343 141.778 274.604 143.517 272.459 143.517Z" fill="url(#paint47_linear)"/>
<path d="M242.284 159.057C241.168 159.057 240.081 158.576 239.328 157.695L219.639 134.628V155.172C219.639 157.318 217.9 159.057 215.754 159.057C213.608 159.057 211.869 157.318 211.869 155.172V124.092C211.869 122.464 212.884 121.009 214.41 120.446C215.936 119.883 217.653 120.331 218.709 121.569L238.398 144.636V124.092C238.398 121.946 240.137 120.207 242.283 120.207C244.429 120.207 246.168 121.946 246.168 124.092V155.172C246.168 156.8 245.153 158.255 243.627 158.818C243.188 158.979 242.733 159.057 242.284 159.057Z" fill="url(#paint48_linear)"/>
<defs>
<filter id="filter0_d" x="91.9512" y="0.348633" width="439.439" height="407.916" filterUnits="userSpaceOnUse" color-interpolation-filters="sRGB">
<feFlood flood-opacity="0" result="BackgroundImageFix"/>
<feColorMatrix in="SourceAlpha" type="matrix" values="0 0 0 0 0 0 0 0 0 0 0 0 0 0 0 0 0 0 127 0"/>
<feOffset dy="20"/>
<feGaussianBlur stdDeviation="30"/>
<feColorMatrix type="matrix" values="0 0 0 0 0.945098 0 0 0 0 0.733333 0 0 0 0 0.0588235 0 0 0 0.25 0"/>
<feBlend mode="normal" in2="BackgroundImageFix" result="effect1_dropShadow"/>
<feBlend mode="normal" in="SourceGraphic" in2="effect1_dropShadow" result="shape"/>
</filter>
<filter id="filter1_d" x="212.765" y="120.206" width="161.914" height="40.8521" filterUnits="userSpaceOnUse" color-interpolation-filters="sRGB">
<feFlood flood-opacity="0" result="BackgroundImageFix"/>
<feColorMatrix in="SourceAlpha" type="matrix" values="0 0 0 0 0 0 0 0 0 0 0 0 0 0 0 0 0 0 127 0"/>
<feOffset dx="2" dy="2"/>
<feColorMatrix type="matrix" values="0 0 0 0 0 0 0 0 0 0 0 0 0 0 0 0 0 0 0.15 0"/>
<feBlend mode="normal" in2="BackgroundImageFix" result="effect1_dropShadow"/>
<feBlend mode="normal" in="SourceGraphic" in2="effect1_dropShadow" result="shape"/>
</filter>
<linearGradient id="paint0_linear" x1="230.758" y1="44.2472" x2="530.622" y2="68.1946" gradientUnits="userSpaceOnUse">
<stop stop-color="#FFDC67"/>
<stop offset="1" stop-color="#F0B90B"/>
</linearGradient>
<linearGradient id="paint1_linear" x1="236.083" y1="86.0561" x2="234.784" y2="287.255" gradientUnits="userSpaceOnUse">
<stop stop-color="#5E5D60"/>
<stop offset="0.185142" stop-color="#1A1919"/>
<stop offset="0.325571" stop-color="#6C6C6C"/>
<stop offset="0.54959" stop-color="#282828"/>
<stop offset="0.65625" stop-color="#3C3B3D"/>
<stop offset="0.713542" stop-color="#4F5052"/>
<stop offset="0.863885" stop-color="#5A5A5A"/>
<stop offset="1" stop-color="#16171A"/>
</linearGradient>
<linearGradient id="paint2_linear" x1="290.034" y1="85.2738" x2="290.034" y2="287.264" gradientUnits="userSpaceOnUse">
<stop stop-color="#2B292A"/>
<stop offset="0.624381" stop-color="#424041"/>
<stop offset="1" stop-color="#868585"/>
</linearGradient>
<linearGradient id="paint3_linear" x1="385.442" y1="90.8623" x2="254.329" y2="315.927" gradientUnits="userSpaceOnUse">
<stop offset="0.670529" stop-color="#5C5757"/>
<stop offset="0.925805" stop-color="#514F50"/>
<stop offset="1" stop-color="#363435"/>
</linearGradient>
<linearGradient id="paint4_linear" x1="259.629" y1="90.6091" x2="297.785" y2="194.362" gradientUnits="userSpaceOnUse">
<stop stop-color="white" stop-opacity="0.4"/>
<stop offset="1" stop-color="white" stop-opacity="0"/>
</linearGradient>
<linearGradient id="paint5_linear" x1="240.566" y1="70.1048" x2="240.544" y2="95.9999" gradientUnits="userSpaceOnUse">
<stop stop-color="#5E5D60"/>
<stop offset="0.177083" stop-color="#4F5052"/>
<stop offset="0.4375" stop-color="#5A5A5A"/>
<stop offset="1" stop-color="#16171A"/>
</linearGradient>
<linearGradient id="paint6_linear" x1="290.034" y1="70.0042" x2="290.034" y2="95.9999" gradientUnits="userSpaceOnUse">
<stop stop-color="#2B292A"/>
<stop offset="0.624381" stop-color="#424041"/>
<stop offset="1" stop-color="#868585"/>
</linearGradient>
<linearGradient id="paint7_linear" x1="389.112" y1="70.7234" x2="386.326" y2="109.318" gradientUnits="userSpaceOnUse">
<stop offset="0.670529" stop-color="#5C5757"/>
<stop offset="0.925805" stop-color="#514F50"/>
<stop offset="1" stop-color="#363435"/>
</linearGradient>
<linearGradient id="paint8_linear" x1="258.46" y1="70.6908" x2="259.15" y2="85.8181" gradientUnits="userSpaceOnUse">
<stop stop-color="white" stop-opacity="0.4"/>
<stop offset="1" stop-color="white" stop-opacity="0"/>
</linearGradient>
<linearGradient id="paint9_linear" x1="241.476" y1="171.983" x2="241.475" y2="179.778" gradientUnits="userSpaceOnUse">
<stop stop-color="#56D599"/>
<stop offset="0.15625" stop-color="#1EAD64"/>
<stop offset="0.371058" stop-color="#1EAE65"/>
<stop offset="0.75" stop-color="#57D69A"/>
<stop offset="0.91676" stop-color="#1EA65F"/>
<stop offset="1" stop-color="#178E4E"/>
</linearGradient>
<linearGradient id="paint10_linear" x1="290.034" y1="172.008" x2="290.034" y2="182.57" gradientUnits="userSpaceOnUse">
<stop stop-color="#1FA05B"/>
<stop offset="0.569228" stop-color="#1DB369"/>
<stop offset="1" stop-color="#62DDA3"/>
</linearGradient>
<linearGradient id="paint11_linear" x1="372.604" y1="175.529" x2="200.678" y2="175.529" gradientUnits="userSpaceOnUse">
<stop offset="0.479067" stop-color="white" stop-opacity="0"/>
<stop offset="0.479167" stop-color="white"/>
<stop offset="1" stop-color="white" stop-opacity="0"/>
</linearGradient>
<linearGradient id="paint12_linear" x1="274.18" y1="172.008" x2="274.246" y2="182.052" gradientUnits="userSpaceOnUse">
<stop offset="0.217623" stop-color="#20B56C"/>
<stop offset="0.656122" stop-color="#B2F5D4"/>
<stop offset="1" stop-color="#1FA25D"/>
</linearGradient>
<linearGradient id="paint13_linear" x1="357.253" y1="172.251" x2="357.146" y2="178.139" gradientUnits="userSpaceOnUse">
<stop stop-color="white" stop-opacity="0.67"/>
<stop offset="1" stop-color="white" stop-opacity="0"/>
</linearGradient>
<linearGradient id="paint14_linear" x1="320.141" y1="196.411" x2="319.937" y2="258.773" gradientUnits="userSpaceOnUse">
<stop stop-color="#56D599"/>
<stop offset="0.15625" stop-color="#1EAD64"/>
<stop offset="0.371058" stop-color="#1EAE65"/>
<stop offset="0.75" stop-color="#57D69A"/>
<stop offset="0.91676" stop-color="#1EA65F"/>
<stop offset="1" stop-color="#178E4E"/>
</linearGradient>
<linearGradient id="paint15_linear" x1="337.95" y1="196.613" x2="337.95" y2="281.113" gradientUnits="userSpaceOnUse">
<stop stop-color="#1FA05B"/>
<stop offset="0.569228" stop-color="#1DB369"/>
<stop offset="1" stop-color="#62DDA3"/>
</linearGradient>
<linearGradient id="paint16_linear" x1="372.653" y1="224.78" x2="300.395" y2="224.78" gradientUnits="userSpaceOnUse">
<stop offset="0.479067" stop-color="white" stop-opacity="0"/>
<stop offset="0.479167" stop-color="white"/>
<stop offset="1" stop-color="white" stop-opacity="0"/>
</linearGradient>
<linearGradient id="paint17_linear" x1="331.287" y1="196.613" x2="341.158" y2="275.739" gradientUnits="userSpaceOnUse">
<stop offset="0.217623" stop-color="#20B56C"/>
<stop offset="0.656122" stop-color="#B2F5D4"/>
<stop offset="1" stop-color="#1FA25D"/>
</linearGradient>
<linearGradient id="paint18_linear" x1="366.202" y1="198.556" x2="351.58" y2="240.59" gradientUnits="userSpaceOnUse">
<stop stop-color="white" stop-opacity="0.67"/>
<stop offset="1" stop-color="white" stop-opacity="0"/>
</linearGradient>
<linearGradient id="paint19_linear" x1="324.479" y1="121.332" x2="323.53" y2="156.598" gradientUnits="userSpaceOnUse">
<stop stop-color="#767676"/>
<stop offset="0.135417" stop-color="#606060"/>
<stop offset="0.630208" stop-color="#F8F8F8"/>
<stop offset="1" stop-color="#F8F8F8"/>
</linearGradient>
<linearGradient id="paint20_linear" x1="324.479" y1="121.332" x2="323.53" y2="156.598" gradientUnits="userSpaceOnUse">
<stop stop-color="#767676"/>
<stop offset="0.135417" stop-color="#606060"/>
<stop offset="0.630208" stop-color="#F8F8F8"/>
<stop offset="1" stop-color="#F8F8F8"/>
</linearGradient>
<linearGradient id="paint21_linear" x1="324.479" y1="121.332" x2="323.53" y2="156.598" gradientUnits="userSpaceOnUse">
<stop stop-color="#767676"/>
<stop offset="0.135417" stop-color="#606060"/>
<stop offset="0.630208" stop-color="#F8F8F8"/>
<stop offset="1" stop-color="#F8F8F8"/>
</linearGradient>
<linearGradient id="paint22_linear" x1="324.479" y1="121.332" x2="323.53" y2="156.598" gradientUnits="userSpaceOnUse">
<stop stop-color="#767676"/>
<stop offset="0.135417" stop-color="#606060"/>
<stop offset="0.630208" stop-color="#F8F8F8"/>
<stop offset="1" stop-color="#F8F8F8"/>
</linearGradient>
<linearGradient id="paint23_linear" x1="324.479" y1="121.332" x2="323.53" y2="156.598" gradientUnits="userSpaceOnUse">
<stop stop-color="#767676"/>
<stop offset="0.135417" stop-color="#606060"/>
<stop offset="0.630208" stop-color="#F8F8F8"/>
<stop offset="1" stop-color="#F8F8F8"/>
</linearGradient>
<linearGradient id="paint24_linear" x1="324.479" y1="121.332" x2="323.53" y2="156.598" gradientUnits="userSpaceOnUse">
<stop stop-color="#767676"/>
<stop offset="0.135417" stop-color="#606060"/>
<stop offset="0.630208" stop-color="#F8F8F8"/>
<stop offset="1" stop-color="#F8F8F8"/>
</linearGradient>
<linearGradient id="paint25_linear" x1="324.479" y1="121.332" x2="323.53" y2="156.598" gradientUnits="userSpaceOnUse">
<stop stop-color="#767676"/>
<stop offset="0.135417" stop-color="#606060"/>
<stop offset="0.630208" stop-color="#F8F8F8"/>
<stop offset="1" stop-color="#F8F8F8"/>
</linearGradient>
<linearGradient id="paint26_linear" x1="324.479" y1="121.332" x2="323.53" y2="156.598" gradientUnits="userSpaceOnUse">
<stop stop-color="#767676"/>
<stop offset="0.135417" stop-color="#606060"/>
<stop offset="0.630208" stop-color="#F8F8F8"/>
<stop offset="1" stop-color="#F8F8F8"/>
</linearGradient>
<linearGradient id="paint27_linear" x1="324.479" y1="121.332" x2="323.53" y2="156.598" gradientUnits="userSpaceOnUse">
<stop stop-color="#767676"/>
<stop offset="0.135417" stop-color="#606060"/>
<stop offset="0.630208" stop-color="#F8F8F8"/>
<stop offset="1" stop-color="#F8F8F8"/>
</linearGradient>
<linearGradient id="paint28_linear" x1="324.479" y1="121.332" x2="323.53" y2="156.598" gradientUnits="userSpaceOnUse">
<stop stop-color="#767676"/>
<stop offset="0.135417" stop-color="#606060"/>
<stop offset="0.630208" stop-color="#F8F8F8"/>
<stop offset="1" stop-color="#F8F8F8"/>
</linearGradient>
<linearGradient id="paint29_linear" x1="324.479" y1="121.332" x2="323.53" y2="156.598" gradientUnits="userSpaceOnUse">
<stop stop-color="#767676"/>
<stop offset="0.135417" stop-color="#606060"/>
<stop offset="0.630208" stop-color="#F8F8F8"/>
<stop offset="1" stop-color="#F8F8F8"/>
</linearGradient>
<linearGradient id="paint30_linear" x1="324.479" y1="121.332" x2="323.53" y2="156.598" gradientUnits="userSpaceOnUse">
<stop stop-color="#767676"/>
<stop offset="0.135417" stop-color="#606060"/>
<stop offset="0.630208" stop-color="#F8F8F8"/>
<stop offset="1" stop-color="#F8F8F8"/>
</linearGradient>
<linearGradient id="paint31_linear" x1="324.479" y1="121.332" x2="323.53" y2="156.598" gradientUnits="userSpaceOnUse">
<stop stop-color="#767676"/>
<stop offset="0.135417" stop-color="#606060"/>
<stop offset="0.630208" stop-color="#F8F8F8"/>
<stop offset="1" stop-color="#F8F8F8"/>
</linearGradient>
<linearGradient id="paint32_linear" x1="324.479" y1="121.332" x2="323.53" y2="156.598" gradientUnits="userSpaceOnUse">
<stop stop-color="#767676"/>
<stop offset="0.135417" stop-color="#606060"/>
<stop offset="0.630208" stop-color="#F8F8F8"/>
<stop offset="1" stop-color="#F8F8F8"/>
</linearGradient>
<linearGradient id="paint33_linear" x1="324.479" y1="121.332" x2="323.53" y2="156.598" gradientUnits="userSpaceOnUse">
<stop stop-color="#767676"/>
<stop offset="0.135417" stop-color="#606060"/>
<stop offset="0.630208" stop-color="#F8F8F8"/>
<stop offset="1" stop-color="#F8F8F8"/>
</linearGradient>
<linearGradient id="paint34_linear" x1="324.479" y1="121.332" x2="323.53" y2="156.598" gradientUnits="userSpaceOnUse">
<stop stop-color="#767676"/>
<stop offset="0.135417" stop-color="#606060"/>
<stop offset="0.630208" stop-color="#F8F8F8"/>
<stop offset="1" stop-color="#F8F8F8"/>
</linearGradient>
<linearGradient id="paint35_linear" x1="324.479" y1="121.332" x2="323.53" y2="156.598" gradientUnits="userSpaceOnUse">
<stop stop-color="#767676"/>
<stop offset="0.135417" stop-color="#606060"/>
<stop offset="0.630208" stop-color="#F8F8F8"/>
<stop offset="1" stop-color="#F8F8F8"/>
</linearGradient>
<linearGradient id="paint36_linear" x1="324.479" y1="121.332" x2="323.53" y2="156.598" gradientUnits="userSpaceOnUse">
<stop stop-color="#767676"/>
<stop offset="0.135417" stop-color="#606060"/>
<stop offset="0.630208" stop-color="#F8F8F8"/>
<stop offset="1" stop-color="#F8F8F8"/>
</linearGradient>
<linearGradient id="paint37_linear" x1="324.479" y1="121.332" x2="323.53" y2="156.598" gradientUnits="userSpaceOnUse">
<stop stop-color="#767676"/>
<stop offset="0.135417" stop-color="#606060"/>
<stop offset="0.630208" stop-color="#F8F8F8"/>
<stop offset="1" stop-color="#F8F8F8"/>
</linearGradient>
<linearGradient id="paint38_linear" x1="324.479" y1="121.332" x2="323.53" y2="156.598" gradientUnits="userSpaceOnUse">
<stop stop-color="#767676"/>
<stop offset="0.135417" stop-color="#606060"/>
<stop offset="0.630208" stop-color="#F8F8F8"/>
<stop offset="1" stop-color="#F8F8F8"/>
</linearGradient>
<linearGradient id="paint39_linear" x1="324.479" y1="121.332" x2="323.53" y2="156.598" gradientUnits="userSpaceOnUse">
<stop stop-color="#767676"/>
<stop offset="0.135417" stop-color="#606060"/>
<stop offset="0.630208" stop-color="#F8F8F8"/>
<stop offset="1" stop-color="#F8F8F8"/>
</linearGradient>
<linearGradient id="paint40_linear" x1="324.479" y1="121.332" x2="323.53" y2="156.598" gradientUnits="userSpaceOnUse">
<stop stop-color="#767676"/>
<stop offset="0.135417" stop-color="#606060"/>
<stop offset="0.630208" stop-color="#F8F8F8"/>
<stop offset="1" stop-color="#F8F8F8"/>
</linearGradient>
<linearGradient id="paint41_linear" x1="324.479" y1="121.332" x2="323.53" y2="156.598" gradientUnits="userSpaceOnUse">
<stop stop-color="#767676"/>
<stop offset="0.135417" stop-color="#606060"/>
<stop offset="0.630208" stop-color="#F8F8F8"/>
<stop offset="1" stop-color="#F8F8F8"/>
</linearGradient>
<linearGradient id="paint42_linear" x1="324.479" y1="121.332" x2="323.53" y2="156.598" gradientUnits="userSpaceOnUse">
<stop stop-color="#767676"/>
<stop offset="0.135417" stop-color="#606060"/>
<stop offset="0.630208" stop-color="#F8F8F8"/>
<stop offset="1" stop-color="#F8F8F8"/>
</linearGradient>
<linearGradient id="paint43_linear" x1="324.479" y1="121.332" x2="323.53" y2="156.598" gradientUnits="userSpaceOnUse">
<stop stop-color="#767676"/>
<stop offset="0.135417" stop-color="#606060"/>
<stop offset="0.630208" stop-color="#F8F8F8"/>
<stop offset="1" stop-color="#F8F8F8"/>
</linearGradient>
<linearGradient id="paint44_linear" x1="233.725" y1="127.611" x2="237.448" y2="163.621" gradientUnits="userSpaceOnUse">
<stop stop-color="#F8F8F8"/>
<stop offset="1" stop-color="#BEBEBE"/>
</linearGradient>
<linearGradient id="paint45_linear" x1="233.725" y1="127.611" x2="237.448" y2="163.621" gradientUnits="userSpaceOnUse">
<stop stop-color="#F8F8F8"/>
<stop offset="1" stop-color="#BEBEBE"/>
</linearGradient>
<linearGradient id="paint46_linear" x1="233.725" y1="127.611" x2="237.448" y2="163.621" gradientUnits="userSpaceOnUse">
<stop stop-color="#F8F8F8"/>
<stop offset="1" stop-color="#BEBEBE"/>
</linearGradient>
<linearGradient id="paint47_linear" x1="233.725" y1="127.611" x2="237.448" y2="163.621" gradientUnits="userSpaceOnUse">
<stop stop-color="#F8F8F8"/>
<stop offset="1" stop-color="#BEBEBE"/>
</linearGradient>
<linearGradient id="paint48_linear" x1="233.725" y1="127.611" x2="237.448" y2="163.621" gradientUnits="userSpaceOnUse">
<stop stop-color="#F8F8F8"/>
<stop offset="1" stop-color="#BEBEBE"/>
</linearGradient>
</defs>
</svg>
