<svg width="574" height="409" viewBox="0 0 574 409" fill="none" xmlns="http://www.w3.org/2000/svg">
<mask id="mask0" mask-type="alpha" maskUnits="userSpaceOnUse" x="0" y="5" width="392" height="359">
<path fill-rule="evenodd" clip-rule="evenodd" d="M346.192 166.772L275.231 40.4568L226.496 40.4568C234.784 55.6895 245.649 75.7161 256.461 95.6658C267.332 115.725 278.154 135.714 286.258 150.688C289.727 157.097 292.697 162.587 294.961 166.772L346.192 166.772ZM265.145 184.273C262.869 180.067 259.862 174.51 256.342 168.006C248.24 153.036 237.421 133.053 226.555 113.002C215.687 92.9489 204.775 72.8353 196.485 57.5998C192.75 50.7354 189.553 44.873 187.135 40.4568L117.661 40.4568L92.0782 85.5165L152.963 85.5165C159.209 85.5165 164.979 88.9715 168.088 94.5762L241.782 227.419L265.145 184.273ZM271.117 245.811L294.716 202.228L346.192 202.228L321.708 245.811L271.117 245.811ZM301.789 281.268L242.246 281.268C235.988 281.268 230.209 277.806 227.095 272.192C227.095 272.192 227.095 272.192 227.095 272.192L153.229 139.039L127.524 186.512L205.468 328.543L275.231 328.543L301.789 281.268ZM166.048 328.543L96.7282 202.228L45.9452 202.228L117.661 328.543L166.048 328.543ZM45.9452 166.772L98.9192 166.772L123.717 120.973L71.9474 120.973L45.9452 166.772ZM182.492 32.0616C182.49 32.0579 182.512 32.0945 182.563 32.182C182.519 32.1089 182.493 32.0653 182.492 32.0616ZM388.713 171.883C393.096 179.684 393.096 189.316 388.713 197.117L301.983 351.502C297.636 359.239 289.638 364 280.986 364L111.937 364C103.325 364 95.3569 359.283 90.9961 351.602L3.34325 197.217C-1.11439 189.366 -1.11439 179.634 3.34325 171.783L90.9962 17.3981C95.3569 9.71748 103.325 4.99999 111.937 4.99999L280.986 5C289.638 5 297.636 9.76096 301.983 17.4981L388.713 171.883Z" fill="#F7F7F7"/>
</mask>
<g mask="url(#mask0)">
<path d="M101.908 365L8.07124 200.652C2.45061 190.808 2.45744 178.725 8.08918 168.887L101.908 5M105.213 365L11.3756 200.652C5.75501 190.808 5.76184 178.725 11.3936 168.887L105.213 5M108.517 365L14.68 200.652C9.05941 190.808 9.06624 178.725 14.698 168.887L108.517 5M111.822 365L17.9844 200.652C12.3638 190.808 12.3706 178.725 18.0024 168.887L111.822 5M115.126 365L21.2888 200.652C15.6682 190.808 15.675 178.725 21.3068 168.887L115.126 5M118.43 365L24.5932 200.652C18.9726 190.808 18.9794 178.725 24.6112 168.887L118.43 5M121.735 365L27.8976 200.652C22.277 190.808 22.2838 178.725 27.9156 168.887L121.735 5M125.039 365L31.202 200.652C25.5814 190.808 25.5882 178.725 31.22 168.887L125.039 5M128.344 365L34.5064 200.652C28.8858 190.808 28.8926 178.725 34.5244 168.887L128.344 5M131.648 365L37.8108 200.652C32.1902 190.808 32.197 178.725 37.8288 168.887L131.648 5M134.952 365L41.1152 200.652C35.4946 190.808 35.5014 178.725 41.1332 168.887L134.952 5M138.257 365L44.4196 200.652C38.799 190.808 38.8058 178.725 44.4376 168.887L138.257 5M141.561 365L47.724 200.652C42.1034 190.808 42.1102 178.725 47.742 168.887L141.561 5M144.866 365L51.0284 200.652C45.4078 190.808 45.4146 178.725 51.0464 168.887L144.866 5M148.17 365L54.3328 200.652C48.7122 190.808 48.719 178.725 54.3508 168.887L148.17 5M151.474 365L57.6372 200.652C52.0166 190.808 52.0234 178.725 57.6552 168.887L151.474 5M154.779 365L60.9416 200.652C55.321 190.808 55.3278 178.725 60.9596 168.887L154.779 5M158.083 365L64.246 200.652C58.6254 190.808 58.6322 178.725 64.264 168.887L158.083 5M161.388 365L67.5504 200.652C61.9298 190.808 61.9366 178.725 67.5684 168.887L161.388 5M164.692 365L70.8548 200.652C65.2342 190.808 65.241 178.725 70.8728 168.887L164.692 5M167.996 365L74.1592 200.652C68.5386 190.808 68.5454 178.725 74.1772 168.887L167.996 5M171.301 365L77.4636 200.652C71.843 190.808 71.8498 178.725 77.4816 168.887L171.301 5M174.605 365L80.768 200.652C75.1474 190.808 75.1542 178.725 80.786 168.887L174.605 5M177.91 365L84.0724 200.652C78.4518 190.808 78.4586 178.725 84.0904 168.887L177.91 5M181.214 365L87.3768 200.652C81.7562 190.808 81.763 178.725 87.3948 168.887L181.214 5M184.518 365L90.6812 200.652C85.0606 190.808 85.0674 178.725 90.6992 168.887L184.518 5M187.823 365L93.9856 200.652C88.365 190.808 88.3718 178.725 94.0036 168.887L187.823 5M191.127 365L97.29 200.652C91.6694 190.808 91.6762 178.725 97.308 168.887L191.127 5M194.432 365L100.594 200.652C94.9738 190.808 94.9806 178.725 100.612 168.887L194.432 5M197.736 365L103.899 200.652C98.2782 190.808 98.285 178.725 103.917 168.887L197.736 5M201.04 365L107.203 200.652C101.583 190.808 101.589 178.725 107.221 168.887L201.04 5M204.345 365L110.508 200.652C104.887 190.808 104.894 178.725 110.526 168.887L204.345 5M207.649 365L113.812 200.652C108.191 190.808 108.198 178.725 113.83 168.887L207.649 5M210.954 365L117.116 200.652C111.496 190.808 111.503 178.725 117.134 168.887L210.954 5M214.258 365L120.421 200.652C114.8 190.808 114.807 178.725 120.439 168.887L214.258 5M217.562 365L123.725 200.652C118.105 190.808 118.111 178.725 123.743 168.887L217.562 5M220.867 365L127.03 200.652C121.409 190.808 121.416 178.725 127.048 168.887L220.867 5M224.171 365L130.334 200.652C124.713 190.808 124.72 178.725 130.352 168.887L224.171 5M227.476 365L133.638 200.652C128.018 190.808 128.025 178.725 133.656 168.887L227.476 5M230.78 365L136.943 200.652C131.322 190.808 131.329 178.725 136.961 168.887L230.78 5M234.084 365L140.247 200.652C134.627 190.808 134.633 178.725 140.265 168.887L234.084 5M237.389 365L143.552 200.652C137.931 190.808 137.938 178.725 143.57 168.887L237.389 5M240.693 365L146.856 200.652C141.235 190.808 141.242 178.725 146.874 168.887L240.693 5M243.998 365L150.16 200.652C144.54 190.808 144.547 178.725 150.178 168.887L243.998 5M247.302 365L153.465 200.652C147.844 190.808 147.851 178.725 153.483 168.887L247.302 5M250.606 365L156.769 200.652C151.149 190.808 151.155 178.725 156.787 168.887L250.606 5M253.911 365L160.074 200.652C154.453 190.808 154.46 178.725 160.092 168.887L253.911 5M257.215 365L163.378 200.652C157.757 190.808 157.764 178.725 163.396 168.887L257.215 5M260.52 365L166.682 200.652C161.062 190.808 161.069 178.725 166.7 168.887L260.52 5M263.824 365L169.987 200.652C164.366 190.808 164.373 178.725 170.005 168.887L263.824 5M267.128 365L173.291 200.652C167.671 190.808 167.677 178.725 173.309 168.887L267.128 5M270.433 365L176.596 200.652C170.975 190.808 170.982 178.725 176.614 168.887L270.433 5M273.737 365L179.9 200.652C174.279 190.808 174.286 178.725 179.918 168.887L273.737 5M277.042 365L183.204 200.652C177.584 190.808 177.591 178.725 183.222 168.887L277.042 5M280.346 365L186.509 200.652C180.888 190.808 180.895 178.725 186.527 168.887L280.346 5M283.65 365L189.813 200.652C184.193 190.808 184.199 178.725 189.831 168.887L283.65 5M286.955 365L193.118 200.652C187.497 190.808 187.504 178.725 193.136 168.887L286.955 5M290.259 365L196.422 200.652C190.801 190.808 190.808 178.725 196.44 168.887L290.259 5M293.564 365L199.726 200.652C194.106 190.808 194.113 178.725 199.744 168.887L293.564 5M296.868 365L203.031 200.652C197.41 190.808 197.417 178.725 203.049 168.887L296.868 5M300.172 365L206.335 200.652C200.715 190.808 200.721 178.725 206.353 168.887L300.172 5M303.477 365L209.64 200.652C204.019 190.808 204.026 178.725 209.658 168.887L303.477 5M306.781 365L212.944 200.652C207.323 190.808 207.33 178.725 212.962 168.887L306.781 5M310.086 365L216.248 200.652C210.628 190.808 210.635 178.725 216.266 168.887L310.086 5M313.39 365L219.553 200.652C213.932 190.808 213.939 178.725 219.571 168.887L313.39 5M316.694 365L222.857 200.652C217.237 190.808 217.243 178.725 222.875 168.887L316.694 5M319.999 365L226.162 200.652C220.541 190.808 220.548 178.725 226.18 168.887L319.999 5M323.303 365L229.466 200.652C223.845 190.808 223.852 178.725 229.484 168.887L323.303 5M326.608 365L232.77 200.652C227.15 190.808 227.157 178.725 232.788 168.887L326.608 5M329.912 365L236.075 200.652C230.454 190.808 230.461 178.725 236.093 168.887L329.912 5M333.216 365L239.379 200.652C233.759 190.808 233.765 178.725 239.397 168.887L333.216 5M336.521 365L242.684 200.652C237.063 190.808 237.07 178.725 242.702 168.887L336.521 5M339.825 365L245.988 200.652C240.367 190.808 240.374 178.725 246.006 168.887L339.825 5M343.13 365L249.292 200.652C243.672 190.808 243.679 178.725 249.31 168.887L343.13 5M346.434 365L252.597 200.652C246.976 190.808 246.983 178.725 252.615 168.887L346.434 5M349.738 365L255.901 200.652C250.281 190.808 250.287 178.725 255.919 168.887L349.738 5M353.043 365L259.206 200.652C253.585 190.808 253.592 178.725 259.224 168.887L353.043 5M356.347 365L262.51 200.652C256.889 190.808 256.896 178.725 262.528 168.887L356.347 5M359.652 365L265.814 200.652C260.194 190.808 260.201 178.725 265.832 168.887L359.652 5M362.956 365L269.119 200.652C263.498 190.808 263.505 178.725 269.137 168.887L362.956 5M366.26 365L272.423 200.652C266.803 190.808 266.809 178.725 272.441 168.887L366.26 5M369.565 365L275.728 200.652C270.107 190.808 270.114 178.725 275.746 168.887L369.565 5M372.869 365L279.032 200.652C273.411 190.808 273.418 178.725 279.05 168.887L372.869 5M376.174 365L282.336 200.652C276.716 190.808 276.723 178.725 282.354 168.887L376.174 5M379.478 365L285.641 200.652C280.02 190.808 280.027 178.725 285.659 168.887L379.478 5M382.782 365L288.945 200.652C283.325 190.808 283.331 178.725 288.963 168.887L382.782 5M386.087 365L292.25 200.652C286.629 190.808 286.636 178.725 292.268 168.887L386.087 5M389.391 365L295.554 200.652C289.933 190.808 289.94 178.725 295.572 168.887L389.391 5M392.696 365L298.858 200.652C293.238 190.808 293.245 178.725 298.876 168.887L392.696 5M396 365L302.163 200.652C296.542 190.808 296.549 178.725 302.181 168.887L396 5" stroke="#5C677D" stroke-opacity="0.07" stroke-width="2"/>
</g>
<path d="M354.61 46.9264L354.61 46.9267L420.839 162.094C425.552 170.29 427.788 174.2 428.663 178.333C429.445 182.022 429.445 185.835 428.663 189.524C427.788 193.657 425.552 197.567 420.839 205.763L354.61 320.93C349.87 329.173 347.602 333.094 344.45 335.939C341.637 338.478 338.32 340.397 334.716 341.57C330.679 342.884 326.149 342.896 316.641 342.896L182.908 342.896C173.4 342.896 168.87 342.884 164.833 341.57C161.229 340.397 157.912 338.478 155.099 335.939C151.947 333.094 149.679 329.173 144.939 320.93L78.7101 205.763C73.9969 197.567 71.7614 193.657 70.8859 189.524C70.1043 185.835 70.1043 182.022 70.8859 178.333C71.7614 174.2 73.9968 170.29 78.7101 162.094L144.939 46.9267C149.679 38.6842 151.947 34.7632 155.099 31.9184C157.912 29.379 161.229 27.4604 164.833 26.2874C168.87 24.9733 173.4 24.9616 182.908 24.9616L316.641 24.9616C326.149 24.9616 330.679 24.9733 334.716 26.2874C338.32 27.4604 341.637 29.379 344.45 31.9184C347.591 34.7532 349.854 38.6567 354.56 46.8396C354.577 46.8686 354.593 46.8974 354.61 46.9264Z" stroke="#1CBA6E" stroke-width="2"/>
<g filter="url(#filter0_d)">
<path d="M217.788 305.861L160.55 206.704C155.84 198.544 153.485 194.464 152.563 190.127C151.747 186.29 151.747 182.324 152.563 178.486C153.485 174.149 155.84 170.069 160.55 161.91L217.788 62.7518C222.499 54.5903 224.855 50.5096 228.151 47.5417C231.067 44.9158 234.502 42.9321 238.234 41.7194C242.452 40.3488 247.164 40.3488 256.588 40.3488L366.754 40.3487C376.177 40.3487 380.889 40.3487 385.107 41.7194C388.839 42.9321 392.275 44.9158 395.191 47.5417C398.487 50.5096 400.842 54.5903 405.553 62.7518L462.792 161.91C467.502 170.069 469.857 174.149 470.779 178.486C471.594 182.323 471.594 186.29 470.779 190.127C469.857 194.464 467.502 198.544 462.792 206.704L405.553 305.861C400.842 314.023 398.487 318.104 395.191 321.071C392.275 323.697 388.839 325.681 385.107 326.894C380.889 328.264 376.177 328.264 366.754 328.264L256.588 328.264C247.164 328.264 242.452 328.264 238.234 326.894C234.502 325.681 231.067 323.697 228.151 321.071C224.855 318.104 222.499 314.023 217.788 305.861L217.788 305.861Z" fill="url(#paint0_linear)"/>
</g>
<path d="M317.82 339.348L243.657 210.548C238.297 201.24 235.617 196.585 234.568 191.639C233.64 187.262 233.64 182.738 234.568 178.361C235.617 173.415 238.297 168.76 243.657 159.452L317.82 30.6517C323.2 21.3073 325.89 16.6351 329.658 13.2368C332.992 10.2301 336.921 7.95847 341.191 6.56967C346.016 5 351.407 5 362.19 5L522.116 5C540.037 5 548.998 5 555.843 8.4878C561.864 11.5558 566.76 16.4511 569.828 22.4723C573.316 29.3175 573.316 38.2783 573.316 56.2L573.316 185L573.316 313.8C573.316 331.722 573.316 340.683 569.828 347.528C566.76 353.549 561.864 358.444 555.843 361.512C548.998 365 540.037 365 522.116 365L362.19 365C351.407 365 346.016 365 341.191 363.43C336.921 362.042 332.992 359.77 329.658 356.763C325.89 353.365 323.2 348.693 317.82 339.348Z" fill="white"/>
<path d="M421.388 178.913C421.388 231.546 378.723 274.211 326.09 274.211C273.462 274.211 230.797 231.546 230.797 178.913C230.797 143.276 250.36 112.208 279.331 95.8616L326.09 178.913H421.388Z" fill="url(#paint1_linear)"/>
<path d="M262.637 95.6804H279.198L287.892 109.757L263.879 116.381L262.637 95.6804Z" fill="url(#paint2_linear)"/>
<path d="M404.828 178.913C404.828 231.546 362.163 274.211 309.53 274.211C256.903 274.211 214.237 231.546 214.237 178.913C214.237 143.277 233.8 112.208 262.771 95.8618L309.53 178.913H404.828Z" fill="url(#paint3_linear)"/>
<mask id="mask1" mask-type="alpha" maskUnits="userSpaceOnUse" x="214" y="95" width="191" height="180">
<path d="M404.828 178.913C404.828 231.546 362.163 274.211 309.53 274.211C256.903 274.211 214.237 231.546 214.237 178.913C214.237 143.277 233.8 112.208 262.771 95.8618L309.53 178.913H404.828Z" fill="url(#paint4_linear)"/>
</mask>
<g mask="url(#mask1)">
<path d="M225.844 196.711C249.653 196.711 268.954 177.409 268.954 153.6C268.954 129.791 249.653 110.49 225.844 110.49C202.034 110.49 182.733 129.791 182.733 153.6C182.733 177.409 202.034 196.711 225.844 196.711Z" fill="#171717" fill-opacity="0.25"/>
</g>
<path fill-rule="evenodd" clip-rule="evenodd" d="M309.53 178.913L262.771 95.8618C262.29 96.1332 261.812 96.4087 261.336 96.6882C233.156 113.241 214.237 143.868 214.237 178.913C214.237 231.546 256.903 274.211 309.53 274.211C361.61 274.211 403.93 232.438 404.814 180.569C404.824 180.018 404.828 179.466 404.828 178.913H309.53ZM403.158 180.569H308.562L262.149 98.1315C234.469 114.403 215.893 144.49 215.893 178.913C215.893 230.631 257.817 272.555 309.53 272.555C360.696 272.555 402.274 231.523 403.158 180.569Z" fill="url(#paint5_linear)"/>
<path fill-rule="evenodd" clip-rule="evenodd" d="M309.53 178.913L262.771 95.8618C262.29 96.1332 261.812 96.4087 261.336 96.6882C233.156 113.241 214.237 143.868 214.237 178.913C214.237 231.546 256.903 274.211 309.53 274.211C361.61 274.211 403.93 232.438 404.814 180.569C404.824 180.018 404.828 179.466 404.828 178.913H309.53ZM403.158 180.569H308.562L262.149 98.1315C234.469 114.403 215.893 144.49 215.893 178.913C215.893 230.631 257.817 272.555 309.53 272.555C360.696 272.555 402.274 231.523 403.158 180.569Z" fill="url(#paint6_linear)"/>
<path d="M427 169.293H331.703L284.943 86.2419C298.758 78.4473 314.711 74 331.703 74C384.335 73.9995 427 116.665 427 169.293Z" fill="url(#paint7_linear)"/>
<path d="M427 169.293H331.703L284.943 86.2419C298.758 78.4473 314.711 74 331.703 74C384.335 73.9995 427 116.665 427 169.293Z" fill="white" fill-opacity="0.1"/>
<path d="M410.44 169.293H315.142L268.383 86.2419C282.198 78.4473 298.151 74 315.142 74C367.775 73.9995 410.44 116.665 410.44 169.293Z" fill="url(#paint8_linear)"/>
<path d="M410.44 169.293H315.142L268.383 86.2419C282.198 78.4473 298.151 74 315.142 74C367.775 73.9995 410.44 116.665 410.44 169.293Z" fill="url(#paint9_linear)" fill-opacity="0.23"/>
<path fill-rule="evenodd" clip-rule="evenodd" d="M410.426 167.637C409.542 115.773 367.222 73.9995 315.142 74C298.742 74 283.309 78.1433 269.832 85.4407C269.397 85.6762 268.965 85.9149 268.534 86.1569C268.483 86.1852 268.433 86.2135 268.383 86.2419L315.142 169.293H410.44C410.44 168.739 410.435 168.187 410.426 167.637ZM408.769 167.637C407.886 116.687 366.307 75.6556 315.142 75.6561C299.034 75.6561 283.88 79.7224 270.645 86.8839L316.11 167.637H408.769Z" fill="url(#paint10_linear)"/>
<path fill-rule="evenodd" clip-rule="evenodd" d="M410.426 167.637C409.542 115.773 367.222 73.9995 315.142 74C298.742 74 283.309 78.1433 269.832 85.4407C269.397 85.6762 268.965 85.9149 268.534 86.1569C268.483 86.1852 268.433 86.2135 268.383 86.2419L315.142 169.293H410.44C410.44 168.739 410.435 168.187 410.426 167.637ZM408.769 167.637C407.886 116.687 366.307 75.6556 315.142 75.6561C299.034 75.6561 283.88 79.7224 270.645 86.8839L316.11 167.637H408.769Z" fill="url(#paint11_linear)"/>
<g filter="url(#filter1_d)">
<path d="M352.82 195.452L313.566 210.438C308.034 212.55 306.863 219.858 311.458 223.593L319 229.723L290.179 265.953L234.01 221.786C228.924 217.788 221.637 218.287 217.145 222.945L177.567 263.987C172.734 268.998 172.879 276.978 177.89 281.81C182.901 286.643 190.881 286.498 195.713 281.487L227.383 248.645L284.449 293.518C286.758 295.334 289.505 296.215 292.232 296.215C295.942 296.214 299.618 294.584 302.105 291.456L338.564 245.623L344.068 250.097C348.663 253.832 355.579 251.191 356.515 245.344L363.158 203.855C364.095 198.009 358.352 193.341 352.82 195.452Z" fill="url(#paint12_linear)"/>
<path d="M353.648 195.452L314.395 210.438C308.862 212.55 307.691 219.858 312.286 223.593L319.828 229.723L291.007 265.953L234.838 221.786C229.752 217.788 222.465 218.287 217.973 222.945L178.395 263.987C173.562 268.998 173.707 276.978 178.719 281.81C183.729 286.643 191.709 286.498 196.541 281.487L228.211 248.645L285.277 293.518C287.586 295.334 290.333 296.215 293.06 296.215C296.77 296.214 300.446 294.584 302.933 291.456L339.392 245.623L344.896 250.097C349.491 253.832 356.407 251.191 357.343 245.344L363.986 203.855C364.923 198.009 359.18 193.341 353.648 195.452Z" fill="url(#paint13_linear)"/>
<path d="M354.476 195.452L315.223 210.438C309.69 212.55 308.519 219.858 313.114 223.593L320.656 229.723L291.835 265.953L235.666 221.786C230.58 217.788 223.293 218.287 218.801 222.945L179.223 263.987C174.39 268.998 174.535 276.978 179.547 281.81C184.557 286.643 192.537 286.498 197.369 281.487L229.039 248.645L286.105 293.518C288.414 295.334 291.161 296.215 293.888 296.215C297.598 296.214 301.274 294.584 303.761 291.456L340.22 245.623L345.724 250.097C350.32 253.832 357.235 251.191 358.171 245.344L364.814 203.855C365.751 198.009 360.008 193.341 354.476 195.452Z" fill="url(#paint14_linear)"/>
<path d="M355.304 195.452L316.051 210.438C310.518 212.55 309.347 219.858 313.942 223.593L321.484 229.723L292.663 265.953L236.494 221.786C231.408 217.788 224.121 218.287 219.629 222.945L180.051 263.987C175.218 268.998 175.363 276.978 180.375 281.81C185.385 286.643 193.365 286.498 198.197 281.487L229.867 248.645L286.933 293.518C289.242 295.334 291.989 296.215 294.716 296.215C298.426 296.214 302.102 294.584 304.589 291.456L341.048 245.623L346.552 250.097C351.148 253.832 358.063 251.191 358.999 245.344L365.642 203.855C366.579 198.009 360.836 193.341 355.304 195.452Z" fill="url(#paint15_linear)"/>
<path d="M356.132 195.452L316.879 210.438C311.346 212.55 310.175 219.858 314.77 223.593L322.312 229.723L293.491 265.953L237.322 221.786C232.236 217.788 224.949 218.287 220.457 222.945L180.879 263.987C176.046 268.998 176.191 276.978 181.203 281.81C186.213 286.643 194.193 286.498 199.025 281.487L230.695 248.645L287.761 293.518C290.07 295.334 292.817 296.215 295.544 296.215C299.254 296.214 302.93 294.584 305.417 291.456L341.876 245.623L347.38 250.097C351.976 253.832 358.891 251.191 359.827 245.344L366.47 203.855C367.407 198.009 361.664 193.341 356.132 195.452Z" fill="url(#paint16_linear)"/>
<path d="M356.96 195.452L317.707 210.438C312.174 212.55 311.003 219.858 315.598 223.593L323.14 229.723L294.319 265.953L238.15 221.786C233.064 217.788 225.777 218.287 221.285 222.945L181.707 263.987C176.874 268.998 177.019 276.978 182.031 281.81C187.041 286.643 195.021 286.498 199.853 281.487L231.523 248.645L288.589 293.518C290.899 295.334 293.645 296.215 296.372 296.215C300.082 296.214 303.758 294.584 306.245 291.456L342.704 245.623L348.208 250.097C352.804 253.832 359.719 251.191 360.655 245.344L367.298 203.855C368.235 198.009 362.492 193.341 356.96 195.452Z" fill="url(#paint17_linear)"/>
<path d="M357.788 195.452L318.535 210.438C313.002 212.55 311.831 219.858 316.427 223.593L323.968 229.723L295.147 265.953L238.978 221.786C233.892 217.788 226.605 218.287 222.113 222.945L182.535 263.987C177.702 268.998 177.847 276.978 182.859 281.81C187.869 286.643 195.849 286.498 200.681 281.487L232.351 248.645L289.417 293.518C291.727 295.334 294.473 296.215 297.2 296.215C300.91 296.214 304.586 294.584 307.073 291.456L343.532 245.623L349.036 250.097C353.632 253.832 360.547 251.191 361.483 245.344L368.126 203.855C369.063 198.009 363.32 193.341 357.788 195.452Z" fill="url(#paint18_linear)"/>
<path d="M358.616 195.452L319.363 210.438C313.83 212.55 312.659 219.858 317.255 223.593L324.796 229.723L295.975 265.953L239.806 221.786C234.72 217.788 227.433 218.287 222.941 222.945L183.363 263.987C178.53 268.998 178.676 276.978 183.687 281.81C188.697 286.643 196.677 286.498 201.509 281.487L233.179 248.645L290.245 293.518C292.555 295.334 295.301 296.215 298.028 296.215C301.738 296.214 305.414 294.584 307.901 291.456L344.36 245.623L349.864 250.097C354.46 253.832 361.375 251.191 362.311 245.344L368.954 203.855C369.891 198.009 364.148 193.341 358.616 195.452Z" fill="url(#paint19_linear)"/>
<path d="M359.444 195.452L320.191 210.438C314.658 212.55 313.487 219.858 318.083 223.593L325.624 229.723L296.803 265.953L240.634 221.786C235.548 217.788 228.261 218.287 223.769 222.945L184.191 263.987C179.358 268.998 179.504 276.978 184.515 281.81C189.525 286.643 197.505 286.498 202.337 281.487L234.007 248.645L291.073 293.518C293.383 295.334 296.129 296.215 298.856 296.215C302.566 296.214 306.242 294.584 308.729 291.456L345.188 245.623L350.692 250.097C355.288 253.832 362.203 251.191 363.139 245.344L369.782 203.855C370.719 198.009 364.976 193.341 359.444 195.452Z" fill="url(#paint20_linear)"/>
</g>
<path d="M351.992 195.452L312.738 210.438C307.206 212.55 306.035 219.858 310.63 223.593L318.172 229.723L289.351 265.953L233.182 221.786C228.096 217.788 220.808 218.287 216.317 222.945L176.739 263.987C171.906 268.998 172.051 276.978 177.062 281.81C182.073 286.643 190.053 286.498 194.885 281.487L226.555 248.645L283.621 293.518C285.93 295.334 288.677 296.215 291.404 296.215C295.114 296.214 298.789 294.584 301.276 291.456L337.736 245.623L343.24 250.097C347.835 253.832 354.75 251.191 355.687 245.344L362.33 203.855C363.267 198.009 357.523 193.341 351.992 195.452Z" fill="url(#paint21_linear)"/>
<path d="M218.39 193.398C242.2 193.398 261.501 174.097 261.501 150.288C261.501 126.479 242.2 107.178 218.39 107.178C194.581 107.178 175.28 126.479 175.28 150.288C175.28 174.097 194.581 193.398 218.39 193.398Z" fill="url(#paint22_linear)"/>
<path d="M210.11 193.398C233.919 193.398 253.22 174.097 253.22 150.288C253.22 126.479 233.919 107.178 210.11 107.178C186.301 107.178 167 126.479 167 150.288C167 174.097 186.301 193.398 210.11 193.398Z" fill="url(#paint23_linear)"/>
<path fill-rule="evenodd" clip-rule="evenodd" d="M210.11 191.742C233.005 191.742 251.564 173.183 251.564 150.288C251.564 127.394 233.005 108.834 210.11 108.834C187.216 108.834 168.656 127.394 168.656 150.288C168.656 173.183 187.216 191.742 210.11 191.742ZM253.22 150.288C253.22 174.097 233.919 193.398 210.11 193.398C186.301 193.398 167 174.097 167 150.288C167 126.479 186.301 107.178 210.11 107.178C233.919 107.178 253.22 126.479 253.22 150.288Z" fill="url(#paint24_linear)"/>
<path fill-rule="evenodd" clip-rule="evenodd" d="M210.11 191.742C233.005 191.742 251.564 173.183 251.564 150.288C251.564 127.394 233.005 108.834 210.11 108.834C187.216 108.834 168.656 127.394 168.656 150.288C168.656 173.183 187.216 191.742 210.11 191.742ZM253.22 150.288C253.22 174.097 233.919 193.398 210.11 193.398C186.301 193.398 167 174.097 167 150.288C167 126.479 186.301 107.178 210.11 107.178C233.919 107.178 253.22 126.479 253.22 150.288Z" fill="url(#paint25_linear)"/>
<g filter="url(#filter2_d)">
<path d="M216.395 146.553C212.555 145.196 208.303 143.553 205.889 141.659C204.993 140.956 204.61 139.468 204.911 137.868C205.209 136.287 206.278 134.372 208.386 133.737C213.094 132.319 216.218 134.764 216.559 135.048C218.134 136.359 220.475 136.144 221.785 134.569C223.096 132.993 222.882 130.653 221.306 129.342C220.64 128.789 218.16 126.909 214.391 126.17V124.07C214.391 122.02 212.73 120.359 210.68 120.359C208.631 120.359 206.97 122.02 206.97 124.07V126.429C206.73 126.49 206.49 126.557 206.246 126.63C201.819 127.964 198.513 131.743 197.617 136.494C196.796 140.853 198.21 145.069 201.308 147.499C203.935 149.56 207.59 151.313 213.922 153.551C218.525 155.179 218.423 158.918 218.166 160.451C217.652 163.505 215.083 166.806 210.656 166.836C206.541 166.862 205.145 166.641 201.933 164.539C200.218 163.417 197.917 163.897 196.795 165.613C195.673 167.328 196.154 169.629 197.869 170.751C201.429 173.079 203.936 173.892 206.97 174.15V176.506C206.97 178.555 208.631 180.217 210.681 180.217C212.73 180.217 214.392 178.555 214.392 176.506V173.796C220.615 172.23 224.604 166.918 225.485 161.681C226.633 154.849 223.065 148.911 216.395 146.553Z" fill="url(#paint26_linear)"/>
<path d="M217.223 146.553C213.383 145.196 209.131 143.553 206.717 141.659C205.822 140.956 205.438 139.468 205.739 137.868C206.037 136.287 207.106 134.372 209.214 133.737C213.922 132.319 217.046 134.764 217.387 135.048C218.962 136.359 221.303 136.144 222.613 134.569C223.924 132.993 223.71 130.653 222.134 129.342C221.468 128.789 218.988 126.909 215.219 126.17V124.07C215.219 122.02 213.558 120.359 211.508 120.359C209.459 120.359 207.798 122.02 207.798 124.07V126.429C207.558 126.49 207.318 126.557 207.074 126.63C202.647 127.964 199.341 131.743 198.445 136.494C197.624 140.853 199.038 145.069 202.136 147.499C204.763 149.56 208.418 151.313 214.75 153.551C219.353 155.179 219.251 158.918 218.994 160.451C218.48 163.505 215.911 166.806 211.484 166.836C207.369 166.862 205.973 166.641 202.761 164.539C201.046 163.417 198.745 163.897 197.623 165.613C196.501 167.328 196.982 169.629 198.697 170.751C202.257 173.079 204.764 173.892 207.798 174.15V176.506C207.798 178.555 209.459 180.217 211.509 180.217C213.558 180.217 215.22 178.555 215.22 176.506V173.796C221.443 172.23 225.432 166.918 226.313 161.681C227.461 154.849 223.893 148.911 217.223 146.553Z" fill="url(#paint27_linear)"/>
<path d="M218.051 146.553C214.211 145.196 209.959 143.553 207.545 141.659C206.65 140.956 206.266 139.468 206.567 137.868C206.865 136.287 207.934 134.372 210.043 133.737C214.75 132.319 217.874 134.764 218.215 135.048C219.79 136.359 222.131 136.144 223.442 134.569C224.752 132.993 224.538 130.653 222.962 129.342C222.296 128.789 219.816 126.909 216.047 126.17V124.07C216.047 122.02 214.386 120.359 212.337 120.359C210.287 120.359 208.626 122.02 208.626 124.07V126.429C208.386 126.49 208.146 126.557 207.902 126.63C203.475 127.964 200.169 131.743 199.273 136.494C198.452 140.853 199.866 145.069 202.965 147.499C205.591 149.56 209.246 151.313 215.578 153.551C220.181 155.179 220.079 158.918 219.822 160.451C219.308 163.505 216.739 166.806 212.312 166.836C208.197 166.862 206.801 166.641 203.589 164.539C201.874 163.417 199.573 163.897 198.451 165.613C197.329 167.328 197.81 169.629 199.525 170.751C203.085 173.079 205.592 173.892 208.626 174.15V176.506C208.626 178.555 210.287 180.217 212.337 180.217C214.387 180.217 216.048 178.555 216.048 176.506V173.796C222.271 172.23 226.261 166.918 227.141 161.681C228.289 154.849 224.721 148.911 218.051 146.553Z" fill="url(#paint28_linear)"/>
<path d="M218.879 146.553C215.039 145.196 210.787 143.553 208.373 141.659C207.478 140.956 207.094 139.468 207.395 137.868C207.693 136.287 208.762 134.372 210.871 133.737C215.578 132.319 218.702 134.764 219.043 135.048C220.618 136.359 222.959 136.144 224.27 134.569C225.58 132.993 225.366 130.653 223.79 129.342C223.124 128.789 220.644 126.909 216.875 126.17V124.07C216.875 122.02 215.214 120.359 213.165 120.359C211.115 120.359 209.454 122.02 209.454 124.07V126.429C209.214 126.49 208.974 126.557 208.73 126.63C204.303 127.964 200.997 131.743 200.101 136.494C199.28 140.853 200.694 145.069 203.793 147.499C206.419 149.56 210.074 151.313 216.406 153.551C221.009 155.179 220.907 158.918 220.65 160.451C220.136 163.505 217.567 166.806 213.14 166.836C209.025 166.862 207.629 166.641 204.417 164.539C202.702 163.417 200.401 163.897 199.279 165.613C198.157 167.328 198.638 169.629 200.353 170.751C203.913 173.079 206.42 173.892 209.454 174.15V176.506C209.454 178.555 211.115 180.217 213.165 180.217C215.215 180.217 216.876 178.555 216.876 176.506V173.796C223.099 172.23 227.089 166.918 227.969 161.681C229.117 154.849 225.549 148.911 218.879 146.553Z" fill="url(#paint29_linear)"/>
</g>
<path d="M215.567 146.553C211.727 145.196 207.475 143.553 205.061 141.659C204.165 140.956 203.782 139.468 204.083 137.868C204.381 136.287 205.45 134.372 207.558 133.737C212.265 132.319 215.39 134.764 215.731 135.048C217.306 136.359 219.647 136.144 220.957 134.569C222.268 132.993 222.053 130.653 220.478 129.342C219.812 128.789 217.332 126.909 213.563 126.17V124.07C213.563 122.02 211.902 120.359 209.852 120.359C207.803 120.359 206.141 122.02 206.141 124.07V126.429C205.902 126.49 205.662 126.557 205.418 126.63C200.991 127.964 197.684 131.743 196.789 136.494C195.968 140.853 197.382 145.069 200.48 147.499C203.107 149.56 206.761 151.313 213.094 153.551C217.697 155.179 217.595 158.918 217.338 160.451C216.824 163.505 214.255 166.806 209.828 166.836C205.712 166.862 204.317 166.641 201.105 164.539C199.39 163.417 197.089 163.897 195.967 165.613C194.845 167.328 195.326 169.629 197.041 170.751C200.6 173.079 203.108 173.892 206.142 174.15V176.506C206.142 178.555 207.803 180.217 209.853 180.217C211.902 180.217 213.564 178.555 213.564 176.506V173.796C219.787 172.23 223.776 166.918 224.657 161.681C225.805 154.849 222.237 148.911 215.567 146.553Z" fill="url(#paint30_linear)"/>
<defs>
<filter id="filter0_d" x="91.9512" y="0.348633" width="439.439" height="407.916" filterUnits="userSpaceOnUse" color-interpolation-filters="sRGB">
<feFlood flood-opacity="0" result="BackgroundImageFix"/>
<feColorMatrix in="SourceAlpha" type="matrix" values="0 0 0 0 0 0 0 0 0 0 0 0 0 0 0 0 0 0 127 0"/>
<feOffset dy="20"/>
<feGaussianBlur stdDeviation="30"/>
<feColorMatrix type="matrix" values="0 0 0 0 0.945098 0 0 0 0 0.733333 0 0 0 0 0.0588235 0 0 0 0.25 0"/>
<feBlend mode="normal" in2="BackgroundImageFix" result="effect1_dropShadow"/>
<feBlend mode="normal" in="SourceGraphic" in2="effect1_dropShadow" result="shape"/>
</filter>
<filter id="filter1_d" x="174.035" y="194.936" width="197.848" height="103.279" filterUnits="userSpaceOnUse" color-interpolation-filters="sRGB">
<feFlood flood-opacity="0" result="BackgroundImageFix"/>
<feColorMatrix in="SourceAlpha" type="matrix" values="0 0 0 0 0 0 0 0 0 0 0 0 0 0 0 0 0 0 127 0"/>
<feOffset dx="2" dy="2"/>
<feColorMatrix type="matrix" values="0 0 0 0 0 0 0 0 0 0 0 0 0 0 0 0 0 0 0.15 0"/>
<feBlend mode="normal" in2="BackgroundImageFix" result="effect1_dropShadow"/>
<feBlend mode="normal" in="SourceGraphic" in2="effect1_dropShadow" result="shape"/>
</filter>
<filter id="filter2_d" x="196.189" y="120.359" width="33.9921" height="61.8579" filterUnits="userSpaceOnUse" color-interpolation-filters="sRGB">
<feFlood flood-opacity="0" result="BackgroundImageFix"/>
<feColorMatrix in="SourceAlpha" type="matrix" values="0 0 0 0 0 0 0 0 0 0 0 0 0 0 0 0 0 0 127 0"/>
<feOffset dx="2" dy="2"/>
<feColorMatrix type="matrix" values="0 0 0 0 0 0 0 0 0 0 0 0 0 0 0 0 0 0 0.15 0"/>
<feBlend mode="normal" in2="BackgroundImageFix" result="effect1_dropShadow"/>
<feBlend mode="normal" in="SourceGraphic" in2="effect1_dropShadow" result="shape"/>
</filter>
<linearGradient id="paint0_linear" x1="230.758" y1="44.2472" x2="530.622" y2="68.1946" gradientUnits="userSpaceOnUse">
<stop stop-color="#FFDC67"/>
<stop offset="1" stop-color="#F0B90B"/>
</linearGradient>
<linearGradient id="paint1_linear" x1="267.32" y1="96.4003" x2="266.078" y2="274.202" gradientUnits="userSpaceOnUse">
<stop stop-color="#5E5D60"/>
<stop offset="0.185142" stop-color="#1A1919"/>
<stop offset="0.325571" stop-color="#6C6C6C"/>
<stop offset="0.54959" stop-color="#282828"/>
<stop offset="0.65625" stop-color="#3C3B3D"/>
<stop offset="0.713542" stop-color="#4F5052"/>
<stop offset="0.863885" stop-color="#5A5A5A"/>
<stop offset="1" stop-color="#16171A"/>
</linearGradient>
<linearGradient id="paint2_linear" x1="267.32" y1="96.4003" x2="266.078" y2="274.202" gradientUnits="userSpaceOnUse">
<stop stop-color="#5E5D60"/>
<stop offset="0.185142" stop-color="#1A1919"/>
<stop offset="0.325571" stop-color="#6C6C6C"/>
<stop offset="0.54959" stop-color="#282828"/>
<stop offset="0.65625" stop-color="#3C3B3D"/>
<stop offset="0.713542" stop-color="#4F5052"/>
<stop offset="0.863885" stop-color="#5A5A5A"/>
<stop offset="1" stop-color="#16171A"/>
</linearGradient>
<linearGradient id="paint3_linear" x1="309.533" y1="95.8904" x2="309.533" y2="274.21" gradientUnits="userSpaceOnUse">
<stop stop-color="#2B292A"/>
<stop offset="0.624381" stop-color="#424041"/>
<stop offset="1" stop-color="#868585"/>
</linearGradient>
<linearGradient id="paint4_linear" x1="309.533" y1="95.8904" x2="309.533" y2="274.21" gradientUnits="userSpaceOnUse">
<stop stop-color="#2B292A"/>
<stop offset="0.624381" stop-color="#424041"/>
<stop offset="1" stop-color="#868585"/>
</linearGradient>
<linearGradient id="paint5_linear" x1="387.541" y1="100.824" x2="267.602" y2="291.503" gradientUnits="userSpaceOnUse">
<stop offset="0.670529" stop-color="#5C5757"/>
<stop offset="0.925805" stop-color="#514F50"/>
<stop offset="1" stop-color="#363435"/>
</linearGradient>
<linearGradient id="paint6_linear" x1="284.673" y1="100.601" x2="320.338" y2="190.421" gradientUnits="userSpaceOnUse">
<stop stop-color="white" stop-opacity="0.4"/>
<stop offset="1" stop-color="white" stop-opacity="0"/>
</linearGradient>
<linearGradient id="paint7_linear" x1="313.811" y1="73.6905" x2="313.556" y2="169.292" gradientUnits="userSpaceOnUse">
<stop stop-color="#56D599"/>
<stop offset="0.15625" stop-color="#1EAD64"/>
<stop offset="0.371058" stop-color="#1EAE65"/>
<stop offset="0.75" stop-color="#57D69A"/>
<stop offset="0.91676" stop-color="#1EA65F"/>
<stop offset="1" stop-color="#178E4E"/>
</linearGradient>
<linearGradient id="paint8_linear" x1="339.411" y1="74" x2="339.411" y2="203.538" gradientUnits="userSpaceOnUse">
<stop stop-color="#1FA05B"/>
<stop offset="0.569228" stop-color="#1DB369"/>
<stop offset="1" stop-color="#62DDA3"/>
</linearGradient>
<linearGradient id="paint9_linear" x1="359.93" y1="118.865" x2="268.383" y2="117.179" gradientUnits="userSpaceOnUse">
<stop offset="0.479067" stop-color="white" stop-opacity="0"/>
<stop offset="0.479167" stop-color="white"/>
<stop offset="1" stop-color="white" stop-opacity="0"/>
</linearGradient>
<linearGradient id="paint10_linear" x1="326.809" y1="74" x2="339.14" y2="195.941" gradientUnits="userSpaceOnUse">
<stop offset="0.217623" stop-color="#20B56C"/>
<stop offset="0.656122" stop-color="#B2F5D4"/>
<stop offset="1" stop-color="#1FA25D"/>
</linearGradient>
<linearGradient id="paint11_linear" x1="392.843" y1="76.9779" x2="373.975" y2="143.895" gradientUnits="userSpaceOnUse">
<stop stop-color="white" stop-opacity="0.67"/>
<stop offset="1" stop-color="white" stop-opacity="0"/>
</linearGradient>
<linearGradient id="paint12_linear" x1="310.853" y1="197.871" x2="305.599" y2="289.568" gradientUnits="userSpaceOnUse">
<stop stop-color="#767676"/>
<stop offset="0.135417" stop-color="#606060"/>
<stop offset="0.630208" stop-color="#F8F8F8"/>
<stop offset="1" stop-color="#F8F8F8"/>
</linearGradient>
<linearGradient id="paint13_linear" x1="310.853" y1="197.871" x2="305.599" y2="289.568" gradientUnits="userSpaceOnUse">
<stop stop-color="#767676"/>
<stop offset="0.135417" stop-color="#606060"/>
<stop offset="0.630208" stop-color="#F8F8F8"/>
<stop offset="1" stop-color="#F8F8F8"/>
</linearGradient>
<linearGradient id="paint14_linear" x1="310.853" y1="197.871" x2="305.599" y2="289.568" gradientUnits="userSpaceOnUse">
<stop stop-color="#767676"/>
<stop offset="0.135417" stop-color="#606060"/>
<stop offset="0.630208" stop-color="#F8F8F8"/>
<stop offset="1" stop-color="#F8F8F8"/>
</linearGradient>
<linearGradient id="paint15_linear" x1="310.853" y1="197.871" x2="305.599" y2="289.568" gradientUnits="userSpaceOnUse">
<stop stop-color="#767676"/>
<stop offset="0.135417" stop-color="#606060"/>
<stop offset="0.630208" stop-color="#F8F8F8"/>
<stop offset="1" stop-color="#F8F8F8"/>
</linearGradient>
<linearGradient id="paint16_linear" x1="310.853" y1="197.871" x2="305.599" y2="289.568" gradientUnits="userSpaceOnUse">
<stop stop-color="#767676"/>
<stop offset="0.135417" stop-color="#606060"/>
<stop offset="0.630208" stop-color="#F8F8F8"/>
<stop offset="1" stop-color="#F8F8F8"/>
</linearGradient>
<linearGradient id="paint17_linear" x1="310.853" y1="197.871" x2="305.599" y2="289.568" gradientUnits="userSpaceOnUse">
<stop stop-color="#767676"/>
<stop offset="0.135417" stop-color="#606060"/>
<stop offset="0.630208" stop-color="#F8F8F8"/>
<stop offset="1" stop-color="#F8F8F8"/>
</linearGradient>
<linearGradient id="paint18_linear" x1="310.853" y1="197.871" x2="305.599" y2="289.568" gradientUnits="userSpaceOnUse">
<stop stop-color="#767676"/>
<stop offset="0.135417" stop-color="#606060"/>
<stop offset="0.630208" stop-color="#F8F8F8"/>
<stop offset="1" stop-color="#F8F8F8"/>
</linearGradient>
<linearGradient id="paint19_linear" x1="310.853" y1="197.871" x2="305.599" y2="289.568" gradientUnits="userSpaceOnUse">
<stop stop-color="#767676"/>
<stop offset="0.135417" stop-color="#606060"/>
<stop offset="0.630208" stop-color="#F8F8F8"/>
<stop offset="1" stop-color="#F8F8F8"/>
</linearGradient>
<linearGradient id="paint20_linear" x1="310.853" y1="197.871" x2="305.599" y2="289.568" gradientUnits="userSpaceOnUse">
<stop stop-color="#767676"/>
<stop offset="0.135417" stop-color="#606060"/>
<stop offset="0.630208" stop-color="#F8F8F8"/>
<stop offset="1" stop-color="#F8F8F8"/>
</linearGradient>
<linearGradient id="paint21_linear" x1="199.662" y1="214.24" x2="219.788" y2="304.632" gradientUnits="userSpaceOnUse">
<stop stop-color="#F8F8F8"/>
<stop offset="1" stop-color="#BEBEBE"/>
</linearGradient>
<linearGradient id="paint22_linear" x1="191.803" y1="107.526" x2="191.163" y2="193.393" gradientUnits="userSpaceOnUse">
<stop stop-color="#5E5D60"/>
<stop offset="0.185142" stop-color="#1A1919"/>
<stop offset="0.325571" stop-color="#6C6C6C"/>
<stop offset="0.54959" stop-color="#282828"/>
<stop offset="0.65625" stop-color="#3C3B3D"/>
<stop offset="0.713542" stop-color="#4F5052"/>
<stop offset="0.863885" stop-color="#5A5A5A"/>
<stop offset="1" stop-color="#16171A"/>
</linearGradient>
<linearGradient id="paint23_linear" x1="210.11" y1="107.192" x2="210.11" y2="193.398" gradientUnits="userSpaceOnUse">
<stop stop-color="#2B292A"/>
<stop offset="0.624381" stop-color="#424041"/>
<stop offset="1" stop-color="#868585"/>
</linearGradient>
<linearGradient id="paint24_linear" x1="245.4" y1="109.577" x2="185.835" y2="198.191" gradientUnits="userSpaceOnUse">
<stop offset="0.670529" stop-color="#5C5757"/>
<stop offset="0.925805" stop-color="#514F50"/>
<stop offset="1" stop-color="#363435"/>
</linearGradient>
<linearGradient id="paint25_linear" x1="198.864" y1="109.469" x2="216.94" y2="152.068" gradientUnits="userSpaceOnUse">
<stop stop-color="white" stop-opacity="0.4"/>
<stop offset="1" stop-color="white" stop-opacity="0"/>
</linearGradient>
<linearGradient id="paint26_linear" x1="218.539" y1="122.094" x2="207.732" y2="174.226" gradientUnits="userSpaceOnUse">
<stop stop-color="#767676"/>
<stop offset="0.135417" stop-color="#606060"/>
<stop offset="0.630208" stop-color="#F8F8F8"/>
<stop offset="1" stop-color="#F8F8F8"/>
</linearGradient>
<linearGradient id="paint27_linear" x1="218.539" y1="122.094" x2="207.732" y2="174.226" gradientUnits="userSpaceOnUse">
<stop stop-color="#767676"/>
<stop offset="0.135417" stop-color="#606060"/>
<stop offset="0.630208" stop-color="#F8F8F8"/>
<stop offset="1" stop-color="#F8F8F8"/>
</linearGradient>
<linearGradient id="paint28_linear" x1="218.539" y1="122.094" x2="207.732" y2="174.226" gradientUnits="userSpaceOnUse">
<stop stop-color="#767676"/>
<stop offset="0.135417" stop-color="#606060"/>
<stop offset="0.630208" stop-color="#F8F8F8"/>
<stop offset="1" stop-color="#F8F8F8"/>
</linearGradient>
<linearGradient id="paint29_linear" x1="218.539" y1="122.094" x2="207.732" y2="174.226" gradientUnits="userSpaceOnUse">
<stop stop-color="#767676"/>
<stop offset="0.135417" stop-color="#606060"/>
<stop offset="0.630208" stop-color="#F8F8F8"/>
<stop offset="1" stop-color="#F8F8F8"/>
</linearGradient>
<linearGradient id="paint30_linear" x1="199.487" y1="131.768" x2="227.124" y2="164.518" gradientUnits="userSpaceOnUse">
<stop stop-color="#F8F8F8"/>
<stop offset="1" stop-color="#BEBEBE"/>
</linearGradient>
</defs>
</svg>
