<svg width="574" height="409" viewBox="0 0 574 409" fill="none" xmlns="http://www.w3.org/2000/svg">
<mask id="mask0" mask-type="alpha" maskUnits="userSpaceOnUse" x="0" y="5" width="393" height="359">
<path fill-rule="evenodd" clip-rule="evenodd" d="M346.193 166.772L275.232 40.4568L226.497 40.4568C234.785 55.6895 245.65 75.7161 256.462 95.6658C267.333 115.725 278.155 135.714 286.259 150.688C289.728 157.097 292.698 162.587 294.962 166.772L346.193 166.772ZM265.146 184.273C262.87 180.067 259.863 174.51 256.343 168.006C248.241 153.036 237.422 133.053 226.556 113.002C215.688 92.9489 204.776 72.8353 196.486 57.5998C192.751 50.7354 189.554 44.873 187.136 40.4568L117.662 40.4568L92.0792 85.5165L152.964 85.5165C159.21 85.5165 164.98 88.9715 168.089 94.5762L241.783 227.419L265.146 184.273ZM271.118 245.811L294.717 202.228L346.193 202.228L321.709 245.811L271.118 245.811ZM301.79 281.268L242.247 281.268C235.989 281.268 230.21 277.806 227.096 272.192C227.096 272.192 227.096 272.192 227.096 272.192L153.23 139.039L127.525 186.512L205.469 328.543L275.232 328.543L301.79 281.268ZM166.049 328.543L96.7292 202.228L45.9461 202.228L117.662 328.543L166.049 328.543ZM45.9461 166.772L98.9202 166.772L123.718 120.973L71.9484 120.973L45.9461 166.772ZM182.493 32.0616C182.491 32.0579 182.513 32.0945 182.564 32.182C182.52 32.1089 182.494 32.0653 182.493 32.0616ZM388.714 171.883C393.097 179.684 393.097 189.316 388.714 197.117L301.984 351.502C297.637 359.239 289.639 364 280.987 364L111.938 364C103.326 364 95.3579 359.283 90.9971 351.602L3.34423 197.217C-1.11341 189.366 -1.11341 179.634 3.34423 171.783L90.9971 17.3981C95.3578 9.71748 103.326 4.99999 111.938 4.99999L280.987 5C289.639 5 297.637 9.76096 301.984 17.4981L388.714 171.883Z" fill="#F7F7F7"/>
</mask>
<g mask="url(#mask0)">
<path d="M101.909 365L8.07222 200.652C2.45159 190.808 2.45841 178.725 8.09016 168.887L101.909 5M105.214 365L11.3766 200.652C5.75599 190.808 5.76281 178.725 11.3946 168.887L105.214 5M108.518 365L14.681 200.652C9.06039 190.808 9.06721 178.725 14.699 168.887L108.518 5M111.823 365L17.9854 200.652C12.3648 190.808 12.3716 178.725 18.0034 168.887L111.823 5M115.127 365L21.2898 200.652C15.6692 190.808 15.676 178.725 21.3078 168.887L115.127 5M118.431 365L24.5942 200.652C18.9736 190.808 18.9804 178.725 24.6122 168.887L118.431 5M121.736 365L27.8986 200.652C22.278 190.808 22.2848 178.725 27.9166 168.887L121.736 5M125.04 365L31.203 200.652C25.5824 190.808 25.5892 178.725 31.221 168.887L125.04 5M128.345 365L34.5074 200.652C28.8868 190.808 28.8936 178.725 34.5254 168.887L128.345 5M131.649 365L37.8118 200.652C32.1912 190.808 32.198 178.725 37.8298 168.887L131.649 5M134.953 365L41.1162 200.652C35.4956 190.808 35.5024 178.725 41.1342 168.887L134.953 5M138.258 365L44.4206 200.652C38.8 190.808 38.8068 178.725 44.4386 168.887L138.258 5M141.562 365L47.725 200.652C42.1044 190.808 42.1112 178.725 47.743 168.887L141.562 5M144.867 365L51.0294 200.652C45.4088 190.808 45.4156 178.725 51.0474 168.887L144.867 5M148.171 365L54.3338 200.652C48.7132 190.808 48.72 178.725 54.3517 168.887L148.171 5M151.475 365L57.6382 200.652C52.0176 190.808 52.0244 178.725 57.6561 168.887L151.475 5M154.78 365L60.9426 200.652C55.322 190.808 55.3288 178.725 60.9605 168.887L154.78 5M158.084 365L64.247 200.652C58.6264 190.808 58.6332 178.725 64.2649 168.887L158.084 5M161.389 365L67.5514 200.652C61.9308 190.808 61.9376 178.725 67.5693 168.887L161.389 5M164.693 365L70.8558 200.652C65.2352 190.808 65.242 178.725 70.8737 168.887L164.693 5M167.997 365L74.1602 200.652C68.5396 190.808 68.5464 178.725 74.1781 168.887L167.997 5M171.302 365L77.4646 200.652C71.844 190.808 71.8508 178.725 77.4825 168.887L171.302 5M174.606 365L80.769 200.652C75.1484 190.808 75.1552 178.725 80.7869 168.887L174.606 5M177.911 365L84.0734 200.652C78.4528 190.808 78.4596 178.725 84.0913 168.887L177.911 5M181.215 365L87.3778 200.652C81.7572 190.808 81.764 178.725 87.3957 168.887L181.215 5M184.519 365L90.6822 200.652C85.0616 190.808 85.0684 178.725 90.7001 168.887L184.519 5M187.824 365L93.9866 200.652C88.366 190.808 88.3728 178.725 94.0045 168.887L187.824 5M191.128 365L97.291 200.652C91.6704 190.808 91.6772 178.725 97.3089 168.887L191.128 5M194.433 365L100.595 200.652C94.9748 190.808 94.9816 178.725 100.613 168.887L194.433 5M197.737 365L103.9 200.652C98.2792 190.808 98.286 178.725 103.918 168.887L197.737 5M201.041 365L107.204 200.652C101.584 190.808 101.59 178.725 107.222 168.887L201.041 5M204.346 365L110.509 200.652C104.888 190.808 104.895 178.725 110.527 168.887L204.346 5M207.65 365L113.813 200.652C108.192 190.808 108.199 178.725 113.831 168.887L207.65 5M210.955 365L117.117 200.652C111.497 190.808 111.504 178.725 117.135 168.887L210.955 5M214.259 365L120.422 200.652C114.801 190.808 114.808 178.725 120.44 168.887L214.259 5M217.563 365L123.726 200.652C118.106 190.808 118.112 178.725 123.744 168.887L217.563 5M220.868 365L127.031 200.652C121.41 190.808 121.417 178.725 127.049 168.887L220.868 5M224.172 365L130.335 200.652C124.714 190.808 124.721 178.725 130.353 168.887L224.172 5M227.477 365L133.639 200.652C128.019 190.808 128.026 178.725 133.657 168.887L227.477 5M230.781 365L136.944 200.652C131.323 190.808 131.33 178.725 136.962 168.887L230.781 5M234.085 365L140.248 200.652C134.628 190.808 134.634 178.725 140.266 168.887L234.085 5M237.39 365L143.553 200.652C137.932 190.808 137.939 178.725 143.571 168.887L237.39 5M240.694 365L146.857 200.652C141.236 190.808 141.243 178.725 146.875 168.887L240.694 5M243.999 365L150.161 200.652C144.541 190.808 144.548 178.725 150.179 168.887L243.999 5M247.303 365L153.466 200.652C147.845 190.808 147.852 178.725 153.484 168.887L247.303 5M250.607 365L156.77 200.652C151.15 190.808 151.156 178.725 156.788 168.887L250.607 5M253.912 365L160.075 200.652C154.454 190.808 154.461 178.725 160.093 168.887L253.912 5M257.216 365L163.379 200.652C157.758 190.808 157.765 178.725 163.397 168.887L257.216 5M260.521 365L166.683 200.652C161.063 190.808 161.07 178.725 166.701 168.887L260.521 5M263.825 365L169.988 200.652C164.367 190.808 164.374 178.725 170.006 168.887L263.825 5M267.129 365L173.292 200.652C167.672 190.808 167.678 178.725 173.31 168.887L267.129 5M270.434 365L176.597 200.652C170.976 190.808 170.983 178.725 176.615 168.887L270.434 5M273.738 365L179.901 200.652C174.28 190.808 174.287 178.725 179.919 168.887L273.738 5M277.043 365L183.205 200.652C177.585 190.808 177.592 178.725 183.223 168.887L277.043 5M280.347 365L186.51 200.652C180.889 190.808 180.896 178.725 186.528 168.887L280.347 5M283.651 365L189.814 200.652C184.194 190.808 184.2 178.725 189.832 168.887L283.651 5M286.956 365L193.119 200.652C187.498 190.808 187.505 178.725 193.137 168.887L286.956 5M290.26 365L196.423 200.652C190.802 190.808 190.809 178.725 196.441 168.887L290.26 5M293.565 365L199.727 200.652C194.107 190.808 194.114 178.725 199.745 168.887L293.565 5M296.869 365L203.032 200.652C197.411 190.808 197.418 178.725 203.05 168.887L296.869 5M300.173 365L206.336 200.652C200.716 190.808 200.722 178.725 206.354 168.887L300.173 5M303.478 365L209.641 200.652C204.02 190.808 204.027 178.725 209.659 168.887L303.478 5M306.782 365L212.945 200.652C207.324 190.808 207.331 178.725 212.963 168.887L306.782 5M310.087 365L216.249 200.652C210.629 190.808 210.636 178.725 216.267 168.887L310.087 5M313.391 365L219.554 200.652C213.933 190.808 213.94 178.725 219.572 168.887L313.391 5M316.695 365L222.858 200.652C217.238 190.808 217.244 178.725 222.876 168.887L316.695 5M320 365L226.163 200.652C220.542 190.808 220.549 178.725 226.181 168.887L320 5M323.304 365L229.467 200.652C223.846 190.808 223.853 178.725 229.485 168.887L323.304 5M326.609 365L232.771 200.652C227.151 190.808 227.158 178.725 232.789 168.887L326.609 5M329.913 365L236.076 200.652C230.455 190.808 230.462 178.725 236.094 168.887L329.913 5M333.217 365L239.38 200.652C233.76 190.808 233.766 178.725 239.398 168.887L333.217 5M336.522 365L242.685 200.652C237.064 190.808 237.071 178.725 242.703 168.887L336.522 5M339.826 365L245.989 200.652C240.368 190.808 240.375 178.725 246.007 168.887L339.826 5M343.131 365L249.293 200.652C243.673 190.808 243.68 178.725 249.311 168.887L343.131 5M346.435 365L252.598 200.652C246.977 190.808 246.984 178.725 252.616 168.887L346.435 5M349.739 365L255.902 200.652C250.282 190.808 250.288 178.725 255.92 168.887L349.739 5M353.044 365L259.207 200.652C253.586 190.808 253.593 178.725 259.225 168.887L353.044 5M356.348 365L262.511 200.652C256.89 190.808 256.897 178.725 262.529 168.887L356.348 5M359.653 365L265.815 200.652C260.195 190.808 260.202 178.725 265.833 168.887L359.653 5M362.957 365L269.12 200.652C263.499 190.808 263.506 178.725 269.138 168.887L362.957 5M366.261 365L272.424 200.652C266.804 190.808 266.81 178.725 272.442 168.887L366.261 5M369.566 365L275.729 200.652C270.108 190.808 270.115 178.725 275.747 168.887L369.566 5M372.87 365L279.033 200.652C273.412 190.808 273.419 178.725 279.051 168.887L372.87 5M376.175 365L282.337 200.652C276.717 190.808 276.724 178.725 282.355 168.887L376.175 5M379.479 365L285.642 200.652C280.021 190.808 280.028 178.725 285.66 168.887L379.479 5M382.783 365L288.946 200.652C283.326 190.808 283.332 178.725 288.964 168.887L382.783 5M386.088 365L292.251 200.652C286.63 190.808 286.637 178.725 292.269 168.887L386.088 5M389.392 365L295.555 200.652C289.934 190.808 289.941 178.725 295.573 168.887L389.392 5M392.697 365L298.859 200.652C293.239 190.808 293.246 178.725 298.877 168.887L392.697 5M396.001 365L302.164 200.652C296.543 190.808 296.55 178.725 302.182 168.887L396.001 5" stroke="#5C677D" stroke-opacity="0.07" stroke-width="2"/>
</g>
<path d="M354.611 46.9264L354.611 46.9267L420.84 162.094C425.553 170.29 427.789 174.2 428.664 178.333C429.446 182.022 429.446 185.835 428.664 189.524C427.789 193.657 425.553 197.567 420.84 205.763L354.611 320.93C349.871 329.173 347.603 333.094 344.451 335.939C341.638 338.478 338.321 340.397 334.717 341.57C330.68 342.884 326.15 342.896 316.642 342.896L182.909 342.896C173.401 342.896 168.871 342.884 164.834 341.57C161.23 340.397 157.913 338.478 155.1 335.939C151.948 333.094 149.68 329.173 144.94 320.93L78.7111 205.763C73.9978 197.567 71.7624 193.657 70.8868 189.524C70.1053 185.835 70.1053 182.022 70.8868 178.333C71.7624 174.2 73.9978 170.29 78.7111 162.094L144.94 46.9267C149.68 38.6842 151.948 34.7632 155.1 31.9184C157.913 29.379 161.23 27.4604 164.834 26.2874C168.871 24.9733 173.401 24.9616 182.909 24.9616L316.642 24.9616C326.15 24.9616 330.68 24.9733 334.717 26.2874C338.321 27.4604 341.638 29.379 344.451 31.9184C347.592 34.7532 349.855 38.6567 354.561 46.8396C354.578 46.8686 354.594 46.8974 354.611 46.9264Z" stroke="#1CBA6E" stroke-width="2"/>
<g filter="url(#filter0_d)">
<path d="M217.789 305.861L160.55 206.704C155.84 198.544 153.485 194.464 152.563 190.127C151.748 186.29 151.748 182.324 152.563 178.486C153.485 174.149 155.84 170.069 160.55 161.91L217.789 62.7518C222.5 54.5903 224.855 50.5096 228.151 47.5417C231.067 44.9158 234.503 42.9321 238.235 41.7194C242.453 40.3488 247.165 40.3488 256.588 40.3488L366.754 40.3487C376.178 40.3487 380.89 40.3487 385.108 41.7194C388.84 42.9321 392.275 44.9158 395.191 47.5417C398.487 50.5096 400.843 54.5903 405.554 62.7518L462.792 161.91C467.502 170.069 469.857 174.149 470.779 178.486C471.595 182.323 471.595 186.29 470.779 190.127C469.857 194.464 467.502 198.544 462.792 206.704L405.554 305.861C400.843 314.023 398.487 318.104 395.191 321.071C392.275 323.697 388.84 325.681 385.108 326.894C380.89 328.264 376.178 328.264 366.754 328.264L256.588 328.264C247.165 328.264 242.453 328.264 238.235 326.894C234.503 325.681 231.067 323.697 228.151 321.071C224.855 318.104 222.5 314.023 217.789 305.861L217.789 305.861Z" fill="url(#paint0_linear)"/>
</g>
<path d="M317.821 339.348L243.658 210.548C238.298 201.24 235.618 196.585 234.569 191.639C233.641 187.262 233.641 182.738 234.569 178.361C235.618 173.415 238.298 168.76 243.658 159.452L317.821 30.6517C323.201 21.3073 325.891 16.6351 329.659 13.2368C332.993 10.2301 336.922 7.95847 341.192 6.56967C346.017 5 351.408 5 362.191 5L522.117 5C540.038 5 548.999 5 555.844 8.4878C561.865 11.5558 566.761 16.4511 569.829 22.4723C573.317 29.3175 573.317 38.2783 573.317 56.2L573.317 185L573.317 313.8C573.317 331.722 573.317 340.683 569.829 347.528C566.761 353.549 561.865 358.444 555.844 361.512C548.999 365 540.038 365 522.117 365L362.191 365C351.408 365 346.017 365 341.192 363.43C336.922 362.042 332.993 359.77 329.659 356.763C325.891 353.365 323.201 348.693 317.821 339.348Z" fill="white"/>
<path d="M403.387 179.698H377.057C376.142 160.09 368.278 142.267 355.874 128.645L387.925 96.5944C389.428 95.0913 389.428 92.6539 387.925 91.1502C386.422 89.6471 383.985 89.6471 382.481 91.1502L350.43 123.201C336.808 110.798 318.985 102.934 299.377 102.019V72.467C299.377 70.3411 297.653 68.6177 295.528 68.6177C293.402 68.6177 291.678 70.3411 291.678 72.467V102.018C272.07 102.933 254.247 110.797 240.625 123.201L212.442 95.0175C210.938 93.5143 208.501 93.5143 206.997 95.0175C205.494 96.5207 205.494 98.958 206.997 100.462L235.181 128.645C222.777 142.266 214.913 160.089 213.998 179.698H191.287C189.161 179.698 187.438 181.421 187.438 183.547C187.438 185.673 189.161 187.396 191.287 187.396H213.999C214.914 207.005 222.778 224.827 235.181 238.449L206.998 266.632C205.494 268.135 205.494 270.573 206.998 272.076C207.749 272.828 208.734 273.204 209.72 273.204C210.705 273.204 211.69 272.828 212.442 272.076L240.625 243.893C254.247 256.297 272.07 264.16 291.678 265.076V294.627C291.678 296.753 293.402 298.476 295.528 298.476C297.653 298.476 299.377 296.753 299.377 294.627V265.076C318.985 264.16 336.808 256.297 350.43 243.893L382.481 275.944C383.232 276.696 384.218 277.072 385.203 277.072C386.188 277.072 387.173 276.695 387.925 275.944C389.428 274.441 389.428 272.004 387.925 270.5L355.874 238.449C368.278 224.827 376.142 207.005 377.057 187.396H403.387C405.514 187.396 407.237 185.673 407.237 183.547C407.237 181.421 405.514 179.698 403.387 179.698ZM295.528 257.471C254.766 257.471 221.604 224.309 221.604 183.547C221.604 142.786 254.766 109.624 295.528 109.624C336.289 109.624 369.451 142.786 369.451 183.547C369.451 224.309 336.289 257.471 295.528 257.471Z" fill="url(#paint1_linear)"/>
<path d="M404.368 179.698H378.038C377.123 160.09 369.259 142.267 356.856 128.645L388.906 96.5944C390.41 95.0913 390.41 92.6539 388.906 91.1502C387.403 89.6471 384.966 89.6471 383.462 91.1502L351.411 123.201C337.789 110.798 319.966 102.934 300.358 102.019V72.467C300.358 70.3411 298.635 68.6177 296.509 68.6177C294.383 68.6177 292.659 70.3411 292.659 72.467V102.018C273.051 102.933 255.228 110.797 241.606 123.201L213.423 95.0175C211.919 93.5143 209.482 93.5143 207.978 95.0175C206.475 96.5207 206.475 98.958 207.978 100.462L236.162 128.645C223.758 142.266 215.894 160.089 214.979 179.698H192.268C190.142 179.698 188.419 181.421 188.419 183.547C188.419 185.673 190.143 187.396 192.268 187.396H214.98C215.895 207.005 223.759 224.827 236.162 238.449L207.979 266.632C206.476 268.135 206.476 270.573 207.979 272.076C208.731 272.828 209.716 273.204 210.701 273.204C211.686 273.204 212.672 272.828 213.423 272.076L241.606 243.893C255.228 256.297 273.051 264.16 292.659 265.076V294.627C292.659 296.753 294.383 298.476 296.509 298.476C298.635 298.476 300.358 296.753 300.358 294.627V265.076C319.966 264.16 337.789 256.297 351.411 243.893L383.462 275.944C384.214 276.696 385.199 277.072 386.184 277.072C387.169 277.072 388.154 276.695 388.906 275.944C390.41 274.441 390.41 272.004 388.906 270.5L356.856 238.449C369.26 224.827 377.123 207.005 378.038 187.396H404.368C406.495 187.396 408.218 185.673 408.218 183.547C408.218 181.421 406.495 179.698 404.368 179.698ZM296.509 257.471C255.747 257.471 222.585 224.309 222.585 183.547C222.585 142.786 255.747 109.624 296.509 109.624C337.27 109.624 370.432 142.786 370.432 183.547C370.432 224.309 337.27 257.471 296.509 257.471Z" fill="url(#paint2_linear)"/>
<path d="M405.35 179.698H379.019C378.104 160.09 370.24 142.267 357.837 128.645L389.887 96.5944C391.391 95.0913 391.391 92.6539 389.887 91.1502C388.384 89.6471 385.947 89.6471 384.443 91.1502L352.392 123.201C338.77 110.798 320.948 102.934 301.339 102.019V72.467C301.339 70.3411 299.616 68.6177 297.49 68.6177C295.364 68.6177 293.64 70.3411 293.64 72.467V102.018C274.032 102.933 256.209 110.797 242.588 123.201L214.404 95.0175C212.9 93.5143 210.464 93.5143 208.959 95.0175C207.456 96.5207 207.456 98.958 208.959 100.462L237.143 128.645C224.739 142.266 216.875 160.089 215.961 179.698H193.25C191.123 179.698 189.4 181.421 189.4 183.547C189.4 185.673 191.124 187.396 193.25 187.396H215.961C216.876 207.005 224.74 224.827 237.143 238.449L208.96 266.632C207.457 268.135 207.457 270.573 208.96 272.076C209.712 272.828 210.697 273.204 211.682 273.204C212.667 273.204 213.653 272.828 214.405 272.076L242.588 243.893C256.209 256.297 274.032 264.16 293.64 265.076V294.627C293.64 296.753 295.364 298.476 297.49 298.476C299.616 298.476 301.339 296.753 301.339 294.627V265.076C320.948 264.16 338.77 256.297 352.392 243.893L384.443 275.944C385.195 276.696 386.18 277.072 387.165 277.072C388.15 277.072 389.136 276.695 389.887 275.944C391.391 274.441 391.391 272.004 389.887 270.5L357.837 238.449C370.241 224.827 378.104 207.005 379.019 187.396H405.35C407.476 187.396 409.199 185.673 409.199 183.547C409.199 181.421 407.476 179.698 405.35 179.698ZM297.49 257.471C256.728 257.471 223.567 224.309 223.567 183.547C223.567 142.786 256.728 109.624 297.49 109.624C338.251 109.624 371.413 142.786 371.413 183.547C371.413 224.309 338.251 257.471 297.49 257.471Z" fill="url(#paint3_linear)"/>
<path d="M406.331 179.698H380C379.085 160.09 371.221 142.267 358.818 128.645L390.869 96.5944C392.372 95.0913 392.372 92.6539 390.869 91.1502C389.365 89.6471 386.928 89.6471 385.424 91.1502L353.373 123.201C339.751 110.798 321.929 102.934 302.32 102.019V72.467C302.32 70.3411 300.597 68.6177 298.471 68.6177C296.345 68.6177 294.622 70.3411 294.622 72.467V102.018C275.013 102.933 257.19 110.797 243.569 123.201L215.385 95.0175C213.882 93.5143 211.445 93.5143 209.941 95.0175C208.437 96.5207 208.437 98.958 209.941 100.462L238.124 128.645C225.72 142.266 217.856 160.089 216.942 179.698H194.231C192.104 179.698 190.381 181.421 190.381 183.547C190.381 185.673 192.105 187.396 194.231 187.396H216.942C217.857 207.005 225.721 224.827 238.125 238.449L209.941 266.632C208.438 268.135 208.438 270.573 209.941 272.076C210.693 272.828 211.678 273.204 212.663 273.204C213.648 273.204 214.634 272.828 215.386 272.076L243.569 243.893C257.19 256.297 275.013 264.16 294.622 265.076V294.627C294.622 296.753 296.345 298.476 298.471 298.476C300.597 298.476 302.32 296.753 302.32 294.627V265.076C321.929 264.16 339.751 256.297 353.373 243.893L385.424 275.944C386.176 276.696 387.161 277.072 388.146 277.072C389.131 277.072 390.117 276.695 390.869 275.944C392.372 274.441 392.372 272.004 390.869 270.5L358.818 238.449C371.222 224.827 379.085 207.005 380 187.396H406.331C408.457 187.396 410.18 185.673 410.18 183.547C410.18 181.421 408.457 179.698 406.331 179.698ZM298.471 257.471C257.71 257.471 224.548 224.309 224.548 183.547C224.548 142.786 257.71 109.624 298.471 109.624C339.232 109.624 372.394 142.786 372.394 183.547C372.394 224.309 339.232 257.471 298.471 257.471Z" fill="url(#paint4_linear)"/>
<path d="M407.312 179.698H380.981C380.066 160.09 372.202 142.267 359.799 128.645L391.85 96.5944C393.353 95.0913 393.353 92.6539 391.85 91.1502C390.346 89.6471 387.909 89.6471 386.405 91.1502L354.354 123.201C340.733 110.798 322.91 102.934 303.301 102.019V72.467C303.301 70.3411 301.578 68.6177 299.452 68.6177C297.326 68.6177 295.603 70.3411 295.603 72.467V102.018C275.994 102.933 258.172 110.797 244.55 123.201L216.366 95.0175C214.863 93.5143 212.426 93.5143 210.922 95.0175C209.418 96.5207 209.418 98.958 210.922 100.462L239.105 128.645C226.701 142.266 218.838 160.089 217.923 179.698H195.212C193.085 179.698 191.363 181.421 191.363 183.547C191.363 185.673 193.086 187.396 195.212 187.396H217.923C218.839 207.005 226.702 224.827 239.106 238.449L210.922 266.632C209.419 268.135 209.419 270.573 210.922 272.076C211.674 272.828 212.659 273.204 213.644 273.204C214.629 273.204 215.615 272.828 216.367 272.076L244.55 243.893C258.172 256.297 275.994 264.16 295.603 265.076V294.627C295.603 296.753 297.326 298.476 299.452 298.476C301.578 298.476 303.301 296.753 303.301 294.627V265.076C322.91 264.16 340.733 256.297 354.354 243.893L386.405 275.944C387.157 276.696 388.142 277.072 389.127 277.072C390.112 277.072 391.098 276.695 391.85 275.944C393.353 274.441 393.353 272.004 391.85 270.5L359.799 238.449C372.203 224.827 380.067 207.005 380.981 187.396H407.312C409.438 187.396 411.161 185.673 411.161 183.547C411.161 181.421 409.438 179.698 407.312 179.698ZM299.452 257.471C258.691 257.471 225.529 224.309 225.529 183.547C225.529 142.786 258.691 109.624 299.452 109.624C340.213 109.624 373.375 142.786 373.375 183.547C373.375 224.309 340.213 257.471 299.452 257.471Z" fill="url(#paint5_linear)"/>
<path d="M408.293 179.698H381.962C381.047 160.09 373.184 142.267 360.78 128.645L392.831 96.5944C394.334 95.0913 394.334 92.6539 392.831 91.1502C391.327 89.6471 388.89 89.6471 387.386 91.1502L355.335 123.201C341.714 110.798 323.891 102.934 304.283 102.019V72.467C304.283 70.3411 302.559 68.6177 300.433 68.6177C298.307 68.6177 296.584 70.3411 296.584 72.467V102.018C276.975 102.933 259.153 110.797 245.531 123.201L217.347 95.0175C215.844 93.5143 213.407 93.5143 211.903 95.0175C210.4 96.5207 210.4 98.958 211.903 100.462L240.086 128.645C227.682 142.266 219.819 160.089 218.904 179.698H196.193C194.067 179.698 192.344 181.421 192.344 183.547C192.344 185.673 194.067 187.396 196.193 187.396H218.904C219.82 207.005 227.683 224.827 240.087 238.449L211.903 266.632C210.4 268.135 210.4 270.573 211.903 272.076C212.655 272.828 213.64 273.204 214.626 273.204C215.611 273.204 216.596 272.828 217.348 272.076L245.531 243.893C259.153 256.297 276.975 264.16 296.584 265.076V294.627C296.584 296.753 298.307 298.476 300.433 298.476C302.559 298.476 304.283 296.753 304.283 294.627V265.076C323.891 264.16 341.714 256.297 355.335 243.893L387.386 275.944C388.138 276.696 389.124 277.072 390.109 277.072C391.094 277.072 392.079 276.695 392.831 275.944C394.334 274.441 394.334 272.004 392.831 270.5L360.78 238.449C373.184 224.827 381.048 207.005 381.962 187.396H408.293C410.419 187.396 412.142 185.673 412.142 183.547C412.142 181.421 410.419 179.698 408.293 179.698ZM300.433 257.471C259.672 257.471 226.51 224.309 226.51 183.547C226.51 142.786 259.672 109.624 300.433 109.624C341.195 109.624 374.356 142.786 374.356 183.547C374.356 224.309 341.195 257.471 300.433 257.471Z" fill="url(#paint6_linear)"/>
<path d="M409.274 179.698H382.944C382.028 160.09 374.165 142.267 361.761 128.645L393.812 96.5944C395.315 95.0913 395.315 92.6539 393.812 91.1502C392.308 89.6471 389.872 89.6471 388.367 91.1502L356.317 123.201C342.695 110.798 324.872 102.934 305.264 102.019V72.467C305.264 70.3411 303.54 68.6177 301.414 68.6177C299.288 68.6177 297.565 70.3411 297.565 72.467V102.018C277.957 102.933 260.134 110.797 246.512 123.201L218.329 95.0175C216.825 93.5143 214.388 93.5143 212.884 95.0175C211.381 96.5207 211.381 98.958 212.884 100.462L241.067 128.645C228.663 142.266 220.8 160.089 219.885 179.698H197.174C195.048 179.698 193.325 181.421 193.325 183.547C193.325 185.673 195.048 187.396 197.174 187.396H219.886C220.801 207.005 228.664 224.827 241.068 238.449L212.884 266.632C211.381 268.135 211.381 270.573 212.884 272.076C213.636 272.828 214.621 273.204 215.607 273.204C216.592 273.204 217.577 272.828 218.329 272.076L246.512 243.893C260.134 256.297 277.957 264.16 297.565 265.076V294.627C297.565 296.753 299.288 298.476 301.414 298.476C303.54 298.476 305.264 296.753 305.264 294.627V265.076C324.872 264.16 342.695 256.297 356.317 243.893L388.367 275.944C389.119 276.696 390.105 277.072 391.09 277.072C392.075 277.072 393.06 276.695 393.812 275.944C395.315 274.441 395.315 272.004 393.812 270.5L361.761 238.449C374.165 224.827 382.029 207.005 382.944 187.396H409.274C411.401 187.396 413.124 185.673 413.124 183.547C413.124 181.421 411.401 179.698 409.274 179.698ZM301.414 257.471C260.653 257.471 227.491 224.309 227.491 183.547C227.491 142.786 260.653 109.624 301.414 109.624C342.176 109.624 375.338 142.786 375.338 183.547C375.338 224.309 342.176 257.471 301.414 257.471Z" fill="url(#paint7_linear)"/>
<path d="M410.255 179.698H383.925C383.009 160.09 375.146 142.267 362.742 128.645L394.793 96.5944C396.296 95.0913 396.296 92.6539 394.793 91.1502C393.289 89.6471 390.853 89.6471 389.348 91.1502L357.298 123.201C343.676 110.798 325.853 102.934 306.245 102.019V72.467C306.245 70.3411 304.521 68.6177 302.395 68.6177C300.27 68.6177 298.546 70.3411 298.546 72.467V102.018C278.938 102.933 261.115 110.797 247.493 123.201L219.31 95.0175C217.806 93.5143 215.369 93.5143 213.865 95.0175C212.362 96.5207 212.362 98.958 213.865 100.462L242.049 128.645C229.645 142.266 221.781 160.089 220.866 179.698H198.155C196.029 179.698 194.306 181.421 194.306 183.547C194.306 185.673 196.029 187.396 198.155 187.396H220.867C221.782 207.005 229.646 224.827 242.049 238.449L213.866 266.632C212.362 268.135 212.362 270.573 213.866 272.076C214.617 272.828 215.602 273.204 216.588 273.204C217.573 273.204 218.558 272.828 219.31 272.076L247.493 243.893C261.115 256.297 278.938 264.16 298.546 265.076V294.627C298.546 296.753 300.27 298.476 302.395 298.476C304.521 298.476 306.245 296.753 306.245 294.627V265.076C325.853 264.16 343.676 256.297 357.298 243.893L389.348 275.944C390.1 276.696 391.086 277.072 392.071 277.072C393.056 277.072 394.041 276.695 394.793 275.944C396.296 274.441 396.296 272.004 394.793 270.5L362.742 238.449C375.146 224.827 383.01 207.005 383.925 187.396H410.255C412.382 187.396 414.105 185.673 414.105 183.547C414.105 181.421 412.382 179.698 410.255 179.698ZM302.395 257.471C261.634 257.471 228.472 224.309 228.472 183.547C228.472 142.786 261.634 109.624 302.395 109.624C343.157 109.624 376.319 142.786 376.319 183.547C376.319 224.309 343.157 257.471 302.395 257.471Z" fill="url(#paint8_linear)"/>
<path d="M402.406 179.698H376.075C375.16 160.09 367.296 142.267 354.893 128.645L386.944 96.5944C388.447 95.0913 388.447 92.6539 386.944 91.1502C385.44 89.6471 383.003 89.6471 381.499 91.1502L349.448 123.201C335.827 110.798 318.004 102.934 298.395 102.019V72.467C298.395 70.3411 296.672 68.6177 294.546 68.6177C292.42 68.6177 290.697 70.3411 290.697 72.467V102.018C271.088 102.933 253.266 110.797 239.644 123.201L211.46 95.0175C209.957 93.5143 207.52 93.5143 206.016 95.0175C204.512 96.5207 204.512 98.958 206.016 100.462L234.199 128.645C221.795 142.266 213.932 160.089 213.017 179.698H190.306C188.179 179.698 186.457 181.421 186.457 183.547C186.457 185.673 188.18 187.396 190.306 187.396H213.017C213.933 207.005 221.796 224.827 234.2 238.449L206.016 266.632C204.513 268.135 204.513 270.573 206.016 272.076C206.768 272.828 207.753 273.204 208.738 273.204C209.723 273.204 210.709 272.828 211.461 272.076L239.644 243.893C253.266 256.297 271.088 264.16 290.697 265.076V294.627C290.697 296.753 292.42 298.476 294.546 298.476C296.672 298.476 298.395 296.753 298.395 294.627V265.076C318.004 264.16 335.827 256.297 349.448 243.893L381.499 275.944C382.251 276.696 383.236 277.072 384.221 277.072C385.206 277.072 386.192 276.695 386.944 275.944C388.447 274.441 388.447 272.004 386.944 270.5L354.893 238.449C367.297 224.827 375.161 207.005 376.075 187.396H402.406C404.532 187.396 406.255 185.673 406.255 183.547C406.255 181.421 404.532 179.698 402.406 179.698ZM294.546 257.471C253.785 257.471 220.623 224.309 220.623 183.547C220.623 142.786 253.785 109.624 294.546 109.624C335.307 109.624 368.469 142.786 368.469 183.547C368.469 224.309 335.307 257.471 294.546 257.471Z" fill="url(#paint9_linear)"/>
<path d="M204.053 108.885C215.507 108.885 224.792 99.6 224.792 88.1459C224.792 76.6918 215.507 67.4065 204.053 67.4065C192.599 67.4065 183.313 76.6918 183.313 88.1459C183.313 99.6 192.599 108.885 204.053 108.885Z" fill="url(#paint10_linear)"/>
<path d="M204.053 108.885C215.507 108.885 224.792 99.6 224.792 88.1459C224.792 76.6918 215.507 67.4065 204.053 67.4065C192.599 67.4065 183.313 76.6918 183.313 88.1459C183.313 99.6 192.599 108.885 204.053 108.885Z" fill="white" fill-opacity="0.1"/>
<path d="M199.146 108.885C210.6 108.885 219.885 99.6 219.885 88.1459C219.885 76.6918 210.6 67.4065 199.146 67.4065C187.692 67.4065 178.406 76.6918 178.406 88.1459C178.406 99.6 187.692 108.885 199.146 108.885Z" fill="url(#paint11_linear)"/>
<path d="M199.146 108.885C210.6 108.885 219.885 99.6 219.885 88.1459C219.885 76.6918 210.6 67.4065 199.146 67.4065C187.692 67.4065 178.406 76.6918 178.406 88.1459C178.406 99.6 187.692 108.885 199.146 108.885Z" fill="url(#paint12_linear)" fill-opacity="0.23"/>
<path fill-rule="evenodd" clip-rule="evenodd" d="M199.146 106.923C209.516 106.923 217.923 98.5163 217.923 88.1459C217.923 77.7756 209.516 69.3688 199.146 69.3688C188.775 69.3688 180.369 77.7756 180.369 88.1459C180.369 98.5163 188.775 106.923 199.146 106.923ZM219.885 88.1459C219.885 99.6 210.6 108.885 199.146 108.885C187.692 108.885 178.406 99.6 178.406 88.1459C178.406 76.6918 187.692 67.4065 199.146 67.4065C210.6 67.4065 219.885 76.6918 219.885 88.1459Z" fill="url(#paint13_linear)"/>
<path fill-rule="evenodd" clip-rule="evenodd" d="M199.146 106.923C209.516 106.923 217.923 98.5163 217.923 88.1459C217.923 77.7756 209.516 69.3688 199.146 69.3688C188.775 69.3688 180.369 77.7756 180.369 88.1459C180.369 98.5163 188.775 106.923 199.146 106.923ZM219.885 88.1459C219.885 99.6 210.6 108.885 199.146 108.885C187.692 108.885 178.406 99.6 178.406 88.1459C178.406 76.6918 187.692 67.4065 199.146 67.4065C210.6 67.4065 219.885 76.6918 219.885 88.1459Z" fill="url(#paint14_linear)"/>
<path d="M299.453 87.1096C308.044 87.1096 315.008 80.1455 315.008 71.5548C315.008 62.9641 308.044 56 299.453 56C290.863 56 283.898 62.9641 283.898 71.5548C283.898 80.1455 290.863 87.1096 299.453 87.1096Z" fill="url(#paint15_linear)"/>
<path d="M299.453 87.1096C308.044 87.1096 315.008 80.1455 315.008 71.5548C315.008 62.9641 308.044 56 299.453 56C290.863 56 283.898 62.9641 283.898 71.5548C283.898 80.1455 290.863 87.1096 299.453 87.1096Z" fill="white" fill-opacity="0.1"/>
<path d="M294.547 87.1096C303.138 87.1096 310.102 80.1455 310.102 71.5548C310.102 62.9641 303.138 56 294.547 56C285.956 56 278.992 62.9641 278.992 71.5548C278.992 80.1455 285.956 87.1096 294.547 87.1096Z" fill="url(#paint16_linear)"/>
<path d="M294.547 87.1096C303.138 87.1096 310.102 80.1455 310.102 71.5548C310.102 62.9641 303.138 56 294.547 56C285.956 56 278.992 62.9641 278.992 71.5548C278.992 80.1455 285.956 87.1096 294.547 87.1096Z" fill="url(#paint17_linear)" fill-opacity="0.23"/>
<path fill-rule="evenodd" clip-rule="evenodd" d="M294.547 85.1474C302.054 85.1474 308.14 79.0618 308.14 71.5548C308.14 64.0479 302.054 57.9623 294.547 57.9623C287.04 57.9623 280.954 64.0479 280.954 71.5548C280.954 79.0618 287.04 85.1474 294.547 85.1474ZM310.102 71.5548C310.102 80.1455 303.138 87.1096 294.547 87.1096C285.956 87.1096 278.992 80.1455 278.992 71.5548C278.992 62.9641 285.956 56 294.547 56C303.138 56 310.102 62.9641 310.102 71.5548Z" fill="url(#paint18_linear)"/>
<path fill-rule="evenodd" clip-rule="evenodd" d="M294.547 85.1474C302.054 85.1474 308.14 79.0618 308.14 71.5548C308.14 64.0479 302.054 57.9623 294.547 57.9623C287.04 57.9623 280.954 64.0479 280.954 71.5548C280.954 79.0618 287.04 85.1474 294.547 85.1474ZM310.102 71.5548C310.102 80.1455 303.138 87.1096 294.547 87.1096C285.956 87.1096 278.992 80.1455 278.992 71.5548C278.992 62.9641 285.956 56 294.547 56C303.138 56 310.102 62.9641 310.102 71.5548Z" fill="url(#paint19_linear)"/>
<path d="M299.453 311.095C308.044 311.095 315.008 304.131 315.008 295.54C315.008 286.949 308.044 279.985 299.453 279.985C290.863 279.985 283.898 286.949 283.898 295.54C283.898 304.131 290.863 311.095 299.453 311.095Z" fill="url(#paint20_linear)"/>
<path d="M299.453 311.095C308.044 311.095 315.008 304.131 315.008 295.54C315.008 286.949 308.044 279.985 299.453 279.985C290.863 279.985 283.898 286.949 283.898 295.54C283.898 304.131 290.863 311.095 299.453 311.095Z" fill="white" fill-opacity="0.1"/>
<path d="M294.547 311.095C303.138 311.095 310.102 304.131 310.102 295.54C310.102 286.949 303.138 279.985 294.547 279.985C285.956 279.985 278.992 286.949 278.992 295.54C278.992 304.131 285.956 311.095 294.547 311.095Z" fill="url(#paint21_linear)"/>
<path d="M294.547 311.095C303.138 311.095 310.102 304.131 310.102 295.54C310.102 286.949 303.138 279.985 294.547 279.985C285.956 279.985 278.992 286.949 278.992 295.54C278.992 304.131 285.956 311.095 294.547 311.095Z" fill="url(#paint22_linear)" fill-opacity="0.23"/>
<path fill-rule="evenodd" clip-rule="evenodd" d="M294.547 309.133C302.054 309.133 308.14 303.047 308.14 295.54C308.14 288.033 302.054 281.948 294.547 281.948C287.04 281.948 280.954 288.033 280.954 295.54C280.954 303.047 287.04 309.133 294.547 309.133ZM310.102 295.54C310.102 304.131 303.138 311.095 294.547 311.095C285.956 311.095 278.992 304.131 278.992 295.54C278.992 286.949 285.956 279.985 294.547 279.985C303.138 279.985 310.102 286.949 310.102 295.54Z" fill="url(#paint23_linear)"/>
<path fill-rule="evenodd" clip-rule="evenodd" d="M294.547 309.133C302.054 309.133 308.14 303.047 308.14 295.54C308.14 288.033 302.054 281.948 294.547 281.948C287.04 281.948 280.954 288.033 280.954 295.54C280.954 303.047 287.04 309.133 294.547 309.133ZM310.102 295.54C310.102 304.131 303.138 311.095 294.547 311.095C285.956 311.095 278.992 304.131 278.992 295.54C278.992 286.949 285.956 279.985 294.547 279.985C303.138 279.985 310.102 286.949 310.102 295.54Z" fill="url(#paint24_linear)"/>
<path d="M411.445 199.102C420.036 199.102 427 192.138 427 183.547C427 174.957 420.036 167.993 411.445 167.993C402.855 167.993 395.891 174.957 395.891 183.547C395.891 192.138 402.855 199.102 411.445 199.102Z" fill="url(#paint25_linear)"/>
<path d="M411.445 199.102C420.036 199.102 427 192.138 427 183.547C427 174.957 420.036 167.993 411.445 167.993C402.855 167.993 395.891 174.957 395.891 183.547C395.891 192.138 402.855 199.102 411.445 199.102Z" fill="white" fill-opacity="0.1"/>
<path d="M406.539 199.102C415.13 199.102 422.094 192.138 422.094 183.547C422.094 174.957 415.13 167.993 406.539 167.993C397.949 167.993 390.984 174.957 390.984 183.547C390.984 192.138 397.949 199.102 406.539 199.102Z" fill="url(#paint26_linear)"/>
<path d="M406.539 199.102C415.13 199.102 422.094 192.138 422.094 183.547C422.094 174.957 415.13 167.993 406.539 167.993C397.949 167.993 390.984 174.957 390.984 183.547C390.984 192.138 397.949 199.102 406.539 199.102Z" fill="url(#paint27_linear)" fill-opacity="0.23"/>
<path fill-rule="evenodd" clip-rule="evenodd" d="M406.539 197.14C414.046 197.14 420.132 191.054 420.132 183.547C420.132 176.041 414.046 169.955 406.539 169.955C399.032 169.955 392.947 176.041 392.947 183.547C392.947 191.054 399.032 197.14 406.539 197.14ZM422.094 183.547C422.094 192.138 415.13 199.102 406.539 199.102C397.949 199.102 390.984 192.138 390.984 183.547C390.984 174.957 397.949 167.993 406.539 167.993C415.13 167.993 422.094 174.957 422.094 183.547Z" fill="url(#paint28_linear)"/>
<path fill-rule="evenodd" clip-rule="evenodd" d="M406.539 197.14C414.046 197.14 420.132 191.054 420.132 183.547C420.132 176.041 414.046 169.955 406.539 169.955C399.032 169.955 392.947 176.041 392.947 183.547C392.947 191.054 399.032 197.14 406.539 197.14ZM422.094 183.547C422.094 192.138 415.13 199.102 406.539 199.102C397.949 199.102 390.984 192.138 390.984 183.547C390.984 174.957 397.949 167.993 406.539 167.993C415.13 167.993 422.094 174.957 422.094 183.547Z" fill="url(#paint29_linear)"/>
<path d="M187.462 199.102C196.052 199.102 203.016 192.138 203.016 183.547C203.016 174.957 196.052 167.993 187.462 167.993C178.871 167.993 171.907 174.957 171.907 183.547C171.907 192.138 178.871 199.102 187.462 199.102Z" fill="url(#paint30_linear)"/>
<path d="M187.462 199.102C196.052 199.102 203.016 192.138 203.016 183.547C203.016 174.957 196.052 167.993 187.462 167.993C178.871 167.993 171.907 174.957 171.907 183.547C171.907 192.138 178.871 199.102 187.462 199.102Z" fill="white" fill-opacity="0.1"/>
<path d="M182.555 199.102C191.146 199.102 198.11 192.138 198.11 183.547C198.11 174.957 191.146 167.993 182.555 167.993C173.964 167.993 167 174.957 167 183.547C167 192.138 173.964 199.102 182.555 199.102Z" fill="url(#paint31_linear)"/>
<path d="M182.555 199.102C191.146 199.102 198.11 192.138 198.11 183.547C198.11 174.957 191.146 167.993 182.555 167.993C173.964 167.993 167 174.957 167 183.547C167 192.138 173.964 199.102 182.555 199.102Z" fill="url(#paint32_linear)" fill-opacity="0.23"/>
<path fill-rule="evenodd" clip-rule="evenodd" d="M182.555 197.14C190.062 197.14 196.147 191.054 196.147 183.547C196.147 176.041 190.062 169.955 182.555 169.955C175.048 169.955 168.962 176.041 168.962 183.547C168.962 191.054 175.048 197.14 182.555 197.14ZM198.11 183.547C198.11 192.138 191.146 199.102 182.555 199.102C173.964 199.102 167 192.138 167 183.547C167 174.957 173.964 167.993 182.555 167.993C191.146 167.993 198.11 174.957 198.11 183.547Z" fill="url(#paint33_linear)"/>
<path fill-rule="evenodd" clip-rule="evenodd" d="M182.555 197.14C190.062 197.14 196.147 191.054 196.147 183.547C196.147 176.041 190.062 169.955 182.555 169.955C175.048 169.955 168.962 176.041 168.962 183.547C168.962 191.054 175.048 197.14 182.555 197.14ZM198.11 183.547C198.11 192.138 191.146 199.102 182.555 199.102C173.964 199.102 167 192.138 167 183.547C167 174.957 173.964 167.993 182.555 167.993C191.146 167.993 198.11 174.957 198.11 183.547Z" fill="url(#paint34_linear)"/>
<path d="M315.597 134.248C324.402 144.153 324.402 160.213 315.597 170.119C311.882 174.299 307.192 176.715 302.35 177.367C298.674 177.862 292.793 178.283 289.362 177.441C286.407 176.21 286.086 172.789 283.712 170.119C274.908 160.213 272.457 140.232 281.262 130.327C285.602 125.444 294.018 126.82 299.41 126.82C305.046 127.064 311.133 129.225 315.597 134.248Z" fill="url(#paint35_linear)"/>
<path d="M334.239 195.828C324.239 188.226 312.461 184.323 300.635 184.119C288.156 183.903 275.623 183.885 265.07 191.907C262.021 194.223 260.199 202.058 260.199 206.3V228.277H339.111V206.3C339.111 202.058 337.289 198.144 334.239 195.828Z" fill="url(#paint36_linear)"/>
<path d="M305.795 134.251C314.6 144.157 314.6 160.217 305.795 170.122C296.99 180.027 282.714 180.027 273.91 170.122C265.105 160.217 265.105 144.157 273.91 134.251C282.714 124.346 296.99 124.346 305.795 134.251Z" fill="url(#paint37_linear)"/>
<path d="M324.436 195.831C303.883 180.208 275.821 180.208 255.267 195.831C252.218 198.147 250.396 202.061 250.396 206.303V228.28H329.308V206.303C329.308 202.061 327.486 198.147 324.436 195.831Z" fill="url(#paint38_linear)"/>
<path fill-rule="evenodd" clip-rule="evenodd" d="M275.009 135.228C266.699 144.576 266.699 159.797 275.009 169.145C283.228 178.392 296.476 178.392 304.696 169.145C313.005 159.797 313.005 144.576 304.696 135.228L305.795 134.251C314.6 144.157 314.6 160.217 305.795 170.122C296.99 180.027 282.714 180.027 273.91 170.122C265.105 160.217 265.105 144.157 273.91 134.251C282.714 124.346 296.99 124.346 305.795 134.251L304.696 135.228C296.476 125.981 283.228 125.981 275.009 135.228ZM323.547 197.002L323.547 197.002C303.519 181.778 276.185 181.778 256.157 197.002L256.157 197.002C253.516 199.008 251.866 202.464 251.866 206.303V226.81H327.837V206.303C327.837 202.464 326.188 199.008 323.547 197.002ZM329.308 228.28H250.396V206.303C250.396 202.061 252.218 198.147 255.267 195.831C275.821 180.208 303.883 180.208 324.436 195.831C327.486 198.147 329.308 202.061 329.308 206.303V228.28Z" fill="url(#paint39_linear)"/>
<path fill-rule="evenodd" clip-rule="evenodd" d="M275.009 135.228C266.699 144.576 266.699 159.797 275.009 169.145C283.228 178.392 296.476 178.392 304.696 169.145C313.005 159.797 313.005 144.576 304.696 135.228L305.795 134.251C314.6 144.157 314.6 160.217 305.795 170.122C296.99 180.027 282.714 180.027 273.91 170.122C265.105 160.217 265.105 144.157 273.91 134.251C282.714 124.346 296.99 124.346 305.795 134.251L304.696 135.228C296.476 125.981 283.228 125.981 275.009 135.228ZM323.547 197.002L323.547 197.002C303.519 181.778 276.185 181.778 256.157 197.002L256.157 197.002C253.516 199.008 251.866 202.464 251.866 206.303V226.81H327.837V206.303C327.837 202.464 326.188 199.008 323.547 197.002ZM329.308 228.28H250.396V206.303C250.396 202.061 252.218 198.147 255.267 195.831C275.821 180.208 303.883 180.208 324.436 195.831C327.486 198.147 329.308 202.061 329.308 206.303V228.28Z" fill="url(#paint40_linear)"/>
<g filter="url(#filter1_d)">
<path fill-rule="evenodd" clip-rule="evenodd" d="M290.053 167.69C295.348 167.69 299.924 164.229 302.082 159.21L303.272 159.855C300.903 165.367 295.875 169.173 290.053 169.173C284.232 169.173 279.204 165.367 276.834 159.855L278.024 159.21C280.182 164.229 284.758 167.69 290.053 167.69Z" fill="url(#paint41_linear)"/>
<path fill-rule="evenodd" clip-rule="evenodd" d="M290.436 167.69C295.731 167.69 300.308 164.229 302.465 159.21L303.655 159.855C301.286 165.367 296.258 169.173 290.436 169.173C284.615 169.173 279.587 165.367 277.217 159.855L278.407 159.21C280.565 164.229 285.141 167.69 290.436 167.69Z" fill="url(#paint42_linear)"/>
<path fill-rule="evenodd" clip-rule="evenodd" d="M290.819 167.69C296.115 167.69 300.691 164.229 302.848 159.21L304.039 159.855C301.669 165.367 296.641 169.173 290.819 169.173C284.998 169.173 279.97 165.367 277.6 159.855L278.791 159.21C280.948 164.229 285.524 167.69 290.819 167.69Z" fill="url(#paint43_linear)"/>
<path fill-rule="evenodd" clip-rule="evenodd" d="M291.203 167.69C296.498 167.69 301.074 164.229 303.231 159.21L304.422 159.855C302.052 165.367 297.024 169.173 291.203 169.173C285.381 169.173 280.353 165.367 277.983 159.855L279.174 159.21C281.331 164.229 285.907 167.69 291.203 167.69Z" fill="url(#paint44_linear)"/>
</g>
<path fill-rule="evenodd" clip-rule="evenodd" d="M289.671 167.69C294.966 167.69 299.542 164.229 301.7 159.21L302.89 159.855C300.52 165.367 295.492 169.173 289.671 169.173C283.849 169.173 278.821 165.367 276.452 159.855L277.642 159.21C279.799 164.229 284.376 167.69 289.671 167.69Z" fill="url(#paint45_linear)"/>
<path d="M394.854 108.885C406.308 108.885 415.594 99.6 415.594 88.1459C415.594 76.6918 406.308 67.4065 394.854 67.4065C383.4 67.4065 374.115 76.6918 374.115 88.1459C374.115 99.6 383.4 108.885 394.854 108.885Z" fill="url(#paint46_linear)"/>
<path d="M394.854 108.885C406.308 108.885 415.594 99.6 415.594 88.1459C415.594 76.6918 406.308 67.4065 394.854 67.4065C383.4 67.4065 374.115 76.6918 374.115 88.1459C374.115 99.6 383.4 108.885 394.854 108.885Z" fill="white" fill-opacity="0.1"/>
<path d="M389.948 108.885C401.402 108.885 410.688 99.6 410.688 88.1459C410.688 76.6918 401.402 67.4065 389.948 67.4065C378.494 67.4065 369.209 76.6918 369.209 88.1459C369.209 99.6 378.494 108.885 389.948 108.885Z" fill="url(#paint47_linear)"/>
<path d="M389.948 108.885C401.402 108.885 410.688 99.6 410.688 88.1459C410.688 76.6918 401.402 67.4065 389.948 67.4065C378.494 67.4065 369.209 76.6918 369.209 88.1459C369.209 99.6 378.494 108.885 389.948 108.885Z" fill="url(#paint48_linear)" fill-opacity="0.23"/>
<path fill-rule="evenodd" clip-rule="evenodd" d="M389.948 106.923C400.319 106.923 408.726 98.5163 408.726 88.1459C408.726 77.7756 400.319 69.3688 389.948 69.3688C379.578 69.3688 371.171 77.7756 371.171 88.1459C371.171 98.5163 379.578 106.923 389.948 106.923ZM410.688 88.1459C410.688 99.6 401.402 108.885 389.948 108.885C378.494 108.885 369.209 99.6 369.209 88.1459C369.209 76.6918 378.494 67.4065 389.948 67.4065C401.402 67.4065 410.688 76.6918 410.688 88.1459Z" fill="url(#paint49_linear)"/>
<path fill-rule="evenodd" clip-rule="evenodd" d="M389.948 106.923C400.319 106.923 408.726 98.5163 408.726 88.1459C408.726 77.7756 400.319 69.3688 389.948 69.3688C379.578 69.3688 371.171 77.7756 371.171 88.1459C371.171 98.5163 379.578 106.923 389.948 106.923ZM410.688 88.1459C410.688 99.6 401.402 108.885 389.948 108.885C378.494 108.885 369.209 99.6 369.209 88.1459C369.209 76.6918 378.494 67.4065 389.948 67.4065C401.402 67.4065 410.688 76.6918 410.688 88.1459Z" fill="url(#paint50_linear)"/>
<path d="M394.854 299.688C406.308 299.688 415.594 290.403 415.594 278.949C415.594 267.495 406.308 258.209 394.854 258.209C383.4 258.209 374.115 267.495 374.115 278.949C374.115 290.403 383.4 299.688 394.854 299.688Z" fill="url(#paint51_linear)"/>
<path d="M394.854 299.688C406.308 299.688 415.594 290.403 415.594 278.949C415.594 267.495 406.308 258.209 394.854 258.209C383.4 258.209 374.115 267.495 374.115 278.949C374.115 290.403 383.4 299.688 394.854 299.688Z" fill="white" fill-opacity="0.1"/>
<path d="M389.948 299.688C401.402 299.688 410.688 290.403 410.688 278.949C410.688 267.495 401.402 258.209 389.948 258.209C378.494 258.209 369.209 267.495 369.209 278.949C369.209 290.403 378.494 299.688 389.948 299.688Z" fill="url(#paint52_linear)"/>
<path d="M389.948 299.688C401.402 299.688 410.688 290.403 410.688 278.949C410.688 267.495 401.402 258.209 389.948 258.209C378.494 258.209 369.209 267.495 369.209 278.949C369.209 290.403 378.494 299.688 389.948 299.688Z" fill="url(#paint53_linear)" fill-opacity="0.23"/>
<path fill-rule="evenodd" clip-rule="evenodd" d="M389.948 297.726C400.319 297.726 408.726 289.319 408.726 278.949C408.726 268.579 400.319 260.172 389.948 260.172C379.578 260.172 371.171 268.579 371.171 278.949C371.171 289.319 379.578 297.726 389.948 297.726ZM410.688 278.949C410.688 290.403 401.402 299.688 389.948 299.688C378.494 299.688 369.209 290.403 369.209 278.949C369.209 267.495 378.494 258.209 389.948 258.209C401.402 258.209 410.688 267.495 410.688 278.949Z" fill="url(#paint54_linear)"/>
<path fill-rule="evenodd" clip-rule="evenodd" d="M389.948 297.726C400.319 297.726 408.726 289.319 408.726 278.949C408.726 268.579 400.319 260.172 389.948 260.172C379.578 260.172 371.171 268.579 371.171 278.949C371.171 289.319 379.578 297.726 389.948 297.726ZM410.688 278.949C410.688 290.403 401.402 299.688 389.948 299.688C378.494 299.688 369.209 290.403 369.209 278.949C369.209 267.495 378.494 258.209 389.948 258.209C401.402 258.209 410.688 267.495 410.688 278.949Z" fill="url(#paint55_linear)"/>
<path d="M204.053 299.688C215.507 299.688 224.792 290.403 224.792 278.949C224.792 267.495 215.507 258.209 204.053 258.209C192.599 258.209 183.313 267.495 183.313 278.949C183.313 290.403 192.599 299.688 204.053 299.688Z" fill="url(#paint56_linear)"/>
<path d="M204.053 299.688C215.507 299.688 224.792 290.403 224.792 278.949C224.792 267.495 215.507 258.209 204.053 258.209C192.599 258.209 183.313 267.495 183.313 278.949C183.313 290.403 192.599 299.688 204.053 299.688Z" fill="white" fill-opacity="0.1"/>
<path d="M199.146 299.688C210.6 299.688 219.885 290.403 219.885 278.949C219.885 267.495 210.6 258.209 199.146 258.209C187.692 258.209 178.406 267.495 178.406 278.949C178.406 290.403 187.692 299.688 199.146 299.688Z" fill="url(#paint57_linear)"/>
<path d="M199.146 299.688C210.6 299.688 219.885 290.403 219.885 278.949C219.885 267.495 210.6 258.209 199.146 258.209C187.692 258.209 178.406 267.495 178.406 278.949C178.406 290.403 187.692 299.688 199.146 299.688Z" fill="url(#paint58_linear)" fill-opacity="0.23"/>
<path fill-rule="evenodd" clip-rule="evenodd" d="M199.146 297.726C209.516 297.726 217.923 289.319 217.923 278.949C217.923 268.579 209.516 260.172 199.146 260.172C188.775 260.172 180.369 268.579 180.369 278.949C180.369 289.319 188.775 297.726 199.146 297.726ZM219.885 278.949C219.885 290.403 210.6 299.688 199.146 299.688C187.692 299.688 178.406 290.403 178.406 278.949C178.406 267.495 187.692 258.209 199.146 258.209C210.6 258.209 219.885 267.495 219.885 278.949Z" fill="url(#paint59_linear)"/>
<path fill-rule="evenodd" clip-rule="evenodd" d="M199.146 297.726C209.516 297.726 217.923 289.319 217.923 278.949C217.923 268.579 209.516 260.172 199.146 260.172C188.775 260.172 180.369 268.579 180.369 278.949C180.369 289.319 188.775 297.726 199.146 297.726ZM219.885 278.949C219.885 290.403 210.6 299.688 199.146 299.688C187.692 299.688 178.406 290.403 178.406 278.949C178.406 267.495 187.692 258.209 199.146 258.209C210.6 258.209 219.885 267.495 219.885 278.949Z" fill="url(#paint60_linear)"/>
<defs>
<filter id="filter0_d" x="91.9517" y="0.348633" width="439.439" height="407.916" filterUnits="userSpaceOnUse" color-interpolation-filters="sRGB">
<feFlood flood-opacity="0" result="BackgroundImageFix"/>
<feColorMatrix in="SourceAlpha" type="matrix" values="0 0 0 0 0 0 0 0 0 0 0 0 0 0 0 0 0 0 127 0"/>
<feOffset dy="20"/>
<feGaussianBlur stdDeviation="30"/>
<feColorMatrix type="matrix" values="0 0 0 0 0.945098 0 0 0 0 0.733333 0 0 0 0 0.0588235 0 0 0 0.25 0"/>
<feBlend mode="normal" in2="BackgroundImageFix" result="effect1_dropShadow"/>
<feBlend mode="normal" in="SourceGraphic" in2="effect1_dropShadow" result="shape"/>
</filter>
<filter id="filter1_d" x="276.834" y="159.21" width="29.5878" height="11.9622" filterUnits="userSpaceOnUse" color-interpolation-filters="sRGB">
<feFlood flood-opacity="0" result="BackgroundImageFix"/>
<feColorMatrix in="SourceAlpha" type="matrix" values="0 0 0 0 0 0 0 0 0 0 0 0 0 0 0 0 0 0 127 0"/>
<feOffset dx="2" dy="2"/>
<feColorMatrix type="matrix" values="0 0 0 0 0 0 0 0 0 0 0 0 0 0 0 0 0 0 0.15 0"/>
<feBlend mode="normal" in2="BackgroundImageFix" result="effect1_dropShadow"/>
<feBlend mode="normal" in="SourceGraphic" in2="effect1_dropShadow" result="shape"/>
</filter>
<linearGradient id="paint0_linear" x1="230.759" y1="44.2472" x2="530.623" y2="68.1946" gradientUnits="userSpaceOnUse">
<stop stop-color="#FFDC67"/>
<stop offset="1" stop-color="#F0B90B"/>
</linearGradient>
<linearGradient id="paint1_linear" x1="345.785" y1="75.2794" x2="322.619" y2="281.472" gradientUnits="userSpaceOnUse">
<stop stop-color="#767676"/>
<stop offset="0.135417" stop-color="#606060"/>
<stop offset="0.630208" stop-color="#F8F8F8"/>
<stop offset="1" stop-color="#F8F8F8"/>
</linearGradient>
<linearGradient id="paint2_linear" x1="345.785" y1="75.2794" x2="322.619" y2="281.472" gradientUnits="userSpaceOnUse">
<stop stop-color="#767676"/>
<stop offset="0.135417" stop-color="#606060"/>
<stop offset="0.630208" stop-color="#F8F8F8"/>
<stop offset="1" stop-color="#F8F8F8"/>
</linearGradient>
<linearGradient id="paint3_linear" x1="345.785" y1="75.2794" x2="322.619" y2="281.472" gradientUnits="userSpaceOnUse">
<stop stop-color="#767676"/>
<stop offset="0.135417" stop-color="#606060"/>
<stop offset="0.630208" stop-color="#F8F8F8"/>
<stop offset="1" stop-color="#F8F8F8"/>
</linearGradient>
<linearGradient id="paint4_linear" x1="345.785" y1="75.2794" x2="322.619" y2="281.472" gradientUnits="userSpaceOnUse">
<stop stop-color="#767676"/>
<stop offset="0.135417" stop-color="#606060"/>
<stop offset="0.630208" stop-color="#F8F8F8"/>
<stop offset="1" stop-color="#F8F8F8"/>
</linearGradient>
<linearGradient id="paint5_linear" x1="345.785" y1="75.2794" x2="322.619" y2="281.472" gradientUnits="userSpaceOnUse">
<stop stop-color="#767676"/>
<stop offset="0.135417" stop-color="#606060"/>
<stop offset="0.630208" stop-color="#F8F8F8"/>
<stop offset="1" stop-color="#F8F8F8"/>
</linearGradient>
<linearGradient id="paint6_linear" x1="345.785" y1="75.2794" x2="322.619" y2="281.472" gradientUnits="userSpaceOnUse">
<stop stop-color="#767676"/>
<stop offset="0.135417" stop-color="#606060"/>
<stop offset="0.630208" stop-color="#F8F8F8"/>
<stop offset="1" stop-color="#F8F8F8"/>
</linearGradient>
<linearGradient id="paint7_linear" x1="345.785" y1="75.2794" x2="322.619" y2="281.472" gradientUnits="userSpaceOnUse">
<stop stop-color="#767676"/>
<stop offset="0.135417" stop-color="#606060"/>
<stop offset="0.630208" stop-color="#F8F8F8"/>
<stop offset="1" stop-color="#F8F8F8"/>
</linearGradient>
<linearGradient id="paint8_linear" x1="345.785" y1="75.2794" x2="322.619" y2="281.472" gradientUnits="userSpaceOnUse">
<stop stop-color="#767676"/>
<stop offset="0.135417" stop-color="#606060"/>
<stop offset="0.630208" stop-color="#F8F8F8"/>
<stop offset="1" stop-color="#F8F8F8"/>
</linearGradient>
<linearGradient id="paint9_linear" x1="217.186" y1="112.43" x2="295.952" y2="293.484" gradientUnits="userSpaceOnUse">
<stop stop-color="#F8F8F8"/>
<stop offset="1" stop-color="#BEBEBE"/>
</linearGradient>
<linearGradient id="paint10_linear" x1="191.742" y1="67.2718" x2="191.577" y2="108.885" gradientUnits="userSpaceOnUse">
<stop stop-color="#56D599"/>
<stop offset="0.15625" stop-color="#1EAD64"/>
<stop offset="0.371058" stop-color="#1EAE65"/>
<stop offset="0.75" stop-color="#57D69A"/>
<stop offset="0.91676" stop-color="#1EA65F"/>
<stop offset="1" stop-color="#178E4E"/>
</linearGradient>
<linearGradient id="paint11_linear" x1="199.146" y1="67.4065" x2="199.146" y2="123.792" gradientUnits="userSpaceOnUse">
<stop stop-color="#1FA05B"/>
<stop offset="0.569228" stop-color="#1DB369"/>
<stop offset="1" stop-color="#62DDA3"/>
</linearGradient>
<linearGradient id="paint12_linear" x1="218.31" y1="86.2016" x2="178.406" y2="86.2016" gradientUnits="userSpaceOnUse">
<stop offset="0.479067" stop-color="white" stop-opacity="0"/>
<stop offset="0.479167" stop-color="white"/>
<stop offset="1" stop-color="white" stop-opacity="0"/>
</linearGradient>
<linearGradient id="paint13_linear" x1="195.466" y1="67.4065" x2="203.369" y2="119.836" gradientUnits="userSpaceOnUse">
<stop offset="0.217623" stop-color="#20B56C"/>
<stop offset="0.656122" stop-color="#B2F5D4"/>
<stop offset="1" stop-color="#1FA25D"/>
</linearGradient>
<linearGradient id="paint14_linear" x1="214.747" y1="68.7027" x2="203.515" y2="95.4248" gradientUnits="userSpaceOnUse">
<stop stop-color="white" stop-opacity="0.67"/>
<stop offset="1" stop-color="white" stop-opacity="0"/>
</linearGradient>
<linearGradient id="paint15_linear" x1="290.22" y1="55.899" x2="290.096" y2="87.1091" gradientUnits="userSpaceOnUse">
<stop stop-color="#56D599"/>
<stop offset="0.15625" stop-color="#1EAD64"/>
<stop offset="0.371058" stop-color="#1EAE65"/>
<stop offset="0.75" stop-color="#57D69A"/>
<stop offset="0.91676" stop-color="#1EA65F"/>
<stop offset="1" stop-color="#178E4E"/>
</linearGradient>
<linearGradient id="paint16_linear" x1="294.547" y1="56" x2="294.547" y2="98.2896" gradientUnits="userSpaceOnUse">
<stop stop-color="#1FA05B"/>
<stop offset="0.569228" stop-color="#1DB369"/>
<stop offset="1" stop-color="#62DDA3"/>
</linearGradient>
<linearGradient id="paint17_linear" x1="308.92" y1="70.0966" x2="278.992" y2="70.0966" gradientUnits="userSpaceOnUse">
<stop offset="0.479067" stop-color="white" stop-opacity="0"/>
<stop offset="0.479167" stop-color="white"/>
<stop offset="1" stop-color="white" stop-opacity="0"/>
</linearGradient>
<linearGradient id="paint18_linear" x1="291.787" y1="56" x2="297.715" y2="95.3228" gradientUnits="userSpaceOnUse">
<stop offset="0.217623" stop-color="#20B56C"/>
<stop offset="0.656122" stop-color="#B2F5D4"/>
<stop offset="1" stop-color="#1FA25D"/>
</linearGradient>
<linearGradient id="paint19_linear" x1="306.248" y1="56.9722" x2="297.824" y2="77.014" gradientUnits="userSpaceOnUse">
<stop stop-color="white" stop-opacity="0.67"/>
<stop offset="1" stop-color="white" stop-opacity="0"/>
</linearGradient>
<linearGradient id="paint20_linear" x1="290.22" y1="279.884" x2="290.096" y2="311.094" gradientUnits="userSpaceOnUse">
<stop stop-color="#56D599"/>
<stop offset="0.15625" stop-color="#1EAD64"/>
<stop offset="0.371058" stop-color="#1EAE65"/>
<stop offset="0.75" stop-color="#57D69A"/>
<stop offset="0.91676" stop-color="#1EA65F"/>
<stop offset="1" stop-color="#178E4E"/>
</linearGradient>
<linearGradient id="paint21_linear" x1="294.547" y1="279.985" x2="294.547" y2="322.275" gradientUnits="userSpaceOnUse">
<stop stop-color="#1FA05B"/>
<stop offset="0.569228" stop-color="#1DB369"/>
<stop offset="1" stop-color="#62DDA3"/>
</linearGradient>
<linearGradient id="paint22_linear" x1="308.92" y1="294.082" x2="278.992" y2="294.082" gradientUnits="userSpaceOnUse">
<stop offset="0.479067" stop-color="white" stop-opacity="0"/>
<stop offset="0.479167" stop-color="white"/>
<stop offset="1" stop-color="white" stop-opacity="0"/>
</linearGradient>
<linearGradient id="paint23_linear" x1="291.787" y1="279.985" x2="297.715" y2="319.308" gradientUnits="userSpaceOnUse">
<stop offset="0.217623" stop-color="#20B56C"/>
<stop offset="0.656122" stop-color="#B2F5D4"/>
<stop offset="1" stop-color="#1FA25D"/>
</linearGradient>
<linearGradient id="paint24_linear" x1="306.248" y1="280.958" x2="297.824" y2="300.999" gradientUnits="userSpaceOnUse">
<stop stop-color="white" stop-opacity="0.67"/>
<stop offset="1" stop-color="white" stop-opacity="0"/>
</linearGradient>
<linearGradient id="paint25_linear" x1="402.212" y1="167.892" x2="402.089" y2="199.102" gradientUnits="userSpaceOnUse">
<stop stop-color="#56D599"/>
<stop offset="0.15625" stop-color="#1EAD64"/>
<stop offset="0.371058" stop-color="#1EAE65"/>
<stop offset="0.75" stop-color="#57D69A"/>
<stop offset="0.91676" stop-color="#1EA65F"/>
<stop offset="1" stop-color="#178E4E"/>
</linearGradient>
<linearGradient id="paint26_linear" x1="406.539" y1="167.993" x2="406.539" y2="210.282" gradientUnits="userSpaceOnUse">
<stop stop-color="#1FA05B"/>
<stop offset="0.569228" stop-color="#1DB369"/>
<stop offset="1" stop-color="#62DDA3"/>
</linearGradient>
<linearGradient id="paint27_linear" x1="420.913" y1="182.089" x2="390.984" y2="182.089" gradientUnits="userSpaceOnUse">
<stop offset="0.479067" stop-color="white" stop-opacity="0"/>
<stop offset="0.479167" stop-color="white"/>
<stop offset="1" stop-color="white" stop-opacity="0"/>
</linearGradient>
<linearGradient id="paint28_linear" x1="403.779" y1="167.993" x2="409.707" y2="207.316" gradientUnits="userSpaceOnUse">
<stop offset="0.217623" stop-color="#20B56C"/>
<stop offset="0.656122" stop-color="#B2F5D4"/>
<stop offset="1" stop-color="#1FA25D"/>
</linearGradient>
<linearGradient id="paint29_linear" x1="418.24" y1="168.965" x2="409.816" y2="189.007" gradientUnits="userSpaceOnUse">
<stop stop-color="white" stop-opacity="0.67"/>
<stop offset="1" stop-color="white" stop-opacity="0"/>
</linearGradient>
<linearGradient id="paint30_linear" x1="178.229" y1="167.892" x2="178.105" y2="199.102" gradientUnits="userSpaceOnUse">
<stop stop-color="#56D599"/>
<stop offset="0.15625" stop-color="#1EAD64"/>
<stop offset="0.371058" stop-color="#1EAE65"/>
<stop offset="0.75" stop-color="#57D69A"/>
<stop offset="0.91676" stop-color="#1EA65F"/>
<stop offset="1" stop-color="#178E4E"/>
</linearGradient>
<linearGradient id="paint31_linear" x1="182.555" y1="167.993" x2="182.555" y2="210.282" gradientUnits="userSpaceOnUse">
<stop stop-color="#1FA05B"/>
<stop offset="0.569228" stop-color="#1DB369"/>
<stop offset="1" stop-color="#62DDA3"/>
</linearGradient>
<linearGradient id="paint32_linear" x1="196.928" y1="182.089" x2="167" y2="182.089" gradientUnits="userSpaceOnUse">
<stop offset="0.479067" stop-color="white" stop-opacity="0"/>
<stop offset="0.479167" stop-color="white"/>
<stop offset="1" stop-color="white" stop-opacity="0"/>
</linearGradient>
<linearGradient id="paint33_linear" x1="179.795" y1="167.993" x2="185.723" y2="207.316" gradientUnits="userSpaceOnUse">
<stop offset="0.217623" stop-color="#20B56C"/>
<stop offset="0.656122" stop-color="#B2F5D4"/>
<stop offset="1" stop-color="#1FA25D"/>
</linearGradient>
<linearGradient id="paint34_linear" x1="194.256" y1="168.965" x2="185.832" y2="189.007" gradientUnits="userSpaceOnUse">
<stop stop-color="white" stop-opacity="0.67"/>
<stop offset="1" stop-color="white" stop-opacity="0"/>
</linearGradient>
<linearGradient id="paint35_linear" x1="275.321" y1="126.835" x2="274.345" y2="228.267" gradientUnits="userSpaceOnUse">
<stop stop-color="#5E5D60"/>
<stop offset="0.0989583" stop-color="#1A1919"/>
<stop offset="0.25" stop-color="#6C6C6C"/>
<stop offset="0.395833" stop-color="#282828"/>
<stop offset="0.65625" stop-color="#3C3B3D"/>
<stop offset="0.713542" stop-color="#4F5052"/>
<stop offset="0.791667" stop-color="#5A5A5A"/>
<stop offset="1" stop-color="#16171A"/>
</linearGradient>
<linearGradient id="paint36_linear" x1="275.321" y1="126.835" x2="274.345" y2="228.267" gradientUnits="userSpaceOnUse">
<stop stop-color="#5E5D60"/>
<stop offset="0.0989583" stop-color="#1A1919"/>
<stop offset="0.25" stop-color="#6C6C6C"/>
<stop offset="0.395833" stop-color="#282828"/>
<stop offset="0.65625" stop-color="#3C3B3D"/>
<stop offset="0.713542" stop-color="#4F5052"/>
<stop offset="0.791667" stop-color="#5A5A5A"/>
<stop offset="1" stop-color="#16171A"/>
</linearGradient>
<linearGradient id="paint37_linear" x1="289.852" y1="126.838" x2="289.852" y2="228.28" gradientUnits="userSpaceOnUse">
<stop stop-color="#2B292A"/>
<stop offset="0.680059" stop-color="#424041"/>
<stop offset="1" stop-color="#868585"/>
</linearGradient>
<linearGradient id="paint38_linear" x1="289.852" y1="126.838" x2="289.852" y2="228.28" gradientUnits="userSpaceOnUse">
<stop stop-color="#2B292A"/>
<stop offset="0.680059" stop-color="#424041"/>
<stop offset="1" stop-color="#868585"/>
</linearGradient>
<linearGradient id="paint39_linear" x1="322.15" y1="129.645" x2="247.254" y2="216.306" gradientUnits="userSpaceOnUse">
<stop offset="0.670529" stop-color="#5C5757"/>
<stop offset="0.925805" stop-color="#514F50"/>
<stop offset="1" stop-color="#363435"/>
</linearGradient>
<linearGradient id="paint40_linear" x1="279.559" y1="129.518" x2="304.429" y2="175.103" gradientUnits="userSpaceOnUse">
<stop stop-color="white" stop-opacity="0.4"/>
<stop offset="1" stop-color="white" stop-opacity="0"/>
</linearGradient>
<linearGradient id="paint41_linear" x1="296.107" y1="159.499" x2="295.745" y2="168.534" gradientUnits="userSpaceOnUse">
<stop stop-color="#767676"/>
<stop offset="0.135417" stop-color="#606060"/>
<stop offset="0.630208" stop-color="#F8F8F8"/>
<stop offset="1" stop-color="#F8F8F8"/>
</linearGradient>
<linearGradient id="paint42_linear" x1="296.107" y1="159.499" x2="295.745" y2="168.534" gradientUnits="userSpaceOnUse">
<stop stop-color="#767676"/>
<stop offset="0.135417" stop-color="#606060"/>
<stop offset="0.630208" stop-color="#F8F8F8"/>
<stop offset="1" stop-color="#F8F8F8"/>
</linearGradient>
<linearGradient id="paint43_linear" x1="296.107" y1="159.499" x2="295.745" y2="168.534" gradientUnits="userSpaceOnUse">
<stop stop-color="#767676"/>
<stop offset="0.135417" stop-color="#606060"/>
<stop offset="0.630208" stop-color="#F8F8F8"/>
<stop offset="1" stop-color="#F8F8F8"/>
</linearGradient>
<linearGradient id="paint44_linear" x1="296.107" y1="159.499" x2="295.745" y2="168.534" gradientUnits="userSpaceOnUse">
<stop stop-color="#767676"/>
<stop offset="0.135417" stop-color="#606060"/>
<stop offset="0.630208" stop-color="#F8F8F8"/>
<stop offset="1" stop-color="#F8F8F8"/>
</linearGradient>
<linearGradient id="paint45_linear" x1="280.148" y1="161.109" x2="281.576" y2="170.218" gradientUnits="userSpaceOnUse">
<stop stop-color="#F8F8F8"/>
<stop offset="1" stop-color="#BEBEBE"/>
</linearGradient>
<linearGradient id="paint46_linear" x1="382.544" y1="67.2718" x2="382.379" y2="108.885" gradientUnits="userSpaceOnUse">
<stop stop-color="#56D599"/>
<stop offset="0.15625" stop-color="#1EAD64"/>
<stop offset="0.371058" stop-color="#1EAE65"/>
<stop offset="0.75" stop-color="#57D69A"/>
<stop offset="0.91676" stop-color="#1EA65F"/>
<stop offset="1" stop-color="#178E4E"/>
</linearGradient>
<linearGradient id="paint47_linear" x1="389.948" y1="67.4065" x2="389.948" y2="123.792" gradientUnits="userSpaceOnUse">
<stop stop-color="#1FA05B"/>
<stop offset="0.569228" stop-color="#1DB369"/>
<stop offset="1" stop-color="#62DDA3"/>
</linearGradient>
<linearGradient id="paint48_linear" x1="409.113" y1="86.2016" x2="369.209" y2="86.2016" gradientUnits="userSpaceOnUse">
<stop offset="0.479067" stop-color="white" stop-opacity="0"/>
<stop offset="0.479167" stop-color="white"/>
<stop offset="1" stop-color="white" stop-opacity="0"/>
</linearGradient>
<linearGradient id="paint49_linear" x1="386.269" y1="67.4065" x2="394.172" y2="119.836" gradientUnits="userSpaceOnUse">
<stop offset="0.217623" stop-color="#20B56C"/>
<stop offset="0.656122" stop-color="#B2F5D4"/>
<stop offset="1" stop-color="#1FA25D"/>
</linearGradient>
<linearGradient id="paint50_linear" x1="405.55" y1="68.7027" x2="394.318" y2="95.4248" gradientUnits="userSpaceOnUse">
<stop stop-color="white" stop-opacity="0.67"/>
<stop offset="1" stop-color="white" stop-opacity="0"/>
</linearGradient>
<linearGradient id="paint51_linear" x1="382.544" y1="258.075" x2="382.379" y2="299.688" gradientUnits="userSpaceOnUse">
<stop stop-color="#56D599"/>
<stop offset="0.15625" stop-color="#1EAD64"/>
<stop offset="0.371058" stop-color="#1EAE65"/>
<stop offset="0.75" stop-color="#57D69A"/>
<stop offset="0.91676" stop-color="#1EA65F"/>
<stop offset="1" stop-color="#178E4E"/>
</linearGradient>
<linearGradient id="paint52_linear" x1="389.948" y1="258.209" x2="389.948" y2="314.595" gradientUnits="userSpaceOnUse">
<stop stop-color="#1FA05B"/>
<stop offset="0.569228" stop-color="#1DB369"/>
<stop offset="1" stop-color="#62DDA3"/>
</linearGradient>
<linearGradient id="paint53_linear" x1="409.113" y1="277.005" x2="369.209" y2="277.005" gradientUnits="userSpaceOnUse">
<stop offset="0.479067" stop-color="white" stop-opacity="0"/>
<stop offset="0.479167" stop-color="white"/>
<stop offset="1" stop-color="white" stop-opacity="0"/>
</linearGradient>
<linearGradient id="paint54_linear" x1="386.269" y1="258.209" x2="394.172" y2="310.639" gradientUnits="userSpaceOnUse">
<stop offset="0.217623" stop-color="#20B56C"/>
<stop offset="0.656122" stop-color="#B2F5D4"/>
<stop offset="1" stop-color="#1FA25D"/>
</linearGradient>
<linearGradient id="paint55_linear" x1="405.55" y1="259.506" x2="394.318" y2="286.228" gradientUnits="userSpaceOnUse">
<stop stop-color="white" stop-opacity="0.67"/>
<stop offset="1" stop-color="white" stop-opacity="0"/>
</linearGradient>
<linearGradient id="paint56_linear" x1="191.742" y1="258.075" x2="191.577" y2="299.688" gradientUnits="userSpaceOnUse">
<stop stop-color="#56D599"/>
<stop offset="0.15625" stop-color="#1EAD64"/>
<stop offset="0.371058" stop-color="#1EAE65"/>
<stop offset="0.75" stop-color="#57D69A"/>
<stop offset="0.91676" stop-color="#1EA65F"/>
<stop offset="1" stop-color="#178E4E"/>
</linearGradient>
<linearGradient id="paint57_linear" x1="199.146" y1="258.209" x2="199.146" y2="314.595" gradientUnits="userSpaceOnUse">
<stop stop-color="#1FA05B"/>
<stop offset="0.569228" stop-color="#1DB369"/>
<stop offset="1" stop-color="#62DDA3"/>
</linearGradient>
<linearGradient id="paint58_linear" x1="218.31" y1="277.005" x2="178.406" y2="277.005" gradientUnits="userSpaceOnUse">
<stop offset="0.479067" stop-color="white" stop-opacity="0"/>
<stop offset="0.479167" stop-color="white"/>
<stop offset="1" stop-color="white" stop-opacity="0"/>
</linearGradient>
<linearGradient id="paint59_linear" x1="195.466" y1="258.209" x2="203.369" y2="310.639" gradientUnits="userSpaceOnUse">
<stop offset="0.217623" stop-color="#20B56C"/>
<stop offset="0.656122" stop-color="#B2F5D4"/>
<stop offset="1" stop-color="#1FA25D"/>
</linearGradient>
<linearGradient id="paint60_linear" x1="214.747" y1="259.506" x2="203.515" y2="286.228" gradientUnits="userSpaceOnUse">
<stop stop-color="white" stop-opacity="0.67"/>
<stop offset="1" stop-color="white" stop-opacity="0"/>
</linearGradient>
</defs>
</svg>
