<svg width="574" height="409" viewBox="0 0 574 409" fill="none" xmlns="http://www.w3.org/2000/svg">
<mask id="mask0" mask-type="alpha" maskUnits="userSpaceOnUse" x="0" y="5" width="393" height="359">
<path fill-rule="evenodd" clip-rule="evenodd" d="M346.193 166.772L275.232 40.4568L226.497 40.4568C234.785 55.6895 245.65 75.7161 256.462 95.6658C267.333 115.725 278.155 135.714 286.259 150.688C289.728 157.097 292.698 162.587 294.962 166.772L346.193 166.772ZM265.146 184.273C262.87 180.067 259.863 174.51 256.343 168.006C248.241 153.036 237.422 133.053 226.556 113.002C215.688 92.9489 204.776 72.8353 196.486 57.5998C192.751 50.7354 189.554 44.873 187.136 40.4568L117.662 40.4568L92.0792 85.5165L152.964 85.5165C159.21 85.5165 164.98 88.9715 168.089 94.5762L241.783 227.419L265.146 184.273ZM271.118 245.811L294.717 202.228L346.193 202.228L321.709 245.811L271.118 245.811ZM301.79 281.268L242.247 281.268C235.989 281.268 230.21 277.806 227.096 272.192C227.096 272.192 227.096 272.192 227.096 272.192L153.23 139.039L127.525 186.512L205.469 328.543L275.232 328.543L301.79 281.268ZM166.049 328.543L96.7292 202.228L45.9461 202.228L117.662 328.543L166.049 328.543ZM45.9461 166.772L98.9202 166.772L123.718 120.973L71.9484 120.973L45.9461 166.772ZM182.493 32.0616C182.491 32.0579 182.513 32.0945 182.564 32.182C182.52 32.1089 182.494 32.0653 182.493 32.0616ZM388.714 171.883C393.097 179.684 393.097 189.316 388.714 197.117L301.984 351.502C297.637 359.239 289.639 364 280.987 364L111.938 364C103.326 364 95.3579 359.283 90.9971 351.602L3.34423 197.217C-1.11341 189.366 -1.11341 179.634 3.34423 171.783L90.9971 17.3981C95.3578 9.71748 103.326 4.99999 111.938 4.99999L280.987 5C289.639 5 297.637 9.76096 301.984 17.4981L388.714 171.883Z" fill="#F7F7F7"/>
</mask>
<g mask="url(#mask0)">
<path d="M101.909 365L8.07222 200.652C2.45159 190.808 2.45841 178.725 8.09016 168.887L101.909 5M105.214 365L11.3766 200.652C5.75599 190.808 5.76281 178.725 11.3946 168.887L105.214 5M108.518 365L14.681 200.652C9.06039 190.808 9.06721 178.725 14.699 168.887L108.518 5M111.823 365L17.9854 200.652C12.3648 190.808 12.3716 178.725 18.0034 168.887L111.823 5M115.127 365L21.2898 200.652C15.6692 190.808 15.676 178.725 21.3078 168.887L115.127 5M118.431 365L24.5942 200.652C18.9736 190.808 18.9804 178.725 24.6122 168.887L118.431 5M121.736 365L27.8986 200.652C22.278 190.808 22.2848 178.725 27.9166 168.887L121.736 5M125.04 365L31.203 200.652C25.5824 190.808 25.5892 178.725 31.221 168.887L125.04 5M128.345 365L34.5074 200.652C28.8868 190.808 28.8936 178.725 34.5254 168.887L128.345 5M131.649 365L37.8118 200.652C32.1912 190.808 32.198 178.725 37.8298 168.887L131.649 5M134.953 365L41.1162 200.652C35.4956 190.808 35.5024 178.725 41.1342 168.887L134.953 5M138.258 365L44.4206 200.652C38.8 190.808 38.8068 178.725 44.4386 168.887L138.258 5M141.562 365L47.725 200.652C42.1044 190.808 42.1112 178.725 47.743 168.887L141.562 5M144.867 365L51.0294 200.652C45.4088 190.808 45.4156 178.725 51.0474 168.887L144.867 5M148.171 365L54.3338 200.652C48.7132 190.808 48.72 178.725 54.3517 168.887L148.171 5M151.475 365L57.6382 200.652C52.0176 190.808 52.0244 178.725 57.6561 168.887L151.475 5M154.78 365L60.9426 200.652C55.322 190.808 55.3288 178.725 60.9605 168.887L154.78 5M158.084 365L64.247 200.652C58.6264 190.808 58.6332 178.725 64.2649 168.887L158.084 5M161.389 365L67.5514 200.652C61.9308 190.808 61.9376 178.725 67.5693 168.887L161.389 5M164.693 365L70.8558 200.652C65.2352 190.808 65.242 178.725 70.8737 168.887L164.693 5M167.997 365L74.1602 200.652C68.5396 190.808 68.5464 178.725 74.1781 168.887L167.997 5M171.302 365L77.4646 200.652C71.844 190.808 71.8508 178.725 77.4825 168.887L171.302 5M174.606 365L80.769 200.652C75.1484 190.808 75.1552 178.725 80.7869 168.887L174.606 5M177.911 365L84.0734 200.652C78.4528 190.808 78.4596 178.725 84.0913 168.887L177.911 5M181.215 365L87.3778 200.652C81.7572 190.808 81.764 178.725 87.3957 168.887L181.215 5M184.519 365L90.6822 200.652C85.0616 190.808 85.0684 178.725 90.7001 168.887L184.519 5M187.824 365L93.9866 200.652C88.366 190.808 88.3728 178.725 94.0045 168.887L187.824 5M191.128 365L97.291 200.652C91.6704 190.808 91.6772 178.725 97.3089 168.887L191.128 5M194.433 365L100.595 200.652C94.9748 190.808 94.9816 178.725 100.613 168.887L194.433 5M197.737 365L103.9 200.652C98.2792 190.808 98.286 178.725 103.918 168.887L197.737 5M201.041 365L107.204 200.652C101.584 190.808 101.59 178.725 107.222 168.887L201.041 5M204.346 365L110.509 200.652C104.888 190.808 104.895 178.725 110.527 168.887L204.346 5M207.65 365L113.813 200.652C108.192 190.808 108.199 178.725 113.831 168.887L207.65 5M210.955 365L117.117 200.652C111.497 190.808 111.504 178.725 117.135 168.887L210.955 5M214.259 365L120.422 200.652C114.801 190.808 114.808 178.725 120.44 168.887L214.259 5M217.563 365L123.726 200.652C118.106 190.808 118.112 178.725 123.744 168.887L217.563 5M220.868 365L127.031 200.652C121.41 190.808 121.417 178.725 127.049 168.887L220.868 5M224.172 365L130.335 200.652C124.714 190.808 124.721 178.725 130.353 168.887L224.172 5M227.477 365L133.639 200.652C128.019 190.808 128.026 178.725 133.657 168.887L227.477 5M230.781 365L136.944 200.652C131.323 190.808 131.33 178.725 136.962 168.887L230.781 5M234.085 365L140.248 200.652C134.628 190.808 134.634 178.725 140.266 168.887L234.085 5M237.39 365L143.553 200.652C137.932 190.808 137.939 178.725 143.571 168.887L237.39 5M240.694 365L146.857 200.652C141.236 190.808 141.243 178.725 146.875 168.887L240.694 5M243.999 365L150.161 200.652C144.541 190.808 144.548 178.725 150.179 168.887L243.999 5M247.303 365L153.466 200.652C147.845 190.808 147.852 178.725 153.484 168.887L247.303 5M250.607 365L156.77 200.652C151.15 190.808 151.156 178.725 156.788 168.887L250.607 5M253.912 365L160.075 200.652C154.454 190.808 154.461 178.725 160.093 168.887L253.912 5M257.216 365L163.379 200.652C157.758 190.808 157.765 178.725 163.397 168.887L257.216 5M260.521 365L166.683 200.652C161.063 190.808 161.07 178.725 166.701 168.887L260.521 5M263.825 365L169.988 200.652C164.367 190.808 164.374 178.725 170.006 168.887L263.825 5M267.129 365L173.292 200.652C167.672 190.808 167.678 178.725 173.31 168.887L267.129 5M270.434 365L176.597 200.652C170.976 190.808 170.983 178.725 176.615 168.887L270.434 5M273.738 365L179.901 200.652C174.28 190.808 174.287 178.725 179.919 168.887L273.738 5M277.043 365L183.205 200.652C177.585 190.808 177.592 178.725 183.223 168.887L277.043 5M280.347 365L186.51 200.652C180.889 190.808 180.896 178.725 186.528 168.887L280.347 5M283.651 365L189.814 200.652C184.194 190.808 184.2 178.725 189.832 168.887L283.651 5M286.956 365L193.119 200.652C187.498 190.808 187.505 178.725 193.137 168.887L286.956 5M290.26 365L196.423 200.652C190.802 190.808 190.809 178.725 196.441 168.887L290.26 5M293.565 365L199.727 200.652C194.107 190.808 194.114 178.725 199.745 168.887L293.565 5M296.869 365L203.032 200.652C197.411 190.808 197.418 178.725 203.05 168.887L296.869 5M300.173 365L206.336 200.652C200.716 190.808 200.722 178.725 206.354 168.887L300.173 5M303.478 365L209.641 200.652C204.02 190.808 204.027 178.725 209.659 168.887L303.478 5M306.782 365L212.945 200.652C207.324 190.808 207.331 178.725 212.963 168.887L306.782 5M310.087 365L216.249 200.652C210.629 190.808 210.636 178.725 216.267 168.887L310.087 5M313.391 365L219.554 200.652C213.933 190.808 213.94 178.725 219.572 168.887L313.391 5M316.695 365L222.858 200.652C217.238 190.808 217.244 178.725 222.876 168.887L316.695 5M320 365L226.163 200.652C220.542 190.808 220.549 178.725 226.181 168.887L320 5M323.304 365L229.467 200.652C223.846 190.808 223.853 178.725 229.485 168.887L323.304 5M326.609 365L232.771 200.652C227.151 190.808 227.158 178.725 232.789 168.887L326.609 5M329.913 365L236.076 200.652C230.455 190.808 230.462 178.725 236.094 168.887L329.913 5M333.217 365L239.38 200.652C233.76 190.808 233.766 178.725 239.398 168.887L333.217 5M336.522 365L242.685 200.652C237.064 190.808 237.071 178.725 242.703 168.887L336.522 5M339.826 365L245.989 200.652C240.368 190.808 240.375 178.725 246.007 168.887L339.826 5M343.131 365L249.293 200.652C243.673 190.808 243.68 178.725 249.311 168.887L343.131 5M346.435 365L252.598 200.652C246.977 190.808 246.984 178.725 252.616 168.887L346.435 5M349.739 365L255.902 200.652C250.282 190.808 250.288 178.725 255.92 168.887L349.739 5M353.044 365L259.207 200.652C253.586 190.808 253.593 178.725 259.225 168.887L353.044 5M356.348 365L262.511 200.652C256.89 190.808 256.897 178.725 262.529 168.887L356.348 5M359.653 365L265.815 200.652C260.195 190.808 260.202 178.725 265.833 168.887L359.653 5M362.957 365L269.12 200.652C263.499 190.808 263.506 178.725 269.138 168.887L362.957 5M366.261 365L272.424 200.652C266.804 190.808 266.81 178.725 272.442 168.887L366.261 5M369.566 365L275.729 200.652C270.108 190.808 270.115 178.725 275.747 168.887L369.566 5M372.87 365L279.033 200.652C273.412 190.808 273.419 178.725 279.051 168.887L372.87 5M376.175 365L282.337 200.652C276.717 190.808 276.724 178.725 282.355 168.887L376.175 5M379.479 365L285.642 200.652C280.021 190.808 280.028 178.725 285.66 168.887L379.479 5M382.783 365L288.946 200.652C283.326 190.808 283.332 178.725 288.964 168.887L382.783 5M386.088 365L292.251 200.652C286.63 190.808 286.637 178.725 292.269 168.887L386.088 5M389.392 365L295.555 200.652C289.934 190.808 289.941 178.725 295.573 168.887L389.392 5M392.697 365L298.859 200.652C293.239 190.808 293.246 178.725 298.877 168.887L392.697 5M396.001 365L302.164 200.652C296.543 190.808 296.55 178.725 302.182 168.887L396.001 5" stroke="#5C677D" stroke-opacity="0.07" stroke-width="2"/>
</g>
<path d="M354.611 46.9264L354.611 46.9267L420.84 162.094C425.553 170.29 427.789 174.2 428.664 178.333C429.446 182.022 429.446 185.835 428.664 189.524C427.789 193.657 425.553 197.567 420.84 205.763L354.611 320.93C349.871 329.173 347.603 333.094 344.451 335.939C341.638 338.478 338.321 340.397 334.717 341.57C330.68 342.884 326.15 342.896 316.642 342.896L182.909 342.896C173.401 342.896 168.871 342.884 164.834 341.57C161.23 340.397 157.913 338.478 155.1 335.939C151.948 333.094 149.68 329.173 144.94 320.93L78.7111 205.763C73.9978 197.567 71.7624 193.657 70.8868 189.524C70.1053 185.835 70.1053 182.022 70.8868 178.333C71.7624 174.2 73.9978 170.29 78.7111 162.094L144.94 46.9267C149.68 38.6842 151.948 34.7632 155.1 31.9184C157.913 29.379 161.23 27.4604 164.834 26.2874C168.871 24.9733 173.401 24.9616 182.909 24.9616L316.642 24.9616C326.15 24.9616 330.68 24.9733 334.717 26.2874C338.321 27.4604 341.638 29.379 344.451 31.9184C347.592 34.7532 349.855 38.6567 354.561 46.8396C354.578 46.8686 354.594 46.8974 354.611 46.9264Z" stroke="#1CBA6E" stroke-width="2"/>
<g filter="url(#filter0_d)">
<path d="M217.789 305.861L160.55 206.704C155.84 198.544 153.485 194.464 152.563 190.127C151.748 186.29 151.748 182.324 152.563 178.486C153.485 174.149 155.84 170.069 160.55 161.91L217.789 62.7518C222.5 54.5903 224.855 50.5096 228.151 47.5417C231.067 44.9158 234.503 42.9321 238.235 41.7194C242.453 40.3488 247.165 40.3488 256.588 40.3488L366.754 40.3487C376.178 40.3487 380.89 40.3487 385.108 41.7194C388.84 42.9321 392.275 44.9158 395.191 47.5417C398.487 50.5096 400.843 54.5903 405.554 62.7518L462.792 161.91C467.502 170.069 469.857 174.149 470.779 178.486C471.595 182.323 471.595 186.29 470.779 190.127C469.857 194.464 467.502 198.544 462.792 206.704L405.554 305.861C400.843 314.023 398.487 318.104 395.191 321.071C392.275 323.697 388.84 325.681 385.108 326.894C380.89 328.264 376.178 328.264 366.754 328.264L256.588 328.264C247.165 328.264 242.453 328.264 238.235 326.894C234.503 325.681 231.067 323.697 228.151 321.071C224.855 318.104 222.5 314.023 217.789 305.861L217.789 305.861Z" fill="url(#paint0_linear)"/>
</g>
<path d="M317.821 339.348L243.658 210.548C238.298 201.24 235.618 196.585 234.569 191.639C233.641 187.262 233.641 182.738 234.569 178.361C235.618 173.415 238.298 168.76 243.658 159.452L317.821 30.6517C323.201 21.3073 325.891 16.6351 329.659 13.2368C332.993 10.2301 336.922 7.95847 341.192 6.56967C346.017 5 351.408 5 362.191 5L522.117 5C540.038 5 548.999 5 555.844 8.4878C561.865 11.5558 566.761 16.4511 569.829 22.4723C573.317 29.3175 573.317 38.2783 573.317 56.2L573.317 185L573.317 313.8C573.317 331.722 573.317 340.683 569.829 347.528C566.761 353.549 561.865 358.444 555.844 361.512C548.999 365 540.038 365 522.117 365L362.191 365C351.408 365 346.017 365 341.192 363.43C336.922 362.042 332.993 359.77 329.659 356.763C325.891 353.365 323.201 348.693 317.821 339.348Z" fill="white"/>
<path d="M257.742 59.2172C297.362 59.2167 329.539 91.5632 329.339 131.183C329.249 149.167 322.526 165.581 311.494 178.11C310.435 179.312 310.17 181.026 310.865 182.469C313.657 188.268 316.816 192.641 318.951 195.263C320.133 196.714 319.253 198.901 317.398 199.146C317.398 199.146 300.526 199.921 294.758 198.831C293.348 199.146 292.303 198.329 291.193 198.917C281.468 204.066 270.417 202.256 258.683 202.407C219.658 202.91 186.65 170.777 186.15 131.752C185.64 91.7805 182.794 55.8671 257.742 59.2172Z" fill="url(#paint1_linear)"/>
<path d="M238.598 59.2173C278.219 59.2168 310.395 91.5633 310.196 131.183C310.105 149.167 303.383 165.581 292.35 178.11C291.292 179.312 291.027 181.026 291.722 182.469C294.513 188.268 297.673 192.641 299.808 195.263C300.99 196.714 300.11 198.901 298.254 199.146C289.988 200.238 279.946 196.092 275.615 194.045C274.478 193.508 273.16 193.543 272.049 194.131C262.324 199.28 251.273 202.256 239.54 202.408C200.515 202.91 167.506 170.777 167.007 131.752C166.496 91.7806 198.744 59.2178 238.598 59.2173V59.2173Z" fill="url(#paint2_linear)"/>
<path fill-rule="evenodd" clip-rule="evenodd" d="M299.807 195.263C297.672 192.641 294.512 188.268 291.721 182.469C291.026 181.026 291.291 179.312 292.349 178.11C303.382 165.581 310.104 149.167 310.195 131.183C310.394 91.5633 278.218 59.2168 238.597 59.2173C198.743 59.2178 166.495 91.7806 167.006 131.752C167.505 170.777 200.514 202.91 239.539 202.408C251.272 202.256 262.323 199.28 272.048 194.131C273.159 193.543 274.477 193.508 275.614 194.045C279.945 196.092 289.987 200.238 298.253 199.146C300.109 198.901 300.989 196.714 299.807 195.263ZM298.002 197.248C298.391 197.197 298.547 196.748 298.322 196.472L298.322 196.472C296.117 193.763 292.867 189.264 289.996 183.3C288.955 181.138 289.365 178.602 290.913 176.845C301.651 164.65 308.193 148.677 308.281 131.174C308.474 92.6144 277.156 61.1312 238.597 61.1316C199.809 61.1321 168.423 92.8242 168.92 131.727C169.406 169.694 201.545 200.982 239.514 200.493C250.936 200.346 261.689 197.449 271.152 192.439C272.791 191.571 274.745 191.517 276.432 192.314M298.002 197.248C294.242 197.745 289.955 197.056 285.979 195.931C282.031 194.813 278.541 193.311 276.432 192.315" fill="url(#paint3_linear)"/>
<path fill-rule="evenodd" clip-rule="evenodd" d="M299.807 195.263C297.672 192.641 294.512 188.268 291.721 182.469C291.026 181.026 291.291 179.312 292.349 178.11C303.382 165.581 310.104 149.167 310.195 131.183C310.394 91.5633 278.218 59.2168 238.597 59.2173C198.743 59.2178 166.495 91.7806 167.006 131.752C167.505 170.777 200.514 202.91 239.539 202.408C251.272 202.256 262.323 199.28 272.048 194.131C273.159 193.543 274.477 193.508 275.614 194.045C279.945 196.092 289.987 200.238 298.253 199.146C300.109 198.901 300.989 196.714 299.807 195.263ZM298.002 197.248C298.391 197.197 298.547 196.748 298.322 196.472L298.322 196.472C296.117 193.763 292.867 189.264 289.996 183.3C288.955 181.138 289.365 178.602 290.913 176.845C301.651 164.65 308.193 148.677 308.281 131.174C308.474 92.6144 277.156 61.1312 238.597 61.1316C199.809 61.1321 168.423 92.8242 168.92 131.727C169.406 169.694 201.545 200.982 239.514 200.493C250.936 200.346 261.689 197.449 271.152 192.439C272.791 191.571 274.745 191.517 276.432 192.314M298.002 197.248C294.242 197.745 289.955 197.056 285.979 195.931C282.031 194.813 278.541 193.311 276.432 192.315" fill="url(#paint4_linear)"/>
<g filter="url(#filter1_d)">
<path d="M276.618 140.468C281.968 140.468 286.305 136.131 286.305 130.781C286.305 125.431 281.968 121.094 276.618 121.094C271.268 121.094 266.931 125.431 266.931 130.781C266.931 136.131 271.268 140.468 276.618 140.468Z" fill="url(#paint5_linear)"/>
<path d="M239.555 140.468C244.905 140.468 249.242 136.131 249.242 130.781C249.242 125.431 244.905 121.094 239.555 121.094C234.205 121.094 229.867 125.431 229.867 130.781C229.867 136.131 234.205 140.468 239.555 140.468Z" fill="url(#paint6_linear)"/>
<path d="M202.492 140.468C207.842 140.468 212.179 136.131 212.179 130.781C212.179 125.431 207.842 121.094 202.492 121.094C197.142 121.094 192.805 125.431 192.805 130.781C192.805 136.131 197.142 140.468 202.492 140.468Z" fill="url(#paint7_linear)"/>
<path d="M277.575 140.468C282.925 140.468 287.262 136.131 287.262 130.781C287.262 125.431 282.925 121.094 277.575 121.094C272.225 121.094 267.888 125.431 267.888 130.781C267.888 136.131 272.225 140.468 277.575 140.468Z" fill="url(#paint8_linear)"/>
<path d="M240.512 140.468C245.862 140.468 250.199 136.131 250.199 130.781C250.199 125.431 245.862 121.094 240.512 121.094C235.162 121.094 230.825 125.431 230.825 130.781C230.825 136.131 235.162 140.468 240.512 140.468Z" fill="url(#paint9_linear)"/>
<path d="M203.449 140.468C208.799 140.468 213.136 136.131 213.136 130.781C213.136 125.431 208.799 121.094 203.449 121.094C198.099 121.094 193.762 125.431 193.762 130.781C193.762 136.131 198.099 140.468 203.449 140.468Z" fill="url(#paint10_linear)"/>
<path d="M278.532 140.468C283.882 140.468 288.22 136.131 288.22 130.781C288.22 125.431 283.882 121.094 278.532 121.094C273.182 121.094 268.845 125.431 268.845 130.781C268.845 136.131 273.182 140.468 278.532 140.468Z" fill="url(#paint11_linear)"/>
<path d="M241.469 140.468C246.819 140.468 251.156 136.131 251.156 130.781C251.156 125.431 246.819 121.094 241.469 121.094C236.119 121.094 231.782 125.431 231.782 130.781C231.782 136.131 236.119 140.468 241.469 140.468Z" fill="url(#paint12_linear)"/>
<path d="M204.406 140.468C209.756 140.468 214.094 136.131 214.094 130.781C214.094 125.431 209.756 121.094 204.406 121.094C199.056 121.094 194.719 125.431 194.719 130.781C194.719 136.131 199.056 140.468 204.406 140.468Z" fill="url(#paint13_linear)"/>
<path d="M279.49 140.468C284.84 140.468 289.177 136.131 289.177 130.781C289.177 125.431 284.84 121.094 279.49 121.094C274.139 121.094 269.802 125.431 269.802 130.781C269.802 136.131 274.139 140.468 279.49 140.468Z" fill="url(#paint14_linear)"/>
<path d="M242.426 140.468C247.776 140.468 252.113 136.131 252.113 130.781C252.113 125.431 247.776 121.094 242.426 121.094C237.076 121.094 232.739 125.431 232.739 130.781C232.739 136.131 237.076 140.468 242.426 140.468Z" fill="url(#paint15_linear)"/>
<path d="M205.363 140.468C210.714 140.468 215.051 136.131 215.051 130.781C215.051 125.431 210.714 121.094 205.363 121.094C200.013 121.094 195.676 125.431 195.676 130.781C195.676 136.131 200.013 140.468 205.363 140.468Z" fill="url(#paint16_linear)"/>
<path d="M280.447 140.468C285.797 140.468 290.134 136.131 290.134 130.781C290.134 125.431 285.797 121.094 280.447 121.094C275.097 121.094 270.759 125.431 270.759 130.781C270.759 136.131 275.097 140.468 280.447 140.468Z" fill="url(#paint17_linear)"/>
<path d="M243.383 140.468C248.734 140.468 253.071 136.131 253.071 130.781C253.071 125.431 248.734 121.094 243.383 121.094C238.033 121.094 233.696 125.431 233.696 130.781C233.696 136.131 238.033 140.468 243.383 140.468Z" fill="url(#paint18_linear)"/>
<path d="M206.321 140.468C211.671 140.468 216.008 136.131 216.008 130.781C216.008 125.431 211.671 121.094 206.321 121.094C200.97 121.094 196.633 125.431 196.633 130.781C196.633 136.131 200.97 140.468 206.321 140.468Z" fill="url(#paint19_linear)"/>
</g>
<path d="M275.661 140.468C281.011 140.468 285.348 136.131 285.348 130.781C285.348 125.431 281.011 121.094 275.661 121.094C270.311 121.094 265.974 125.431 265.974 130.781C265.974 136.131 270.311 140.468 275.661 140.468Z" fill="url(#paint20_linear)"/>
<path d="M238.598 140.468C243.948 140.468 248.285 136.131 248.285 130.781C248.285 125.431 243.948 121.094 238.598 121.094C233.248 121.094 228.91 125.431 228.91 130.781C228.91 136.131 233.248 140.468 238.598 140.468Z" fill="url(#paint21_linear)"/>
<path d="M201.535 140.468C206.885 140.468 211.222 136.131 211.222 130.781C211.222 125.431 206.885 121.094 201.535 121.094C196.185 121.094 191.848 125.431 191.848 130.781C191.848 136.131 196.185 140.468 201.535 140.468Z" fill="url(#paint22_linear)"/>
<path d="M422.388 110.151C418.547 100.975 412.464 92.7308 404.609 86.6209C396.08 79.9872 383.88 72.5028 372.754 77.3809C369.685 78.7268 367.19 80.8854 365.255 83.549C363.926 85.3572 362.861 87.4132 362.032 89.6788C361.855 90.16 354.603 113.134 351.913 124.321C350.114 131.812 351.476 136.98 356.264 141.066C357.761 142.344 359.59 143.517 361.767 144.621C366.918 147.233 372.269 149.427 377.638 151.593C378.387 151.896 379.136 152.197 379.884 152.499L386.193 154.89L383.873 161.513C371.439 196.327 351.94 226.562 325.251 252.138L320.883 256.819L315.355 251.566C311.176 247.134 307.109 242.477 302.35 238.735C293.958 232.138 287.359 231.753 278.869 238.17C268.894 245.708 259.051 253.618 250.251 262.462C240.527 272.233 241.206 281.589 250.741 291.581C258.998 300.235 269.232 305.221 280.939 307.339C296.039 310.071 313.18 304.933 326.386 297.244C337.825 290.584 348.212 283.103 357.618 274.866L370.794 262.171C394.314 237.243 410.52 206.719 420.944 172.001C426.743 152.686 430.366 129.212 422.388 110.151Z" fill="url(#paint23_linear)"/>
<path d="M422.388 110.151C418.547 100.975 412.464 92.7308 404.609 86.6209C396.08 79.9872 383.88 72.5028 372.754 77.3809C369.685 78.7268 367.19 80.8854 365.255 83.549C363.926 85.3572 362.861 87.4132 362.032 89.6788C361.855 90.16 354.603 113.134 351.913 124.321C350.114 131.812 351.476 136.98 356.264 141.066C357.761 142.344 359.59 143.517 361.767 144.621C366.918 147.233 372.269 149.427 377.638 151.593C378.387 151.896 379.136 152.197 379.884 152.499L386.193 154.89L383.873 161.513C371.439 196.327 351.94 226.562 325.251 252.138L320.883 256.819L315.355 251.566C311.176 247.134 307.109 242.477 302.35 238.735C293.958 232.138 287.359 231.753 278.869 238.17C268.894 245.708 259.051 253.618 250.251 262.462C240.527 272.233 241.206 281.589 250.741 291.581C258.998 300.235 269.232 305.221 280.939 307.339C296.039 310.071 313.18 304.933 326.386 297.244C337.825 290.584 348.212 283.103 357.618 274.866L370.794 262.171C394.314 237.243 410.52 206.719 420.944 172.001C426.743 152.686 430.366 129.212 422.388 110.151Z" fill="white" fill-opacity="0.1"/>
<path d="M358.914 75.9677H380.45L388.108 98.9398L358.914 75.9677Z" fill="url(#paint24_linear)"/>
<path d="M358.914 75.9677H380.45L388.108 98.9398L358.914 75.9677Z" fill="white" fill-opacity="0.1"/>
<path d="M270.376 233.422L291.912 233.901V251.608L269.419 254.959L270.376 233.422Z" fill="url(#paint25_linear)"/>
<path d="M270.376 233.422L291.912 233.901V251.608L269.419 254.959L270.376 233.422Z" fill="white" fill-opacity="0.1"/>
<path d="M291.434 308.081H266.547L291.434 296.117V308.081Z" fill="url(#paint26_linear)"/>
<path d="M291.434 308.081H266.547L291.434 296.117V308.081Z" fill="white" fill-opacity="0.1"/>
<path d="M403.244 110.151C399.403 100.975 393.32 92.7308 385.466 86.6209C376.937 79.9872 364.736 72.5028 353.611 77.3809C350.541 78.7268 348.046 80.8854 346.111 83.549C344.783 85.3572 343.717 87.4132 342.889 89.6788C342.712 90.16 335.459 113.134 332.769 124.321C330.97 131.812 332.332 136.98 337.12 141.066C338.617 142.344 340.446 143.517 342.623 144.621C347.774 147.233 353.125 149.427 358.494 151.593C359.243 151.896 359.992 152.197 360.741 152.499L367.05 154.89L364.729 161.513C352.296 196.327 332.796 226.562 306.108 252.138L301.74 256.819L296.212 251.566C292.032 247.134 287.965 242.477 283.206 238.735C274.814 232.138 268.215 231.753 259.725 238.17C249.751 245.708 239.908 253.618 231.108 262.462C221.384 272.233 222.063 281.589 231.598 291.581C239.855 300.235 250.089 305.221 261.796 307.339C276.896 310.071 294.037 304.933 307.242 297.244C318.681 290.584 329.068 283.103 338.474 274.866L351.65 262.171C375.171 237.243 391.376 206.719 401.801 172.001C407.6 152.686 411.223 129.212 403.244 110.151Z" fill="url(#paint27_linear)"/>
<path d="M403.244 110.151C399.403 100.975 393.32 92.7308 385.466 86.6209C376.937 79.9872 364.736 72.5028 353.611 77.3809C350.541 78.7268 348.046 80.8854 346.111 83.549C344.783 85.3572 343.717 87.4132 342.889 89.6788C342.712 90.16 335.459 113.134 332.769 124.321C330.97 131.812 332.332 136.98 337.12 141.066C338.617 142.344 340.446 143.517 342.623 144.621C347.774 147.233 353.125 149.427 358.494 151.593C359.243 151.896 359.992 152.197 360.741 152.499L367.05 154.89L364.729 161.513C352.296 196.327 332.796 226.562 306.108 252.138L301.74 256.819L296.212 251.566C292.032 247.134 287.965 242.477 283.206 238.735C274.814 232.138 268.215 231.753 259.725 238.17C249.751 245.708 239.908 253.618 231.108 262.462C221.384 272.233 222.063 281.589 231.598 291.581C239.855 300.235 250.089 305.221 261.796 307.339C276.896 310.071 294.037 304.933 307.242 297.244C318.681 290.584 329.068 283.103 338.474 274.866L351.65 262.171C375.171 237.243 391.376 206.719 401.801 172.001C407.6 152.686 411.223 129.212 403.244 110.151Z" fill="url(#paint28_linear)" fill-opacity="0.23"/>
<path fill-rule="evenodd" clip-rule="evenodd" d="M385.466 86.6209C376.937 79.9872 364.736 72.5028 353.611 77.3809C350.541 78.7268 348.046 80.8854 346.111 83.549C344.783 85.3572 343.717 87.4132 342.889 89.6788C342.712 90.16 335.459 113.134 332.769 124.321C330.97 131.812 332.332 136.98 337.12 141.066C338.617 142.344 340.446 143.517 342.623 144.621C347.774 147.233 353.125 149.427 358.494 151.593C358.888 151.752 359.281 151.911 359.674 152.069C360.03 152.212 360.385 152.356 360.741 152.499L367.049 154.89L364.729 161.513C352.296 196.327 332.796 226.562 306.108 252.138L301.74 256.819L296.212 251.566C295.49 250.8 294.771 250.028 294.051 249.254C290.606 245.552 287.143 241.83 283.206 238.735C274.814 232.138 268.215 231.753 259.725 238.17C249.751 245.708 239.908 253.618 231.108 262.462C221.384 272.233 222.063 281.589 231.598 291.581C239.855 300.235 250.089 305.221 261.796 307.339C276.896 310.071 294.037 304.933 307.242 297.244C318.681 290.584 329.068 283.103 338.474 274.866L351.65 262.171C375.171 237.243 391.376 206.719 401.801 172.001C407.6 152.686 411.223 129.212 403.244 110.151C399.403 100.975 393.32 92.7308 385.466 86.6209ZM350.289 260.825C373.552 236.158 389.616 205.924 399.967 171.451C405.739 152.225 409.187 129.307 401.478 110.89C397.755 101.996 391.867 94.0253 384.29 88.132C380.078 84.8555 375.073 81.4632 369.832 79.4737C364.607 77.49 359.327 76.9646 354.379 79.1341C351.66 80.3263 349.422 82.2485 347.66 84.6742L347.654 84.6825C346.447 86.3256 345.462 88.2166 344.687 90.3361L344.685 90.341C344.687 90.3357 344.687 90.3375 344.683 90.348C344.675 90.374 344.649 90.4528 344.598 90.6105C344.536 90.8042 344.448 91.0782 344.338 91.4248C344.119 92.1176 343.811 93.0953 343.439 94.2911C342.693 96.6827 341.688 99.9434 340.604 103.538C338.432 110.742 335.961 119.234 334.63 124.769C333.777 128.322 333.717 131.149 334.327 133.488C334.928 135.793 336.221 137.782 338.363 139.61C339.717 140.766 341.41 141.859 343.489 142.914C348.558 145.484 353.838 147.65 359.211 149.818C359.508 149.938 359.803 150.057 360.097 150.176C360.543 150.355 360.987 150.534 361.438 150.716L369.474 153.762L366.532 162.156C354.005 197.231 334.356 227.707 307.471 253.483L301.822 259.537L294.855 252.918L294.819 252.879C294.077 252.092 293.345 251.306 292.617 250.524C289.174 246.825 285.832 243.234 282.023 240.24C277.981 237.062 274.623 235.586 271.442 235.485C268.282 235.386 264.932 236.634 260.88 239.697C250.929 247.218 241.17 255.064 232.465 263.812C227.823 268.476 225.919 272.778 226.044 276.88C226.17 281.025 228.377 285.433 232.983 290.26C240.924 298.583 250.774 303.4 262.136 305.455C276.631 308.078 293.302 303.145 306.279 295.59C317.6 288.998 327.876 281.599 337.179 273.456L350.289 260.825Z" fill="url(#paint29_linear)"/>
<path fill-rule="evenodd" clip-rule="evenodd" d="M385.466 86.6209C376.937 79.9872 364.736 72.5028 353.611 77.3809C350.541 78.7268 348.046 80.8854 346.111 83.549C344.783 85.3572 343.717 87.4132 342.889 89.6788C342.712 90.16 335.459 113.134 332.769 124.321C330.97 131.812 332.332 136.98 337.12 141.066C338.617 142.344 340.446 143.517 342.623 144.621C347.774 147.233 353.125 149.427 358.494 151.593C358.888 151.752 359.281 151.911 359.674 152.069C360.03 152.212 360.385 152.356 360.741 152.499L367.049 154.89L364.729 161.513C352.296 196.327 332.796 226.562 306.108 252.138L301.74 256.819L296.212 251.566C295.49 250.8 294.771 250.028 294.051 249.254C290.606 245.552 287.143 241.83 283.206 238.735C274.814 232.138 268.215 231.753 259.725 238.17C249.751 245.708 239.908 253.618 231.108 262.462C221.384 272.233 222.063 281.589 231.598 291.581C239.855 300.235 250.089 305.221 261.796 307.339C276.896 310.071 294.037 304.933 307.242 297.244C318.681 290.584 329.068 283.103 338.474 274.866L351.65 262.171C375.171 237.243 391.376 206.719 401.801 172.001C407.6 152.686 411.223 129.212 403.244 110.151C399.403 100.975 393.32 92.7308 385.466 86.6209ZM350.289 260.825C373.552 236.158 389.616 205.924 399.967 171.451C405.739 152.225 409.187 129.307 401.478 110.89C397.755 101.996 391.867 94.0253 384.29 88.132C380.078 84.8555 375.073 81.4632 369.832 79.4737C364.607 77.49 359.327 76.9646 354.379 79.1341C351.66 80.3263 349.422 82.2485 347.66 84.6742L347.654 84.6825C346.447 86.3256 345.462 88.2166 344.687 90.3361L344.685 90.341C344.687 90.3357 344.687 90.3375 344.683 90.348C344.675 90.374 344.649 90.4528 344.598 90.6105C344.536 90.8042 344.448 91.0782 344.338 91.4248C344.119 92.1176 343.811 93.0953 343.439 94.2911C342.693 96.6827 341.688 99.9434 340.604 103.538C338.432 110.742 335.961 119.234 334.63 124.769C333.777 128.322 333.717 131.149 334.327 133.488C334.928 135.793 336.221 137.782 338.363 139.61C339.717 140.766 341.41 141.859 343.489 142.914C348.558 145.484 353.838 147.65 359.211 149.818C359.508 149.938 359.803 150.057 360.097 150.176C360.543 150.355 360.987 150.534 361.438 150.716L369.474 153.762L366.532 162.156C354.005 197.231 334.356 227.707 307.471 253.483L301.822 259.537L294.855 252.918L294.819 252.879C294.077 252.092 293.345 251.306 292.617 250.524C289.174 246.825 285.832 243.234 282.023 240.24C277.981 237.062 274.623 235.586 271.442 235.485C268.282 235.386 264.932 236.634 260.88 239.697C250.929 247.218 241.17 255.064 232.465 263.812C227.823 268.476 225.919 272.778 226.044 276.88C226.17 281.025 228.377 285.433 232.983 290.26C240.924 298.583 250.774 303.4 262.136 305.455C276.631 308.078 293.302 303.145 306.279 295.59C317.6 288.998 327.876 281.599 337.179 273.456L350.289 260.825Z" fill="url(#paint30_linear)"/>
<defs>
<filter id="filter0_d" x="91.9517" y="0.348633" width="439.439" height="407.916" filterUnits="userSpaceOnUse" color-interpolation-filters="sRGB">
<feFlood flood-opacity="0" result="BackgroundImageFix"/>
<feColorMatrix in="SourceAlpha" type="matrix" values="0 0 0 0 0 0 0 0 0 0 0 0 0 0 0 0 0 0 127 0"/>
<feOffset dy="20"/>
<feGaussianBlur stdDeviation="30"/>
<feColorMatrix type="matrix" values="0 0 0 0 0.945098 0 0 0 0 0.733333 0 0 0 0 0.0588235 0 0 0 0.25 0"/>
<feBlend mode="normal" in2="BackgroundImageFix" result="effect1_dropShadow"/>
<feBlend mode="normal" in="SourceGraphic" in2="effect1_dropShadow" result="shape"/>
</filter>
<filter id="filter1_d" x="192.805" y="121.094" width="99.3292" height="21.3745" filterUnits="userSpaceOnUse" color-interpolation-filters="sRGB">
<feFlood flood-opacity="0" result="BackgroundImageFix"/>
<feColorMatrix in="SourceAlpha" type="matrix" values="0 0 0 0 0 0 0 0 0 0 0 0 0 0 0 0 0 0 127 0"/>
<feOffset dx="2" dy="2"/>
<feColorMatrix type="matrix" values="0 0 0 0 0 0 0 0 0 0 0 0 0 0 0 0 0 0 0.15 0"/>
<feBlend mode="normal" in2="BackgroundImageFix" result="effect1_dropShadow"/>
<feBlend mode="normal" in="SourceGraphic" in2="effect1_dropShadow" result="shape"/>
</filter>
<linearGradient id="paint0_linear" x1="230.759" y1="44.2472" x2="530.623" y2="68.1946" gradientUnits="userSpaceOnUse">
<stop stop-color="#FFDC67"/>
<stop offset="1" stop-color="#F0B90B"/>
</linearGradient>
<linearGradient id="paint1_linear" x1="213.585" y1="59.7946" x2="212.522" y2="202.405" gradientUnits="userSpaceOnUse">
<stop stop-color="#5E5D60"/>
<stop offset="0.185142" stop-color="#1A1919"/>
<stop offset="0.325571" stop-color="#6C6C6C"/>
<stop offset="0.580466" stop-color="#282828"/>
<stop offset="0.667149" stop-color="#3C3B3D"/>
<stop offset="0.823602" stop-color="#4F5052"/>
<stop offset="0.832059" stop-color="#5A5A5A"/>
<stop offset="1" stop-color="#16171A"/>
</linearGradient>
<linearGradient id="paint2_linear" x1="238.599" y1="59.2402" x2="238.599" y2="202.413" gradientUnits="userSpaceOnUse">
<stop stop-color="#2B292A"/>
<stop offset="0.624381" stop-color="#424041"/>
<stop offset="1" stop-color="#868585"/>
</linearGradient>
<linearGradient id="paint3_linear" x1="297.207" y1="66.2235" x2="201.247" y2="212.15" gradientUnits="userSpaceOnUse">
<stop offset="0.670529" stop-color="#5C5757"/>
<stop offset="0.925805" stop-color="#514F50"/>
<stop offset="1" stop-color="#363435"/>
</linearGradient>
<linearGradient id="paint4_linear" x1="219.92" y1="66.0479" x2="248.841" y2="135.717" gradientUnits="userSpaceOnUse">
<stop stop-color="white" stop-opacity="0.4"/>
<stop offset="1" stop-color="white" stop-opacity="0"/>
</linearGradient>
<linearGradient id="paint5_linear" x1="260.798" y1="121.655" x2="260.41" y2="139.246" gradientUnits="userSpaceOnUse">
<stop stop-color="#767676"/>
<stop offset="0.135417" stop-color="#606060"/>
<stop offset="0.630208" stop-color="#F8F8F8"/>
<stop offset="1" stop-color="#F8F8F8"/>
</linearGradient>
<linearGradient id="paint6_linear" x1="260.798" y1="121.655" x2="260.41" y2="139.246" gradientUnits="userSpaceOnUse">
<stop stop-color="#767676"/>
<stop offset="0.135417" stop-color="#606060"/>
<stop offset="0.630208" stop-color="#F8F8F8"/>
<stop offset="1" stop-color="#F8F8F8"/>
</linearGradient>
<linearGradient id="paint7_linear" x1="260.798" y1="121.655" x2="260.41" y2="139.246" gradientUnits="userSpaceOnUse">
<stop stop-color="#767676"/>
<stop offset="0.135417" stop-color="#606060"/>
<stop offset="0.630208" stop-color="#F8F8F8"/>
<stop offset="1" stop-color="#F8F8F8"/>
</linearGradient>
<linearGradient id="paint8_linear" x1="260.798" y1="121.655" x2="260.41" y2="139.246" gradientUnits="userSpaceOnUse">
<stop stop-color="#767676"/>
<stop offset="0.135417" stop-color="#606060"/>
<stop offset="0.630208" stop-color="#F8F8F8"/>
<stop offset="1" stop-color="#F8F8F8"/>
</linearGradient>
<linearGradient id="paint9_linear" x1="260.798" y1="121.655" x2="260.41" y2="139.246" gradientUnits="userSpaceOnUse">
<stop stop-color="#767676"/>
<stop offset="0.135417" stop-color="#606060"/>
<stop offset="0.630208" stop-color="#F8F8F8"/>
<stop offset="1" stop-color="#F8F8F8"/>
</linearGradient>
<linearGradient id="paint10_linear" x1="260.798" y1="121.655" x2="260.41" y2="139.246" gradientUnits="userSpaceOnUse">
<stop stop-color="#767676"/>
<stop offset="0.135417" stop-color="#606060"/>
<stop offset="0.630208" stop-color="#F8F8F8"/>
<stop offset="1" stop-color="#F8F8F8"/>
</linearGradient>
<linearGradient id="paint11_linear" x1="260.798" y1="121.655" x2="260.41" y2="139.246" gradientUnits="userSpaceOnUse">
<stop stop-color="#767676"/>
<stop offset="0.135417" stop-color="#606060"/>
<stop offset="0.630208" stop-color="#F8F8F8"/>
<stop offset="1" stop-color="#F8F8F8"/>
</linearGradient>
<linearGradient id="paint12_linear" x1="260.798" y1="121.655" x2="260.41" y2="139.246" gradientUnits="userSpaceOnUse">
<stop stop-color="#767676"/>
<stop offset="0.135417" stop-color="#606060"/>
<stop offset="0.630208" stop-color="#F8F8F8"/>
<stop offset="1" stop-color="#F8F8F8"/>
</linearGradient>
<linearGradient id="paint13_linear" x1="260.798" y1="121.655" x2="260.41" y2="139.246" gradientUnits="userSpaceOnUse">
<stop stop-color="#767676"/>
<stop offset="0.135417" stop-color="#606060"/>
<stop offset="0.630208" stop-color="#F8F8F8"/>
<stop offset="1" stop-color="#F8F8F8"/>
</linearGradient>
<linearGradient id="paint14_linear" x1="260.798" y1="121.655" x2="260.41" y2="139.246" gradientUnits="userSpaceOnUse">
<stop stop-color="#767676"/>
<stop offset="0.135417" stop-color="#606060"/>
<stop offset="0.630208" stop-color="#F8F8F8"/>
<stop offset="1" stop-color="#F8F8F8"/>
</linearGradient>
<linearGradient id="paint15_linear" x1="260.798" y1="121.655" x2="260.41" y2="139.246" gradientUnits="userSpaceOnUse">
<stop stop-color="#767676"/>
<stop offset="0.135417" stop-color="#606060"/>
<stop offset="0.630208" stop-color="#F8F8F8"/>
<stop offset="1" stop-color="#F8F8F8"/>
</linearGradient>
<linearGradient id="paint16_linear" x1="260.798" y1="121.655" x2="260.41" y2="139.246" gradientUnits="userSpaceOnUse">
<stop stop-color="#767676"/>
<stop offset="0.135417" stop-color="#606060"/>
<stop offset="0.630208" stop-color="#F8F8F8"/>
<stop offset="1" stop-color="#F8F8F8"/>
</linearGradient>
<linearGradient id="paint17_linear" x1="260.798" y1="121.655" x2="260.41" y2="139.246" gradientUnits="userSpaceOnUse">
<stop stop-color="#767676"/>
<stop offset="0.135417" stop-color="#606060"/>
<stop offset="0.630208" stop-color="#F8F8F8"/>
<stop offset="1" stop-color="#F8F8F8"/>
</linearGradient>
<linearGradient id="paint18_linear" x1="260.798" y1="121.655" x2="260.41" y2="139.246" gradientUnits="userSpaceOnUse">
<stop stop-color="#767676"/>
<stop offset="0.135417" stop-color="#606060"/>
<stop offset="0.630208" stop-color="#F8F8F8"/>
<stop offset="1" stop-color="#F8F8F8"/>
</linearGradient>
<linearGradient id="paint19_linear" x1="260.798" y1="121.655" x2="260.41" y2="139.246" gradientUnits="userSpaceOnUse">
<stop stop-color="#767676"/>
<stop offset="0.135417" stop-color="#606060"/>
<stop offset="0.630208" stop-color="#F8F8F8"/>
<stop offset="1" stop-color="#F8F8F8"/>
</linearGradient>
<linearGradient id="paint20_linear" x1="204.92" y1="124.786" x2="206.473" y2="142.802" gradientUnits="userSpaceOnUse">
<stop stop-color="#F8F8F8"/>
<stop offset="1" stop-color="#BEBEBE"/>
</linearGradient>
<linearGradient id="paint21_linear" x1="204.92" y1="124.786" x2="206.473" y2="142.802" gradientUnits="userSpaceOnUse">
<stop stop-color="#F8F8F8"/>
<stop offset="1" stop-color="#BEBEBE"/>
</linearGradient>
<linearGradient id="paint22_linear" x1="204.92" y1="124.786" x2="206.473" y2="142.802" gradientUnits="userSpaceOnUse">
<stop stop-color="#F8F8F8"/>
<stop offset="1" stop-color="#BEBEBE"/>
</linearGradient>
<linearGradient id="paint23_linear" x1="280.604" y1="75.0608" x2="279.436" y2="308.076" gradientUnits="userSpaceOnUse">
<stop stop-color="#56D599"/>
<stop offset="0.15625" stop-color="#1EAD64"/>
<stop offset="0.371058" stop-color="#1EAE65"/>
<stop offset="0.75" stop-color="#57D69A"/>
<stop offset="0.91676" stop-color="#1EA65F"/>
<stop offset="1" stop-color="#178E4E"/>
</linearGradient>
<linearGradient id="paint24_linear" x1="280.604" y1="75.0608" x2="279.436" y2="308.076" gradientUnits="userSpaceOnUse">
<stop stop-color="#56D599"/>
<stop offset="0.15625" stop-color="#1EAD64"/>
<stop offset="0.371058" stop-color="#1EAE65"/>
<stop offset="0.75" stop-color="#57D69A"/>
<stop offset="0.91676" stop-color="#1EA65F"/>
<stop offset="1" stop-color="#178E4E"/>
</linearGradient>
<linearGradient id="paint25_linear" x1="280.604" y1="75.0608" x2="279.436" y2="308.076" gradientUnits="userSpaceOnUse">
<stop stop-color="#56D599"/>
<stop offset="0.15625" stop-color="#1EAD64"/>
<stop offset="0.371058" stop-color="#1EAE65"/>
<stop offset="0.75" stop-color="#57D69A"/>
<stop offset="0.91676" stop-color="#1EA65F"/>
<stop offset="1" stop-color="#178E4E"/>
</linearGradient>
<linearGradient id="paint26_linear" x1="280.604" y1="75.0608" x2="279.436" y2="308.076" gradientUnits="userSpaceOnUse">
<stop stop-color="#56D599"/>
<stop offset="0.15625" stop-color="#1EAD64"/>
<stop offset="0.371058" stop-color="#1EAE65"/>
<stop offset="0.75" stop-color="#57D69A"/>
<stop offset="0.91676" stop-color="#1EA65F"/>
<stop offset="1" stop-color="#178E4E"/>
</linearGradient>
<linearGradient id="paint27_linear" x1="357.957" y1="75.4891" x2="357.957" y2="327.225" gradientUnits="userSpaceOnUse">
<stop stop-color="#1FA05B"/>
<stop offset="0.569228" stop-color="#1DB369"/>
<stop offset="1" stop-color="#62DDA3"/>
</linearGradient>
<linearGradient id="paint28_linear" x1="468.989" y1="247.78" x2="229.217" y2="93.6753" gradientUnits="userSpaceOnUse">
<stop offset="0.479067" stop-color="white" stop-opacity="0"/>
<stop offset="0.479167" stop-color="white"/>
<stop offset="1" stop-color="white" stop-opacity="0"/>
</linearGradient>
<linearGradient id="paint29_linear" x1="299.692" y1="75.8152" x2="354.902" y2="365.551" gradientUnits="userSpaceOnUse">
<stop offset="0.217623" stop-color="#20B56C"/>
<stop offset="0.656122" stop-color="#B2F5D4"/>
<stop offset="1" stop-color="#1FA25D"/>
</linearGradient>
<linearGradient id="paint30_linear" x1="385.098" y1="83.0735" x2="312.14" y2="220.377" gradientUnits="userSpaceOnUse">
<stop stop-color="white" stop-opacity="0.67"/>
<stop offset="1" stop-color="white" stop-opacity="0"/>
</linearGradient>
</defs>
</svg>
