<svg width="90" height="351" viewBox="0 0 90 351" fill="none" xmlns="http://www.w3.org/2000/svg">
<path d="M21.9902 112.504C21.9902 104.471 28.5024 97.9587 36.5357 97.9587H75.3235C83.3567 97.9587 89.8689 104.471 89.8689 112.504V336.455C89.8689 344.488 83.3567 351 75.3235 351H36.5357C28.5024 351 21.9902 344.488 21.9902 336.455V112.504Z" fill="url(#paint0_linear)"/>
<path d="M0.77832 112.505C0.77832 104.471 7.29053 97.9592 15.3237 97.9592H54.1115C62.1448 97.9592 68.657 104.471 68.657 112.505V336.455C68.657 344.488 62.1448 351.001 54.1115 351.001H15.3237C7.29053 351.001 0.77832 344.488 0.77832 336.455V112.505Z" fill="url(#paint1_linear)"/>
<path fill-rule="evenodd" clip-rule="evenodd" d="M54.1115 100.383H15.3237C8.6294 100.383 3.20256 105.81 3.20256 112.505V336.455C3.20256 343.149 8.6294 348.576 15.3237 348.576H54.1115C60.8059 348.576 66.2327 343.149 66.2327 336.455V112.505C66.2327 105.81 60.8059 100.383 54.1115 100.383ZM15.3237 97.9592C7.29053 97.9592 0.77832 104.471 0.77832 112.505V336.455C0.77832 344.488 7.29053 351.001 15.3237 351.001H54.1115C62.1448 351.001 68.657 344.488 68.657 336.455V112.505C68.657 104.471 62.1448 97.9592 54.1115 97.9592H15.3237Z" fill="url(#paint2_linear)"/>
<path fill-rule="evenodd" clip-rule="evenodd" d="M54.1115 100.383H15.3237C8.6294 100.383 3.20256 105.81 3.20256 112.505V336.455C3.20256 343.149 8.6294 348.576 15.3237 348.576H54.1115C60.8059 348.576 66.2327 343.149 66.2327 336.455V112.505C66.2327 105.81 60.8059 100.383 54.1115 100.383ZM15.3237 97.9592C7.29053 97.9592 0.77832 104.471 0.77832 112.505V336.455C0.77832 344.488 7.29053 351.001 15.3237 351.001H54.1115C62.1448 351.001 68.657 344.488 68.657 336.455V112.505C68.657 104.471 62.1448 97.9592 54.1115 97.9592H15.3237Z" fill="url(#paint3_linear)"/>
<path d="M21.9893 14.5527C21.9893 6.51953 28.5015 0.00732422 36.5347 0.00732422H75.3225C83.3557 0.00732422 89.8679 6.51953 89.8679 14.5527V60.0916C89.8679 68.1248 83.3557 74.637 75.3225 74.637H36.5347C28.5015 74.637 21.9893 68.1248 21.9893 60.0916V14.5527Z" fill="url(#paint4_linear)"/>
<path d="M21.9893 14.5527C21.9893 6.51953 28.5015 0.00732422 36.5347 0.00732422H75.3225C83.3557 0.00732422 89.8679 6.51953 89.8679 14.5527V60.0916C89.8679 68.1248 83.3557 74.637 75.3225 74.637H36.5347C28.5015 74.637 21.9893 68.1248 21.9893 60.0916V14.5527Z" fill="white" fill-opacity="0.1"/>
<path d="M0.777344 14.5527C0.777344 6.51953 7.28955 0.00732422 15.3228 0.00732422H54.1106C62.1438 0.00732422 68.656 6.51953 68.656 14.5527V60.0916C68.656 68.1248 62.1438 74.637 54.1106 74.637H15.3228C7.28955 74.637 0.777344 68.1248 0.777344 60.0916V14.5527Z" fill="url(#paint5_linear)"/>
<path d="M0.777344 14.5527C0.777344 6.51953 7.28955 0.00732422 15.3228 0.00732422H54.1106C62.1438 0.00732422 68.656 6.51953 68.656 14.5527V60.0916C68.656 68.1248 62.1438 74.637 54.1106 74.637H15.3228C7.28955 74.637 0.777344 68.1248 0.777344 60.0916V14.5527Z" fill="url(#paint6_linear)" fill-opacity="0.23"/>
<path fill-rule="evenodd" clip-rule="evenodd" d="M54.1106 2.43156H15.3228C8.62842 2.43156 3.20158 7.8584 3.20158 14.5527V60.0916C3.20158 66.7859 8.62842 72.2128 15.3228 72.2128H54.1106C60.8049 72.2128 66.2318 66.7859 66.2318 60.0916V14.5527C66.2318 7.8584 60.8049 2.43156 54.1106 2.43156ZM15.3228 0.00732422C7.28955 0.00732422 0.777344 6.51953 0.777344 14.5527V60.0916C0.777344 68.1248 7.28955 74.637 15.3228 74.637H54.1106C62.1438 74.637 68.656 68.1248 68.656 60.0916V14.5527C68.656 6.51953 62.1438 0.00732422 54.1106 0.00732422H15.3228Z" fill="url(#paint7_linear)"/>
<path fill-rule="evenodd" clip-rule="evenodd" d="M54.1106 2.43156H15.3228C8.62842 2.43156 3.20158 7.8584 3.20158 14.5527V60.0916C3.20158 66.7859 8.62842 72.2128 15.3228 72.2128H54.1106C60.8049 72.2128 66.2318 66.7859 66.2318 60.0916V14.5527C66.2318 7.8584 60.8049 2.43156 54.1106 2.43156ZM15.3228 0.00732422C7.28955 0.00732422 0.777344 6.51953 0.777344 14.5527V60.0916C0.777344 68.1248 7.28955 74.637 15.3228 74.637H54.1106C62.1438 74.637 68.656 68.1248 68.656 60.0916V14.5527C68.656 6.51953 62.1438 0.00732422 54.1106 0.00732422H15.3228Z" fill="url(#paint8_linear)"/>
<path d="M29.32 36.3881C29.4087 36.4279 29.5285 36.4876 29.6794 36.5672C29.8391 36.6368 30.1142 36.8159 30.5047 37.1045C30.8952 37.3831 31.2413 37.7065 31.543 38.0746C31.8447 38.4428 32.1154 38.9552 32.355 39.6119C32.6035 40.2587 32.7277 40.9701 32.7277 41.7463C32.7277 43.4975 32.1021 44.9801 30.8508 46.194C29.6084 47.398 27.9622 48 25.9122 48C25.0425 48 24.2172 47.8856 23.4362 47.6567C22.6553 47.4179 22.0075 47.1393 21.4928 46.8209C20.9869 46.4925 20.5476 46.1642 20.1749 45.8358C19.8022 45.5075 19.5315 45.2338 19.3629 45.0149L19.0967 44.6418L21.0002 42.5075C21.0357 42.5672 21.0979 42.6567 21.1866 42.7761C21.2842 42.8856 21.4883 43.0846 21.7989 43.3731C22.1095 43.6517 22.4334 43.9005 22.7707 44.1194C23.1168 44.3284 23.5694 44.5224 24.1285 44.7015C24.6964 44.8706 25.291 44.9552 25.9122 44.9552C27.0925 44.9552 28.0243 44.6368 28.7076 44C29.391 43.3532 29.7326 42.5522 29.7326 41.597C29.7326 40.6318 29.391 39.8308 28.7076 39.194C28.0243 38.5473 27.0925 38.2239 25.9122 38.2239H24.0086V35.1642H25.9122C26.8529 35.1642 27.585 34.8905 28.1086 34.3433C28.6411 33.796 28.9073 33.0547 28.9073 32.1194C28.9073 31.1741 28.6411 30.4279 28.1086 29.8806C27.585 29.3333 26.8529 29.0597 25.9122 29.0597C25.1135 29.0597 24.3592 29.2537 23.6492 29.6418C22.9393 30.0299 22.4379 30.403 22.145 30.7612L21.6924 31.3433L19.7756 29.209C19.8288 29.1294 19.9087 29.0199 20.0152 28.8806C20.1305 28.7313 20.379 28.4677 20.7606 28.0896C21.1422 27.7114 21.5504 27.3881 21.9853 27.1194C22.4201 26.8408 22.9925 26.5871 23.7025 26.3582C24.4124 26.1194 25.149 26 25.9122 26C27.7847 26 29.2534 26.5423 30.3183 27.6269C31.3833 28.7015 31.9157 30.0945 31.9157 31.806C31.9157 32.393 31.8225 32.9602 31.6362 33.5075C31.4587 34.0448 31.2413 34.4826 30.9839 34.8209C30.7265 35.1592 30.4736 35.4527 30.2251 35.7015C29.9855 35.9403 29.7726 36.1095 29.5862 36.209L29.32 36.3881Z" fill="url(#paint9_linear)"/>
<path d="M42.6448 27.3881C43.4879 28.3134 43.9094 29.4279 43.9094 30.7313C43.9094 32.0348 43.4879 33.1542 42.6448 34.0896C41.8018 35.0149 40.7679 35.4776 39.5432 35.4776C38.3274 35.4776 37.298 35.0149 36.455 34.0896C35.6119 33.1542 35.1904 32.0348 35.1904 30.7313C35.1904 29.4279 35.6119 28.3134 36.455 27.3881C37.298 26.4627 38.3274 26 39.5432 26C40.7679 26 41.8018 26.4627 42.6448 27.3881ZM37.9991 29C37.582 29.4677 37.3735 30.0498 37.3735 30.7463C37.3735 31.4328 37.582 32.01 37.9991 32.4776C38.4162 32.9453 38.9309 33.1791 39.5432 33.1791C40.1644 33.1791 40.6836 32.9453 41.1007 32.4776C41.5178 32.01 41.7263 31.4328 41.7263 30.7463C41.7263 30.0498 41.5178 29.4677 41.1007 29C40.6836 28.5323 40.1644 28.2985 39.5432 28.2985C38.9309 28.2985 38.4162 28.5323 37.9991 29ZM37.3735 47.7015L49.3672 26.2985H51.8165L39.8228 47.7015H37.3735ZM46.5451 46.6119C45.7021 45.6866 45.2805 44.5721 45.2805 43.2687C45.2805 41.9652 45.7021 40.8507 46.5451 39.9254C47.3882 39 48.4176 38.5373 49.6334 38.5373C50.8581 38.5373 51.8919 39 52.735 39.9254C53.5781 40.8507 53.9996 41.9652 53.9996 43.2687C53.9996 44.5721 53.5781 45.6866 52.735 46.6119C51.8919 47.5373 50.8581 48 49.6334 48C48.4176 48 47.3882 47.5373 46.5451 46.6119ZM51.1909 45.0149C51.608 44.5473 51.8165 43.9652 51.8165 43.2687C51.8165 42.5721 51.608 41.99 51.1909 41.5224C50.7738 41.0547 50.2546 40.8209 49.6334 40.8209C49.0211 40.8209 48.5064 41.0547 48.0893 41.5224C47.6722 41.99 47.4636 42.5721 47.4636 43.2687C47.4636 43.9652 47.6722 44.5473 48.0893 45.0149C48.5064 45.4826 49.0211 45.7164 49.6334 45.7164C50.2546 45.7164 50.7738 45.4826 51.1909 45.0149Z" fill="url(#paint10_linear)"/>
<path d="M27.2233 36.3881C27.312 36.4279 27.4318 36.4876 27.5827 36.5672C27.7424 36.6368 28.0175 36.8159 28.408 37.1045C28.7985 37.3831 29.1446 37.7065 29.4463 38.0746C29.748 38.4428 30.0187 38.9552 30.2583 39.6119C30.5068 40.2587 30.631 40.9701 30.631 41.7463C30.631 43.4975 30.0054 44.9801 28.7541 46.194C27.5117 47.398 25.8655 48 23.8155 48C22.9458 48 22.1205 47.8856 21.3396 47.6567C20.5586 47.4179 19.9108 47.1393 19.3961 46.8209C18.8902 46.4925 18.451 46.1642 18.0782 45.8358C17.7055 45.5075 17.4348 45.2338 17.2662 45.0149L17 44.6418L18.9036 42.5075C18.9391 42.5672 19.0012 42.6567 19.0899 42.7761C19.1875 42.8856 19.3916 43.0846 19.7022 43.3731C20.0129 43.6517 20.3368 43.9005 20.674 44.1194C21.0201 44.3284 21.4727 44.5224 22.0318 44.7015C22.5997 44.8706 23.1943 44.9552 23.8155 44.9552C24.9958 44.9552 25.9276 44.6368 26.6109 44C27.2943 43.3532 27.6359 42.5522 27.6359 41.597C27.6359 40.6318 27.2943 39.8308 26.6109 39.194C25.9276 38.5473 24.9958 38.2239 23.8155 38.2239H21.912V35.1642H23.8155C24.7562 35.1642 25.4883 34.8905 26.0119 34.3433C26.5444 33.796 26.8106 33.0547 26.8106 32.1194C26.8106 31.1741 26.5444 30.4279 26.0119 29.8806C25.4883 29.3333 24.7562 29.0597 23.8155 29.0597C23.0168 29.0597 22.2625 29.2537 21.5526 29.6418C20.8426 30.0299 20.3412 30.403 20.0483 30.7612L19.5958 31.3433L17.6789 29.209C17.7321 29.1294 17.812 29.0199 17.9185 28.8806C18.0339 28.7313 18.2823 28.4677 18.6639 28.0896C19.0455 27.7114 19.4538 27.3881 19.8886 27.1194C20.3235 26.8408 20.8959 26.5871 21.6058 26.3582C22.3158 26.1194 23.0523 26 23.8155 26C25.688 26 27.1567 26.5423 28.2216 27.6269C29.2866 28.7015 29.819 30.0945 29.819 31.806C29.819 32.393 29.7259 32.9602 29.5395 33.5075C29.362 34.0448 29.1446 34.4826 28.8872 34.8209C28.6299 35.1592 28.3769 35.4527 28.1285 35.7015C27.8889 35.9403 27.6759 36.1095 27.4895 36.209L27.2233 36.3881Z" fill="url(#paint11_linear)"/>
<path d="M27.2233 36.3881C27.312 36.4279 27.4318 36.4876 27.5827 36.5672C27.7424 36.6368 28.0175 36.8159 28.408 37.1045C28.7985 37.3831 29.1446 37.7065 29.4463 38.0746C29.748 38.4428 30.0187 38.9552 30.2583 39.6119C30.5068 40.2587 30.631 40.9701 30.631 41.7463C30.631 43.4975 30.0054 44.9801 28.7541 46.194C27.5117 47.398 25.8655 48 23.8155 48C22.9458 48 22.1205 47.8856 21.3396 47.6567C20.5586 47.4179 19.9108 47.1393 19.3961 46.8209C18.8902 46.4925 18.451 46.1642 18.0782 45.8358C17.7055 45.5075 17.4348 45.2338 17.2662 45.0149L17 44.6418L18.9036 42.5075C18.9391 42.5672 19.0012 42.6567 19.0899 42.7761C19.1875 42.8856 19.3916 43.0846 19.7022 43.3731C20.0129 43.6517 20.3368 43.9005 20.674 44.1194C21.0201 44.3284 21.4727 44.5224 22.0318 44.7015C22.5997 44.8706 23.1943 44.9552 23.8155 44.9552C24.9958 44.9552 25.9276 44.6368 26.6109 44C27.2943 43.3532 27.6359 42.5522 27.6359 41.597C27.6359 40.6318 27.2943 39.8308 26.6109 39.194C25.9276 38.5473 24.9958 38.2239 23.8155 38.2239H21.912V35.1642H23.8155C24.7562 35.1642 25.4883 34.8905 26.0119 34.3433C26.5444 33.796 26.8106 33.0547 26.8106 32.1194C26.8106 31.1741 26.5444 30.4279 26.0119 29.8806C25.4883 29.3333 24.7562 29.0597 23.8155 29.0597C23.0168 29.0597 22.2625 29.2537 21.5526 29.6418C20.8426 30.0299 20.3412 30.403 20.0483 30.7612L19.5958 31.3433L17.6789 29.209C17.7321 29.1294 17.812 29.0199 17.9185 28.8806C18.0339 28.7313 18.2823 28.4677 18.6639 28.0896C19.0455 27.7114 19.4538 27.3881 19.8886 27.1194C20.3235 26.8408 20.8959 26.5871 21.6058 26.3582C22.3158 26.1194 23.0523 26 23.8155 26C25.688 26 27.1567 26.5423 28.2216 27.6269C29.2866 28.7015 29.819 30.0945 29.819 31.806C29.819 32.393 29.7259 32.9602 29.5395 33.5075C29.362 34.0448 29.1446 34.4826 28.8872 34.8209C28.6299 35.1592 28.3769 35.4527 28.1285 35.7015C27.8889 35.9403 27.6759 36.1095 27.4895 36.209L27.2233 36.3881Z" fill="url(#paint12_linear)" fill-opacity="0.4"/>
<path d="M40.5482 27.3881C41.3912 28.3134 41.8128 29.4279 41.8128 30.7313C41.8128 32.0348 41.3912 33.1542 40.5482 34.0896C39.7051 35.0149 38.6712 35.4776 37.4466 35.4776C36.2308 35.4776 35.2013 35.0149 34.3583 34.0896C33.5152 33.1542 33.0937 32.0348 33.0937 30.7313C33.0937 29.4279 33.5152 28.3134 34.3583 27.3881C35.2013 26.4627 36.2308 26 37.4466 26C38.6712 26 39.7051 26.4627 40.5482 27.3881ZM35.9024 29C35.4853 29.4677 35.2768 30.0498 35.2768 30.7463C35.2768 31.4328 35.4853 32.01 35.9024 32.4776C36.3195 32.9453 36.8342 33.1791 37.4466 33.1791C38.0678 33.1791 38.5869 32.9453 39.004 32.4776C39.4211 32.01 39.6297 31.4328 39.6297 30.7463C39.6297 30.0498 39.4211 29.4677 39.004 29C38.5869 28.5323 38.0678 28.2985 37.4466 28.2985C36.8342 28.2985 36.3195 28.5323 35.9024 29ZM35.2768 47.7015L47.2705 26.2985H49.7198L37.7261 47.7015H35.2768ZM44.4484 46.6119C43.6054 45.6866 43.1838 44.5721 43.1838 43.2687C43.1838 41.9652 43.6054 40.8507 44.4484 39.9254C45.2915 39 46.3209 38.5373 47.5367 38.5373C48.7614 38.5373 49.7953 39 50.6383 39.9254C51.4814 40.8507 51.9029 41.9652 51.9029 43.2687C51.9029 44.5721 51.4814 45.6866 50.6383 46.6119C49.7953 47.5373 48.7614 48 47.5367 48C46.3209 48 45.2915 47.5373 44.4484 46.6119ZM49.0942 45.0149C49.5113 44.5473 49.7198 43.9652 49.7198 43.2687C49.7198 42.5721 49.5113 41.99 49.0942 41.5224C48.6771 41.0547 48.1579 40.8209 47.5367 40.8209C46.9244 40.8209 46.4097 41.0547 45.9926 41.5224C45.5755 41.99 45.3669 42.5721 45.3669 43.2687C45.3669 43.9652 45.5755 44.5473 45.9926 45.0149C46.4097 45.4826 46.9244 45.7164 47.5367 45.7164C48.1579 45.7164 48.6771 45.4826 49.0942 45.0149Z" fill="url(#paint13_linear)"/>
<path d="M40.5482 27.3881C41.3912 28.3134 41.8128 29.4279 41.8128 30.7313C41.8128 32.0348 41.3912 33.1542 40.5482 34.0896C39.7051 35.0149 38.6712 35.4776 37.4466 35.4776C36.2308 35.4776 35.2013 35.0149 34.3583 34.0896C33.5152 33.1542 33.0937 32.0348 33.0937 30.7313C33.0937 29.4279 33.5152 28.3134 34.3583 27.3881C35.2013 26.4627 36.2308 26 37.4466 26C38.6712 26 39.7051 26.4627 40.5482 27.3881ZM35.9024 29C35.4853 29.4677 35.2768 30.0498 35.2768 30.7463C35.2768 31.4328 35.4853 32.01 35.9024 32.4776C36.3195 32.9453 36.8342 33.1791 37.4466 33.1791C38.0678 33.1791 38.5869 32.9453 39.004 32.4776C39.4211 32.01 39.6297 31.4328 39.6297 30.7463C39.6297 30.0498 39.4211 29.4677 39.004 29C38.5869 28.5323 38.0678 28.2985 37.4466 28.2985C36.8342 28.2985 36.3195 28.5323 35.9024 29ZM35.2768 47.7015L47.2705 26.2985H49.7198L37.7261 47.7015H35.2768ZM44.4484 46.6119C43.6054 45.6866 43.1838 44.5721 43.1838 43.2687C43.1838 41.9652 43.6054 40.8507 44.4484 39.9254C45.2915 39 46.3209 38.5373 47.5367 38.5373C48.7614 38.5373 49.7953 39 50.6383 39.9254C51.4814 40.8507 51.9029 41.9652 51.9029 43.2687C51.9029 44.5721 51.4814 45.6866 50.6383 46.6119C49.7953 47.5373 48.7614 48 47.5367 48C46.3209 48 45.2915 47.5373 44.4484 46.6119ZM49.0942 45.0149C49.5113 44.5473 49.7198 43.9652 49.7198 43.2687C49.7198 42.5721 49.5113 41.99 49.0942 41.5224C48.6771 41.0547 48.1579 40.8209 47.5367 40.8209C46.9244 40.8209 46.4097 41.0547 45.9926 41.5224C45.5755 41.99 45.3669 42.5721 45.3669 43.2687C45.3669 43.9652 45.5755 44.5473 45.9926 45.0149C46.4097 45.4826 46.9244 45.7164 47.5367 45.7164C48.1579 45.7164 48.6771 45.4826 49.0942 45.0149Z" fill="url(#paint14_linear)" fill-opacity="0.4"/>
<defs>
<linearGradient id="paint0_linear" x1="34.9977" y1="97.9998" x2="27.9478" y2="350.803" gradientUnits="userSpaceOnUse">
<stop stop-color="#5E5D60"/>
<stop offset="0.0989583" stop-color="#1A1919"/>
<stop offset="0.758565" stop-color="#3C3B3D"/>
<stop offset="0.833789" stop-color="#4F5052"/>
<stop offset="0.91676" stop-color="#5A5A5A"/>
<stop offset="1" stop-color="#16171A"/>
</linearGradient>
<linearGradient id="paint1_linear" x1="34.7176" y1="97.9998" x2="34.7176" y2="351" gradientUnits="userSpaceOnUse">
<stop stop-color="#2B292A"/>
<stop offset="0.680059" stop-color="#424041"/>
<stop offset="1" stop-color="#868585"/>
</linearGradient>
<linearGradient id="paint2_linear" x1="62.5001" y1="105" x2="-67.4785" y2="156.871" gradientUnits="userSpaceOnUse">
<stop offset="0.670529" stop-color="#5C5757"/>
<stop offset="0.925805" stop-color="#514F50"/>
<stop offset="1" stop-color="#363435"/>
</linearGradient>
<linearGradient id="paint3_linear" x1="4.00012" y1="101" x2="94.2073" y2="125.887" gradientUnits="userSpaceOnUse">
<stop stop-color="white" stop-opacity="0.4"/>
<stop offset="1" stop-color="white" stop-opacity="0"/>
</linearGradient>
<linearGradient id="paint4_linear" x1="35.7829" y1="-0.235053" x2="34.6339" y2="101.646" gradientUnits="userSpaceOnUse">
<stop stop-color="#56D599"/>
<stop offset="0.15625" stop-color="#1EAD64"/>
<stop offset="0.541667" stop-color="#1EAE65"/>
<stop offset="0.75" stop-color="#57D69A"/>
<stop offset="0.91676" stop-color="#1EA65F"/>
<stop offset="1" stop-color="#178E4E"/>
</linearGradient>
<linearGradient id="paint5_linear" x1="34.7167" y1="0.00732422" x2="34.7167" y2="101.457" gradientUnits="userSpaceOnUse">
<stop stop-color="#1FA05B"/>
<stop offset="0.569228" stop-color="#1DB369"/>
<stop offset="1" stop-color="#62DDA3"/>
</linearGradient>
<linearGradient id="paint6_linear" x1="66.0783" y1="33.8239" x2="0.777345" y2="33.8239" gradientUnits="userSpaceOnUse">
<stop offset="0.479067" stop-color="white" stop-opacity="0"/>
<stop offset="0.479167" stop-color="white"/>
<stop offset="1" stop-color="white" stop-opacity="0"/>
</linearGradient>
<linearGradient id="paint7_linear" x1="7.77388" y1="3.50559" x2="43.0081" y2="104.578" gradientUnits="userSpaceOnUse">
<stop offset="0.217623" stop-color="#20B56C"/>
<stop offset="0.877893" stop-color="#B2F5D4"/>
<stop offset="1" stop-color="#1FA25D"/>
</linearGradient>
<linearGradient id="paint8_linear" x1="60.2479" y1="2.3395" x2="38.7043" y2="48.9569" gradientUnits="userSpaceOnUse">
<stop stop-color="white" stop-opacity="0.67"/>
<stop offset="1" stop-color="white" stop-opacity="0"/>
</linearGradient>
<linearGradient id="paint9_linear" x1="21.4388" y1="24.7587" x2="53.5132" y2="52.5676" gradientUnits="userSpaceOnUse">
<stop stop-color="#1A8E50"/>
<stop offset="0.569228" stop-color="#1A9156"/>
<stop offset="1" stop-color="#5AD79C"/>
</linearGradient>
<linearGradient id="paint10_linear" x1="21.4388" y1="24.7587" x2="53.5132" y2="52.5676" gradientUnits="userSpaceOnUse">
<stop stop-color="#1A8E50"/>
<stop offset="0.569228" stop-color="#1A9156"/>
<stop offset="1" stop-color="#5AD79C"/>
</linearGradient>
<linearGradient id="paint11_linear" x1="21.2341" y1="24.0889" x2="53.6585" y2="25.4499" gradientUnits="userSpaceOnUse">
<stop stop-color="#A3EFCA"/>
<stop offset="1" stop-color="#B3F7D5"/>
</linearGradient>
<linearGradient id="paint12_linear" x1="55.79" y1="40.832" x2="15.0854" y2="40.832" gradientUnits="userSpaceOnUse">
<stop stop-color="white" stop-opacity="0.41"/>
<stop offset="0.479167" stop-color="white"/>
<stop offset="0.671875" stop-color="white" stop-opacity="0"/>
</linearGradient>
<linearGradient id="paint13_linear" x1="21.2341" y1="24.0889" x2="53.6585" y2="25.4499" gradientUnits="userSpaceOnUse">
<stop stop-color="#A3EFCA"/>
<stop offset="1" stop-color="#B3F7D5"/>
</linearGradient>
<linearGradient id="paint14_linear" x1="55.79" y1="40.832" x2="15.0854" y2="40.832" gradientUnits="userSpaceOnUse">
<stop stop-color="white" stop-opacity="0.41"/>
<stop offset="0.479167" stop-color="white"/>
<stop offset="0.671875" stop-color="white" stop-opacity="0"/>
</linearGradient>
</defs>
</svg>
