<svg width="90" height="235" viewBox="0 0 90 235" fill="none" xmlns="http://www.w3.org/2000/svg">
<path d="M21.5137 113.113C21.5137 105.08 28.0259 98.5676 36.0591 98.5676H74.8469C82.8801 98.5676 89.3923 105.08 89.3923 113.113V220.455C89.3923 228.488 82.8801 235 74.8469 235H36.0591C28.0259 235 21.5137 228.488 21.5137 220.455V113.113Z" fill="url(#paint0_linear)"/>
<path d="M0.301758 113.113C0.301758 105.08 6.81397 98.5676 14.8472 98.5676H53.635C61.6682 98.5676 68.1804 105.08 68.1804 113.113V220.455C68.1804 228.488 61.6682 235 53.635 235H14.8472C6.81397 235 0.301758 228.488 0.301758 220.455V113.113Z" fill="url(#paint1_linear)"/>
<path fill-rule="evenodd" clip-rule="evenodd" d="M53.635 100.992H14.8472C8.15283 100.992 2.726 106.419 2.726 113.113V220.455C2.726 227.149 8.15284 232.576 14.8472 232.576H53.635C60.3293 232.576 65.7562 227.149 65.7562 220.455V113.113C65.7562 106.419 60.3293 100.992 53.635 100.992ZM14.8472 98.5676C6.81397 98.5676 0.301758 105.08 0.301758 113.113V220.455C0.301758 228.488 6.81397 235 14.8472 235H53.635C61.6682 235 68.1804 228.488 68.1804 220.455V113.113C68.1804 105.08 61.6682 98.5676 53.635 98.5676H14.8472Z" fill="url(#paint2_linear)"/>
<path fill-rule="evenodd" clip-rule="evenodd" d="M53.635 100.992H14.8472C8.15283 100.992 2.726 106.419 2.726 113.113V220.455C2.726 227.149 8.15284 232.576 14.8472 232.576H53.635C60.3293 232.576 65.7562 227.149 65.7562 220.455V113.113C65.7562 106.419 60.3293 100.992 53.635 100.992ZM14.8472 98.5676C6.81397 98.5676 0.301758 105.08 0.301758 113.113V220.455C0.301758 228.488 6.81397 235 14.8472 235H53.635C61.6682 235 68.1804 228.488 68.1804 220.455V113.113C68.1804 105.08 61.6682 98.5676 53.635 98.5676H14.8472Z" fill="url(#paint3_linear)"/>
<path d="M21.5127 15.1616C21.5127 7.12841 28.0249 0.616211 36.0581 0.616211H74.8459C82.8791 0.616211 89.3913 7.12842 89.3913 15.1616V60.7005C89.3913 68.7337 82.8791 75.2459 74.8459 75.2459H36.0581C28.0249 75.2459 21.5127 68.7337 21.5127 60.7005V15.1616Z" fill="url(#paint4_linear)"/>
<path d="M21.5127 15.1616C21.5127 7.12841 28.0249 0.616211 36.0581 0.616211H74.8459C82.8791 0.616211 89.3913 7.12842 89.3913 15.1616V60.7005C89.3913 68.7337 82.8791 75.2459 74.8459 75.2459H36.0581C28.0249 75.2459 21.5127 68.7337 21.5127 60.7005V15.1616Z" fill="white" fill-opacity="0.1"/>
<path d="M0.300781 15.1616C0.300781 7.12841 6.81299 0.616211 14.8462 0.616211H53.634C61.6672 0.616211 68.1794 7.12842 68.1794 15.1616V60.7005C68.1794 68.7337 61.6672 75.2459 53.634 75.2459H14.8462C6.81299 75.2459 0.300781 68.7337 0.300781 60.7005V15.1616Z" fill="url(#paint5_linear)"/>
<path d="M0.300781 15.1616C0.300781 7.12841 6.81299 0.616211 14.8462 0.616211H53.634C61.6672 0.616211 68.1794 7.12842 68.1794 15.1616V60.7005C68.1794 68.7337 61.6672 75.2459 53.634 75.2459H14.8462C6.81299 75.2459 0.300781 68.7337 0.300781 60.7005V15.1616Z" fill="url(#paint6_linear)" fill-opacity="0.23"/>
<path fill-rule="evenodd" clip-rule="evenodd" d="M53.634 3.04045H14.8462C8.15186 3.04045 2.72502 8.46728 2.72502 15.1616V60.7005C2.72502 67.3948 8.15186 72.8217 14.8462 72.8217H53.634C60.3284 72.8217 65.7552 67.3948 65.7552 60.7005V15.1616C65.7552 8.46729 60.3284 3.04045 53.634 3.04045ZM14.8462 0.616211C6.81299 0.616211 0.300781 7.12841 0.300781 15.1616V60.7005C0.300781 68.7337 6.81299 75.2459 14.8462 75.2459H53.634C61.6672 75.2459 68.1794 68.7337 68.1794 60.7005V15.1616C68.1794 7.12842 61.6672 0.616211 53.634 0.616211H14.8462Z" fill="url(#paint7_linear)"/>
<path fill-rule="evenodd" clip-rule="evenodd" d="M53.634 3.04045H14.8462C8.15186 3.04045 2.72502 8.46728 2.72502 15.1616V60.7005C2.72502 67.3948 8.15186 72.8217 14.8462 72.8217H53.634C60.3284 72.8217 65.7552 67.3948 65.7552 60.7005V15.1616C65.7552 8.46729 60.3284 3.04045 53.634 3.04045ZM14.8462 0.616211C6.81299 0.616211 0.300781 7.12841 0.300781 15.1616V60.7005C0.300781 68.7337 6.81299 75.2459 14.8462 75.2459H53.634C61.6672 75.2459 68.1794 68.7337 68.1794 60.7005V15.1616C68.1794 7.12842 61.6672 0.616211 53.634 0.616211H14.8462Z" fill="url(#paint8_linear)"/>
<path d="M23.2878 27.2985H26.0175V48.7015H22.4877V32.5075H18.4717V30.209C19.8208 30.0697 20.8457 29.7662 21.5465 29.2985C22.2576 28.8209 22.8381 28.1542 23.2878 27.2985Z" fill="url(#paint9_linear)"/>
<path d="M39.6187 28.3881C40.6122 29.3134 41.109 30.4279 41.109 31.7313C41.109 33.0348 40.6122 34.1542 39.6187 35.0896C38.6251 36.0149 37.4067 36.4776 35.9634 36.4776C34.5306 36.4776 33.3175 36.0149 32.3239 35.0896C31.3303 34.1542 30.8336 33.0348 30.8336 31.7313C30.8336 30.4279 31.3303 29.3134 32.3239 28.3881C33.3175 27.4627 34.5306 27 35.9634 27C37.4067 27 38.6251 27.4627 39.6187 28.3881ZM34.1437 30C33.6521 30.4677 33.4064 31.0498 33.4064 31.7463C33.4064 32.4328 33.6521 33.01 34.1437 33.4776C34.6352 33.9453 35.2418 34.1791 35.9634 34.1791C36.6955 34.1791 37.3074 33.9453 37.7989 33.4776C38.2904 33.01 38.5362 32.4328 38.5362 31.7463C38.5362 31.0498 38.2904 30.4677 37.7989 30C37.3074 29.5323 36.6955 29.2985 35.9634 29.2985C35.2418 29.2985 34.6352 29.5323 34.1437 30ZM33.4064 48.7015L47.541 27.2985H50.4275L36.2929 48.7015H33.4064ZM44.2152 47.6119C43.2216 46.6866 42.7248 45.5721 42.7248 44.2687C42.7248 42.9652 43.2216 41.8507 44.2152 40.9254C45.2087 40 46.4219 39.5373 47.8547 39.5373C49.298 39.5373 50.5164 40 51.5099 40.9254C52.5035 41.8507 53.0003 42.9652 53.0003 44.2687C53.0003 45.5721 52.5035 46.6866 51.5099 47.6119C50.5164 48.5373 49.298 49 47.8547 49C46.4219 49 45.2087 48.5373 44.2152 47.6119ZM49.6902 46.0149C50.1817 45.5473 50.4275 44.9652 50.4275 44.2687C50.4275 43.5721 50.1817 42.99 49.6902 42.5224C49.1986 42.0547 48.5868 41.8209 47.8547 41.8209C47.1331 41.8209 46.5265 42.0547 46.0349 42.5224C45.5434 42.99 45.2976 43.5721 45.2976 44.2687C45.2976 44.9652 45.5434 45.5473 46.0349 46.0149C46.5265 46.4826 47.1331 46.7164 47.8547 46.7164C48.5868 46.7164 49.1986 46.4826 49.6902 46.0149Z" fill="url(#paint10_linear)"/>
<path d="M20.8161 27.2985H23.5458V48.7015H20.016V32.5075H16V30.209C17.3491 30.0697 18.3741 29.7662 19.0748 29.2985C19.786 28.8209 20.3664 28.1542 20.8161 27.2985Z" fill="url(#paint11_linear)"/>
<path d="M20.8161 27.2985H23.5458V48.7015H20.016V32.5075H16V30.209C17.3491 30.0697 18.3741 29.7662 19.0748 29.2985C19.786 28.8209 20.3664 28.1542 20.8161 27.2985Z" fill="url(#paint12_linear)" fill-opacity="0.4"/>
<path d="M37.147 28.3881C38.1405 29.3134 38.6373 30.4279 38.6373 31.7313C38.6373 33.0348 38.1405 34.1542 37.147 35.0896C36.1534 36.0149 34.935 36.4776 33.4918 36.4776C32.059 36.4776 30.8458 36.0149 29.8522 35.0896C28.8587 34.1542 28.3619 33.0348 28.3619 31.7313C28.3619 30.4279 28.8587 29.3134 29.8522 28.3881C30.8458 27.4627 32.059 27 33.4918 27C34.935 27 36.1534 27.4627 37.147 28.3881ZM31.672 30C31.1804 30.4677 30.9347 31.0498 30.9347 31.7463C30.9347 32.4328 31.1804 33.01 31.672 33.4776C32.1635 33.9453 32.7701 34.1791 33.4918 34.1791C34.2239 34.1791 34.8357 33.9453 35.3272 33.4776C35.8188 33.01 36.0645 32.4328 36.0645 31.7463C36.0645 31.0498 35.8188 30.4677 35.3272 30C34.8357 29.5323 34.2239 29.2985 33.4918 29.2985C32.7701 29.2985 32.1635 29.5323 31.672 30ZM30.9347 48.7015L45.0693 27.2985H47.9558L33.8212 48.7015H30.9347ZM41.7435 47.6119C40.7499 46.6866 40.2532 45.5721 40.2532 44.2687C40.2532 42.9652 40.7499 41.8507 41.7435 40.9254C42.737 40 43.9502 39.5373 45.383 39.5373C46.8263 39.5373 48.0447 40 49.0383 40.9254C50.0318 41.8507 50.5286 42.9652 50.5286 44.2687C50.5286 45.5721 50.0318 46.6866 49.0383 47.6119C48.0447 48.5373 46.8263 49 45.383 49C43.9502 49 42.737 48.5373 41.7435 47.6119ZM47.2185 46.0149C47.71 45.5473 47.9558 44.9652 47.9558 44.2687C47.9558 43.5721 47.71 42.99 47.2185 42.5224C46.7269 42.0547 46.1151 41.8209 45.383 41.8209C44.6614 41.8209 44.0548 42.0547 43.5633 42.5224C43.0717 42.99 42.8259 43.5721 42.8259 44.2687C42.8259 44.9652 43.0717 45.5473 43.5633 46.0149C44.0548 46.4826 44.6614 46.7164 45.383 46.7164C46.1151 46.7164 46.7269 46.4826 47.2185 46.0149Z" fill="url(#paint13_linear)"/>
<path d="M37.147 28.3881C38.1405 29.3134 38.6373 30.4279 38.6373 31.7313C38.6373 33.0348 38.1405 34.1542 37.147 35.0896C36.1534 36.0149 34.935 36.4776 33.4918 36.4776C32.059 36.4776 30.8458 36.0149 29.8522 35.0896C28.8587 34.1542 28.3619 33.0348 28.3619 31.7313C28.3619 30.4279 28.8587 29.3134 29.8522 28.3881C30.8458 27.4627 32.059 27 33.4918 27C34.935 27 36.1534 27.4627 37.147 28.3881ZM31.672 30C31.1804 30.4677 30.9347 31.0498 30.9347 31.7463C30.9347 32.4328 31.1804 33.01 31.672 33.4776C32.1635 33.9453 32.7701 34.1791 33.4918 34.1791C34.2239 34.1791 34.8357 33.9453 35.3272 33.4776C35.8188 33.01 36.0645 32.4328 36.0645 31.7463C36.0645 31.0498 35.8188 30.4677 35.3272 30C34.8357 29.5323 34.2239 29.2985 33.4918 29.2985C32.7701 29.2985 32.1635 29.5323 31.672 30ZM30.9347 48.7015L45.0693 27.2985H47.9558L33.8212 48.7015H30.9347ZM41.7435 47.6119C40.7499 46.6866 40.2532 45.5721 40.2532 44.2687C40.2532 42.9652 40.7499 41.8507 41.7435 40.9254C42.737 40 43.9502 39.5373 45.383 39.5373C46.8263 39.5373 48.0447 40 49.0383 40.9254C50.0318 41.8507 50.5286 42.9652 50.5286 44.2687C50.5286 45.5721 50.0318 46.6866 49.0383 47.6119C48.0447 48.5373 46.8263 49 45.383 49C43.9502 49 42.737 48.5373 41.7435 47.6119ZM47.2185 46.0149C47.71 45.5473 47.9558 44.9652 47.9558 44.2687C47.9558 43.5721 47.71 42.99 47.2185 42.5224C46.7269 42.0547 46.1151 41.8209 45.383 41.8209C44.6614 41.8209 44.0548 42.0547 43.5633 42.5224C43.0717 42.99 42.8259 43.5721 42.8259 44.2687C42.8259 44.9652 43.0717 45.5473 43.5633 46.0149C44.0548 46.4826 44.6614 46.7164 45.383 46.7164C46.1151 46.7164 46.7269 46.4826 47.2185 46.0149Z" fill="url(#paint14_linear)" fill-opacity="0.4"/>
<defs>
<linearGradient id="paint0_linear" x1="35.3073" y1="98.9998" x2="31.5176" y2="234.894" gradientUnits="userSpaceOnUse">
<stop stop-color="#5E5D60"/>
<stop offset="0.0989583" stop-color="#1A1919"/>
<stop offset="0.758565" stop-color="#3C3B3D"/>
<stop offset="0.833789" stop-color="#4F5052"/>
<stop offset="0.91676" stop-color="#5A5A5A"/>
<stop offset="1" stop-color="#16171A"/>
</linearGradient>
<linearGradient id="paint1_linear" x1="34.2411" y1="98.9998" x2="34.2411" y2="235" gradientUnits="userSpaceOnUse">
<stop stop-color="#2B292A"/>
<stop offset="0.680059" stop-color="#424041"/>
<stop offset="1" stop-color="#868585"/>
</linearGradient>
<linearGradient id="paint2_linear" x1="61.5002" y1="107.5" x2="-14.2403" y2="121.248" gradientUnits="userSpaceOnUse">
<stop offset="0.670529" stop-color="#5C5757"/>
<stop offset="0.925805" stop-color="#514F50"/>
<stop offset="1" stop-color="#363435"/>
</linearGradient>
<linearGradient id="paint3_linear" x1="4.50024" y1="104" x2="41.5002" y2="194.5" gradientUnits="userSpaceOnUse">
<stop stop-color="white" stop-opacity="0.4"/>
<stop offset="1" stop-color="white" stop-opacity="0"/>
</linearGradient>
<linearGradient id="paint4_linear" x1="35.3063" y1="0.373834" x2="34.1573" y2="102.255" gradientUnits="userSpaceOnUse">
<stop stop-color="#56D599"/>
<stop offset="0.15625" stop-color="#1EAD64"/>
<stop offset="0.541667" stop-color="#1EAE65"/>
<stop offset="0.75" stop-color="#57D69A"/>
<stop offset="0.91676" stop-color="#1EA65F"/>
<stop offset="1" stop-color="#178E4E"/>
</linearGradient>
<linearGradient id="paint5_linear" x1="34.2401" y1="0.616211" x2="34.2401" y2="102.066" gradientUnits="userSpaceOnUse">
<stop stop-color="#1FA05B"/>
<stop offset="0.569228" stop-color="#1DB369"/>
<stop offset="1" stop-color="#62DDA3"/>
</linearGradient>
<linearGradient id="paint6_linear" x1="65.6018" y1="34.4328" x2="0.300783" y2="34.4328" gradientUnits="userSpaceOnUse">
<stop offset="0.479067" stop-color="white" stop-opacity="0"/>
<stop offset="0.479167" stop-color="white"/>
<stop offset="1" stop-color="white" stop-opacity="0"/>
</linearGradient>
<linearGradient id="paint7_linear" x1="7.29732" y1="4.11448" x2="42.5315" y2="105.187" gradientUnits="userSpaceOnUse">
<stop offset="0.217623" stop-color="#20B56C"/>
<stop offset="0.877893" stop-color="#B2F5D4"/>
<stop offset="1" stop-color="#1FA25D"/>
</linearGradient>
<linearGradient id="paint8_linear" x1="59.7713" y1="2.94839" x2="38.2277" y2="49.5657" gradientUnits="userSpaceOnUse">
<stop stop-color="white" stop-opacity="0.67"/>
<stop offset="1" stop-color="white" stop-opacity="0"/>
</linearGradient>
<linearGradient id="paint9_linear" x1="20.1998" y1="25.7587" x2="52.4405" y2="54.9366" gradientUnits="userSpaceOnUse">
<stop stop-color="#1A8E50"/>
<stop offset="0.569228" stop-color="#1A9156"/>
<stop offset="1" stop-color="#5AD79C"/>
</linearGradient>
<linearGradient id="paint10_linear" x1="20.1998" y1="25.7587" x2="52.4405" y2="54.9366" gradientUnits="userSpaceOnUse">
<stop stop-color="#1A8E50"/>
<stop offset="0.569228" stop-color="#1A9156"/>
<stop offset="1" stop-color="#5AD79C"/>
</linearGradient>
<linearGradient id="paint11_linear" x1="19.7029" y1="25.0889" x2="53.5427" y2="26.5715" gradientUnits="userSpaceOnUse">
<stop stop-color="#A3EFCA"/>
<stop offset="1" stop-color="#B3F7D5"/>
</linearGradient>
<linearGradient id="paint12_linear" x1="55.7729" y1="41.832" x2="13.2848" y2="41.832" gradientUnits="userSpaceOnUse">
<stop stop-color="white" stop-opacity="0.41"/>
<stop offset="0.479167" stop-color="white"/>
<stop offset="0.671875" stop-color="white" stop-opacity="0"/>
</linearGradient>
<linearGradient id="paint13_linear" x1="19.7029" y1="25.0889" x2="53.5427" y2="26.5715" gradientUnits="userSpaceOnUse">
<stop stop-color="#A3EFCA"/>
<stop offset="1" stop-color="#B3F7D5"/>
</linearGradient>
<linearGradient id="paint14_linear" x1="55.7729" y1="41.832" x2="13.2848" y2="41.832" gradientUnits="userSpaceOnUse">
<stop stop-color="white" stop-opacity="0.41"/>
<stop offset="0.479167" stop-color="white"/>
<stop offset="0.671875" stop-color="white" stop-opacity="0"/>
</linearGradient>
</defs>
</svg>
