<svg width="90" height="293" viewBox="0 0 90 293" fill="none" xmlns="http://www.w3.org/2000/svg">
<path d="M21.252 112.808C21.252 104.775 27.7642 98.2629 35.7974 98.2629H74.5852C82.6184 98.2629 89.1306 104.775 89.1306 112.808V278.454C89.1306 286.488 82.6184 293 74.5852 293H35.7974C27.7642 293 21.252 286.488 21.252 278.454V112.808Z" fill="url(#paint0_linear)"/>
<path d="M0.0400391 112.809C0.0400391 104.775 6.55225 98.2632 14.5855 98.2632H53.3733C61.4065 98.2632 67.9187 104.775 67.9187 112.809V278.455C67.9187 286.488 61.4065 293 53.3733 293H14.5855C6.55225 293 0.0400391 286.488 0.0400391 278.455V112.809Z" fill="url(#paint1_linear)"/>
<path fill-rule="evenodd" clip-rule="evenodd" d="M53.3733 100.687H14.5855C7.89112 100.687 2.46428 106.114 2.46428 112.809V278.455C2.46428 285.149 7.89112 290.576 14.5855 290.576H53.3733C60.0676 290.576 65.4945 285.149 65.4945 278.455V112.809C65.4945 106.114 60.0676 100.687 53.3733 100.687ZM14.5855 98.2632C6.55225 98.2632 0.0400391 104.775 0.0400391 112.809V278.455C0.0400391 286.488 6.55225 293 14.5855 293H53.3733C61.4065 293 67.9187 286.488 67.9187 278.455V112.809C67.9187 104.775 61.4065 98.2632 53.3733 98.2632H14.5855Z" fill="url(#paint2_linear)"/>
<path fill-rule="evenodd" clip-rule="evenodd" d="M53.3733 100.687H14.5855C7.89112 100.687 2.46428 106.114 2.46428 112.809V278.455C2.46428 285.149 7.89112 290.576 14.5855 290.576H53.3733C60.0676 290.576 65.4945 285.149 65.4945 278.455V112.809C65.4945 106.114 60.0676 100.687 53.3733 100.687ZM14.5855 98.2632C6.55225 98.2632 0.0400391 104.775 0.0400391 112.809V278.455C0.0400391 286.488 6.55225 293 14.5855 293H53.3733C61.4065 293 67.9187 286.488 67.9187 278.455V112.809C67.9187 104.775 61.4065 98.2632 53.3733 98.2632H14.5855Z" fill="url(#paint3_linear)"/>
<path d="M21.251 14.8569C21.251 6.82373 27.7632 0.311523 35.7964 0.311523H74.5842C82.6174 0.311523 89.1296 6.82373 89.1296 14.8569V60.3958C89.1296 68.429 82.6174 74.9412 74.5842 74.9412H35.7964C27.7632 74.9412 21.251 68.429 21.251 60.3958V14.8569Z" fill="url(#paint4_linear)"/>
<path d="M21.251 14.8569C21.251 6.82373 27.7632 0.311523 35.7964 0.311523H74.5842C82.6174 0.311523 89.1296 6.82373 89.1296 14.8569V60.3958C89.1296 68.429 82.6174 74.9412 74.5842 74.9412H35.7964C27.7632 74.9412 21.251 68.429 21.251 60.3958V14.8569Z" fill="white" fill-opacity="0.1"/>
<path d="M0.0390625 14.8569C0.0390625 6.82373 6.55127 0.311523 14.5845 0.311523H53.3723C61.4055 0.311523 67.9177 6.82373 67.9177 14.8569V60.3958C67.9177 68.429 61.4055 74.9412 53.3723 74.9412H14.5845C6.55127 74.9412 0.0390625 68.429 0.0390625 60.3958V14.8569Z" fill="url(#paint5_linear)"/>
<path d="M0.0390625 14.8569C0.0390625 6.82373 6.55127 0.311523 14.5845 0.311523H53.3723C61.4055 0.311523 67.9177 6.82373 67.9177 14.8569V60.3958C67.9177 68.429 61.4055 74.9412 53.3723 74.9412H14.5845C6.55127 74.9412 0.0390625 68.429 0.0390625 60.3958V14.8569Z" fill="url(#paint6_linear)" fill-opacity="0.23"/>
<path fill-rule="evenodd" clip-rule="evenodd" d="M53.3723 2.73576H14.5845C7.89014 2.73576 2.4633 8.1626 2.4633 14.8569V60.3958C2.4633 67.0901 7.89014 72.517 14.5845 72.517H53.3723C60.0666 72.517 65.4935 67.0901 65.4935 60.3958V14.8569C65.4935 8.1626 60.0666 2.73576 53.3723 2.73576ZM14.5845 0.311523C6.55127 0.311523 0.0390625 6.82373 0.0390625 14.8569V60.3958C0.0390625 68.429 6.55127 74.9412 14.5845 74.9412H53.3723C61.4055 74.9412 67.9177 68.429 67.9177 60.3958V14.8569C67.9177 6.82373 61.4055 0.311523 53.3723 0.311523H14.5845Z" fill="url(#paint7_linear)"/>
<path fill-rule="evenodd" clip-rule="evenodd" d="M53.3723 2.73576H14.5845C7.89014 2.73576 2.4633 8.1626 2.4633 14.8569V60.3958C2.4633 67.0901 7.89014 72.517 14.5845 72.517H53.3723C60.0666 72.517 65.4935 67.0901 65.4935 60.3958V14.8569C65.4935 8.1626 60.0666 2.73576 53.3723 2.73576ZM14.5845 0.311523C6.55127 0.311523 0.0390625 6.82373 0.0390625 14.8569V60.3958C0.0390625 68.429 6.55127 74.9412 14.5845 74.9412H53.3723C61.4055 74.9412 67.9177 68.429 67.9177 60.3958V14.8569C67.9177 6.82373 61.4055 0.311523 53.3723 0.311523H14.5845Z" fill="url(#paint8_linear)"/>
<path d="M31.0462 48.7015H18.1367C18.1367 47.3781 18.3175 46.1791 18.6791 45.1045C19.0407 44.0199 19.5108 43.1194 20.0894 42.403C20.677 41.6866 21.3189 41.0299 22.015 40.4328C22.7201 39.8358 23.4207 39.2935 24.1168 38.806C24.8129 38.3085 25.4503 37.8209 26.0289 37.3433C26.6165 36.8657 27.0911 36.3085 27.4527 35.6716C27.8143 35.0249 27.9951 34.3234 27.9951 33.5672C27.9951 32.4826 27.6877 31.6269 27.073 31C26.4673 30.3731 25.6175 30.0597 24.5237 30.0597C23.9903 30.0597 23.4885 30.1692 23.0185 30.3881C22.5574 30.597 22.1958 30.8507 21.9336 31.1493C21.6805 31.4378 21.4545 31.7313 21.2556 32.0299C21.0658 32.3284 20.9347 32.5871 20.8624 32.806L20.7674 33.1194L18.2723 31.8955C18.3085 31.7562 18.3582 31.5771 18.4215 31.3582C18.4938 31.1393 18.6837 30.7512 18.991 30.194C19.3074 29.6368 19.6736 29.1443 20.0894 28.7164C20.5053 28.2886 21.1064 27.8955 21.8929 27.5373C22.6794 27.1791 23.5563 27 24.5237 27C26.4311 27 27.9951 27.6318 29.2155 28.8955C30.436 30.1592 31.0462 31.7164 31.0462 33.5672C31.0462 34.5423 30.8654 35.4478 30.5038 36.2836C30.1422 37.1194 29.6811 37.8209 29.1206 38.3881C28.5692 38.9453 27.9318 39.5224 27.2086 40.1194C26.4944 40.7065 25.7983 41.2438 25.1203 41.7313C24.4423 42.2189 23.7733 42.806 23.1134 43.4925C22.4625 44.1692 21.9607 44.8856 21.6082 45.6418H31.0462V48.7015Z" fill="url(#paint9_linear)"/>
<path d="M41.4334 28.3881C42.2923 29.3134 42.7217 30.4279 42.7217 31.7313C42.7217 33.0348 42.2923 34.1542 41.4334 35.0896C40.5746 36.0149 39.5214 36.4776 38.2739 36.4776C37.0354 36.4776 35.9867 36.0149 35.1279 35.0896C34.269 34.1542 33.8396 33.0348 33.8396 31.7313C33.8396 30.4279 34.269 29.3134 35.1279 28.3881C35.9867 27.4627 37.0354 27 38.2739 27C39.5214 27 40.5746 27.4627 41.4334 28.3881ZM36.7009 30C36.276 30.4677 36.0635 31.0498 36.0635 31.7463C36.0635 32.4328 36.276 33.01 36.7009 33.4776C37.1258 33.9453 37.6501 34.1791 38.2739 34.1791C38.9067 34.1791 39.4355 33.9453 39.8604 33.4776C40.2853 33.01 40.4978 32.4328 40.4978 31.7463C40.4978 31.0498 40.2853 30.4677 39.8604 30C39.4355 29.5323 38.9067 29.2985 38.2739 29.2985C37.6501 29.2985 37.1258 29.5323 36.7009 30ZM36.0635 48.7015L48.2814 27.2985H50.7765L38.5586 48.7015H36.0635ZM45.4066 47.6119C44.5478 46.6866 44.1184 45.5721 44.1184 44.2687C44.1184 42.9652 44.5478 41.8507 45.4066 40.9254C46.2655 40 47.3141 39.5373 48.5526 39.5373C49.8002 39.5373 50.8534 40 51.7122 40.9254C52.571 41.8507 53.0004 42.9652 53.0004 44.2687C53.0004 45.5721 52.571 46.6866 51.7122 47.6119C50.8534 48.5373 49.8002 49 48.5526 49C47.3141 49 46.2655 48.5373 45.4066 47.6119ZM50.1392 46.0149C50.5641 45.5473 50.7765 44.9652 50.7765 44.2687C50.7765 43.5721 50.5641 42.99 50.1392 42.5224C49.7143 42.0547 49.1855 41.8209 48.5526 41.8209C47.9289 41.8209 47.4045 42.0547 46.9796 42.5224C46.5547 42.99 46.3423 43.5721 46.3423 44.2687C46.3423 44.9652 46.5547 45.5473 46.9796 46.0149C47.4045 46.4826 47.9289 46.7164 48.5526 46.7164C49.1855 46.7164 49.7143 46.4826 50.1392 46.0149Z" fill="url(#paint10_linear)"/>
<path d="M28.9095 48.7015H16C16 47.3781 16.1808 46.1791 16.5424 45.1045C16.904 44.0199 17.3741 43.1194 17.9527 42.403C18.5403 41.6866 19.1822 41.0299 19.8783 40.4328C20.5834 39.8358 21.284 39.2935 21.9801 38.806C22.6762 38.3085 23.3136 37.8209 23.8921 37.3433C24.4798 36.8657 24.9544 36.3085 25.316 35.6716C25.6776 35.0249 25.8584 34.3234 25.8584 33.5672C25.8584 32.4826 25.551 31.6269 24.9363 31C24.3306 30.3731 23.4808 30.0597 22.3869 30.0597C21.8536 30.0597 21.3518 30.1692 20.8817 30.3881C20.4207 30.597 20.0591 30.8507 19.7969 31.1493C19.5438 31.4378 19.3178 31.7313 19.1189 32.0299C18.929 32.3284 18.798 32.5871 18.7256 32.806L18.6307 33.1194L16.1356 31.8955C16.1718 31.7562 16.2215 31.5771 16.2848 31.3582C16.3571 31.1393 16.5469 30.7512 16.8543 30.194C17.1707 29.6368 17.5368 29.1443 17.9527 28.7164C18.3685 28.2886 18.9697 27.8955 19.7562 27.5373C20.5427 27.1791 21.4196 27 22.3869 27C24.2944 27 25.8584 27.6318 27.0788 28.8955C28.2993 30.1592 28.9095 31.7164 28.9095 33.5672C28.9095 34.5423 28.7287 35.4478 28.3671 36.2836C28.0055 37.1194 27.5444 37.8209 26.9839 38.3881C26.4324 38.9453 25.7951 39.5224 25.0719 40.1194C24.3577 40.7065 23.6616 41.2438 22.9836 41.7313C22.3056 42.2189 21.6366 42.806 20.9767 43.4925C20.3258 44.1692 19.824 44.8856 19.4715 45.6418H28.9095V48.7015Z" fill="url(#paint11_linear)"/>
<path d="M28.9095 48.7015H16C16 47.3781 16.1808 46.1791 16.5424 45.1045C16.904 44.0199 17.3741 43.1194 17.9527 42.403C18.5403 41.6866 19.1822 41.0299 19.8783 40.4328C20.5834 39.8358 21.284 39.2935 21.9801 38.806C22.6762 38.3085 23.3136 37.8209 23.8921 37.3433C24.4798 36.8657 24.9544 36.3085 25.316 35.6716C25.6776 35.0249 25.8584 34.3234 25.8584 33.5672C25.8584 32.4826 25.551 31.6269 24.9363 31C24.3306 30.3731 23.4808 30.0597 22.3869 30.0597C21.8536 30.0597 21.3518 30.1692 20.8817 30.3881C20.4207 30.597 20.0591 30.8507 19.7969 31.1493C19.5438 31.4378 19.3178 31.7313 19.1189 32.0299C18.929 32.3284 18.798 32.5871 18.7256 32.806L18.6307 33.1194L16.1356 31.8955C16.1718 31.7562 16.2215 31.5771 16.2848 31.3582C16.3571 31.1393 16.5469 30.7512 16.8543 30.194C17.1707 29.6368 17.5368 29.1443 17.9527 28.7164C18.3685 28.2886 18.9697 27.8955 19.7562 27.5373C20.5427 27.1791 21.4196 27 22.3869 27C24.2944 27 25.8584 27.6318 27.0788 28.8955C28.2993 30.1592 28.9095 31.7164 28.9095 33.5672C28.9095 34.5423 28.7287 35.4478 28.3671 36.2836C28.0055 37.1194 27.5444 37.8209 26.9839 38.3881C26.4324 38.9453 25.7951 39.5224 25.0719 40.1194C24.3577 40.7065 23.6616 41.2438 22.9836 41.7313C22.3056 42.2189 21.6366 42.806 20.9767 43.4925C20.3258 44.1692 19.824 44.8856 19.4715 45.6418H28.9095V48.7015Z" fill="url(#paint12_linear)" fill-opacity="0.4"/>
<path d="M39.2967 28.3881C40.1555 29.3134 40.585 30.4279 40.585 31.7313C40.585 33.0348 40.1555 34.1542 39.2967 35.0896C38.4379 36.0149 37.3847 36.4776 36.1372 36.4776C34.8986 36.4776 33.85 36.0149 32.9911 35.0896C32.1323 34.1542 31.7029 33.0348 31.7029 31.7313C31.7029 30.4279 32.1323 29.3134 32.9911 28.3881C33.85 27.4627 34.8986 27 36.1372 27C37.3847 27 38.4379 27.4627 39.2967 28.3881ZM34.5641 30C34.1393 30.4677 33.9268 31.0498 33.9268 31.7463C33.9268 32.4328 34.1393 33.01 34.5641 33.4776C34.989 33.9453 35.5134 34.1791 36.1372 34.1791C36.77 34.1791 37.2988 33.9453 37.7237 33.4776C38.1486 33.01 38.3611 32.4328 38.3611 31.7463C38.3611 31.0498 38.1486 30.4677 37.7237 30C37.2988 29.5323 36.77 29.2985 36.1372 29.2985C35.5134 29.2985 34.989 29.5323 34.5641 30ZM33.9268 48.7015L46.1447 27.2985H48.6398L36.4219 48.7015H33.9268ZM43.2699 47.6119C42.4111 46.6866 41.9817 45.5721 41.9817 44.2687C41.9817 42.9652 42.4111 41.8507 43.2699 40.9254C44.1287 40 45.1774 39.5373 46.4159 39.5373C47.6635 39.5373 48.7167 40 49.5755 40.9254C50.4343 41.8507 50.8637 42.9652 50.8637 44.2687C50.8637 45.5721 50.4343 46.6866 49.5755 47.6119C48.7167 48.5373 47.6635 49 46.4159 49C45.1774 49 44.1287 48.5373 43.2699 47.6119ZM48.0025 46.0149C48.4274 45.5473 48.6398 44.9652 48.6398 44.2687C48.6398 43.5721 48.4274 42.99 48.0025 42.5224C47.5776 42.0547 47.0487 41.8209 46.4159 41.8209C45.7921 41.8209 45.2678 42.0547 44.8429 42.5224C44.418 42.99 44.2056 43.5721 44.2056 44.2687C44.2056 44.9652 44.418 45.5473 44.8429 46.0149C45.2678 46.4826 45.7921 46.7164 46.4159 46.7164C47.0487 46.7164 47.5776 46.4826 48.0025 46.0149Z" fill="url(#paint13_linear)"/>
<path d="M39.2967 28.3881C40.1555 29.3134 40.585 30.4279 40.585 31.7313C40.585 33.0348 40.1555 34.1542 39.2967 35.0896C38.4379 36.0149 37.3847 36.4776 36.1372 36.4776C34.8986 36.4776 33.85 36.0149 32.9911 35.0896C32.1323 34.1542 31.7029 33.0348 31.7029 31.7313C31.7029 30.4279 32.1323 29.3134 32.9911 28.3881C33.85 27.4627 34.8986 27 36.1372 27C37.3847 27 38.4379 27.4627 39.2967 28.3881ZM34.5641 30C34.1393 30.4677 33.9268 31.0498 33.9268 31.7463C33.9268 32.4328 34.1393 33.01 34.5641 33.4776C34.989 33.9453 35.5134 34.1791 36.1372 34.1791C36.77 34.1791 37.2988 33.9453 37.7237 33.4776C38.1486 33.01 38.3611 32.4328 38.3611 31.7463C38.3611 31.0498 38.1486 30.4677 37.7237 30C37.2988 29.5323 36.77 29.2985 36.1372 29.2985C35.5134 29.2985 34.989 29.5323 34.5641 30ZM33.9268 48.7015L46.1447 27.2985H48.6398L36.4219 48.7015H33.9268ZM43.2699 47.6119C42.4111 46.6866 41.9817 45.5721 41.9817 44.2687C41.9817 42.9652 42.4111 41.8507 43.2699 40.9254C44.1287 40 45.1774 39.5373 46.4159 39.5373C47.6635 39.5373 48.7167 40 49.5755 40.9254C50.4343 41.8507 50.8637 42.9652 50.8637 44.2687C50.8637 45.5721 50.4343 46.6866 49.5755 47.6119C48.7167 48.5373 47.6635 49 46.4159 49C45.1774 49 44.1287 48.5373 43.2699 47.6119ZM48.0025 46.0149C48.4274 45.5473 48.6398 44.9652 48.6398 44.2687C48.6398 43.5721 48.4274 42.99 48.0025 42.5224C47.5776 42.0547 47.0487 41.8209 46.4159 41.8209C45.7921 41.8209 45.2678 42.0547 44.8429 42.5224C44.418 42.99 44.2056 43.5721 44.2056 44.2687C44.2056 44.9652 44.418 45.5473 44.8429 46.0149C45.2678 46.4826 45.7921 46.7164 46.4159 46.7164C47.0487 46.7164 47.5776 46.4826 48.0025 46.0149Z" fill="url(#paint14_linear)" fill-opacity="0.4"/>
<defs>
<linearGradient id="paint0_linear" x1="34.2595" y1="97.9998" x2="28.8257" y2="292.848" gradientUnits="userSpaceOnUse">
<stop stop-color="#5E5D60"/>
<stop offset="0.0989583" stop-color="#1A1919"/>
<stop offset="0.758565" stop-color="#3C3B3D"/>
<stop offset="0.833789" stop-color="#4F5052"/>
<stop offset="0.91676" stop-color="#5A5A5A"/>
<stop offset="1" stop-color="#16171A"/>
</linearGradient>
<linearGradient id="paint1_linear" x1="33.9794" y1="98" x2="33.9794" y2="293" gradientUnits="userSpaceOnUse">
<stop stop-color="#2B292A"/>
<stop offset="0.680059" stop-color="#424041"/>
<stop offset="1" stop-color="#868585"/>
</linearGradient>
<linearGradient id="paint2_linear" x1="62.0002" y1="104.5" x2="-42.461" y2="136.51" gradientUnits="userSpaceOnUse">
<stop offset="0.670529" stop-color="#5C5757"/>
<stop offset="0.925805" stop-color="#514F50"/>
<stop offset="1" stop-color="#363435"/>
</linearGradient>
<linearGradient id="paint3_linear" x1="5.50024" y1="98" x2="79.8195" y2="112.363" gradientUnits="userSpaceOnUse">
<stop stop-color="white" stop-opacity="0.4"/>
<stop offset="1" stop-color="white" stop-opacity="0"/>
</linearGradient>
<linearGradient id="paint4_linear" x1="35.0446" y1="0.0691461" x2="33.8956" y2="101.95" gradientUnits="userSpaceOnUse">
<stop stop-color="#56D599"/>
<stop offset="0.15625" stop-color="#1EAD64"/>
<stop offset="0.541667" stop-color="#1EAE65"/>
<stop offset="0.75" stop-color="#57D69A"/>
<stop offset="0.91676" stop-color="#1EA65F"/>
<stop offset="1" stop-color="#178E4E"/>
</linearGradient>
<linearGradient id="paint5_linear" x1="33.9784" y1="0.311523" x2="33.9784" y2="101.761" gradientUnits="userSpaceOnUse">
<stop stop-color="#1FA05B"/>
<stop offset="0.569228" stop-color="#1DB369"/>
<stop offset="1" stop-color="#62DDA3"/>
</linearGradient>
<linearGradient id="paint6_linear" x1="65.34" y1="34.1281" x2="0.0390641" y2="34.1281" gradientUnits="userSpaceOnUse">
<stop offset="0.479067" stop-color="white" stop-opacity="0"/>
<stop offset="0.479167" stop-color="white"/>
<stop offset="1" stop-color="white" stop-opacity="0"/>
</linearGradient>
<linearGradient id="paint7_linear" x1="7.0356" y1="3.80979" x2="42.2698" y2="104.883" gradientUnits="userSpaceOnUse">
<stop offset="0.217623" stop-color="#20B56C"/>
<stop offset="0.877893" stop-color="#B2F5D4"/>
<stop offset="1" stop-color="#1FA25D"/>
</linearGradient>
<linearGradient id="paint8_linear" x1="59.5096" y1="2.6437" x2="37.966" y2="49.2611" gradientUnits="userSpaceOnUse">
<stop stop-color="white" stop-opacity="0.67"/>
<stop offset="1" stop-color="white" stop-opacity="0"/>
</linearGradient>
<linearGradient id="paint9_linear" x1="19.9667" y1="25.7587" x2="52.1199" y2="54.1571" gradientUnits="userSpaceOnUse">
<stop stop-color="#1A8E50"/>
<stop offset="0.569228" stop-color="#1A9156"/>
<stop offset="1" stop-color="#5AD79C"/>
</linearGradient>
<linearGradient id="paint10_linear" x1="19.9667" y1="25.7587" x2="52.1199" y2="54.1571" gradientUnits="userSpaceOnUse">
<stop stop-color="#1A8E50"/>
<stop offset="0.569228" stop-color="#1A9156"/>
<stop offset="1" stop-color="#5AD79C"/>
</linearGradient>
<linearGradient id="paint11_linear" x1="19.7572" y1="25.0889" x2="52.7856" y2="26.5012" gradientUnits="userSpaceOnUse">
<stop stop-color="#A3EFCA"/>
<stop offset="1" stop-color="#B3F7D5"/>
</linearGradient>
<linearGradient id="paint12_linear" x1="54.9591" y1="41.832" x2="13.4936" y2="41.832" gradientUnits="userSpaceOnUse">
<stop stop-color="white" stop-opacity="0.41"/>
<stop offset="0.479167" stop-color="white"/>
<stop offset="0.671875" stop-color="white" stop-opacity="0"/>
</linearGradient>
<linearGradient id="paint13_linear" x1="19.7572" y1="25.0889" x2="52.7856" y2="26.5012" gradientUnits="userSpaceOnUse">
<stop stop-color="#A3EFCA"/>
<stop offset="1" stop-color="#B3F7D5"/>
</linearGradient>
<linearGradient id="paint14_linear" x1="54.9591" y1="41.832" x2="13.4936" y2="41.832" gradientUnits="userSpaceOnUse">
<stop stop-color="white" stop-opacity="0.41"/>
<stop offset="0.479167" stop-color="white"/>
<stop offset="0.671875" stop-color="white" stop-opacity="0"/>
</linearGradient>
</defs>
</svg>
