<svg width="845" height="701" viewBox="0 0 845 701" fill="none" xmlns="http://www.w3.org/2000/svg">
<path d="M116.381 520.098L116.381 520.098L13.7964 342.398C9.0521 334.18 6.80187 330.259 5.92073 326.113C5.13417 322.412 5.13417 318.588 5.92073 314.887C6.80187 310.741 9.05209 306.82 13.7964 298.602L116.381 120.902C121.126 112.682 123.397 108.772 126.547 105.936C129.359 103.404 132.672 101.491 136.27 100.322C140.302 99.0116 144.823 99 154.314 99L361.686 99C371.177 99 375.698 99.0116 379.73 100.322C383.328 101.491 386.641 103.404 389.453 105.936C392.603 108.772 394.874 112.682 399.619 120.902L502.204 298.602C506.948 306.82 509.198 310.741 510.079 314.887C510.866 318.588 510.866 322.412 510.079 326.113C509.198 330.259 506.948 334.18 502.204 342.398L399.619 520.098C394.874 528.318 392.603 532.228 389.453 535.064C386.641 537.596 383.328 539.509 379.73 540.678C375.698 541.988 371.177 542 361.686 542L154.314 542C144.823 542 140.302 541.988 136.27 540.678C132.672 539.509 129.359 537.596 126.547 535.064C123.397 532.228 121.126 528.318 116.381 520.098Z" stroke="#1CBA6E" stroke-width="2"/>
<g filter="url(#filter0_d)">
<path d="M166.736 489.662L82.0162 343.462C77.2752 335.28 74.9047 331.19 73.9771 326.839C73.1563 322.99 73.1563 319.01 73.9771 315.161C74.9047 310.81 77.2752 306.72 82.0162 298.538L166.736 152.338C171.452 144.2 173.81 140.13 177.104 137.171C180.019 134.553 183.45 132.575 187.177 131.366C191.389 130 196.092 130 205.498 130L369.502 130C378.908 130 383.611 130 387.823 131.366C391.55 132.575 394.981 134.553 397.896 137.171C401.19 140.13 403.548 144.2 408.264 152.338L492.984 298.538C497.725 306.72 500.095 310.81 501.023 315.161C501.844 319.01 501.844 322.99 501.023 326.839C500.095 331.19 497.725 335.28 492.984 343.462L408.264 489.662C403.548 497.8 401.19 501.87 397.896 504.829C394.981 507.447 391.55 509.425 387.823 510.634C383.611 512 378.908 512 369.502 512L205.498 512C196.092 512 191.389 512 187.177 510.634C183.45 509.425 180.019 507.447 177.104 504.829C173.81 501.87 171.452 497.801 166.736 489.662L166.736 489.662Z" fill="url(#paint0_linear)"/>
</g>
<g filter="url(#filter1_d)">
<path d="M295.859 548.62L176.959 342.92C172.238 334.753 169.878 330.669 168.954 326.327C168.137 322.485 168.137 318.515 168.954 314.673C169.878 310.331 172.238 306.247 176.959 298.08L295.859 92.3803L295.859 92.3801C300.572 84.2268 302.929 80.1501 306.224 77.1853C309.139 74.562 312.573 72.5805 316.304 71.3691C320.519 70 325.228 70 334.646 70L578.354 70C587.772 70 592.481 70 596.696 71.3691C600.427 72.5805 603.861 74.562 606.776 77.1853C610.071 80.1501 612.428 84.2269 617.141 92.3804L736.041 298.08C740.762 306.247 743.122 310.331 744.046 314.673C744.863 318.515 744.863 322.485 744.046 326.327C743.122 330.669 740.762 334.753 736.041 342.92L617.141 548.62C612.428 556.773 610.071 560.85 606.776 563.815C603.861 566.438 600.427 568.42 596.696 569.631C592.481 571 587.772 571 578.354 571L334.646 571C325.228 571 320.519 571 316.304 569.631C312.573 568.419 309.139 566.438 306.224 563.815C302.929 560.85 300.572 556.773 295.859 548.62Z" fill="white"/>
</g>
<path d="M534.729 215.199C534.729 207.166 541.241 200.654 549.274 200.654H588.062C596.095 200.654 602.607 207.166 602.607 215.199V497.454C602.607 505.488 596.095 512 588.062 512H549.274C541.241 512 534.729 505.488 534.729 497.454V215.199Z" fill="url(#paint1_linear)"/>
<path d="M513.517 215.199C513.517 207.166 520.029 200.654 528.062 200.654H566.85C574.883 200.654 581.395 207.166 581.395 215.199V497.454C581.395 505.488 574.883 512 566.85 512H528.062C520.029 512 513.517 505.488 513.517 497.454V215.199Z" fill="url(#paint2_linear)"/>
<path fill-rule="evenodd" clip-rule="evenodd" d="M566.85 203.078H528.062C521.368 203.078 515.941 208.505 515.941 215.199V497.454C515.941 504.149 521.368 509.576 528.062 509.576H566.85C573.544 509.576 578.971 504.149 578.971 497.454V215.199C578.971 208.505 573.544 203.078 566.85 203.078ZM528.062 200.654C520.029 200.654 513.517 207.166 513.517 215.199V497.454C513.517 505.488 520.029 512 528.062 512H566.85C574.883 512 581.395 505.488 581.395 497.454V215.199C581.395 207.166 574.883 200.654 566.85 200.654H528.062Z" fill="url(#paint3_linear)"/>
<path fill-rule="evenodd" clip-rule="evenodd" d="M566.85 203.078H528.062C521.368 203.078 515.941 208.505 515.941 215.199V497.454C515.941 504.149 521.368 509.576 528.062 509.576H566.85C573.544 509.576 578.971 504.149 578.971 497.454V215.199C578.971 208.505 573.544 203.078 566.85 203.078ZM528.062 200.654C520.029 200.654 513.517 207.166 513.517 215.199V497.454C513.517 505.488 520.029 512 528.062 512H566.85C574.883 512 581.395 505.488 581.395 497.454V215.199C581.395 207.166 574.883 200.654 566.85 200.654H528.062Z" fill="url(#paint4_linear)"/>
<path d="M534.728 117.248C534.728 109.215 541.24 102.703 549.273 102.703H588.061C596.094 102.703 602.606 109.215 602.606 117.248V162.787C602.606 170.82 596.094 177.332 588.061 177.332H549.273C541.24 177.332 534.728 170.82 534.728 162.787V117.248Z" fill="url(#paint5_linear)"/>
<path d="M534.728 117.248C534.728 109.215 541.24 102.703 549.273 102.703H588.061C596.094 102.703 602.606 109.215 602.606 117.248V162.787C602.606 170.82 596.094 177.332 588.061 177.332H549.273C541.24 177.332 534.728 170.82 534.728 162.787V117.248Z" fill="white" fill-opacity="0.1"/>
<path d="M513.516 117.248C513.516 109.215 520.028 102.703 528.061 102.703H566.849C574.882 102.703 581.394 109.215 581.394 117.248V162.787C581.394 170.82 574.882 177.332 566.849 177.332H528.061C520.028 177.332 513.516 170.82 513.516 162.787V117.248Z" fill="url(#paint6_linear)"/>
<path d="M513.516 117.248C513.516 109.215 520.028 102.703 528.061 102.703H566.849C574.882 102.703 581.394 109.215 581.394 117.248V162.787C581.394 170.82 574.882 177.332 566.849 177.332H528.061C520.028 177.332 513.516 170.82 513.516 162.787V117.248Z" fill="url(#paint7_linear)" fill-opacity="0.23"/>
<path fill-rule="evenodd" clip-rule="evenodd" d="M566.849 105.127H528.061C521.367 105.127 515.94 110.554 515.94 117.248V162.787C515.94 169.481 521.367 174.908 528.061 174.908H566.849C573.543 174.908 578.97 169.481 578.97 162.787V117.248C578.97 110.554 573.543 105.127 566.849 105.127ZM528.061 102.703C520.028 102.703 513.516 109.215 513.516 117.248V162.787C513.516 170.82 520.028 177.332 528.061 177.332H566.849C574.882 177.332 581.394 170.82 581.394 162.787V117.248C581.394 109.215 574.882 102.703 566.849 102.703H528.061Z" fill="url(#paint8_linear)"/>
<path fill-rule="evenodd" clip-rule="evenodd" d="M566.849 105.127H528.061C521.367 105.127 515.94 110.554 515.94 117.248V162.787C515.94 169.481 521.367 174.908 528.061 174.908H566.849C573.543 174.908 578.97 169.481 578.97 162.787V117.248C578.97 110.554 573.543 105.127 566.849 105.127ZM528.061 102.703C520.028 102.703 513.516 109.215 513.516 117.248V162.787C513.516 170.82 520.028 177.332 528.061 177.332H566.849C574.882 177.332 581.394 170.82 581.394 162.787V117.248C581.394 109.215 574.882 102.703 566.849 102.703H528.061Z" fill="url(#paint9_linear)"/>
<path d="M530.186 129.299H543.404V132.06L535.026 150.701H531.892L540.131 132.358H530.186V129.299Z" fill="url(#paint10_linear)"/>
<path d="M553.169 130.388C554.047 131.313 554.487 132.428 554.487 133.731C554.487 135.035 554.047 136.154 553.169 137.09C552.29 138.015 551.213 138.478 549.937 138.478C548.67 138.478 547.598 138.015 546.719 137.09C545.841 136.154 545.401 135.035 545.401 133.731C545.401 132.428 545.841 131.313 546.719 130.388C547.598 129.463 548.67 129 549.937 129C551.213 129 552.29 129.463 553.169 130.388ZM548.328 132C547.894 132.468 547.676 133.05 547.676 133.746C547.676 134.433 547.894 135.01 548.328 135.478C548.763 135.945 549.299 136.179 549.937 136.179C550.584 136.179 551.125 135.945 551.56 135.478C551.995 135.01 552.212 134.433 552.212 133.746C552.212 133.05 551.995 132.468 551.56 132C551.125 131.532 550.584 131.299 549.937 131.299C549.299 131.299 548.763 131.532 548.328 132ZM547.676 150.701L560.173 129.299H562.726L550.228 150.701H547.676ZM557.233 149.612C556.354 148.687 555.915 147.572 555.915 146.269C555.915 144.965 556.354 143.851 557.233 142.925C558.111 142 559.184 141.537 560.451 141.537C561.727 141.537 562.804 142 563.683 142.925C564.561 143.851 565 144.965 565 146.269C565 147.572 564.561 148.687 563.683 149.612C562.804 150.537 561.727 151 560.451 151C559.184 151 558.111 150.537 557.233 149.612ZM562.074 148.015C562.508 147.547 562.726 146.965 562.726 146.269C562.726 145.572 562.508 144.99 562.074 144.522C561.639 144.055 561.098 143.821 560.451 143.821C559.813 143.821 559.277 144.055 558.842 144.522C558.407 144.99 558.19 145.572 558.19 146.269C558.19 146.965 558.407 147.547 558.842 148.015C559.277 148.483 559.813 148.716 560.451 148.716C561.098 148.716 561.639 148.483 562.074 148.015Z" fill="url(#paint11_linear)"/>
<path d="M528 129.299H541.219V132.06L532.841 150.701H529.706L537.945 132.358H528V129.299Z" fill="url(#paint12_linear)"/>
<path d="M528 129.299H541.219V132.06L532.841 150.701H529.706L537.945 132.358H528V129.299Z" fill="url(#paint13_linear)" fill-opacity="0.4"/>
<path d="M550.983 130.388C551.862 131.313 552.301 132.428 552.301 133.731C552.301 135.035 551.862 136.154 550.983 137.09C550.105 138.015 549.028 138.478 547.752 138.478C546.485 138.478 545.412 138.015 544.534 137.09C543.655 136.154 543.216 135.035 543.216 133.731C543.216 132.428 543.655 131.313 544.534 130.388C545.412 129.463 546.485 129 547.752 129C549.028 129 550.105 129.463 550.983 130.388ZM546.143 132C545.708 132.468 545.491 133.05 545.491 133.746C545.491 134.433 545.708 135.01 546.143 135.478C546.577 135.945 547.114 136.179 547.752 136.179C548.399 136.179 548.94 135.945 549.374 135.478C549.809 135.01 550.026 134.433 550.026 133.746C550.026 133.05 549.809 132.468 549.374 132C548.94 131.532 548.399 131.299 547.752 131.299C547.114 131.299 546.577 131.532 546.143 132ZM545.491 150.701L557.988 129.299H560.54L548.043 150.701H545.491ZM555.047 149.612C554.169 148.687 553.73 147.572 553.73 146.269C553.73 144.965 554.169 143.851 555.047 142.925C555.926 142 556.999 141.537 558.265 141.537C559.541 141.537 560.619 142 561.497 142.925C562.376 143.851 562.815 144.965 562.815 146.269C562.815 147.572 562.376 148.687 561.497 149.612C560.619 150.537 559.541 151 558.265 151C556.999 151 555.926 150.537 555.047 149.612ZM559.888 148.015C560.323 147.547 560.54 146.965 560.54 146.269C560.54 145.572 560.323 144.99 559.888 144.522C559.454 144.055 558.913 143.821 558.265 143.821C557.627 143.821 557.091 144.055 556.656 144.522C556.222 144.99 556.004 145.572 556.004 146.269C556.004 146.965 556.222 147.547 556.656 148.015C557.091 148.483 557.627 148.716 558.265 148.716C558.913 148.716 559.454 148.483 559.888 148.015Z" fill="url(#paint14_linear)"/>
<path d="M550.983 130.388C551.862 131.313 552.301 132.428 552.301 133.731C552.301 135.035 551.862 136.154 550.983 137.09C550.105 138.015 549.028 138.478 547.752 138.478C546.485 138.478 545.412 138.015 544.534 137.09C543.655 136.154 543.216 135.035 543.216 133.731C543.216 132.428 543.655 131.313 544.534 130.388C545.412 129.463 546.485 129 547.752 129C549.028 129 550.105 129.463 550.983 130.388ZM546.143 132C545.708 132.468 545.491 133.05 545.491 133.746C545.491 134.433 545.708 135.01 546.143 135.478C546.577 135.945 547.114 136.179 547.752 136.179C548.399 136.179 548.94 135.945 549.374 135.478C549.809 135.01 550.026 134.433 550.026 133.746C550.026 133.05 549.809 132.468 549.374 132C548.94 131.532 548.399 131.299 547.752 131.299C547.114 131.299 546.577 131.532 546.143 132ZM545.491 150.701L557.988 129.299H560.54L548.043 150.701H545.491ZM555.047 149.612C554.169 148.687 553.73 147.572 553.73 146.269C553.73 144.965 554.169 143.851 555.047 142.925C555.926 142 556.999 141.537 558.265 141.537C559.541 141.537 560.619 142 561.497 142.925C562.376 143.851 562.815 144.965 562.815 146.269C562.815 147.572 562.376 148.687 561.497 149.612C560.619 150.537 559.541 151 558.265 151C556.999 151 555.926 150.537 555.047 149.612ZM559.888 148.015C560.323 147.547 560.54 146.965 560.54 146.269C560.54 145.572 560.323 144.99 559.888 144.522C559.454 144.055 558.913 143.821 558.265 143.821C557.627 143.821 557.091 144.055 556.656 144.522C556.222 144.99 556.004 145.572 556.004 146.269C556.004 146.965 556.222 147.547 556.656 148.015C557.091 148.483 557.627 148.716 558.265 148.716C558.913 148.716 559.454 148.483 559.888 148.015Z" fill="url(#paint15_linear)" fill-opacity="0.4"/>
<path d="M405.99 273.504C405.99 265.471 412.502 258.959 420.536 258.959H459.323C467.357 258.959 473.869 265.471 473.869 273.504V497.455C473.869 505.488 467.357 512 459.323 512H420.536C412.502 512 405.99 505.488 405.99 497.455V273.504Z" fill="url(#paint16_linear)"/>
<path d="M384.778 273.505C384.778 265.471 391.291 258.959 399.324 258.959H438.112C446.145 258.959 452.657 265.471 452.657 273.505V497.455C452.657 505.488 446.145 512.001 438.112 512.001H399.324C391.291 512.001 384.778 505.488 384.778 497.455V273.505Z" fill="url(#paint17_linear)"/>
<path fill-rule="evenodd" clip-rule="evenodd" d="M438.112 261.383H399.324C392.629 261.383 387.203 266.81 387.203 273.505V497.455C387.203 504.149 392.629 509.576 399.324 509.576H438.112C444.806 509.576 450.233 504.149 450.233 497.455V273.505C450.233 266.81 444.806 261.383 438.112 261.383ZM399.324 258.959C391.291 258.959 384.778 265.471 384.778 273.505V497.455C384.778 505.488 391.291 512.001 399.324 512.001H438.112C446.145 512.001 452.657 505.488 452.657 497.455V273.505C452.657 265.471 446.145 258.959 438.112 258.959H399.324Z" fill="url(#paint18_linear)"/>
<path fill-rule="evenodd" clip-rule="evenodd" d="M438.112 261.383H399.324C392.629 261.383 387.203 266.81 387.203 273.505V497.455C387.203 504.149 392.629 509.576 399.324 509.576H438.112C444.806 509.576 450.233 504.149 450.233 497.455V273.505C450.233 266.81 444.806 261.383 438.112 261.383ZM399.324 258.959C391.291 258.959 384.778 265.471 384.778 273.505V497.455C384.778 505.488 391.291 512.001 399.324 512.001H438.112C446.145 512.001 452.657 505.488 452.657 497.455V273.505C452.657 265.471 446.145 258.959 438.112 258.959H399.324Z" fill="url(#paint19_linear)"/>
<path d="M405.989 175.553C405.989 167.52 412.501 161.007 420.535 161.007H459.322C467.356 161.007 473.868 167.52 473.868 175.553V221.092C473.868 229.125 467.356 235.637 459.322 235.637H420.535C412.501 235.637 405.989 229.125 405.989 221.092V175.553Z" fill="url(#paint20_linear)"/>
<path d="M405.989 175.553C405.989 167.52 412.501 161.007 420.535 161.007H459.322C467.356 161.007 473.868 167.52 473.868 175.553V221.092C473.868 229.125 467.356 235.637 459.322 235.637H420.535C412.501 235.637 405.989 229.125 405.989 221.092V175.553Z" fill="white" fill-opacity="0.1"/>
<path d="M384.777 175.553C384.777 167.52 391.29 161.007 399.323 161.007H438.111C446.144 161.007 452.656 167.52 452.656 175.553V221.092C452.656 229.125 446.144 235.637 438.111 235.637H399.323C391.29 235.637 384.777 229.125 384.777 221.092V175.553Z" fill="url(#paint21_linear)"/>
<path d="M384.777 175.553C384.777 167.52 391.29 161.007 399.323 161.007H438.111C446.144 161.007 452.656 167.52 452.656 175.553V221.092C452.656 229.125 446.144 235.637 438.111 235.637H399.323C391.29 235.637 384.777 229.125 384.777 221.092V175.553Z" fill="url(#paint22_linear)" fill-opacity="0.23"/>
<path fill-rule="evenodd" clip-rule="evenodd" d="M438.111 163.432H399.323C392.628 163.432 387.202 168.858 387.202 175.553V221.092C387.202 227.786 392.628 233.213 399.323 233.213H438.111C444.805 233.213 450.232 227.786 450.232 221.092V175.553C450.232 168.858 444.805 163.432 438.111 163.432ZM399.323 161.007C391.29 161.007 384.777 167.52 384.777 175.553V221.092C384.777 229.125 391.29 235.637 399.323 235.637H438.111C446.144 235.637 452.656 229.125 452.656 221.092V175.553C452.656 167.52 446.144 161.007 438.111 161.007H399.323Z" fill="url(#paint23_linear)"/>
<path fill-rule="evenodd" clip-rule="evenodd" d="M438.111 163.432H399.323C392.628 163.432 387.202 168.858 387.202 175.553V221.092C387.202 227.786 392.628 233.213 399.323 233.213H438.111C444.805 233.213 450.232 227.786 450.232 221.092V175.553C450.232 168.858 444.805 163.432 438.111 163.432ZM399.323 161.007C391.29 161.007 384.777 167.52 384.777 175.553V221.092C384.777 229.125 391.29 235.637 399.323 235.637H438.111C446.144 235.637 452.656 229.125 452.656 221.092V175.553C452.656 167.52 446.144 161.007 438.111 161.007H399.323Z" fill="url(#paint24_linear)"/>
<path d="M413.32 197.388C413.409 197.428 413.529 197.488 413.679 197.567C413.839 197.637 414.114 197.816 414.505 198.104C414.895 198.383 415.241 198.706 415.543 199.075C415.845 199.443 416.115 199.955 416.355 200.612C416.603 201.259 416.728 201.97 416.728 202.746C416.728 204.498 416.102 205.98 414.851 207.194C413.608 208.398 411.962 209 409.912 209C409.043 209 408.217 208.886 407.436 208.657C406.655 208.418 406.007 208.139 405.493 207.821C404.987 207.493 404.548 207.164 404.175 206.836C403.802 206.507 403.532 206.234 403.363 206.015L403.097 205.642L405 203.507C405.036 203.567 405.098 203.657 405.187 203.776C405.284 203.886 405.488 204.085 405.799 204.373C406.11 204.652 406.433 204.9 406.771 205.119C407.117 205.328 407.569 205.522 408.128 205.701C408.696 205.871 409.291 205.955 409.912 205.955C411.092 205.955 412.024 205.637 412.708 205C413.391 204.353 413.733 203.552 413.733 202.597C413.733 201.632 413.391 200.831 412.708 200.194C412.024 199.547 411.092 199.224 409.912 199.224H408.009V196.164H409.912C410.853 196.164 411.585 195.891 412.109 195.343C412.641 194.796 412.907 194.055 412.907 193.119C412.907 192.174 412.641 191.428 412.109 190.881C411.585 190.333 410.853 190.06 409.912 190.06C409.114 190.06 408.359 190.254 407.649 190.642C406.939 191.03 406.438 191.403 406.145 191.761L405.692 192.343L403.776 190.209C403.829 190.129 403.909 190.02 404.015 189.881C404.131 189.731 404.379 189.468 404.761 189.09C405.142 188.711 405.55 188.388 405.985 188.119C406.42 187.841 406.993 187.587 407.702 187.358C408.412 187.119 409.149 187 409.912 187C411.785 187 413.253 187.542 414.318 188.627C415.383 189.701 415.916 191.095 415.916 192.806C415.916 193.393 415.823 193.96 415.636 194.507C415.459 195.045 415.241 195.483 414.984 195.821C414.727 196.159 414.474 196.453 414.225 196.701C413.986 196.94 413.773 197.109 413.586 197.209L413.32 197.388Z" fill="url(#paint25_linear)"/>
<path d="M426.645 188.388C427.488 189.313 427.909 190.428 427.909 191.731C427.909 193.035 427.488 194.154 426.645 195.09C425.802 196.015 424.768 196.478 423.543 196.478C422.327 196.478 421.298 196.015 420.455 195.09C419.612 194.154 419.19 193.035 419.19 191.731C419.19 190.428 419.612 189.313 420.455 188.388C421.298 187.463 422.327 187 423.543 187C424.768 187 425.802 187.463 426.645 188.388ZM421.999 190C421.582 190.468 421.373 191.05 421.373 191.746C421.373 192.433 421.582 193.01 421.999 193.478C422.416 193.945 422.931 194.179 423.543 194.179C424.164 194.179 424.684 193.945 425.101 193.478C425.518 193.01 425.726 192.433 425.726 191.746C425.726 191.05 425.518 190.468 425.101 190C424.684 189.532 424.164 189.299 423.543 189.299C422.931 189.299 422.416 189.532 421.999 190ZM421.373 208.701L433.367 187.299H435.817L423.823 208.701H421.373ZM430.545 207.612C429.702 206.687 429.281 205.572 429.281 204.269C429.281 202.965 429.702 201.851 430.545 200.925C431.388 200 432.418 199.537 433.633 199.537C434.858 199.537 435.892 200 436.735 200.925C437.578 201.851 438 202.965 438 204.269C438 205.572 437.578 206.687 436.735 207.612C435.892 208.537 434.858 209 433.633 209C432.418 209 431.388 208.537 430.545 207.612ZM435.191 206.015C435.608 205.547 435.817 204.965 435.817 204.269C435.817 203.572 435.608 202.99 435.191 202.522C434.774 202.055 434.255 201.821 433.633 201.821C433.021 201.821 432.506 202.055 432.089 202.522C431.672 202.99 431.464 203.572 431.464 204.269C431.464 204.965 431.672 205.547 432.089 206.015C432.506 206.483 433.021 206.716 433.633 206.716C434.255 206.716 434.774 206.483 435.191 206.015Z" fill="url(#paint26_linear)"/>
<path d="M411.223 197.388C411.312 197.428 411.432 197.488 411.583 197.567C411.742 197.637 412.018 197.816 412.408 198.104C412.798 198.383 413.145 198.706 413.446 199.075C413.748 199.443 414.019 199.955 414.258 200.612C414.507 201.259 414.631 201.97 414.631 202.746C414.631 204.498 414.005 205.98 412.754 207.194C411.512 208.398 409.866 209 407.816 209C406.946 209 406.121 208.886 405.34 208.657C404.559 208.418 403.911 208.139 403.396 207.821C402.89 207.493 402.451 207.164 402.078 206.836C401.706 206.507 401.435 206.234 401.266 206.015L401 205.642L402.904 203.507C402.939 203.567 403.001 203.657 403.09 203.776C403.188 203.886 403.392 204.085 403.702 204.373C404.013 204.652 404.337 204.9 404.674 205.119C405.02 205.328 405.473 205.522 406.032 205.701C406.6 205.871 407.194 205.955 407.816 205.955C408.996 205.955 409.928 205.637 410.611 205C411.294 204.353 411.636 203.552 411.636 202.597C411.636 201.632 411.294 200.831 410.611 200.194C409.928 199.547 408.996 199.224 407.816 199.224H405.912V196.164H407.816C408.756 196.164 409.488 195.891 410.012 195.343C410.544 194.796 410.811 194.055 410.811 193.119C410.811 192.174 410.544 191.428 410.012 190.881C409.488 190.333 408.756 190.06 407.816 190.06C407.017 190.06 406.263 190.254 405.553 190.642C404.843 191.03 404.341 191.403 404.048 191.761L403.596 192.343L401.679 190.209C401.732 190.129 401.812 190.02 401.918 189.881C402.034 189.731 402.282 189.468 402.664 189.09C403.046 188.711 403.454 188.388 403.889 188.119C404.323 187.841 404.896 187.587 405.606 187.358C406.316 187.119 407.052 187 407.816 187C409.688 187 411.157 187.542 412.222 188.627C413.287 189.701 413.819 191.095 413.819 192.806C413.819 193.393 413.726 193.96 413.539 194.507C413.362 195.045 413.145 195.483 412.887 195.821C412.63 196.159 412.377 196.453 412.128 196.701C411.889 196.94 411.676 197.109 411.49 197.209L411.223 197.388Z" fill="url(#paint27_linear)"/>
<path d="M411.223 197.388C411.312 197.428 411.432 197.488 411.583 197.567C411.742 197.637 412.018 197.816 412.408 198.104C412.798 198.383 413.145 198.706 413.446 199.075C413.748 199.443 414.019 199.955 414.258 200.612C414.507 201.259 414.631 201.97 414.631 202.746C414.631 204.498 414.005 205.98 412.754 207.194C411.512 208.398 409.866 209 407.816 209C406.946 209 406.121 208.886 405.34 208.657C404.559 208.418 403.911 208.139 403.396 207.821C402.89 207.493 402.451 207.164 402.078 206.836C401.706 206.507 401.435 206.234 401.266 206.015L401 205.642L402.904 203.507C402.939 203.567 403.001 203.657 403.09 203.776C403.188 203.886 403.392 204.085 403.702 204.373C404.013 204.652 404.337 204.9 404.674 205.119C405.02 205.328 405.473 205.522 406.032 205.701C406.6 205.871 407.194 205.955 407.816 205.955C408.996 205.955 409.928 205.637 410.611 205C411.294 204.353 411.636 203.552 411.636 202.597C411.636 201.632 411.294 200.831 410.611 200.194C409.928 199.547 408.996 199.224 407.816 199.224H405.912V196.164H407.816C408.756 196.164 409.488 195.891 410.012 195.343C410.544 194.796 410.811 194.055 410.811 193.119C410.811 192.174 410.544 191.428 410.012 190.881C409.488 190.333 408.756 190.06 407.816 190.06C407.017 190.06 406.263 190.254 405.553 190.642C404.843 191.03 404.341 191.403 404.048 191.761L403.596 192.343L401.679 190.209C401.732 190.129 401.812 190.02 401.918 189.881C402.034 189.731 402.282 189.468 402.664 189.09C403.046 188.711 403.454 188.388 403.889 188.119C404.323 187.841 404.896 187.587 405.606 187.358C406.316 187.119 407.052 187 407.816 187C409.688 187 411.157 187.542 412.222 188.627C413.287 189.701 413.819 191.095 413.819 192.806C413.819 193.393 413.726 193.96 413.539 194.507C413.362 195.045 413.145 195.483 412.887 195.821C412.63 196.159 412.377 196.453 412.128 196.701C411.889 196.94 411.676 197.109 411.49 197.209L411.223 197.388Z" fill="url(#paint28_linear)" fill-opacity="0.4"/>
<path d="M424.548 188.388C425.391 189.313 425.813 190.428 425.813 191.731C425.813 193.035 425.391 194.154 424.548 195.09C423.705 196.015 422.671 196.478 421.447 196.478C420.231 196.478 419.201 196.015 418.358 195.09C417.515 194.154 417.094 193.035 417.094 191.731C417.094 190.428 417.515 189.313 418.358 188.388C419.201 187.463 420.231 187 421.447 187C422.671 187 423.705 187.463 424.548 188.388ZM419.902 190C419.485 190.468 419.277 191.05 419.277 191.746C419.277 192.433 419.485 193.01 419.902 193.478C420.32 193.945 420.834 194.179 421.447 194.179C422.068 194.179 422.587 193.945 423.004 193.478C423.421 193.01 423.63 192.433 423.63 191.746C423.63 191.05 423.421 190.468 423.004 190C422.587 189.532 422.068 189.299 421.447 189.299C420.834 189.299 420.32 189.532 419.902 190ZM419.277 208.701L431.27 187.299H433.72L421.726 208.701H419.277ZM428.448 207.612C427.605 206.687 427.184 205.572 427.184 204.269C427.184 202.965 427.605 201.851 428.448 200.925C429.292 200 430.321 199.537 431.537 199.537C432.761 199.537 433.795 200 434.638 200.925C435.481 201.851 435.903 202.965 435.903 204.269C435.903 205.572 435.481 206.687 434.638 207.612C433.795 208.537 432.761 209 431.537 209C430.321 209 429.292 208.537 428.448 207.612ZM433.094 206.015C433.511 205.547 433.72 204.965 433.72 204.269C433.72 203.572 433.511 202.99 433.094 202.522C432.677 202.055 432.158 201.821 431.537 201.821C430.924 201.821 430.41 202.055 429.993 202.522C429.575 202.99 429.367 203.572 429.367 204.269C429.367 204.965 429.575 205.547 429.993 206.015C430.41 206.483 430.924 206.716 431.537 206.716C432.158 206.716 432.677 206.483 433.094 206.015Z" fill="url(#paint29_linear)"/>
<path d="M424.548 188.388C425.391 189.313 425.813 190.428 425.813 191.731C425.813 193.035 425.391 194.154 424.548 195.09C423.705 196.015 422.671 196.478 421.447 196.478C420.231 196.478 419.201 196.015 418.358 195.09C417.515 194.154 417.094 193.035 417.094 191.731C417.094 190.428 417.515 189.313 418.358 188.388C419.201 187.463 420.231 187 421.447 187C422.671 187 423.705 187.463 424.548 188.388ZM419.902 190C419.485 190.468 419.277 191.05 419.277 191.746C419.277 192.433 419.485 193.01 419.902 193.478C420.32 193.945 420.834 194.179 421.447 194.179C422.068 194.179 422.587 193.945 423.004 193.478C423.421 193.01 423.63 192.433 423.63 191.746C423.63 191.05 423.421 190.468 423.004 190C422.587 189.532 422.068 189.299 421.447 189.299C420.834 189.299 420.32 189.532 419.902 190ZM419.277 208.701L431.27 187.299H433.72L421.726 208.701H419.277ZM428.448 207.612C427.605 206.687 427.184 205.572 427.184 204.269C427.184 202.965 427.605 201.851 428.448 200.925C429.292 200 430.321 199.537 431.537 199.537C432.761 199.537 433.795 200 434.638 200.925C435.481 201.851 435.903 202.965 435.903 204.269C435.903 205.572 435.481 206.687 434.638 207.612C433.795 208.537 432.761 209 431.537 209C430.321 209 429.292 208.537 428.448 207.612ZM433.094 206.015C433.511 205.547 433.72 204.965 433.72 204.269C433.72 203.572 433.511 202.99 433.094 202.522C432.677 202.055 432.158 201.821 431.537 201.821C430.924 201.821 430.41 202.055 429.993 202.522C429.575 202.99 429.367 203.572 429.367 204.269C429.367 204.965 429.575 205.547 429.993 206.015C430.41 206.483 430.924 206.716 431.537 206.716C432.158 206.716 432.677 206.483 433.094 206.015Z" fill="url(#paint30_linear)" fill-opacity="0.4"/>
<path d="M277.252 331.808C277.252 323.775 283.764 317.263 291.797 317.263H330.585C338.618 317.263 345.131 323.775 345.131 331.808V497.454C345.131 505.488 338.618 512 330.585 512H291.797C283.764 512 277.252 505.488 277.252 497.454V331.808Z" fill="url(#paint31_linear)"/>
<path d="M256.04 331.809C256.04 323.775 262.552 317.263 270.585 317.263H309.373C317.406 317.263 323.919 323.775 323.919 331.809V497.455C323.919 505.488 317.406 512 309.373 512H270.585C262.552 512 256.04 505.488 256.04 497.455V331.809Z" fill="url(#paint32_linear)"/>
<path fill-rule="evenodd" clip-rule="evenodd" d="M309.373 319.687H270.585C263.891 319.687 258.464 325.114 258.464 331.809V497.455C258.464 504.149 263.891 509.576 270.585 509.576H309.373C316.068 509.576 321.494 504.149 321.494 497.455V331.809C321.494 325.114 316.068 319.687 309.373 319.687ZM270.585 317.263C262.552 317.263 256.04 323.775 256.04 331.809V497.455C256.04 505.488 262.552 512 270.585 512H309.373C317.406 512 323.919 505.488 323.919 497.455V331.809C323.919 323.775 317.406 317.263 309.373 317.263H270.585Z" fill="url(#paint33_linear)"/>
<path fill-rule="evenodd" clip-rule="evenodd" d="M309.373 319.687H270.585C263.891 319.687 258.464 325.114 258.464 331.809V497.455C258.464 504.149 263.891 509.576 270.585 509.576H309.373C316.068 509.576 321.494 504.149 321.494 497.455V331.809C321.494 325.114 316.068 319.687 309.373 319.687ZM270.585 317.263C262.552 317.263 256.04 323.775 256.04 331.809V497.455C256.04 505.488 262.552 512 270.585 512H309.373C317.406 512 323.919 505.488 323.919 497.455V331.809C323.919 323.775 317.406 317.263 309.373 317.263H270.585Z" fill="url(#paint34_linear)"/>
<path d="M277.251 233.857C277.251 225.824 283.763 219.312 291.796 219.312H330.584C338.617 219.312 345.13 225.824 345.13 233.857V279.396C345.13 287.429 338.617 293.941 330.584 293.941H291.796C283.763 293.941 277.251 287.429 277.251 279.396V233.857Z" fill="url(#paint35_linear)"/>
<path d="M277.251 233.857C277.251 225.824 283.763 219.312 291.796 219.312H330.584C338.617 219.312 345.13 225.824 345.13 233.857V279.396C345.13 287.429 338.617 293.941 330.584 293.941H291.796C283.763 293.941 277.251 287.429 277.251 279.396V233.857Z" fill="white" fill-opacity="0.1"/>
<path d="M256.039 233.857C256.039 225.824 262.551 219.312 270.584 219.312H309.372C317.406 219.312 323.918 225.824 323.918 233.857V279.396C323.918 287.429 317.406 293.941 309.372 293.941H270.584C262.551 293.941 256.039 287.429 256.039 279.396V233.857Z" fill="url(#paint36_linear)"/>
<path d="M256.039 233.857C256.039 225.824 262.551 219.312 270.584 219.312H309.372C317.406 219.312 323.918 225.824 323.918 233.857V279.396C323.918 287.429 317.406 293.941 309.372 293.941H270.584C262.551 293.941 256.039 287.429 256.039 279.396V233.857Z" fill="url(#paint37_linear)" fill-opacity="0.23"/>
<path fill-rule="evenodd" clip-rule="evenodd" d="M309.372 221.736H270.584C263.89 221.736 258.463 227.163 258.463 233.857V279.396C258.463 286.09 263.89 291.517 270.584 291.517H309.372C316.067 291.517 321.493 286.09 321.493 279.396V233.857C321.493 227.163 316.067 221.736 309.372 221.736ZM270.584 219.312C262.551 219.312 256.039 225.824 256.039 233.857V279.396C256.039 287.429 262.551 293.941 270.584 293.941H309.372C317.406 293.941 323.918 287.429 323.918 279.396V233.857C323.918 225.824 317.406 219.312 309.372 219.312H270.584Z" fill="url(#paint38_linear)"/>
<path fill-rule="evenodd" clip-rule="evenodd" d="M309.372 221.736H270.584C263.89 221.736 258.463 227.163 258.463 233.857V279.396C258.463 286.09 263.89 291.517 270.584 291.517H309.372C316.067 291.517 321.493 286.09 321.493 279.396V233.857C321.493 227.163 316.067 221.736 309.372 221.736ZM270.584 219.312C262.551 219.312 256.039 225.824 256.039 233.857V279.396C256.039 287.429 262.551 293.941 270.584 293.941H309.372C317.406 293.941 323.918 287.429 323.918 279.396V233.857C323.918 225.824 317.406 219.312 309.372 219.312H270.584Z" fill="url(#paint39_linear)"/>
<path d="M287.046 267.701H274.137C274.137 266.378 274.318 265.179 274.679 264.104C275.041 263.02 275.511 262.119 276.089 261.403C276.677 260.687 277.319 260.03 278.015 259.433C278.72 258.836 279.421 258.294 280.117 257.806C280.813 257.308 281.45 256.821 282.029 256.343C282.616 255.866 283.091 255.308 283.453 254.672C283.814 254.025 283.995 253.323 283.995 252.567C283.995 251.483 283.688 250.627 283.073 250C282.467 249.373 281.618 249.06 280.524 249.06C279.99 249.06 279.489 249.169 279.018 249.388C278.557 249.597 278.196 249.851 277.934 250.149C277.68 250.438 277.454 250.731 277.256 251.03C277.066 251.328 276.935 251.587 276.862 251.806L276.767 252.119L274.272 250.896C274.308 250.756 274.358 250.577 274.421 250.358C274.494 250.139 274.684 249.751 274.991 249.194C275.307 248.637 275.674 248.144 276.089 247.716C276.505 247.289 277.106 246.896 277.893 246.537C278.679 246.179 279.556 246 280.524 246C282.431 246 283.995 246.632 285.216 247.896C286.436 249.159 287.046 250.716 287.046 252.567C287.046 253.542 286.865 254.448 286.504 255.284C286.142 256.119 285.681 256.821 285.121 257.388C284.569 257.945 283.932 258.522 283.209 259.119C282.494 259.706 281.798 260.244 281.12 260.731C280.442 261.219 279.773 261.806 279.113 262.493C278.462 263.169 277.961 263.886 277.608 264.642H287.046V267.701Z" fill="url(#paint40_linear)"/>
<path d="M297.433 247.388C298.292 248.313 298.722 249.428 298.722 250.731C298.722 252.035 298.292 253.154 297.433 254.09C296.575 255.015 295.521 255.478 294.274 255.478C293.035 255.478 291.987 255.015 291.128 254.09C290.269 253.154 289.84 252.035 289.84 250.731C289.84 249.428 290.269 248.313 291.128 247.388C291.987 246.463 293.035 246 294.274 246C295.521 246 296.575 246.463 297.433 247.388ZM292.701 249C292.276 249.468 292.064 250.05 292.064 250.746C292.064 251.433 292.276 252.01 292.701 252.478C293.126 252.945 293.65 253.179 294.274 253.179C294.907 253.179 295.436 252.945 295.86 252.478C296.285 252.01 296.498 251.433 296.498 250.746C296.498 250.05 296.285 249.468 295.86 249C295.436 248.532 294.907 248.299 294.274 248.299C293.65 248.299 293.126 248.532 292.701 249ZM292.064 267.701L304.281 246.299H306.777L294.559 267.701H292.064ZM301.407 266.612C300.548 265.687 300.118 264.572 300.118 263.269C300.118 261.965 300.548 260.851 301.407 259.925C302.265 259 303.314 258.537 304.553 258.537C305.8 258.537 306.853 259 307.712 259.925C308.571 260.851 309 261.965 309 263.269C309 264.572 308.571 265.687 307.712 266.612C306.853 267.537 305.8 268 304.553 268C303.314 268 302.265 267.537 301.407 266.612ZM306.139 265.015C306.564 264.547 306.777 263.965 306.777 263.269C306.777 262.572 306.564 261.99 306.139 261.522C305.714 261.055 305.185 260.821 304.553 260.821C303.929 260.821 303.405 261.055 302.98 261.522C302.555 261.99 302.342 262.572 302.342 263.269C302.342 263.965 302.555 264.547 302.98 265.015C303.405 265.483 303.929 265.716 304.553 265.716C305.185 265.716 305.714 265.483 306.139 265.015Z" fill="url(#paint41_linear)"/>
<path d="M284.909 267.701H272C272 266.378 272.181 265.179 272.542 264.104C272.904 263.02 273.374 262.119 273.953 261.403C274.54 260.687 275.182 260.03 275.878 259.433C276.583 258.836 277.284 258.294 277.98 257.806C278.676 257.308 279.314 256.821 279.892 256.343C280.48 255.866 280.954 255.308 281.316 254.672C281.678 254.025 281.858 253.323 281.858 252.567C281.858 251.483 281.551 250.627 280.936 250C280.331 249.373 279.481 249.06 278.387 249.06C277.854 249.06 277.352 249.169 276.882 249.388C276.421 249.597 276.059 249.851 275.797 250.149C275.544 250.438 275.318 250.731 275.119 251.03C274.929 251.328 274.798 251.587 274.726 251.806L274.631 252.119L272.136 250.896C272.172 250.756 272.221 250.577 272.285 250.358C272.357 250.139 272.547 249.751 272.854 249.194C273.171 248.637 273.537 248.144 273.953 247.716C274.369 247.289 274.97 246.896 275.756 246.537C276.543 246.179 277.42 246 278.387 246C280.294 246 281.858 246.632 283.079 247.896C284.299 249.159 284.909 250.716 284.909 252.567C284.909 253.542 284.729 254.448 284.367 255.284C284.005 256.119 283.544 256.821 282.984 257.388C282.432 257.945 281.795 258.522 281.072 259.119C280.358 259.706 279.662 260.244 278.984 260.731C278.306 261.219 277.637 261.806 276.977 262.493C276.326 263.169 275.824 263.886 275.471 264.642H284.909V267.701Z" fill="url(#paint42_linear)"/>
<path d="M284.909 267.701H272C272 266.378 272.181 265.179 272.542 264.104C272.904 263.02 273.374 262.119 273.953 261.403C274.54 260.687 275.182 260.03 275.878 259.433C276.583 258.836 277.284 258.294 277.98 257.806C278.676 257.308 279.314 256.821 279.892 256.343C280.48 255.866 280.954 255.308 281.316 254.672C281.678 254.025 281.858 253.323 281.858 252.567C281.858 251.483 281.551 250.627 280.936 250C280.331 249.373 279.481 249.06 278.387 249.06C277.854 249.06 277.352 249.169 276.882 249.388C276.421 249.597 276.059 249.851 275.797 250.149C275.544 250.438 275.318 250.731 275.119 251.03C274.929 251.328 274.798 251.587 274.726 251.806L274.631 252.119L272.136 250.896C272.172 250.756 272.221 250.577 272.285 250.358C272.357 250.139 272.547 249.751 272.854 249.194C273.171 248.637 273.537 248.144 273.953 247.716C274.369 247.289 274.97 246.896 275.756 246.537C276.543 246.179 277.42 246 278.387 246C280.294 246 281.858 246.632 283.079 247.896C284.299 249.159 284.909 250.716 284.909 252.567C284.909 253.542 284.729 254.448 284.367 255.284C284.005 256.119 283.544 256.821 282.984 257.388C282.432 257.945 281.795 258.522 281.072 259.119C280.358 259.706 279.662 260.244 278.984 260.731C278.306 261.219 277.637 261.806 276.977 262.493C276.326 263.169 275.824 263.886 275.471 264.642H284.909V267.701Z" fill="url(#paint43_linear)" fill-opacity="0.4"/>
<path d="M295.297 247.388C296.156 248.313 296.585 249.428 296.585 250.731C296.585 252.035 296.156 253.154 295.297 254.09C294.438 255.015 293.385 255.478 292.137 255.478C290.899 255.478 289.85 255.015 288.991 254.09C288.132 253.154 287.703 252.035 287.703 250.731C287.703 249.428 288.132 248.313 288.991 247.388C289.85 246.463 290.899 246 292.137 246C293.385 246 294.438 246.463 295.297 247.388ZM290.564 249C290.139 249.468 289.927 250.05 289.927 250.746C289.927 251.433 290.139 252.01 290.564 252.478C290.989 252.945 291.513 253.179 292.137 253.179C292.77 253.179 293.299 252.945 293.724 252.478C294.149 252.01 294.361 251.433 294.361 250.746C294.361 250.05 294.149 249.468 293.724 249C293.299 248.532 292.77 248.299 292.137 248.299C291.513 248.299 290.989 248.532 290.564 249ZM289.927 267.701L302.145 246.299H304.64L292.422 267.701H289.927ZM299.27 266.612C298.411 265.687 297.982 264.572 297.982 263.269C297.982 261.965 298.411 260.851 299.27 259.925C300.129 259 301.177 258.537 302.416 258.537C303.663 258.537 304.717 259 305.575 259.925C306.434 260.851 306.864 261.965 306.864 263.269C306.864 264.572 306.434 265.687 305.575 266.612C304.717 267.537 303.663 268 302.416 268C301.177 268 300.129 267.537 299.27 266.612ZM304.002 265.015C304.427 264.547 304.64 263.965 304.64 263.269C304.64 262.572 304.427 261.99 304.002 261.522C303.578 261.055 303.049 260.821 302.416 260.821C301.792 260.821 301.268 261.055 300.843 261.522C300.418 261.99 300.206 262.572 300.206 263.269C300.206 263.965 300.418 264.547 300.843 265.015C301.268 265.483 301.792 265.716 302.416 265.716C303.049 265.716 303.578 265.483 304.002 265.015Z" fill="url(#paint44_linear)"/>
<path d="M295.297 247.388C296.156 248.313 296.585 249.428 296.585 250.731C296.585 252.035 296.156 253.154 295.297 254.09C294.438 255.015 293.385 255.478 292.137 255.478C290.899 255.478 289.85 255.015 288.991 254.09C288.132 253.154 287.703 252.035 287.703 250.731C287.703 249.428 288.132 248.313 288.991 247.388C289.85 246.463 290.899 246 292.137 246C293.385 246 294.438 246.463 295.297 247.388ZM290.564 249C290.139 249.468 289.927 250.05 289.927 250.746C289.927 251.433 290.139 252.01 290.564 252.478C290.989 252.945 291.513 253.179 292.137 253.179C292.77 253.179 293.299 252.945 293.724 252.478C294.149 252.01 294.361 251.433 294.361 250.746C294.361 250.05 294.149 249.468 293.724 249C293.299 248.532 292.77 248.299 292.137 248.299C291.513 248.299 290.989 248.532 290.564 249ZM289.927 267.701L302.145 246.299H304.64L292.422 267.701H289.927ZM299.27 266.612C298.411 265.687 297.982 264.572 297.982 263.269C297.982 261.965 298.411 260.851 299.27 259.925C300.129 259 301.177 258.537 302.416 258.537C303.663 258.537 304.717 259 305.575 259.925C306.434 260.851 306.864 261.965 306.864 263.269C306.864 264.572 306.434 265.687 305.575 266.612C304.717 267.537 303.663 268 302.416 268C301.177 268 300.129 267.537 299.27 266.612ZM304.002 265.015C304.427 264.547 304.64 263.965 304.64 263.269C304.64 262.572 304.427 261.99 304.002 261.522C303.578 261.055 303.049 260.821 302.416 260.821C301.792 260.821 301.268 261.055 300.843 261.522C300.418 261.99 300.206 262.572 300.206 263.269C300.206 263.965 300.418 264.547 300.843 265.015C301.268 265.483 301.792 265.716 302.416 265.716C303.049 265.716 303.578 265.483 304.002 265.015Z" fill="url(#paint45_linear)" fill-opacity="0.4"/>
<path d="M148.514 390.113C148.514 382.08 155.026 375.568 163.059 375.568H201.847C209.88 375.568 216.392 382.08 216.392 390.113V497.455C216.392 505.488 209.88 512 201.847 512H163.059C155.026 512 148.514 505.488 148.514 497.455V390.113Z" fill="url(#paint46_linear)"/>
<path d="M127.302 390.113C127.302 382.08 133.814 375.568 141.847 375.568H180.635C188.668 375.568 195.18 382.08 195.18 390.113V497.455C195.18 505.488 188.668 512 180.635 512H141.847C133.814 512 127.302 505.488 127.302 497.455V390.113Z" fill="url(#paint47_linear)"/>
<path fill-rule="evenodd" clip-rule="evenodd" d="M180.635 377.992H141.847C135.153 377.992 129.726 383.419 129.726 390.113V497.455C129.726 504.149 135.153 509.576 141.847 509.576H180.635C187.329 509.576 192.756 504.149 192.756 497.455V390.113C192.756 383.419 187.329 377.992 180.635 377.992ZM141.847 375.568C133.814 375.568 127.302 382.08 127.302 390.113V497.455C127.302 505.488 133.814 512 141.847 512H180.635C188.668 512 195.18 505.488 195.18 497.455V390.113C195.18 382.08 188.668 375.568 180.635 375.568H141.847Z" fill="url(#paint48_linear)"/>
<path fill-rule="evenodd" clip-rule="evenodd" d="M180.635 377.992H141.847C135.153 377.992 129.726 383.419 129.726 390.113V497.455C129.726 504.149 135.153 509.576 141.847 509.576H180.635C187.329 509.576 192.756 504.149 192.756 497.455V390.113C192.756 383.419 187.329 377.992 180.635 377.992ZM141.847 375.568C133.814 375.568 127.302 382.08 127.302 390.113V497.455C127.302 505.488 133.814 512 141.847 512H180.635C188.668 512 195.18 505.488 195.18 497.455V390.113C195.18 382.08 188.668 375.568 180.635 375.568H141.847Z" fill="url(#paint49_linear)"/>
<path d="M148.513 292.162C148.513 284.128 155.025 277.616 163.058 277.616H201.846C209.879 277.616 216.391 284.128 216.391 292.162V337.7C216.391 345.734 209.879 352.246 201.846 352.246H163.058C155.025 352.246 148.513 345.734 148.513 337.7V292.162Z" fill="url(#paint50_linear)"/>
<path d="M148.513 292.162C148.513 284.128 155.025 277.616 163.058 277.616H201.846C209.879 277.616 216.391 284.128 216.391 292.162V337.7C216.391 345.734 209.879 352.246 201.846 352.246H163.058C155.025 352.246 148.513 345.734 148.513 337.7V292.162Z" fill="white" fill-opacity="0.1"/>
<path d="M127.301 292.162C127.301 284.128 133.813 277.616 141.846 277.616H180.634C188.667 277.616 195.179 284.128 195.179 292.162V337.7C195.179 345.734 188.667 352.246 180.634 352.246H141.846C133.813 352.246 127.301 345.734 127.301 337.7V292.162Z" fill="url(#paint51_linear)"/>
<path d="M127.301 292.162C127.301 284.128 133.813 277.616 141.846 277.616H180.634C188.667 277.616 195.179 284.128 195.179 292.162V337.7C195.179 345.734 188.667 352.246 180.634 352.246H141.846C133.813 352.246 127.301 345.734 127.301 337.7V292.162Z" fill="url(#paint52_linear)" fill-opacity="0.23"/>
<path fill-rule="evenodd" clip-rule="evenodd" d="M180.634 280.04H141.846C135.152 280.04 129.725 285.467 129.725 292.162V337.7C129.725 344.395 135.152 349.822 141.846 349.822H180.634C187.328 349.822 192.755 344.395 192.755 337.7V292.162C192.755 285.467 187.328 280.04 180.634 280.04ZM141.846 277.616C133.813 277.616 127.301 284.128 127.301 292.162V337.7C127.301 345.734 133.813 352.246 141.846 352.246H180.634C188.667 352.246 195.179 345.734 195.179 337.7V292.162C195.179 284.128 188.667 277.616 180.634 277.616H141.846Z" fill="url(#paint53_linear)"/>
<path fill-rule="evenodd" clip-rule="evenodd" d="M180.634 280.04H141.846C135.152 280.04 129.725 285.467 129.725 292.162V337.7C129.725 344.395 135.152 349.822 141.846 349.822H180.634C187.328 349.822 192.755 344.395 192.755 337.7V292.162C192.755 285.467 187.328 280.04 180.634 280.04ZM141.846 277.616C133.813 277.616 127.301 284.128 127.301 292.162V337.7C127.301 345.734 133.813 352.246 141.846 352.246H180.634C188.667 352.246 195.179 345.734 195.179 337.7V292.162C195.179 284.128 188.667 277.616 180.634 277.616H141.846Z" fill="url(#paint54_linear)"/>
<path d="M150.288 304.299H153.017V325.701H149.488V309.507H145.472V307.209C146.821 307.07 147.846 306.766 148.546 306.299C149.258 305.821 149.838 305.154 150.288 304.299Z" fill="url(#paint55_linear)"/>
<path d="M166.619 305.388C167.612 306.313 168.109 307.428 168.109 308.731C168.109 310.035 167.612 311.154 166.619 312.09C165.625 313.015 164.407 313.478 162.963 313.478C161.531 313.478 160.317 313.015 159.324 312.09C158.33 311.154 157.834 310.035 157.834 308.731C157.834 307.428 158.33 306.313 159.324 305.388C160.317 304.463 161.531 304 162.963 304C164.407 304 165.625 304.463 166.619 305.388ZM161.144 307C160.652 307.468 160.406 308.05 160.406 308.746C160.406 309.433 160.652 310.01 161.144 310.478C161.635 310.945 162.242 311.179 162.963 311.179C163.696 311.179 164.307 310.945 164.799 310.478C165.29 310.01 165.536 309.433 165.536 308.746C165.536 308.05 165.29 307.468 164.799 307C164.307 306.532 163.696 306.299 162.963 306.299C162.242 306.299 161.635 306.532 161.144 307ZM160.406 325.701L174.541 304.299H177.427L163.293 325.701H160.406ZM171.215 324.612C170.222 323.687 169.725 322.572 169.725 321.269C169.725 319.965 170.222 318.851 171.215 317.925C172.209 317 173.422 316.537 174.855 316.537C176.298 316.537 177.516 317 178.51 317.925C179.503 318.851 180 319.965 180 321.269C180 322.572 179.503 323.687 178.51 324.612C177.516 325.537 176.298 326 174.855 326C173.422 326 172.209 325.537 171.215 324.612ZM176.69 323.015C177.182 322.547 177.427 321.965 177.427 321.269C177.427 320.572 177.182 319.99 176.69 319.522C176.199 319.055 175.587 318.821 174.855 318.821C174.133 318.821 173.526 319.055 173.035 319.522C172.543 319.99 172.298 320.572 172.298 321.269C172.298 321.965 172.543 322.547 173.035 323.015C173.526 323.483 174.133 323.716 174.855 323.716C175.587 323.716 176.199 323.483 176.69 323.015Z" fill="url(#paint56_linear)"/>
<path d="M147.816 304.299H150.546V325.701H147.016V309.507H143V307.209C144.349 307.07 145.374 306.766 146.075 306.299C146.786 305.821 147.366 305.154 147.816 304.299Z" fill="url(#paint57_linear)"/>
<path d="M147.816 304.299H150.546V325.701H147.016V309.507H143V307.209C144.349 307.07 145.374 306.766 146.075 306.299C146.786 305.821 147.366 305.154 147.816 304.299Z" fill="url(#paint58_linear)" fill-opacity="0.4"/>
<path d="M164.147 305.388C165.141 306.313 165.637 307.428 165.637 308.731C165.637 310.035 165.141 311.154 164.147 312.09C163.153 313.015 161.935 313.478 160.492 313.478C159.059 313.478 157.846 313.015 156.852 312.09C155.859 311.154 155.362 310.035 155.362 308.731C155.362 307.428 155.859 306.313 156.852 305.388C157.846 304.463 159.059 304 160.492 304C161.935 304 163.153 304.463 164.147 305.388ZM158.672 307C158.18 307.468 157.935 308.05 157.935 308.746C157.935 309.433 158.18 310.01 158.672 310.478C159.164 310.945 159.77 311.179 160.492 311.179C161.224 311.179 161.836 310.945 162.327 310.478C162.819 310.01 163.065 309.433 163.065 308.746C163.065 308.05 162.819 307.468 162.327 307C161.836 306.532 161.224 306.299 160.492 306.299C159.77 306.299 159.164 306.532 158.672 307ZM157.935 325.701L172.069 304.299H174.956L160.821 325.701H157.935ZM168.743 324.612C167.75 323.687 167.253 322.572 167.253 321.269C167.253 319.965 167.75 318.851 168.743 317.925C169.737 317 170.95 316.537 172.383 316.537C173.826 316.537 175.045 317 176.038 317.925C177.032 318.851 177.529 319.965 177.529 321.269C177.529 322.572 177.032 323.687 176.038 324.612C175.045 325.537 173.826 326 172.383 326C170.95 326 169.737 325.537 168.743 324.612ZM174.218 323.015C174.71 322.547 174.956 321.965 174.956 321.269C174.956 320.572 174.71 319.99 174.218 319.522C173.727 319.055 173.115 318.821 172.383 318.821C171.661 318.821 171.055 319.055 170.563 319.522C170.072 319.99 169.826 320.572 169.826 321.269C169.826 321.965 170.072 322.547 170.563 323.015C171.055 323.483 171.661 323.716 172.383 323.716C173.115 323.716 173.727 323.483 174.218 323.015Z" fill="url(#paint59_linear)"/>
<path d="M164.147 305.388C165.141 306.313 165.637 307.428 165.637 308.731C165.637 310.035 165.141 311.154 164.147 312.09C163.153 313.015 161.935 313.478 160.492 313.478C159.059 313.478 157.846 313.015 156.852 312.09C155.859 311.154 155.362 310.035 155.362 308.731C155.362 307.428 155.859 306.313 156.852 305.388C157.846 304.463 159.059 304 160.492 304C161.935 304 163.153 304.463 164.147 305.388ZM158.672 307C158.18 307.468 157.935 308.05 157.935 308.746C157.935 309.433 158.18 310.01 158.672 310.478C159.164 310.945 159.77 311.179 160.492 311.179C161.224 311.179 161.836 310.945 162.327 310.478C162.819 310.01 163.065 309.433 163.065 308.746C163.065 308.05 162.819 307.468 162.327 307C161.836 306.532 161.224 306.299 160.492 306.299C159.77 306.299 159.164 306.532 158.672 307ZM157.935 325.701L172.069 304.299H174.956L160.821 325.701H157.935ZM168.743 324.612C167.75 323.687 167.253 322.572 167.253 321.269C167.253 319.965 167.75 318.851 168.743 317.925C169.737 317 170.95 316.537 172.383 316.537C173.826 316.537 175.045 317 176.038 317.925C177.032 318.851 177.529 319.965 177.529 321.269C177.529 322.572 177.032 323.687 176.038 324.612C175.045 325.537 173.826 326 172.383 326C170.95 326 169.737 325.537 168.743 324.612ZM174.218 323.015C174.71 322.547 174.956 321.965 174.956 321.269C174.956 320.572 174.71 319.99 174.218 319.522C173.727 319.055 173.115 318.821 172.383 318.821C171.661 318.821 171.055 319.055 170.563 319.522C170.072 319.99 169.826 320.572 169.826 321.269C169.826 321.965 170.072 322.547 170.563 323.015C171.055 323.483 171.661 323.716 172.383 323.716C173.115 323.716 173.727 323.483 174.218 323.015Z" fill="url(#paint60_linear)" fill-opacity="0.4"/>
<defs>
<filter id="filter0_d" x="13.3613" y="90" width="548.277" height="502" filterUnits="userSpaceOnUse" color-interpolation-filters="sRGB">
<feFlood flood-opacity="0" result="BackgroundImageFix"/>
<feColorMatrix in="SourceAlpha" type="matrix" values="0 0 0 0 0 0 0 0 0 0 0 0 0 0 0 0 0 0 127 0" result="hardAlpha"/>
<feOffset dy="20"/>
<feGaussianBlur stdDeviation="30"/>
<feColorMatrix type="matrix" values="0 0 0 0 0.945098 0 0 0 0 0.733333 0 0 0 0 0.0588235 0 0 0 0.25 0"/>
<feBlend mode="normal" in2="BackgroundImageFix" result="effect1_dropShadow"/>
<feBlend mode="normal" in="SourceGraphic" in2="effect1_dropShadow" result="shape"/>
</filter>
<filter id="filter1_d" x="68.3408" y="0" width="776.318" height="701" filterUnits="userSpaceOnUse" color-interpolation-filters="sRGB">
<feFlood flood-opacity="0" result="BackgroundImageFix"/>
<feColorMatrix in="SourceAlpha" type="matrix" values="0 0 0 0 0 0 0 0 0 0 0 0 0 0 0 0 0 0 127 0" result="hardAlpha"/>
<feOffset dy="30"/>
<feGaussianBlur stdDeviation="50"/>
<feColorMatrix type="matrix" values="0 0 0 0 0.360784 0 0 0 0 0.403922 0 0 0 0 0.490196 0 0 0 0.12 0"/>
<feBlend mode="normal" in2="BackgroundImageFix" result="effect1_dropShadow"/>
<feBlend mode="normal" in="SourceGraphic" in2="effect1_dropShadow" result="shape"/>
</filter>
<linearGradient id="paint0_linear" x1="179.731" y1="135.172" x2="579.105" y2="167.19" gradientUnits="userSpaceOnUse">
<stop stop-color="#FFDC67"/>
<stop offset="1" stop-color="#F0B90B"/>
</linearGradient>
<linearGradient id="paint1_linear" x1="548.522" y1="199.994" x2="539.828" y2="511.757" gradientUnits="userSpaceOnUse">
<stop stop-color="#5E5D60"/>
<stop offset="0.0989583" stop-color="#1A1919"/>
<stop offset="0.758565" stop-color="#3C3B3D"/>
<stop offset="0.833789" stop-color="#4F5052"/>
<stop offset="0.91676" stop-color="#5A5A5A"/>
<stop offset="1" stop-color="#16171A"/>
</linearGradient>
<linearGradient id="paint2_linear" x1="547.456" y1="200.654" x2="547.456" y2="512" gradientUnits="userSpaceOnUse">
<stop stop-color="#2B292A"/>
<stop offset="0.680059" stop-color="#424041"/>
<stop offset="1" stop-color="#868585"/>
</linearGradient>
<linearGradient id="paint3_linear" x1="575.59" y1="209.383" x2="417.928" y2="280.123" gradientUnits="userSpaceOnUse">
<stop offset="0.670529" stop-color="#5C5757"/>
<stop offset="0.925805" stop-color="#514F50"/>
<stop offset="1" stop-color="#363435"/>
</linearGradient>
<linearGradient id="paint4_linear" x1="521" y1="201" x2="602.971" y2="222.539" gradientUnits="userSpaceOnUse">
<stop stop-color="white" stop-opacity="0.4"/>
<stop offset="1" stop-color="white" stop-opacity="0"/>
</linearGradient>
<linearGradient id="paint5_linear" x1="548.521" y1="102.46" x2="547.372" y2="204.341" gradientUnits="userSpaceOnUse">
<stop stop-color="#56D599"/>
<stop offset="0.15625" stop-color="#1EAD64"/>
<stop offset="0.541667" stop-color="#1EAE65"/>
<stop offset="0.75" stop-color="#57D69A"/>
<stop offset="0.91676" stop-color="#1EA65F"/>
<stop offset="1" stop-color="#178E4E"/>
</linearGradient>
<linearGradient id="paint6_linear" x1="547.455" y1="102.703" x2="547.455" y2="204.152" gradientUnits="userSpaceOnUse">
<stop stop-color="#1FA05B"/>
<stop offset="0.569228" stop-color="#1DB369"/>
<stop offset="1" stop-color="#62DDA3"/>
</linearGradient>
<linearGradient id="paint7_linear" x1="578.817" y1="136.519" x2="513.516" y2="136.519" gradientUnits="userSpaceOnUse">
<stop offset="0.479067" stop-color="white" stop-opacity="0"/>
<stop offset="0.479167" stop-color="white"/>
<stop offset="1" stop-color="white" stop-opacity="0"/>
</linearGradient>
<linearGradient id="paint8_linear" x1="520.512" y1="106.201" x2="555.746" y2="207.274" gradientUnits="userSpaceOnUse">
<stop offset="0.217623" stop-color="#20B56C"/>
<stop offset="0.877893" stop-color="#B2F5D4"/>
<stop offset="1" stop-color="#1FA25D"/>
</linearGradient>
<linearGradient id="paint9_linear" x1="572.986" y1="105.035" x2="551.443" y2="151.652" gradientUnits="userSpaceOnUse">
<stop stop-color="white" stop-opacity="0.67"/>
<stop offset="1" stop-color="white" stop-opacity="0"/>
</linearGradient>
<linearGradient id="paint10_linear" x1="532.263" y1="127.759" x2="564.39" y2="155.954" gradientUnits="userSpaceOnUse">
<stop stop-color="#1A8E50"/>
<stop offset="0.569228" stop-color="#1A9156"/>
<stop offset="1" stop-color="#5AD79C"/>
</linearGradient>
<linearGradient id="paint11_linear" x1="532.263" y1="127.759" x2="564.39" y2="155.954" gradientUnits="userSpaceOnUse">
<stop stop-color="#1A8E50"/>
<stop offset="0.569228" stop-color="#1A9156"/>
<stop offset="1" stop-color="#5AD79C"/>
</linearGradient>
<linearGradient id="paint12_linear" x1="531.992" y1="127.089" x2="564.811" y2="128.483" gradientUnits="userSpaceOnUse">
<stop stop-color="#A3EFCA"/>
<stop offset="1" stop-color="#B3F7D5"/>
</linearGradient>
<linearGradient id="paint13_linear" x1="566.97" y1="143.832" x2="525.768" y2="143.832" gradientUnits="userSpaceOnUse">
<stop stop-color="white" stop-opacity="0.41"/>
<stop offset="0.479167" stop-color="white"/>
<stop offset="0.671875" stop-color="white" stop-opacity="0"/>
</linearGradient>
<linearGradient id="paint14_linear" x1="531.992" y1="127.089" x2="564.811" y2="128.483" gradientUnits="userSpaceOnUse">
<stop stop-color="#A3EFCA"/>
<stop offset="1" stop-color="#B3F7D5"/>
</linearGradient>
<linearGradient id="paint15_linear" x1="566.97" y1="143.832" x2="525.768" y2="143.832" gradientUnits="userSpaceOnUse">
<stop stop-color="white" stop-opacity="0.41"/>
<stop offset="0.479167" stop-color="white"/>
<stop offset="0.671875" stop-color="white" stop-opacity="0"/>
</linearGradient>
<linearGradient id="paint16_linear" x1="418.998" y1="259" x2="411.948" y2="511.803" gradientUnits="userSpaceOnUse">
<stop stop-color="#5E5D60"/>
<stop offset="0.0989583" stop-color="#1A1919"/>
<stop offset="0.758565" stop-color="#3C3B3D"/>
<stop offset="0.833789" stop-color="#4F5052"/>
<stop offset="0.91676" stop-color="#5A5A5A"/>
<stop offset="1" stop-color="#16171A"/>
</linearGradient>
<linearGradient id="paint17_linear" x1="418.718" y1="259" x2="418.718" y2="512" gradientUnits="userSpaceOnUse">
<stop stop-color="#2B292A"/>
<stop offset="0.680059" stop-color="#424041"/>
<stop offset="1" stop-color="#868585"/>
</linearGradient>
<linearGradient id="paint18_linear" x1="446.5" y1="266" x2="316.521" y2="317.871" gradientUnits="userSpaceOnUse">
<stop offset="0.670529" stop-color="#5C5757"/>
<stop offset="0.925805" stop-color="#514F50"/>
<stop offset="1" stop-color="#363435"/>
</linearGradient>
<linearGradient id="paint19_linear" x1="388" y1="262" x2="478.207" y2="286.887" gradientUnits="userSpaceOnUse">
<stop stop-color="white" stop-opacity="0.4"/>
<stop offset="1" stop-color="white" stop-opacity="0"/>
</linearGradient>
<linearGradient id="paint20_linear" x1="419.783" y1="160.765" x2="418.634" y2="262.646" gradientUnits="userSpaceOnUse">
<stop stop-color="#56D599"/>
<stop offset="0.15625" stop-color="#1EAD64"/>
<stop offset="0.541667" stop-color="#1EAE65"/>
<stop offset="0.75" stop-color="#57D69A"/>
<stop offset="0.91676" stop-color="#1EA65F"/>
<stop offset="1" stop-color="#178E4E"/>
</linearGradient>
<linearGradient id="paint21_linear" x1="418.717" y1="161.007" x2="418.717" y2="262.457" gradientUnits="userSpaceOnUse">
<stop stop-color="#1FA05B"/>
<stop offset="0.569228" stop-color="#1DB369"/>
<stop offset="1" stop-color="#62DDA3"/>
</linearGradient>
<linearGradient id="paint22_linear" x1="450.078" y1="194.824" x2="384.777" y2="194.824" gradientUnits="userSpaceOnUse">
<stop offset="0.479067" stop-color="white" stop-opacity="0"/>
<stop offset="0.479167" stop-color="white"/>
<stop offset="1" stop-color="white" stop-opacity="0"/>
</linearGradient>
<linearGradient id="paint23_linear" x1="391.774" y1="164.506" x2="427.008" y2="265.578" gradientUnits="userSpaceOnUse">
<stop offset="0.217623" stop-color="#20B56C"/>
<stop offset="0.877893" stop-color="#B2F5D4"/>
<stop offset="1" stop-color="#1FA25D"/>
</linearGradient>
<linearGradient id="paint24_linear" x1="444.248" y1="163.34" x2="422.704" y2="209.957" gradientUnits="userSpaceOnUse">
<stop stop-color="white" stop-opacity="0.67"/>
<stop offset="1" stop-color="white" stop-opacity="0"/>
</linearGradient>
<linearGradient id="paint25_linear" x1="405.439" y1="185.759" x2="437.513" y2="213.568" gradientUnits="userSpaceOnUse">
<stop stop-color="#1A8E50"/>
<stop offset="0.569228" stop-color="#1A9156"/>
<stop offset="1" stop-color="#5AD79C"/>
</linearGradient>
<linearGradient id="paint26_linear" x1="405.439" y1="185.759" x2="437.513" y2="213.568" gradientUnits="userSpaceOnUse">
<stop stop-color="#1A8E50"/>
<stop offset="0.569228" stop-color="#1A9156"/>
<stop offset="1" stop-color="#5AD79C"/>
</linearGradient>
<linearGradient id="paint27_linear" x1="405.234" y1="185.089" x2="437.659" y2="186.45" gradientUnits="userSpaceOnUse">
<stop stop-color="#A3EFCA"/>
<stop offset="1" stop-color="#B3F7D5"/>
</linearGradient>
<linearGradient id="paint28_linear" x1="439.79" y1="201.832" x2="399.085" y2="201.832" gradientUnits="userSpaceOnUse">
<stop stop-color="white" stop-opacity="0.41"/>
<stop offset="0.479167" stop-color="white"/>
<stop offset="0.671875" stop-color="white" stop-opacity="0"/>
</linearGradient>
<linearGradient id="paint29_linear" x1="405.234" y1="185.089" x2="437.659" y2="186.45" gradientUnits="userSpaceOnUse">
<stop stop-color="#A3EFCA"/>
<stop offset="1" stop-color="#B3F7D5"/>
</linearGradient>
<linearGradient id="paint30_linear" x1="439.79" y1="201.832" x2="399.085" y2="201.832" gradientUnits="userSpaceOnUse">
<stop stop-color="white" stop-opacity="0.41"/>
<stop offset="0.479167" stop-color="white"/>
<stop offset="0.671875" stop-color="white" stop-opacity="0"/>
</linearGradient>
<linearGradient id="paint31_linear" x1="290.259" y1="317" x2="284.826" y2="511.848" gradientUnits="userSpaceOnUse">
<stop stop-color="#5E5D60"/>
<stop offset="0.0989583" stop-color="#1A1919"/>
<stop offset="0.758565" stop-color="#3C3B3D"/>
<stop offset="0.833789" stop-color="#4F5052"/>
<stop offset="0.91676" stop-color="#5A5A5A"/>
<stop offset="1" stop-color="#16171A"/>
</linearGradient>
<linearGradient id="paint32_linear" x1="289.979" y1="317" x2="289.979" y2="512" gradientUnits="userSpaceOnUse">
<stop stop-color="#2B292A"/>
<stop offset="0.680059" stop-color="#424041"/>
<stop offset="1" stop-color="#868585"/>
</linearGradient>
<linearGradient id="paint33_linear" x1="318" y1="323.5" x2="213.539" y2="355.51" gradientUnits="userSpaceOnUse">
<stop offset="0.670529" stop-color="#5C5757"/>
<stop offset="0.925805" stop-color="#514F50"/>
<stop offset="1" stop-color="#363435"/>
</linearGradient>
<linearGradient id="paint34_linear" x1="261.5" y1="317" x2="335.819" y2="331.363" gradientUnits="userSpaceOnUse">
<stop stop-color="white" stop-opacity="0.4"/>
<stop offset="1" stop-color="white" stop-opacity="0"/>
</linearGradient>
<linearGradient id="paint35_linear" x1="291.045" y1="219.069" x2="289.896" y2="320.95" gradientUnits="userSpaceOnUse">
<stop stop-color="#56D599"/>
<stop offset="0.15625" stop-color="#1EAD64"/>
<stop offset="0.541667" stop-color="#1EAE65"/>
<stop offset="0.75" stop-color="#57D69A"/>
<stop offset="0.91676" stop-color="#1EA65F"/>
<stop offset="1" stop-color="#178E4E"/>
</linearGradient>
<linearGradient id="paint36_linear" x1="289.978" y1="219.312" x2="289.978" y2="320.761" gradientUnits="userSpaceOnUse">
<stop stop-color="#1FA05B"/>
<stop offset="0.569228" stop-color="#1DB369"/>
<stop offset="1" stop-color="#62DDA3"/>
</linearGradient>
<linearGradient id="paint37_linear" x1="321.34" y1="253.128" x2="256.039" y2="253.128" gradientUnits="userSpaceOnUse">
<stop offset="0.479067" stop-color="white" stop-opacity="0"/>
<stop offset="0.479167" stop-color="white"/>
<stop offset="1" stop-color="white" stop-opacity="0"/>
</linearGradient>
<linearGradient id="paint38_linear" x1="263.036" y1="222.81" x2="298.27" y2="323.883" gradientUnits="userSpaceOnUse">
<stop offset="0.217623" stop-color="#20B56C"/>
<stop offset="0.877893" stop-color="#B2F5D4"/>
<stop offset="1" stop-color="#1FA25D"/>
</linearGradient>
<linearGradient id="paint39_linear" x1="315.51" y1="221.644" x2="293.966" y2="268.261" gradientUnits="userSpaceOnUse">
<stop stop-color="white" stop-opacity="0.67"/>
<stop offset="1" stop-color="white" stop-opacity="0"/>
</linearGradient>
<linearGradient id="paint40_linear" x1="275.967" y1="244.759" x2="308.12" y2="273.157" gradientUnits="userSpaceOnUse">
<stop stop-color="#1A8E50"/>
<stop offset="0.569228" stop-color="#1A9156"/>
<stop offset="1" stop-color="#5AD79C"/>
</linearGradient>
<linearGradient id="paint41_linear" x1="275.967" y1="244.759" x2="308.12" y2="273.157" gradientUnits="userSpaceOnUse">
<stop stop-color="#1A8E50"/>
<stop offset="0.569228" stop-color="#1A9156"/>
<stop offset="1" stop-color="#5AD79C"/>
</linearGradient>
<linearGradient id="paint42_linear" x1="275.757" y1="244.089" x2="308.786" y2="245.501" gradientUnits="userSpaceOnUse">
<stop stop-color="#A3EFCA"/>
<stop offset="1" stop-color="#B3F7D5"/>
</linearGradient>
<linearGradient id="paint43_linear" x1="310.959" y1="260.832" x2="269.494" y2="260.832" gradientUnits="userSpaceOnUse">
<stop stop-color="white" stop-opacity="0.41"/>
<stop offset="0.479167" stop-color="white"/>
<stop offset="0.671875" stop-color="white" stop-opacity="0"/>
</linearGradient>
<linearGradient id="paint44_linear" x1="275.757" y1="244.089" x2="308.786" y2="245.501" gradientUnits="userSpaceOnUse">
<stop stop-color="#A3EFCA"/>
<stop offset="1" stop-color="#B3F7D5"/>
</linearGradient>
<linearGradient id="paint45_linear" x1="310.959" y1="260.832" x2="269.494" y2="260.832" gradientUnits="userSpaceOnUse">
<stop stop-color="white" stop-opacity="0.41"/>
<stop offset="0.479167" stop-color="white"/>
<stop offset="0.671875" stop-color="white" stop-opacity="0"/>
</linearGradient>
<linearGradient id="paint46_linear" x1="162.307" y1="376" x2="158.518" y2="511.894" gradientUnits="userSpaceOnUse">
<stop stop-color="#5E5D60"/>
<stop offset="0.0989583" stop-color="#1A1919"/>
<stop offset="0.758565" stop-color="#3C3B3D"/>
<stop offset="0.833789" stop-color="#4F5052"/>
<stop offset="0.91676" stop-color="#5A5A5A"/>
<stop offset="1" stop-color="#16171A"/>
</linearGradient>
<linearGradient id="paint47_linear" x1="161.241" y1="376" x2="161.241" y2="512" gradientUnits="userSpaceOnUse">
<stop stop-color="#2B292A"/>
<stop offset="0.680059" stop-color="#424041"/>
<stop offset="1" stop-color="#868585"/>
</linearGradient>
<linearGradient id="paint48_linear" x1="188.5" y1="384.5" x2="112.76" y2="398.248" gradientUnits="userSpaceOnUse">
<stop offset="0.670529" stop-color="#5C5757"/>
<stop offset="0.925805" stop-color="#514F50"/>
<stop offset="1" stop-color="#363435"/>
</linearGradient>
<linearGradient id="paint49_linear" x1="131.5" y1="381" x2="168.5" y2="471.5" gradientUnits="userSpaceOnUse">
<stop stop-color="white" stop-opacity="0.4"/>
<stop offset="1" stop-color="white" stop-opacity="0"/>
</linearGradient>
<linearGradient id="paint50_linear" x1="162.306" y1="277.374" x2="161.157" y2="379.255" gradientUnits="userSpaceOnUse">
<stop stop-color="#56D599"/>
<stop offset="0.15625" stop-color="#1EAD64"/>
<stop offset="0.541667" stop-color="#1EAE65"/>
<stop offset="0.75" stop-color="#57D69A"/>
<stop offset="0.91676" stop-color="#1EA65F"/>
<stop offset="1" stop-color="#178E4E"/>
</linearGradient>
<linearGradient id="paint51_linear" x1="161.24" y1="277.616" x2="161.24" y2="379.066" gradientUnits="userSpaceOnUse">
<stop stop-color="#1FA05B"/>
<stop offset="0.569228" stop-color="#1DB369"/>
<stop offset="1" stop-color="#62DDA3"/>
</linearGradient>
<linearGradient id="paint52_linear" x1="192.602" y1="311.433" x2="127.301" y2="311.433" gradientUnits="userSpaceOnUse">
<stop offset="0.479067" stop-color="white" stop-opacity="0"/>
<stop offset="0.479167" stop-color="white"/>
<stop offset="1" stop-color="white" stop-opacity="0"/>
</linearGradient>
<linearGradient id="paint53_linear" x1="134.297" y1="281.114" x2="169.532" y2="382.187" gradientUnits="userSpaceOnUse">
<stop offset="0.217623" stop-color="#20B56C"/>
<stop offset="0.877893" stop-color="#B2F5D4"/>
<stop offset="1" stop-color="#1FA25D"/>
</linearGradient>
<linearGradient id="paint54_linear" x1="186.771" y1="279.948" x2="165.228" y2="326.566" gradientUnits="userSpaceOnUse">
<stop stop-color="white" stop-opacity="0.67"/>
<stop offset="1" stop-color="white" stop-opacity="0"/>
</linearGradient>
<linearGradient id="paint55_linear" x1="147.2" y1="302.759" x2="179.44" y2="331.937" gradientUnits="userSpaceOnUse">
<stop stop-color="#1A8E50"/>
<stop offset="0.569228" stop-color="#1A9156"/>
<stop offset="1" stop-color="#5AD79C"/>
</linearGradient>
<linearGradient id="paint56_linear" x1="147.2" y1="302.759" x2="179.44" y2="331.937" gradientUnits="userSpaceOnUse">
<stop stop-color="#1A8E50"/>
<stop offset="0.569228" stop-color="#1A9156"/>
<stop offset="1" stop-color="#5AD79C"/>
</linearGradient>
<linearGradient id="paint57_linear" x1="146.703" y1="302.089" x2="180.543" y2="303.572" gradientUnits="userSpaceOnUse">
<stop stop-color="#A3EFCA"/>
<stop offset="1" stop-color="#B3F7D5"/>
</linearGradient>
<linearGradient id="paint58_linear" x1="182.773" y1="318.832" x2="140.285" y2="318.832" gradientUnits="userSpaceOnUse">
<stop stop-color="white" stop-opacity="0.41"/>
<stop offset="0.479167" stop-color="white"/>
<stop offset="0.671875" stop-color="white" stop-opacity="0"/>
</linearGradient>
<linearGradient id="paint59_linear" x1="146.703" y1="302.089" x2="180.543" y2="303.572" gradientUnits="userSpaceOnUse">
<stop stop-color="#A3EFCA"/>
<stop offset="1" stop-color="#B3F7D5"/>
</linearGradient>
<linearGradient id="paint60_linear" x1="182.773" y1="318.832" x2="140.285" y2="318.832" gradientUnits="userSpaceOnUse">
<stop stop-color="white" stop-opacity="0.41"/>
<stop offset="0.479167" stop-color="white"/>
<stop offset="0.671875" stop-color="white" stop-opacity="0"/>
</linearGradient>
</defs>
</svg>
