<svg width="387" height="334" viewBox="0 0 387 334" fill="none" xmlns="http://www.w3.org/2000/svg">
<path d="M17.311 91.8009C17.311 85.2456 22.6252 79.9314 29.1806 79.9314H60.8326C67.3879 79.9314 72.7021 85.2456 72.7021 91.8009V322.13C72.7021 328.685 67.3879 333.999 60.8326 333.999H29.1806C22.6252 333.999 17.311 328.685 17.311 322.13V91.8009Z" fill="url(#paint0_linear)"/>
<path d="M0.00146484 91.8009C0.00146484 85.2456 5.31563 79.9314 11.871 79.9314H43.523C50.0784 79.9314 55.3925 85.2456 55.3925 91.8009V322.13C55.3925 328.685 50.0784 333.999 43.523 333.999H11.871C5.31563 333.999 0.00146484 328.685 0.00146484 322.13V91.8009Z" fill="url(#paint1_linear)"/>
<path fill-rule="evenodd" clip-rule="evenodd" d="M43.523 81.9096H11.871C6.40819 81.9096 1.97972 86.3381 1.97972 91.8009V322.13C1.97972 327.592 6.40819 332.021 11.871 332.021H43.523C48.9858 332.021 53.4143 327.592 53.4143 322.13V91.8009C53.4143 86.3381 48.9858 81.9096 43.523 81.9096ZM11.871 79.9314C5.31563 79.9314 0.00146484 85.2456 0.00146484 91.8009V322.13C0.00146484 328.685 5.31563 333.999 11.871 333.999H43.523C50.0784 333.999 55.3925 328.685 55.3925 322.13V91.8009C55.3925 85.2456 50.0784 79.9314 43.523 79.9314H11.871Z" fill="url(#paint2_linear)"/>
<path fill-rule="evenodd" clip-rule="evenodd" d="M43.523 81.9096H11.871C6.40819 81.9096 1.97972 86.3381 1.97972 91.8009V322.13C1.97972 327.592 6.40819 332.021 11.871 332.021H43.523C48.9858 332.021 53.4143 327.592 53.4143 322.13V91.8009C53.4143 86.3381 48.9858 81.9096 43.523 81.9096ZM11.871 79.9314C5.31563 79.9314 0.00146484 85.2456 0.00146484 91.8009V322.13C0.00146484 328.685 5.31563 333.999 11.871 333.999H43.523C50.0784 333.999 55.3925 328.685 55.3925 322.13V91.8009C55.3925 85.2456 50.0784 79.9314 43.523 79.9314H11.871Z" fill="url(#paint3_linear)"/>
<path d="M17.3105 11.8695C17.3105 5.31416 22.6247 0 29.1801 0H60.8321C67.3875 0 72.7016 5.31416 72.7016 11.8695V49.0306C72.7016 55.586 67.3875 60.9001 60.8321 60.9001H29.1801C22.6247 60.9001 17.3105 55.586 17.3105 49.0306V11.8695Z" fill="url(#paint4_linear)"/>
<path d="M17.3105 11.8695C17.3105 5.31416 22.6247 0 29.1801 0H60.8321C67.3875 0 72.7016 5.31416 72.7016 11.8695V49.0306C72.7016 55.586 67.3875 60.9001 60.8321 60.9001H29.1801C22.6247 60.9001 17.3105 55.586 17.3105 49.0306V11.8695Z" fill="white" fill-opacity="0.1"/>
<path d="M0 11.8695C0 5.31416 5.31416 0 11.8695 0H43.5216C50.0769 0 55.3911 5.31416 55.3911 11.8695V49.0306C55.3911 55.586 50.0769 60.9001 43.5216 60.9001H11.8695C5.31416 60.9001 0 55.586 0 49.0306V11.8695Z" fill="url(#paint5_linear)"/>
<path d="M0 11.8695C0 5.31416 5.31416 0 11.8695 0H43.5216C50.0769 0 55.3911 5.31416 55.3911 11.8695V49.0306C55.3911 55.586 50.0769 60.9001 43.5216 60.9001H11.8695C5.31416 60.9001 0 55.586 0 49.0306V11.8695Z" fill="url(#paint6_linear)" fill-opacity="0.23"/>
<path fill-rule="evenodd" clip-rule="evenodd" d="M43.5216 1.97825H11.8695C6.40672 1.97825 1.97825 6.40672 1.97825 11.8695V49.0306C1.97825 54.4934 6.40672 58.9219 11.8695 58.9219H43.5216C48.9844 58.9219 53.4128 54.4934 53.4128 49.0306V11.8695C53.4128 6.40672 48.9844 1.97825 43.5216 1.97825ZM11.8695 0C5.31416 0 0 5.31416 0 11.8695V49.0306C0 55.5859 5.31416 60.9001 11.8695 60.9001H43.5216C50.0769 60.9001 55.3911 55.586 55.3911 49.0306V11.8695C55.3911 5.31416 50.0769 0 43.5216 0H11.8695Z" fill="url(#paint7_linear)"/>
<path fill-rule="evenodd" clip-rule="evenodd" d="M43.5216 1.97825H11.8695C6.40672 1.97825 1.97825 6.40672 1.97825 11.8695V49.0306C1.97825 54.4934 6.40672 58.9219 11.8695 58.9219H43.5216C48.9844 58.9219 53.4128 54.4934 53.4128 49.0306V11.8695C53.4128 6.40672 48.9844 1.97825 43.5216 1.97825ZM11.8695 0C5.31416 0 0 5.31416 0 11.8695V49.0306C0 55.5859 5.31416 60.9001 11.8695 60.9001H43.5216C50.0769 60.9001 55.3911 55.586 55.3911 49.0306V11.8695C55.3911 5.31416 50.0769 0 43.5216 0H11.8695Z" fill="url(#paint8_linear)"/>
<path d="M15.1602 21.7949H27.2588V24.1436L19.5908 40H16.7217L24.2627 24.3975H15.1602V21.7949Z" fill="url(#paint9_linear)"/>
<path d="M36.1963 22.7217C37.0003 23.5088 37.4023 24.4567 37.4023 25.5654C37.4023 26.6742 37.0003 27.6263 36.1963 28.4219C35.3923 29.209 34.4062 29.6025 33.2383 29.6025C32.0788 29.6025 31.097 29.209 30.293 28.4219C29.4889 27.6263 29.0869 26.6742 29.0869 25.5654C29.0869 24.4567 29.4889 23.5088 30.293 22.7217C31.097 21.9346 32.0788 21.541 33.2383 21.541C34.4062 21.541 35.3923 21.9346 36.1963 22.7217ZM31.7656 24.0928C31.3678 24.4906 31.1689 24.9857 31.1689 25.5781C31.1689 26.1621 31.3678 26.653 31.7656 27.0508C32.1634 27.4486 32.6543 27.6475 33.2383 27.6475C33.8307 27.6475 34.3258 27.4486 34.7236 27.0508C35.1214 26.653 35.3203 26.1621 35.3203 25.5781C35.3203 24.9857 35.1214 24.4906 34.7236 24.0928C34.3258 23.695 33.8307 23.4961 33.2383 23.4961C32.6543 23.4961 32.1634 23.695 31.7656 24.0928ZM31.1689 40L42.6074 21.7949H44.9434L33.5049 40H31.1689ZM39.916 39.0732C39.112 38.2861 38.71 37.3382 38.71 36.2295C38.71 35.1208 39.112 34.1729 39.916 33.3857C40.7201 32.5986 41.7018 32.2051 42.8613 32.2051C44.0293 32.2051 45.0153 32.5986 45.8193 33.3857C46.6234 34.1729 47.0254 35.1208 47.0254 36.2295C47.0254 37.3382 46.6234 38.2861 45.8193 39.0732C45.0153 39.8604 44.0293 40.2539 42.8613 40.2539C41.7018 40.2539 40.7201 39.8604 39.916 39.0732ZM44.3467 37.7148C44.7445 37.3171 44.9434 36.8219 44.9434 36.2295C44.9434 35.637 44.7445 35.1419 44.3467 34.7441C43.9489 34.3464 43.4538 34.1475 42.8613 34.1475C42.2773 34.1475 41.7865 34.3464 41.3887 34.7441C40.9909 35.1419 40.792 35.637 40.792 36.2295C40.792 36.8219 40.9909 37.3171 41.3887 37.7148C41.7865 38.1126 42.2773 38.3115 42.8613 38.3115C43.4538 38.3115 43.9489 38.1126 44.3467 37.7148Z" fill="url(#paint10_linear)"/>
<path d="M13.1602 21.7949H25.2588V24.1436L17.5908 40H14.7217L22.2627 24.3975H13.1602V21.7949Z" fill="url(#paint11_linear)"/>
<path d="M13.1602 21.7949H25.2588V24.1436L17.5908 40H14.7217L22.2627 24.3975H13.1602V21.7949Z" fill="url(#paint12_linear)" fill-opacity="0.4"/>
<path d="M34.1963 22.7217C35.0003 23.5088 35.4023 24.4567 35.4023 25.5654C35.4023 26.6742 35.0003 27.6263 34.1963 28.4219C33.3923 29.209 32.4062 29.6025 31.2383 29.6025C30.0788 29.6025 29.097 29.209 28.293 28.4219C27.4889 27.6263 27.0869 26.6742 27.0869 25.5654C27.0869 24.4567 27.4889 23.5088 28.293 22.7217C29.097 21.9346 30.0788 21.541 31.2383 21.541C32.4062 21.541 33.3923 21.9346 34.1963 22.7217ZM29.7656 24.0928C29.3678 24.4906 29.1689 24.9857 29.1689 25.5781C29.1689 26.1621 29.3678 26.653 29.7656 27.0508C30.1634 27.4486 30.6543 27.6475 31.2383 27.6475C31.8307 27.6475 32.3258 27.4486 32.7236 27.0508C33.1214 26.653 33.3203 26.1621 33.3203 25.5781C33.3203 24.9857 33.1214 24.4906 32.7236 24.0928C32.3258 23.695 31.8307 23.4961 31.2383 23.4961C30.6543 23.4961 30.1634 23.695 29.7656 24.0928ZM29.1689 40L40.6074 21.7949H42.9434L31.5049 40H29.1689ZM37.916 39.0732C37.112 38.2861 36.71 37.3382 36.71 36.2295C36.71 35.1208 37.112 34.1729 37.916 33.3857C38.7201 32.5986 39.7018 32.2051 40.8613 32.2051C42.0293 32.2051 43.0153 32.5986 43.8193 33.3857C44.6234 34.1729 45.0254 35.1208 45.0254 36.2295C45.0254 37.3382 44.6234 38.2861 43.8193 39.0732C43.0153 39.8604 42.0293 40.2539 40.8613 40.2539C39.7018 40.2539 38.7201 39.8604 37.916 39.0732ZM42.3467 37.7148C42.7445 37.3171 42.9434 36.8219 42.9434 36.2295C42.9434 35.637 42.7445 35.1419 42.3467 34.7441C41.9489 34.3464 41.4538 34.1475 40.8613 34.1475C40.2773 34.1475 39.7865 34.3464 39.3887 34.7441C38.9909 35.1419 38.792 35.637 38.792 36.2295C38.792 36.8219 38.9909 37.3171 39.3887 37.7148C39.7865 38.1126 40.2773 38.3115 40.8613 38.3115C41.4538 38.3115 41.9489 38.1126 42.3467 37.7148Z" fill="url(#paint13_linear)"/>
<path d="M34.1963 22.7217C35.0003 23.5088 35.4023 24.4567 35.4023 25.5654C35.4023 26.6742 35.0003 27.6263 34.1963 28.4219C33.3923 29.209 32.4062 29.6025 31.2383 29.6025C30.0788 29.6025 29.097 29.209 28.293 28.4219C27.4889 27.6263 27.0869 26.6742 27.0869 25.5654C27.0869 24.4567 27.4889 23.5088 28.293 22.7217C29.097 21.9346 30.0788 21.541 31.2383 21.541C32.4062 21.541 33.3923 21.9346 34.1963 22.7217ZM29.7656 24.0928C29.3678 24.4906 29.1689 24.9857 29.1689 25.5781C29.1689 26.1621 29.3678 26.653 29.7656 27.0508C30.1634 27.4486 30.6543 27.6475 31.2383 27.6475C31.8307 27.6475 32.3258 27.4486 32.7236 27.0508C33.1214 26.653 33.3203 26.1621 33.3203 25.5781C33.3203 24.9857 33.1214 24.4906 32.7236 24.0928C32.3258 23.695 31.8307 23.4961 31.2383 23.4961C30.6543 23.4961 30.1634 23.695 29.7656 24.0928ZM29.1689 40L40.6074 21.7949H42.9434L31.5049 40H29.1689ZM37.916 39.0732C37.112 38.2861 36.71 37.3382 36.71 36.2295C36.71 35.1208 37.112 34.1729 37.916 33.3857C38.7201 32.5986 39.7018 32.2051 40.8613 32.2051C42.0293 32.2051 43.0153 32.5986 43.8193 33.3857C44.6234 34.1729 45.0254 35.1208 45.0254 36.2295C45.0254 37.3382 44.6234 38.2861 43.8193 39.0732C43.0153 39.8604 42.0293 40.2539 40.8613 40.2539C39.7018 40.2539 38.7201 39.8604 37.916 39.0732ZM42.3467 37.7148C42.7445 37.3171 42.9434 36.8219 42.9434 36.2295C42.9434 35.637 42.7445 35.1419 42.3467 34.7441C41.9489 34.3464 41.4538 34.1475 40.8613 34.1475C40.2773 34.1475 39.7865 34.3464 39.3887 34.7441C38.9909 35.1419 38.792 35.637 38.792 36.2295C38.792 36.8219 38.9909 37.3171 39.3887 37.7148C39.7865 38.1126 40.2773 38.3115 40.8613 38.3115C41.4538 38.3115 41.9489 38.1126 42.3467 37.7148Z" fill="url(#paint14_linear)" fill-opacity="0.4"/>
<path d="M122.016 139.38C122.016 132.824 127.33 127.51 133.886 127.51H165.538C172.093 127.51 177.407 132.824 177.407 139.38V322.13C177.407 328.685 172.093 333.999 165.538 333.999H133.886C127.33 333.999 122.016 328.685 122.016 322.13V139.38Z" fill="url(#paint15_linear)"/>
<path d="M104.704 139.38C104.704 132.825 110.018 127.511 116.574 127.511H148.226C154.781 127.511 160.095 132.825 160.095 139.38V322.131C160.095 328.686 154.781 334 148.226 334H116.574C110.018 334 104.704 328.686 104.704 322.131V139.38Z" fill="url(#paint16_linear)"/>
<path fill-rule="evenodd" clip-rule="evenodd" d="M148.226 129.489H116.574C111.111 129.489 106.682 133.917 106.682 139.38V322.131C106.682 327.593 111.111 332.022 116.574 332.022H148.226C153.688 332.022 158.117 327.593 158.117 322.131V139.38C158.117 133.917 153.688 129.489 148.226 129.489ZM116.574 127.511C110.018 127.511 104.704 132.825 104.704 139.38V322.131C104.704 328.686 110.018 334 116.574 334H148.226C154.781 334 160.095 328.686 160.095 322.131V139.38C160.095 132.825 154.781 127.511 148.226 127.511H116.574Z" fill="url(#paint17_linear)"/>
<path fill-rule="evenodd" clip-rule="evenodd" d="M148.226 129.489H116.574C111.111 129.489 106.682 133.917 106.682 139.38V322.131C106.682 327.593 111.111 332.022 116.574 332.022H148.226C153.688 332.022 158.117 327.593 158.117 322.131V139.38C158.117 133.917 153.688 129.489 148.226 129.489ZM116.574 127.511C110.018 127.511 104.704 132.825 104.704 139.38V322.131C104.704 328.686 110.018 334 116.574 334H148.226C154.781 334 160.095 328.686 160.095 322.131V139.38C160.095 132.825 154.781 127.511 148.226 127.511H116.574Z" fill="url(#paint18_linear)"/>
<path d="M122.013 59.448C122.013 52.8926 127.327 47.5785 133.882 47.5785H165.534C172.09 47.5785 177.404 52.8927 177.404 59.448V96.6091C177.404 103.164 172.09 108.479 165.534 108.479H133.882C127.327 108.479 122.013 103.164 122.013 96.6091V59.448Z" fill="url(#paint19_linear)"/>
<path d="M122.013 59.448C122.013 52.8926 127.327 47.5785 133.882 47.5785H165.534C172.09 47.5785 177.404 52.8927 177.404 59.448V96.6091C177.404 103.164 172.09 108.479 165.534 108.479H133.882C127.327 108.479 122.013 103.164 122.013 96.6091V59.448Z" fill="white" fill-opacity="0.1"/>
<path d="M104.702 59.448C104.702 52.8926 110.016 47.5785 116.571 47.5785H148.223C154.779 47.5785 160.093 52.8927 160.093 59.448V96.6091C160.093 103.164 154.779 108.479 148.223 108.479H116.571C110.016 108.479 104.702 103.164 104.702 96.6091V59.448Z" fill="url(#paint20_linear)"/>
<path d="M104.702 59.448C104.702 52.8926 110.016 47.5785 116.571 47.5785H148.223C154.779 47.5785 160.093 52.8927 160.093 59.448V96.6091C160.093 103.164 154.779 108.479 148.223 108.479H116.571C110.016 108.479 104.702 103.164 104.702 96.6091V59.448Z" fill="url(#paint21_linear)" fill-opacity="0.23"/>
<path fill-rule="evenodd" clip-rule="evenodd" d="M148.223 49.5567H116.571C111.108 49.5567 106.68 53.9852 106.68 59.448V96.6091C106.68 102.072 111.108 106.5 116.571 106.5H148.223C153.686 106.5 158.114 102.072 158.114 96.6091V59.448C158.114 53.9852 153.686 49.5567 148.223 49.5567ZM116.571 47.5785C110.016 47.5785 104.702 52.8926 104.702 59.448V96.6091C104.702 103.164 110.016 108.479 116.571 108.479H148.223C154.779 108.479 160.093 103.164 160.093 96.6091V59.448C160.093 52.8927 154.779 47.5785 148.223 47.5785H116.571Z" fill="url(#paint22_linear)"/>
<path fill-rule="evenodd" clip-rule="evenodd" d="M148.223 49.5567H116.571C111.108 49.5567 106.68 53.9852 106.68 59.448V96.6091C106.68 102.072 111.108 106.5 116.571 106.5H148.223C153.686 106.5 158.114 102.072 158.114 96.6091V59.448C158.114 53.9852 153.686 49.5567 148.223 49.5567ZM116.571 47.5785C110.016 47.5785 104.702 52.8926 104.702 59.448V96.6091C104.702 103.164 110.016 108.479 116.571 108.479H148.223C154.779 108.479 160.093 103.164 160.093 96.6091V59.448C160.093 52.8927 154.779 47.5785 148.223 47.5785H116.571Z" fill="url(#paint23_linear)"/>
<path d="M127.656 78.377C127.74 78.4108 127.855 78.4616 127.999 78.5293C128.151 78.5885 128.413 78.7409 128.786 78.9863C129.158 79.2233 129.488 79.4984 129.776 79.8115C130.064 80.1247 130.322 80.5605 130.55 81.1191C130.787 81.6693 130.906 82.2744 130.906 82.9346C130.906 84.4242 130.309 85.6852 129.116 86.7178C127.931 87.7419 126.361 88.2539 124.406 88.2539C123.576 88.2539 122.789 88.1566 122.044 87.9619C121.3 87.7588 120.682 87.5218 120.191 87.251C119.708 86.9717 119.29 86.6924 118.934 86.4131C118.579 86.1338 118.32 85.901 118.16 85.7148L117.906 85.3975L119.721 83.582C119.755 83.6328 119.814 83.709 119.899 83.8105C119.992 83.9036 120.187 84.0729 120.483 84.3184C120.779 84.5553 121.088 84.7669 121.41 84.9531C121.74 85.1309 122.171 85.2959 122.705 85.4482C123.246 85.5921 123.813 85.6641 124.406 85.6641C125.531 85.6641 126.42 85.3932 127.072 84.8516C127.723 84.3014 128.049 83.6201 128.049 82.8076C128.049 81.9867 127.723 81.3053 127.072 80.7637C126.42 80.2135 125.531 79.9385 124.406 79.9385H122.59V77.3359H124.406C125.303 77.3359 126.001 77.1032 126.5 76.6377C127.008 76.1722 127.262 75.5417 127.262 74.7461C127.262 73.9421 127.008 73.3073 126.5 72.8418C126.001 72.3763 125.303 72.1436 124.406 72.1436C123.644 72.1436 122.925 72.3086 122.248 72.6387C121.57 72.9688 121.092 73.2861 120.813 73.5908L120.381 74.0859L118.553 72.2705C118.604 72.2028 118.68 72.1097 118.782 71.9912C118.892 71.8643 119.129 71.64 119.493 71.3184C119.857 70.9967 120.246 70.7217 120.661 70.4932C121.075 70.2562 121.621 70.0404 122.298 69.8457C122.975 69.6426 123.678 69.541 124.406 69.541C126.192 69.541 127.592 70.0023 128.608 70.9248C129.624 71.8389 130.131 73.0238 130.131 74.4795C130.131 74.9788 130.042 75.4613 129.865 75.9268C129.695 76.3838 129.488 76.7562 129.243 77.0439C128.997 77.3317 128.756 77.5814 128.519 77.793C128.291 77.9961 128.087 78.14 127.91 78.2246L127.656 78.377Z" fill="url(#paint24_linear)"/>
<path d="M140.364 70.7217C141.168 71.5088 141.57 72.4567 141.57 73.5654C141.57 74.6742 141.168 75.6263 140.364 76.4219C139.56 77.209 138.574 77.6025 137.406 77.6025C136.246 77.6025 135.264 77.209 134.46 76.4219C133.656 75.6263 133.254 74.6742 133.254 73.5654C133.254 72.4567 133.656 71.5088 134.46 70.7217C135.264 69.9346 136.246 69.541 137.406 69.541C138.574 69.541 139.56 69.9346 140.364 70.7217ZM135.933 72.0928C135.535 72.4906 135.336 72.9857 135.336 73.5781C135.336 74.1621 135.535 74.653 135.933 75.0508C136.331 75.4486 136.822 75.6475 137.406 75.6475C137.998 75.6475 138.493 75.4486 138.891 75.0508C139.289 74.653 139.488 74.1621 139.488 73.5781C139.488 72.9857 139.289 72.4906 138.891 72.0928C138.493 71.695 137.998 71.4961 137.406 71.4961C136.822 71.4961 136.331 71.695 135.933 72.0928ZM135.336 88L146.775 69.7949H149.111L137.672 88H135.336ZM144.083 87.0732C143.279 86.2861 142.877 85.3382 142.877 84.2295C142.877 83.1208 143.279 82.1729 144.083 81.3857C144.888 80.5986 145.869 80.2051 147.029 80.2051C148.197 80.2051 149.183 80.5986 149.987 81.3857C150.791 82.1729 151.193 83.1208 151.193 84.2295C151.193 85.3382 150.791 86.2861 149.987 87.0732C149.183 87.8604 148.197 88.2539 147.029 88.2539C145.869 88.2539 144.888 87.8604 144.083 87.0732ZM148.514 85.7148C148.912 85.3171 149.111 84.8219 149.111 84.2295C149.111 83.637 148.912 83.1419 148.514 82.7441C148.116 82.3464 147.621 82.1475 147.029 82.1475C146.445 82.1475 145.954 82.3464 145.556 82.7441C145.158 83.1419 144.959 83.637 144.959 84.2295C144.959 84.8219 145.158 85.3171 145.556 85.7148C145.954 86.1126 146.445 86.3115 147.029 86.3115C147.621 86.3115 148.116 86.1126 148.514 85.7148Z" fill="url(#paint25_linear)"/>
<path d="M125.656 78.377C125.74 78.4108 125.855 78.4616 125.999 78.5293C126.151 78.5885 126.413 78.7409 126.786 78.9863C127.158 79.2233 127.488 79.4984 127.776 79.8115C128.064 80.1247 128.322 80.5605 128.55 81.1191C128.787 81.6693 128.906 82.2744 128.906 82.9346C128.906 84.4242 128.309 85.6852 127.116 86.7178C125.931 87.7419 124.361 88.2539 122.406 88.2539C121.576 88.2539 120.789 88.1566 120.044 87.9619C119.3 87.7588 118.682 87.5218 118.191 87.251C117.708 86.9717 117.29 86.6924 116.934 86.4131C116.579 86.1338 116.32 85.901 116.16 85.7148L115.906 85.3975L117.721 83.582C117.755 83.6328 117.814 83.709 117.899 83.8105C117.992 83.9036 118.187 84.0729 118.483 84.3184C118.779 84.5553 119.088 84.7669 119.41 84.9531C119.74 85.1309 120.171 85.2959 120.705 85.4482C121.246 85.5921 121.813 85.6641 122.406 85.6641C123.531 85.6641 124.42 85.3932 125.072 84.8516C125.723 84.3014 126.049 83.6201 126.049 82.8076C126.049 81.9867 125.723 81.3053 125.072 80.7637C124.42 80.2135 123.531 79.9385 122.406 79.9385H120.59V77.3359H122.406C123.303 77.3359 124.001 77.1032 124.5 76.6377C125.008 76.1722 125.262 75.5417 125.262 74.7461C125.262 73.9421 125.008 73.3073 124.5 72.8418C124.001 72.3763 123.303 72.1436 122.406 72.1436C121.644 72.1436 120.925 72.3086 120.248 72.6387C119.57 72.9688 119.092 73.2861 118.813 73.5908L118.381 74.0859L116.553 72.2705C116.604 72.2028 116.68 72.1097 116.782 71.9912C116.892 71.8643 117.129 71.64 117.493 71.3184C117.857 70.9967 118.246 70.7217 118.661 70.4932C119.075 70.2562 119.621 70.0404 120.298 69.8457C120.975 69.6426 121.678 69.541 122.406 69.541C124.192 69.541 125.592 70.0023 126.608 70.9248C127.624 71.8389 128.131 73.0238 128.131 74.4795C128.131 74.9788 128.042 75.4613 127.865 75.9268C127.695 76.3838 127.488 76.7562 127.243 77.0439C126.997 77.3317 126.756 77.5814 126.519 77.793C126.291 77.9961 126.087 78.14 125.91 78.2246L125.656 78.377Z" fill="url(#paint26_linear)"/>
<path d="M125.656 78.377C125.74 78.4108 125.855 78.4616 125.999 78.5293C126.151 78.5885 126.413 78.7409 126.786 78.9863C127.158 79.2233 127.488 79.4984 127.776 79.8115C128.064 80.1247 128.322 80.5605 128.55 81.1191C128.787 81.6693 128.906 82.2744 128.906 82.9346C128.906 84.4242 128.309 85.6852 127.116 86.7178C125.931 87.7419 124.361 88.2539 122.406 88.2539C121.576 88.2539 120.789 88.1566 120.044 87.9619C119.3 87.7588 118.682 87.5218 118.191 87.251C117.708 86.9717 117.29 86.6924 116.934 86.4131C116.579 86.1338 116.32 85.901 116.16 85.7148L115.906 85.3975L117.721 83.582C117.755 83.6328 117.814 83.709 117.899 83.8105C117.992 83.9036 118.187 84.0729 118.483 84.3184C118.779 84.5553 119.088 84.7669 119.41 84.9531C119.74 85.1309 120.171 85.2959 120.705 85.4482C121.246 85.5921 121.813 85.6641 122.406 85.6641C123.531 85.6641 124.42 85.3932 125.072 84.8516C125.723 84.3014 126.049 83.6201 126.049 82.8076C126.049 81.9867 125.723 81.3053 125.072 80.7637C124.42 80.2135 123.531 79.9385 122.406 79.9385H120.59V77.3359H122.406C123.303 77.3359 124.001 77.1032 124.5 76.6377C125.008 76.1722 125.262 75.5417 125.262 74.7461C125.262 73.9421 125.008 73.3073 124.5 72.8418C124.001 72.3763 123.303 72.1436 122.406 72.1436C121.644 72.1436 120.925 72.3086 120.248 72.6387C119.57 72.9688 119.092 73.2861 118.813 73.5908L118.381 74.0859L116.553 72.2705C116.604 72.2028 116.68 72.1097 116.782 71.9912C116.892 71.8643 117.129 71.64 117.493 71.3184C117.857 70.9967 118.246 70.7217 118.661 70.4932C119.075 70.2562 119.621 70.0404 120.298 69.8457C120.975 69.6426 121.678 69.541 122.406 69.541C124.192 69.541 125.592 70.0023 126.608 70.9248C127.624 71.8389 128.131 73.0238 128.131 74.4795C128.131 74.9788 128.042 75.4613 127.865 75.9268C127.695 76.3838 127.488 76.7562 127.243 77.0439C126.997 77.3317 126.756 77.5814 126.519 77.793C126.291 77.9961 126.087 78.14 125.91 78.2246L125.656 78.377Z" fill="url(#paint27_linear)" fill-opacity="0.4"/>
<path d="M138.364 70.7217C139.168 71.5088 139.57 72.4567 139.57 73.5654C139.57 74.6742 139.168 75.6263 138.364 76.4219C137.56 77.209 136.574 77.6025 135.406 77.6025C134.246 77.6025 133.264 77.209 132.46 76.4219C131.656 75.6263 131.254 74.6742 131.254 73.5654C131.254 72.4567 131.656 71.5088 132.46 70.7217C133.264 69.9346 134.246 69.541 135.406 69.541C136.574 69.541 137.56 69.9346 138.364 70.7217ZM133.933 72.0928C133.535 72.4906 133.336 72.9857 133.336 73.5781C133.336 74.1621 133.535 74.653 133.933 75.0508C134.331 75.4486 134.822 75.6475 135.406 75.6475C135.998 75.6475 136.493 75.4486 136.891 75.0508C137.289 74.653 137.488 74.1621 137.488 73.5781C137.488 72.9857 137.289 72.4906 136.891 72.0928C136.493 71.695 135.998 71.4961 135.406 71.4961C134.822 71.4961 134.331 71.695 133.933 72.0928ZM133.336 88L144.775 69.7949H147.111L135.672 88H133.336ZM142.083 87.0732C141.279 86.2861 140.877 85.3382 140.877 84.2295C140.877 83.1208 141.279 82.1729 142.083 81.3857C142.888 80.5986 143.869 80.2051 145.029 80.2051C146.197 80.2051 147.183 80.5986 147.987 81.3857C148.791 82.1729 149.193 83.1208 149.193 84.2295C149.193 85.3382 148.791 86.2861 147.987 87.0732C147.183 87.8604 146.197 88.2539 145.029 88.2539C143.869 88.2539 142.888 87.8604 142.083 87.0732ZM146.514 85.7148C146.912 85.3171 147.111 84.8219 147.111 84.2295C147.111 83.637 146.912 83.1419 146.514 82.7441C146.116 82.3464 145.621 82.1475 145.029 82.1475C144.445 82.1475 143.954 82.3464 143.556 82.7441C143.158 83.1419 142.959 83.637 142.959 84.2295C142.959 84.8219 143.158 85.3171 143.556 85.7148C143.954 86.1126 144.445 86.3115 145.029 86.3115C145.621 86.3115 146.116 86.1126 146.514 85.7148Z" fill="url(#paint28_linear)"/>
<path d="M138.364 70.7217C139.168 71.5088 139.57 72.4567 139.57 73.5654C139.57 74.6742 139.168 75.6263 138.364 76.4219C137.56 77.209 136.574 77.6025 135.406 77.6025C134.246 77.6025 133.264 77.209 132.46 76.4219C131.656 75.6263 131.254 74.6742 131.254 73.5654C131.254 72.4567 131.656 71.5088 132.46 70.7217C133.264 69.9346 134.246 69.541 135.406 69.541C136.574 69.541 137.56 69.9346 138.364 70.7217ZM133.933 72.0928C133.535 72.4906 133.336 72.9857 133.336 73.5781C133.336 74.1621 133.535 74.653 133.933 75.0508C134.331 75.4486 134.822 75.6475 135.406 75.6475C135.998 75.6475 136.493 75.4486 136.891 75.0508C137.289 74.653 137.488 74.1621 137.488 73.5781C137.488 72.9857 137.289 72.4906 136.891 72.0928C136.493 71.695 135.998 71.4961 135.406 71.4961C134.822 71.4961 134.331 71.695 133.933 72.0928ZM133.336 88L144.775 69.7949H147.111L135.672 88H133.336ZM142.083 87.0732C141.279 86.2861 140.877 85.3382 140.877 84.2295C140.877 83.1208 141.279 82.1729 142.083 81.3857C142.888 80.5986 143.869 80.2051 145.029 80.2051C146.197 80.2051 147.183 80.5986 147.987 81.3857C148.791 82.1729 149.193 83.1208 149.193 84.2295C149.193 85.3382 148.791 86.2861 147.987 87.0732C147.183 87.8604 146.197 88.2539 145.029 88.2539C143.869 88.2539 142.888 87.8604 142.083 87.0732ZM146.514 85.7148C146.912 85.3171 147.111 84.8219 147.111 84.2295C147.111 83.637 146.912 83.1419 146.514 82.7441C146.116 82.3464 145.621 82.1475 145.029 82.1475C144.445 82.1475 143.954 82.3464 143.556 82.7441C143.158 83.1419 142.959 83.637 142.959 84.2295C142.959 84.8219 143.158 85.3171 143.556 85.7148C143.954 86.1126 144.445 86.3115 145.029 86.3115C145.621 86.3115 146.116 86.1126 146.514 85.7148Z" fill="url(#paint29_linear)" fill-opacity="0.4"/>
<path d="M226.717 186.957C226.717 180.402 232.031 175.088 238.587 175.088H270.239C276.794 175.088 282.108 180.402 282.108 186.957V322.13C282.108 328.685 276.794 333.999 270.239 333.999H238.587C232.031 333.999 226.717 328.685 226.717 322.13V186.957Z" fill="url(#paint30_linear)"/>
<path d="M209.408 186.958C209.408 180.403 214.722 175.089 221.278 175.089H252.93C259.485 175.089 264.799 180.403 264.799 186.958V322.13C264.799 328.686 259.485 334 252.93 334H221.278C214.722 334 209.408 328.686 209.408 322.13V186.958Z" fill="url(#paint31_linear)"/>
<path fill-rule="evenodd" clip-rule="evenodd" d="M252.93 177.067H221.278C215.815 177.067 211.386 181.495 211.386 186.958V322.13C211.386 327.593 215.815 332.022 221.278 332.022H252.93C258.393 332.022 262.821 327.593 262.821 322.13V186.958C262.821 181.495 258.393 177.067 252.93 177.067ZM221.278 175.089C214.722 175.089 209.408 180.403 209.408 186.958V322.13C209.408 328.686 214.722 334 221.278 334H252.93C259.485 334 264.799 328.686 264.799 322.13V186.958C264.799 180.403 259.485 175.089 252.93 175.089H221.278Z" fill="url(#paint32_linear)"/>
<path fill-rule="evenodd" clip-rule="evenodd" d="M252.93 177.067H221.278C215.815 177.067 211.386 181.495 211.386 186.958V322.13C211.386 327.593 215.815 332.022 221.278 332.022H252.93C258.393 332.022 262.821 327.593 262.821 322.13V186.958C262.821 181.495 258.393 177.067 252.93 177.067ZM221.278 175.089C214.722 175.089 209.408 180.403 209.408 186.958V322.13C209.408 328.686 214.722 334 221.278 334H252.93C259.485 334 264.799 328.686 264.799 322.13V186.958C264.799 180.403 259.485 175.089 252.93 175.089H221.278Z" fill="url(#paint33_linear)"/>
<path d="M226.716 107.026C226.716 100.471 232.03 95.1565 238.586 95.1565H270.238C276.793 95.1565 282.107 100.471 282.107 107.026V144.187C282.107 150.742 276.793 156.057 270.238 156.057H238.586C232.03 156.057 226.716 150.742 226.716 144.187V107.026Z" fill="url(#paint34_linear)"/>
<path d="M226.716 107.026C226.716 100.471 232.03 95.1565 238.586 95.1565H270.238C276.793 95.1565 282.107 100.471 282.107 107.026V144.187C282.107 150.742 276.793 156.057 270.238 156.057H238.586C232.03 156.057 226.716 150.742 226.716 144.187V107.026Z" fill="white" fill-opacity="0.1"/>
<path d="M209.407 107.026C209.407 100.471 214.721 95.1565 221.277 95.1565H252.929C259.484 95.1565 264.798 100.471 264.798 107.026V144.187C264.798 150.742 259.484 156.057 252.929 156.057H221.277C214.721 156.057 209.407 150.742 209.407 144.187V107.026Z" fill="url(#paint35_linear)"/>
<path d="M209.407 107.026C209.407 100.471 214.721 95.1565 221.277 95.1565H252.929C259.484 95.1565 264.798 100.471 264.798 107.026V144.187C264.798 150.742 259.484 156.057 252.929 156.057H221.277C214.721 156.057 209.407 150.742 209.407 144.187V107.026Z" fill="url(#paint36_linear)" fill-opacity="0.23"/>
<path fill-rule="evenodd" clip-rule="evenodd" d="M252.929 97.1347H221.277C215.814 97.1347 211.385 101.563 211.385 107.026V144.187C211.385 149.65 215.814 154.078 221.277 154.078H252.929C258.392 154.078 262.82 149.65 262.82 144.187V107.026C262.82 101.563 258.392 97.1347 252.929 97.1347ZM221.277 95.1565C214.721 95.1565 209.407 100.471 209.407 107.026V144.187C209.407 150.742 214.721 156.057 221.277 156.057H252.929C259.484 156.057 264.798 150.742 264.798 144.187V107.026C264.798 100.471 259.484 95.1565 252.929 95.1565H221.277Z" fill="url(#paint37_linear)"/>
<path fill-rule="evenodd" clip-rule="evenodd" d="M252.929 97.1347H221.277C215.814 97.1347 211.385 101.563 211.385 107.026V144.187C211.385 149.65 215.814 154.078 221.277 154.078H252.929C258.392 154.078 262.82 149.65 262.82 144.187V107.026C262.82 101.563 258.392 97.1347 252.929 97.1347ZM221.277 95.1565C214.721 95.1565 209.407 100.471 209.407 107.026V144.187C209.407 150.742 214.721 156.057 221.277 156.057H252.929C259.484 156.057 264.798 150.742 264.798 144.187V107.026C264.798 100.471 259.484 95.1565 252.929 95.1565H221.277Z" fill="url(#paint38_linear)"/>
<path d="M233.513 135H221.427C221.427 133.874 221.596 132.854 221.935 131.94C222.273 131.018 222.713 130.252 223.255 129.643C223.805 129.033 224.406 128.475 225.058 127.967C225.718 127.459 226.374 126.998 227.025 126.583C227.677 126.16 228.274 125.745 228.815 125.339C229.366 124.933 229.81 124.459 230.148 123.917C230.487 123.367 230.656 122.77 230.656 122.127C230.656 121.204 230.368 120.477 229.793 119.943C229.226 119.41 228.43 119.144 227.406 119.144C226.907 119.144 226.437 119.237 225.997 119.423C225.565 119.601 225.227 119.816 224.981 120.07C224.744 120.316 224.533 120.565 224.347 120.819C224.169 121.073 224.046 121.293 223.979 121.479L223.89 121.746L221.554 120.705C221.588 120.587 221.634 120.434 221.693 120.248C221.761 120.062 221.939 119.732 222.227 119.258C222.523 118.784 222.866 118.365 223.255 118.001C223.644 117.637 224.207 117.303 224.943 116.998C225.68 116.693 226.501 116.541 227.406 116.541C229.192 116.541 230.656 117.078 231.799 118.153C232.941 119.228 233.513 120.553 233.513 122.127C233.513 122.956 233.343 123.727 233.005 124.438C232.666 125.148 232.235 125.745 231.71 126.228C231.194 126.701 230.597 127.192 229.92 127.7C229.251 128.2 228.6 128.657 227.965 129.071C227.33 129.486 226.704 129.985 226.086 130.569C225.477 131.145 225.007 131.754 224.677 132.397H233.513V135Z" fill="url(#paint39_linear)"/>
<path d="M243.237 117.722C244.041 118.509 244.443 119.457 244.443 120.565C244.443 121.674 244.041 122.626 243.237 123.422C242.433 124.209 241.447 124.603 240.279 124.603C239.12 124.603 238.138 124.209 237.334 123.422C236.53 122.626 236.128 121.674 236.128 120.565C236.128 119.457 236.53 118.509 237.334 117.722C238.138 116.935 239.12 116.541 240.279 116.541C241.447 116.541 242.433 116.935 243.237 117.722ZM238.807 119.093C238.409 119.491 238.21 119.986 238.21 120.578C238.21 121.162 238.409 121.653 238.807 122.051C239.204 122.449 239.695 122.647 240.279 122.647C240.872 122.647 241.367 122.449 241.765 122.051C242.162 121.653 242.361 121.162 242.361 120.578C242.361 119.986 242.162 119.491 241.765 119.093C241.367 118.695 240.872 118.496 240.279 118.496C239.695 118.496 239.204 118.695 238.807 119.093ZM238.21 135L249.648 116.795H251.984L240.546 135H238.21ZM246.957 134.073C246.153 133.286 245.751 132.338 245.751 131.229C245.751 130.121 246.153 129.173 246.957 128.386C247.761 127.599 248.743 127.205 249.902 127.205C251.07 127.205 252.056 127.599 252.86 128.386C253.664 129.173 254.066 130.121 254.066 131.229C254.066 132.338 253.664 133.286 252.86 134.073C252.056 134.86 251.07 135.254 249.902 135.254C248.743 135.254 247.761 134.86 246.957 134.073ZM251.388 132.715C251.785 132.317 251.984 131.822 251.984 131.229C251.984 130.637 251.785 130.142 251.388 129.744C250.99 129.346 250.495 129.147 249.902 129.147C249.318 129.147 248.827 129.346 248.43 129.744C248.032 130.142 247.833 130.637 247.833 131.229C247.833 131.822 248.032 132.317 248.43 132.715C248.827 133.113 249.318 133.312 249.902 133.312C250.495 133.312 250.99 133.113 251.388 132.715Z" fill="url(#paint40_linear)"/>
<path d="M231.513 135H219.427C219.427 133.874 219.596 132.854 219.935 131.94C220.273 131.018 220.713 130.252 221.255 129.643C221.805 129.033 222.406 128.475 223.058 127.967C223.718 127.459 224.374 126.998 225.025 126.583C225.677 126.16 226.274 125.745 226.815 125.339C227.366 124.933 227.81 124.459 228.148 123.917C228.487 123.367 228.656 122.77 228.656 122.127C228.656 121.204 228.368 120.477 227.793 119.943C227.226 119.41 226.43 119.144 225.406 119.144C224.907 119.144 224.437 119.237 223.997 119.423C223.565 119.601 223.227 119.816 222.981 120.07C222.744 120.316 222.533 120.565 222.347 120.819C222.169 121.073 222.046 121.293 221.979 121.479L221.89 121.746L219.554 120.705C219.588 120.587 219.634 120.434 219.693 120.248C219.761 120.062 219.939 119.732 220.227 119.258C220.523 118.784 220.866 118.365 221.255 118.001C221.644 117.637 222.207 117.303 222.943 116.998C223.68 116.693 224.501 116.541 225.406 116.541C227.192 116.541 228.656 117.078 229.799 118.153C230.941 119.228 231.513 120.553 231.513 122.127C231.513 122.956 231.343 123.727 231.005 124.438C230.666 125.148 230.235 125.745 229.71 126.228C229.194 126.701 228.597 127.192 227.92 127.7C227.251 128.2 226.6 128.657 225.965 129.071C225.33 129.486 224.704 129.985 224.086 130.569C223.477 131.145 223.007 131.754 222.677 132.397H231.513V135Z" fill="url(#paint41_linear)"/>
<path d="M231.513 135H219.427C219.427 133.874 219.596 132.854 219.935 131.94C220.273 131.018 220.713 130.252 221.255 129.643C221.805 129.033 222.406 128.475 223.058 127.967C223.718 127.459 224.374 126.998 225.025 126.583C225.677 126.16 226.274 125.745 226.815 125.339C227.366 124.933 227.81 124.459 228.148 123.917C228.487 123.367 228.656 122.77 228.656 122.127C228.656 121.204 228.368 120.477 227.793 119.943C227.226 119.41 226.43 119.144 225.406 119.144C224.907 119.144 224.437 119.237 223.997 119.423C223.565 119.601 223.227 119.816 222.981 120.07C222.744 120.316 222.533 120.565 222.347 120.819C222.169 121.073 222.046 121.293 221.979 121.479L221.89 121.746L219.554 120.705C219.588 120.587 219.634 120.434 219.693 120.248C219.761 120.062 219.939 119.732 220.227 119.258C220.523 118.784 220.866 118.365 221.255 118.001C221.644 117.637 222.207 117.303 222.943 116.998C223.68 116.693 224.501 116.541 225.406 116.541C227.192 116.541 228.656 117.078 229.799 118.153C230.941 119.228 231.513 120.553 231.513 122.127C231.513 122.956 231.343 123.727 231.005 124.438C230.666 125.148 230.235 125.745 229.71 126.228C229.194 126.701 228.597 127.192 227.92 127.7C227.251 128.2 226.6 128.657 225.965 129.071C225.33 129.486 224.704 129.985 224.086 130.569C223.477 131.145 223.007 131.754 222.677 132.397H231.513V135Z" fill="url(#paint42_linear)" fill-opacity="0.4"/>
<path d="M241.237 117.722C242.041 118.509 242.443 119.457 242.443 120.565C242.443 121.674 242.041 122.626 241.237 123.422C240.433 124.209 239.447 124.603 238.279 124.603C237.12 124.603 236.138 124.209 235.334 123.422C234.53 122.626 234.128 121.674 234.128 120.565C234.128 119.457 234.53 118.509 235.334 117.722C236.138 116.935 237.12 116.541 238.279 116.541C239.447 116.541 240.433 116.935 241.237 117.722ZM236.807 119.093C236.409 119.491 236.21 119.986 236.21 120.578C236.21 121.162 236.409 121.653 236.807 122.051C237.204 122.449 237.695 122.647 238.279 122.647C238.872 122.647 239.367 122.449 239.765 122.051C240.162 121.653 240.361 121.162 240.361 120.578C240.361 119.986 240.162 119.491 239.765 119.093C239.367 118.695 238.872 118.496 238.279 118.496C237.695 118.496 237.204 118.695 236.807 119.093ZM236.21 135L247.648 116.795H249.984L238.546 135H236.21ZM244.957 134.073C244.153 133.286 243.751 132.338 243.751 131.229C243.751 130.121 244.153 129.173 244.957 128.386C245.761 127.599 246.743 127.205 247.902 127.205C249.07 127.205 250.056 127.599 250.86 128.386C251.664 129.173 252.066 130.121 252.066 131.229C252.066 132.338 251.664 133.286 250.86 134.073C250.056 134.86 249.07 135.254 247.902 135.254C246.743 135.254 245.761 134.86 244.957 134.073ZM249.388 132.715C249.785 132.317 249.984 131.822 249.984 131.229C249.984 130.637 249.785 130.142 249.388 129.744C248.99 129.346 248.495 129.147 247.902 129.147C247.318 129.147 246.827 129.346 246.43 129.744C246.032 130.142 245.833 130.637 245.833 131.229C245.833 131.822 246.032 132.317 246.43 132.715C246.827 133.113 247.318 133.312 247.902 133.312C248.495 133.312 248.99 133.113 249.388 132.715Z" fill="url(#paint43_linear)"/>
<path d="M241.237 117.722C242.041 118.509 242.443 119.457 242.443 120.565C242.443 121.674 242.041 122.626 241.237 123.422C240.433 124.209 239.447 124.603 238.279 124.603C237.12 124.603 236.138 124.209 235.334 123.422C234.53 122.626 234.128 121.674 234.128 120.565C234.128 119.457 234.53 118.509 235.334 117.722C236.138 116.935 237.12 116.541 238.279 116.541C239.447 116.541 240.433 116.935 241.237 117.722ZM236.807 119.093C236.409 119.491 236.21 119.986 236.21 120.578C236.21 121.162 236.409 121.653 236.807 122.051C237.204 122.449 237.695 122.647 238.279 122.647C238.872 122.647 239.367 122.449 239.765 122.051C240.162 121.653 240.361 121.162 240.361 120.578C240.361 119.986 240.162 119.491 239.765 119.093C239.367 118.695 238.872 118.496 238.279 118.496C237.695 118.496 237.204 118.695 236.807 119.093ZM236.21 135L247.648 116.795H249.984L238.546 135H236.21ZM244.957 134.073C244.153 133.286 243.751 132.338 243.751 131.229C243.751 130.121 244.153 129.173 244.957 128.386C245.761 127.599 246.743 127.205 247.902 127.205C249.07 127.205 250.056 127.599 250.86 128.386C251.664 129.173 252.066 130.121 252.066 131.229C252.066 132.338 251.664 133.286 250.86 134.073C250.056 134.86 249.07 135.254 247.902 135.254C246.743 135.254 245.761 134.86 244.957 134.073ZM249.388 132.715C249.785 132.317 249.984 131.822 249.984 131.229C249.984 130.637 249.785 130.142 249.388 129.744C248.99 129.346 248.495 129.147 247.902 129.147C247.318 129.147 246.827 129.346 246.43 129.744C246.032 130.142 245.833 130.637 245.833 131.229C245.833 131.822 246.032 132.317 246.43 132.715C246.827 133.113 247.318 133.312 247.902 133.312C248.495 133.312 248.99 133.113 249.388 132.715Z" fill="url(#paint44_linear)" fill-opacity="0.4"/>
<path d="M331.417 234.536C331.417 227.98 336.732 222.666 343.287 222.666H374.939C381.494 222.666 386.809 227.98 386.809 234.536V322.13C386.809 328.685 381.494 333.999 374.939 333.999H343.287C336.732 333.999 331.417 328.685 331.417 322.13V234.536Z" fill="url(#paint45_linear)"/>
<path d="M314.11 234.536C314.11 227.98 319.425 222.666 325.98 222.666H357.632C364.187 222.666 369.501 227.98 369.501 234.536V322.13C369.501 328.685 364.187 333.999 357.632 333.999H325.98C319.425 333.999 314.11 328.685 314.11 322.13V234.536Z" fill="url(#paint46_linear)"/>
<path fill-rule="evenodd" clip-rule="evenodd" d="M357.632 224.645H325.98C320.517 224.645 316.089 229.073 316.089 234.536V322.13C316.089 327.593 320.517 332.021 325.98 332.021H357.632C363.095 332.021 367.523 327.593 367.523 322.13V234.536C367.523 229.073 363.095 224.645 357.632 224.645ZM325.98 222.666C319.425 222.666 314.11 227.98 314.11 234.536V322.13C314.11 328.685 319.425 333.999 325.98 333.999H357.632C364.187 333.999 369.501 328.685 369.501 322.13V234.536C369.501 227.98 364.187 222.666 357.632 222.666H325.98Z" fill="url(#paint47_linear)"/>
<path fill-rule="evenodd" clip-rule="evenodd" d="M357.632 224.645H325.98C320.517 224.645 316.089 229.073 316.089 234.536V322.13C316.089 327.593 320.517 332.021 325.98 332.021H357.632C363.095 332.021 367.523 327.593 367.523 322.13V234.536C367.523 229.073 363.095 224.645 357.632 224.645ZM325.98 222.666C319.425 222.666 314.11 227.98 314.11 234.536V322.13C314.11 328.685 319.425 333.999 325.98 333.999H357.632C364.187 333.999 369.501 328.685 369.501 322.13V234.536C369.501 227.98 364.187 222.666 357.632 222.666H325.98Z" fill="url(#paint48_linear)"/>
<path d="M331.417 154.604C331.417 148.049 336.732 142.735 343.287 142.735H374.939C381.494 142.735 386.809 148.049 386.809 154.604V191.765C386.809 198.321 381.494 203.635 374.939 203.635H343.287C336.732 203.635 331.417 198.321 331.417 191.765V154.604Z" fill="url(#paint49_linear)"/>
<path d="M331.417 154.604C331.417 148.049 336.732 142.735 343.287 142.735H374.939C381.494 142.735 386.809 148.049 386.809 154.604V191.765C386.809 198.321 381.494 203.635 374.939 203.635H343.287C336.732 203.635 331.417 198.321 331.417 191.765V154.604Z" fill="white" fill-opacity="0.1"/>
<path d="M314.108 154.604C314.108 148.049 319.423 142.735 325.978 142.735H357.63C364.185 142.735 369.499 148.049 369.499 154.604V191.765C369.499 198.321 364.185 203.635 357.63 203.635H325.978C319.423 203.635 314.108 198.321 314.108 191.765V154.604Z" fill="url(#paint50_linear)"/>
<path d="M314.108 154.604C314.108 148.049 319.423 142.735 325.978 142.735H357.63C364.185 142.735 369.499 148.049 369.499 154.604V191.765C369.499 198.321 364.185 203.635 357.63 203.635H325.978C319.423 203.635 314.108 198.321 314.108 191.765V154.604Z" fill="url(#paint51_linear)" fill-opacity="0.23"/>
<path fill-rule="evenodd" clip-rule="evenodd" d="M357.63 144.713H325.978C320.515 144.713 316.087 149.142 316.087 154.604V191.765C316.087 197.228 320.515 201.657 325.978 201.657H357.63C363.093 201.657 367.521 197.228 367.521 191.765V154.604C367.521 149.142 363.093 144.713 357.63 144.713ZM325.978 142.735C319.423 142.735 314.108 148.049 314.108 154.604V191.765C314.108 198.321 319.423 203.635 325.978 203.635H357.63C364.185 203.635 369.499 198.321 369.499 191.765V154.604C369.499 148.049 364.185 142.735 357.63 142.735H325.978Z" fill="url(#paint52_linear)"/>
<path fill-rule="evenodd" clip-rule="evenodd" d="M357.63 144.713H325.978C320.515 144.713 316.087 149.142 316.087 154.604V191.765C316.087 197.228 320.515 201.657 325.978 201.657H357.63C363.093 201.657 367.521 197.228 367.521 191.765V154.604C367.521 149.142 363.093 144.713 357.63 144.713ZM325.978 142.735C319.423 142.735 314.108 148.049 314.108 154.604V191.765C314.108 198.321 319.423 203.635 325.978 203.635H357.63C364.185 203.635 369.499 198.321 369.499 191.765V154.604C369.499 148.049 364.185 142.735 357.63 142.735H325.978Z" fill="url(#paint53_linear)"/>
<path d="M330.324 164.795H332.533V183H329.677V169.226H326.427V167.271C327.519 167.152 328.348 166.894 328.915 166.496C329.491 166.09 329.96 165.523 330.324 164.795Z" fill="url(#paint54_linear)"/>
<path d="M343.54 165.722C344.344 166.509 344.746 167.457 344.746 168.565C344.746 169.674 344.344 170.626 343.54 171.422C342.736 172.209 341.75 172.603 340.582 172.603C339.423 172.603 338.441 172.209 337.637 171.422C336.833 170.626 336.431 169.674 336.431 168.565C336.431 167.457 336.833 166.509 337.637 165.722C338.441 164.935 339.423 164.541 340.582 164.541C341.75 164.541 342.736 164.935 343.54 165.722ZM339.109 167.093C338.712 167.491 338.513 167.986 338.513 168.578C338.513 169.162 338.712 169.653 339.109 170.051C339.507 170.449 339.998 170.647 340.582 170.647C341.174 170.647 341.67 170.449 342.067 170.051C342.465 169.653 342.664 169.162 342.664 168.578C342.664 167.986 342.465 167.491 342.067 167.093C341.67 166.695 341.174 166.496 340.582 166.496C339.998 166.496 339.507 166.695 339.109 167.093ZM338.513 183L349.951 164.795H352.287L340.849 183H338.513ZM347.26 182.073C346.456 181.286 346.054 180.338 346.054 179.229C346.054 178.121 346.456 177.173 347.26 176.386C348.064 175.599 349.046 175.205 350.205 175.205C351.373 175.205 352.359 175.599 353.163 176.386C353.967 177.173 354.369 178.121 354.369 179.229C354.369 180.338 353.967 181.286 353.163 182.073C352.359 182.86 351.373 183.254 350.205 183.254C349.046 183.254 348.064 182.86 347.26 182.073ZM351.69 180.715C352.088 180.317 352.287 179.822 352.287 179.229C352.287 178.637 352.088 178.142 351.69 177.744C351.293 177.346 350.798 177.147 350.205 177.147C349.621 177.147 349.13 177.346 348.732 177.744C348.335 178.142 348.136 178.637 348.136 179.229C348.136 179.822 348.335 180.317 348.732 180.715C349.13 181.113 349.621 181.312 350.205 181.312C350.798 181.312 351.293 181.113 351.69 180.715Z" fill="url(#paint55_linear)"/>
<path d="M328.324 164.795H330.533V183H327.677V169.226H324.427V167.271C325.519 167.152 326.348 166.894 326.915 166.496C327.491 166.09 327.96 165.523 328.324 164.795Z" fill="url(#paint56_linear)"/>
<path d="M328.324 164.795H330.533V183H327.677V169.226H324.427V167.271C325.519 167.152 326.348 166.894 326.915 166.496C327.491 166.09 327.96 165.523 328.324 164.795Z" fill="url(#paint57_linear)" fill-opacity="0.4"/>
<path d="M341.54 165.722C342.344 166.509 342.746 167.457 342.746 168.565C342.746 169.674 342.344 170.626 341.54 171.422C340.736 172.209 339.75 172.603 338.582 172.603C337.423 172.603 336.441 172.209 335.637 171.422C334.833 170.626 334.431 169.674 334.431 168.565C334.431 167.457 334.833 166.509 335.637 165.722C336.441 164.935 337.423 164.541 338.582 164.541C339.75 164.541 340.736 164.935 341.54 165.722ZM337.109 167.093C336.712 167.491 336.513 167.986 336.513 168.578C336.513 169.162 336.712 169.653 337.109 170.051C337.507 170.449 337.998 170.647 338.582 170.647C339.174 170.647 339.67 170.449 340.067 170.051C340.465 169.653 340.664 169.162 340.664 168.578C340.664 167.986 340.465 167.491 340.067 167.093C339.67 166.695 339.174 166.496 338.582 166.496C337.998 166.496 337.507 166.695 337.109 167.093ZM336.513 183L347.951 164.795H350.287L338.849 183H336.513ZM345.26 182.073C344.456 181.286 344.054 180.338 344.054 179.229C344.054 178.121 344.456 177.173 345.26 176.386C346.064 175.599 347.046 175.205 348.205 175.205C349.373 175.205 350.359 175.599 351.163 176.386C351.967 177.173 352.369 178.121 352.369 179.229C352.369 180.338 351.967 181.286 351.163 182.073C350.359 182.86 349.373 183.254 348.205 183.254C347.046 183.254 346.064 182.86 345.26 182.073ZM349.69 180.715C350.088 180.317 350.287 179.822 350.287 179.229C350.287 178.637 350.088 178.142 349.69 177.744C349.293 177.346 348.798 177.147 348.205 177.147C347.621 177.147 347.13 177.346 346.732 177.744C346.335 178.142 346.136 178.637 346.136 179.229C346.136 179.822 346.335 180.317 346.732 180.715C347.13 181.113 347.621 181.312 348.205 181.312C348.798 181.312 349.293 181.113 349.69 180.715Z" fill="url(#paint58_linear)"/>
<path d="M341.54 165.722C342.344 166.509 342.746 167.457 342.746 168.565C342.746 169.674 342.344 170.626 341.54 171.422C340.736 172.209 339.75 172.603 338.582 172.603C337.423 172.603 336.441 172.209 335.637 171.422C334.833 170.626 334.431 169.674 334.431 168.565C334.431 167.457 334.833 166.509 335.637 165.722C336.441 164.935 337.423 164.541 338.582 164.541C339.75 164.541 340.736 164.935 341.54 165.722ZM337.109 167.093C336.712 167.491 336.513 167.986 336.513 168.578C336.513 169.162 336.712 169.653 337.109 170.051C337.507 170.449 337.998 170.647 338.582 170.647C339.174 170.647 339.67 170.449 340.067 170.051C340.465 169.653 340.664 169.162 340.664 168.578C340.664 167.986 340.465 167.491 340.067 167.093C339.67 166.695 339.174 166.496 338.582 166.496C337.998 166.496 337.507 166.695 337.109 167.093ZM336.513 183L347.951 164.795H350.287L338.849 183H336.513ZM345.26 182.073C344.456 181.286 344.054 180.338 344.054 179.229C344.054 178.121 344.456 177.173 345.26 176.386C346.064 175.599 347.046 175.205 348.205 175.205C349.373 175.205 350.359 175.599 351.163 176.386C351.967 177.173 352.369 178.121 352.369 179.229C352.369 180.338 351.967 181.286 351.163 182.073C350.359 182.86 349.373 183.254 348.205 183.254C347.046 183.254 346.064 182.86 345.26 182.073ZM349.69 180.715C350.088 180.317 350.287 179.822 350.287 179.229C350.287 178.637 350.088 178.142 349.69 177.744C349.293 177.346 348.798 177.147 348.205 177.147C347.621 177.147 347.13 177.346 346.732 177.744C346.335 178.142 346.136 178.637 346.136 179.229C346.136 179.822 346.335 180.317 346.732 180.715C347.13 181.113 347.621 181.312 348.205 181.312C348.798 181.312 349.293 181.113 349.69 180.715Z" fill="url(#paint59_linear)" fill-opacity="0.4"/>
<defs>
<linearGradient id="paint0_linear" x1="28.5671" y1="79.3926" x2="21.4723" y2="333.801" gradientUnits="userSpaceOnUse">
<stop stop-color="#5E5D60"/>
<stop offset="0.0989583" stop-color="#1A1919"/>
<stop offset="0.758565" stop-color="#3C3B3D"/>
<stop offset="0.833789" stop-color="#4F5052"/>
<stop offset="0.91676" stop-color="#5A5A5A"/>
<stop offset="1" stop-color="#16171A"/>
</linearGradient>
<linearGradient id="paint1_linear" x1="27.697" y1="79.9314" x2="27.697" y2="333.999" gradientUnits="userSpaceOnUse">
<stop stop-color="#2B292A"/>
<stop offset="0.680059" stop-color="#424041"/>
<stop offset="1" stop-color="#868585"/>
</linearGradient>
<linearGradient id="paint2_linear" x1="50.6551" y1="87.0541" x2="-78.0015" y2="144.78" gradientUnits="userSpaceOnUse">
<stop offset="0.670529" stop-color="#5C5757"/>
<stop offset="0.925805" stop-color="#514F50"/>
<stop offset="1" stop-color="#363435"/>
</linearGradient>
<linearGradient id="paint3_linear" x1="6.10815" y1="80.2135" x2="72.9987" y2="97.7901" gradientUnits="userSpaceOnUse">
<stop stop-color="white" stop-opacity="0.4"/>
<stop offset="1" stop-color="white" stop-opacity="0"/>
</linearGradient>
<linearGradient id="paint4_linear" x1="28.5666" y1="-0.197787" x2="27.629" y2="82.9402" gradientUnits="userSpaceOnUse">
<stop stop-color="#56D599"/>
<stop offset="0.15625" stop-color="#1EAD64"/>
<stop offset="0.541667" stop-color="#1EAE65"/>
<stop offset="0.75" stop-color="#57D69A"/>
<stop offset="0.91676" stop-color="#1EA65F"/>
<stop offset="1" stop-color="#178E4E"/>
</linearGradient>
<linearGradient id="paint5_linear" x1="27.6955" y1="0" x2="27.6955" y2="82.7861" gradientUnits="userSpaceOnUse">
<stop stop-color="#1FA05B"/>
<stop offset="0.569228" stop-color="#1DB369"/>
<stop offset="1" stop-color="#62DDA3"/>
</linearGradient>
<linearGradient id="paint6_linear" x1="53.2876" y1="27.5954" x2="1.29354e-06" y2="27.5954" gradientUnits="userSpaceOnUse">
<stop offset="0.479067" stop-color="white" stop-opacity="0"/>
<stop offset="0.479167" stop-color="white"/>
<stop offset="1" stop-color="white" stop-opacity="0"/>
</linearGradient>
<linearGradient id="paint7_linear" x1="5.70939" y1="2.85469" x2="34.4616" y2="85.3332" gradientUnits="userSpaceOnUse">
<stop offset="0.217623" stop-color="#20B56C"/>
<stop offset="0.877893" stop-color="#B2F5D4"/>
<stop offset="1" stop-color="#1FA25D"/>
</linearGradient>
<linearGradient id="paint8_linear" x1="48.5298" y1="1.90313" x2="30.9496" y2="39.9443" gradientUnits="userSpaceOnUse">
<stop stop-color="white" stop-opacity="0.67"/>
<stop offset="1" stop-color="white" stop-opacity="0"/>
</linearGradient>
<linearGradient id="paint9_linear" x1="17.0613" y1="20.4852" x2="44.5764" y2="46.4691" gradientUnits="userSpaceOnUse">
<stop stop-color="#1A8E50"/>
<stop offset="0.569228" stop-color="#1A9156"/>
<stop offset="1" stop-color="#5AD79C"/>
</linearGradient>
<linearGradient id="paint10_linear" x1="17.0613" y1="20.4852" x2="44.5764" y2="46.4691" gradientUnits="userSpaceOnUse">
<stop stop-color="#1A8E50"/>
<stop offset="0.569228" stop-color="#1A9156"/>
<stop offset="1" stop-color="#5AD79C"/>
</linearGradient>
<linearGradient id="paint11_linear" x1="16.8141" y1="19.9155" x2="46.8441" y2="21.2884" gradientUnits="userSpaceOnUse">
<stop stop-color="#A3EFCA"/>
<stop offset="1" stop-color="#B3F7D5"/>
</linearGradient>
<linearGradient id="paint12_linear" x1="48.8286" y1="34.1569" x2="11.1175" y2="34.1569" gradientUnits="userSpaceOnUse">
<stop stop-color="white" stop-opacity="0.41"/>
<stop offset="0.479167" stop-color="white"/>
<stop offset="0.671875" stop-color="white" stop-opacity="0"/>
</linearGradient>
<linearGradient id="paint13_linear" x1="16.8141" y1="19.9155" x2="46.8441" y2="21.2884" gradientUnits="userSpaceOnUse">
<stop stop-color="#A3EFCA"/>
<stop offset="1" stop-color="#B3F7D5"/>
</linearGradient>
<linearGradient id="paint14_linear" x1="48.8286" y1="34.1569" x2="11.1175" y2="34.1569" gradientUnits="userSpaceOnUse">
<stop stop-color="white" stop-opacity="0.41"/>
<stop offset="0.479167" stop-color="white"/>
<stop offset="0.671875" stop-color="white" stop-opacity="0"/>
</linearGradient>
<linearGradient id="paint15_linear" x1="132.631" y1="127.543" x2="126.878" y2="333.839" gradientUnits="userSpaceOnUse">
<stop stop-color="#5E5D60"/>
<stop offset="0.0989583" stop-color="#1A1919"/>
<stop offset="0.758565" stop-color="#3C3B3D"/>
<stop offset="0.833789" stop-color="#4F5052"/>
<stop offset="0.91676" stop-color="#5A5A5A"/>
<stop offset="1" stop-color="#16171A"/>
</linearGradient>
<linearGradient id="paint16_linear" x1="132.4" y1="127.544" x2="132.4" y2="333.999" gradientUnits="userSpaceOnUse">
<stop stop-color="#2B292A"/>
<stop offset="0.680059" stop-color="#424041"/>
<stop offset="1" stop-color="#868585"/>
</linearGradient>
<linearGradient id="paint17_linear" x1="155.071" y1="133.256" x2="49.0044" y2="175.584" gradientUnits="userSpaceOnUse">
<stop offset="0.670529" stop-color="#5C5757"/>
<stop offset="0.925805" stop-color="#514F50"/>
<stop offset="1" stop-color="#363435"/>
</linearGradient>
<linearGradient id="paint18_linear" x1="107.333" y1="129.992" x2="180.945" y2="150.301" gradientUnits="userSpaceOnUse">
<stop stop-color="white" stop-opacity="0.4"/>
<stop offset="1" stop-color="white" stop-opacity="0"/>
</linearGradient>
<linearGradient id="paint19_linear" x1="133.269" y1="47.3807" x2="132.331" y2="130.519" gradientUnits="userSpaceOnUse">
<stop stop-color="#56D599"/>
<stop offset="0.15625" stop-color="#1EAD64"/>
<stop offset="0.541667" stop-color="#1EAE65"/>
<stop offset="0.75" stop-color="#57D69A"/>
<stop offset="0.91676" stop-color="#1EA65F"/>
<stop offset="1" stop-color="#178E4E"/>
</linearGradient>
<linearGradient id="paint20_linear" x1="132.397" y1="47.5785" x2="132.397" y2="130.365" gradientUnits="userSpaceOnUse">
<stop stop-color="#1FA05B"/>
<stop offset="0.569228" stop-color="#1DB369"/>
<stop offset="1" stop-color="#62DDA3"/>
</linearGradient>
<linearGradient id="paint21_linear" x1="157.989" y1="75.1739" x2="104.702" y2="75.1739" gradientUnits="userSpaceOnUse">
<stop offset="0.479067" stop-color="white" stop-opacity="0"/>
<stop offset="0.479167" stop-color="white"/>
<stop offset="1" stop-color="white" stop-opacity="0"/>
</linearGradient>
<linearGradient id="paint22_linear" x1="110.411" y1="50.4332" x2="139.163" y2="132.912" gradientUnits="userSpaceOnUse">
<stop offset="0.217623" stop-color="#20B56C"/>
<stop offset="0.877893" stop-color="#B2F5D4"/>
<stop offset="1" stop-color="#1FA25D"/>
</linearGradient>
<linearGradient id="paint23_linear" x1="153.231" y1="49.4816" x2="135.651" y2="87.5228" gradientUnits="userSpaceOnUse">
<stop stop-color="white" stop-opacity="0.67"/>
<stop offset="1" stop-color="white" stop-opacity="0"/>
</linearGradient>
<linearGradient id="paint24_linear" x1="120.139" y1="68.4852" x2="147.689" y2="95.2665" gradientUnits="userSpaceOnUse">
<stop stop-color="#1A8E50"/>
<stop offset="0.569228" stop-color="#1A9156"/>
<stop offset="1" stop-color="#5AD79C"/>
</linearGradient>
<linearGradient id="paint25_linear" x1="120.139" y1="68.4852" x2="147.689" y2="95.2665" gradientUnits="userSpaceOnUse">
<stop stop-color="#1A8E50"/>
<stop offset="0.569228" stop-color="#1A9156"/>
<stop offset="1" stop-color="#5AD79C"/>
</linearGradient>
<linearGradient id="paint26_linear" x1="119.944" y1="67.9155" x2="150.853" y2="69.3701" gradientUnits="userSpaceOnUse">
<stop stop-color="#A3EFCA"/>
<stop offset="1" stop-color="#B3F7D5"/>
</linearGradient>
<linearGradient id="paint27_linear" x1="152.9" y1="82.1569" x2="114.08" y2="82.1569" gradientUnits="userSpaceOnUse">
<stop stop-color="white" stop-opacity="0.41"/>
<stop offset="0.479167" stop-color="white"/>
<stop offset="0.671875" stop-color="white" stop-opacity="0"/>
</linearGradient>
<linearGradient id="paint28_linear" x1="119.944" y1="67.9155" x2="150.853" y2="69.3701" gradientUnits="userSpaceOnUse">
<stop stop-color="#A3EFCA"/>
<stop offset="1" stop-color="#B3F7D5"/>
</linearGradient>
<linearGradient id="paint29_linear" x1="152.9" y1="82.1569" x2="114.08" y2="82.1569" gradientUnits="userSpaceOnUse">
<stop stop-color="white" stop-opacity="0.41"/>
<stop offset="0.479167" stop-color="white"/>
<stop offset="0.671875" stop-color="white" stop-opacity="0"/>
</linearGradient>
<linearGradient id="paint30_linear" x1="237.332" y1="174.873" x2="232.898" y2="333.875" gradientUnits="userSpaceOnUse">
<stop stop-color="#5E5D60"/>
<stop offset="0.0989583" stop-color="#1A1919"/>
<stop offset="0.758565" stop-color="#3C3B3D"/>
<stop offset="0.833789" stop-color="#4F5052"/>
<stop offset="0.91676" stop-color="#5A5A5A"/>
<stop offset="1" stop-color="#16171A"/>
</linearGradient>
<linearGradient id="paint31_linear" x1="237.104" y1="174.874" x2="237.104" y2="334" gradientUnits="userSpaceOnUse">
<stop stop-color="#2B292A"/>
<stop offset="0.680059" stop-color="#424041"/>
<stop offset="1" stop-color="#868585"/>
</linearGradient>
<linearGradient id="paint32_linear" x1="259.97" y1="180.178" x2="174.726" y2="206.299" gradientUnits="userSpaceOnUse">
<stop offset="0.670529" stop-color="#5C5757"/>
<stop offset="0.925805" stop-color="#514F50"/>
<stop offset="1" stop-color="#363435"/>
</linearGradient>
<linearGradient id="paint33_linear" x1="213.864" y1="174.874" x2="274.511" y2="186.595" gradientUnits="userSpaceOnUse">
<stop stop-color="white" stop-opacity="0.4"/>
<stop offset="1" stop-color="white" stop-opacity="0"/>
</linearGradient>
<linearGradient id="paint34_linear" x1="237.972" y1="94.9587" x2="237.035" y2="178.097" gradientUnits="userSpaceOnUse">
<stop stop-color="#56D599"/>
<stop offset="0.15625" stop-color="#1EAD64"/>
<stop offset="0.541667" stop-color="#1EAE65"/>
<stop offset="0.75" stop-color="#57D69A"/>
<stop offset="0.91676" stop-color="#1EA65F"/>
<stop offset="1" stop-color="#178E4E"/>
</linearGradient>
<linearGradient id="paint35_linear" x1="237.103" y1="95.1565" x2="237.103" y2="177.943" gradientUnits="userSpaceOnUse">
<stop stop-color="#1FA05B"/>
<stop offset="0.569228" stop-color="#1DB369"/>
<stop offset="1" stop-color="#62DDA3"/>
</linearGradient>
<linearGradient id="paint36_linear" x1="262.695" y1="122.752" x2="209.407" y2="122.752" gradientUnits="userSpaceOnUse">
<stop offset="0.479067" stop-color="white" stop-opacity="0"/>
<stop offset="0.479167" stop-color="white"/>
<stop offset="1" stop-color="white" stop-opacity="0"/>
</linearGradient>
<linearGradient id="paint37_linear" x1="215.117" y1="98.0112" x2="243.869" y2="180.49" gradientUnits="userSpaceOnUse">
<stop offset="0.217623" stop-color="#20B56C"/>
<stop offset="0.877893" stop-color="#B2F5D4"/>
<stop offset="1" stop-color="#1FA25D"/>
</linearGradient>
<linearGradient id="paint38_linear" x1="257.937" y1="97.0596" x2="240.357" y2="135.101" gradientUnits="userSpaceOnUse">
<stop stop-color="white" stop-opacity="0.67"/>
<stop offset="1" stop-color="white" stop-opacity="0"/>
</linearGradient>
<linearGradient id="paint39_linear" x1="223.14" y1="115.485" x2="250.689" y2="142.267" gradientUnits="userSpaceOnUse">
<stop stop-color="#1A8E50"/>
<stop offset="0.569228" stop-color="#1A9156"/>
<stop offset="1" stop-color="#5AD79C"/>
</linearGradient>
<linearGradient id="paint40_linear" x1="223.14" y1="115.485" x2="250.689" y2="142.267" gradientUnits="userSpaceOnUse">
<stop stop-color="#1A8E50"/>
<stop offset="0.569228" stop-color="#1A9156"/>
<stop offset="1" stop-color="#5AD79C"/>
</linearGradient>
<linearGradient id="paint41_linear" x1="222.944" y1="114.915" x2="253.854" y2="116.37" gradientUnits="userSpaceOnUse">
<stop stop-color="#A3EFCA"/>
<stop offset="1" stop-color="#B3F7D5"/>
</linearGradient>
<linearGradient id="paint42_linear" x1="255.9" y1="129.157" x2="217.08" y2="129.157" gradientUnits="userSpaceOnUse">
<stop stop-color="white" stop-opacity="0.41"/>
<stop offset="0.479167" stop-color="white"/>
<stop offset="0.671875" stop-color="white" stop-opacity="0"/>
</linearGradient>
<linearGradient id="paint43_linear" x1="222.944" y1="114.915" x2="253.854" y2="116.37" gradientUnits="userSpaceOnUse">
<stop stop-color="#A3EFCA"/>
<stop offset="1" stop-color="#B3F7D5"/>
</linearGradient>
<linearGradient id="paint44_linear" x1="255.9" y1="129.157" x2="217.08" y2="129.157" gradientUnits="userSpaceOnUse">
<stop stop-color="white" stop-opacity="0.41"/>
<stop offset="0.479167" stop-color="white"/>
<stop offset="0.671875" stop-color="white" stop-opacity="0"/>
</linearGradient>
<linearGradient id="paint45_linear" x1="342.673" y1="223.019" x2="339.581" y2="333.913" gradientUnits="userSpaceOnUse">
<stop stop-color="#5E5D60"/>
<stop offset="0.0989583" stop-color="#1A1919"/>
<stop offset="0.758565" stop-color="#3C3B3D"/>
<stop offset="0.833789" stop-color="#4F5052"/>
<stop offset="0.91676" stop-color="#5A5A5A"/>
<stop offset="1" stop-color="#16171A"/>
</linearGradient>
<linearGradient id="paint46_linear" x1="341.806" y1="223.019" x2="341.806" y2="333.999" gradientUnits="userSpaceOnUse">
<stop stop-color="#2B292A"/>
<stop offset="0.680059" stop-color="#424041"/>
<stop offset="1" stop-color="#868585"/>
</linearGradient>
<linearGradient id="paint47_linear" x1="364.05" y1="229.955" x2="302.244" y2="241.174" gradientUnits="userSpaceOnUse">
<stop offset="0.670529" stop-color="#5C5757"/>
<stop offset="0.925805" stop-color="#514F50"/>
<stop offset="1" stop-color="#363435"/>
</linearGradient>
<linearGradient id="paint48_linear" x1="317.536" y1="227.099" x2="347.73" y2="300.95" gradientUnits="userSpaceOnUse">
<stop stop-color="white" stop-opacity="0.4"/>
<stop offset="1" stop-color="white" stop-opacity="0"/>
</linearGradient>
<linearGradient id="paint49_linear" x1="342.674" y1="142.537" x2="341.736" y2="225.675" gradientUnits="userSpaceOnUse">
<stop stop-color="#56D599"/>
<stop offset="0.15625" stop-color="#1EAD64"/>
<stop offset="0.541667" stop-color="#1EAE65"/>
<stop offset="0.75" stop-color="#57D69A"/>
<stop offset="0.91676" stop-color="#1EA65F"/>
<stop offset="1" stop-color="#178E4E"/>
</linearGradient>
<linearGradient id="paint50_linear" x1="341.804" y1="142.735" x2="341.804" y2="225.521" gradientUnits="userSpaceOnUse">
<stop stop-color="#1FA05B"/>
<stop offset="0.569228" stop-color="#1DB369"/>
<stop offset="1" stop-color="#62DDA3"/>
</linearGradient>
<linearGradient id="paint51_linear" x1="367.396" y1="170.33" x2="314.108" y2="170.33" gradientUnits="userSpaceOnUse">
<stop offset="0.479067" stop-color="white" stop-opacity="0"/>
<stop offset="0.479167" stop-color="white"/>
<stop offset="1" stop-color="white" stop-opacity="0"/>
</linearGradient>
<linearGradient id="paint52_linear" x1="319.818" y1="145.59" x2="348.57" y2="228.068" gradientUnits="userSpaceOnUse">
<stop offset="0.217623" stop-color="#20B56C"/>
<stop offset="0.877893" stop-color="#B2F5D4"/>
<stop offset="1" stop-color="#1FA25D"/>
</linearGradient>
<linearGradient id="paint53_linear" x1="362.638" y1="144.638" x2="345.058" y2="182.679" gradientUnits="userSpaceOnUse">
<stop stop-color="white" stop-opacity="0.67"/>
<stop offset="1" stop-color="white" stop-opacity="0"/>
</linearGradient>
<linearGradient id="paint54_linear" x1="327.825" y1="163.485" x2="355.08" y2="186.952" gradientUnits="userSpaceOnUse">
<stop stop-color="#1A8E50"/>
<stop offset="0.569228" stop-color="#1A9156"/>
<stop offset="1" stop-color="#5AD79C"/>
</linearGradient>
<linearGradient id="paint55_linear" x1="327.825" y1="163.485" x2="355.08" y2="186.952" gradientUnits="userSpaceOnUse">
<stop stop-color="#1A8E50"/>
<stop offset="0.569228" stop-color="#1A9156"/>
<stop offset="1" stop-color="#5AD79C"/>
</linearGradient>
<linearGradient id="paint56_linear" x1="327.423" y1="162.915" x2="354.813" y2="164.057" gradientUnits="userSpaceOnUse">
<stop stop-color="#A3EFCA"/>
<stop offset="1" stop-color="#B3F7D5"/>
</linearGradient>
<linearGradient id="paint57_linear" x1="356.613" y1="177.157" x2="322.229" y2="177.157" gradientUnits="userSpaceOnUse">
<stop stop-color="white" stop-opacity="0.41"/>
<stop offset="0.479167" stop-color="white"/>
<stop offset="0.671875" stop-color="white" stop-opacity="0"/>
</linearGradient>
<linearGradient id="paint58_linear" x1="327.423" y1="162.915" x2="354.813" y2="164.057" gradientUnits="userSpaceOnUse">
<stop stop-color="#A3EFCA"/>
<stop offset="1" stop-color="#B3F7D5"/>
</linearGradient>
<linearGradient id="paint59_linear" x1="356.613" y1="177.157" x2="322.229" y2="177.157" gradientUnits="userSpaceOnUse">
<stop stop-color="white" stop-opacity="0.41"/>
<stop offset="0.479167" stop-color="white"/>
<stop offset="0.671875" stop-color="white" stop-opacity="0"/>
</linearGradient>
</defs>
</svg>
