<svg width="90" height="410" viewBox="0 0 90 410" fill="none" xmlns="http://www.w3.org/2000/svg">
<path d="M21.7285 113.199C21.7285 105.166 28.2407 98.6541 36.2739 98.6541H75.0617C83.095 98.6541 89.6072 105.166 89.6072 113.199V395.454C89.6072 403.488 83.095 410 75.0617 410H36.2739C28.2407 410 21.7285 403.488 21.7285 395.454V113.199Z" fill="url(#paint0_linear)"/>
<path d="M0.516602 113.199C0.516602 105.166 7.02881 98.6541 15.062 98.6541H53.8498C61.883 98.6541 68.3953 105.166 68.3953 113.199V395.454C68.3953 403.488 61.883 410 53.8498 410H15.062C7.02881 410 0.516602 403.488 0.516602 395.454V113.199Z" fill="url(#paint1_linear)"/>
<path fill-rule="evenodd" clip-rule="evenodd" d="M53.8498 101.078H15.062C8.36768 101.078 2.94084 106.505 2.94084 113.199V395.454C2.94084 402.149 8.36768 407.576 15.062 407.576H53.8498C60.5442 407.576 65.971 402.149 65.971 395.454V113.199C65.971 106.505 60.5442 101.078 53.8498 101.078ZM15.062 98.6541C7.02881 98.6541 0.516602 105.166 0.516602 113.199V395.454C0.516602 403.488 7.02881 410 15.062 410H53.8498C61.883 410 68.3953 403.488 68.3953 395.454V113.199C68.3953 105.166 61.883 98.6541 53.8498 98.6541H15.062Z" fill="url(#paint2_linear)"/>
<path fill-rule="evenodd" clip-rule="evenodd" d="M53.8498 101.078H15.062C8.36768 101.078 2.94084 106.505 2.94084 113.199V395.454C2.94084 402.149 8.36768 407.576 15.062 407.576H53.8498C60.5442 407.576 65.971 402.149 65.971 395.454V113.199C65.971 106.505 60.5442 101.078 53.8498 101.078ZM15.062 98.6541C7.02881 98.6541 0.516602 105.166 0.516602 113.199V395.454C0.516602 403.488 7.02881 410 15.062 410H53.8498C61.883 410 68.3953 403.488 68.3953 395.454V113.199C68.3953 105.166 61.883 98.6541 53.8498 98.6541H15.062Z" fill="url(#paint3_linear)"/>
<path d="M21.7275 15.2481C21.7275 7.21484 28.2397 0.702637 36.273 0.702637H75.0608C83.094 0.702637 89.6062 7.21485 89.6062 15.2481V60.7869C89.6062 68.8201 83.094 75.3323 75.0608 75.3323H36.273C28.2397 75.3323 21.7275 68.8201 21.7275 60.7869V15.2481Z" fill="url(#paint4_linear)"/>
<path d="M21.7275 15.2481C21.7275 7.21484 28.2397 0.702637 36.273 0.702637H75.0608C83.094 0.702637 89.6062 7.21485 89.6062 15.2481V60.7869C89.6062 68.8201 83.094 75.3323 75.0608 75.3323H36.273C28.2397 75.3323 21.7275 68.8201 21.7275 60.7869V15.2481Z" fill="white" fill-opacity="0.1"/>
<path d="M0.515625 15.2481C0.515625 7.21484 7.02783 0.702637 15.061 0.702637H53.8489C61.8821 0.702637 68.3943 7.21485 68.3943 15.2481V60.7869C68.3943 68.8201 61.8821 75.3323 53.8489 75.3323H15.0611C7.02784 75.3323 0.515625 68.8201 0.515625 60.7869V15.2481Z" fill="url(#paint5_linear)"/>
<path d="M0.515625 15.2481C0.515625 7.21484 7.02783 0.702637 15.061 0.702637H53.8489C61.8821 0.702637 68.3943 7.21485 68.3943 15.2481V60.7869C68.3943 68.8201 61.8821 75.3323 53.8489 75.3323H15.0611C7.02784 75.3323 0.515625 68.8201 0.515625 60.7869V15.2481Z" fill="url(#paint6_linear)" fill-opacity="0.23"/>
<path fill-rule="evenodd" clip-rule="evenodd" d="M53.8489 3.12687H15.061C8.3667 3.12687 2.93986 8.55371 2.93986 15.2481V60.7869C2.93986 67.4812 8.3667 72.9081 15.0611 72.9081H53.8489C60.5432 72.9081 65.97 67.4812 65.97 60.7869V15.2481C65.97 8.55371 60.5432 3.12687 53.8489 3.12687ZM15.061 0.702637C7.02783 0.702637 0.515625 7.21484 0.515625 15.2481V60.7869C0.515625 68.8201 7.02784 75.3323 15.0611 75.3323H53.8489C61.8821 75.3323 68.3943 68.8201 68.3943 60.7869V15.2481C68.3943 7.21485 61.8821 0.702637 53.8489 0.702637H15.061Z" fill="url(#paint7_linear)"/>
<path fill-rule="evenodd" clip-rule="evenodd" d="M53.8489 3.12687H15.061C8.3667 3.12687 2.93986 8.55371 2.93986 15.2481V60.7869C2.93986 67.4812 8.3667 72.9081 15.0611 72.9081H53.8489C60.5432 72.9081 65.97 67.4812 65.97 60.7869V15.2481C65.97 8.55371 60.5432 3.12687 53.8489 3.12687ZM15.061 0.702637C7.02783 0.702637 0.515625 7.21484 0.515625 15.2481V60.7869C0.515625 68.8201 7.02784 75.3323 15.0611 75.3323H53.8489C61.8821 75.3323 68.3943 68.8201 68.3943 60.7869V15.2481C68.3943 7.21485 61.8821 0.702637 53.8489 0.702637H15.061Z" fill="url(#paint8_linear)"/>
<path d="M17.1855 27.2985H30.4041V30.0597L22.0263 48.7015H18.8916L27.1307 30.3582H17.1855V27.2985Z" fill="url(#paint9_linear)"/>
<path d="M40.1689 28.3881C41.0474 29.3134 41.4866 30.4279 41.4866 31.7313C41.4866 33.0348 41.0474 34.1542 40.1689 35.0896C39.2904 36.0149 38.2132 36.4776 36.9371 36.4776C35.6703 36.4776 34.5976 36.0149 33.7191 35.0896C32.8407 34.1542 32.4014 33.0348 32.4014 31.7313C32.4014 30.4279 32.8407 29.3134 33.7191 28.3881C34.5976 27.4627 35.6703 27 36.9371 27C38.2132 27 39.2904 27.4627 40.1689 28.3881ZM35.3281 30C34.8935 30.4677 34.6762 31.0498 34.6762 31.7463C34.6762 32.4328 34.8935 33.01 35.3281 33.4776C35.7627 33.9453 36.299 34.1791 36.9371 34.1791C37.5844 34.1791 38.1253 33.9453 38.5599 33.4776C38.9945 33.01 39.2118 32.4328 39.2118 31.7463C39.2118 31.0498 38.9945 30.4677 38.5599 30C38.1253 29.5323 37.5844 29.2985 36.9371 29.2985C36.299 29.2985 35.7627 29.5323 35.3281 30ZM34.6762 48.7015L47.1735 27.2985H49.7257L37.2284 48.7015H34.6762ZM44.233 47.6119C43.3545 46.6866 42.9153 45.5721 42.9153 44.2687C42.9153 42.9652 43.3545 41.8507 44.233 40.9254C45.1114 40 46.1841 39.5373 47.4509 39.5373C48.727 39.5373 49.8043 40 50.6827 40.9254C51.5612 41.8507 52.0004 42.9652 52.0004 44.2687C52.0004 45.5721 51.5612 46.6866 50.6827 47.6119C49.8043 48.5373 48.727 49 47.4509 49C46.1841 49 45.1114 48.5373 44.233 47.6119ZM49.0737 46.0149C49.5084 45.5473 49.7257 44.9652 49.7257 44.2687C49.7257 43.5721 49.5084 42.99 49.0737 42.5224C48.6391 42.0547 48.0982 41.8209 47.4509 41.8209C46.8129 41.8209 46.2765 42.0547 45.8419 42.5224C45.4073 42.99 45.19 43.5721 45.19 44.2687C45.19 44.9652 45.4073 45.5473 45.8419 46.0149C46.2765 46.4826 46.8129 46.7164 47.4509 46.7164C48.0982 46.7164 48.6391 46.4826 49.0737 46.0149Z" fill="url(#paint10_linear)"/>
<path d="M15 27.2985H28.2186V30.0597L19.8408 48.7015H16.7061L24.9451 30.3582H15V27.2985Z" fill="url(#paint11_linear)"/>
<path d="M15 27.2985H28.2186V30.0597L19.8408 48.7015H16.7061L24.9451 30.3582H15V27.2985Z" fill="url(#paint12_linear)" fill-opacity="0.4"/>
<path d="M37.9834 28.3881C38.8618 29.3134 39.3011 30.4279 39.3011 31.7313C39.3011 33.0348 38.8618 34.1542 37.9834 35.0896C37.1049 36.0149 36.0276 36.4776 34.7515 36.4776C33.4847 36.4776 32.4121 36.0149 31.5336 35.0896C30.6551 34.1542 30.2159 33.0348 30.2159 31.7313C30.2159 30.4279 30.6551 29.3134 31.5336 28.3881C32.4121 27.4627 33.4847 27 34.7515 27C36.0276 27 37.1049 27.4627 37.9834 28.3881ZM33.1426 30C32.708 30.4677 32.4907 31.0498 32.4907 31.7463C32.4907 32.4328 32.708 33.01 33.1426 33.4776C33.5772 33.9453 34.1135 34.1791 34.7515 34.1791C35.3988 34.1791 35.9398 33.9453 36.3744 33.4776C36.809 33.01 37.0263 32.4328 37.0263 31.7463C37.0263 31.0498 36.809 30.4677 36.3744 30C35.9398 29.5323 35.3988 29.2985 34.7515 29.2985C34.1135 29.2985 33.5772 29.5323 33.1426 30ZM32.4907 48.7015L44.9879 27.2985H47.5401L35.0428 48.7015H32.4907ZM42.0474 47.6119C41.1689 46.6866 40.7297 45.5721 40.7297 44.2687C40.7297 42.9652 41.1689 41.8507 42.0474 40.9254C42.9259 40 43.9985 39.5373 45.2654 39.5373C46.5414 39.5373 47.6187 40 48.4972 40.9254C49.3756 41.8507 49.8149 42.9652 49.8149 44.2687C49.8149 45.5721 49.3756 46.6866 48.4972 47.6119C47.6187 48.5373 46.5414 49 45.2654 49C43.9985 49 42.9259 48.5373 42.0474 47.6119ZM46.8882 46.0149C47.3228 45.5473 47.5401 44.9652 47.5401 44.2687C47.5401 43.5721 47.3228 42.99 46.8882 42.5224C46.4536 42.0547 45.9126 41.8209 45.2654 41.8209C44.6273 41.8209 44.091 42.0547 43.6564 42.5224C43.2218 42.99 43.0045 43.5721 43.0045 44.2687C43.0045 44.9652 43.2218 45.5473 43.6564 46.0149C44.091 46.4826 44.6273 46.7164 45.2654 46.7164C45.9126 46.7164 46.4536 46.4826 46.8882 46.0149Z" fill="url(#paint13_linear)"/>
<path d="M37.9834 28.3881C38.8618 29.3134 39.3011 30.4279 39.3011 31.7313C39.3011 33.0348 38.8618 34.1542 37.9834 35.0896C37.1049 36.0149 36.0276 36.4776 34.7515 36.4776C33.4847 36.4776 32.4121 36.0149 31.5336 35.0896C30.6551 34.1542 30.2159 33.0348 30.2159 31.7313C30.2159 30.4279 30.6551 29.3134 31.5336 28.3881C32.4121 27.4627 33.4847 27 34.7515 27C36.0276 27 37.1049 27.4627 37.9834 28.3881ZM33.1426 30C32.708 30.4677 32.4907 31.0498 32.4907 31.7463C32.4907 32.4328 32.708 33.01 33.1426 33.4776C33.5772 33.9453 34.1135 34.1791 34.7515 34.1791C35.3988 34.1791 35.9398 33.9453 36.3744 33.4776C36.809 33.01 37.0263 32.4328 37.0263 31.7463C37.0263 31.0498 36.809 30.4677 36.3744 30C35.9398 29.5323 35.3988 29.2985 34.7515 29.2985C34.1135 29.2985 33.5772 29.5323 33.1426 30ZM32.4907 48.7015L44.9879 27.2985H47.5401L35.0428 48.7015H32.4907ZM42.0474 47.6119C41.1689 46.6866 40.7297 45.5721 40.7297 44.2687C40.7297 42.9652 41.1689 41.8507 42.0474 40.9254C42.9259 40 43.9985 39.5373 45.2654 39.5373C46.5414 39.5373 47.6187 40 48.4972 40.9254C49.3756 41.8507 49.8149 42.9652 49.8149 44.2687C49.8149 45.5721 49.3756 46.6866 48.4972 47.6119C47.6187 48.5373 46.5414 49 45.2654 49C43.9985 49 42.9259 48.5373 42.0474 47.6119ZM46.8882 46.0149C47.3228 45.5473 47.5401 44.9652 47.5401 44.2687C47.5401 43.5721 47.3228 42.99 46.8882 42.5224C46.4536 42.0547 45.9126 41.8209 45.2654 41.8209C44.6273 41.8209 44.091 42.0547 43.6564 42.5224C43.2218 42.99 43.0045 43.5721 43.0045 44.2687C43.0045 44.9652 43.2218 45.5473 43.6564 46.0149C44.091 46.4826 44.6273 46.7164 45.2654 46.7164C45.9126 46.7164 46.4536 46.4826 46.8882 46.0149Z" fill="url(#paint14_linear)" fill-opacity="0.4"/>
<defs>
<linearGradient id="paint0_linear" x1="35.5221" y1="97.9938" x2="26.828" y2="409.757" gradientUnits="userSpaceOnUse">
<stop stop-color="#5E5D60"/>
<stop offset="0.0989583" stop-color="#1A1919"/>
<stop offset="0.758565" stop-color="#3C3B3D"/>
<stop offset="0.833789" stop-color="#4F5052"/>
<stop offset="0.91676" stop-color="#5A5A5A"/>
<stop offset="1" stop-color="#16171A"/>
</linearGradient>
<linearGradient id="paint1_linear" x1="34.4559" y1="98.6541" x2="34.4559" y2="410" gradientUnits="userSpaceOnUse">
<stop stop-color="#2B292A"/>
<stop offset="0.680059" stop-color="#424041"/>
<stop offset="1" stop-color="#868585"/>
</linearGradient>
<linearGradient id="paint2_linear" x1="62.5897" y1="107.383" x2="-95.0717" y2="178.123" gradientUnits="userSpaceOnUse">
<stop offset="0.670529" stop-color="#5C5757"/>
<stop offset="0.925805" stop-color="#514F50"/>
<stop offset="1" stop-color="#363435"/>
</linearGradient>
<linearGradient id="paint3_linear" x1="8" y1="98.9998" x2="89.9706" y2="120.539" gradientUnits="userSpaceOnUse">
<stop stop-color="white" stop-opacity="0.4"/>
<stop offset="1" stop-color="white" stop-opacity="0"/>
</linearGradient>
<linearGradient id="paint4_linear" x1="35.5212" y1="0.460259" x2="34.3722" y2="102.341" gradientUnits="userSpaceOnUse">
<stop stop-color="#56D599"/>
<stop offset="0.15625" stop-color="#1EAD64"/>
<stop offset="0.541667" stop-color="#1EAE65"/>
<stop offset="0.75" stop-color="#57D69A"/>
<stop offset="0.91676" stop-color="#1EA65F"/>
<stop offset="1" stop-color="#178E4E"/>
</linearGradient>
<linearGradient id="paint5_linear" x1="34.455" y1="0.702637" x2="34.455" y2="102.152" gradientUnits="userSpaceOnUse">
<stop stop-color="#1FA05B"/>
<stop offset="0.569228" stop-color="#1DB369"/>
<stop offset="1" stop-color="#62DDA3"/>
</linearGradient>
<linearGradient id="paint6_linear" x1="65.8166" y1="34.5192" x2="0.515627" y2="34.5192" gradientUnits="userSpaceOnUse">
<stop offset="0.479067" stop-color="white" stop-opacity="0"/>
<stop offset="0.479167" stop-color="white"/>
<stop offset="1" stop-color="white" stop-opacity="0"/>
</linearGradient>
<linearGradient id="paint7_linear" x1="7.51216" y1="4.2009" x2="42.7464" y2="105.274" gradientUnits="userSpaceOnUse">
<stop offset="0.217623" stop-color="#20B56C"/>
<stop offset="0.877893" stop-color="#B2F5D4"/>
<stop offset="1" stop-color="#1FA25D"/>
</linearGradient>
<linearGradient id="paint8_linear" x1="59.9862" y1="3.03481" x2="38.4426" y2="49.6522" gradientUnits="userSpaceOnUse">
<stop stop-color="white" stop-opacity="0.67"/>
<stop offset="1" stop-color="white" stop-opacity="0"/>
</linearGradient>
<linearGradient id="paint9_linear" x1="19.2627" y1="25.7587" x2="51.3899" y2="53.9538" gradientUnits="userSpaceOnUse">
<stop stop-color="#1A8E50"/>
<stop offset="0.569228" stop-color="#1A9156"/>
<stop offset="1" stop-color="#5AD79C"/>
</linearGradient>
<linearGradient id="paint10_linear" x1="19.2627" y1="25.7587" x2="51.3899" y2="53.9538" gradientUnits="userSpaceOnUse">
<stop stop-color="#1A8E50"/>
<stop offset="0.569228" stop-color="#1A9156"/>
<stop offset="1" stop-color="#5AD79C"/>
</linearGradient>
<linearGradient id="paint11_linear" x1="18.9921" y1="25.089" x2="51.8113" y2="26.4833" gradientUnits="userSpaceOnUse">
<stop stop-color="#A3EFCA"/>
<stop offset="1" stop-color="#B3F7D5"/>
</linearGradient>
<linearGradient id="paint12_linear" x1="53.9702" y1="41.832" x2="12.7683" y2="41.832" gradientUnits="userSpaceOnUse">
<stop stop-color="white" stop-opacity="0.41"/>
<stop offset="0.479167" stop-color="white"/>
<stop offset="0.671875" stop-color="white" stop-opacity="0"/>
</linearGradient>
<linearGradient id="paint13_linear" x1="18.9921" y1="25.089" x2="51.8113" y2="26.4833" gradientUnits="userSpaceOnUse">
<stop stop-color="#A3EFCA"/>
<stop offset="1" stop-color="#B3F7D5"/>
</linearGradient>
<linearGradient id="paint14_linear" x1="53.9702" y1="41.832" x2="12.7683" y2="41.832" gradientUnits="userSpaceOnUse">
<stop stop-color="white" stop-opacity="0.41"/>
<stop offset="0.479167" stop-color="white"/>
<stop offset="0.671875" stop-color="white" stop-opacity="0"/>
</linearGradient>
</defs>
</svg>
