<?xml version="1.0" encoding="utf-8"?>
<!-- Generator: Adobe Illustrator 25.0.1, SVG Export Plug-In . SVG Version: 6.00 Build 0)  -->
<svg version="1.1" id="Capa_1" xmlns="http://www.w3.org/2000/svg" xmlns:xlink="http://www.w3.org/1999/xlink" x="0px" y="0px"
	 viewBox="0 0 398 279" style="enable-background:new 0 0 398 279;" xml:space="preserve">
<style type="text/css">
	.st0{opacity:0.6;}
	.st1{fill:url(#SVGID_1_);}
	.st2{fill:url(#SVGID_2_);}
	.st3{fill:#CED6E0;fill-opacity:0.7;}
	.st4{fill:#FFFFFF;fill-opacity:0.9;}
	.st5{fill:#415A6B;}
	.st6{opacity:0.9;}
	.st7{fill:url(#SVGID_3_);}
	.st8{fill:url(#SVGID_4_);}
	.st9{fill-rule:evenodd;clip-rule:evenodd;fill:url(#SVGID_5_);}
	.st10{fill-rule:evenodd;clip-rule:evenodd;fill:url(#SVGID_6_);}
	.st11{fill-rule:evenodd;clip-rule:evenodd;fill:url(#SVGID_7_);}
	.st12{fill:url(#SVGID_8_);}
	.st13{fill:url(#SVGID_9_);}
	.st14{fill:url(#SVGID_10_);}
	.st15{fill:#FFFFFF;fill-opacity:0.1;}
	.st16{fill:url(#SVGID_11_);}
	.st17{fill:url(#SVGID_12_);}
	.st18{fill:url(#SVGID_13_);}
	.st19{fill:url(#SVGID_14_);}
	.st20{fill:url(#SVGID_15_);}
	.st21{fill:url(#SVGID_16_);}
	.st22{fill:url(#SVGID_17_);fill-opacity:0.23;}
	.st23{fill:url(#SVGID_18_);}
	.st24{fill:url(#SVGID_19_);fill-opacity:0.23;}
	.st25{fill:url(#SVGID_20_);}
	.st26{fill:url(#SVGID_21_);}
	.st27{fill:url(#SVGID_22_);}
	.st28{fill:url(#SVGID_23_);}
	.st29{fill:url(#SVGID_24_);}
	.st30{fill:url(#SVGID_25_);}
	.st31{fill:none;stroke:#656565;stroke-width:2;}
	.st32{fill:#FFFFFF;}
	.st33{clip-path:url(#SVGID_27_);}
	.st34{fill:#FF5F2D;}
	.st35{fill:url(#SVGID_28_);}
	.st36{fill:url(#SVGID_29_);}
	.st37{fill-rule:evenodd;clip-rule:evenodd;fill:url(#SVGID_30_);}
	.st38{fill-rule:evenodd;clip-rule:evenodd;fill:url(#SVGID_31_);}
	.st39{fill-rule:evenodd;clip-rule:evenodd;fill:url(#SVGID_32_);}
	.st40{opacity:0.4;}
	.st41{fill:url(#SVGID_33_);}
	.st42{fill:url(#SVGID_34_);}
	.st43{fill-rule:evenodd;clip-rule:evenodd;fill:url(#SVGID_35_);}
	.st44{fill-rule:evenodd;clip-rule:evenodd;fill:url(#SVGID_36_);}
	.st45{fill-rule:evenodd;clip-rule:evenodd;fill:url(#SVGID_37_);}
</style>
<g class="st0">
	
		<linearGradient id="SVGID_1_" gradientUnits="userSpaceOnUse" x1="189.4897" y1="263.9155" x2="159.1247" y2="69.7315" gradientTransform="matrix(1 0 0 -1 0 280)">
		<stop  offset="0" style="stop-color:#767676"/>
		<stop  offset="0.1354" style="stop-color:#606060"/>
		<stop  offset="0.6302" style="stop-color:#F8F8F8"/>
		<stop  offset="1" style="stop-color:#F8F8F8"/>
	</linearGradient>
	<path class="st1" d="M250.6,12H95.4v219h155.2V12z"/>
	
		<linearGradient id="SVGID_2_" gradientUnits="userSpaceOnUse" x1="97.8459" y1="264.8244" x2="232.2634" y2="44.102" gradientTransform="matrix(1 0 0 -1 0 280)">
		<stop  offset="0" style="stop-color:#FFFFFF"/>
		<stop  offset="1" style="stop-color:#DCDCDC"/>
	</linearGradient>
	<path class="st2" d="M240.2,12H85v219h155.2V12z"/>
	<path class="st3" d="M218.1,35.7H107.9v9.1h110.3V35.7z"/>
	<path class="st4" d="M218.1,67.2H107.9v9.1h110.3V67.2z"/>
	<path class="st3" d="M218.1,99.1H107.9v9.1h110.3V99.1z"/>
	<path class="st4" d="M218.1,130.6H107.9v9.1h110.3V130.6z"/>
	<path class="st3" d="M153.6,162.1h-45.7v9.1h45.7V162.1z"/>
	<path class="st5" d="M170.6,204.5h-54.3v3.6h54.3V204.5z"/>
</g>
<g class="st6">
	
		<linearGradient id="SVGID_3_" gradientUnits="userSpaceOnUse" x1="240.5965" y1="274.2129" x2="232.0605" y2="203.1317" gradientTransform="matrix(1 0 0 -1 0 280)">
		<stop  offset="0" style="stop-color:#AAAAAA"/>
		<stop  offset="0.1563" style="stop-color:#47484A"/>
		<stop  offset="0.3646" style="stop-color:#2A2B2E"/>
		<stop  offset="0.8338" style="stop-color:#777777"/>
		<stop  offset="0.9168" style="stop-color:#3E3E43"/>
		<stop  offset="1" style="stop-color:#28292B"/>
	</linearGradient>
	<path class="st7" d="M264.7,44.1c1.2-19.7-10.2-37.2-25.4-39.2c-1.6-0.2-3.1-0.2-4.6-0.1c-3,0.3-9.6,0.9-12.1,2.1
		c-9.2,4.8-13.4,16.9-14.3,30.6c-1.2,19.7,22.8,40.1,25.5,40c2.7-0.1,6.1-1,8.5-1.6C254.2,73.2,263.6,60.5,264.7,44.1z"/>
	
		<linearGradient id="SVGID_4_" gradientUnits="userSpaceOnUse" x1="234.2799" y1="273.6948" x2="225.1549" y2="203.039" gradientTransform="matrix(1 0 0 -1 0 280)">
		<stop  offset="0" style="stop-color:#292728"/>
		<stop  offset="0.625" style="stop-color:#434142"/>
		<stop  offset="1" style="stop-color:#8A8A8A"/>
	</linearGradient>
	<path class="st8" d="M257.4,44.2c1.2-19.1-9.9-36.2-24.7-38.1l-1.5-0.2c-14.8-1.9-27.8,12-29,31.2l-0.1,2
		c-1.2,19.1,9.9,36.2,24.7,38.1l1.5,0.2c14.8,1.9,27.8-12,29-31.2L257.4,44.2z"/>
	
		<linearGradient id="SVGID_5_" gradientUnits="userSpaceOnUse" x1="208.3526" y1="272.4914" x2="251.0776" y2="204.0715" gradientTransform="matrix(1 0 0 -1 0 280)">
		<stop  offset="0.6705" style="stop-color:#8C8C8C"/>
		<stop  offset="0.9258" style="stop-color:#1C1D20"/>
		<stop  offset="1" style="stop-color:#434244"/>
	</linearGradient>
	<path class="st9" d="M231,8.6l1.5,0.2c13.7,1.8,24,17.6,22.9,35.3l-0.1,1.9c-1.1,17.7-13.1,30.6-26.8,28.8l-1.5-0.2
		c-13.7-1.8-24-17.6-22.8-35.3l0.1-1.9C205.3,19.8,217.3,6.8,231,8.6z M232.6,7.5c14.3,1.8,24.9,18.3,23.8,36.7l-0.1,1.9
		c-1.1,18.4-13.7,31.9-28,30l-1.5-0.2c-14.3-1.8-24.9-18.3-23.8-36.7l0.1-1.9c1.1-18.4,13.7-31.9,28-30L232.6,7.5z"/>
	
		<linearGradient id="SVGID_6_" gradientUnits="userSpaceOnUse" x1="233.8922" y1="275.8119" x2="225.7852" y2="203.0979" gradientTransform="matrix(1 0 0 -1 0 280)">
		<stop  offset="0.6705" style="stop-color:#8C8C8C"/>
		<stop  offset="0.9258" style="stop-color:#1C1D20"/>
		<stop  offset="1" style="stop-color:#434244"/>
	</linearGradient>
	<path class="st10" d="M231.1,7.3l1.5,0.2c14.2,1.8,24.9,18.2,23.7,36.6l-0.1,2c-1.1,18.4-13.6,31.8-27.9,29.9l-1.5-0.2
		c-14.2-1.8-24.9-18.2-23.7-36.6l0.1-2C204.4,18.8,216.8,5.4,231.1,7.3z M232.7,6.1c14.8,1.9,25.9,19,24.7,38.1l-0.1,2
		c-1.2,19.1-14.2,33.1-29,31.2l-1.5-0.2c-14.8-1.9-25.9-19-24.7-38.1l0.1-2c1.2-19.1,14.2-33.1,29-31.2L232.7,6.1z"/>
	
		<linearGradient id="SVGID_7_" gradientUnits="userSpaceOnUse" x1="262.8461" y1="274.4687" x2="237.2431" y2="246.5682" gradientTransform="matrix(1 0 0 -1 0 280)">
		<stop  offset="0" style="stop-color:#FFFFFF;stop-opacity:0.94"/>
		<stop  offset="1" style="stop-color:#FFFFFF;stop-opacity:0.26"/>
	</linearGradient>
	<path class="st11" d="M231.1,7.3l1.5,0.2c14.2,1.8,24.9,18.2,23.7,36.6l-0.1,2c-1.1,18.4-13.6,31.8-27.9,29.9l-1.5-0.2
		c-14.2-1.8-24.9-18.2-23.7-36.6l0.1-2C204.4,18.8,216.8,5.4,231.1,7.3z M232.7,6.1c14.8,1.9,25.9,19,24.7,38.1l-0.1,2
		c-1.2,19.1-14.2,33.1-29,31.2l-1.5-0.2c-14.8-1.9-25.9-19-24.7-38.1l0.1-2c1.2-19.1,14.2-33.1,29-31.2L232.7,6.1z"/>
</g>
<g>
	
		<linearGradient id="SVGID_8_" gradientUnits="userSpaceOnUse" x1="221.0637" y1="217.9154" x2="190.6997" y2="23.7314" gradientTransform="matrix(1 0 0 -1 0 280)">
		<stop  offset="0" style="stop-color:#767676"/>
		<stop  offset="0.1354" style="stop-color:#606060"/>
		<stop  offset="0.6302" style="stop-color:#F8F8F8"/>
		<stop  offset="1" style="stop-color:#F8F8F8"/>
	</linearGradient>
	<path class="st12" d="M282.2,58H127v219h155.2V58z"/>
</g>
<linearGradient id="SVGID_9_" gradientUnits="userSpaceOnUse" x1="129.4202" y1="218.8243" x2="263.8372" y2="-1.8981" gradientTransform="matrix(1 0 0 -1 0 280)">
	<stop  offset="0" style="stop-color:#FFFFFF"/>
	<stop  offset="1" style="stop-color:#DCDCDC"/>
</linearGradient>
<path class="st13" d="M271.7,58H116.6v219h155.2V58z"/>
<path class="st3" d="M249.7,81.7H139.5v9.1h110.3V81.7z"/>
<path class="st4" d="M249.7,113.2H139.5v9.1h110.3V113.2z"/>
<path class="st3" d="M249.7,145.1H139.5v9.1h110.3V145.1z"/>
<path class="st4" d="M249.7,176.6H139.5v9.1h110.3V176.6z"/>
<path class="st3" d="M185.2,208.1h-45.7v9.1h45.7V208.1z"/>
<path class="st5" d="M195.1,250.5h-54.3v3.6h54.3V250.5z"/>
<linearGradient id="SVGID_10_" gradientUnits="userSpaceOnUse" x1="237.4406" y1="105.6508" x2="236.9046" y2="3.1218" gradientTransform="matrix(1 0 0 -1 0 280)">
	<stop  offset="0" style="stop-color:#56D599"/>
	<stop  offset="0.1563" style="stop-color:#1EAD64"/>
	<stop  offset="0.3711" style="stop-color:#1EAE65"/>
	<stop  offset="0.75" style="stop-color:#57D69A"/>
	<stop  offset="0.9168" style="stop-color:#1EA65F"/>
	<stop  offset="1" style="stop-color:#178E4E"/>
</linearGradient>
<path class="st14" d="M230.2,264h10.4l3.1-6.7L230.2,264z"/>
<path class="st15" d="M230.2,264h10.4l3.1-6.7L230.2,264z"/>
<linearGradient id="SVGID_11_" gradientUnits="userSpaceOnUse" x1="260.9422" y1="105.528" x2="260.4062" y2="2.9989" gradientTransform="matrix(1 0 0 -1 0 280)">
	<stop  offset="0" style="stop-color:#56D599"/>
	<stop  offset="0.1563" style="stop-color:#1EAD64"/>
	<stop  offset="0.3711" style="stop-color:#1EAE65"/>
	<stop  offset="0.75" style="stop-color:#57D69A"/>
	<stop  offset="0.9168" style="stop-color:#1EA65F"/>
	<stop  offset="1" style="stop-color:#178E4E"/>
</linearGradient>
<path class="st16" d="M255.8,277h10.4v-14l-11.5-1.6L255.8,277z"/>
<path class="st15" d="M255.8,277h10.4v-14l-11.5-1.6L255.8,277z"/>
<linearGradient id="SVGID_12_" gradientUnits="userSpaceOnUse" x1="287.5672" y1="105.3888" x2="287.0312" y2="2.8598" gradientTransform="matrix(1 0 0 -1 0 280)">
	<stop  offset="0" style="stop-color:#56D599"/>
	<stop  offset="0.1563" style="stop-color:#1EAD64"/>
	<stop  offset="0.3711" style="stop-color:#1EAE65"/>
	<stop  offset="0.75" style="stop-color:#57D69A"/>
	<stop  offset="0.9168" style="stop-color:#1EA65F"/>
	<stop  offset="1" style="stop-color:#178E4E"/>
</linearGradient>
<path class="st17" d="M281.8,277h10.4V265l-8.3-5.2L281.8,277z"/>
<path class="st15" d="M281.8,277h10.4V265l-8.3-5.2L281.8,277z"/>
<linearGradient id="SVGID_13_" gradientUnits="userSpaceOnUse" x1="309.6351" y1="105.2734" x2="309.0991" y2="2.7444" gradientTransform="matrix(1 0 0 -1 0 280)">
	<stop  offset="0" style="stop-color:#56D599"/>
	<stop  offset="0.1563" style="stop-color:#1EAD64"/>
	<stop  offset="0.3711" style="stop-color:#1EAE65"/>
	<stop  offset="0.75" style="stop-color:#57D69A"/>
	<stop  offset="0.9168" style="stop-color:#1EA65F"/>
	<stop  offset="1" style="stop-color:#178E4E"/>
</linearGradient>
<path class="st18" d="M307.4,264h10.4l-8.3-6.7h-8.9L307.4,264z"/>
<path class="st15" d="M307.4,264h10.4l-8.3-6.7h-8.9L307.4,264z"/>
<linearGradient id="SVGID_14_" gradientUnits="userSpaceOnUse" x1="287.4112" y1="105.3896" x2="286.8752" y2="2.8606" gradientTransform="matrix(1 0 0 -1 0 280)">
	<stop  offset="0" style="stop-color:#56D599"/>
	<stop  offset="0.1563" style="stop-color:#1EAD64"/>
	<stop  offset="0.3711" style="stop-color:#1EAE65"/>
	<stop  offset="0.75" style="stop-color:#57D69A"/>
	<stop  offset="0.9168" style="stop-color:#1EA65F"/>
	<stop  offset="1" style="stop-color:#178E4E"/>
</linearGradient>
<path class="st19" d="M282,174.8l35.9,89.4l-16.3-1.8l-9.4,14.6l-35.9-89L282,174.8z"/>
<path class="st15" d="M282,174.8l35.9,89.4l-16.3-1.8l-9.4,14.6l-35.9-89L282,174.8z"/>
<linearGradient id="SVGID_15_" gradientUnits="userSpaceOnUse" x1="271.4861" y1="105.4728" x2="270.9501" y2="2.9438" gradientTransform="matrix(1 0 0 -1 0 280)">
	<stop  offset="0" style="stop-color:#56D599"/>
	<stop  offset="0.1563" style="stop-color:#1EAD64"/>
	<stop  offset="0.3711" style="stop-color:#1EAE65"/>
	<stop  offset="0.75" style="stop-color:#57D69A"/>
	<stop  offset="0.9168" style="stop-color:#1EA65F"/>
	<stop  offset="1" style="stop-color:#178E4E"/>
</linearGradient>
<path class="st20" d="M276.3,174.8l-35.9,89.4l16.3-1.8l9.4,14.6l35.9-89L276.3,174.8z"/>
<path class="st15" d="M276.3,174.8l-35.9,89.4l16.3-1.8l9.4,14.6l35.9-89L276.3,174.8z"/>
<linearGradient id="SVGID_16_" gradientUnits="userSpaceOnUse" x1="276.716" y1="105.221" x2="276.716" y2="-33.707" gradientTransform="matrix(1 0 0 -1 0 280)">
	<stop  offset="0" style="stop-color:#1FA05B"/>
	<stop  offset="0.5692" style="stop-color:#1DB369"/>
	<stop  offset="1" style="stop-color:#62DDA3"/>
</linearGradient>
<path class="st21" d="M271.6,174.8l35.9,89.4l-16.3-1.8l-9.4,14.6l-35.9-89L271.6,174.8z"/>
<linearGradient id="SVGID_17_" gradientUnits="userSpaceOnUse" x1="304.599" y1="54.121" x2="229.962" y2="54.121" gradientTransform="matrix(1 0 0 -1 0 280)">
	<stop  offset="0.4791" style="stop-color:#FFFFFF;stop-opacity:0"/>
	<stop  offset="0.4792" style="stop-color:#FFFFFF"/>
	<stop  offset="1" style="stop-color:#FFFFFF;stop-opacity:0"/>
</linearGradient>
<path class="st22" d="M271.6,174.8l35.9,89.4l-16.3-1.8l-9.4,14.6l-35.9-89L271.6,174.8z"/>
<linearGradient id="SVGID_18_" gradientUnits="userSpaceOnUse" x1="260.791" y1="105.221" x2="260.791" y2="-33.707" gradientTransform="matrix(1 0 0 -1 0 280)">
	<stop  offset="0" style="stop-color:#1FA05B"/>
	<stop  offset="0.5692" style="stop-color:#1DB369"/>
	<stop  offset="1" style="stop-color:#62DDA3"/>
</linearGradient>
<path class="st23" d="M265.9,174.8L230,264.2l16.3-1.8l9.4,14.6l35.9-89L265.9,174.8z"/>
<linearGradient id="SVGID_19_" gradientUnits="userSpaceOnUse" x1="304.599" y1="54.121" x2="229.962" y2="54.121" gradientTransform="matrix(1 0 0 -1 0 280)">
	<stop  offset="0.4791" style="stop-color:#FFFFFF;stop-opacity:0"/>
	<stop  offset="0.4792" style="stop-color:#FFFFFF"/>
	<stop  offset="1" style="stop-color:#FFFFFF;stop-opacity:0"/>
</linearGradient>
<path class="st24" d="M265.9,174.8L230,264.2l16.3-1.8l9.4,14.6l35.9-89L265.9,174.8z"/>
<linearGradient id="SVGID_20_" gradientUnits="userSpaceOnUse" x1="279.9471" y1="141.2049" x2="279.2231" y2="52.3449" gradientTransform="matrix(1 0 0 -1 0 280)">
	<stop  offset="0" style="stop-color:#5E5D60"/>
	<stop  offset="9.895830e-02" style="stop-color:#1A1919"/>
	<stop  offset="0.25" style="stop-color:#6C6C6C"/>
	<stop  offset="0.3958" style="stop-color:#282828"/>
	<stop  offset="0.6563" style="stop-color:#3C3B3D"/>
	<stop  offset="0.7135" style="stop-color:#4F5052"/>
	<stop  offset="0.7917" style="stop-color:#5A5A5A"/>
	<stop  offset="1" style="stop-color:#16171A"/>
</linearGradient>
<path class="st25" d="M320.4,183c0,4.6-6.5,8.2-7.8,12.3c-1.2,4.1,2.5,11.4,0,15.1c-2.4,3.7-9.4,1.8-12.7,4.6
	c-3.3,2.7-4.1,10.5-7.8,12.3c-3.7,1.4-8.6-4.6-12.7-4.6c-4.1,0-9,5.9-12.7,4.6c-3.7-1.4-4.5-9.6-7.8-12.3
	c-3.3-2.7-10.2-0.9-12.7-4.6c-2.4-3.6,1.2-10.5,0-15.1c-1.2-4.1-7.8-7.8-7.8-12.3c0-4.6,6.5-8.2,7.8-12.3c1.2-4.1-2.4-11.4,0-15.1
	c2.4-3.6,9.4-1.8,12.7-4.6c3.3-2.7,4.1-10.5,7.8-12.3c3.7-1.4,8.6,4.6,12.7,4.6c4.1,0,9-5.9,12.7-4.6s4.5,9.6,7.8,12.3
	c3.3,2.7,10.2,0.9,12.7,4.6c2.5,3.7-1.2,10.5,0,15.1C313.9,175.2,320.4,178.4,320.4,183z"/>
<linearGradient id="SVGID_21_" gradientUnits="userSpaceOnUse" x1="287.0977" y1="141.1466" x2="286.3737" y2="52.2866" gradientTransform="matrix(1 0 0 -1 0 280)">
	<stop  offset="0" style="stop-color:#5E5D60"/>
	<stop  offset="9.895830e-02" style="stop-color:#1A1919"/>
	<stop  offset="0.25" style="stop-color:#6C6C6C"/>
	<stop  offset="0.3958" style="stop-color:#282828"/>
	<stop  offset="0.6563" style="stop-color:#3C3B3D"/>
	<stop  offset="0.7135" style="stop-color:#4F5052"/>
	<stop  offset="0.7917" style="stop-color:#5A5A5A"/>
	<stop  offset="1" style="stop-color:#16171A"/>
</linearGradient>
<path class="st26" d="M280.8,138.4h10.4l2.6,7.3l-13.6,2.6L280.8,138.4z"/>
<linearGradient id="SVGID_22_" gradientUnits="userSpaceOnUse" x1="264.1294" y1="141.3337" x2="263.4054" y2="52.4737" gradientTransform="matrix(1 0 0 -1 0 280)">
	<stop  offset="0" style="stop-color:#5E5D60"/>
	<stop  offset="9.895830e-02" style="stop-color:#1A1919"/>
	<stop  offset="0.25" style="stop-color:#6C6C6C"/>
	<stop  offset="0.3958" style="stop-color:#282828"/>
	<stop  offset="0.6563" style="stop-color:#3C3B3D"/>
	<stop  offset="0.7135" style="stop-color:#4F5052"/>
	<stop  offset="0.7917" style="stop-color:#5A5A5A"/>
	<stop  offset="1" style="stop-color:#16171A"/>
</linearGradient>
<path class="st27" d="M257.3,138.4h9.9l3.6,8.8l-12-0.5L257.3,138.4z"/>
<linearGradient id="SVGID_23_" gradientUnits="userSpaceOnUse" x1="285.8869" y1="141.1565" x2="285.1629" y2="52.2965" gradientTransform="matrix(1 0 0 -1 0 280)">
	<stop  offset="0" style="stop-color:#5E5D60"/>
	<stop  offset="9.895830e-02" style="stop-color:#1A1919"/>
	<stop  offset="0.25" style="stop-color:#6C6C6C"/>
	<stop  offset="0.3958" style="stop-color:#282828"/>
	<stop  offset="0.6563" style="stop-color:#3C3B3D"/>
	<stop  offset="0.7135" style="stop-color:#4F5052"/>
	<stop  offset="0.7917" style="stop-color:#5A5A5A"/>
	<stop  offset="1" style="stop-color:#16171A"/>
</linearGradient>
<path class="st28" d="M280.8,227.2h10.4v-8.3l-12-1.6L280.8,227.2z"/>
<linearGradient id="SVGID_24_" gradientUnits="userSpaceOnUse" x1="263.5135" y1="141.3388" x2="262.7896" y2="52.4788" gradientTransform="matrix(1 0 0 -1 0 280)">
	<stop  offset="0" style="stop-color:#5E5D60"/>
	<stop  offset="9.895830e-02" style="stop-color:#1A1919"/>
	<stop  offset="0.25" style="stop-color:#6C6C6C"/>
	<stop  offset="0.3958" style="stop-color:#282828"/>
	<stop  offset="0.6563" style="stop-color:#3C3B3D"/>
	<stop  offset="0.7135" style="stop-color:#4F5052"/>
	<stop  offset="0.7917" style="stop-color:#5A5A5A"/>
	<stop  offset="1" style="stop-color:#16171A"/>
</linearGradient>
<path class="st29" d="M257.3,227.2h10.9V223l-8.9-5.7L257.3,227.2z"/>
<linearGradient id="SVGID_25_" gradientUnits="userSpaceOnUse" x1="269.161" y1="141.4701" x2="269.161" y2="52.5471" gradientTransform="matrix(1 0 0 -1 0 280)">
	<stop  offset="0" style="stop-color:#2B292A"/>
	<stop  offset="0.6801" style="stop-color:#424041"/>
	<stop  offset="1" style="stop-color:#868585"/>
</linearGradient>
<path class="st30" d="M310,183c0,4.6-6.5,8.2-7.8,12.3s2.5,11.4,0,15.1c-2.4,3.7-9.4,1.8-12.7,4.6c-3.3,2.7-4.1,10.5-7.8,12.3
	c-3.7,1.4-8.6-4.6-12.7-4.6c-4.1,0-9,5.9-12.7,4.6c-3.7-1.4-4.5-9.6-7.8-12.3c-3.3-2.7-10.2-0.9-12.7-4.6c-2.4-3.6,1.2-10.5,0-15.1
	c-1.2-4.1-7.8-7.8-7.8-12.3c0-4.6,6.5-8.2,7.8-12.3c1.2-4.1-2.4-11.4,0-15.1c2.4-3.6,9.4-1.8,12.7-4.6c3.3-2.7,4.1-10.5,7.8-12.3
	c3.7-1.4,8.6,4.6,12.7,4.6c4.1,0,9-5.9,12.7-4.6c3.7,1.4,4.5,9.6,7.8,12.3c3.3,2.7,10.2,0.9,12.7,4.6c2.5,3.7-1.2,10.5,0,15.1
	C303.5,175.2,310,178.4,310,183z"/>
<path class="st31" d="M289.6,214.9l-0.6-0.8c1-0.8,2.2-1.3,3.4-1.6c1-0.2,2.1-0.4,3.1-0.5c0.2,0,0.4-0.1,0.7-0.1
	c1.2-0.2,2.3-0.4,3.3-0.7c0.9-0.3,1.6-0.8,2.1-1.5c0.5-0.7,0.7-1.6,0.7-2.8c0-1.2-0.2-2.5-0.4-3.9c-0.1-0.3-0.1-0.6-0.2-0.9
	c-0.2-1.1-0.4-2.2-0.5-3.2c-0.1-1.4-0.2-2.7,0.2-4c0.4-1.2,1.1-2.3,1.9-3.4c0.6-0.8,1.3-1.5,2-2.3c0.2-0.2,0.4-0.5,0.7-0.7
	c0.9-1,1.7-1.9,2.3-2.9c0.6-1,0.9-1.9,0.9-2.8c0-0.9-0.3-1.8-0.9-2.7c-0.6-0.9-1.4-1.8-2.3-2.8c-0.1-0.2-0.3-0.3-0.4-0.5
	c-0.7-0.8-1.5-1.7-2.2-2.5c-0.8-1.1-1.5-2.2-1.9-3.6c-0.4-1.3-0.3-2.7-0.2-4.1c0.1-1.1,0.3-2.2,0.5-3.3c0-0.3,0.1-0.6,0.1-0.8
	c0.2-1.4,0.4-2.6,0.4-3.8c0-1.1-0.2-2-0.7-2.7l0.8-0.6l-0.8,0.6c-0.5-0.7-1.1-1.1-2.1-1.5c-0.9-0.3-2-0.5-3.3-0.7
	c-0.2,0-0.4-0.1-0.7-0.1c-1-0.1-2.1-0.3-3.1-0.5c-1.2-0.3-2.4-0.7-3.4-1.6c-1-0.8-1.7-2-2.3-3.2c-0.5-1-1-2.1-1.4-3.1
	c-0.1-0.2-0.2-0.5-0.3-0.7c-0.5-1.3-1.1-2.5-1.6-3.4c-0.6-0.9-1.2-1.5-1.8-1.7c-0.6-0.2-1.3-0.2-2.3,0.1c-0.9,0.3-1.9,0.9-3,1.5
	c-0.2,0.1-0.4,0.2-0.6,0.4c-0.9,0.5-1.8,1.1-2.8,1.6c-1.1,0.6-2.4,1-3.6,1c-1.2,0-2.5-0.4-3.6-1c-0.9-0.5-1.9-1-2.8-1.6
	c-0.2-0.1-0.4-0.2-0.6-0.4c-1.1-0.7-2.1-1.2-3-1.5c-0.9-0.3-1.6-0.4-2.2-0.2c-0.7,0.3-1.3,1-1.9,1.9c-0.6,1-1.1,2.1-1.7,3.4
	c-0.1,0.2-0.2,0.4-0.3,0.6c-0.4,1.1-0.9,2.2-1.4,3.2c-0.6,1.2-1.4,2.3-2.3,3.1c-1,0.8-2.2,1.3-3.4,1.6c-1,0.2-2.1,0.4-3.1,0.5
	c-0.2,0-0.4,0.1-0.7,0.1c-1.2,0.2-2.3,0.4-3.3,0.7c-0.9,0.3-1.6,0.8-2.1,1.5c-0.5,0.7-0.7,1.6-0.7,2.8s0.2,2.5,0.4,3.9
	c0.1,0.3,0.1,0.6,0.2,0.9c0.2,1.1,0.4,2.2,0.5,3.2c0.1,1.4,0.2,2.7-0.2,4c-0.4,1.2-1.1,2.3-1.9,3.4c-0.6,0.8-1.3,1.5-2,2.3
	c-0.2,0.2-0.4,0.5-0.7,0.7c-0.9,1-1.7,1.9-2.3,2.9c-0.6,1-0.9,1.9-0.9,2.8s0.3,1.8,0.9,2.8c0.6,1,1.4,1.9,2.3,2.9
	c0.2,0.2,0.4,0.5,0.7,0.7c0.7,0.8,1.4,1.5,2,2.3c0.8,1,1.5,2.1,1.9,3.4l0,0l0,0c0.4,1.3,0.3,2.7,0.2,4.1c-0.1,1.1-0.3,2.2-0.5,3.3
	c-0.1,0.3-0.1,0.6-0.1,0.8c-0.2,1.4-0.4,2.6-0.4,3.8c0,1.1,0.2,2,0.7,2.7l-0.8,0.6l0.8-0.6c0.5,0.7,1.1,1.1,2.1,1.5
	c0.9,0.3,2,0.5,3.3,0.7c0.2,0,0.4,0.1,0.7,0.1c1,0.1,2.1,0.3,3.1,0.5c1.2,0.3,2.4,0.7,3.4,1.6L289.6,214.9z M289.6,214.9l-0.6-0.8
	c-1,0.8-1.7,1.9-2.3,3.1c-0.5,1-1,2.1-1.4,3.2c-0.1,0.2-0.2,0.4-0.3,0.6c-0.5,1.3-1.1,2.4-1.7,3.4c-0.6,0.9-1.2,1.6-1.9,1.9
	c-0.6,0.2-1.3,0.2-2.2-0.2c-0.9-0.3-1.9-0.9-3-1.5c-0.2-0.1-0.4-0.2-0.6-0.4c-0.9-0.5-1.8-1.1-2.8-1.6c-1.1-0.6-2.4-1-3.6-1
	c-1.2,0-2.5,0.4-3.6,1c-0.9,0.5-1.9,1-2.8,1.6c-0.2,0.1-0.4,0.2-0.6,0.4c-1.1,0.7-2.1,1.2-3,1.5c-0.9,0.3-1.7,0.4-2.3,0.1
	c-0.6-0.2-1.2-0.8-1.8-1.7c-0.6-0.9-1.1-2.1-1.6-3.4c-0.1-0.2-0.2-0.5-0.3-0.7c-0.4-1.1-0.9-2.2-1.4-3.1c-0.6-1.2-1.4-2.4-2.3-3.2
	L289.6,214.9z"/>
<g>
	<path class="st32" d="M362,21h-38c-8.8,0-16,7.2-16,16v38c0,8.8,7.2,16,16,16h38c8.8,0,16-7.2,16-16V37C378,28.1,370.8,21,362,21z"
		/>
</g>
<g>
	<defs>
		<rect id="SVGID_26_" x="323" y="36" width="40" height="40"/>
	</defs>
	<clipPath id="SVGID_27_">
		<use xlink:href="#SVGID_26_"  style="overflow:visible;"/>
	</clipPath>
	<g class="st33">
		<path class="st34" d="M336.1,59.5c-0.3,0-0.6-0.3-0.6-0.6v-7.4c0-0.2,0.2-0.5,0.4-0.5l6.9-2.6c0.1,0,0.3,0,0.4,0l6.9,2.6
			c0.2,0.1,0.4,0.3,0.4,0.5v1.9c0,0.3-0.3,0.6-0.6,0.6s-0.6-0.3-0.6-0.6v-1l-5.8,2.2v7.7l5.8-2.2v-6.6c0-0.3,0.3-0.6,0.6-0.6
			s0.6,0.3,0.6,0.6v7c0,0.2-0.2,0.5-0.4,0.5l-6.9,2.6l0,0c-0.1,0-0.1,0-0.2,0c-0.1,0-0.1,0-0.2,0l-6.9-2.6c-0.2-0.1-0.4-0.3-0.4-0.5
			v-2c0-0.3,0.3-0.6,0.6-0.6s0.6,0.3,0.6,0.6v1.6l5.8,2.2v-7.7l-5.8-2.2v6.5C336.6,59.2,336.4,59.5,336.1,59.5z M343,53.5l5.3-2
			l-5.3-2l-5.3,2L343,53.5z"/>
		<path class="st34" d="M343.6,41.8V46c0,0.3-0.3,0.6-0.6,0.6s-0.6-0.3-0.6-0.6v-4.2c-1.3-0.3-2.4-1.5-2.4-2.9c0-1.6,1.3-3,3-3
			s3,1.3,3,3C346,40.4,344.9,41.6,343.6,41.8z M343,37.2c-1,0-1.8,0.8-1.8,1.8c0,1,0.8,1.8,1.8,1.8s1.8-0.8,1.8-1.8
			C344.8,38,344,37.2,343,37.2z"/>
		<path class="st34" d="M331.7,63.2c0.9,0,1.7,0.3,2.4,0.8l1.4-1.4c0.2-0.2,0.6-0.2,0.8,0c0.2,0.2,0.2,0.6,0,0.8l-1.4,1.4
			c0.5,0.7,0.8,1.5,0.8,2.4c0,2.2-1.8,4.1-4.1,4.1c-2.2,0-4.1-1.8-4.1-4.1C327.7,65,329.5,63.2,331.7,63.2z M331.7,70.1
			c1.6,0,2.9-1.3,2.9-2.9c0-1.6-1.3-2.9-2.9-2.9c-1.6,0-2.9,1.3-2.9,2.9C328.8,68.8,330.1,70.1,331.7,70.1z"/>
		<path class="st34" d="M354.3,48.8c-0.9,0-1.7-0.3-2.4-0.8l-1.4,1.4c-0.1,0.1-0.3,0.2-0.4,0.2s-0.3-0.1-0.4-0.2
			c-0.2-0.2-0.2-0.6,0-0.8l1.4-1.4c-0.5-0.7-0.8-1.5-0.8-2.4c0-2.2,1.8-4.1,4.1-4.1c2.2,0,4.1,1.8,4.1,4.1S356.5,48.8,354.3,48.8z
			 M354.3,41.8c-1.6,0-2.9,1.3-2.9,2.9c0,1.6,1.3,2.9,2.9,2.9c1.6,0,2.9-1.3,2.9-2.9C357.2,43.1,355.9,41.8,354.3,41.8z"/>
		<path class="st34" d="M342.4,70.1v-4.2c0-0.3,0.3-0.6,0.6-0.6s0.6,0.3,0.6,0.6v4.2c1.3,0.3,2.4,1.5,2.4,2.9c0,1.6-1.3,3-3,3
			s-3-1.3-3-3C340,71.6,341.1,70.4,342.4,70.1z M343,74.8c1,0,1.8-0.8,1.8-1.8c0-1-0.8-1.8-1.8-1.8s-1.8,0.8-1.8,1.8
			C341.2,74,342,74.8,343,74.8z"/>
		<path class="st34" d="M326,53c1.4,0,2.6,1,2.9,2.4h4.2c0.3,0,0.6,0.3,0.6,0.6s-0.3,0.6-0.6,0.6h-4.2c-0.3,1.3-1.5,2.4-2.9,2.4
			c-1.6,0-3-1.3-3-3C323,54.4,324.3,53,326,53z M326,57.8c1,0,1.8-0.8,1.8-1.8c0-1-0.8-1.8-1.8-1.8c-1,0-1.8,0.8-1.8,1.8
			C324.2,57,325,57.8,326,57.8z"/>
		<path class="st34" d="M357.2,56.6h-4.2c-0.3,0-0.6-0.3-0.6-0.6s0.3-0.6,0.6-0.6h4.2c0.3-1.3,1.5-2.4,2.9-2.4c1.6,0,3,1.3,3,3
			c0,1.6-1.3,3-3,3C358.6,58.9,357.4,57.9,357.2,56.6z M360,57.8c1,0,1.8-0.8,1.8-1.8c0-1-0.8-1.8-1.8-1.8c-1,0-1.8,0.8-1.8,1.8
			C358.3,57,359.1,57.8,360,57.8z"/>
		<path class="st34" d="M336,49.5c-0.1,0-0.3-0.1-0.4-0.2l-1.4-1.4c-0.7,0.5-1.5,0.8-2.4,0.8c-2.2,0-4.1-1.8-4.1-4.1
			s1.8-4.1,4.1-4.1c2.2,0,4.1,1.8,4.1,4.1c0,0.9-0.3,1.7-0.8,2.4l1.4,1.4c0.2,0.2,0.2,0.6,0,0.8C336.3,49.5,336.1,49.5,336,49.5z
			 M331.7,41.8c-1.6,0-2.9,1.3-2.9,2.9c0,1.6,1.3,2.9,2.9,2.9c1.6,0,2.9-1.3,2.9-2.9C334.6,43.1,333.3,41.8,331.7,41.8z"/>
		<path class="st34" d="M350.4,62.6l1.4,1.4c0.7-0.5,1.5-0.8,2.4-0.8c2.2,0,4.1,1.8,4.1,4.1c0,2.2-1.8,4.1-4.1,4.1
			c-2.2,0-4.1-1.8-4.1-4.1c0-0.9,0.3-1.7,0.8-2.4l-1.4-1.4c-0.2-0.2-0.2-0.6,0-0.8C349.8,62.4,350.2,62.4,350.4,62.6z M354.3,70.1
			c1.6,0,2.9-1.3,2.9-2.9c0-1.6-1.3-2.9-2.9-2.9c-1.6,0-2.9,1.3-2.9,2.9C351.4,68.8,352.7,70.1,354.3,70.1z"/>
	</g>
</g>
<linearGradient id="SVGID_28_" gradientUnits="userSpaceOnUse" x1="84.6018" y1="131.1328" x2="72.9665" y2="34.2468" gradientTransform="matrix(1 0 0 -1 0 280)">
	<stop  offset="0" style="stop-color:#AAAAAA"/>
	<stop  offset="0.1563" style="stop-color:#47484A"/>
	<stop  offset="0.3646" style="stop-color:#2A2B2E"/>
	<stop  offset="0.8338" style="stop-color:#777777"/>
	<stop  offset="0.9168" style="stop-color:#3E3E43"/>
	<stop  offset="1" style="stop-color:#28292B"/>
</linearGradient>
<path class="st35" d="M117.4,201.1c1.7-26.8-13.9-50.8-34.7-53.5c-2.1-0.3-4.3-0.3-6.3-0.1c-4,0.3-13.1,1.2-16.5,2.8
	c-12.5,6.6-18.3,23-19.5,41.7c-1.7,26.8,31.1,54.7,34.8,54.5c3.7-0.2,8.3-1.4,11.6-2.1C103.1,240.7,116,223.4,117.4,201.1z"/>
<linearGradient id="SVGID_29_" gradientUnits="userSpaceOnUse" x1="75.9919" y1="130.4279" x2="63.5538" y2="34.1211" gradientTransform="matrix(1 0 0 -1 0 280)">
	<stop  offset="0" style="stop-color:#292728"/>
	<stop  offset="0.625" style="stop-color:#434142"/>
	<stop  offset="1" style="stop-color:#8A8A8A"/>
</linearGradient>
<path class="st36" d="M107.5,201.2c1.6-26.1-13.5-49.3-33.7-51.9l-2.1-0.3c-20.2-2.6-37.9,16.4-39.6,42.5l-0.2,2.7
	c-1.6,26.1,13.5,49.3,33.7,51.9l2.1,0.3c20.2,2.6,37.9-16.4,39.6-42.5L107.5,201.2z"/>
<linearGradient id="SVGID_30_" gradientUnits="userSpaceOnUse" x1="40.6505" y1="128.7873" x2="98.8875" y2="35.5283" gradientTransform="matrix(1 0 0 -1 0 280)">
	<stop  offset="0.6705" style="stop-color:#8C8C8C"/>
	<stop  offset="0.9258" style="stop-color:#1C1D20"/>
	<stop  offset="1" style="stop-color:#434244"/>
</linearGradient>
<path class="st37" d="M71.6,152.7l2,0.3c18.7,2.4,32.6,23.9,31.1,48.1l-0.2,2.6c-1.5,24.1-17.9,41.7-36.6,39.3l-2-0.3
	c-18.7-2.4-32.6-23.9-31.1-48.1L35,192C36.5,167.9,52.9,150.3,71.6,152.7z M73.7,151.2c19.5,2.5,34,24.9,32.4,50.1l-0.2,2.6
	c-1.6,25.1-18.6,43.5-38.1,40.9l-2-0.3c-19.5-2.5-34-24.9-32.4-50.1l0.2-2.6c1.6-25.1,18.6-43.5,38.1-40.9L73.7,151.2z"/>
<linearGradient id="SVGID_31_" gradientUnits="userSpaceOnUse" x1="75.4631" y1="133.3134" x2="64.4132" y2="34.2014" gradientTransform="matrix(1 0 0 -1 0 280)">
	<stop  offset="0.6705" style="stop-color:#8C8C8C"/>
	<stop  offset="0.9258" style="stop-color:#1C1D20"/>
	<stop  offset="1" style="stop-color:#434244"/>
</linearGradient>
<path class="st38" d="M71.6,150.9l2.1,0.3c19.4,2.5,33.9,24.8,32.3,49.9l-0.2,2.7c-1.6,25-18.6,43.3-38,40.8l-2.1-0.3
	c-19.4-2.5-33.9-24.8-32.3-49.9l0.2-2.7C35.2,166.7,52.2,148.4,71.6,150.9z M73.8,149.3c20.2,2.6,35.3,25.9,33.7,51.9l-0.2,2.7
	C105.7,230,88,249,67.8,246.4l-2.1-0.3c-20.2-2.6-35.3-25.9-33.7-51.9l0.2-2.7c1.6-26.1,19.3-45.1,39.6-42.5L73.8,149.3z"/>
<linearGradient id="SVGID_32_" gradientUnits="userSpaceOnUse" x1="114.9294" y1="131.4819" x2="80.0309" y2="93.4529" gradientTransform="matrix(1 0 0 -1 0 280)">
	<stop  offset="0" style="stop-color:#FFFFFF;stop-opacity:0.94"/>
	<stop  offset="1" style="stop-color:#FFFFFF;stop-opacity:0.26"/>
</linearGradient>
<path class="st39" d="M71.6,150.9l2.1,0.3c19.4,2.5,33.9,24.8,32.3,49.9l-0.2,2.7c-1.6,25-18.6,43.3-38,40.8l-2.1-0.3
	c-19.4-2.5-33.9-24.8-32.3-49.9l0.2-2.7C35.2,166.7,52.2,148.4,71.6,150.9z M73.8,149.3c20.2,2.6,35.3,25.9,33.7,51.9l-0.2,2.7
	C105.7,230,88,249,67.8,246.4l-2.1-0.3c-20.2-2.6-35.3-25.9-33.7-51.9l0.2-2.7c1.6-26.1,19.3-45.1,39.6-42.5L73.8,149.3z"/>
<g class="st40">
	
		<linearGradient id="SVGID_33_" gradientUnits="userSpaceOnUse" x1="40.6375" y1="212.2789" x2="33.6433" y2="154.0364" gradientTransform="matrix(1 0 0 -1 0 280)">
		<stop  offset="0" style="stop-color:#AAAAAA"/>
		<stop  offset="0.1563" style="stop-color:#47484A"/>
		<stop  offset="0.3646" style="stop-color:#2A2B2E"/>
		<stop  offset="0.8338" style="stop-color:#777777"/>
		<stop  offset="0.9168" style="stop-color:#3E3E43"/>
		<stop  offset="1" style="stop-color:#28292B"/>
	</linearGradient>
	<path class="st41" d="M60.3,99.1C61.3,83,52,68.6,39.5,67c-1.3-0.2-2.6-0.2-3.8-0.1c-2.4,0.2-7.9,0.7-9.9,1.7
		c-7.5,3.9-11,13.8-11.7,25c-1,16.1,18.7,32.9,20.9,32.8c2.2-0.1,5-0.9,6.9-1.3C51.8,123,59.5,112.5,60.3,99.1z"/>
	
		<linearGradient id="SVGID_34_" gradientUnits="userSpaceOnUse" x1="35.4622" y1="211.854" x2="27.9853" y2="153.9606" gradientTransform="matrix(1 0 0 -1 0 280)">
		<stop  offset="0" style="stop-color:#292728"/>
		<stop  offset="0.625" style="stop-color:#434142"/>
		<stop  offset="1" style="stop-color:#8A8A8A"/>
	</linearGradient>
	<path class="st42" d="M54.4,99.2c1-15.7-8.1-29.7-20.2-31.2l-1.3-0.2c-12.2-1.6-22.8,9.9-23.8,25.5L9,95
		c-1,15.7,8.1,29.7,20.2,31.2l1.3,0.2c12.2,1.6,22.8-9.9,23.8-25.5L54.4,99.2z"/>
	
		<linearGradient id="SVGID_35_" gradientUnits="userSpaceOnUse" x1="14.2175" y1="210.8677" x2="49.2256" y2="154.8066" gradientTransform="matrix(1 0 0 -1 0 280)">
		<stop  offset="0.6705" style="stop-color:#8C8C8C"/>
		<stop  offset="0.9258" style="stop-color:#1C1D20"/>
		<stop  offset="1" style="stop-color:#434244"/>
	</linearGradient>
	<path class="st43" d="M32.8,70l1.2,0.2c11.2,1.5,19.6,14.4,18.7,28.9l-0.1,1.6c-0.9,14.5-10.7,25.1-22,23.6l-1.2-0.2
		c-11.2-1.5-19.6-14.4-18.7-28.9l0.1-1.6C11.7,79.2,21.6,68.6,32.8,70z M34.1,69.1c11.7,1.5,20.4,15,19.5,30.1l-0.1,1.6
		c-0.9,15.1-11.2,26.1-22.9,24.6l-1.2-0.2c-11.7-1.5-20.4-15-19.5-30.1l0.1-1.6c0.9-15.1,11.2-26.1,22.9-24.6L34.1,69.1z"/>
	
		<linearGradient id="SVGID_36_" gradientUnits="userSpaceOnUse" x1="35.1444" y1="213.5886" x2="28.5019" y2="154.0092" gradientTransform="matrix(1 0 0 -1 0 280)">
		<stop  offset="0.6705" style="stop-color:#8C8C8C"/>
		<stop  offset="0.9258" style="stop-color:#1C1D20"/>
		<stop  offset="1" style="stop-color:#434244"/>
	</linearGradient>
	<path class="st44" d="M32.8,69l1.3,0.2c11.7,1.5,20.4,14.9,19.4,30l-0.1,1.6c-0.9,15-11.2,26-22.8,24.5l-1.3-0.2
		c-11.7-1.5-20.4-14.9-19.4-30l0.1-1.6C10.9,78.4,21.2,67.4,32.8,69z M34.2,68c12.2,1.6,21.2,15.6,20.2,31.2l-0.1,1.6
		c-1,15.7-11.6,27.1-23.8,25.5l-1.3-0.2C17.1,124.6,8.1,110.7,9,95l0.1-1.6c1-15.7,11.6-27.1,23.8-25.5L34.2,68z"/>
	
		<linearGradient id="SVGID_37_" gradientUnits="userSpaceOnUse" x1="58.8689" y1="212.4879" x2="37.8903" y2="189.6272" gradientTransform="matrix(1 0 0 -1 0 280)">
		<stop  offset="0" style="stop-color:#FFFFFF;stop-opacity:0.94"/>
		<stop  offset="1" style="stop-color:#FFFFFF;stop-opacity:0.26"/>
	</linearGradient>
	<path class="st45" d="M32.8,69l1.3,0.2c11.7,1.5,20.4,14.9,19.4,30l-0.1,1.6c-0.9,15-11.2,26-22.8,24.5l-1.3-0.2
		c-11.7-1.5-20.4-14.9-19.4-30l0.1-1.6C10.9,78.4,21.2,67.4,32.8,69z M34.2,68c12.2,1.6,21.2,15.6,20.2,31.2l-0.1,1.6
		c-1,15.7-11.6,27.1-23.8,25.5l-1.3-0.2C17.1,124.6,8.1,110.7,9,95l0.1-1.6c1-15.7,11.6-27.1,23.8-25.5L34.2,68z"/>
</g>
</svg>
