<svg width="178" height="159" viewBox="0 0 178 159" fill="none" xmlns="http://www.w3.org/2000/svg">
<path d="M121.362 6.11112L157.284 74.0993C158.35 76.1176 158.883 77.1267 159.092 78.1997C159.277 79.1491 159.277 80.1304 159.092 81.0798C158.883 82.1528 158.35 83.1619 157.284 85.1802L121.362 153.168C120.298 155.182 119.766 156.189 119.022 156.921C118.364 157.569 117.589 158.059 116.747 158.358C115.796 158.696 114.733 158.696 112.608 158.696L46.6237 158.696C44.4983 158.696 43.4355 158.696 42.484 158.358C41.6421 158.059 40.8671 157.569 40.209 156.921C39.4652 156.189 38.9332 155.182 37.8693 153.168L1.94757 85.1802L1.94731 85.1797C0.881115 83.1618 0.348019 82.1527 0.13937 81.0798C-0.0452458 80.1304 -0.0452457 79.1491 0.13937 78.1997C0.348019 77.1268 0.881421 76.1173 1.94757 74.0993L37.8693 6.11112C38.9332 4.09737 39.4652 3.09049 40.209 2.35826C40.8671 1.71036 41.6422 1.22098 42.4841 0.921804C43.4356 0.583675 44.4983 0.583675 46.6237 0.583675L112.608 0.583677C114.733 0.583677 115.796 0.583677 116.747 0.921806C117.589 1.22098 118.364 1.71037 119.022 2.35826C119.766 3.0905 120.298 4.09737 121.362 6.11112Z" fill="url(#paint0_linear)"/>
<path d="M121.362 6.11112L157.284 74.0993C158.35 76.1176 158.883 77.1267 159.092 78.1997C159.277 79.1491 159.277 80.1304 159.092 81.0798C158.883 82.1528 158.35 83.1619 157.284 85.1802L121.362 153.168C120.298 155.182 119.766 156.189 119.022 156.921C118.364 157.569 117.589 158.059 116.747 158.358C115.796 158.696 114.733 158.696 112.608 158.696L46.6237 158.696C44.4983 158.696 43.4355 158.696 42.484 158.358C41.6421 158.059 40.8671 157.569 40.209 156.921C39.4652 156.189 38.9332 155.182 37.8693 153.168L1.94757 85.1802L1.94731 85.1797C0.881115 83.1618 0.348019 82.1527 0.13937 81.0798C-0.0452458 80.1304 -0.0452457 79.1491 0.13937 78.1997C0.348019 77.1268 0.881421 76.1173 1.94757 74.0993L37.8693 6.11112C38.9332 4.09737 39.4652 3.09049 40.209 2.35826C40.8671 1.71036 41.6422 1.22098 42.4841 0.921804C43.4356 0.583675 44.4983 0.583675 46.6237 0.583675L112.608 0.583677C114.733 0.583677 115.796 0.583677 116.747 0.921806C117.589 1.22098 118.364 1.71037 119.022 2.35826C119.766 3.0905 120.298 4.09737 121.362 6.11112Z" fill="url(#paint1_linear)"/>
<path d="M139.798 5.83164L175.719 73.8199C176.786 75.8381 177.319 76.8472 177.528 77.9202C177.712 78.8696 177.712 79.8509 177.528 80.8003C177.319 81.8733 176.786 82.8825 175.719 84.9007L139.798 152.889C138.734 154.903 138.202 155.91 137.458 156.642C136.8 157.29 136.025 157.779 135.183 158.078C134.231 158.416 133.169 158.416 131.043 158.416L65.0593 158.416C62.9338 158.416 61.8711 158.416 60.9196 158.078C60.0777 157.779 59.3026 157.29 58.6445 156.642C57.9008 155.91 57.3688 154.903 56.3048 152.889L20.3831 84.9007L20.3829 84.9002C19.3167 82.8823 18.7836 81.8732 18.5749 80.8003C18.3903 79.8509 18.3903 78.8696 18.5749 77.9202C18.7836 76.8473 19.317 75.8378 20.3831 73.8199L56.3048 5.83164C57.3688 3.81789 57.9008 2.81101 58.6445 2.07878C59.3026 1.43088 60.0777 0.941502 60.9196 0.642324C61.8711 0.304195 62.9338 0.304195 65.0593 0.304196L131.043 0.304197C133.169 0.304197 134.231 0.304197 135.183 0.642326C136.025 0.941504 136.8 1.43089 137.458 2.07878C138.202 2.81102 138.734 3.81789 139.798 5.83164Z" fill="url(#paint2_linear)"/>
<path d="M128.875 27.129L155.773 77.9163C156.571 79.4239 156.971 80.1777 157.127 80.9793C157.265 81.6885 157.265 82.4215 157.127 83.1307C156.971 83.9323 156.571 84.6861 155.773 86.1937L128.875 136.981C128.078 138.485 127.68 139.237 127.123 139.784C126.63 140.268 126.05 140.634 125.419 140.857C124.707 141.11 123.911 141.11 122.32 141.11L72.9113 141.11C71.3198 141.11 70.524 141.11 69.8115 140.857C69.1811 140.634 68.6008 140.268 68.108 139.784C67.5511 139.237 67.1527 138.485 66.356 136.981L39.4581 86.1937L39.4579 86.1933C38.6596 84.6859 38.2604 83.9322 38.1041 83.1307C37.9659 82.4215 37.9659 81.6885 38.1041 80.9793C38.2604 80.1778 38.6598 79.4237 39.4581 77.9163L66.356 27.129C67.1527 25.6247 67.5511 24.8726 68.108 24.3256C68.6008 23.8416 69.1811 23.4761 69.8116 23.2526C70.524 23 71.3198 23 72.9113 23L122.32 23C123.911 23 124.707 23 125.419 23.2526C126.05 23.4761 126.63 23.8416 127.123 24.3256C127.68 24.8726 128.078 25.6247 128.875 27.129Z" fill="url(#paint3_linear)"/>
<path fill-rule="evenodd" clip-rule="evenodd" d="M20.3829 84.9002L20.3831 84.9007L56.3048 152.889C57.3688 154.903 57.9008 155.91 58.6445 156.642C59.3026 157.29 60.0777 157.779 60.9196 158.078C61.8711 158.416 62.9338 158.416 65.0593 158.416L131.043 158.416C133.169 158.416 134.231 158.416 135.183 158.078C136.025 157.779 136.8 157.29 137.458 156.642C138.202 155.91 138.734 154.903 139.798 152.889L175.719 84.9007C176.786 82.8825 177.319 81.8733 177.528 80.8003C177.712 79.8509 177.712 78.8696 177.528 77.9202C177.319 76.8472 176.786 75.8381 175.719 73.8199L139.798 5.83164C138.734 3.81789 138.202 2.81102 137.458 2.07878C136.8 1.43089 136.025 0.941504 135.183 0.642326C134.231 0.304197 133.169 0.304197 131.043 0.304197L65.0593 0.304196C62.9338 0.304195 61.8711 0.304195 60.9196 0.642324C60.0777 0.941502 59.3026 1.43088 58.6445 2.07878C57.9008 2.81101 57.3688 3.81789 56.3048 5.83164L20.3831 73.8199L20.3823 73.8213C19.3167 75.8383 18.7835 76.8475 18.5749 77.9202C18.3903 78.8696 18.3903 79.8509 18.5749 80.8003C18.7836 81.8732 19.3167 82.8823 20.3829 84.9002ZM61.7803 5.26382C61.6485 5.39352 61.4638 5.63497 60.2567 7.91964L24.335 75.9079C23.1411 78.1676 23.015 78.5025 22.9623 78.7734C22.8873 79.1593 22.8873 79.5613 22.9623 79.9471C23.015 80.218 23.141 80.5528 24.3347 82.8122L24.335 82.8127L24.3548 82.8502L24.355 82.8505L60.2567 150.801C61.4638 153.086 61.6485 153.327 61.7803 153.457C61.9881 153.661 62.2069 153.792 62.4119 153.865C62.4456 153.873 62.5638 153.896 62.8391 153.914C63.3113 153.945 63.9404 153.947 65.0593 153.947L131.043 153.947C132.162 153.947 132.791 153.945 133.263 153.914C133.539 153.896 133.657 153.873 133.69 153.865C133.895 153.792 134.114 153.661 134.322 153.457C134.454 153.327 134.639 153.086 135.846 150.801L171.767 82.8127C172.961 80.5529 173.087 80.2181 173.14 79.9471L177.519 80.7986L173.14 79.9471C173.215 79.5612 173.215 79.1593 173.14 78.7735C173.087 78.5024 172.961 78.1677 171.767 75.9079L175.719 73.8199L171.767 75.9079L135.846 7.91964C134.639 5.63493 134.454 5.39352 134.322 5.26384C134.114 5.0593 133.896 4.92906 133.691 4.85547C133.657 4.8474 133.539 4.82456 133.263 4.80665C132.791 4.77596 132.162 4.7738 131.043 4.7738L65.0593 4.7738C63.9404 4.7738 63.3113 4.77596 62.8391 4.80665C62.5636 4.82456 62.4455 4.84739 62.4119 4.85547C62.2069 4.92904 61.9881 5.05925 61.7803 5.26382ZM62.4012 4.85845C62.401 4.85837 62.4041 4.85736 62.4112 4.85563C62.405 4.85767 62.4015 4.85853 62.4012 4.85845ZM133.701 4.85845C133.701 4.85854 133.697 4.85767 133.691 4.85563C133.698 4.85736 133.701 4.85836 133.701 4.85845ZM133.701 153.862C133.701 153.862 133.698 153.863 133.691 153.865C133.698 153.863 133.701 153.862 133.701 153.862Z" fill="url(#paint4_linear)"/>
<path fill-rule="evenodd" clip-rule="evenodd" d="M20.3829 84.9002L20.3831 84.9007L56.3048 152.889C57.3688 154.903 57.9008 155.91 58.6445 156.642C59.3026 157.29 60.0777 157.779 60.9196 158.078C61.8711 158.416 62.9338 158.416 65.0593 158.416L131.043 158.416C133.169 158.416 134.231 158.416 135.183 158.078C136.025 157.779 136.8 157.29 137.458 156.642C138.202 155.91 138.734 154.903 139.798 152.889L175.719 84.9007C176.786 82.8825 177.319 81.8733 177.528 80.8003C177.712 79.8509 177.712 78.8696 177.528 77.9202C177.319 76.8472 176.786 75.8381 175.719 73.8199L139.798 5.83164C138.734 3.81789 138.202 2.81102 137.458 2.07878C136.8 1.43089 136.025 0.941504 135.183 0.642326C134.231 0.304197 133.169 0.304197 131.043 0.304197L65.0593 0.304196C62.9338 0.304195 61.8711 0.304195 60.9196 0.642324C60.0777 0.941502 59.3026 1.43088 58.6445 2.07878C57.9008 2.81101 57.3688 3.81789 56.3048 5.83164L20.3831 73.8199L20.3823 73.8213C19.3167 75.8383 18.7835 76.8475 18.5749 77.9202C18.3903 78.8696 18.3903 79.8509 18.5749 80.8003C18.7836 81.8732 19.3167 82.8823 20.3829 84.9002ZM61.7803 5.26382C61.6485 5.39352 61.4638 5.63497 60.2567 7.91964L24.335 75.9079C23.1411 78.1676 23.015 78.5025 22.9623 78.7734C22.8873 79.1593 22.8873 79.5613 22.9623 79.9471C23.015 80.218 23.141 80.5528 24.3347 82.8122L24.335 82.8127L24.3548 82.8502L24.355 82.8505L60.2567 150.801C61.4638 153.086 61.6485 153.327 61.7803 153.457C61.9881 153.661 62.2069 153.792 62.4119 153.865C62.4456 153.873 62.5638 153.896 62.8391 153.914C63.3113 153.945 63.9404 153.947 65.0593 153.947L131.043 153.947C132.162 153.947 132.791 153.945 133.263 153.914C133.539 153.896 133.657 153.873 133.69 153.865C133.895 153.792 134.114 153.661 134.322 153.457C134.454 153.327 134.639 153.086 135.846 150.801L171.767 82.8127C172.961 80.5529 173.087 80.2181 173.14 79.9471L177.519 80.7986L173.14 79.9471C173.215 79.5612 173.215 79.1593 173.14 78.7735C173.087 78.5024 172.961 78.1677 171.767 75.9079L175.719 73.8199L171.767 75.9079L135.846 7.91964C134.639 5.63493 134.454 5.39352 134.322 5.26384C134.114 5.0593 133.896 4.92906 133.691 4.85547C133.657 4.8474 133.539 4.82456 133.263 4.80665C132.791 4.77596 132.162 4.7738 131.043 4.7738L65.0593 4.7738C63.9404 4.7738 63.3113 4.77596 62.8391 4.80665C62.5636 4.82456 62.4455 4.84739 62.4119 4.85547C62.2069 4.92904 61.9881 5.05925 61.7803 5.26382ZM62.4012 4.85845C62.401 4.85837 62.4041 4.85736 62.4112 4.85563C62.405 4.85767 62.4015 4.85853 62.4012 4.85845ZM133.701 4.85845C133.701 4.85854 133.697 4.85767 133.691 4.85563C133.698 4.85736 133.701 4.85836 133.701 4.85845ZM133.701 153.862C133.701 153.862 133.698 153.863 133.691 153.865C133.698 153.863 133.701 153.862 133.701 153.862Z" fill="url(#paint5_linear)" fill-opacity="0.55"/>
<g filter="url(#filter0_d)">
<path d="M101 59.5C97.6043 59.5 94.9447 63.1235 94.9447 67.75C94.9447 72.3765 97.6043 76 101 76C104.396 76 107.055 72.3765 107.055 67.75C107.055 63.1235 104.396 59.5 101 59.5ZM101 71C100.603 71 99.6322 69.8613 99.6322 67.75C99.6322 65.6387 100.603 64.5 101 64.5C101.397 64.5 102.368 65.6387 102.368 67.75C102.368 69.8613 101.397 71 101 71ZM128.656 50C126.947 50 74.9651 50 73.3438 50C72.0492 50 71 51.1191 71 52.5V111.5C71 112.881 72.0492 114 73.3438 114H128.656C129.951 114 131 112.881 131 111.5C131 108.26 131 55.7319 131 52.5C131 51.1191 129.951 50 128.656 50ZM75.6875 55H79.4737C78.8076 56.8521 77.4238 58.3281 75.6875 59.0386V55ZM75.6875 76.4614C77.4238 77.1719 78.8076 78.6479 79.4737 80.5H75.6875V76.4614ZM126.312 109H75.6875V99.75H126.312V109ZM126.312 94.75H75.6875V85.5H126.312V94.75ZM126.312 80.5H122.526C123.192 78.6479 124.576 77.1719 126.312 76.4614V80.5ZM126.312 71.2627C121.987 72.2446 118.573 75.8857 117.653 80.5H84.3475C83.4269 75.8857 80.0134 72.2446 75.6875 71.2627V64.2373C80.0134 63.2559 83.4269 59.6143 84.3475 55H117.653C118.573 59.6143 121.987 63.2559 126.312 64.2373V71.2627ZM126.312 59.0386C124.576 58.3281 123.192 56.8521 122.526 55H126.312V59.0386Z" fill="url(#paint6_linear)"/>
<path d="M100 59.5C96.6043 59.5 93.9447 63.1235 93.9447 67.75C93.9447 72.3765 96.6043 76 100 76C103.396 76 106.055 72.3765 106.055 67.75C106.055 63.1235 103.396 59.5 100 59.5ZM100 71C99.6031 71 98.6322 69.8613 98.6322 67.75C98.6322 65.6387 99.6031 64.5 100 64.5C100.397 64.5 101.368 65.6387 101.368 67.75C101.368 69.8613 100.397 71 100 71ZM127.656 50C125.947 50 73.9651 50 72.3438 50C71.0492 50 70 51.1191 70 52.5V111.5C70 112.881 71.0492 114 72.3438 114H127.656C128.951 114 130 112.881 130 111.5C130 108.26 130 55.7319 130 52.5C130 51.1191 128.951 50 127.656 50ZM74.6875 55H78.4737C77.8076 56.8521 76.4238 58.3281 74.6875 59.0386V55ZM74.6875 76.4614C76.4238 77.1719 77.8076 78.6479 78.4737 80.5H74.6875V76.4614ZM125.312 109H74.6875V99.75H125.312V109ZM125.312 94.75H74.6875V85.5H125.312V94.75ZM125.312 80.5H121.526C122.192 78.6479 123.576 77.1719 125.312 76.4614V80.5ZM125.312 71.2627C120.987 72.2446 117.573 75.8857 116.653 80.5H83.3475C82.4269 75.8857 79.0134 72.2446 74.6875 71.2627V64.2373C79.0134 63.2559 82.4269 59.6143 83.3475 55H116.653C117.573 59.6143 120.987 63.2559 125.312 64.2373V71.2627ZM125.312 59.0386C123.576 58.3281 122.192 56.8521 121.526 55H125.312V59.0386Z" fill="url(#paint7_linear)"/>
<path d="M99 59.5C95.6043 59.5 92.9447 63.1235 92.9447 67.75C92.9447 72.3765 95.6043 76 99 76C102.396 76 105.055 72.3765 105.055 67.75C105.055 63.1235 102.396 59.5 99 59.5ZM99 71C98.6031 71 97.6322 69.8613 97.6322 67.75C97.6322 65.6387 98.6031 64.5 99 64.5C99.3969 64.5 100.368 65.6387 100.368 67.75C100.368 69.8613 99.3969 71 99 71ZM126.656 50C124.947 50 72.9651 50 71.3438 50C70.0492 50 69 51.1191 69 52.5V111.5C69 112.881 70.0492 114 71.3438 114H126.656C127.951 114 129 112.881 129 111.5C129 108.26 129 55.7319 129 52.5C129 51.1191 127.951 50 126.656 50ZM73.6875 55H77.4737C76.8076 56.8521 75.4238 58.3281 73.6875 59.0386V55ZM73.6875 76.4614C75.4238 77.1719 76.8076 78.6479 77.4737 80.5H73.6875V76.4614ZM124.312 109H73.6875V99.75H124.312V109ZM124.312 94.75H73.6875V85.5H124.312V94.75ZM124.312 80.5H120.526C121.192 78.6479 122.576 77.1719 124.312 76.4614V80.5ZM124.312 71.2627C119.987 72.2446 116.573 75.8857 115.653 80.5H82.3475C81.4269 75.8857 78.0134 72.2446 73.6875 71.2627V64.2373C78.0134 63.2559 81.4269 59.6143 82.3475 55H115.653C116.573 59.6143 119.987 63.2559 124.312 64.2373V71.2627ZM124.312 59.0386C122.576 58.3281 121.192 56.8521 120.526 55H124.312V59.0386Z" fill="url(#paint8_linear)"/>
<path d="M98 59.5C94.6043 59.5 91.9447 63.1235 91.9447 67.75C91.9447 72.3765 94.6043 76 98 76C101.396 76 104.055 72.3765 104.055 67.75C104.055 63.1235 101.396 59.5 98 59.5ZM98 71C97.6031 71 96.6322 69.8613 96.6322 67.75C96.6322 65.6387 97.6031 64.5 98 64.5C98.3969 64.5 99.3678 65.6387 99.3678 67.75C99.3678 69.8613 98.3969 71 98 71ZM125.656 50C123.947 50 71.9651 50 70.3438 50C69.0492 50 68 51.1191 68 52.5V111.5C68 112.881 69.0492 114 70.3438 114H125.656C126.951 114 128 112.881 128 111.5C128 108.26 128 55.7319 128 52.5C128 51.1191 126.951 50 125.656 50ZM72.6875 55H76.4737C75.8076 56.8521 74.4238 58.3281 72.6875 59.0386V55ZM72.6875 76.4614C74.4238 77.1719 75.8076 78.6479 76.4737 80.5H72.6875V76.4614ZM123.312 109H72.6875V99.75H123.312V109ZM123.312 94.75H72.6875V85.5H123.312V94.75ZM123.312 80.5H119.526C120.192 78.6479 121.576 77.1719 123.312 76.4614V80.5ZM123.312 71.2627C118.987 72.2446 115.573 75.8857 114.653 80.5H81.3475C80.4269 75.8857 77.0134 72.2446 72.6875 71.2627V64.2373C77.0134 63.2559 80.4269 59.6143 81.3475 55H114.653C115.573 59.6143 118.987 63.2559 123.312 64.2373V71.2627ZM123.312 59.0386C121.576 58.3281 120.192 56.8521 119.526 55H123.312V59.0386Z" fill="url(#paint9_linear)"/>
</g>
<path d="M102 59.5C98.6043 59.5 95.9447 63.1235 95.9447 67.75C95.9447 72.3765 98.6043 76 102 76C105.396 76 108.055 72.3765 108.055 67.75C108.055 63.1235 105.396 59.5 102 59.5ZM102 71C101.603 71 100.632 69.8613 100.632 67.75C100.632 65.6387 101.603 64.5 102 64.5C102.397 64.5 103.368 65.6387 103.368 67.75C103.368 69.8613 102.397 71 102 71ZM129.656 50C127.947 50 75.9651 50 74.3438 50C73.0492 50 72 51.1191 72 52.5V111.5C72 112.881 73.0492 114 74.3438 114H129.656C130.951 114 132 112.881 132 111.5C132 108.26 132 55.7319 132 52.5C132 51.1191 130.951 50 129.656 50ZM76.6875 55H80.4737C79.8076 56.8521 78.4238 58.3281 76.6875 59.0386V55ZM76.6875 76.4614C78.4238 77.1719 79.8076 78.6479 80.4737 80.5H76.6875V76.4614ZM127.312 109H76.6875V99.75H127.312V109ZM127.312 94.75H76.6875V85.5H127.312V94.75ZM127.312 80.5H123.526C124.192 78.6479 125.576 77.1719 127.312 76.4614V80.5ZM127.312 71.2627C122.987 72.2446 119.573 75.8857 118.653 80.5H85.3475C84.4269 75.8857 81.0134 72.2446 76.6875 71.2627V64.2373C81.0134 63.2559 84.4269 59.6143 85.3475 55H118.653C119.573 59.6143 122.987 63.2559 127.312 64.2373V71.2627ZM127.312 59.0386C125.576 58.3281 124.192 56.8521 123.526 55H127.312V59.0386Z" fill="url(#paint10_linear)"/>
<defs>
<filter id="filter0_d" x="68" y="50" width="65" height="66" filterUnits="userSpaceOnUse" color-interpolation-filters="sRGB">
<feFlood flood-opacity="0" result="BackgroundImageFix"/>
<feColorMatrix in="SourceAlpha" type="matrix" values="0 0 0 0 0 0 0 0 0 0 0 0 0 0 0 0 0 0 127 0"/>
<feOffset dx="2" dy="2"/>
<feColorMatrix type="matrix" values="0 0 0 0 0 0 0 0 0 0 0 0 0 0 0 0 0 0 0.15 0"/>
<feBlend mode="normal" in2="BackgroundImageFix" result="effect1_dropShadow"/>
<feBlend mode="normal" in="SourceGraphic" in2="effect1_dropShadow" result="shape"/>
</filter>
<linearGradient id="paint0_linear" x1="91.6089" y1="0.304329" x2="91.9795" y2="158.416" gradientUnits="userSpaceOnUse">
<stop stop-color="#5D5C5D"/>
<stop offset="0.15625" stop-color="#393939"/>
<stop offset="0.296875" stop-color="#2B292A"/>
<stop offset="0.507989" stop-color="#605E5F"/>
<stop offset="0.816305" stop-color="#262629"/>
<stop offset="1" stop-color="#1A1A1E"/>
</linearGradient>
<linearGradient id="paint1_linear" x1="61.1786" y1="0.863031" x2="61.1786" y2="158.975" gradientUnits="userSpaceOnUse">
<stop stop-color="white" stop-opacity="0.22"/>
<stop offset="0.484375" stop-color="white" stop-opacity="0.21"/>
<stop offset="0.510417" stop-color="white" stop-opacity="0"/>
</linearGradient>
<linearGradient id="paint2_linear" x1="94.2236" y1="0.0248494" x2="94.2236" y2="158.137" gradientUnits="userSpaceOnUse">
<stop offset="0.494767" stop-color="#2B292A"/>
<stop offset="0.712602" stop-color="#424041"/>
<stop offset="1" stop-color="#868585"/>
</linearGradient>
<linearGradient id="paint3_linear" x1="126.015" y1="23.3012" x2="96.5321" y2="141.32" gradientUnits="userSpaceOnUse">
<stop offset="0.494767" stop-color="#272626"/>
<stop offset="0.712602" stop-color="#424041"/>
<stop offset="1" stop-color="#868585"/>
</linearGradient>
<linearGradient id="paint4_linear" x1="136.838" y1="0.0248492" x2="65.273" y2="158.178" gradientUnits="userSpaceOnUse">
<stop offset="0.609375" stop-color="#838383"/>
<stop offset="0.788158" stop-color="#403E3F"/>
<stop offset="1" stop-color="#2C2A2B"/>
</linearGradient>
<linearGradient id="paint5_linear" x1="54.9266" y1="0.0248508" x2="86.8851" y2="49.1425" gradientUnits="userSpaceOnUse">
<stop stop-color="white" stop-opacity="0.4"/>
<stop offset="1" stop-color="white" stop-opacity="0"/>
</linearGradient>
<linearGradient id="paint6_linear" x1="112.011" y1="51.8548" x2="104.921" y2="114.847" gradientUnits="userSpaceOnUse">
<stop stop-color="#767676"/>
<stop offset="0.135417" stop-color="#606060"/>
<stop offset="0.630208" stop-color="#F8F8F8"/>
<stop offset="1" stop-color="#F8F8F8"/>
</linearGradient>
<linearGradient id="paint7_linear" x1="112.011" y1="51.8548" x2="104.921" y2="114.847" gradientUnits="userSpaceOnUse">
<stop stop-color="#767676"/>
<stop offset="0.135417" stop-color="#606060"/>
<stop offset="0.630208" stop-color="#F8F8F8"/>
<stop offset="1" stop-color="#F8F8F8"/>
</linearGradient>
<linearGradient id="paint8_linear" x1="112.011" y1="51.8548" x2="104.921" y2="114.847" gradientUnits="userSpaceOnUse">
<stop stop-color="#767676"/>
<stop offset="0.135417" stop-color="#606060"/>
<stop offset="0.630208" stop-color="#F8F8F8"/>
<stop offset="1" stop-color="#F8F8F8"/>
</linearGradient>
<linearGradient id="paint9_linear" x1="112.011" y1="51.8548" x2="104.921" y2="114.847" gradientUnits="userSpaceOnUse">
<stop stop-color="#767676"/>
<stop offset="0.135417" stop-color="#606060"/>
<stop offset="0.630208" stop-color="#F8F8F8"/>
<stop offset="1" stop-color="#F8F8F8"/>
</linearGradient>
<linearGradient id="paint10_linear" x1="115.5" y1="51.8699" x2="63.5608" y2="94.9063" gradientUnits="userSpaceOnUse">
<stop stop-color="#F8F8F8"/>
<stop offset="1" stop-color="#BEBEBE"/>
</linearGradient>
</defs>
</svg>
