<?xml version="1.0" encoding="utf-8"?>
<!-- Generator: Adobe Illustrator 25.0.1, SVG Export Plug-In . SVG Version: 6.00 Build 0)  -->
<svg version="1.1" id="Capa_1" xmlns="http://www.w3.org/2000/svg" xmlns:xlink="http://www.w3.org/1999/xlink" x="0px" y="0px"
	 viewBox="0 0 179 389" style="enable-background:new 0 0 179 389;" xml:space="preserve">
<style type="text/css">
	.st0{fill:url(#SVGID_1_);}
	.st1{fill:#FFFFFF;fill-opacity:0.1;}
	.st2{fill:url(#SVGID_2_);}
	.st3{fill:url(#SVGID_3_);fill-opacity:0.23;}
	.st4{fill-rule:evenodd;clip-rule:evenodd;fill:url(#SVGID_4_);}
	.st5{fill-rule:evenodd;clip-rule:evenodd;fill:url(#SVGID_5_);}
	.st6{fill:url(#SVGID_6_);}
	.st7{fill:url(#SVGID_7_);}
	.st8{fill:url(#SVGID_8_);}
	.st9{fill:url(#SVGID_9_);}
	.st10{fill-rule:evenodd;clip-rule:evenodd;fill:url(#SVGID_10_);}
	.st11{fill-rule:evenodd;clip-rule:evenodd;fill:url(#SVGID_11_);fill-opacity:0.55;}
	.st12{fill:url(#SVGID_12_);}
	.st13{fill:url(#SVGID_13_);}
	.st14{fill:url(#SVGID_14_);}
	.st15{fill:url(#SVGID_15_);}
	.st16{fill:url(#SVGID_16_);}
</style>
<linearGradient id="SVGID_1_" gradientUnits="userSpaceOnUse" x1="80.4035" y1="210.0825" x2="79.29" y2="94.5895" gradientTransform="matrix(1 0 0 -1 0 390)">
	<stop  offset="0" style="stop-color:#56D599"/>
	<stop  offset="0.1563" style="stop-color:#1EAD64"/>
	<stop  offset="0.5417" style="stop-color:#1EAE65"/>
	<stop  offset="0.75" style="stop-color:#57D69A"/>
	<stop  offset="0.9168" style="stop-color:#1EA65F"/>
	<stop  offset="1" style="stop-color:#178E4E"/>
</linearGradient>
<path class="st0" d="M122.8,193.7l-27.9-13.5c-0.6-0.2-15.1-0.2-15.7,0l-41.9,13.5c-1.3,0.4-2.2,1.7-2.2,3.2v49.6
	c0,6.5,2.4,13.1,7.2,19.6c3.7,5,8.7,10.1,15,15c10.6,8.3,21.1,13.3,21.5,13.6c0.4,0.2,13.8,0.3,14.3,0.3c0.4,0,0.9-0.1,1.3-0.3
	c0.4-0.2-2.1-5.3,8.5-13.6c6.3-4.9,11.4-10,15-15c4.8-6.6,7.2-13.2,7.2-19.6v-49.6C125,195.4,124.1,194.1,122.8,193.7z"/>
<path class="st1" d="M122.8,193.7l-27.9-13.5c-0.6-0.2-15.1-0.2-15.7,0l-41.9,13.5c-1.3,0.4-2.2,1.7-2.2,3.2v49.6
	c0,6.5,2.4,13.1,7.2,19.6c3.7,5,8.7,10.1,15,15c10.6,8.3,21.1,13.3,21.5,13.6c0.4,0.2,13.8,0.3,14.3,0.3c0.4,0,0.9-0.1,1.3-0.3
	c0.4-0.2-2.1-5.3,8.5-13.6c6.3-4.9,11.4-10,15-15c4.8-6.6,7.2-13.2,7.2-19.6v-49.6C125,195.4,124.1,194.1,122.8,193.7z"/>
<linearGradient id="SVGID_2_" gradientUnits="userSpaceOnUse" x1="94" y1="209.9998" x2="94" y2="95" gradientTransform="matrix(1 0 0 -1 0 390)">
	<stop  offset="0" style="stop-color:#1FA05B"/>
	<stop  offset="0.5692" style="stop-color:#1DB369"/>
	<stop  offset="1" style="stop-color:#62DDA3"/>
</linearGradient>
<path class="st2" d="M136.8,193.7l-41.9-13.5c-0.6-0.2-1.2-0.2-1.8,0l-41.9,13.5c-1.3,0.4-2.2,1.7-2.2,3.2v49.6
	c0,6.5,2.4,13.1,7.2,19.6c3.7,5,8.7,10.1,15,15c10.6,8.3,21.1,13.3,21.5,13.6c0.4,0.2,0.8,0.3,1.3,0.3c0.4,0,0.9-0.1,1.3-0.3
	c0.4-0.2,10.9-5.3,21.5-13.6c6.3-4.9,11.4-10,15-15c4.8-6.6,7.2-13.2,7.2-19.6v-49.6C139,195.4,138.1,194.1,136.8,193.7z"/>
<linearGradient id="SVGID_3_" gradientUnits="userSpaceOnUse" x1="56" y1="152.4999" x2="135.5" y2="152.4999" gradientTransform="matrix(1 0 0 -1 0 390)">
	<stop  offset="0.4791" style="stop-color:#FFFFFF;stop-opacity:0"/>
	<stop  offset="0.4792" style="stop-color:#FFFFFF"/>
	<stop  offset="1" style="stop-color:#FFFFFF;stop-opacity:0"/>
</linearGradient>
<path class="st3" d="M136.8,193.7l-41.9-13.5c-0.6-0.2-1.2-0.2-1.8,0l-41.9,13.5c-1.3,0.4-2.2,1.7-2.2,3.2v49.6
	c0,6.5,2.4,13.1,7.2,19.6c3.7,5,8.7,10.1,15,15c10.6,8.3,21.1,13.3,21.5,13.6c0.4,0.2,0.8,0.3,1.3,0.3c0.4,0,0.9-0.1,1.3-0.3
	c0.4-0.2,10.9-5.3,21.5-13.6c6.3-4.9,11.4-10,15-15c4.8-6.6,7.2-13.2,7.2-19.6v-49.6C139,195.4,138.1,194.1,136.8,193.7z"/>
<linearGradient id="SVGID_4_" gradientUnits="userSpaceOnUse" x1="123.5231" y1="198.233" x2="46.7074" y2="107.283" gradientTransform="matrix(1 0 0 -1 0 390)">
	<stop  offset="0.2176" style="stop-color:#20B56C"/>
	<stop  offset="0.8779" style="stop-color:#B2F5D4"/>
	<stop  offset="1" style="stop-color:#1FA25D"/>
</linearGradient>
<path class="st4" d="M56.2,266.2c-4.8-6.6-7.2-13.2-7.2-19.6v-49.6c0-1.5,0.9-2.8,2.2-3.2l41.9-13.5c0.6-0.2,1.2-0.2,1.8,0
	l41.9,13.5c1.3,0.4,2.2,1.7,2.2,3.2v49.6c0,6.5-2.4,13.1-7.2,19.6c-3.7,5-8.7,10.1-15,15c-10.6,8.3-21.1,13.3-21.5,13.6
	c-0.4,0.2-0.8,0.3-1.3,0.3c-0.4,0-0.9-0.1-1.3-0.3c-0.4-0.2-10.9-5.3-21.5-13.6C64.9,276.2,59.9,271.2,56.2,266.2z M73.7,278
	c9.1,7.1,18.2,11.8,20.3,12.9c2.1-1.1,11.2-5.8,20.3-12.9c6.1-4.8,10.9-9.5,14.2-14.2c4.4-6.1,6.4-11.9,6.4-17.3v-49.2l-41-13.3
	l-41,13.3v49.2c0,5.4,2,11.2,6.4,17.3C62.8,268.5,67.6,273.2,73.7,278z M52.5,197.5L52.5,197.5L52.5,197.5z M93.7,183.9L93.7,183.9
	L93.7,183.9 M93.7,183.9C93.7,183.9,93.7,183.9,93.7,183.9L93.7,183.9z M135.5,197.5L135.5,197.5L135.5,197.5z"/>
<linearGradient id="SVGID_5_" gradientUnits="userSpaceOnUse" x1="59.2644" y1="204.6229" x2="98.9127" y2="157.4589" gradientTransform="matrix(1 0 0 -1 0 390)">
	<stop  offset="0" style="stop-color:#FFFFFF;stop-opacity:0.4"/>
	<stop  offset="1" style="stop-color:#FFFFFF;stop-opacity:0"/>
</linearGradient>
<path class="st5" d="M56.2,266.2c-4.8-6.6-7.2-13.2-7.2-19.6v-49.6c0-1.5,0.9-2.8,2.2-3.2l41.9-13.5c0.6-0.2,1.2-0.2,1.8,0
	l41.9,13.5c1.3,0.4,2.2,1.7,2.2,3.2v49.6c0,6.5-2.4,13.1-7.2,19.6c-3.7,5-8.7,10.1-15,15c-10.6,8.3-21.1,13.3-21.5,13.6
	c-0.4,0.2-0.8,0.3-1.3,0.3c-0.4,0-0.9-0.1-1.3-0.3c-0.4-0.2-10.9-5.3-21.5-13.6C64.9,276.2,59.9,271.2,56.2,266.2z M73.7,278
	c9.1,7.1,18.2,11.8,20.3,12.9c2.1-1.1,11.2-5.8,20.3-12.9c6.1-4.8,10.9-9.5,14.2-14.2c4.4-6.1,6.4-11.9,6.4-17.3v-49.2l-41-13.3
	l-41,13.3v49.2c0,5.4,2,11.2,6.4,17.3C62.8,268.5,67.6,273.2,73.7,278z M52.5,197.5L52.5,197.5L52.5,197.5z M93.7,183.9L93.7,183.9
	L93.7,183.9 M93.7,183.9C93.7,183.9,93.7,183.9,93.7,183.9L93.7,183.9z M135.5,197.5L135.5,197.5L135.5,197.5z"/>
<linearGradient id="SVGID_6_" gradientUnits="userSpaceOnUse" x1="80.096" y1="389.298" x2="80.4669" y2="231.0298" gradientTransform="matrix(1 0 0 -1 0 390)">
	<stop  offset="0" style="stop-color:#5D5C5D"/>
	<stop  offset="0.1563" style="stop-color:#393939"/>
	<stop  offset="0.2969" style="stop-color:#2B292A"/>
	<stop  offset="0.508" style="stop-color:#605E5F"/>
	<stop  offset="0.8163" style="stop-color:#262629"/>
	<stop  offset="1" style="stop-color:#1A1A1E"/>
</linearGradient>
<path class="st6" d="M122,6.5l35.9,68c1.1,2,1.6,3,1.8,4.1c0.2,0.9,0.2,1.9,0,2.9c-0.2,1.1-0.7,2.1-1.8,4.1l-35.9,68
	c-1.1,2-1.6,3-2.3,3.8c-0.7,0.6-1.4,1.1-2.3,1.4c-1,0.3-2,0.3-4.1,0.3h-66c-2.1,0-3.2,0-4.1-0.3c-0.8-0.3-1.6-0.8-2.3-1.4
	c-0.7-0.7-1.3-1.7-2.3-3.8l-35.9-68l0,0c-1.1-2-1.6-3-1.8-4.1c-0.2-0.9-0.2-1.9,0-2.9c0.2-1.1,0.7-2.1,1.8-4.1l35.9-68
	c1.1-2,1.6-3,2.3-3.8c0.7-0.6,1.4-1.1,2.3-1.4c1-0.3,2-0.3,4.1-0.3l66,0c2.1,0,3.2,0,4.1,0.3c0.8,0.3,1.6,0.8,2.3,1.4
	C120.4,3.5,121,4.5,122,6.5z"/>
<linearGradient id="SVGID_7_" gradientUnits="userSpaceOnUse" x1="80.2818" y1="388.7678" x2="80.2818" y2="230.6556" gradientTransform="matrix(1 0 0 -1 0 390)">
	<stop  offset="0" style="stop-color:#FFFFFF;stop-opacity:0.22"/>
	<stop  offset="0.4844" style="stop-color:#FFFFFF;stop-opacity:0.21"/>
	<stop  offset="0.5104" style="stop-color:#FFFFFF;stop-opacity:0"/>
</linearGradient>
<path class="st7" d="M122,6.5l35.9,68c1.1,2,1.6,3,1.8,4.1c0.2,0.9,0.2,1.9,0,2.9c-0.2,1.1-0.7,2.1-1.8,4.1l-35.9,68
	c-1.1,2-1.6,3-2.3,3.8c-0.7,0.6-1.4,1.1-2.3,1.4c-1,0.3-2,0.3-4.1,0.3h-66c-2.1,0-3.2,0-4.1-0.3c-0.8-0.3-1.6-0.8-2.3-1.4
	c-0.7-0.7-1.3-1.7-2.3-3.8l-35.9-68l0,0c-1.1-2-1.6-3-1.8-4.1c-0.2-0.9-0.2-1.9,0-2.9c0.2-1.1,0.7-2.1,1.8-4.1l35.9-68
	c1.1-2,1.6-3,2.3-3.8c0.7-0.6,1.4-1.1,2.3-1.4c1-0.3,2-0.3,4.1-0.3l66,0c2.1,0,3.2,0,4.1,0.3c0.8,0.3,1.6,0.8,2.3,1.4
	C120.4,3.5,121,4.5,122,6.5z"/>
<linearGradient id="SVGID_8_" gradientUnits="userSpaceOnUse" x1="98.7172" y1="389.606" x2="98.7172" y2="231.4933" gradientTransform="matrix(1 0 0 -1 0 390)">
	<stop  offset="0.4948" style="stop-color:#2B292A"/>
	<stop  offset="0.7126" style="stop-color:#424041"/>
	<stop  offset="1" style="stop-color:#868585"/>
</linearGradient>
<path class="st8" d="M140.5,6.2l35.9,68c1.1,2,1.6,3,1.8,4.1c0.2,0.9,0.2,1.9,0,2.9c-0.2,1.1-0.7,2.1-1.8,4.1l-35.9,68
	c-1.1,2-1.6,3-2.3,3.8c-0.7,0.6-1.4,1.1-2.3,1.4c-1,0.3-2,0.3-4.1,0.3h-66c-2.1,0-3.2,0-4.1-0.3c-0.8-0.3-1.6-0.8-2.3-1.4
	c-0.7-0.7-1.3-1.7-2.3-3.8L21,85.3l0,0c-1.1-2-1.6-3-1.8-4.1c-0.2-0.9-0.2-1.9,0-2.9c0.2-1.1,0.7-2.1,1.8-4.1L57,6.2
	c1.1-2,1.6-3,2.3-3.8C60,1.8,60.7,1.3,61.6,1c1-0.3,2-0.3,4.1-0.3l66,0c2.1,0,3.2,0,4.1,0.3c0.8,0.3,1.6,0.8,2.3,1.4
	C138.9,3.2,139.4,4.2,140.5,6.2z"/>
<linearGradient id="SVGID_9_" gradientUnits="userSpaceOnUse" x1="114.1809" y1="369.1723" x2="84.6976" y2="251.1538" gradientTransform="matrix(1 0 0 -1 0 390)">
	<stop  offset="0.4948" style="stop-color:#272626"/>
	<stop  offset="0.7126" style="stop-color:#424041"/>
	<stop  offset="1" style="stop-color:#868585"/>
</linearGradient>
<path class="st9" d="M130,27.8l26.9,50.8c0.8,1.5,1.2,2.3,1.4,3.1c0.1,0.7,0.1,1.4,0,2.2c-0.2,0.8-0.6,1.6-1.4,3.1L130,137.7
	c-0.8,1.5-1.2,2.3-1.8,2.8c-0.5,0.5-1.1,0.8-1.7,1.1c-0.7,0.3-1.5,0.3-3.1,0.3H74c-1.6,0-2.4,0-3.1-0.3c-0.6-0.2-1.2-0.6-1.7-1.1
	c-0.6-0.5-1-1.3-1.8-2.8L40.6,86.9l0,0c-0.8-1.5-1.2-2.3-1.4-3.1c-0.1-0.7-0.1-1.4,0-2.2c0.2-0.8,0.6-1.6,1.4-3.1l26.9-50.8
	c0.8-1.5,1.2-2.3,1.8-2.8c0.5-0.5,1.1-0.8,1.7-1.1c0.7-0.3,1.5-0.3,3.1-0.3h49.4c1.6,0,2.4,0,3.1,0.3c0.6,0.2,1.2,0.6,1.7,1.1
	C128.8,25.5,129.2,26.3,130,27.8z"/>
<linearGradient id="SVGID_10_" gradientUnits="userSpaceOnUse" x1="135.1077" y1="390.6903" x2="63.5427" y2="232.5374" gradientTransform="matrix(1 0 0 -1 0 390)">
	<stop  offset="0.6094" style="stop-color:#838383"/>
	<stop  offset="0.7882" style="stop-color:#403E3F"/>
	<stop  offset="1" style="stop-color:#2C2A2B"/>
</linearGradient>
<path class="st10" d="M21,85.3L21,85.3l35.9,68c1.1,2,1.6,3,2.3,3.8c0.7,0.6,1.4,1.1,2.3,1.4c1,0.3,2,0.3,4.1,0.3h66
	c2.1,0,3.2,0,4.1-0.3c0.8-0.3,1.6-0.8,2.3-1.4c0.7-0.7,1.3-1.7,2.3-3.8l35.9-68c1.1-2,1.6-3,1.8-4.1c0.2-0.9,0.2-1.9,0-2.9
	c-0.2-1.1-0.7-2.1-1.8-4.1l-35.9-68c-1.1-2-1.6-3-2.3-3.8c-0.7-0.6-1.4-1.1-2.3-1.4c-1-0.3-2-0.3-4.1-0.3l-66,0
	c-2.1,0-3.2,0-4.1,0.3c-0.8,0.3-1.6,0.8-2.3,1.4C58.6,3.2,58,4.2,57,6.2L21,74.2l0,0c-1.1,2-1.6,3-1.8,4.1c-0.2,0.9-0.2,1.9,0,2.9
	C19.4,82.2,20,83.3,21,85.3z M62.4,5.6c-0.1,0.1-0.3,0.4-1.5,2.7L25,76.3c-1.2,2.3-1.3,2.6-1.4,2.9c-0.1,0.4-0.1,0.8,0,1.2
	c0.1,0.3,0.2,0.6,1.4,2.9l0,0l0,0l0,0l35.9,68c1.2,2.3,1.4,2.5,1.5,2.7c0.2,0.2,0.4,0.3,0.6,0.4c0,0,0.2,0,0.4,0c0.5,0,1.1,0,2.2,0
	h66c1.1,0,1.7,0,2.2,0c0.3,0,0.4,0,0.4,0c0.2-0.1,0.4-0.2,0.6-0.4c0.1-0.1,0.3-0.4,1.5-2.7l35.9-68c1.2-2.3,1.3-2.6,1.4-2.9l4.4,0.9
	l-4.4-0.9c0.1-0.4,0.1-0.8,0-1.2c-0.1-0.3-0.2-0.6-1.4-2.9l4-2.1l-4,2.1l-35.9-68c-1.2-2.3-1.4-2.5-1.5-2.7
	c-0.2-0.2-0.4-0.3-0.6-0.4c0,0-0.2,0-0.4,0c-0.5,0-1.1,0-2.2,0h-66c-1.1,0-1.7,0-2.2,0c-0.3,0-0.4,0-0.4,0
	C62.9,5.3,62.7,5.4,62.4,5.6z M63.1,5.2C63.1,5.2,63.1,5.2,63.1,5.2C63.1,5.2,63.1,5.2,63.1,5.2z M134.4,5.2
	C134.4,5.2,134.4,5.2,134.4,5.2C134.4,5.2,134.4,5.2,134.4,5.2z M134.4,154.2C134.4,154.2,134.4,154.2,134.4,154.2
	C134.4,154.2,134.4,154.2,134.4,154.2z"/>
<linearGradient id="SVGID_11_" gradientUnits="userSpaceOnUse" x1="49.6242" y1="385.7227" x2="81.5827" y2="336.605" gradientTransform="matrix(1 0 0 -1 0 390)">
	<stop  offset="0" style="stop-color:#FFFFFF;stop-opacity:0.4"/>
	<stop  offset="1" style="stop-color:#FFFFFF;stop-opacity:0"/>
</linearGradient>
<path class="st11" d="M21,85.3L21,85.3l35.9,68c1.1,2,1.6,3,2.3,3.8c0.7,0.6,1.4,1.1,2.3,1.4c1,0.3,2,0.3,4.1,0.3h66
	c2.1,0,3.2,0,4.1-0.3c0.8-0.3,1.6-0.8,2.3-1.4c0.7-0.7,1.3-1.7,2.3-3.8l35.9-68c1.1-2,1.6-3,1.8-4.1c0.2-0.9,0.2-1.9,0-2.9
	c-0.2-1.1-0.7-2.1-1.8-4.1l-35.9-68c-1.1-2-1.6-3-2.3-3.8c-0.7-0.6-1.4-1.1-2.3-1.4c-1-0.3-2-0.3-4.1-0.3l-66,0
	c-2.1,0-3.2,0-4.1,0.3c-0.8,0.3-1.6,0.8-2.3,1.4C58.6,3.2,58,4.2,57,6.2L21,74.2l0,0c-1.1,2-1.6,3-1.8,4.1c-0.2,0.9-0.2,1.9,0,2.9
	C19.4,82.2,20,83.3,21,85.3z M62.4,5.6c-0.1,0.1-0.3,0.4-1.5,2.7L25,76.3c-1.2,2.3-1.3,2.6-1.4,2.9c-0.1,0.4-0.1,0.8,0,1.2
	c0.1,0.3,0.2,0.6,1.4,2.9l0,0l0,0l0,0l35.9,68c1.2,2.3,1.4,2.5,1.5,2.7c0.2,0.2,0.4,0.3,0.6,0.4c0,0,0.2,0,0.4,0c0.5,0,1.1,0,2.2,0
	h66c1.1,0,1.7,0,2.2,0c0.3,0,0.4,0,0.4,0c0.2-0.1,0.4-0.2,0.6-0.4c0.1-0.1,0.3-0.4,1.5-2.7l35.9-68c1.2-2.3,1.3-2.6,1.4-2.9l4.4,0.9
	l-4.4-0.9c0.1-0.4,0.1-0.8,0-1.2c-0.1-0.3-0.2-0.6-1.4-2.9l4-2.1l-4,2.1l-35.9-68c-1.2-2.3-1.4-2.5-1.5-2.7
	c-0.2-0.2-0.4-0.3-0.6-0.4c0,0-0.2,0-0.4,0c-0.5,0-1.1,0-2.2,0h-66c-1.1,0-1.7,0-2.2,0c-0.3,0-0.4,0-0.4,0
	C62.9,5.3,62.7,5.4,62.4,5.6z M63.1,5.2C63.1,5.2,63.1,5.2,63.1,5.2C63.1,5.2,63.1,5.2,63.1,5.2z M134.4,5.2
	C134.4,5.2,134.4,5.2,134.4,5.2C134.4,5.2,134.4,5.2,134.4,5.2z M134.4,154.2C134.4,154.2,134.4,154.2,134.4,154.2
	C134.4,154.2,134.4,154.2,134.4,154.2z"/>
<g>
	
		<linearGradient id="SVGID_12_" gradientUnits="userSpaceOnUse" x1="102.5692" y1="340.7321" x2="95.4792" y2="277.7401" gradientTransform="matrix(1 0 0 -1 0 390)">
		<stop  offset="0" style="stop-color:#767676"/>
		<stop  offset="0.1354" style="stop-color:#606060"/>
		<stop  offset="0.6302" style="stop-color:#F8F8F8"/>
		<stop  offset="1" style="stop-color:#F8F8F8"/>
	</linearGradient>
	<path class="st12" d="M86.2,86.2c-2.4-3.9-3.9-8.6-3.9-13.6c0-13.5,10.2-24.5,22.8-24.5c12.6,0,22.8,11,22.8,24.5
		S117.8,97,105.2,97c-4.8,0-9.3-1.6-12.9-4.3l-18.2,19.4l-6.1-6.5L86.2,86.2z M105.2,90.2c9,0,16.4-7.9,16.4-17.5
		s-7.3-17.5-16.4-17.5c-9,0-16.4,7.9-16.4,17.5C88.8,82.3,96.1,90.2,105.2,90.2z"/>
	
		<linearGradient id="SVGID_13_" gradientUnits="userSpaceOnUse" x1="101.5817" y1="340.8432" x2="94.4917" y2="277.8512" gradientTransform="matrix(1 0 0 -1 0 390)">
		<stop  offset="0" style="stop-color:#767676"/>
		<stop  offset="0.1354" style="stop-color:#606060"/>
		<stop  offset="0.6302" style="stop-color:#F8F8F8"/>
		<stop  offset="1" style="stop-color:#F8F8F8"/>
	</linearGradient>
	<path class="st13" d="M85.2,86.2c-2.4-3.9-3.9-8.6-3.9-13.6c0-13.5,10.2-24.5,22.8-24.5c12.6,0,22.8,11,22.8,24.5
		S116.8,97,104.2,97c-4.8,0-9.3-1.6-12.9-4.3l-18.2,19.4l-6.1-6.5L85.2,86.2z M104.2,90.2c9,0,16.4-7.9,16.4-17.5
		s-7.3-17.5-16.4-17.5c-9,0-16.4,7.9-16.4,17.5C87.8,82.3,95.1,90.2,104.2,90.2z"/>
	
		<linearGradient id="SVGID_14_" gradientUnits="userSpaceOnUse" x1="100.5942" y1="340.9543" x2="93.5042" y2="277.9623" gradientTransform="matrix(1 0 0 -1 0 390)">
		<stop  offset="0" style="stop-color:#767676"/>
		<stop  offset="0.1354" style="stop-color:#606060"/>
		<stop  offset="0.6302" style="stop-color:#F8F8F8"/>
		<stop  offset="1" style="stop-color:#F8F8F8"/>
	</linearGradient>
	<path class="st14" d="M84.2,86.2c-2.4-3.9-3.9-8.6-3.9-13.6c0-13.5,10.2-24.5,22.8-24.5c12.6,0,22.8,11,22.8,24.5
		S115.8,97,103.2,97c-4.8,0-9.3-1.6-12.9-4.3l-18.2,19.4l-6.1-6.5L84.2,86.2z M103.2,90.2c9,0,16.4-7.9,16.4-17.5
		s-7.3-17.5-16.4-17.5c-9,0-16.4,7.9-16.4,17.5C86.8,82.3,94.1,90.2,103.2,90.2z"/>
	
		<linearGradient id="SVGID_15_" gradientUnits="userSpaceOnUse" x1="99.6067" y1="341.0655" x2="92.5167" y2="278.0735" gradientTransform="matrix(1 0 0 -1 0 390)">
		<stop  offset="0" style="stop-color:#767676"/>
		<stop  offset="0.1354" style="stop-color:#606060"/>
		<stop  offset="0.6302" style="stop-color:#F8F8F8"/>
		<stop  offset="1" style="stop-color:#F8F8F8"/>
	</linearGradient>
	<path class="st15" d="M83.2,86.2c-2.4-3.9-3.9-8.6-3.9-13.6c0-13.5,10.2-24.5,22.8-24.5c12.6,0,22.8,11,22.8,24.5
		S114.8,97,102.2,97c-4.8,0-9.3-1.6-12.9-4.3l-18.2,19.4l-6.1-6.5L83.2,86.2z M102.2,90.2c9,0,16.4-7.9,16.4-17.5
		s-7.3-17.5-16.4-17.5c-9,0-16.4,7.9-16.4,17.5C85.8,82.3,93.1,90.2,102.2,90.2z"/>
</g>
<linearGradient id="SVGID_16_" gradientUnits="userSpaceOnUse" x1="121.0198" y1="329.7096" x2="69.0806" y2="286.6732" gradientTransform="matrix(1 0 0 -1 0 390)">
	<stop  offset="0" style="stop-color:#F8F8F8"/>
	<stop  offset="1" style="stop-color:#BEBEBE"/>
</linearGradient>
<path class="st16" d="M87.2,86.2c-2.4-3.9-3.9-8.6-3.9-13.6c0-13.5,10.2-24.5,22.8-24.5c12.6,0,22.8,11,22.8,24.5S118.8,97,106.2,97
	c-4.8,0-9.3-1.6-12.9-4.3l-18.2,19.4l-6.1-6.5L87.2,86.2z M106.2,90.2c9,0,16.4-7.9,16.4-17.5s-7.3-17.5-16.4-17.5
	c-9,0-16.4,7.9-16.4,17.5C89.8,82.3,97.1,90.2,106.2,90.2z"/>
</svg>
