<?xml version="1.0" encoding="utf-8"?>
<!-- Generator: Adobe Illustrator 25.0.1, SVG Export Plug-In . SVG Version: 6.00 Build 0)  -->
<svg version="1.1" id="Capa_1" xmlns="http://www.w3.org/2000/svg" xmlns:xlink="http://www.w3.org/1999/xlink" x="0px" y="0px"
	 viewBox="0 0 845 701" style="enable-background:new 0 0 845 701;" xml:space="preserve">
<style type="text/css">
	.st0{fill:none;stroke:#1CBA6E;stroke-width:2;}
	.st1{fill:url(#SVGID_1_);}
	.st2{fill:#FFFFFF;}
	.st3{fill:none;stroke:#1EA760;stroke-width:2;stroke-linecap:round;stroke-linejoin:round;stroke-dasharray:4,10;}
	.st4{fill:url(#SVGID_2_);}
	.st5{fill:#FFFFFF;fill-opacity:0.1;}
	.st6{fill:url(#SVGID_3_);}
	.st7{fill:url(#SVGID_4_);fill-opacity:0.23;}
	.st8{fill-rule:evenodd;clip-rule:evenodd;fill:url(#SVGID_5_);}
	.st9{fill-rule:evenodd;clip-rule:evenodd;fill:url(#SVGID_6_);}
	.st10{fill:url(#SVGID_7_);}
	.st11{fill:url(#SVGID_8_);}
	.st12{fill:url(#SVGID_9_);}
	.st13{fill:url(#SVGID_10_);}
	.st14{fill-rule:evenodd;clip-rule:evenodd;fill:url(#SVGID_11_);}
	.st15{fill-rule:evenodd;clip-rule:evenodd;fill:url(#SVGID_12_);fill-opacity:0.55;}
	.st16{fill:url(#SVGID_13_);}
	.st17{fill:url(#SVGID_14_);}
	.st18{fill:url(#SVGID_15_);}
	.st19{fill:url(#SVGID_16_);}
	.st20{fill:url(#SVGID_17_);}
	.st21{fill:url(#SVGID_18_);}
	.st22{fill:url(#SVGID_19_);}
	.st23{fill:url(#SVGID_20_);}
	.st24{fill:url(#SVGID_21_);}
	.st25{fill-rule:evenodd;clip-rule:evenodd;fill:url(#SVGID_22_);}
	.st26{fill-rule:evenodd;clip-rule:evenodd;fill:url(#SVGID_23_);fill-opacity:0.55;}
	.st27{fill:url(#SVGID_24_);}
	.st28{fill:url(#SVGID_25_);}
	.st29{fill:url(#SVGID_26_);}
	.st30{fill:url(#SVGID_27_);}
	.st31{fill:url(#SVGID_28_);}
	.st32{fill:url(#SVGID_29_);}
	.st33{fill:url(#SVGID_30_);}
	.st34{fill:url(#SVGID_31_);}
	.st35{fill:url(#SVGID_32_);}
	.st36{fill-rule:evenodd;clip-rule:evenodd;fill:url(#SVGID_33_);}
	.st37{fill-rule:evenodd;clip-rule:evenodd;fill:url(#SVGID_34_);fill-opacity:0.55;}
	.st38{fill:url(#SVGID_35_);}
	.st39{fill:url(#SVGID_36_);}
	.st40{fill:url(#SVGID_37_);}
	.st41{fill:url(#SVGID_38_);}
	.st42{fill:url(#SVGID_39_);}
	.st43{fill:url(#SVGID_40_);}
	.st44{fill:url(#SVGID_41_);}
	.st45{fill:url(#SVGID_42_);}
	.st46{fill:url(#SVGID_43_);}
	.st47{fill-rule:evenodd;clip-rule:evenodd;fill:url(#SVGID_44_);}
	.st48{fill-rule:evenodd;clip-rule:evenodd;fill:url(#SVGID_45_);fill-opacity:0.55;}
	.st49{fill:url(#SVGID_46_);}
	.st50{fill:url(#SVGID_47_);}
	.st51{fill:url(#SVGID_48_);}
	.st52{fill:url(#SVGID_49_);}
	.st53{fill:url(#SVGID_50_);}
</style>
<path class="st0" d="M728.6,520.1L728.6,520.1l102.6-177.7c4.7-8.2,7-12.1,7.9-16.3c0.8-3.7,0.8-7.5,0-11.2
	c-0.9-4.1-3.1-8.1-7.9-16.3L728.6,120.9c-4.7-8.2-7-12.1-10.2-15c-2.8-2.5-6.1-4.4-9.7-5.6c-4-1.3-8.6-1.3-18-1.3H483.3
	c-9.5,0-14,0-18,1.3c-3.6,1.2-6.9,3.1-9.7,5.6c-3.1,2.8-5.4,6.7-10.2,15L342.8,298.6c-4.7,8.2-7,12.1-7.9,16.3
	c-0.8,3.7-0.8,7.5,0,11.2c0.9,4.1,3.1,8.1,7.9,16.3l102.6,177.7c4.7,8.2,7,12.1,10.2,15c2.8,2.5,6.1,4.4,9.7,5.6
	c4,1.3,8.6,1.3,18,1.3h207.4c9.5,0,14,0,18-1.3c3.6-1.2,6.9-3.1,9.7-5.6C721.6,532.2,723.9,528.3,728.6,520.1z"/>
<g>
	
		<linearGradient id="SVGID_1_" gradientUnits="userSpaceOnUse" x1="679.3835" y1="390.772" x2="280.0095" y2="358.7539" gradientTransform="matrix(1 0 0 -1 0 702)">
		<stop  offset="0" style="stop-color:#FFDC67"/>
		<stop  offset="1" style="stop-color:#F0B90B"/>
	</linearGradient>
	<path class="st1" d="M678.3,489.7L763,343.5c4.7-8.2,7.1-12.3,8-16.6c0.8-3.8,0.8-7.8,0-11.7c-0.9-4.4-3.3-8.4-8-16.6l-84.7-146.2
		c-4.7-8.1-7.1-12.2-10.4-15.2c-2.9-2.6-6.3-4.6-10.1-5.8c-4.2-1.4-8.9-1.4-18.3-1.4h-164c-9.4,0-14.1,0-18.3,1.4
		c-3.7,1.2-7.2,3.2-10.1,5.8c-3.3,3-5.7,7-10.4,15.2L352,298.5c-4.7,8.2-7.1,12.3-8,16.6c-0.8,3.8-0.8,7.8,0,11.7
		c0.9,4.4,3.3,8.4,8,16.6l84.7,146.2c4.7,8.1,7.1,12.2,10.4,15.2c2.9,2.6,6.3,4.6,10.1,5.8c4.2,1.4,8.9,1.4,18.3,1.4h164
		c9.4,0,14.1,0,18.3-1.4c3.7-1.2,7.2-3.2,10.1-5.8C671.2,501.9,673.5,497.8,678.3,489.7L678.3,489.7z"/>
</g>
<g>
	<path class="st2" d="M549.1,548.6L668,342.9c4.7-8.2,7.1-12.3,8-16.6c0.8-3.8,0.8-7.8,0-11.7c-0.9-4.3-3.3-8.4-8-16.6L549.1,92.4v0
		c-4.7-8.2-7.1-12.2-10.4-15.2c-2.9-2.6-6.3-4.6-10.1-5.8c-4.2-1.4-8.9-1.4-18.3-1.4H266.6c-9.4,0-14.1,0-18.3,1.4
		c-3.7,1.2-7.2,3.2-10.1,5.8c-3.3,3-5.7,7-10.4,15.2L109,298.1c-4.7,8.2-7.1,12.3-8,16.6c-0.8,3.8-0.8,7.8,0,11.7
		c0.9,4.3,3.3,8.4,8,16.6l118.9,205.7c4.7,8.2,7.1,12.2,10.4,15.2c2.9,2.6,6.3,4.6,10.1,5.8c4.2,1.4,8.9,1.4,18.3,1.4l243.7,0
		c9.4,0,14.1,0,18.3-1.4c3.7-1.2,7.2-3.2,10.1-5.8C542.1,560.8,544.4,556.8,549.1,548.6z"/>
</g>
<ellipse class="st3" cx="514" cy="320" rx="174" ry="179"/>
<linearGradient id="SVGID_2_" gradientUnits="userSpaceOnUse" x1="501.4037" y1="440.0825" x2="500.2896" y2="324.5896" gradientTransform="matrix(1 0 0 -1 0 702)">
	<stop  offset="0" style="stop-color:#56D599"/>
	<stop  offset="0.1563" style="stop-color:#1EAD64"/>
	<stop  offset="0.5417" style="stop-color:#1EAE65"/>
	<stop  offset="0.75" style="stop-color:#57D69A"/>
	<stop  offset="0.9168" style="stop-color:#1EA65F"/>
	<stop  offset="1" style="stop-color:#178E4E"/>
</linearGradient>
<path class="st4" d="M543.8,275.7l-27.9-13.5c-0.6-0.2-15.1-0.2-15.7,0l-41.9,13.5c-1.3,0.4-2.2,1.7-2.2,3.2v49.6
	c0,6.5,2.4,13.1,7.2,19.6c3.7,5,8.7,10.1,15,15c10.6,8.3,21.1,13.3,21.5,13.6c0.4,0.2,13.8,0.3,14.3,0.3c0.4,0,0.9-0.1,1.3-0.3
	c0.4-0.2-2.1-5.3,8.5-13.6c6.3-4.9,11.4-10,15-15c4.8-6.6,7.2-13.2,7.2-19.6v-49.6C546,277.4,545.1,276.1,543.8,275.7z"/>
<path class="st5" d="M543.8,275.7l-27.9-13.5c-0.6-0.2-15.1-0.2-15.7,0l-41.9,13.5c-1.3,0.4-2.2,1.7-2.2,3.2v49.6
	c0,6.5,2.4,13.1,7.2,19.6c3.7,5,8.7,10.1,15,15c10.6,8.3,21.1,13.3,21.5,13.6c0.4,0.2,13.8,0.3,14.3,0.3c0.4,0,0.9-0.1,1.3-0.3
	c0.4-0.2-2.1-5.3,8.5-13.6c6.3-4.9,11.4-10,15-15c4.8-6.6,7.2-13.2,7.2-19.6v-49.6C546,277.4,545.1,276.1,543.8,275.7z"/>
<linearGradient id="SVGID_3_" gradientUnits="userSpaceOnUse" x1="515" y1="439.9998" x2="515" y2="325" gradientTransform="matrix(1 0 0 -1 0 702)">
	<stop  offset="0" style="stop-color:#1FA05B"/>
	<stop  offset="0.5692" style="stop-color:#1DB369"/>
	<stop  offset="1" style="stop-color:#62DDA3"/>
</linearGradient>
<path class="st6" d="M557.8,275.7l-41.9-13.5c-0.6-0.2-1.2-0.2-1.8,0l-41.9,13.5c-1.3,0.4-2.2,1.7-2.2,3.2v49.6
	c0,6.5,2.4,13.1,7.2,19.6c3.7,5,8.7,10.1,15,15c10.6,8.3,21.1,13.3,21.5,13.6c0.4,0.2,0.8,0.3,1.3,0.3c0.4,0,0.9-0.1,1.3-0.3
	c0.4-0.2,10.9-5.3,21.5-13.6c6.3-4.9,11.4-10,15-15c4.8-6.6,7.2-13.2,7.2-19.6v-49.6C560,277.4,559.1,276.1,557.8,275.7z"/>
<linearGradient id="SVGID_4_" gradientUnits="userSpaceOnUse" x1="477" y1="382.4999" x2="556.5" y2="382.4999" gradientTransform="matrix(1 0 0 -1 0 702)">
	<stop  offset="0.4791" style="stop-color:#FFFFFF;stop-opacity:0"/>
	<stop  offset="0.4792" style="stop-color:#FFFFFF"/>
	<stop  offset="1" style="stop-color:#FFFFFF;stop-opacity:0"/>
</linearGradient>
<path class="st7" d="M557.8,275.7l-41.9-13.5c-0.6-0.2-1.2-0.2-1.8,0l-41.9,13.5c-1.3,0.4-2.2,1.7-2.2,3.2v49.6
	c0,6.5,2.4,13.1,7.2,19.6c3.7,5,8.7,10.1,15,15c10.6,8.3,21.1,13.3,21.5,13.6c0.4,0.2,0.8,0.3,1.3,0.3c0.4,0,0.9-0.1,1.3-0.3
	c0.4-0.2,10.9-5.3,21.5-13.6c6.3-4.9,11.4-10,15-15c4.8-6.6,7.2-13.2,7.2-19.6v-49.6C560,277.4,559.1,276.1,557.8,275.7z"/>
<linearGradient id="SVGID_5_" gradientUnits="userSpaceOnUse" x1="544.5232" y1="428.2329" x2="467.7072" y2="337.2829" gradientTransform="matrix(1 0 0 -1 0 702)">
	<stop  offset="0.2176" style="stop-color:#20B56C"/>
	<stop  offset="0.8779" style="stop-color:#B2F5D4"/>
	<stop  offset="1" style="stop-color:#1FA25D"/>
</linearGradient>
<path class="st8" d="M477.2,348.2c-4.8-6.6-7.2-13.2-7.2-19.6v-49.6c0-1.5,0.9-2.8,2.2-3.2l41.9-13.5c0.6-0.2,1.2-0.2,1.8,0
	l41.9,13.5c1.3,0.4,2.2,1.7,2.2,3.2v49.6c0,6.5-2.4,13.1-7.2,19.6c-3.7,5-8.7,10.1-15,15c-10.6,8.3-21.1,13.3-21.5,13.6
	c-0.4,0.2-0.8,0.3-1.3,0.3c-0.4,0-0.9-0.1-1.3-0.3c-0.4-0.2-10.9-5.3-21.5-13.6C485.9,358.2,480.9,353.2,477.2,348.2z M494.7,360
	c9.1,7.1,18.2,11.8,20.3,12.9c2.1-1.1,11.2-5.8,20.3-12.9c6.1-4.8,10.9-9.5,14.2-14.2c4.4-6.1,6.4-11.9,6.4-17.3v-49.2l-41-13.3
	l-41,13.3v49.2c0,5.4,2,11.2,6.4,17.3C483.8,350.5,488.6,355.2,494.7,360z M473.5,279.5L473.5,279.5L473.5,279.5z M514.7,265.9
	L514.7,265.9L514.7,265.9 M514.7,265.9C514.7,265.9,514.7,265.9,514.7,265.9L514.7,265.9z M556.5,279.5L556.5,279.5L556.5,279.5z"/>
<linearGradient id="SVGID_6_" gradientUnits="userSpaceOnUse" x1="480.2648" y1="434.6231" x2="519.9127" y2="387.4591" gradientTransform="matrix(1 0 0 -1 0 702)">
	<stop  offset="0" style="stop-color:#FFFFFF;stop-opacity:0.4"/>
	<stop  offset="1" style="stop-color:#FFFFFF;stop-opacity:0"/>
</linearGradient>
<path class="st9" d="M477.2,348.2c-4.8-6.6-7.2-13.2-7.2-19.6v-49.6c0-1.5,0.9-2.8,2.2-3.2l41.9-13.5c0.6-0.2,1.2-0.2,1.8,0
	l41.9,13.5c1.3,0.4,2.2,1.7,2.2,3.2v49.6c0,6.5-2.4,13.1-7.2,19.6c-3.7,5-8.7,10.1-15,15c-10.6,8.3-21.1,13.3-21.5,13.6
	c-0.4,0.2-0.8,0.3-1.3,0.3c-0.4,0-0.9-0.1-1.3-0.3c-0.4-0.2-10.9-5.3-21.5-13.6C485.9,358.2,480.9,353.2,477.2,348.2z M494.7,360
	c9.1,7.1,18.2,11.8,20.3,12.9c2.1-1.1,11.2-5.8,20.3-12.9c6.1-4.8,10.9-9.5,14.2-14.2c4.4-6.1,6.4-11.9,6.4-17.3v-49.2l-41-13.3
	l-41,13.3v49.2c0,5.4,2,11.2,6.4,17.3C483.8,350.5,488.6,355.2,494.7,360z M473.5,279.5L473.5,279.5L473.5,279.5z M514.7,265.9
	L514.7,265.9L514.7,265.9 M514.7,265.9C514.7,265.9,514.7,265.9,514.7,265.9L514.7,265.9z M556.5,279.5L556.5,279.5L556.5,279.5z"/>
<linearGradient id="SVGID_7_" gradientUnits="userSpaceOnUse" x1="501.0958" y1="619.2979" x2="501.4671" y2="461.0295" gradientTransform="matrix(1 0 0 -1 0 702)">
	<stop  offset="0" style="stop-color:#5D5C5D"/>
	<stop  offset="0.1563" style="stop-color:#393939"/>
	<stop  offset="0.2969" style="stop-color:#2B292A"/>
	<stop  offset="0.508" style="stop-color:#605E5F"/>
	<stop  offset="0.8163" style="stop-color:#262629"/>
	<stop  offset="1" style="stop-color:#1A1A1E"/>
</linearGradient>
<path class="st10" d="M543,88.5l35.9,68c1.1,2,1.6,3,1.8,4.1c0.2,0.9,0.2,1.9,0,2.9c-0.2,1.1-0.7,2.1-1.8,4.1l-35.9,68
	c-1.1,2-1.6,3-2.3,3.8c-0.7,0.6-1.4,1.1-2.3,1.4c-1,0.3-2,0.3-4.1,0.3h-66c-2.1,0-3.2,0-4.1-0.3c-0.8-0.3-1.6-0.8-2.3-1.4
	c-0.7-0.7-1.3-1.7-2.3-3.8l-35.9-68h0c-1.1-2-1.6-3-1.8-4.1c-0.2-0.9-0.2-1.9,0-2.9c0.2-1.1,0.7-2.1,1.8-4.1l35.9-68
	c1.1-2,1.6-3,2.3-3.8c0.7-0.6,1.4-1.1,2.3-1.4c1-0.3,2-0.3,4.1-0.3h66c2.1,0,3.2,0,4.1,0.3c0.8,0.3,1.6,0.8,2.3,1.4
	C541.4,85.5,542,86.5,543,88.5z"/>
<linearGradient id="SVGID_8_" gradientUnits="userSpaceOnUse" x1="501.2819" y1="618.7678" x2="501.2819" y2="460.6556" gradientTransform="matrix(1 0 0 -1 0 702)">
	<stop  offset="0" style="stop-color:#FFFFFF;stop-opacity:0.22"/>
	<stop  offset="0.4844" style="stop-color:#FFFFFF;stop-opacity:0.21"/>
	<stop  offset="0.5104" style="stop-color:#FFFFFF;stop-opacity:0"/>
</linearGradient>
<path class="st11" d="M543,88.5l35.9,68c1.1,2,1.6,3,1.8,4.1c0.2,0.9,0.2,1.9,0,2.9c-0.2,1.1-0.7,2.1-1.8,4.1l-35.9,68
	c-1.1,2-1.6,3-2.3,3.8c-0.7,0.6-1.4,1.1-2.3,1.4c-1,0.3-2,0.3-4.1,0.3h-66c-2.1,0-3.2,0-4.1-0.3c-0.8-0.3-1.6-0.8-2.3-1.4
	c-0.7-0.7-1.3-1.7-2.3-3.8l-35.9-68h0c-1.1-2-1.6-3-1.8-4.1c-0.2-0.9-0.2-1.9,0-2.9c0.2-1.1,0.7-2.1,1.8-4.1l35.9-68
	c1.1-2,1.6-3,2.3-3.8c0.7-0.6,1.4-1.1,2.3-1.4c1-0.3,2-0.3,4.1-0.3h66c2.1,0,3.2,0,4.1,0.3c0.8,0.3,1.6,0.8,2.3,1.4
	C541.4,85.5,542,86.5,543,88.5z"/>
<linearGradient id="SVGID_9_" gradientUnits="userSpaceOnUse" x1="519.7171" y1="619.606" x2="519.7171" y2="461.4933" gradientTransform="matrix(1 0 0 -1 0 702)">
	<stop  offset="0.4948" style="stop-color:#2B292A"/>
	<stop  offset="0.7126" style="stop-color:#424041"/>
	<stop  offset="1" style="stop-color:#868585"/>
</linearGradient>
<path class="st12" d="M561.5,88.2l35.9,68c1.1,2,1.6,3,1.8,4.1c0.2,0.9,0.2,1.9,0,2.9c-0.2,1.1-0.7,2.1-1.8,4.1l-35.9,68
	c-1.1,2-1.6,3-2.3,3.8c-0.7,0.6-1.4,1.1-2.3,1.4c-1,0.3-2,0.3-4.1,0.3h-66c-2.1,0-3.2,0-4.1-0.3c-0.8-0.3-1.6-0.8-2.3-1.4
	c-0.7-0.7-1.3-1.7-2.3-3.8l-35.9-68v0c-1.1-2-1.6-3-1.8-4.1c-0.2-0.9-0.2-1.9,0-2.9c0.2-1.1,0.7-2.1,1.8-4.1l35.9-68
	c1.1-2,1.6-3,2.3-3.8c0.7-0.6,1.4-1.1,2.3-1.4c1-0.3,2-0.3,4.1-0.3h66c2.1,0,3.2,0,4.1,0.3c0.8,0.3,1.6,0.8,2.3,1.4
	C559.9,85.2,560.4,86.2,561.5,88.2z"/>
<linearGradient id="SVGID_10_" gradientUnits="userSpaceOnUse" x1="535.181" y1="599.1724" x2="505.6979" y2="481.1543" gradientTransform="matrix(1 0 0 -1 0 702)">
	<stop  offset="0.4948" style="stop-color:#272626"/>
	<stop  offset="0.7126" style="stop-color:#424041"/>
	<stop  offset="1" style="stop-color:#868585"/>
</linearGradient>
<path class="st13" d="M551,109.8l26.9,50.8c0.8,1.5,1.2,2.3,1.4,3.1c0.1,0.7,0.1,1.4,0,2.2c-0.2,0.8-0.6,1.6-1.4,3.1L551,219.7
	c-0.8,1.5-1.2,2.3-1.8,2.8c-0.5,0.5-1.1,0.8-1.7,1.1c-0.7,0.3-1.5,0.3-3.1,0.3H495c-1.6,0-2.4,0-3.1-0.3c-0.6-0.2-1.2-0.6-1.7-1.1
	c-0.6-0.5-1-1.3-1.8-2.8l-26.9-50.8h0c-0.8-1.5-1.2-2.3-1.4-3.1c-0.1-0.7-0.1-1.4,0-2.2c0.2-0.8,0.6-1.6,1.4-3.1l26.9-50.8
	c0.8-1.5,1.2-2.3,1.8-2.8c0.5-0.5,1.1-0.8,1.7-1.1c0.7-0.3,1.5-0.3,3.1-0.3h49.4c1.6,0,2.4,0,3.1,0.3c0.6,0.2,1.2,0.6,1.7,1.1
	C549.8,107.5,550.2,108.3,551,109.8z"/>
<linearGradient id="SVGID_11_" gradientUnits="userSpaceOnUse" x1="556.1078" y1="620.6903" x2="484.5427" y2="462.5373" gradientTransform="matrix(1 0 0 -1 0 702)">
	<stop  offset="0.6094" style="stop-color:#838383"/>
	<stop  offset="0.7882" style="stop-color:#403E3F"/>
	<stop  offset="1" style="stop-color:#2C2A2B"/>
</linearGradient>
<path class="st14" d="M442,167.3L442,167.3l35.9,68c1.1,2,1.6,3,2.3,3.8c0.7,0.6,1.4,1.1,2.3,1.4c1,0.3,2,0.3,4.1,0.3h66
	c2.1,0,3.2,0,4.1-0.3c0.8-0.3,1.6-0.8,2.3-1.4c0.7-0.7,1.3-1.7,2.3-3.8l35.9-68c1.1-2,1.6-3,1.8-4.1c0.2-0.9,0.2-1.9,0-2.9
	c-0.2-1.1-0.7-2.1-1.8-4.1l-35.9-68c-1.1-2-1.6-3-2.3-3.8c-0.7-0.6-1.4-1.1-2.3-1.4c-1-0.3-2-0.3-4.1-0.3h-66c-2.1,0-3.2,0-4.1,0.3
	c-0.8,0.3-1.6,0.8-2.3,1.4c-0.7,0.7-1.3,1.7-2.3,3.8l-35.9,68l0,0c-1.1,2-1.6,3-1.8,4.1c-0.2,0.9-0.2,1.9,0,2.9
	C440.5,164.2,441,165.3,442,167.3z M483.4,87.6c-0.1,0.1-0.3,0.4-1.5,2.7l-35.9,68c-1.2,2.3-1.3,2.6-1.4,2.9c-0.1,0.4-0.1,0.8,0,1.2
	c0.1,0.3,0.2,0.6,1.4,2.9v0l0,0v0l35.9,67.9c1.2,2.3,1.4,2.5,1.5,2.7c0.2,0.2,0.4,0.3,0.6,0.4c0,0,0.2,0,0.4,0c0.5,0,1.1,0,2.2,0h66
	c1.1,0,1.7,0,2.2,0c0.3,0,0.4,0,0.4,0c0.2-0.1,0.4-0.2,0.6-0.4c0.1-0.1,0.3-0.4,1.5-2.7l35.9-68c1.2-2.3,1.3-2.6,1.4-2.9l4.4,0.9
	l-4.4-0.9c0.1-0.4,0.1-0.8,0-1.2c-0.1-0.3-0.2-0.6-1.4-2.9l4-2.1l-4,2.1l-35.9-68c-1.2-2.3-1.4-2.5-1.5-2.7
	c-0.2-0.2-0.4-0.3-0.6-0.4c0,0-0.2,0-0.4,0c-0.5,0-1.1,0-2.2,0h-66c-1.1,0-1.7,0-2.2,0c-0.3,0-0.4,0-0.4,0
	C483.9,87.3,483.7,87.4,483.4,87.6z M484.1,87.2C484.1,87.2,484.1,87.2,484.1,87.2C484.1,87.2,484.1,87.2,484.1,87.2z M555.4,87.2
	C555.4,87.2,555.4,87.2,555.4,87.2C555.4,87.2,555.4,87.2,555.4,87.2z M555.4,236.2C555.4,236.2,555.4,236.2,555.4,236.2
	C555.4,236.2,555.4,236.2,555.4,236.2z"/>
<linearGradient id="SVGID_12_" gradientUnits="userSpaceOnUse" x1="470.6252" y1="615.7231" x2="502.5832" y2="566.6051" gradientTransform="matrix(1 0 0 -1 0 702)">
	<stop  offset="0" style="stop-color:#FFFFFF;stop-opacity:0.4"/>
	<stop  offset="1" style="stop-color:#FFFFFF;stop-opacity:0"/>
</linearGradient>
<path class="st15" d="M442,167.3L442,167.3l35.9,68c1.1,2,1.6,3,2.3,3.8c0.7,0.6,1.4,1.1,2.3,1.4c1,0.3,2,0.3,4.1,0.3h66
	c2.1,0,3.2,0,4.1-0.3c0.8-0.3,1.6-0.8,2.3-1.4c0.7-0.7,1.3-1.7,2.3-3.8l35.9-68c1.1-2,1.6-3,1.8-4.1c0.2-0.9,0.2-1.9,0-2.9
	c-0.2-1.1-0.7-2.1-1.8-4.1l-35.9-68c-1.1-2-1.6-3-2.3-3.8c-0.7-0.6-1.4-1.1-2.3-1.4c-1-0.3-2-0.3-4.1-0.3h-66c-2.1,0-3.2,0-4.1,0.3
	c-0.8,0.3-1.6,0.8-2.3,1.4c-0.7,0.7-1.3,1.7-2.3,3.8l-35.9,68l0,0c-1.1,2-1.6,3-1.8,4.1c-0.2,0.9-0.2,1.9,0,2.9
	C440.5,164.2,441,165.3,442,167.3z M483.4,87.6c-0.1,0.1-0.3,0.4-1.5,2.7l-35.9,68c-1.2,2.3-1.3,2.6-1.4,2.9c-0.1,0.4-0.1,0.8,0,1.2
	c0.1,0.3,0.2,0.6,1.4,2.9v0l0,0v0l35.9,67.9c1.2,2.3,1.4,2.5,1.5,2.7c0.2,0.2,0.4,0.3,0.6,0.4c0,0,0.2,0,0.4,0c0.5,0,1.1,0,2.2,0h66
	c1.1,0,1.7,0,2.2,0c0.3,0,0.4,0,0.4,0c0.2-0.1,0.4-0.2,0.6-0.4c0.1-0.1,0.3-0.4,1.5-2.7l35.9-68c1.2-2.3,1.3-2.6,1.4-2.9l4.4,0.9
	l-4.4-0.9c0.1-0.4,0.1-0.8,0-1.2c-0.1-0.3-0.2-0.6-1.4-2.9l4-2.1l-4,2.1l-35.9-68c-1.2-2.3-1.4-2.5-1.5-2.7
	c-0.2-0.2-0.4-0.3-0.6-0.4c0,0-0.2,0-0.4,0c-0.5,0-1.1,0-2.2,0h-66c-1.1,0-1.7,0-2.2,0c-0.3,0-0.4,0-0.4,0
	C483.9,87.3,483.7,87.4,483.4,87.6z M484.1,87.2C484.1,87.2,484.1,87.2,484.1,87.2C484.1,87.2,484.1,87.2,484.1,87.2z M555.4,87.2
	C555.4,87.2,555.4,87.2,555.4,87.2C555.4,87.2,555.4,87.2,555.4,87.2z M555.4,236.2C555.4,236.2,555.4,236.2,555.4,236.2
	C555.4,236.2,555.4,236.2,555.4,236.2z"/>
<g>
	
		<linearGradient id="SVGID_13_" gradientUnits="userSpaceOnUse" x1="523.5692" y1="570.7321" x2="516.4792" y2="507.7401" gradientTransform="matrix(1 0 0 -1 0 702)">
		<stop  offset="0" style="stop-color:#767676"/>
		<stop  offset="0.1354" style="stop-color:#606060"/>
		<stop  offset="0.6302" style="stop-color:#F8F8F8"/>
		<stop  offset="1" style="stop-color:#F8F8F8"/>
	</linearGradient>
	<path class="st16" d="M507.2,168.2c-2.4-3.9-3.9-8.6-3.9-13.6c0-13.5,10.2-24.5,22.8-24.5c12.6,0,22.8,11,22.8,24.5
		c0,13.5-10.2,24.5-22.8,24.5c-4.8,0-9.3-1.6-12.9-4.3l-18.2,19.4l-6.1-6.5L507.2,168.2z M526.2,172.2c9,0,16.4-7.9,16.4-17.5
		c0-9.7-7.3-17.5-16.4-17.5c-9,0-16.4,7.9-16.4,17.5C509.8,164.3,517.1,172.2,526.2,172.2z"/>
	
		<linearGradient id="SVGID_14_" gradientUnits="userSpaceOnUse" x1="522.5817" y1="570.8432" x2="515.4918" y2="507.8512" gradientTransform="matrix(1 0 0 -1 0 702)">
		<stop  offset="0" style="stop-color:#767676"/>
		<stop  offset="0.1354" style="stop-color:#606060"/>
		<stop  offset="0.6302" style="stop-color:#F8F8F8"/>
		<stop  offset="1" style="stop-color:#F8F8F8"/>
	</linearGradient>
	<path class="st17" d="M506.2,168.2c-2.4-3.9-3.9-8.6-3.9-13.6c0-13.5,10.2-24.5,22.8-24.5c12.6,0,22.8,11,22.8,24.5
		c0,13.5-10.2,24.5-22.8,24.5c-4.8,0-9.3-1.6-12.9-4.3l-18.2,19.4l-6.1-6.5L506.2,168.2z M525.2,172.2c9,0,16.4-7.9,16.4-17.5
		c0-9.7-7.3-17.5-16.4-17.5c-9,0-16.4,7.9-16.4,17.5C508.8,164.3,516.1,172.2,525.2,172.2z"/>
	
		<linearGradient id="SVGID_15_" gradientUnits="userSpaceOnUse" x1="521.5942" y1="570.9543" x2="514.5042" y2="507.9623" gradientTransform="matrix(1 0 0 -1 0 702)">
		<stop  offset="0" style="stop-color:#767676"/>
		<stop  offset="0.1354" style="stop-color:#606060"/>
		<stop  offset="0.6302" style="stop-color:#F8F8F8"/>
		<stop  offset="1" style="stop-color:#F8F8F8"/>
	</linearGradient>
	<path class="st18" d="M505.2,168.2c-2.4-3.9-3.9-8.6-3.9-13.6c0-13.5,10.2-24.5,22.8-24.5c12.6,0,22.8,11,22.8,24.5
		c0,13.5-10.2,24.5-22.8,24.5c-4.8,0-9.3-1.6-12.9-4.3l-18.2,19.4l-6.1-6.5L505.2,168.2z M524.2,172.2c9,0,16.4-7.9,16.4-17.5
		c0-9.7-7.3-17.5-16.4-17.5c-9,0-16.4,7.9-16.4,17.5C507.8,164.3,515.1,172.2,524.2,172.2z"/>
	
		<linearGradient id="SVGID_16_" gradientUnits="userSpaceOnUse" x1="520.6067" y1="571.0655" x2="513.5167" y2="508.0735" gradientTransform="matrix(1 0 0 -1 0 702)">
		<stop  offset="0" style="stop-color:#767676"/>
		<stop  offset="0.1354" style="stop-color:#606060"/>
		<stop  offset="0.6302" style="stop-color:#F8F8F8"/>
		<stop  offset="1" style="stop-color:#F8F8F8"/>
	</linearGradient>
	<path class="st19" d="M504.2,168.2c-2.4-3.9-3.9-8.6-3.9-13.6c0-13.5,10.2-24.5,22.8-24.5c12.6,0,22.8,11,22.8,24.5
		c0,13.5-10.2,24.5-22.8,24.5c-4.8,0-9.3-1.6-12.9-4.3l-18.2,19.4l-6.1-6.5L504.2,168.2z M523.2,172.2c9,0,16.4-7.9,16.4-17.5
		c0-9.7-7.3-17.5-16.4-17.5c-9,0-16.4,7.9-16.4,17.5C506.8,164.3,514.1,172.2,523.2,172.2z"/>
</g>
<linearGradient id="SVGID_17_" gradientUnits="userSpaceOnUse" x1="542.0198" y1="559.7097" x2="490.0808" y2="516.6737" gradientTransform="matrix(1 0 0 -1 0 702)">
	<stop  offset="0" style="stop-color:#F8F8F8"/>
	<stop  offset="1" style="stop-color:#BEBEBE"/>
</linearGradient>
<path class="st20" d="M508.2,168.2c-2.4-3.9-3.9-8.6-3.9-13.6c0-13.5,10.2-24.5,22.8-24.5c12.6,0,22.8,11,22.8,24.5
	c0,13.5-10.2,24.5-22.8,24.5c-4.8,0-9.3-1.6-12.9-4.3l-18.2,19.4l-6.1-6.5L508.2,168.2z M527.2,172.2c9,0,16.4-7.9,16.4-17.5
	c0-9.7-7.3-17.5-16.4-17.5c-9,0-16.4,7.9-16.4,17.5C510.8,164.3,518.1,172.2,527.2,172.2z"/>
<linearGradient id="SVGID_18_" gradientUnits="userSpaceOnUse" x1="323.4303" y1="460.6675" x2="323.8007" y2="302.3997" gradientTransform="matrix(1 0 0 -1 0 702)">
	<stop  offset="0" style="stop-color:#5D5C5D"/>
	<stop  offset="0.1563" style="stop-color:#393939"/>
	<stop  offset="0.2969" style="stop-color:#2B292A"/>
	<stop  offset="0.508" style="stop-color:#605E5F"/>
	<stop  offset="0.8163" style="stop-color:#262629"/>
	<stop  offset="1" style="stop-color:#1A1A1E"/>
</linearGradient>
<path class="st21" d="M365.4,247.1l35.9,68c1.1,2,1.6,3,1.8,4.1c0.2,0.9,0.2,1.9,0,2.9c-0.2,1.1-0.7,2.1-1.8,4.1l-35.9,68
	c-1.1,2-1.6,3-2.3,3.8c-0.7,0.6-1.4,1.1-2.3,1.4c-1,0.3-2,0.3-4.1,0.3h-66c-2.1,0-3.2,0-4.1-0.3c-0.8-0.3-1.6-0.8-2.3-1.4
	c-0.7-0.7-1.3-1.7-2.3-3.8l-35.9-68h0c-1.1-2-1.6-3-1.8-4.1c-0.2-0.9-0.2-1.9,0-2.9c0.2-1.1,0.7-2.1,1.8-4.1l35.9-68
	c1.1-2,1.6-3,2.3-3.8c0.7-0.6,1.4-1.1,2.3-1.4c1-0.3,2-0.3,4.1-0.3h66c2.1,0,3.2,0,4.1,0.3c0.8,0.3,1.6,0.8,2.3,1.4
	C363.8,244.1,364.3,245.1,365.4,247.1z"/>
<linearGradient id="SVGID_19_" gradientUnits="userSpaceOnUse" x1="323.6159" y1="460.137" x2="323.6159" y2="302.025" gradientTransform="matrix(1 0 0 -1 0 702)">
	<stop  offset="0" style="stop-color:#FFFFFF;stop-opacity:0.22"/>
	<stop  offset="0.4844" style="stop-color:#FFFFFF;stop-opacity:0.21"/>
	<stop  offset="0.5104" style="stop-color:#FFFFFF;stop-opacity:0"/>
</linearGradient>
<path class="st22" d="M365.4,247.1l35.9,68c1.1,2,1.6,3,1.8,4.1c0.2,0.9,0.2,1.9,0,2.9c-0.2,1.1-0.7,2.1-1.8,4.1l-35.9,68
	c-1.1,2-1.6,3-2.3,3.8c-0.7,0.6-1.4,1.1-2.3,1.4c-1,0.3-2,0.3-4.1,0.3h-66c-2.1,0-3.2,0-4.1-0.3c-0.8-0.3-1.6-0.8-2.3-1.4
	c-0.7-0.7-1.3-1.7-2.3-3.8l-35.9-68h0c-1.1-2-1.6-3-1.8-4.1c-0.2-0.9-0.2-1.9,0-2.9c0.2-1.1,0.7-2.1,1.8-4.1l35.9-68
	c1.1-2,1.6-3,2.3-3.8c0.7-0.6,1.4-1.1,2.3-1.4c1-0.3,2-0.3,4.1-0.3h66c2.1,0,3.2,0,4.1,0.3c0.8,0.3,1.6,0.8,2.3,1.4
	C363.8,244.1,364.3,245.1,365.4,247.1z"/>
<linearGradient id="SVGID_20_" gradientUnits="userSpaceOnUse" x1="342.0511" y1="460.975" x2="342.0511" y2="302.863" gradientTransform="matrix(1 0 0 -1 0 702)">
	<stop  offset="0.4948" style="stop-color:#2B292A"/>
	<stop  offset="0.7126" style="stop-color:#424041"/>
	<stop  offset="1" style="stop-color:#868585"/>
</linearGradient>
<path class="st23" d="M383.8,246.8l35.9,68c1.1,2,1.6,3,1.8,4.1c0.2,0.9,0.2,1.9,0,2.9c-0.2,1.1-0.7,2.1-1.8,4.1l-35.9,68
	c-1.1,2-1.6,3-2.3,3.8c-0.7,0.6-1.4,1.1-2.3,1.4c-1,0.3-2,0.3-4.1,0.3h-66c-2.1,0-3.2,0-4.1-0.3c-0.8-0.3-1.6-0.8-2.3-1.4
	c-0.7-0.7-1.3-1.7-2.3-3.8l-35.9-68v0c-1.1-2-1.6-3-1.8-4.1c-0.2-0.9-0.2-1.9,0-2.9c0.2-1.1,0.7-2.1,1.8-4.1l35.9-68
	c1.1-2,1.6-3,2.3-3.8c0.7-0.6,1.4-1.1,2.3-1.4c1-0.3,2-0.3,4.1-0.3h66c2.1,0,3.2,0,4.1,0.3c0.8,0.3,1.6,0.8,2.3,1.4
	C382.2,243.8,382.7,244.8,383.8,246.8z"/>
<linearGradient id="SVGID_21_" gradientUnits="userSpaceOnUse" x1="357.0792" y1="440.8453" x2="327.5962" y2="322.8263" gradientTransform="matrix(1 0 0 -1 0 702)">
	<stop  offset="0.4948" style="stop-color:#272626"/>
	<stop  offset="0.7126" style="stop-color:#424041"/>
	<stop  offset="1" style="stop-color:#868585"/>
</linearGradient>
<path class="st24" d="M372.9,268.1l26.9,50.8c0.8,1.5,1.2,2.3,1.4,3.1c0.1,0.7,0.1,1.4,0,2.2c-0.2,0.8-0.6,1.6-1.4,3.1L372.9,378
	c-0.8,1.5-1.2,2.3-1.8,2.8c-0.5,0.5-1.1,0.9-1.7,1.1c-0.7,0.3-1.5,0.3-3.1,0.3h-49.4c-1.6,0-2.4,0-3.1-0.3c-0.6-0.2-1.2-0.6-1.7-1.1
	c-0.6-0.5-1-1.3-1.8-2.8l-26.9-50.8v0c-0.8-1.5-1.2-2.3-1.4-3.1c-0.1-0.7-0.1-1.4,0-2.2c0.2-0.8,0.6-1.6,1.4-3.1l26.9-50.8
	c0.8-1.5,1.2-2.3,1.8-2.8c0.5-0.5,1.1-0.8,1.7-1.1c0.7-0.3,1.5-0.3,3.1-0.3h49.4c1.6,0,2.4,0,3.1,0.3c0.6,0.2,1.2,0.6,1.7,1.1
	C371.7,265.9,372.1,266.6,372.9,268.1z"/>
<linearGradient id="SVGID_22_" gradientUnits="userSpaceOnUse" x1="378.4417" y1="462.0594" x2="306.8767" y2="303.9063" gradientTransform="matrix(1 0 0 -1 0 702)">
	<stop  offset="0.6094" style="stop-color:#838383"/>
	<stop  offset="0.7882" style="stop-color:#403E3F"/>
	<stop  offset="1" style="stop-color:#2C2A2B"/>
</linearGradient>
<path class="st25" d="M264.4,325.9L264.4,325.9l35.9,68c1.1,2,1.6,3,2.3,3.8c0.7,0.6,1.4,1.1,2.3,1.4c1,0.3,2,0.3,4.1,0.3h66
	c2.1,0,3.2,0,4.1-0.3c0.8-0.3,1.6-0.8,2.3-1.4c0.7-0.7,1.3-1.7,2.3-3.8l35.9-68c1.1-2,1.6-3,1.8-4.1c0.2-0.9,0.2-1.9,0-2.9
	c-0.2-1.1-0.7-2.1-1.8-4.1l-35.9-68c-1.1-2-1.6-3-2.3-3.8c-0.7-0.6-1.4-1.1-2.3-1.4c-1-0.3-2-0.3-4.1-0.3h-66c-2.1,0-3.2,0-4.1,0.3
	c-0.8,0.3-1.6,0.8-2.3,1.4c-0.7,0.7-1.3,1.7-2.3,3.8l-35.9,68l0,0c-1.1,2-1.6,3-1.8,4.1c-0.2,0.9-0.2,1.9,0,2.9
	C262.8,322.9,263.3,323.9,264.4,325.9z M305.8,246.3c-0.1,0.1-0.3,0.4-1.5,2.7l-35.9,68c-1.2,2.3-1.3,2.6-1.4,2.9
	c-0.1,0.4-0.1,0.8,0,1.2c0.1,0.3,0.2,0.6,1.4,2.9v0l0,0l0,0l35.9,68c1.2,2.3,1.4,2.5,1.5,2.7c0.2,0.2,0.4,0.3,0.6,0.4
	c0,0,0.2,0,0.4,0c0.5,0,1.1,0,2.2,0h66c1.1,0,1.7,0,2.2,0c0.3,0,0.4,0,0.4,0c0.2-0.1,0.4-0.2,0.6-0.4c0.1-0.1,0.3-0.4,1.5-2.7
	l35.9-68c1.2-2.3,1.3-2.6,1.4-2.9l4.4,0.9l-4.4-0.9c0.1-0.4,0.1-0.8,0-1.2c-0.1-0.3-0.2-0.6-1.4-2.9l4-2.1l-4,2.1l-35.9-68
	c-1.2-2.3-1.4-2.5-1.5-2.7c-0.2-0.2-0.4-0.3-0.6-0.4c0,0-0.2,0-0.4,0c-0.5,0-1.1,0-2.2,0h-66c-1.1,0-1.7,0-2.2,0c-0.3,0-0.4,0-0.4,0
	C306.2,245.9,306,246.1,305.8,246.3z M306.4,245.9C306.4,245.9,306.4,245.9,306.4,245.9C306.4,245.9,306.4,245.9,306.4,245.9z
	 M377.7,245.9C377.7,245.9,377.7,245.9,377.7,245.9C377.7,245.9,377.7,245.9,377.7,245.9z M377.7,394.9
	C377.7,394.9,377.7,394.9,377.7,394.9C377.7,394.9,377.7,394.9,377.7,394.9z"/>
<linearGradient id="SVGID_23_" gradientUnits="userSpaceOnUse" x1="292.9592" y1="457.0921" x2="324.9172" y2="407.9741" gradientTransform="matrix(1 0 0 -1 0 702)">
	<stop  offset="0" style="stop-color:#FFFFFF;stop-opacity:0.4"/>
	<stop  offset="1" style="stop-color:#FFFFFF;stop-opacity:0"/>
</linearGradient>
<path class="st26" d="M264.4,325.9L264.4,325.9l35.9,68c1.1,2,1.6,3,2.3,3.8c0.7,0.6,1.4,1.1,2.3,1.4c1,0.3,2,0.3,4.1,0.3h66
	c2.1,0,3.2,0,4.1-0.3c0.8-0.3,1.6-0.8,2.3-1.4c0.7-0.7,1.3-1.7,2.3-3.8l35.9-68c1.1-2,1.6-3,1.8-4.1c0.2-0.9,0.2-1.9,0-2.9
	c-0.2-1.1-0.7-2.1-1.8-4.1l-35.9-68c-1.1-2-1.6-3-2.3-3.8c-0.7-0.6-1.4-1.1-2.3-1.4c-1-0.3-2-0.3-4.1-0.3h-66c-2.1,0-3.2,0-4.1,0.3
	c-0.8,0.3-1.6,0.8-2.3,1.4c-0.7,0.7-1.3,1.7-2.3,3.8l-35.9,68l0,0c-1.1,2-1.6,3-1.8,4.1c-0.2,0.9-0.2,1.9,0,2.9
	C262.8,322.9,263.3,323.9,264.4,325.9z M305.8,246.3c-0.1,0.1-0.3,0.4-1.5,2.7l-35.9,68c-1.2,2.3-1.3,2.6-1.4,2.9
	c-0.1,0.4-0.1,0.8,0,1.2c0.1,0.3,0.2,0.6,1.4,2.9v0l0,0l0,0l35.9,68c1.2,2.3,1.4,2.5,1.5,2.7c0.2,0.2,0.4,0.3,0.6,0.4
	c0,0,0.2,0,0.4,0c0.5,0,1.1,0,2.2,0h66c1.1,0,1.7,0,2.2,0c0.3,0,0.4,0,0.4,0c0.2-0.1,0.4-0.2,0.6-0.4c0.1-0.1,0.3-0.4,1.5-2.7
	l35.9-68c1.2-2.3,1.3-2.6,1.4-2.9l4.4,0.9l-4.4-0.9c0.1-0.4,0.1-0.8,0-1.2c-0.1-0.3-0.2-0.6-1.4-2.9l4-2.1l-4,2.1l-35.9-68
	c-1.2-2.3-1.4-2.5-1.5-2.7c-0.2-0.2-0.4-0.3-0.6-0.4c0,0-0.2,0-0.4,0c-0.5,0-1.1,0-2.2,0h-66c-1.1,0-1.7,0-2.2,0c-0.3,0-0.4,0-0.4,0
	C306.2,245.9,306,246.1,305.8,246.3z M306.4,245.9C306.4,245.9,306.4,245.9,306.4,245.9C306.4,245.9,306.4,245.9,306.4,245.9z
	 M377.7,245.9C377.7,245.9,377.7,245.9,377.7,245.9C377.7,245.9,377.7,245.9,377.7,245.9z M377.7,394.9
	C377.7,394.9,377.7,394.9,377.7,394.9C377.7,394.9,377.7,394.9,377.7,394.9z"/>
<g>
	
		<linearGradient id="SVGID_24_" gradientUnits="userSpaceOnUse" x1="348.4883" y1="409.9917" x2="341.3983" y2="346.9997" gradientTransform="matrix(1 0 0 -1 0 702)">
		<stop  offset="0" style="stop-color:#767676"/>
		<stop  offset="0.1354" style="stop-color:#606060"/>
		<stop  offset="0.6302" style="stop-color:#F8F8F8"/>
		<stop  offset="1" style="stop-color:#F8F8F8"/>
	</linearGradient>
	<path class="st27" d="M345,300.5c-3.4,0-6.1,3.6-6.1,8.3s2.7,8.3,6.1,8.3s6.1-3.6,6.1-8.3S348.4,300.5,345,300.5z M345,312
		c-0.4,0-1.4-1.1-1.4-3.3s1-3.3,1.4-3.3s1.4,1.1,1.4,3.3S345.4,312,345,312z M372.7,291c-1.7,0-53.7,0-55.3,0
		c-1.3,0-2.3,1.1-2.3,2.5v59c0,1.4,1,2.5,2.3,2.5h55.3c1.3,0,2.3-1.1,2.3-2.5c0-3.2,0-55.8,0-59C375,292.1,374,291,372.7,291z
		 M319.7,296h3.8c-0.7,1.9-2,3.3-3.8,4V296z M319.7,317.5c1.7,0.7,3.1,2.2,3.8,4h-3.8V317.5z M370.3,350h-50.6v-9.3h50.6V350z
		 M370.3,335.8h-50.6v-9.3h50.6V335.8z M370.3,321.5h-3.8c0.7-1.9,2-3.3,3.8-4V321.5z M370.3,312.3c-4.3,1-7.7,4.6-8.7,9.2h-33.3
		c-0.9-4.6-4.3-8.3-8.7-9.2v-7c4.3-1,7.7-4.6,8.7-9.2h33.3c0.9,4.6,4.3,8.3,8.7,9.2V312.3z M370.3,300c-1.7-0.7-3.1-2.2-3.8-4h3.8
		V300z"/>
	
		<linearGradient id="SVGID_25_" gradientUnits="userSpaceOnUse" x1="347.5007" y1="410.1028" x2="340.4108" y2="347.1109" gradientTransform="matrix(1 0 0 -1 0 702)">
		<stop  offset="0" style="stop-color:#767676"/>
		<stop  offset="0.1354" style="stop-color:#606060"/>
		<stop  offset="0.6302" style="stop-color:#F8F8F8"/>
		<stop  offset="1" style="stop-color:#F8F8F8"/>
	</linearGradient>
	<path class="st28" d="M344,300.5c-3.4,0-6.1,3.6-6.1,8.3s2.7,8.3,6.1,8.3s6.1-3.6,6.1-8.3S347.4,300.5,344,300.5z M344,312
		c-0.4,0-1.4-1.1-1.4-3.3s1-3.3,1.4-3.3s1.4,1.1,1.4,3.3S344.4,312,344,312z M371.7,291c-1.7,0-53.7,0-55.3,0
		c-1.3,0-2.3,1.1-2.3,2.5v59c0,1.4,1,2.5,2.3,2.5h55.3c1.3,0,2.3-1.1,2.3-2.5c0-3.2,0-55.8,0-59C374,292.1,373,291,371.7,291z
		 M318.7,296h3.8c-0.7,1.9-2,3.3-3.8,4V296z M318.7,317.5c1.7,0.7,3.1,2.2,3.8,4h-3.8V317.5z M369.3,350h-50.6v-9.3h50.6V350z
		 M369.3,335.8h-50.6v-9.3h50.6V335.8z M369.3,321.5h-3.8c0.7-1.9,2-3.3,3.8-4V321.5z M369.3,312.3c-4.3,1-7.7,4.6-8.7,9.2h-33.3
		c-0.9-4.6-4.3-8.3-8.7-9.2v-7c4.3-1,7.7-4.6,8.7-9.2h33.3c0.9,4.6,4.3,8.3,8.7,9.2V312.3z M369.3,300c-1.7-0.7-3.1-2.2-3.8-4h3.8
		V300z"/>
	
		<linearGradient id="SVGID_26_" gradientUnits="userSpaceOnUse" x1="346.5132" y1="410.214" x2="339.4233" y2="347.222" gradientTransform="matrix(1 0 0 -1 0 702)">
		<stop  offset="0" style="stop-color:#767676"/>
		<stop  offset="0.1354" style="stop-color:#606060"/>
		<stop  offset="0.6302" style="stop-color:#F8F8F8"/>
		<stop  offset="1" style="stop-color:#F8F8F8"/>
	</linearGradient>
	<path class="st29" d="M343,300.5c-3.4,0-6.1,3.6-6.1,8.3s2.7,8.3,6.1,8.3s6.1-3.6,6.1-8.3S346.4,300.5,343,300.5z M343,312
		c-0.4,0-1.4-1.1-1.4-3.3s1-3.3,1.4-3.3s1.4,1.1,1.4,3.3S343.4,312,343,312z M370.7,291c-1.7,0-53.7,0-55.3,0
		c-1.3,0-2.3,1.1-2.3,2.5v59c0,1.4,1,2.5,2.3,2.5h55.3c1.3,0,2.3-1.1,2.3-2.5c0-3.2,0-55.8,0-59C373,292.1,372,291,370.7,291z
		 M317.7,296h3.8c-0.7,1.9-2,3.3-3.8,4V296z M317.7,317.5c1.7,0.7,3.1,2.2,3.8,4h-3.8V317.5z M368.3,350h-50.6v-9.3h50.6V350z
		 M368.3,335.8h-50.6v-9.3h50.6V335.8z M368.3,321.5h-3.8c0.7-1.9,2-3.3,3.8-4V321.5z M368.3,312.3c-4.3,1-7.7,4.6-8.7,9.2h-33.3
		c-0.9-4.6-4.3-8.3-8.7-9.2v-7c4.3-1,7.7-4.6,8.7-9.2h33.3c0.9,4.6,4.3,8.3,8.7,9.2V312.3z M368.3,300c-1.7-0.7-3.1-2.2-3.8-4h3.8
		V300z"/>
	
		<linearGradient id="SVGID_27_" gradientUnits="userSpaceOnUse" x1="345.5258" y1="410.3251" x2="338.4358" y2="347.3332" gradientTransform="matrix(1 0 0 -1 0 702)">
		<stop  offset="0" style="stop-color:#767676"/>
		<stop  offset="0.1354" style="stop-color:#606060"/>
		<stop  offset="0.6302" style="stop-color:#F8F8F8"/>
		<stop  offset="1" style="stop-color:#F8F8F8"/>
	</linearGradient>
	<path class="st30" d="M342,300.5c-3.4,0-6.1,3.6-6.1,8.3s2.7,8.3,6.1,8.3s6.1-3.6,6.1-8.3S345.4,300.5,342,300.5z M342,312
		c-0.4,0-1.4-1.1-1.4-3.3s1-3.3,1.4-3.3s1.4,1.1,1.4,3.3S342.4,312,342,312z M369.7,291c-1.7,0-53.7,0-55.3,0
		c-1.3,0-2.3,1.1-2.3,2.5v59c0,1.4,1,2.5,2.3,2.5h55.3c1.3,0,2.3-1.1,2.3-2.5c0-3.2,0-55.8,0-59C372,292.1,371,291,369.7,291z
		 M316.7,296h3.8c-0.7,1.9-2,3.3-3.8,4V296z M316.7,317.5c1.7,0.7,3.1,2.2,3.8,4h-3.8V317.5z M367.3,350h-50.6v-9.3h50.6V350z
		 M367.3,335.8h-50.6v-9.3h50.6V335.8z M367.3,321.5h-3.8c0.7-1.9,2-3.3,3.8-4V321.5z M367.3,312.3c-4.3,1-7.7,4.6-8.7,9.2h-33.3
		c-0.9-4.6-4.3-8.3-8.7-9.2v-7c4.3-1,7.7-4.6,8.7-9.2h33.3c0.9,4.6,4.3,8.3,8.7,9.2V312.3z M367.3,300c-1.7-0.7-3.1-2.2-3.8-4h3.8
		V300z"/>
</g>
<linearGradient id="SVGID_28_" gradientUnits="userSpaceOnUse" x1="368.807" y1="397.8976" x2="316.868" y2="354.8616" gradientTransform="matrix(1 0 0 -1 0 702)">
	<stop  offset="0" style="stop-color:#F8F8F8"/>
	<stop  offset="1" style="stop-color:#BEBEBE"/>
</linearGradient>
<path class="st31" d="M346,300.5c-3.4,0-6.1,3.6-6.1,8.3s2.7,8.3,6.1,8.3s6.1-3.6,6.1-8.3S349.4,300.5,346,300.5z M346,312
	c-0.4,0-1.4-1.1-1.4-3.3s1-3.3,1.4-3.3s1.4,1.1,1.4,3.3S346.4,312,346,312z M373.7,291c-1.7,0-53.7,0-55.3,0c-1.3,0-2.3,1.1-2.3,2.5
	v59c0,1.4,1,2.5,2.3,2.5h55.3c1.3,0,2.3-1.1,2.3-2.5c0-3.2,0-55.8,0-59C376,292.1,375,291,373.7,291z M320.7,296h3.8
	c-0.7,1.9-2,3.3-3.8,4V296z M320.7,317.5c1.7,0.7,3.1,2.2,3.8,4h-3.8V317.5z M371.3,350h-50.6v-9.3h50.6V350z M371.3,335.8h-50.6
	v-9.3h50.6V335.8z M371.3,321.5h-3.8c0.7-1.9,2-3.3,3.8-4V321.5z M371.3,312.3c-4.3,1-7.7,4.6-8.7,9.2h-33.3
	c-0.9-4.6-4.3-8.3-8.7-9.2v-7c4.3-1,7.7-4.6,8.7-9.2h33.3c0.9,4.6,4.3,8.3,8.7,9.2V312.3z M371.3,300c-1.7-0.7-3.1-2.2-3.8-4h3.8
	V300z"/>
<linearGradient id="SVGID_29_" gradientUnits="userSpaceOnUse" x1="503.6348" y1="302.0364" x2="504.0061" y2="143.7682" gradientTransform="matrix(1 0 0 -1 0 702)">
	<stop  offset="0" style="stop-color:#5D5C5D"/>
	<stop  offset="0.1563" style="stop-color:#393939"/>
	<stop  offset="0.2969" style="stop-color:#2B292A"/>
	<stop  offset="0.508" style="stop-color:#605E5F"/>
	<stop  offset="0.8163" style="stop-color:#262629"/>
	<stop  offset="1" style="stop-color:#1A1A1E"/>
</linearGradient>
<path class="st32" d="M545.6,405.7l35.9,68c1.1,2,1.6,3,1.8,4.1c0.2,0.9,0.2,1.9,0,2.9c-0.2,1.1-0.7,2.1-1.8,4.1l-35.9,68
	c-1.1,2-1.6,3-2.3,3.8c-0.7,0.6-1.4,1.1-2.3,1.4c-1,0.3-2,0.3-4.1,0.3h-66c-2.1,0-3.2,0-4.1-0.3c-0.8-0.3-1.6-0.8-2.3-1.4
	c-0.7-0.7-1.3-1.7-2.3-3.8l-35.9-68h0c-1.1-2-1.6-3-1.8-4.1c-0.2-1-0.2-1.9,0-2.9c0.2-1.1,0.7-2.1,1.8-4.1l35.9-68
	c1.1-2,1.6-3,2.3-3.8c0.7-0.6,1.4-1.1,2.3-1.4c1-0.3,2-0.3,4.1-0.3h66c2.1,0,3.2,0,4.1,0.3c0.8,0.3,1.6,0.8,2.3,1.4
	C544,402.7,544.5,403.7,545.6,405.7z"/>
<linearGradient id="SVGID_30_" gradientUnits="userSpaceOnUse" x1="503.8209" y1="301.506" x2="503.8209" y2="143.394" gradientTransform="matrix(1 0 0 -1 0 702)">
	<stop  offset="0" style="stop-color:#FFFFFF;stop-opacity:0.22"/>
	<stop  offset="0.4844" style="stop-color:#FFFFFF;stop-opacity:0.21"/>
	<stop  offset="0.5104" style="stop-color:#FFFFFF;stop-opacity:0"/>
</linearGradient>
<path class="st33" d="M545.6,405.7l35.9,68c1.1,2,1.6,3,1.8,4.1c0.2,0.9,0.2,1.9,0,2.9c-0.2,1.1-0.7,2.1-1.8,4.1l-35.9,68
	c-1.1,2-1.6,3-2.3,3.8c-0.7,0.6-1.4,1.1-2.3,1.4c-1,0.3-2,0.3-4.1,0.3h-66c-2.1,0-3.2,0-4.1-0.3c-0.8-0.3-1.6-0.8-2.3-1.4
	c-0.7-0.7-1.3-1.7-2.3-3.8l-35.9-68h0c-1.1-2-1.6-3-1.8-4.1c-0.2-1-0.2-1.9,0-2.9c0.2-1.1,0.7-2.1,1.8-4.1l35.9-68
	c1.1-2,1.6-3,2.3-3.8c0.7-0.6,1.4-1.1,2.3-1.4c1-0.3,2-0.3,4.1-0.3h66c2.1,0,3.2,0,4.1,0.3c0.8,0.3,1.6,0.8,2.3,1.4
	C544,402.7,544.5,403.7,545.6,405.7z"/>
<linearGradient id="SVGID_31_" gradientUnits="userSpaceOnUse" x1="522.2561" y1="302.344" x2="522.2561" y2="144.232" gradientTransform="matrix(1 0 0 -1 0 702)">
	<stop  offset="0.4948" style="stop-color:#2B292A"/>
	<stop  offset="0.7126" style="stop-color:#424041"/>
	<stop  offset="1" style="stop-color:#868585"/>
</linearGradient>
<path class="st34" d="M564,405.5l35.9,68c1.1,2,1.6,3,1.8,4.1c0.2,0.9,0.2,1.9,0,2.9c-0.2,1.1-0.7,2.1-1.8,4.1l-35.9,68
	c-1.1,2-1.6,3-2.3,3.8c-0.7,0.6-1.4,1.1-2.3,1.4c-1,0.3-2,0.3-4.1,0.3h-66c-2.1,0-3.2,0-4.1-0.3c-0.8-0.3-1.6-0.8-2.3-1.4
	c-0.7-0.7-1.3-1.7-2.3-3.8l-35.9-68v0c-1.1-2-1.6-3-1.8-4.1c-0.2-0.9-0.2-1.9,0-2.9c0.2-1.1,0.7-2.1,1.8-4.1l35.9-68
	c1.1-2,1.6-3,2.3-3.8c0.7-0.6,1.4-1.1,2.3-1.4c1-0.3,2-0.3,4.1-0.3h66c2.1,0,3.2,0,4.1,0.3c0.8,0.3,1.6,0.8,2.3,1.4
	C562.4,402.4,562.9,403.4,564,405.5z"/>
<linearGradient id="SVGID_32_" gradientUnits="userSpaceOnUse" x1="537.0792" y1="282.8453" x2="507.5962" y2="164.8263" gradientTransform="matrix(1 0 0 -1 0 702)">
	<stop  offset="0.4948" style="stop-color:#272626"/>
	<stop  offset="0.7126" style="stop-color:#424041"/>
	<stop  offset="1" style="stop-color:#868585"/>
</linearGradient>
<path class="st35" d="M552.9,426.1l26.9,50.8c0.8,1.5,1.2,2.3,1.4,3.1c0.1,0.7,0.1,1.4,0,2.2c-0.2,0.8-0.6,1.6-1.4,3.1L552.9,536
	c-0.8,1.5-1.2,2.3-1.8,2.8c-0.5,0.5-1.1,0.8-1.7,1.1c-0.7,0.3-1.5,0.3-3.1,0.3h-49.4c-1.6,0-2.4,0-3.1-0.3c-0.6-0.2-1.2-0.6-1.7-1.1
	c-0.6-0.5-1-1.3-1.8-2.8l-26.9-50.8v0c-0.8-1.5-1.2-2.3-1.4-3.1c-0.1-0.7-0.1-1.4,0-2.2c0.2-0.8,0.6-1.6,1.4-3.1l26.9-50.8
	c0.8-1.5,1.2-2.3,1.8-2.8c0.5-0.5,1.1-0.8,1.7-1.1c0.7-0.3,1.5-0.3,3.1-0.3h49.4c1.6,0,2.4,0,3.1,0.3c0.6,0.2,1.2,0.6,1.7,1.1
	C551.7,423.9,552.1,424.6,552.9,426.1z"/>
<linearGradient id="SVGID_33_" gradientUnits="userSpaceOnUse" x1="558.6466" y1="303.4284" x2="487.0816" y2="145.2754" gradientTransform="matrix(1 0 0 -1 0 702)">
	<stop  offset="0.6094" style="stop-color:#838383"/>
	<stop  offset="0.7882" style="stop-color:#403E3F"/>
	<stop  offset="1" style="stop-color:#2C2A2B"/>
</linearGradient>
<path class="st36" d="M444.6,484.5L444.6,484.5l35.9,68c1.1,2,1.6,3,2.3,3.8c0.7,0.6,1.4,1.1,2.3,1.4c1,0.3,2,0.3,4.1,0.3h66
	c2.1,0,3.2,0,4.1-0.3c0.8-0.3,1.6-0.8,2.3-1.4c0.7-0.7,1.3-1.7,2.3-3.8l35.9-68c1.1-2,1.6-3,1.8-4.1c0.2-0.9,0.2-1.9,0-2.9
	c-0.2-1.1-0.7-2.1-1.8-4.1l-35.9-68c-1.1-2-1.6-3-2.3-3.8c-0.7-0.6-1.4-1.1-2.3-1.4c-1-0.3-2-0.3-4.1-0.3h-66c-2.1,0-3.2,0-4.1,0.3
	c-0.8,0.3-1.6,0.8-2.3,1.4c-0.7,0.7-1.3,1.7-2.3,3.8l-35.9,68l0,0c-1.1,2-1.6,3-1.8,4.1c-0.2,0.9-0.2,1.9,0,2.9
	C443,481.5,443.5,482.5,444.6,484.5z M486,404.9c-0.1,0.1-0.3,0.4-1.5,2.7l-35.9,68c-1.2,2.3-1.3,2.6-1.4,2.9
	c-0.1,0.4-0.1,0.8,0,1.2c0.1,0.3,0.2,0.6,1.4,2.9v0l0,0l0,0l35.9,68c1.2,2.3,1.4,2.5,1.5,2.7c0.2,0.2,0.4,0.3,0.6,0.4
	c0,0,0.2,0,0.4,0c0.5,0,1.1,0,2.2,0h66c1.1,0,1.7,0,2.2,0c0.3,0,0.4,0,0.4,0c0.2-0.1,0.4-0.2,0.6-0.4c0.1-0.1,0.3-0.4,1.5-2.7
	l35.9-68c1.2-2.3,1.3-2.6,1.4-2.9l4.4,0.9l-4.4-0.9c0.1-0.4,0.1-0.8,0-1.2c-0.1-0.3-0.2-0.6-1.4-2.9l4-2.1l-4,2.1l-35.9-68
	c-1.2-2.3-1.4-2.5-1.5-2.7c-0.2-0.2-0.4-0.3-0.6-0.4c0,0-0.2,0-0.4,0c-0.5,0-1.1,0-2.2,0h-66c-1.1,0-1.7,0-2.2,0c-0.3,0-0.4,0-0.4,0
	C486.4,404.6,486.2,404.7,486,404.9z M486.6,404.5C486.6,404.5,486.6,404.5,486.6,404.5C486.6,404.5,486.6,404.5,486.6,404.5z
	 M557.9,404.5C557.9,404.5,557.9,404.5,557.9,404.5C557.9,404.5,557.9,404.5,557.9,404.5z M557.9,553.5
	C557.9,553.5,557.9,553.5,557.9,553.5C557.9,553.5,557.9,553.5,557.9,553.5z"/>
<linearGradient id="SVGID_34_" gradientUnits="userSpaceOnUse" x1="473.1636" y1="298.4607" x2="505.1216" y2="249.3437" gradientTransform="matrix(1 0 0 -1 0 702)">
	<stop  offset="0" style="stop-color:#FFFFFF;stop-opacity:0.4"/>
	<stop  offset="1" style="stop-color:#FFFFFF;stop-opacity:0"/>
</linearGradient>
<path class="st37" d="M444.6,484.5L444.6,484.5l35.9,68c1.1,2,1.6,3,2.3,3.8c0.7,0.6,1.4,1.1,2.3,1.4c1,0.3,2,0.3,4.1,0.3h66
	c2.1,0,3.2,0,4.1-0.3c0.8-0.3,1.6-0.8,2.3-1.4c0.7-0.7,1.3-1.7,2.3-3.8l35.9-68c1.1-2,1.6-3,1.8-4.1c0.2-0.9,0.2-1.9,0-2.9
	c-0.2-1.1-0.7-2.1-1.8-4.1l-35.9-68c-1.1-2-1.6-3-2.3-3.8c-0.7-0.6-1.4-1.1-2.3-1.4c-1-0.3-2-0.3-4.1-0.3h-66c-2.1,0-3.2,0-4.1,0.3
	c-0.8,0.3-1.6,0.8-2.3,1.4c-0.7,0.7-1.3,1.7-2.3,3.8l-35.9,68l0,0c-1.1,2-1.6,3-1.8,4.1c-0.2,0.9-0.2,1.9,0,2.9
	C443,481.5,443.5,482.5,444.6,484.5z M486,404.9c-0.1,0.1-0.3,0.4-1.5,2.7l-35.9,68c-1.2,2.3-1.3,2.6-1.4,2.9
	c-0.1,0.4-0.1,0.8,0,1.2c0.1,0.3,0.2,0.6,1.4,2.9v0l0,0l0,0l35.9,68c1.2,2.3,1.4,2.5,1.5,2.7c0.2,0.2,0.4,0.3,0.6,0.4
	c0,0,0.2,0,0.4,0c0.5,0,1.1,0,2.2,0h66c1.1,0,1.7,0,2.2,0c0.3,0,0.4,0,0.4,0c0.2-0.1,0.4-0.2,0.6-0.4c0.1-0.1,0.3-0.4,1.5-2.7
	l35.9-68c1.2-2.3,1.3-2.6,1.4-2.9l4.4,0.9l-4.4-0.9c0.1-0.4,0.1-0.8,0-1.2c-0.1-0.3-0.2-0.6-1.4-2.9l4-2.1l-4,2.1l-35.9-68
	c-1.2-2.3-1.4-2.5-1.5-2.7c-0.2-0.2-0.4-0.3-0.6-0.4c0,0-0.2,0-0.4,0c-0.5,0-1.1,0-2.2,0h-66c-1.1,0-1.7,0-2.2,0c-0.3,0-0.4,0-0.4,0
	C486.4,404.6,486.2,404.7,486,404.9z M486.6,404.5C486.6,404.5,486.6,404.5,486.6,404.5C486.6,404.5,486.6,404.5,486.6,404.5z
	 M557.9,404.5C557.9,404.5,557.9,404.5,557.9,404.5C557.9,404.5,557.9,404.5,557.9,404.5z M557.9,553.5
	C557.9,553.5,557.9,553.5,557.9,553.5C557.9,553.5,557.9,553.5,557.9,553.5z"/>
<g>
	
		<linearGradient id="SVGID_35_" gradientUnits="userSpaceOnUse" x1="530.9473" y1="251.7149" x2="523.8573" y2="188.7229" gradientTransform="matrix(1 0 0 -1 0 702)">
		<stop  offset="0" style="stop-color:#767676"/>
		<stop  offset="0.1354" style="stop-color:#606060"/>
		<stop  offset="0.6302" style="stop-color:#F8F8F8"/>
		<stop  offset="1" style="stop-color:#F8F8F8"/>
	</linearGradient>
	<path class="st38" d="M520.4,498.2h23c6.4,0,11.6,5.5,11.6,12.3c0,1.4-1,2.5-2.3,2.5h-41.5c-1.3,0-2.3-1.1-2.3-2.5
		C508.8,503.7,514,498.2,520.4,498.2z M549.9,508c-1-2.8-3.5-4.8-6.5-4.8h-23c-3,0-5.5,2-6.5,4.8H549.9z M495.7,494l16.8-17.9
		l-7.6-8.1c-0.9-1-0.9-2.6,0-3.5l13.8-14.8c0.9-1,2.4-1,3.3,0l18.4,19.7c0.9,1,0.9,2.6,0,3.5l-13.8,14.7c-0.9,1-2.4,1-3.3,0
		l-7.6-8.1L499,497.5c-0.9,1-2.4,1-3.3,0C494.8,496.5,494.8,495,495.7,494z M525,482.4l10.5-11.2L520.4,455l-10.5,11.2L525,482.4z"
		/>
	
		<linearGradient id="SVGID_36_" gradientUnits="userSpaceOnUse" x1="529.9596" y1="251.8244" x2="522.8696" y2="188.8324" gradientTransform="matrix(1 0 0 -1 0 702)">
		<stop  offset="0" style="stop-color:#767676"/>
		<stop  offset="0.1354" style="stop-color:#606060"/>
		<stop  offset="0.6302" style="stop-color:#F8F8F8"/>
		<stop  offset="1" style="stop-color:#F8F8F8"/>
	</linearGradient>
	<path class="st39" d="M519.4,498.2h23c6.4,0,11.6,5.5,11.6,12.3c0,1.4-1,2.5-2.3,2.5h-41.5c-1.3,0-2.3-1.1-2.3-2.5
		C507.8,503.7,513,498.2,519.4,498.2z M548.9,508c-1-2.8-3.5-4.8-6.5-4.8h-23c-3,0-5.5,2-6.5,4.8H548.9z M494.7,494l16.8-17.9
		l-7.6-8.1c-0.9-1-0.9-2.6,0-3.5l13.8-14.8c0.9-1,2.4-1,3.3,0l18.4,19.7c0.9,1,0.9,2.6,0,3.5l-13.8,14.7c-0.9,1-2.4,1-3.3,0
		l-7.6-8.1L498,497.5c-0.9,1-2.4,1-3.3,0C493.8,496.5,493.8,495,494.7,494z M524,482.4l10.5-11.2L519.4,455l-10.5,11.2L524,482.4z"
		/>
	
		<linearGradient id="SVGID_37_" gradientUnits="userSpaceOnUse" x1="528.9723" y1="251.9372" x2="521.8823" y2="188.9453" gradientTransform="matrix(1 0 0 -1 0 702)">
		<stop  offset="0" style="stop-color:#767676"/>
		<stop  offset="0.1354" style="stop-color:#606060"/>
		<stop  offset="0.6302" style="stop-color:#F8F8F8"/>
		<stop  offset="1" style="stop-color:#F8F8F8"/>
	</linearGradient>
	<path class="st40" d="M518.4,498.2h23c6.4,0,11.6,5.5,11.6,12.3c0,1.4-1,2.5-2.3,2.5h-41.5c-1.3,0-2.3-1.1-2.3-2.5
		C506.8,503.7,512,498.2,518.4,498.2z M547.9,508c-1-2.8-3.5-4.8-6.5-4.8h-23c-3,0-5.5,2-6.5,4.8H547.9z M493.7,494l16.8-17.9
		l-7.6-8.1c-0.9-1-0.9-2.6,0-3.5l13.8-14.8c0.9-1,2.4-1,3.3,0l18.4,19.7c0.9,1,0.9,2.6,0,3.5l-13.8,14.7c-0.9,1-2.4,1-3.3,0
		l-7.6-8.1L497,497.5c-0.9,1-2.4,1-3.3,0C492.8,496.5,492.8,495,493.7,494z M523,482.4l10.5-11.2L518.4,455l-10.5,11.2L523,482.4z"
		/>
	
		<linearGradient id="SVGID_38_" gradientUnits="userSpaceOnUse" x1="527.9848" y1="252.0484" x2="520.8948" y2="189.0564" gradientTransform="matrix(1 0 0 -1 0 702)">
		<stop  offset="0" style="stop-color:#767676"/>
		<stop  offset="0.1354" style="stop-color:#606060"/>
		<stop  offset="0.6302" style="stop-color:#F8F8F8"/>
		<stop  offset="1" style="stop-color:#F8F8F8"/>
	</linearGradient>
	<path class="st41" d="M517.4,498.2h23c6.4,0,11.6,5.5,11.6,12.3c0,1.4-1,2.5-2.3,2.5h-41.5c-1.3,0-2.3-1.1-2.3-2.5
		C505.8,503.7,511,498.2,517.4,498.2z M546.9,508c-1-2.8-3.5-4.8-6.5-4.8h-23c-3,0-5.5,2-6.5,4.8H546.9z M492.7,494l16.8-17.9
		l-7.6-8.1c-0.9-1-0.9-2.6,0-3.5l13.8-14.8c0.9-1,2.4-1,3.3,0l18.4,19.7c0.9,1,0.9,2.6,0,3.5l-13.8,14.7c-0.9,1-2.4,1-3.3,0
		l-7.6-8.1L496,497.5c-0.9,1-2.4,1-3.3,0C491.8,496.5,491.8,495,492.7,494z M522,482.4l10.5-11.2L517.4,455l-10.5,11.2L522,482.4z"
		/>
</g>
<linearGradient id="SVGID_39_" gradientUnits="userSpaceOnUse" x1="499.4404" y1="235.3687" x2="551.3794" y2="192.3327" gradientTransform="matrix(1 0 0 -1 0 702)">
	<stop  offset="0" style="stop-color:#F8F8F8"/>
	<stop  offset="1" style="stop-color:#BEBEBE"/>
</linearGradient>
<path class="st42" d="M521.4,498.2h23c6.4,0,11.6,5.5,11.6,12.3c0,1.4-1,2.5-2.3,2.5h-41.5c-1.3,0-2.3-1.1-2.3-2.5
	C509.8,503.7,515,498.2,521.4,498.2z M550.9,508c-1-2.8-3.5-4.8-6.5-4.8h-23c-3,0-5.5,2-6.5,4.8H550.9z M496.7,494l16.8-17.9
	l-7.6-8.1c-0.9-1-0.9-2.6,0-3.5l13.8-14.8c0.9-1,2.4-1,3.3,0l18.4,19.7c0.9,1,0.9,2.6,0,3.5l-13.8,14.7c-0.9,1-2.4,1-3.3,0l-7.6-8.1
	L500,497.5c-0.9,1-2.4,1-3.3,0C495.8,496.5,495.8,495,496.7,494z M526,482.4l10.5-11.2L521.4,455l-10.5,11.2L526,482.4z"/>
<linearGradient id="SVGID_40_" gradientUnits="userSpaceOnUse" x1="678.7633" y1="460.6675" x2="679.1337" y2="302.3997" gradientTransform="matrix(1 0 0 -1 0 702)">
	<stop  offset="0" style="stop-color:#5D5C5D"/>
	<stop  offset="0.1563" style="stop-color:#393939"/>
	<stop  offset="0.2969" style="stop-color:#2B292A"/>
	<stop  offset="0.508" style="stop-color:#605E5F"/>
	<stop  offset="0.8163" style="stop-color:#262629"/>
	<stop  offset="1" style="stop-color:#1A1A1E"/>
</linearGradient>
<path class="st43" d="M720.7,247.1l35.9,68c1.1,2,1.6,3,1.8,4.1c0.2,0.9,0.2,1.9,0,2.9c-0.2,1.1-0.7,2.1-1.8,4.1l-35.9,68
	c-1.1,2-1.6,3-2.3,3.8c-0.7,0.6-1.4,1.1-2.3,1.4c-1,0.3-2,0.3-4.1,0.3h-66c-2.1,0-3.2,0-4.1-0.3c-0.8-0.3-1.6-0.8-2.3-1.4
	c-0.7-0.7-1.3-1.7-2.3-3.8l-35.9-68h0c-1.1-2-1.6-3-1.8-4.1c-0.2-0.9-0.2-1.9,0-2.9c0.2-1.1,0.7-2.1,1.8-4.1l35.9-68
	c1.1-2,1.6-3,2.3-3.8c0.7-0.6,1.4-1.1,2.3-1.4c1-0.3,2-0.3,4.1-0.3h66c2.1,0,3.2,0,4.1,0.3c0.8,0.3,1.6,0.8,2.3,1.4
	C719.1,244.1,719.6,245.1,720.7,247.1z"/>
<linearGradient id="SVGID_41_" gradientUnits="userSpaceOnUse" x1="678.9489" y1="460.137" x2="678.9489" y2="302.025" gradientTransform="matrix(1 0 0 -1 0 702)">
	<stop  offset="0" style="stop-color:#FFFFFF;stop-opacity:0.22"/>
	<stop  offset="0.4844" style="stop-color:#FFFFFF;stop-opacity:0.21"/>
	<stop  offset="0.5104" style="stop-color:#FFFFFF;stop-opacity:0"/>
</linearGradient>
<path class="st44" d="M720.7,247.1l35.9,68c1.1,2,1.6,3,1.8,4.1c0.2,0.9,0.2,1.9,0,2.9c-0.2,1.1-0.7,2.1-1.8,4.1l-35.9,68
	c-1.1,2-1.6,3-2.3,3.8c-0.7,0.6-1.4,1.1-2.3,1.4c-1,0.3-2,0.3-4.1,0.3h-66c-2.1,0-3.2,0-4.1-0.3c-0.8-0.3-1.6-0.8-2.3-1.4
	c-0.7-0.7-1.3-1.7-2.3-3.8l-35.9-68h0c-1.1-2-1.6-3-1.8-4.1c-0.2-0.9-0.2-1.9,0-2.9c0.2-1.1,0.7-2.1,1.8-4.1l35.9-68
	c1.1-2,1.6-3,2.3-3.8c0.7-0.6,1.4-1.1,2.3-1.4c1-0.3,2-0.3,4.1-0.3h66c2.1,0,3.2,0,4.1,0.3c0.8,0.3,1.6,0.8,2.3,1.4
	C719.1,244.1,719.6,245.1,720.7,247.1z"/>
<linearGradient id="SVGID_42_" gradientUnits="userSpaceOnUse" x1="697.386" y1="460.975" x2="697.386" y2="302.863" gradientTransform="matrix(1 0 0 -1 0 702)">
	<stop  offset="0.4948" style="stop-color:#2B292A"/>
	<stop  offset="0.7126" style="stop-color:#424041"/>
	<stop  offset="1" style="stop-color:#868585"/>
</linearGradient>
<path class="st45" d="M739.1,246.8l35.9,68c1.1,2,1.6,3,1.8,4.1c0.2,0.9,0.2,1.9,0,2.9c-0.2,1.1-0.7,2.1-1.8,4.1l-35.9,68
	c-1.1,2-1.6,3-2.3,3.8c-0.7,0.6-1.4,1.1-2.3,1.4c-1,0.3-2,0.3-4.1,0.3h-66c-2.1,0-3.2,0-4.1-0.3c-0.8-0.3-1.6-0.8-2.3-1.4
	c-0.7-0.7-1.3-1.7-2.3-3.8l-35.9-68v0c-1.1-2-1.6-3-1.8-4.1c-0.2-0.9-0.2-1.9,0-2.9c0.2-1.1,0.7-2.1,1.8-4.1l35.9-68
	c1.1-2,1.6-3,2.3-3.8c0.7-0.6,1.4-1.1,2.3-1.4c1-0.3,2-0.3,4.1-0.3h66c2.1,0,3.2,0,4.1,0.3c0.8,0.3,1.6,0.8,2.3,1.4
	C737.5,243.8,738.1,244.8,739.1,246.8z"/>
<linearGradient id="SVGID_43_" gradientUnits="userSpaceOnUse" x1="712.0792" y1="440.8453" x2="682.5962" y2="322.8263" gradientTransform="matrix(1 0 0 -1 0 702)">
	<stop  offset="0.4948" style="stop-color:#272626"/>
	<stop  offset="0.7126" style="stop-color:#424041"/>
	<stop  offset="1" style="stop-color:#868585"/>
</linearGradient>
<path class="st46" d="M727.9,268.1l26.9,50.8c0.8,1.5,1.2,2.3,1.4,3.1c0.1,0.7,0.1,1.4,0,2.2c-0.2,0.8-0.6,1.6-1.4,3.1L727.9,378
	c-0.8,1.5-1.2,2.3-1.8,2.8c-0.5,0.5-1.1,0.9-1.7,1.1c-0.7,0.3-1.5,0.3-3.1,0.3h-49.4c-1.6,0-2.4,0-3.1-0.3c-0.6-0.2-1.2-0.6-1.7-1.1
	c-0.6-0.5-1-1.3-1.8-2.8l-26.9-50.8v0c-0.8-1.5-1.2-2.3-1.4-3.1c-0.1-0.7-0.1-1.4,0-2.2c0.2-0.8,0.6-1.6,1.4-3.1l26.9-50.8
	c0.8-1.5,1.2-2.3,1.8-2.8c0.5-0.5,1.1-0.8,1.7-1.1c0.7-0.3,1.5-0.3,3.1-0.3h49.4c1.6,0,2.4,0,3.1,0.3c0.6,0.2,1.2,0.6,1.7,1.1
	C726.7,265.9,727.1,266.6,727.9,268.1z"/>
<linearGradient id="SVGID_44_" gradientUnits="userSpaceOnUse" x1="733.7764" y1="462.0594" x2="662.2114" y2="303.9064" gradientTransform="matrix(1 0 0 -1 0 702)">
	<stop  offset="0.6094" style="stop-color:#838383"/>
	<stop  offset="0.7882" style="stop-color:#403E3F"/>
	<stop  offset="1" style="stop-color:#2C2A2B"/>
</linearGradient>
<path class="st47" d="M619.7,325.9L619.7,325.9l35.9,68c1.1,2,1.6,3,2.3,3.8c0.7,0.6,1.4,1.1,2.3,1.4c1,0.3,2,0.3,4.1,0.3h66
	c2.1,0,3.2,0,4.1-0.3c0.8-0.3,1.6-0.8,2.3-1.4c0.7-0.7,1.3-1.7,2.3-3.8l35.9-68c1.1-2,1.6-3,1.8-4.1c0.2-0.9,0.2-1.9,0-2.9
	c-0.2-1.1-0.7-2.1-1.8-4.1l-35.9-68c-1.1-2-1.6-3-2.3-3.8c-0.7-0.6-1.4-1.1-2.3-1.4c-1-0.3-2-0.3-4.1-0.3h-66c-2.1,0-3.2,0-4.1,0.3
	c-0.8,0.3-1.6,0.8-2.3,1.4c-0.7,0.7-1.3,1.7-2.3,3.8l-35.9,68l0,0c-1.1,2-1.6,3-1.8,4.1c-0.2,0.9-0.2,1.9,0,2.9
	C618.1,322.9,618.7,323.9,619.7,325.9z M661.1,246.3c-0.1,0.1-0.3,0.4-1.5,2.7l-35.9,68c-1.2,2.3-1.3,2.6-1.4,2.9
	c-0.1,0.4-0.1,0.8,0,1.2c0.1,0.3,0.2,0.6,1.4,2.9v0l0,0l0,0l35.9,68c1.2,2.3,1.4,2.5,1.5,2.7c0.2,0.2,0.4,0.3,0.6,0.4
	c0,0,0.2,0,0.4,0c0.5,0,1.1,0,2.2,0h66c1.1,0,1.7,0,2.2,0c0.3,0,0.4,0,0.4,0c0.2-0.1,0.4-0.2,0.6-0.4c0.1-0.1,0.3-0.4,1.5-2.7
	l35.9-68c1.2-2.3,1.3-2.6,1.4-2.9l4.4,0.9l-4.4-0.9c0.1-0.4,0.1-0.8,0-1.2c-0.1-0.3-0.2-0.6-1.4-2.9l4-2.1l-4,2.1l-35.9-68
	c-1.2-2.3-1.4-2.5-1.5-2.7c-0.2-0.2-0.4-0.3-0.6-0.4c0,0-0.2,0-0.4,0c-0.5,0-1.1,0-2.2,0h-66c-1.1,0-1.7,0-2.2,0c-0.3,0-0.4,0-0.4,0
	C661.5,245.9,661.3,246.1,661.1,246.3z M661.7,245.9C661.7,245.9,661.7,245.9,661.7,245.9C661.7,245.9,661.7,245.9,661.7,245.9z
	 M733,245.9C733,245.9,733,245.9,733,245.9C733,245.9,733,245.9,733,245.9z M733,394.9C733,394.9,733,394.9,733,394.9
	C733,394.9,733,394.9,733,394.9z"/>
<linearGradient id="SVGID_45_" gradientUnits="userSpaceOnUse" x1="648.2942" y1="457.0921" x2="680.2521" y2="407.9741" gradientTransform="matrix(1 0 0 -1 0 702)">
	<stop  offset="0" style="stop-color:#FFFFFF;stop-opacity:0.4"/>
	<stop  offset="1" style="stop-color:#FFFFFF;stop-opacity:0"/>
</linearGradient>
<path class="st48" d="M619.7,325.9L619.7,325.9l35.9,68c1.1,2,1.6,3,2.3,3.8c0.7,0.6,1.4,1.1,2.3,1.4c1,0.3,2,0.3,4.1,0.3h66
	c2.1,0,3.2,0,4.1-0.3c0.8-0.3,1.6-0.8,2.3-1.4c0.7-0.7,1.3-1.7,2.3-3.8l35.9-68c1.1-2,1.6-3,1.8-4.1c0.2-0.9,0.2-1.9,0-2.9
	c-0.2-1.1-0.7-2.1-1.8-4.1l-35.9-68c-1.1-2-1.6-3-2.3-3.8c-0.7-0.6-1.4-1.1-2.3-1.4c-1-0.3-2-0.3-4.1-0.3h-66c-2.1,0-3.2,0-4.1,0.3
	c-0.8,0.3-1.6,0.8-2.3,1.4c-0.7,0.7-1.3,1.7-2.3,3.8l-35.9,68l0,0c-1.1,2-1.6,3-1.8,4.1c-0.2,0.9-0.2,1.9,0,2.9
	C618.1,322.9,618.7,323.9,619.7,325.9z M661.1,246.3c-0.1,0.1-0.3,0.4-1.5,2.7l-35.9,68c-1.2,2.3-1.3,2.6-1.4,2.9
	c-0.1,0.4-0.1,0.8,0,1.2c0.1,0.3,0.2,0.6,1.4,2.9v0l0,0l0,0l35.9,68c1.2,2.3,1.4,2.5,1.5,2.7c0.2,0.2,0.4,0.3,0.6,0.4
	c0,0,0.2,0,0.4,0c0.5,0,1.1,0,2.2,0h66c1.1,0,1.7,0,2.2,0c0.3,0,0.4,0,0.4,0c0.2-0.1,0.4-0.2,0.6-0.4c0.1-0.1,0.3-0.4,1.5-2.7
	l35.9-68c1.2-2.3,1.3-2.6,1.4-2.9l4.4,0.9l-4.4-0.9c0.1-0.4,0.1-0.8,0-1.2c-0.1-0.3-0.2-0.6-1.4-2.9l4-2.1l-4,2.1l-35.9-68
	c-1.2-2.3-1.4-2.5-1.5-2.7c-0.2-0.2-0.4-0.3-0.6-0.4c0,0-0.2,0-0.4,0c-0.5,0-1.1,0-2.2,0h-66c-1.1,0-1.7,0-2.2,0c-0.3,0-0.4,0-0.4,0
	C661.5,245.9,661.3,246.1,661.1,246.3z M661.7,245.9C661.7,245.9,661.7,245.9,661.7,245.9C661.7,245.9,661.7,245.9,661.7,245.9z
	 M733,245.9C733,245.9,733,245.9,733,245.9C733,245.9,733,245.9,733,245.9z M733,394.9C733,394.9,733,394.9,733,394.9
	C733,394.9,733,394.9,733,394.9z"/>
<g>
	
		<linearGradient id="SVGID_46_" gradientUnits="userSpaceOnUse" x1="702.5446" y1="412.0979" x2="695.4546" y2="349.106" gradientTransform="matrix(1 0 0 -1 0 702)">
		<stop  offset="0" style="stop-color:#767676"/>
		<stop  offset="0.1354" style="stop-color:#606060"/>
		<stop  offset="0.6302" style="stop-color:#F8F8F8"/>
		<stop  offset="1" style="stop-color:#F8F8F8"/>
	</linearGradient>
	<path class="st49" d="M729.3,309.4l-18.4-19.7c-0.9-1-2.4-1-3.3,0l-7.6,8.1l-7.6-8.1c-0.9-1-2.4-1-3.3,0l-18.4,19.7
		c-0.9,1-0.9,2.6,0,3.5l7.6,8.1l-4.2,4.5c-2.7,2.9-2.7,7.7,0,10.6l13.8,14.7c1.3,1.4,3.1,2.2,5,2.2h14.6c1.9,0,3.6-0.8,5-2.2
		l13.8-14.7c2.7-2.9,2.7-7.7,0-10.6l-4.2-4.5l7.6-8.1C730.2,312,730.2,310.4,729.3,309.4z M677.3,332.6c-0.9-1-0.9-2.6,0-3.5
		l4.2-4.5l14.9,15.8c1.6,1.7,1.6,4.6,0,6.3c-1.5,1.6-3.3,1.3-3.7,1.3c-0.6,0-1.2-0.3-1.7-0.7L677.3,332.6z M722.7,332.6l-13.7,14.7
		c-0.4,0.5-1,0.7-1.7,0.7h-6c0.7-1.4,1-2.9,1-4.5c0-2.5-0.9-4.9-2.6-6.7l-24.1-25.7l15.1-16.1l5.9,6.3l-7.6,8.1
		c-0.9,1-0.9,2.6,0,3.5c5.5,5.8,14,6.3,20,1.6l13.6,14.5C723.6,330,723.6,331.6,722.7,332.6z M718.4,317.5l-7.6-8.1
		c-0.9-1-2.4-1-3.3,0l-0.1,0.1c-3.6,3.8-9.2,4.4-13.3,1.6l15-16l15.1,16.1L718.4,317.5z"/>
	
		<linearGradient id="SVGID_47_" gradientUnits="userSpaceOnUse" x1="701.5571" y1="412.2091" x2="694.4671" y2="349.2171" gradientTransform="matrix(1 0 0 -1 0 702)">
		<stop  offset="0" style="stop-color:#767676"/>
		<stop  offset="0.1354" style="stop-color:#606060"/>
		<stop  offset="0.6302" style="stop-color:#F8F8F8"/>
		<stop  offset="1" style="stop-color:#F8F8F8"/>
	</linearGradient>
	<path class="st50" d="M728.3,309.4l-18.4-19.7c-0.9-1-2.4-1-3.3,0l-7.6,8.1l-7.6-8.1c-0.9-1-2.4-1-3.3,0l-18.4,19.7
		c-0.9,1-0.9,2.6,0,3.5l7.6,8.1l-4.2,4.5c-2.7,2.9-2.7,7.7,0,10.6l13.8,14.7c1.3,1.4,3.1,2.2,5,2.2h14.6c1.9,0,3.6-0.8,5-2.2
		l13.8-14.7c2.7-2.9,2.7-7.7,0-10.6l-4.2-4.5l7.6-8.1C729.2,312,729.2,310.4,728.3,309.4z M676.3,332.6c-0.9-1-0.9-2.6,0-3.5
		l4.2-4.5l14.9,15.8c1.6,1.7,1.6,4.6,0,6.3c-1.5,1.6-3.3,1.3-3.7,1.3c-0.6,0-1.2-0.3-1.7-0.7L676.3,332.6z M721.7,332.6l-13.7,14.7
		c-0.4,0.5-1,0.7-1.7,0.7h-6c0.7-1.4,1-2.9,1-4.5c0-2.5-0.9-4.9-2.6-6.7l-24.1-25.7l15.1-16.1l5.9,6.3l-7.6,8.1
		c-0.9,1-0.9,2.6,0,3.5c5.5,5.8,14,6.3,20,1.6l13.6,14.5C722.6,330,722.6,331.6,721.7,332.6z M717.4,317.5l-7.6-8.1
		c-0.9-1-2.4-1-3.3,0l-0.1,0.1c-3.6,3.8-9.2,4.4-13.3,1.6l15-16l15.1,16.1L717.4,317.5z"/>
	
		<linearGradient id="SVGID_48_" gradientUnits="userSpaceOnUse" x1="700.5696" y1="412.3202" x2="693.4796" y2="349.3282" gradientTransform="matrix(1 0 0 -1 0 702)">
		<stop  offset="0" style="stop-color:#767676"/>
		<stop  offset="0.1354" style="stop-color:#606060"/>
		<stop  offset="0.6302" style="stop-color:#F8F8F8"/>
		<stop  offset="1" style="stop-color:#F8F8F8"/>
	</linearGradient>
	<path class="st51" d="M727.3,309.4l-18.4-19.7c-0.9-1-2.4-1-3.3,0l-7.6,8.1l-7.6-8.1c-0.9-1-2.4-1-3.3,0l-18.4,19.7
		c-0.9,1-0.9,2.6,0,3.5l7.6,8.1l-4.2,4.5c-2.7,2.9-2.7,7.7,0,10.6l13.8,14.7c1.3,1.4,3.1,2.2,5,2.2h14.6c1.9,0,3.6-0.8,5-2.2
		l13.8-14.7c2.7-2.9,2.7-7.7,0-10.6l-4.2-4.5l7.6-8.1C728.2,312,728.2,310.4,727.3,309.4z M675.3,332.6c-0.9-1-0.9-2.6,0-3.5
		l4.2-4.5l14.9,15.8c1.6,1.7,1.6,4.6,0,6.3c-1.5,1.6-3.3,1.3-3.7,1.3c-0.6,0-1.2-0.3-1.7-0.7L675.3,332.6z M720.7,332.6l-13.7,14.7
		c-0.4,0.5-1,0.7-1.7,0.7h-6c0.7-1.4,1-2.9,1-4.5c0-2.5-0.9-4.9-2.6-6.7l-24.1-25.7l15.1-16.1l5.9,6.3l-7.6,8.1
		c-0.9,1-0.9,2.6,0,3.5c5.5,5.8,14,6.3,20,1.6l13.6,14.5C721.6,330,721.6,331.6,720.7,332.6z M716.4,317.5l-7.6-8.1
		c-0.9-1-2.4-1-3.3,0l-0.1,0.1c-3.6,3.8-9.2,4.4-13.3,1.6l15-16l15.1,16.1L716.4,317.5z"/>
	
		<linearGradient id="SVGID_49_" gradientUnits="userSpaceOnUse" x1="699.5821" y1="412.4314" x2="692.4921" y2="349.4394" gradientTransform="matrix(1 0 0 -1 0 702)">
		<stop  offset="0" style="stop-color:#767676"/>
		<stop  offset="0.1354" style="stop-color:#606060"/>
		<stop  offset="0.6302" style="stop-color:#F8F8F8"/>
		<stop  offset="1" style="stop-color:#F8F8F8"/>
	</linearGradient>
	<path class="st52" d="M726.3,309.4l-18.4-19.7c-0.9-1-2.4-1-3.3,0l-7.6,8.1l-7.6-8.1c-0.9-1-2.4-1-3.3,0l-18.4,19.7
		c-0.9,1-0.9,2.6,0,3.5l7.6,8.1l-4.2,4.5c-2.7,2.9-2.7,7.7,0,10.6l13.8,14.7c1.3,1.4,3.1,2.2,5,2.2h14.6c1.9,0,3.6-0.8,5-2.2
		l13.8-14.7c2.7-2.9,2.7-7.7,0-10.6l-4.2-4.5l7.6-8.1C727.2,312,727.2,310.4,726.3,309.4z M674.3,332.6c-0.9-1-0.9-2.6,0-3.5
		l4.2-4.5l14.9,15.8c1.6,1.7,1.6,4.6,0,6.3c-1.5,1.6-3.3,1.3-3.7,1.3c-0.6,0-1.2-0.3-1.7-0.7L674.3,332.6z M719.7,332.6l-13.7,14.7
		c-0.4,0.5-1,0.7-1.7,0.7h-6c0.7-1.4,1-2.9,1-4.5c0-2.5-0.9-4.9-2.6-6.7l-24.1-25.7l15.1-16.1l5.9,6.3l-7.6,8.1
		c-0.9,1-0.9,2.6,0,3.5c5.5,5.8,14,6.3,20,1.6l13.6,14.5C720.6,330,720.6,331.6,719.7,332.6z M715.4,317.5l-7.6-8.1
		c-0.9-1-2.4-1-3.3,0l-0.1,0.1c-3.6,3.8-9.2,4.4-13.3,1.6l15-16l15.1,16.1L715.4,317.5z"/>
</g>
<linearGradient id="SVGID_50_" gradientUnits="userSpaceOnUse" x1="723.7391" y1="399.9796" x2="671.8001" y2="356.9435" gradientTransform="matrix(1 0 0 -1 0 702)">
	<stop  offset="0" style="stop-color:#F8F8F8"/>
	<stop  offset="1" style="stop-color:#BEBEBE"/>
</linearGradient>
<path class="st53" d="M730.3,309.4l-18.4-19.7c-0.9-1-2.4-1-3.3,0l-7.6,8.1l-7.6-8.1c-0.9-1-2.4-1-3.3,0l-18.4,19.7
	c-0.9,1-0.9,2.6,0,3.5l7.6,8.1l-4.2,4.5c-2.7,2.9-2.7,7.7,0,10.6l13.8,14.7c1.3,1.4,3.1,2.2,5,2.2h14.6c1.9,0,3.6-0.8,5-2.2
	l13.8-14.7c2.7-2.9,2.7-7.7,0-10.6l-4.2-4.5l7.6-8.1C731.2,312,731.2,310.4,730.3,309.4z M678.3,332.6c-0.9-1-0.9-2.6,0-3.5l4.2-4.5
	l14.9,15.8c1.6,1.7,1.6,4.6,0,6.3c-1.5,1.6-3.3,1.3-3.7,1.3c-0.6,0-1.2-0.3-1.7-0.7L678.3,332.6z M723.7,332.6l-13.7,14.7
	c-0.4,0.5-1,0.7-1.7,0.7h-6c0.7-1.4,1-2.9,1-4.5c0-2.5-0.9-4.9-2.6-6.7l-16.5-17.6l-7.6-8.1l15.1-16.1l5.9,6.3l-7.6,8.1
	c-0.9,1-0.9,2.6,0,3.5c5.5,5.8,14,6.3,20,1.6l13.6,14.5C724.6,330,724.6,331.6,723.7,332.6z M719.4,317.5l-7.6-8.1
	c-0.9-1-2.4-1-3.3,0l-0.1,0.1c-3.6,3.8-9.2,4.4-13.3,1.6l15-16l15.1,16.1L719.4,317.5z"/>
</svg>
