<svg width="178" height="159" viewBox="0 0 178 159" fill="none" xmlns="http://www.w3.org/2000/svg">
<path d="M121.695 6.11112L157.617 74.0993C158.683 76.1176 159.216 77.1267 159.425 78.1997C159.61 79.1491 159.61 80.1304 159.425 81.0798C159.216 82.1528 158.683 83.1619 157.617 85.1802L121.695 153.168C120.631 155.182 120.099 156.189 119.355 156.921C118.697 157.569 117.922 158.059 117.08 158.358C116.129 158.696 115.066 158.696 112.941 158.696L46.9567 158.696C44.8313 158.696 43.7686 158.696 42.8171 158.358C41.9752 158.059 41.2001 157.569 40.542 156.921C39.7982 156.189 39.2662 155.182 38.2023 153.168L2.28057 85.1802L2.28032 85.1797C1.21412 83.1618 0.681027 82.1527 0.472378 81.0798C0.287762 80.1304 0.287762 79.1491 0.472378 78.1997C0.681027 77.1268 1.21443 76.1173 2.28058 74.0993L38.2023 6.11112C39.2662 4.09737 39.7982 3.09049 40.542 2.35826C41.2001 1.71036 41.9752 1.22098 42.8171 0.921804C43.7686 0.583675 44.8313 0.583675 46.9567 0.583675L112.941 0.583677C115.066 0.583677 116.129 0.583677 117.08 0.921806C117.922 1.22098 118.697 1.71037 119.355 2.35826C120.099 3.0905 120.631 4.09737 121.695 6.11112Z" fill="url(#paint0_linear)"/>
<path d="M121.695 6.11112L157.617 74.0993C158.683 76.1176 159.216 77.1267 159.425 78.1997C159.61 79.1491 159.61 80.1304 159.425 81.0798C159.216 82.1528 158.683 83.1619 157.617 85.1802L121.695 153.168C120.631 155.182 120.099 156.189 119.355 156.921C118.697 157.569 117.922 158.059 117.08 158.358C116.129 158.696 115.066 158.696 112.941 158.696L46.9567 158.696C44.8313 158.696 43.7686 158.696 42.8171 158.358C41.9752 158.059 41.2001 157.569 40.542 156.921C39.7982 156.189 39.2662 155.182 38.2023 153.168L2.28057 85.1802L2.28032 85.1797C1.21412 83.1618 0.681027 82.1527 0.472378 81.0798C0.287762 80.1304 0.287762 79.1491 0.472378 78.1997C0.681027 77.1268 1.21443 76.1173 2.28058 74.0993L38.2023 6.11112C39.2662 4.09737 39.7982 3.09049 40.542 2.35826C41.2001 1.71036 41.9752 1.22098 42.8171 0.921804C43.7686 0.583675 44.8313 0.583675 46.9567 0.583675L112.941 0.583677C115.066 0.583677 116.129 0.583677 117.08 0.921806C117.922 1.22098 118.697 1.71037 119.355 2.35826C120.099 3.0905 120.631 4.09737 121.695 6.11112Z" fill="url(#paint1_linear)"/>
<path d="M140.133 5.83164L176.054 73.8199C177.121 75.8381 177.654 76.8472 177.863 77.9202C178.047 78.8696 178.047 79.8509 177.862 80.8003C177.654 81.8733 177.121 82.8825 176.054 84.9007L140.133 152.889C139.069 154.903 138.537 155.91 137.793 156.642C137.135 157.29 136.36 157.779 135.518 158.078C134.566 158.416 133.504 158.416 131.378 158.416L65.3942 158.416C63.2688 158.416 62.2061 158.416 61.2546 158.078C60.4127 157.779 59.6376 157.29 58.9795 156.642C58.2357 155.91 57.7037 154.903 56.6398 152.889L20.7181 84.9007L20.7178 84.9002C19.6516 82.8823 19.1185 81.8732 18.9099 80.8003C18.7253 79.8509 18.7253 78.8696 18.9099 77.9202C19.1185 76.8473 19.6519 75.8378 20.7181 73.8199L56.6398 5.83164C57.7037 3.81789 58.2357 2.81101 58.9795 2.07878C59.6376 1.43088 60.4127 0.941502 61.2546 0.642324C62.2061 0.304195 63.2688 0.304195 65.3942 0.304196L131.378 0.304197C133.504 0.304197 134.566 0.304197 135.518 0.642326C136.36 0.941504 137.135 1.43089 137.793 2.07878C138.537 2.81102 139.069 3.81789 140.133 5.83164Z" fill="url(#paint2_linear)"/>
<path d="M128.875 27.129L155.773 77.9163C156.571 79.4239 156.971 80.1777 157.127 80.9793C157.265 81.6885 157.265 82.4215 157.127 83.1307C156.971 83.9323 156.571 84.6861 155.773 86.1937L128.875 136.981C128.078 138.485 127.68 139.237 127.123 139.784C126.63 140.268 126.05 140.634 125.419 140.857C124.707 141.11 123.911 141.11 122.32 141.11L72.9113 141.11C71.3198 141.11 70.524 141.11 69.8115 140.857C69.1811 140.634 68.6008 140.268 68.108 139.784C67.5511 139.237 67.1527 138.485 66.356 136.981L39.4581 86.1937L39.4579 86.1933C38.6596 84.6859 38.2604 83.9322 38.1041 83.1307C37.9659 82.4215 37.9659 81.6885 38.1041 80.9793C38.2604 80.1778 38.6598 79.4237 39.4581 77.9163L66.356 27.129C67.1527 25.6247 67.5511 24.8726 68.108 24.3256C68.6008 23.8416 69.1811 23.4761 69.8116 23.2526C70.524 23 71.3198 23 72.9113 23L122.32 23C123.911 23 124.707 23 125.419 23.2526C126.05 23.4761 126.63 23.8416 127.123 24.3256C127.68 24.8726 128.078 25.6247 128.875 27.129Z" fill="url(#paint3_linear)"/>
<path fill-rule="evenodd" clip-rule="evenodd" d="M20.7178 84.9002L20.7181 84.9007L56.6398 152.889C57.7037 154.903 58.2357 155.91 58.9795 156.642C59.6376 157.29 60.4127 157.779 61.2546 158.078C62.2061 158.416 63.2688 158.416 65.3942 158.416L131.378 158.416C133.504 158.416 134.566 158.416 135.518 158.078C136.36 157.779 137.135 157.29 137.793 156.642C138.537 155.91 139.069 154.903 140.133 152.889L176.054 84.9007C177.121 82.8825 177.654 81.8733 177.862 80.8003C178.047 79.8509 178.047 78.8696 177.863 77.9202C177.654 76.8472 177.121 75.8381 176.054 73.8199L140.133 5.83164C139.069 3.81789 138.537 2.81102 137.793 2.07878C137.135 1.43089 136.36 0.941504 135.518 0.642326C134.566 0.304197 133.504 0.304197 131.378 0.304197L65.3942 0.304196C63.2688 0.304195 62.2061 0.304195 61.2546 0.642324C60.4127 0.941502 59.6376 1.43088 58.9795 2.07878C58.2357 2.81101 57.7037 3.81789 56.6398 5.83164L20.7181 73.8199L20.7173 73.8213C19.6517 75.8383 19.1185 76.8475 18.9099 77.9202C18.7253 78.8696 18.7253 79.8509 18.9099 80.8003C19.1185 81.8732 19.6516 82.8823 20.7178 84.9002ZM62.1152 5.26382C61.9835 5.39352 61.7988 5.63497 60.5917 7.91964L24.67 75.9079C23.4761 78.1676 23.35 78.5025 23.2973 78.7734C23.2222 79.1593 23.2222 79.5613 23.2973 79.9471C23.35 80.218 23.4759 80.5528 24.6697 82.8122L24.67 82.8127L24.6898 82.8502L24.6899 82.8505L60.5917 150.801C61.7988 153.086 61.9835 153.327 62.1152 153.457C62.323 153.661 62.5419 153.792 62.7469 153.865C62.7805 153.873 62.8987 153.896 63.1741 153.914C63.6463 153.945 64.2754 153.947 65.3942 153.947L131.378 153.947C132.497 153.947 133.126 153.945 133.598 153.914C133.874 153.896 133.992 153.873 134.025 153.865C134.23 153.792 134.449 153.661 134.657 153.457C134.789 153.327 134.974 153.086 136.181 150.801L172.102 82.8127C173.296 80.5529 173.422 80.2181 173.475 79.9471L177.854 80.7986L173.475 79.9471C173.55 79.5612 173.55 79.1593 173.475 78.7735C173.422 78.5024 173.296 78.1677 172.102 75.9079L176.054 73.8199L172.102 75.9079L136.181 7.91964C134.974 5.63493 134.789 5.39352 134.657 5.26384C134.449 5.0593 134.231 4.92906 134.026 4.85547C133.992 4.8474 133.874 4.82456 133.598 4.80665C133.126 4.77596 132.497 4.7738 131.378 4.7738L65.3942 4.7738C64.2754 4.7738 63.6463 4.77596 63.174 4.80665C62.8986 4.82456 62.7804 4.84739 62.7468 4.85547C62.5419 4.92904 62.323 5.05925 62.1152 5.26382ZM62.7362 4.85845C62.736 4.85837 62.7391 4.85736 62.7462 4.85563C62.74 4.85767 62.7364 4.85853 62.7362 4.85845ZM134.036 4.85845C134.036 4.85854 134.032 4.85767 134.026 4.85563C134.033 4.85736 134.036 4.85836 134.036 4.85845ZM134.036 153.862C134.036 153.862 134.033 153.863 134.026 153.865C134.032 153.863 134.036 153.862 134.036 153.862Z" fill="url(#paint4_linear)"/>
<path fill-rule="evenodd" clip-rule="evenodd" d="M20.7178 84.9002L20.7181 84.9007L56.6398 152.889C57.7037 154.903 58.2357 155.91 58.9795 156.642C59.6376 157.29 60.4127 157.779 61.2546 158.078C62.2061 158.416 63.2688 158.416 65.3942 158.416L131.378 158.416C133.504 158.416 134.566 158.416 135.518 158.078C136.36 157.779 137.135 157.29 137.793 156.642C138.537 155.91 139.069 154.903 140.133 152.889L176.054 84.9007C177.121 82.8825 177.654 81.8733 177.862 80.8003C178.047 79.8509 178.047 78.8696 177.863 77.9202C177.654 76.8472 177.121 75.8381 176.054 73.8199L140.133 5.83164C139.069 3.81789 138.537 2.81102 137.793 2.07878C137.135 1.43089 136.36 0.941504 135.518 0.642326C134.566 0.304197 133.504 0.304197 131.378 0.304197L65.3942 0.304196C63.2688 0.304195 62.2061 0.304195 61.2546 0.642324C60.4127 0.941502 59.6376 1.43088 58.9795 2.07878C58.2357 2.81101 57.7037 3.81789 56.6398 5.83164L20.7181 73.8199L20.7173 73.8213C19.6517 75.8383 19.1185 76.8475 18.9099 77.9202C18.7253 78.8696 18.7253 79.8509 18.9099 80.8003C19.1185 81.8732 19.6516 82.8823 20.7178 84.9002ZM62.1152 5.26382C61.9835 5.39352 61.7988 5.63497 60.5917 7.91964L24.67 75.9079C23.4761 78.1676 23.35 78.5025 23.2973 78.7734C23.2222 79.1593 23.2222 79.5613 23.2973 79.9471C23.35 80.218 23.4759 80.5528 24.6697 82.8122L24.67 82.8127L24.6898 82.8502L24.6899 82.8505L60.5917 150.801C61.7988 153.086 61.9835 153.327 62.1152 153.457C62.323 153.661 62.5419 153.792 62.7469 153.865C62.7805 153.873 62.8987 153.896 63.1741 153.914C63.6463 153.945 64.2754 153.947 65.3942 153.947L131.378 153.947C132.497 153.947 133.126 153.945 133.598 153.914C133.874 153.896 133.992 153.873 134.025 153.865C134.23 153.792 134.449 153.661 134.657 153.457C134.789 153.327 134.974 153.086 136.181 150.801L172.102 82.8127C173.296 80.5529 173.422 80.2181 173.475 79.9471L177.854 80.7986L173.475 79.9471C173.55 79.5612 173.55 79.1593 173.475 78.7735C173.422 78.5024 173.296 78.1677 172.102 75.9079L176.054 73.8199L172.102 75.9079L136.181 7.91964C134.974 5.63493 134.789 5.39352 134.657 5.26384C134.449 5.0593 134.231 4.92906 134.026 4.85547C133.992 4.8474 133.874 4.82456 133.598 4.80665C133.126 4.77596 132.497 4.7738 131.378 4.7738L65.3942 4.7738C64.2754 4.7738 63.6463 4.77596 63.174 4.80665C62.8986 4.82456 62.7804 4.84739 62.7468 4.85547C62.5419 4.92904 62.323 5.05925 62.1152 5.26382ZM62.7362 4.85845C62.736 4.85837 62.7391 4.85736 62.7462 4.85563C62.74 4.85767 62.7364 4.85853 62.7362 4.85845ZM134.036 4.85845C134.036 4.85854 134.032 4.85767 134.026 4.85563C134.033 4.85736 134.036 4.85836 134.036 4.85845ZM134.036 153.862C134.036 153.862 134.033 153.863 134.026 153.865C134.032 153.863 134.036 153.862 134.036 153.862Z" fill="url(#paint5_linear)" fill-opacity="0.55"/>
<g filter="url(#filter0_d)">
<path d="M130.313 68.3989L111.876 48.7324C110.961 47.7559 109.477 47.7559 108.561 48.7324L101 56.7979L93.4387 48.7324C92.5231 47.7559 91.0395 47.7559 90.124 48.7324L71.6866 68.3989C70.7711 69.3755 70.7711 70.958 71.6866 71.9346L79.248 80L75.0009 84.5303C72.2598 87.4541 72.2598 92.2124 75.0009 95.1367L88.7512 109.803C90.0791 111.22 91.8447 112 93.7229 112H108.277C110.155 112 111.921 111.22 113.249 109.803L126.999 95.1367C129.74 92.2124 129.74 87.4541 126.999 84.5303L122.752 80L130.313 71.9346C131.229 70.958 131.229 69.3755 130.313 68.3989ZM78.3155 91.6011C77.4018 90.6265 77.4018 89.0405 78.3155 88.0654L82.5627 83.5356L97.4194 99.3828C99.0531 101.125 99.054 103.946 97.4217 105.69C95.8831 107.334 94.074 106.944 93.7229 107C93.0967 107 92.5085 106.74 92.0658 106.268L78.3155 91.6011ZM123.684 91.6011L109.935 106.268C109.492 106.74 108.903 107 108.277 107H102.288C102.973 105.639 103.335 104.11 103.332 102.521C103.328 100 102.405 97.6299 100.734 95.8472L76.6584 70.167L91.7811 54.0356L97.6853 60.3335L90.0576 68.4692C89.143 69.4448 89.1425 71.0288 90.0576 72.0049C95.5338 77.8462 104.105 78.333 110.102 73.5776L123.684 88.0654C124.598 89.0405 124.598 90.6265 123.684 91.6011ZM119.437 76.4644L111.876 68.3989C110.96 67.4224 109.477 67.4224 108.561 68.3989L108.495 68.4692C104.895 72.3096 99.3452 72.834 95.2125 70.042L110.218 54.0356L125.342 70.167L119.437 76.4644Z" fill="url(#paint6_linear)"/>
<path d="M129.313 68.3989L110.876 48.7324C109.961 47.7559 108.477 47.7559 107.561 48.7324L100 56.7979L92.4387 48.7324C91.5231 47.7559 90.0395 47.7559 89.124 48.7324L70.6866 68.3989C69.7711 69.3755 69.7711 70.958 70.6866 71.9346L78.248 80L74.0009 84.5303C71.2598 87.4541 71.2598 92.2124 74.0009 95.1367L87.7512 109.803C89.0791 111.22 90.8447 112 92.7229 112H107.277C109.155 112 110.921 111.22 112.249 109.803L125.999 95.1367C128.74 92.2124 128.74 87.4541 125.999 84.5303L121.752 80L129.313 71.9346C130.229 70.958 130.229 69.3755 129.313 68.3989ZM77.3155 91.6011C76.4018 90.6265 76.4018 89.0405 77.3155 88.0654L81.5627 83.5356L96.4194 99.3828C98.0531 101.125 98.054 103.946 96.4217 105.69C94.8831 107.334 93.074 106.944 92.7229 107C92.0967 107 91.5085 106.74 91.0658 106.268L77.3155 91.6011ZM122.684 91.6011L108.935 106.268C108.492 106.74 107.903 107 107.277 107H101.288C101.973 105.639 102.335 104.11 102.332 102.521C102.328 100 101.405 97.6299 99.734 95.8472L75.6584 70.167L90.7811 54.0356L96.6853 60.3335L89.0576 68.4692C88.143 69.4448 88.1425 71.0288 89.0576 72.0049C94.5338 77.8462 103.105 78.333 109.102 73.5776L122.684 88.0654C123.598 89.0405 123.598 90.6265 122.684 91.6011ZM118.437 76.4644L110.876 68.3989C109.96 67.4224 108.477 67.4224 107.561 68.3989L107.495 68.4692C103.895 72.3096 98.3452 72.834 94.2125 70.042L109.218 54.0356L124.342 70.167L118.437 76.4644Z" fill="url(#paint7_linear)"/>
<path d="M128.313 68.3989L109.876 48.7324C108.961 47.7559 107.477 47.7559 106.561 48.7324L99 56.7979L91.4387 48.7324C90.5231 47.7559 89.0395 47.7559 88.124 48.7324L69.6866 68.3989C68.7711 69.3755 68.7711 70.958 69.6866 71.9346L77.248 80L73.0009 84.5303C70.2598 87.4541 70.2598 92.2124 73.0009 95.1367L86.7512 109.803C88.0791 111.22 89.8447 112 91.7229 112H106.277C108.155 112 109.921 111.22 111.249 109.803L124.999 95.1367C127.74 92.2124 127.74 87.4541 124.999 84.5303L120.752 80L128.313 71.9346C129.229 70.958 129.229 69.3755 128.313 68.3989ZM76.3155 91.6011C75.4018 90.6265 75.4018 89.0405 76.3155 88.0654L80.5627 83.5356L95.4194 99.3828C97.0531 101.125 97.054 103.946 95.4217 105.69C93.8831 107.334 92.074 106.944 91.7229 107C91.0967 107 90.5085 106.74 90.0658 106.268L76.3155 91.6011ZM121.684 91.6011L107.935 106.268C107.492 106.74 106.903 107 106.277 107H100.288C100.973 105.639 101.335 104.11 101.332 102.521C101.328 100 100.405 97.6299 98.734 95.8472L74.6584 70.167L89.7811 54.0356L95.6853 60.3335L88.0576 68.4692C87.143 69.4448 87.1425 71.0288 88.0576 72.0049C93.5338 77.8462 102.105 78.333 108.102 73.5776L121.684 88.0654C122.598 89.0405 122.598 90.6265 121.684 91.6011ZM117.437 76.4644L109.876 68.3989C108.96 67.4224 107.477 67.4224 106.561 68.3989L106.495 68.4692C102.895 72.3096 97.3452 72.834 93.2125 70.042L108.218 54.0356L123.342 70.167L117.437 76.4644Z" fill="url(#paint8_linear)"/>
<path d="M127.313 68.3989L108.876 48.7324C107.961 47.7559 106.477 47.7559 105.561 48.7324L98 56.7979L90.4387 48.7324C89.5231 47.7559 88.0395 47.7559 87.124 48.7324L68.6866 68.3989C67.7711 69.3755 67.7711 70.958 68.6866 71.9346L76.248 80L72.0009 84.5303C69.2598 87.4541 69.2598 92.2124 72.0009 95.1367L85.7512 109.803C87.0791 111.22 88.8447 112 90.7229 112H105.277C107.155 112 108.921 111.22 110.249 109.803L123.999 95.1367C126.74 92.2124 126.74 87.4541 123.999 84.5303L119.752 80L127.313 71.9346C128.229 70.958 128.229 69.3755 127.313 68.3989ZM75.3155 91.6011C74.4018 90.6265 74.4018 89.0405 75.3155 88.0654L79.5627 83.5356L94.4194 99.3828C96.0531 101.125 96.054 103.946 94.4217 105.69C92.8831 107.334 91.074 106.944 90.7229 107C90.0967 107 89.5085 106.74 89.0658 106.268L75.3155 91.6011ZM120.684 91.6011L106.935 106.268C106.492 106.74 105.903 107 105.277 107H99.2881C99.9725 105.639 100.335 104.11 100.332 102.521C100.328 100 99.4053 97.6299 97.734 95.8472L73.6584 70.167L88.7811 54.0356L94.6853 60.3335L87.0576 68.4692C86.143 69.4448 86.1425 71.0288 87.0576 72.0049C92.5338 77.8462 101.105 78.333 107.102 73.5776L120.684 88.0654C121.598 89.0405 121.598 90.6265 120.684 91.6011ZM116.437 76.4644L108.876 68.3989C107.96 67.4224 106.477 67.4224 105.561 68.3989L105.495 68.4692C101.895 72.3096 96.3452 72.834 92.2125 70.042L107.218 54.0356L122.342 70.167L116.437 76.4644Z" fill="url(#paint9_linear)"/>
</g>
<path d="M131.313 68.3989L112.876 48.7324C111.961 47.7559 110.477 47.7559 109.561 48.7324L102 56.7979L94.4387 48.7324C93.5231 47.7559 92.0395 47.7559 91.124 48.7324L72.6866 68.3989C71.7711 69.3755 71.7711 70.958 72.6866 71.9346L80.248 80L76.0009 84.5303C73.2598 87.4541 73.2598 92.2124 76.0009 95.1367L89.7512 109.803C91.0791 111.22 92.8447 112 94.7229 112H109.277C111.155 112 112.921 111.22 114.249 109.803L127.999 95.1367C130.74 92.2124 130.74 87.4541 127.999 84.5303L123.752 80L131.313 71.9346C132.229 70.958 132.229 69.3755 131.313 68.3989ZM79.3155 91.6011C78.4018 90.6265 78.4018 89.0405 79.3155 88.0654L83.5627 83.5356L98.4194 99.3828C100.053 101.125 100.054 103.946 98.4217 105.69C96.8831 107.334 95.074 106.944 94.7229 107C94.0967 107 93.5085 106.74 93.0658 106.268L79.3155 91.6011ZM124.684 91.6011L110.935 106.268C110.492 106.74 109.903 107 109.277 107H103.288C103.973 105.639 104.335 104.11 104.332 102.521C104.328 100 103.405 97.6299 101.734 95.8472L85.2198 78.2324L77.6584 70.167L92.7811 54.0356L98.6853 60.3335L91.0576 68.4692C90.143 69.4448 90.1425 71.0288 91.0576 72.0049C96.5338 77.8462 105.105 78.333 111.102 73.5776L124.684 88.0654C125.598 89.0405 125.598 90.6265 124.684 91.6011ZM120.437 76.4644L112.876 68.3989C111.96 67.4224 110.477 67.4224 109.561 68.3989L109.495 68.4692C105.895 72.3096 100.345 72.834 96.2125 70.042L111.218 54.0356L126.342 70.167L120.437 76.4644Z" fill="url(#paint10_linear)"/>
<defs>
<filter id="filter0_d" x="68" y="48" width="65" height="66" filterUnits="userSpaceOnUse" color-interpolation-filters="sRGB">
<feFlood flood-opacity="0" result="BackgroundImageFix"/>
<feColorMatrix in="SourceAlpha" type="matrix" values="0 0 0 0 0 0 0 0 0 0 0 0 0 0 0 0 0 0 127 0"/>
<feOffset dx="2" dy="2"/>
<feColorMatrix type="matrix" values="0 0 0 0 0 0 0 0 0 0 0 0 0 0 0 0 0 0 0.15 0"/>
<feBlend mode="normal" in2="BackgroundImageFix" result="effect1_dropShadow"/>
<feBlend mode="normal" in="SourceGraphic" in2="effect1_dropShadow" result="shape"/>
</filter>
<linearGradient id="paint0_linear" x1="91.9419" y1="0.304329" x2="92.3125" y2="158.416" gradientUnits="userSpaceOnUse">
<stop stop-color="#5D5C5D"/>
<stop offset="0.15625" stop-color="#393939"/>
<stop offset="0.296875" stop-color="#2B292A"/>
<stop offset="0.507989" stop-color="#605E5F"/>
<stop offset="0.816305" stop-color="#262629"/>
<stop offset="1" stop-color="#1A1A1E"/>
</linearGradient>
<linearGradient id="paint1_linear" x1="61.5116" y1="0.863031" x2="61.5116" y2="158.975" gradientUnits="userSpaceOnUse">
<stop stop-color="white" stop-opacity="0.22"/>
<stop offset="0.484375" stop-color="white" stop-opacity="0.21"/>
<stop offset="0.510417" stop-color="white" stop-opacity="0"/>
</linearGradient>
<linearGradient id="paint2_linear" x1="94.5586" y1="0.0248494" x2="94.5586" y2="158.137" gradientUnits="userSpaceOnUse">
<stop offset="0.494767" stop-color="#2B292A"/>
<stop offset="0.712602" stop-color="#424041"/>
<stop offset="1" stop-color="#868585"/>
</linearGradient>
<linearGradient id="paint3_linear" x1="126.015" y1="23.3012" x2="96.5321" y2="141.32" gradientUnits="userSpaceOnUse">
<stop offset="0.494767" stop-color="#272626"/>
<stop offset="0.712602" stop-color="#424041"/>
<stop offset="1" stop-color="#868585"/>
</linearGradient>
<linearGradient id="paint4_linear" x1="137.173" y1="0.0248492" x2="65.608" y2="158.178" gradientUnits="userSpaceOnUse">
<stop offset="0.609375" stop-color="#838383"/>
<stop offset="0.788158" stop-color="#403E3F"/>
<stop offset="1" stop-color="#2C2A2B"/>
</linearGradient>
<linearGradient id="paint5_linear" x1="55.2615" y1="0.0248508" x2="87.2201" y2="49.1425" gradientUnits="userSpaceOnUse">
<stop stop-color="white" stop-opacity="0.4"/>
<stop offset="1" stop-color="white" stop-opacity="0"/>
</linearGradient>
<linearGradient id="paint6_linear" x1="112.011" y1="49.8548" x2="104.921" y2="112.847" gradientUnits="userSpaceOnUse">
<stop stop-color="#767676"/>
<stop offset="0.135417" stop-color="#606060"/>
<stop offset="0.630208" stop-color="#F8F8F8"/>
<stop offset="1" stop-color="#F8F8F8"/>
</linearGradient>
<linearGradient id="paint7_linear" x1="112.011" y1="49.8548" x2="104.921" y2="112.847" gradientUnits="userSpaceOnUse">
<stop stop-color="#767676"/>
<stop offset="0.135417" stop-color="#606060"/>
<stop offset="0.630208" stop-color="#F8F8F8"/>
<stop offset="1" stop-color="#F8F8F8"/>
</linearGradient>
<linearGradient id="paint8_linear" x1="112.011" y1="49.8548" x2="104.921" y2="112.847" gradientUnits="userSpaceOnUse">
<stop stop-color="#767676"/>
<stop offset="0.135417" stop-color="#606060"/>
<stop offset="0.630208" stop-color="#F8F8F8"/>
<stop offset="1" stop-color="#F8F8F8"/>
</linearGradient>
<linearGradient id="paint9_linear" x1="112.011" y1="49.8548" x2="104.921" y2="112.847" gradientUnits="userSpaceOnUse">
<stop stop-color="#767676"/>
<stop offset="0.135417" stop-color="#606060"/>
<stop offset="0.630208" stop-color="#F8F8F8"/>
<stop offset="1" stop-color="#F8F8F8"/>
</linearGradient>
<linearGradient id="paint10_linear" x1="115.5" y1="49.8699" x2="63.5608" y2="92.9063" gradientUnits="userSpaceOnUse">
<stop stop-color="#F8F8F8"/>
<stop offset="1" stop-color="#BEBEBE"/>
</linearGradient>
</defs>
</svg>
