<svg width="178" height="160" viewBox="0 0 178 160" fill="none" xmlns="http://www.w3.org/2000/svg">
<path d="M121.567 6.74198L157.489 74.7302C158.555 76.7484 159.088 77.7576 159.297 78.8306C159.482 79.78 159.482 80.7613 159.297 81.7107C159.088 82.7837 158.555 83.7928 157.489 85.811L121.567 153.799C120.503 155.813 119.971 156.82 119.227 157.552C118.569 158.2 117.794 158.689 116.952 158.989C116.001 159.327 114.938 159.327 112.813 159.327L46.8288 159.327C44.7034 159.327 43.6406 159.327 42.6891 158.989C41.8472 158.689 41.0721 158.2 40.414 157.552C39.6703 156.82 39.1383 155.813 38.0743 153.799L2.15265 85.811L2.15239 85.8105C1.08619 83.7926 0.553097 82.7836 0.344448 81.7106C0.159832 80.7613 0.159832 79.78 0.344449 78.8306C0.553097 77.7576 1.0865 76.7482 2.15265 74.7302L38.0743 6.74198C39.1383 4.72823 39.6703 3.72135 40.4141 2.98911C41.0722 2.34122 41.8472 1.85184 42.6891 1.55266C43.6406 1.21453 44.7034 1.21453 46.8288 1.21453L112.813 1.21454C114.938 1.21454 116.001 1.21454 116.952 1.55267C117.794 1.85184 118.569 2.34123 119.227 2.98912C119.971 3.72136 120.503 4.72823 121.567 6.74198Z" fill="url(#paint0_linear)"/>
<path d="M121.567 6.74198L157.489 74.7302C158.555 76.7484 159.088 77.7576 159.297 78.8306C159.482 79.78 159.482 80.7613 159.297 81.7107C159.088 82.7837 158.555 83.7928 157.489 85.811L121.567 153.799C120.503 155.813 119.971 156.82 119.227 157.552C118.569 158.2 117.794 158.689 116.952 158.989C116.001 159.327 114.938 159.327 112.813 159.327L46.8288 159.327C44.7034 159.327 43.6406 159.327 42.6891 158.989C41.8472 158.689 41.0721 158.2 40.414 157.552C39.6703 156.82 39.1383 155.813 38.0743 153.799L2.15265 85.811L2.15239 85.8105C1.08619 83.7926 0.553097 82.7836 0.344448 81.7106C0.159832 80.7613 0.159832 79.78 0.344449 78.8306C0.553097 77.7576 1.0865 76.7482 2.15265 74.7302L38.0743 6.74198C39.1383 4.72823 39.6703 3.72135 40.4141 2.98911C41.0722 2.34122 41.8472 1.85184 42.6891 1.55266C43.6406 1.21453 44.7034 1.21453 46.8288 1.21453L112.813 1.21454C114.938 1.21454 116.001 1.21454 116.952 1.55267C117.794 1.85184 118.569 2.34123 119.227 2.98912C119.971 3.72136 120.503 4.72823 121.567 6.74198Z" fill="url(#paint1_linear)"/>
<path d="M140.003 6.4625L175.924 74.4507C176.991 76.469 177.524 77.4781 177.733 78.5511C177.917 79.5005 177.917 80.4818 177.733 81.4312C177.524 82.5042 176.991 83.5133 175.924 85.5315L140.003 153.52C138.939 155.534 138.407 156.54 137.663 157.273C137.005 157.921 136.23 158.41 135.388 158.709C134.436 159.047 133.374 159.047 131.248 159.047L65.2643 159.047C63.1389 159.047 62.0762 159.047 61.1247 158.709C60.2828 158.41 59.5077 157.921 58.8496 157.273C58.1058 156.54 57.5738 155.534 56.5099 153.52L20.5882 85.5315L20.5879 85.5311C19.5217 83.5131 18.9886 82.5041 18.78 81.4312C18.5954 80.4818 18.5954 79.5005 18.78 78.5511C18.9886 77.4782 19.522 76.4687 20.5882 74.4507L56.5099 6.4625C57.5739 4.44875 58.1059 3.44187 58.8496 2.70963C59.5077 2.06174 60.2828 1.57236 61.1247 1.27318C62.0762 0.935055 63.1389 0.935055 65.2644 0.935055L131.248 0.935057C133.374 0.935057 134.436 0.935057 135.388 1.27319C136.23 1.57236 137.005 2.06175 137.663 2.70964C138.407 3.44188 138.939 4.44875 140.003 6.4625Z" fill="url(#paint2_linear)"/>
<path d="M128.875 27.129L155.773 77.9163C156.571 79.4239 156.971 80.1777 157.127 80.9793C157.265 81.6885 157.265 82.4215 157.127 83.1307C156.971 83.9323 156.571 84.6861 155.773 86.1937L128.875 136.981C128.078 138.485 127.68 139.237 127.123 139.784C126.63 140.268 126.05 140.634 125.419 140.857C124.707 141.11 123.911 141.11 122.32 141.11L72.9113 141.11C71.3198 141.11 70.524 141.11 69.8115 140.857C69.1811 140.634 68.6008 140.268 68.108 139.784C67.5511 139.237 67.1527 138.485 66.356 136.981L39.4581 86.1937L39.4579 86.1933C38.6596 84.6859 38.2604 83.9322 38.1041 83.1307C37.9659 82.4215 37.9659 81.6885 38.1041 80.9793C38.2604 80.1778 38.6598 79.4237 39.4581 77.9163L66.356 27.129C67.1527 25.6247 67.5511 24.8726 68.108 24.3256C68.6008 23.8416 69.1811 23.4761 69.8116 23.2526C70.524 23 71.3198 23 72.9113 23L122.32 23C123.911 23 124.707 23 125.419 23.2526C126.05 23.4761 126.63 23.8416 127.123 24.3256C127.68 24.8726 128.078 25.6247 128.875 27.129Z" fill="url(#paint3_linear)"/>
<path fill-rule="evenodd" clip-rule="evenodd" d="M20.5879 85.5311L20.5882 85.5315L56.5099 153.52C57.5738 155.534 58.1058 156.54 58.8496 157.273C59.5077 157.921 60.2828 158.41 61.1247 158.709C62.0762 159.047 63.1389 159.047 65.2643 159.047L131.248 159.047C133.374 159.047 134.436 159.047 135.388 158.709C136.23 158.41 137.005 157.921 137.663 157.273C138.407 156.54 138.939 155.534 140.003 153.52L175.924 85.5315C176.991 83.5133 177.524 82.5042 177.733 81.4312C177.917 80.4818 177.917 79.5005 177.733 78.5511C177.524 77.4781 176.991 76.469 175.924 74.4507L140.003 6.4625C138.939 4.44875 138.407 3.44188 137.663 2.70964C137.005 2.06175 136.23 1.57236 135.388 1.27319C134.436 0.935057 133.374 0.935057 131.248 0.935057L65.2644 0.935055C63.1389 0.935055 62.0762 0.935055 61.1247 1.27318C60.2828 1.57236 59.5077 2.06174 58.8496 2.70963C58.1059 3.44187 57.5739 4.44875 56.5099 6.4625L20.5882 74.4507L20.5874 74.4521C19.5218 76.4692 18.9886 77.4784 18.78 78.5511C18.5954 79.5005 18.5954 80.4818 18.78 81.4312C18.9886 82.5041 19.5217 83.5131 20.5879 85.5311ZM61.9853 5.89468C61.8536 6.02438 61.6689 6.26583 60.4618 8.5505L24.5401 76.5387C23.3462 78.7984 23.2201 79.1334 23.1674 79.4043C23.0924 79.7902 23.0924 80.1921 23.1674 80.578C23.2201 80.8489 23.3461 81.1836 24.5398 83.443L24.5401 83.4435L24.5599 83.4811L24.5601 83.4813L60.4618 151.432C61.6689 153.716 61.8536 153.958 61.9853 154.088C62.1931 154.292 62.412 154.422 62.617 154.496C62.6506 154.504 62.7688 154.527 63.0442 154.545C63.5164 154.575 64.1455 154.578 65.2643 154.578L131.248 154.578C132.367 154.578 132.996 154.575 133.468 154.545C133.744 154.527 133.862 154.504 133.896 154.496C134.101 154.422 134.319 154.292 134.527 154.088C134.659 153.958 134.844 153.716 136.051 151.432L171.973 83.4435C173.167 81.1837 173.293 80.849 173.345 80.578L177.724 81.4295L173.345 80.5779C173.42 80.1921 173.42 79.7902 173.345 79.4043C173.293 79.1333 173.167 78.7985 171.973 76.5387L175.924 74.4507L171.973 76.5387L136.051 8.5505C134.844 6.26579 134.659 6.02438 134.527 5.8947C134.32 5.69016 134.101 5.55992 133.896 5.48633C133.862 5.47826 133.744 5.45542 133.468 5.43751C132.996 5.40682 132.367 5.40466 131.248 5.40466L65.2644 5.40466C64.1455 5.40466 63.5164 5.40682 63.0442 5.43751C62.7687 5.45541 62.6505 5.47825 62.617 5.48633C62.412 5.5599 62.1931 5.69011 61.9853 5.89468ZM62.6063 5.48931C62.6061 5.48923 62.6092 5.48822 62.6163 5.48649C62.6101 5.48852 62.6065 5.48939 62.6063 5.48931ZM133.906 5.48931C133.906 5.4894 133.903 5.48853 133.896 5.48649C133.903 5.48821 133.907 5.48922 133.906 5.48931ZM133.906 154.493C133.906 154.493 133.903 154.494 133.896 154.496C133.903 154.494 133.906 154.493 133.906 154.493Z" fill="url(#paint4_linear)"/>
<path fill-rule="evenodd" clip-rule="evenodd" d="M20.5879 85.5311L20.5882 85.5315L56.5099 153.52C57.5738 155.534 58.1058 156.54 58.8496 157.273C59.5077 157.921 60.2828 158.41 61.1247 158.709C62.0762 159.047 63.1389 159.047 65.2643 159.047L131.248 159.047C133.374 159.047 134.436 159.047 135.388 158.709C136.23 158.41 137.005 157.921 137.663 157.273C138.407 156.54 138.939 155.534 140.003 153.52L175.924 85.5315C176.991 83.5133 177.524 82.5042 177.733 81.4312C177.917 80.4818 177.917 79.5005 177.733 78.5511C177.524 77.4781 176.991 76.469 175.924 74.4507L140.003 6.4625C138.939 4.44875 138.407 3.44188 137.663 2.70964C137.005 2.06175 136.23 1.57236 135.388 1.27319C134.436 0.935057 133.374 0.935057 131.248 0.935057L65.2644 0.935055C63.1389 0.935055 62.0762 0.935055 61.1247 1.27318C60.2828 1.57236 59.5077 2.06174 58.8496 2.70963C58.1059 3.44187 57.5739 4.44875 56.5099 6.4625L20.5882 74.4507L20.5874 74.4521C19.5218 76.4692 18.9886 77.4784 18.78 78.5511C18.5954 79.5005 18.5954 80.4818 18.78 81.4312C18.9886 82.5041 19.5217 83.5131 20.5879 85.5311ZM61.9853 5.89468C61.8536 6.02438 61.6689 6.26583 60.4618 8.5505L24.5401 76.5387C23.3462 78.7984 23.2201 79.1334 23.1674 79.4043C23.0924 79.7902 23.0924 80.1921 23.1674 80.578C23.2201 80.8489 23.3461 81.1836 24.5398 83.443L24.5401 83.4435L24.5599 83.4811L24.5601 83.4813L60.4618 151.432C61.6689 153.716 61.8536 153.958 61.9853 154.088C62.1931 154.292 62.412 154.422 62.617 154.496C62.6506 154.504 62.7688 154.527 63.0442 154.545C63.5164 154.575 64.1455 154.578 65.2643 154.578L131.248 154.578C132.367 154.578 132.996 154.575 133.468 154.545C133.744 154.527 133.862 154.504 133.896 154.496C134.101 154.422 134.319 154.292 134.527 154.088C134.659 153.958 134.844 153.716 136.051 151.432L171.973 83.4435C173.167 81.1837 173.293 80.849 173.345 80.578L177.724 81.4295L173.345 80.5779C173.42 80.1921 173.42 79.7902 173.345 79.4043C173.293 79.1333 173.167 78.7985 171.973 76.5387L175.924 74.4507L171.973 76.5387L136.051 8.5505C134.844 6.26579 134.659 6.02438 134.527 5.8947C134.32 5.69016 134.101 5.55992 133.896 5.48633C133.862 5.47826 133.744 5.45542 133.468 5.43751C132.996 5.40682 132.367 5.40466 131.248 5.40466L65.2644 5.40466C64.1455 5.40466 63.5164 5.40682 63.0442 5.43751C62.7687 5.45541 62.6505 5.47825 62.617 5.48633C62.412 5.5599 62.1931 5.69011 61.9853 5.89468ZM62.6063 5.48931C62.6061 5.48923 62.6092 5.48822 62.6163 5.48649C62.6101 5.48852 62.6065 5.48939 62.6063 5.48931ZM133.906 5.48931C133.906 5.4894 133.903 5.48853 133.896 5.48649C133.903 5.48821 133.907 5.48922 133.906 5.48931ZM133.906 154.493C133.906 154.493 133.903 154.494 133.896 154.496C133.903 154.494 133.906 154.493 133.906 154.493Z" fill="url(#paint5_linear)" fill-opacity="0.55"/>
<g filter="url(#filter0_d)">
<path d="M96.3908 99.1665H119.437C125.813 99.1665 131 104.699 131 111.5C131 112.881 129.951 114 128.656 114H87.172C85.8776 114 84.8282 112.881 84.8282 111.5C84.8282 104.699 90.0152 99.1665 96.3908 99.1665ZM125.901 109C124.941 106.184 122.406 104.167 119.437 104.167H96.3908C93.4221 104.167 90.8874 106.184 89.9269 109H125.901ZM71.6864 94.9826L88.4668 77.0836L80.9053 69.018C79.9901 68.0418 79.9901 66.4584 80.9053 65.4822L94.7334 50.7322C95.6487 49.7559 97.1326 49.7559 98.0478 50.7322L116.486 70.3991C117.401 71.3754 117.401 72.9582 116.486 73.9345L102.657 88.6845C101.742 89.6607 100.258 89.6612 99.3426 88.6845L91.7812 80.6189L75.0013 98.518C74.086 99.4942 72.6017 99.4942 71.6864 98.518C70.7712 97.5417 70.7712 95.9589 71.6864 94.9826ZM101 83.3812L111.514 72.1666L96.3908 56.036L85.8772 67.2501L101 83.3812Z" fill="url(#paint6_linear)"/>
<path d="M95.3908 99.1665H118.437C124.813 99.1665 130 104.699 130 111.5C130 112.881 128.951 114 127.656 114H86.172C84.8776 114 83.8282 112.881 83.8282 111.5C83.8282 104.699 89.0152 99.1665 95.3908 99.1665ZM124.901 109C123.941 106.184 121.406 104.167 118.437 104.167H95.3908C92.4221 104.167 89.8874 106.184 88.9269 109H124.901ZM70.6864 94.9826L87.4668 77.0836L79.9053 69.018C78.9901 68.0418 78.9901 66.4584 79.9053 65.4822L93.7334 50.7322C94.6487 49.7559 96.1326 49.7559 97.0478 50.7322L115.486 70.3991C116.401 71.3754 116.401 72.9582 115.486 73.9345L101.657 88.6845C100.742 89.6607 99.2579 89.6612 98.3426 88.6845L90.7812 80.6189L74.0013 98.518C73.086 99.4942 71.6017 99.4942 70.6864 98.518C69.7712 97.5417 69.7712 95.9589 70.6864 94.9826ZM100 83.3812L110.514 72.1666L95.3908 56.036L84.8772 67.2501L100 83.3812Z" fill="url(#paint7_linear)"/>
<path d="M94.3908 99.1665H117.437C123.813 99.1665 129 104.699 129 111.5C129 112.881 127.951 114 126.656 114H85.172C83.8776 114 82.8282 112.881 82.8282 111.5C82.8282 104.699 88.0152 99.1665 94.3908 99.1665ZM123.901 109C122.941 106.184 120.406 104.167 117.437 104.167H94.3908C91.4221 104.167 88.8874 106.184 87.9269 109H123.901ZM69.6864 94.9826L86.4668 77.0836L78.9053 69.018C77.9901 68.0418 77.9901 66.4584 78.9053 65.4822L92.7334 50.7322C93.6487 49.7559 95.1326 49.7559 96.0478 50.7322L114.486 70.3991C115.401 71.3754 115.401 72.9582 114.486 73.9345L100.657 88.6845C99.7422 89.6607 98.2579 89.6612 97.3426 88.6845L89.7812 80.6189L73.0013 98.518C72.086 99.4942 70.6017 99.4942 69.6864 98.518C68.7712 97.5417 68.7712 95.9589 69.6864 94.9826ZM99.0001 83.3812L109.514 72.1666L94.3908 56.036L83.8772 67.2501L99.0001 83.3812Z" fill="url(#paint8_linear)"/>
<path d="M93.3908 99.1665H116.437C122.813 99.1665 128 104.699 128 111.5C128 112.881 126.951 114 125.656 114H84.172C82.8776 114 81.8282 112.881 81.8282 111.5C81.8282 104.699 87.0152 99.1665 93.3908 99.1665ZM122.901 109C121.941 106.184 119.406 104.167 116.437 104.167H93.3908C90.4221 104.167 87.8874 106.184 86.9269 109H122.901ZM68.6864 94.9826L85.4668 77.0836L77.9053 69.018C76.9901 68.0418 76.9901 66.4584 77.9053 65.4822L91.7334 50.7322C92.6487 49.7559 94.1326 49.7559 95.0478 50.7322L113.486 70.3991C114.401 71.3754 114.401 72.9582 113.486 73.9345L99.6575 88.6845C98.7422 89.6607 97.2579 89.6612 96.3426 88.6845L88.7812 80.6189L72.0013 98.518C71.086 99.4942 69.6017 99.4942 68.6864 98.518C67.7712 97.5417 67.7712 95.9589 68.6864 94.9826ZM98.0001 83.3812L108.514 72.1666L93.3908 56.036L82.8772 67.2501L98.0001 83.3812Z" fill="url(#paint9_linear)"/>
</g>
<path d="M97.3908 99.1665H120.437C126.813 99.1665 132 104.699 132 111.5C132 112.881 130.951 114 129.656 114H88.172C86.8776 114 85.8282 112.881 85.8282 111.5C85.8282 104.699 91.0152 99.1665 97.3908 99.1665ZM126.901 109C125.941 106.184 123.406 104.167 120.437 104.167H97.3908C94.4221 104.167 91.8874 106.184 90.9269 109H126.901ZM72.6864 94.9826L89.4668 77.0836L81.9053 69.018C80.9901 68.0418 80.9901 66.4584 81.9053 65.4822L95.7334 50.7322C96.6487 49.7559 98.1326 49.7559 99.0478 50.7322L117.486 70.3991C118.401 71.3754 118.401 72.9582 117.486 73.9345L103.657 88.6845C102.742 89.6607 101.258 89.6612 100.343 88.6845L92.7812 80.6189L76.0013 98.518C75.086 99.4942 73.6017 99.4942 72.6864 98.518C71.7712 97.5417 71.7712 95.9589 72.6864 94.9826ZM102 83.3812L112.514 72.1666L97.3908 56.036L86.8772 67.2501L102 83.3812Z" fill="url(#paint10_linear)"/>
<defs>
<filter id="filter0_d" x="68" y="50" width="65" height="66" filterUnits="userSpaceOnUse" color-interpolation-filters="sRGB">
<feFlood flood-opacity="0" result="BackgroundImageFix"/>
<feColorMatrix in="SourceAlpha" type="matrix" values="0 0 0 0 0 0 0 0 0 0 0 0 0 0 0 0 0 0 127 0"/>
<feOffset dx="2" dy="2"/>
<feColorMatrix type="matrix" values="0 0 0 0 0 0 0 0 0 0 0 0 0 0 0 0 0 0 0.15 0"/>
<feBlend mode="normal" in2="BackgroundImageFix" result="effect1_dropShadow"/>
<feBlend mode="normal" in="SourceGraphic" in2="effect1_dropShadow" result="shape"/>
</filter>
<linearGradient id="paint0_linear" x1="91.814" y1="0.935189" x2="92.1846" y2="159.047" gradientUnits="userSpaceOnUse">
<stop stop-color="#5D5C5D"/>
<stop offset="0.15625" stop-color="#393939"/>
<stop offset="0.296875" stop-color="#2B292A"/>
<stop offset="0.507989" stop-color="#605E5F"/>
<stop offset="0.816305" stop-color="#262629"/>
<stop offset="1" stop-color="#1A1A1E"/>
</linearGradient>
<linearGradient id="paint1_linear" x1="61.3837" y1="1.49389" x2="61.3837" y2="159.606" gradientUnits="userSpaceOnUse">
<stop stop-color="white" stop-opacity="0.22"/>
<stop offset="0.484375" stop-color="white" stop-opacity="0.21"/>
<stop offset="0.510417" stop-color="white" stop-opacity="0"/>
</linearGradient>
<linearGradient id="paint2_linear" x1="94.4287" y1="0.655709" x2="94.4287" y2="158.768" gradientUnits="userSpaceOnUse">
<stop offset="0.494767" stop-color="#2B292A"/>
<stop offset="0.712602" stop-color="#424041"/>
<stop offset="1" stop-color="#868585"/>
</linearGradient>
<linearGradient id="paint3_linear" x1="126.015" y1="23.3012" x2="96.5321" y2="141.32" gradientUnits="userSpaceOnUse">
<stop offset="0.494767" stop-color="#272626"/>
<stop offset="0.712602" stop-color="#424041"/>
<stop offset="1" stop-color="#868585"/>
</linearGradient>
<linearGradient id="paint4_linear" x1="137.043" y1="0.655709" x2="65.4781" y2="158.809" gradientUnits="userSpaceOnUse">
<stop offset="0.609375" stop-color="#838383"/>
<stop offset="0.788158" stop-color="#403E3F"/>
<stop offset="1" stop-color="#2C2A2B"/>
</linearGradient>
<linearGradient id="paint5_linear" x1="55.1316" y1="0.65571" x2="87.0902" y2="49.7734" gradientUnits="userSpaceOnUse">
<stop stop-color="white" stop-opacity="0.4"/>
<stop offset="1" stop-color="white" stop-opacity="0"/>
</linearGradient>
<linearGradient id="paint6_linear" x1="112.011" y1="51.8548" x2="104.921" y2="114.847" gradientUnits="userSpaceOnUse">
<stop stop-color="#767676"/>
<stop offset="0.135417" stop-color="#606060"/>
<stop offset="0.630208" stop-color="#F8F8F8"/>
<stop offset="1" stop-color="#F8F8F8"/>
</linearGradient>
<linearGradient id="paint7_linear" x1="112.011" y1="51.8548" x2="104.921" y2="114.847" gradientUnits="userSpaceOnUse">
<stop stop-color="#767676"/>
<stop offset="0.135417" stop-color="#606060"/>
<stop offset="0.630208" stop-color="#F8F8F8"/>
<stop offset="1" stop-color="#F8F8F8"/>
</linearGradient>
<linearGradient id="paint8_linear" x1="112.011" y1="51.8548" x2="104.921" y2="114.847" gradientUnits="userSpaceOnUse">
<stop stop-color="#767676"/>
<stop offset="0.135417" stop-color="#606060"/>
<stop offset="0.630208" stop-color="#F8F8F8"/>
<stop offset="1" stop-color="#F8F8F8"/>
</linearGradient>
<linearGradient id="paint9_linear" x1="112.011" y1="51.8548" x2="104.921" y2="114.847" gradientUnits="userSpaceOnUse">
<stop stop-color="#767676"/>
<stop offset="0.135417" stop-color="#606060"/>
<stop offset="0.630208" stop-color="#F8F8F8"/>
<stop offset="1" stop-color="#F8F8F8"/>
</linearGradient>
<linearGradient id="paint10_linear" x1="88.5" y1="51.8699" x2="140.439" y2="94.9063" gradientUnits="userSpaceOnUse">
<stop stop-color="#F8F8F8"/>
<stop offset="1" stop-color="#BEBEBE"/>
</linearGradient>
</defs>
</svg>
