<svg width="193" height="47" viewBox="0 0 193 47" fill="none" xmlns="http://www.w3.org/2000/svg">
<path d="M41.6943 23.3453C41.6962 19.7357 40.6468 16.2037 38.6744 13.1807L46.0044 5.85003L40.4994 0.34375L33.1741 7.67443C30.1503 5.70256 26.6184 4.65267 23.0085 4.65267C19.3986 4.65267 15.8666 5.70256 12.8429 7.67443L5.50628 0.34375L0 5.85003L7.33068 13.18C5.35881 16.2038 4.30892 19.7357 4.30892 23.3456C4.30892 26.9555 5.35881 30.4875 7.33068 33.5112L0 40.8425L5.50628 46.3488L12.837 39.0181C15.8607 40.99 19.3926 42.0399 23.0025 42.0399C26.6124 42.0399 30.1444 40.99 33.1681 39.0181L40.4988 46.3488L46.0044 40.8425L38.6744 33.5178C40.6483 30.4925 41.6977 26.9576 41.6943 23.3453ZM12.0982 23.3453C12.0953 21.7185 12.4565 20.1116 13.1552 18.6425C13.8539 17.1733 14.8725 15.8792 16.1362 14.8548C17.4 13.8304 18.877 13.1017 20.4589 12.7222C22.0409 12.3427 23.6877 12.3219 25.2787 12.6614C26.8697 13.001 28.3646 13.6922 29.6538 14.6844C30.943 15.6766 31.9938 16.9447 32.7293 18.3958C33.4649 19.8468 33.8664 21.4441 33.9045 23.0705C33.9426 24.6968 33.6164 26.3111 32.9496 27.7951L25.7567 20.5921L20.2484 26.0997L27.444 33.2934C25.7849 34.0394 23.9653 34.3576 22.1515 34.219C20.3377 34.0803 18.5876 33.4892 17.0611 32.4997C15.5347 31.5102 14.2807 30.1538 13.4137 28.5546C12.5467 26.9554 12.0944 25.1644 12.0982 23.3453Z" fill="#4CBBFD"/>
<path fill-rule="evenodd" clip-rule="evenodd" d="M71.0765 24.4456C71.0765 27.7324 69.4099 30.6998 66.4421 32.0691L68.0172 34.1235L64.7754 35.7676L62.6065 32.8916H62.5383C57.1731 32.8916 54 28.9884 54 24.4461C54 19.9032 57.1731 16 62.5383 16C67.903 16 71.0765 19.9032 71.0765 24.4461V24.4456ZM62.5383 29.5811C65.5744 29.5811 67.2178 27.2301 67.2178 24.4456C67.2178 21.6605 65.5744 19.3095 62.5383 19.3095C59.4789 19.3095 57.8351 21.6605 57.8583 24.4456C57.8351 27.2301 59.4794 29.5811 62.5378 29.5811H62.5383ZM77.0578 32.731C74.4093 32.731 72.9943 31.0879 72.9943 28.2346V21.4322H76.5327V27.4585C76.5327 28.9647 77.035 29.7868 78.3591 29.7868C79.8427 29.7868 80.482 28.8278 80.482 27.3443V21.4322H83.9522V32.4349H80.4825V30.8595C79.866 32.0236 78.7244 32.7315 77.0578 32.7315V32.731ZM91.2347 32.731C87.9474 32.731 86.0524 30.2431 86.0524 26.9335C86.0524 23.6463 88.0849 21.1356 91.2807 21.1356C92.8786 21.1356 94.1343 21.8889 94.7276 23.0071V21.4322H98.1978V32.4349H94.7281V30.8822C94.1343 31.9781 92.7644 32.7315 91.2347 32.7315V32.731ZM92.2393 29.8327C93.9746 29.8327 94.8651 28.5312 94.8651 26.9335C94.8651 25.3586 93.9746 24.0575 92.2393 24.0575C90.6182 24.0575 89.614 25.2672 89.614 26.9335C89.614 28.5999 90.6187 29.8323 92.2393 29.8323V29.8327ZM101.097 21.4322H104.59V23.0303C105.229 21.7975 106.485 21.1356 108.152 21.1356C110.823 21.1356 112.17 22.6423 112.17 25.6325V32.4339H108.654V26.7729C108.654 24.9246 108.129 24.0798 106.713 24.0798C105.321 24.0798 104.59 24.9928 104.59 26.6819V32.4339H101.097V21.4322ZM120.731 29.7181C121.165 29.7181 121.621 29.6953 121.94 29.6499V32.4344C121.439 32.5259 120.616 32.6173 119.612 32.6173C117.968 32.6173 115.708 32.252 115.708 28.5772V24.194H113.973V21.4317H115.708V18.1676H119.201V21.4317H121.69V24.194H119.201V27.8461C119.201 29.467 119.863 29.7176 120.731 29.7176V29.7181ZM128.356 32.777C125.137 32.777 123.151 31.202 123.151 29.1249H126.62C126.62 29.8782 127.351 30.4259 128.424 30.4259C129.178 30.4259 129.703 30.0379 129.703 29.3987C129.703 28.9647 129.497 28.5999 128.903 28.463L126.21 27.7778C124.384 27.3216 123.447 26.1802 123.447 24.6052C123.447 22.5508 125.251 21.1128 128.15 21.1128C131.37 21.1128 133.059 22.4594 133.059 24.5365H129.611C129.611 23.7604 129.04 23.3269 128.105 23.3269C127.351 23.3269 126.849 23.6922 126.849 24.2399C126.849 24.7422 127.191 25.0615 127.785 25.2217L130.388 25.9291C132.077 26.3858 133.173 27.4125 133.173 28.9879C133.173 31.2475 131.37 32.7765 128.356 32.7765V32.777ZM141.118 29.7181C141.551 29.7181 142.008 29.6953 142.327 29.6499V32.4344C141.825 32.5259 141.003 32.6173 139.999 32.6173C138.355 32.6173 136.095 32.252 136.095 28.5772V24.194H134.36V21.4317H136.095V18.1676H139.588V21.4317H142.076V24.194H139.588V27.8461C139.588 29.467 140.25 29.7176 141.117 29.7176L141.118 29.7181ZM148.72 32.7315C145.432 32.7315 143.537 30.2431 143.537 26.9335C143.537 23.6463 145.57 21.1356 148.765 21.1356C150.363 21.1356 151.619 21.8889 152.213 23.0071V21.4322H155.683V32.4349H152.213V30.8822C151.619 31.9781 150.249 32.7315 148.72 32.7315ZM149.724 29.8323C151.459 29.8323 152.35 28.5312 152.35 26.9335C152.35 25.3586 151.459 24.0575 149.724 24.0575C148.103 24.0575 147.099 25.2672 147.099 26.9335C147.099 28.5999 148.103 29.8323 149.724 29.8323ZM158.582 21.4327H162.075V23.0303C162.554 21.9344 163.696 21.1356 165.225 21.1356C167.189 21.1356 168.193 22.0031 168.673 23.1673C169.266 21.9804 170.567 21.1356 172.189 21.1356C175.339 21.1356 176.092 23.3042 176.092 25.6097V32.4339H172.577V26.2484C172.577 24.7194 172.006 24.0803 170.933 24.0803C169.837 24.0803 169.084 24.6962 169.084 26.7739V32.4349H165.568V26.2252C165.568 24.6962 165.02 24.0798 163.947 24.0798C162.829 24.0798 162.075 24.6957 162.075 26.7734V32.4344H158.582V21.4317V21.4327ZM178.855 21.4327H182.348V23.0071C182.919 21.9571 184.288 21.1356 185.932 21.1356C188.945 21.1356 191 23.4638 191 26.9335C191 30.38 188.877 32.7315 185.84 32.7315C184.219 32.7315 182.896 31.9094 182.348 30.8822V37H178.855V21.4322V21.4327ZM184.836 29.8323C186.366 29.8323 187.439 28.6454 187.439 26.9335C187.439 25.2444 186.366 24.0575 184.836 24.0575C183.261 24.0575 182.188 25.2217 182.188 26.9335C182.188 28.6681 183.284 29.8323 184.836 29.8323H184.836ZM189.856 21.6368C189.66 21.6368 189.488 21.5933 189.343 21.5062C189.199 21.4219 189.082 21.2988 189.005 21.1511C188.926 20.9964 188.885 20.8246 188.888 20.6508C188.888 20.4693 188.927 20.3038 189.005 20.1538C189.084 20.0043 189.196 19.8863 189.342 19.7992C189.488 19.7121 189.66 19.6685 189.856 19.6685C190.049 19.6685 190.22 19.7121 190.367 19.7992C190.514 19.8863 190.627 20.0043 190.706 20.1538C190.784 20.3038 190.823 20.4693 190.823 20.6508C190.823 20.8346 190.784 21.0015 190.706 21.1511C190.627 21.301 190.514 21.4191 190.367 21.5062C190.22 21.5933 190.05 21.6368 189.856 21.6368ZM189.856 21.4752C190.013 21.4752 190.15 21.438 190.268 21.3644C190.385 21.2909 190.476 21.1917 190.538 21.0664C190.601 20.9415 190.632 20.8027 190.632 20.6508C190.632 20.5008 190.601 20.3638 190.538 20.2385C190.478 20.1157 190.384 20.0124 190.267 19.9405C190.144 19.8653 190.001 19.827 189.856 19.8301C189.699 19.8301 189.561 19.8669 189.443 19.9405C189.326 20.0145 189.235 20.1137 189.171 20.2385C189.107 20.3663 189.074 20.5077 189.075 20.6508C189.075 20.8027 189.107 20.9411 189.171 21.0669C189.235 21.1917 189.326 21.2909 189.443 21.3644C189.561 21.438 189.699 21.4752 189.856 21.4752ZM189.506 20.1171H189.911C190.014 20.1171 190.098 20.1524 190.165 20.2221C190.197 20.2555 190.222 20.295 190.239 20.3382C190.257 20.3815 190.265 20.4277 190.264 20.4741C190.265 20.5468 190.244 20.618 190.203 20.6783C190.162 20.7388 190.102 20.7835 190.032 20.8051L190.257 21.1583H190.076L189.871 20.824H189.668V21.1588H189.506V20.1171ZM189.9 20.6841C189.927 20.6853 189.955 20.6805 189.98 20.67C190.006 20.6595 190.029 20.6435 190.047 20.6232C190.084 20.5825 190.104 20.5291 190.102 20.4741C190.104 20.418 190.085 20.3632 190.047 20.3213C190.028 20.301 190.006 20.2851 189.98 20.2747C189.955 20.2643 189.927 20.2595 189.9 20.2608H189.672V20.6841H189.9Z" fill="#4CBBFD"/>
</svg>
