<svg width="642" height="531" viewBox="0 0 642 531" fill="none" xmlns="http://www.w3.org/2000/svg">
<g clip-path="url(#clip0)">
<path d="M571.271 354.539C596.877 361.4 623.197 346.204 630.058 320.598C636.92 294.991 621.724 268.671 596.117 261.81C570.511 254.949 544.191 270.145 537.33 295.751C530.468 321.358 545.664 347.678 571.271 354.539Z" fill="url(#paint0_linear)"/>
<path d="M562.364 352.152C587.97 359.013 614.29 343.817 621.151 318.211C628.012 292.605 612.816 266.285 587.21 259.423C561.604 252.562 535.284 267.758 528.422 293.364C521.561 318.971 536.757 345.291 562.364 352.152Z" fill="url(#paint1_linear)"/>
<path fill-rule="evenodd" clip-rule="evenodd" d="M562.841 350.371C587.463 356.969 612.773 342.357 619.37 317.734C625.968 293.111 611.356 267.802 586.733 261.204C562.11 254.607 536.801 269.219 530.203 293.842C523.606 318.464 538.218 343.773 562.841 350.371ZM621.151 318.211C614.29 343.817 587.97 359.013 562.364 352.152C536.757 345.291 521.561 318.971 528.422 293.364C535.284 267.758 561.604 252.562 587.21 259.423C612.816 266.285 628.012 292.605 621.151 318.211Z" fill="url(#paint2_linear)"/>
<path fill-rule="evenodd" clip-rule="evenodd" d="M562.841 350.371C587.463 356.969 612.773 342.357 619.37 317.734C625.968 293.111 611.356 267.802 586.733 261.204C562.11 254.607 536.801 269.219 530.203 293.842C523.606 318.464 538.218 343.773 562.841 350.371ZM621.151 318.211C614.29 343.817 587.97 359.013 562.364 352.152C536.757 345.291 521.561 318.971 528.422 293.364C535.284 267.758 561.604 252.562 587.21 259.423C612.816 266.285 628.012 292.605 621.151 318.211Z" fill="url(#paint3_linear)"/>
<g filter="url(#filter0_d)">
<path d="M582.622 303.582C578.883 301.015 574.784 298.023 572.733 295.29C571.972 294.277 571.988 292.566 572.773 290.932C573.549 289.317 575.252 287.566 577.702 287.49C583.173 287.322 585.829 290.852 586.114 291.256C587.43 293.119 590.009 293.563 591.873 292.246C593.737 290.929 594.18 288.351 592.863 286.487C592.307 285.7 590.181 282.964 586.341 281.083L586.946 278.824C587.537 276.62 586.229 274.354 584.024 273.763C581.82 273.173 579.554 274.481 578.964 276.685L578.284 279.222C578.009 279.219 577.731 279.222 577.448 279.231C572.302 279.389 567.657 282.501 565.325 287.352C563.186 291.803 563.492 296.746 566.124 300.252C568.355 303.225 571.78 306.164 577.945 310.396C582.427 313.472 581.24 317.465 580.521 319.039C579.089 322.176 575.374 324.985 570.605 323.742C566.171 322.585 564.734 321.944 561.885 318.758C560.363 317.057 557.751 316.911 556.05 318.433C554.349 319.954 554.203 322.566 555.724 324.267C558.881 327.797 561.344 329.394 564.533 330.546L563.854 333.08C563.263 335.284 564.571 337.549 566.775 338.14C568.979 338.731 571.245 337.423 571.836 335.218L572.617 332.304C579.761 332.413 585.582 327.849 588.038 322.471C591.242 315.454 589.116 308.04 582.622 303.582Z" fill="url(#paint4_linear)"/>
<path d="M583.512 303.82C579.773 301.254 575.674 298.262 573.623 295.529C572.863 294.516 572.879 292.805 573.664 291.171C574.44 289.556 576.142 287.804 578.593 287.729C584.064 287.56 586.719 291.091 587.004 291.494C588.32 293.358 590.9 293.801 592.763 292.485C594.627 291.168 595.07 288.589 593.754 286.726C593.197 285.939 591.071 283.203 587.231 281.322L587.837 279.063C588.427 276.858 587.119 274.593 584.915 274.002C582.711 273.411 580.445 274.72 579.854 276.924L579.175 279.461C578.9 279.458 578.622 279.46 578.339 279.469C573.193 279.627 568.548 282.74 566.216 287.591C564.076 292.042 564.383 296.984 567.014 300.491C569.246 303.464 572.67 306.402 578.835 310.634C583.317 313.711 582.13 317.704 581.412 319.277C579.979 322.414 576.265 325.224 571.495 323.98C567.061 322.823 565.624 322.183 562.775 318.997C561.254 317.296 558.642 317.149 556.94 318.671C555.239 320.193 555.094 322.805 556.615 324.506C559.772 328.036 562.235 329.633 565.423 330.784L564.744 333.318C564.153 335.522 565.462 337.788 567.666 338.379C569.87 338.969 572.136 337.661 572.726 335.457L573.507 332.543C580.652 332.651 586.473 328.088 588.929 322.71C592.132 315.693 590.006 308.278 583.512 303.82Z" fill="url(#paint5_linear)"/>
<path d="M584.403 304.059C580.664 301.493 576.565 298.5 574.514 295.768C573.753 294.754 573.769 293.043 574.554 291.409C575.33 289.795 577.033 288.043 579.483 287.967C584.954 287.799 587.61 291.329 587.895 291.733C589.211 293.596 591.79 294.04 593.654 292.723C595.518 291.406 595.961 288.828 594.644 286.964C594.088 286.177 591.962 283.441 588.122 281.56L588.727 279.301C589.318 277.097 588.01 274.831 585.805 274.241C583.601 273.65 581.336 274.958 580.745 277.162L580.065 279.699C579.79 279.696 579.512 279.699 579.229 279.708C574.084 279.866 569.438 282.978 567.106 287.83C564.967 292.28 565.273 297.223 567.905 300.729C570.136 303.702 573.561 306.641 579.726 310.873C584.208 313.95 583.021 317.942 582.302 319.516C580.87 322.653 577.155 325.463 572.386 324.219C567.952 323.062 566.515 322.422 563.666 319.235C562.144 317.534 559.532 317.388 557.831 318.91C556.13 320.431 555.984 323.044 557.506 324.745C560.662 328.275 563.125 329.871 566.314 331.023L565.635 333.557C565.044 335.761 566.352 338.027 568.556 338.617C570.761 339.208 573.026 337.9 573.617 335.696L574.398 332.782C581.542 332.89 587.363 328.327 589.819 322.949C593.023 315.932 590.897 308.517 584.403 304.059Z" fill="url(#paint6_linear)"/>
<path d="M585.293 304.298C581.554 301.731 577.456 298.739 575.404 296.006C574.644 294.993 574.66 293.282 575.445 291.648C576.221 290.033 577.923 288.281 580.374 288.206C585.845 288.038 588.5 291.568 588.785 291.971C590.101 293.835 592.681 294.279 594.544 292.962C596.408 291.645 596.852 289.067 595.535 287.203C594.978 286.416 592.852 283.68 589.012 281.799L589.618 279.54C590.208 277.336 588.9 275.07 586.696 274.479C584.492 273.889 582.226 275.197 581.635 277.401L580.956 279.938C580.681 279.935 580.403 279.938 580.12 279.946C574.974 280.105 570.329 283.217 567.997 288.068C565.857 292.519 566.164 297.462 568.795 300.968C571.027 303.941 574.452 306.879 580.617 311.111C585.098 314.188 583.911 318.181 583.193 319.755C581.76 322.892 578.046 325.701 573.276 324.457C568.842 323.3 567.405 322.66 564.556 319.474C563.035 317.773 560.423 317.627 558.722 319.148C557.02 320.67 556.875 323.282 558.396 324.983C561.553 328.513 564.016 330.11 567.204 331.262L566.525 333.795C565.935 336 567.243 338.265 569.447 338.856C571.651 339.447 573.917 338.138 574.507 335.934L575.288 333.02C582.433 333.129 588.254 328.565 590.71 323.187C593.913 316.17 591.787 308.756 585.293 304.298Z" fill="url(#paint7_linear)"/>
</g>
<path d="M581.73 303.344C577.991 300.777 573.892 297.785 571.841 295.052C571.081 294.039 571.097 292.328 571.882 290.694C572.658 289.079 574.36 287.327 576.81 287.252C582.281 287.083 584.937 290.614 585.222 291.017C586.538 292.881 589.117 293.325 590.981 292.008C592.845 290.691 593.288 288.113 591.972 286.249C591.415 285.462 589.289 282.726 585.449 280.845L586.054 278.586C586.645 276.382 585.337 274.116 583.133 273.525C580.929 272.935 578.663 274.243 578.072 276.447L577.392 278.984C577.118 278.981 576.839 278.984 576.556 278.992C571.411 279.151 566.766 282.263 564.434 287.114C562.294 291.565 562.6 296.508 565.232 300.014C567.463 302.987 570.888 305.925 577.053 310.157C581.535 313.234 580.348 317.227 579.63 318.801C578.197 321.938 574.483 324.747 569.713 323.503C565.279 322.346 563.842 321.706 560.993 318.52C559.472 316.819 556.859 316.672 555.158 318.194C553.457 319.716 553.312 322.328 554.833 324.029C557.99 327.559 560.453 329.156 563.641 330.308L562.962 332.841C562.371 335.046 563.679 337.311 565.884 337.902C568.088 338.493 570.354 337.184 570.944 334.98L571.725 332.066C578.87 332.175 584.691 327.611 587.147 322.233C590.35 315.216 588.224 307.802 581.73 303.344Z" fill="url(#paint8_linear)"/>
<path d="M288 58.204C288 42.6274 300.644 30 316.241 30L488.759 30C504.356 30 517 42.6274 517 58.204V461.796C517 477.373 504.356 490 488.759 490L316.241 490C300.644 490 288 477.373 288 461.796V58.204Z" fill="url(#paint9_linear)"/>
<path d="M265.002 58.5264C265.002 42.956 277.631 30.3337 293.211 30.3337L465.534 30.3337C481.113 30.3337 493.742 42.956 493.742 58.5264V461.955C493.742 477.526 481.113 490.148 465.534 490.148L293.211 490.148C277.631 490.148 265.002 477.526 265.002 461.955V58.5264Z" fill="url(#paint10_linear)"/>
<path fill-rule="evenodd" clip-rule="evenodd" d="M378.307 462.635L371.822 466.716V469.52C372.604 469.043 373.632 468.418 374.657 467.796C375.686 467.171 376.713 466.548 377.481 466.082C377.81 465.883 378.092 465.712 378.307 465.582V462.635ZM379.205 467.297C378.99 467.428 378.704 467.6 378.37 467.803C377.602 468.269 376.576 468.891 375.547 469.516C374.517 470.141 373.484 470.769 372.702 471.246C372.35 471.461 372.049 471.645 371.822 471.784V475.78L374.136 477.251V473.749C374.136 473.39 374.313 473.058 374.601 472.879L381.421 468.64L379.205 467.297ZM382.365 466.953L380.127 465.596V462.635L382.365 464.043V466.953ZM384.185 465.189V468.614C384.185 468.974 384.007 469.306 383.719 469.485C383.719 469.485 383.719 469.485 383.719 469.485L376.883 473.734L379.32 475.213L386.612 470.729V466.716L384.185 465.189ZM386.612 472.997L380.127 476.984V479.905L386.612 475.78V472.997ZM378.307 479.905V476.858L375.956 475.431V478.409L378.307 479.905ZM371.391 472.051C371.391 472.051 371.393 472.05 371.397 472.047C371.394 472.049 371.391 472.051 371.391 472.051ZM378.569 460.189C378.97 459.937 379.464 459.937 379.865 460.189L387.791 465.178C388.188 465.428 388.432 465.888 388.432 466.385V476.109C388.432 476.604 388.19 477.063 387.796 477.314L379.87 482.355C379.467 482.612 378.967 482.612 378.564 482.355L370.638 477.314C370.244 477.063 370.002 476.604 370.002 476.109V466.385C370.002 465.888 370.246 465.428 370.644 465.178L378.569 460.189Z" fill="white" fill-opacity="0.2"/>
<path fill-rule="evenodd" clip-rule="evenodd" d="M465.759 32.0008L293.241 32.0008C278.749 32.0008 267.002 43.7335 267.002 58.204V461.796C267.002 476.267 278.749 487.999 293.241 487.999L465.759 487.999C480.251 487.999 491.998 476.267 491.998 461.796V58.204C491.998 43.7334 480.251 32.0008 465.759 32.0008ZM293.241 30C277.644 30 265 42.6274 265 58.204V461.796C265 477.373 277.644 490 293.241 490L465.759 490C481.356 490 494 477.373 494 461.796V58.204C494 42.6274 481.356 30 465.759 30L293.241 30Z" fill="url(#paint11_linear)"/>
<path fill-rule="evenodd" clip-rule="evenodd" d="M465.759 32.0008L293.241 32.0008C278.749 32.0008 267.002 43.7335 267.002 58.204V461.796C267.002 476.267 278.749 487.999 293.241 487.999L465.759 487.999C480.251 487.999 491.998 476.267 491.998 461.796V58.204C491.998 43.7334 480.251 32.0008 465.759 32.0008ZM293.241 30C277.644 30 265 42.6274 265 58.204V461.796C265 477.373 277.644 490 293.241 490L465.759 490C481.356 490 494 477.373 494 461.796V58.204C494 42.6274 481.356 30 465.759 30L293.241 30Z" fill="url(#paint12_linear)"/>
<path d="M272.002 61.2341C272.002 48.4023 282.296 38 294.995 38L464.009 38C476.708 38 487.002 48.4023 487.002 61.2341V439.383C487.002 445.799 481.855 451 475.506 451L283.498 451C277.149 451 272.002 445.799 272.002 439.383V61.2341Z" fill="url(#paint13_linear)"/>
<path fill-rule="evenodd" clip-rule="evenodd" d="M465.527 38.0101L293.368 38.0101C281.541 38.0101 271.954 47.6132 271.954 59.4591V441.27C271.954 446.638 276.298 450.99 281.657 450.99L477.237 450.99C482.596 450.99 486.94 446.638 486.94 441.27V59.4591C486.94 47.6132 477.353 38.0101 465.527 38.0101ZM293.368 36C280.433 36 269.947 46.503 269.947 59.4591V441.27C269.947 447.749 275.19 453 281.657 453L477.237 453C483.704 453 488.947 447.749 488.947 441.27V59.4591C488.947 46.503 478.462 36 465.527 36L293.368 36Z" fill="#444444"/>
<mask id="mask0" style="mask-type:alpha" maskUnits="userSpaceOnUse" x="270" y="38" width="218" height="413">
<path d="M471.915 451V430.238C471.915 427.707 472.764 425.367 474.142 424.097L487.002 412.244V280.593V208.407V76.7557L474.142 64.9032C472.764 63.6328 471.915 61.2931 471.915 58.7619V38H397.6H360.349H286.034V58.7619C286.034 61.2931 285.186 63.6328 283.807 64.9032L270.947 76.7557V208.407V280.593V412.244L283.807 424.097C285.186 425.367 286.034 427.707 286.034 430.238V451H360.349H397.6H471.915Z" fill="url(#paint14_linear)"/>
</mask>
<g mask="url(#mask0)">
<path d="M271.938 451H313.838V343.384H271.938V451Z" fill="url(#paint15_linear)"/>
<path d="M272.679 324.953H379.469V201.878H272.679V324.953Z" fill="url(#paint16_linear)"/>
<path d="M324.591 201.878H379.469V181.663H324.591V201.878Z" fill="url(#paint17_linear)"/>
<path d="M284.174 127.558H331.636V76.4254H284.174V127.558Z" fill="url(#paint18_linear)"/>
<path d="M323.479 144.206H379.469V35.9951H323.479V144.206Z" fill="url(#paint19_linear)"/>
<path d="M271.938 181.663H371.312V162.042H271.938V181.663Z" fill="url(#paint20_linear)"/>
<path d="M284.174 161.448V76.4254H271.938L271.938 161.448H284.174Z" fill="url(#paint21_linear)"/>
<path d="M309.388 76.4254L309.388 35.9951H297.152V76.4254H309.388Z" fill="url(#paint22_linear)"/>
<path d="M324.591 393.922H343.873V324.953H324.591V393.922Z" fill="url(#paint23_linear)"/>
<path d="M352.772 393.922H379.469V343.384H352.772V393.922Z" fill="url(#paint24_linear)"/>
<path d="M337.569 393.922H356.851V367.761H337.569V393.922Z" fill="url(#paint25_linear)"/>
<path d="M487.001 451H445.101V343.384H487.001V451Z" fill="url(#paint26_linear)"/>
<path d="M486.26 324.953H379.469V201.878H486.26V324.953Z" fill="url(#paint27_linear)"/>
<path d="M434.348 201.878H379.469V181.663H434.348V201.878Z" fill="url(#paint28_linear)"/>
<path d="M474.765 127.558H427.302V76.4254H474.765V127.558Z" fill="url(#paint29_linear)"/>
<path d="M435.46 144.206H379.469V35.9951H435.46V144.206Z" fill="url(#paint30_linear)"/>
<path d="M487.001 181.663H395.043V162.042H487.001V181.663Z" fill="url(#paint31_linear)"/>
<path d="M474.765 161.448V76.4254H487.001V161.448H474.765Z" fill="url(#paint32_linear)"/>
<path d="M449.55 76.4254V35.9951H461.787V76.4254H449.55Z" fill="url(#paint33_linear)"/>
<path d="M434.348 393.922H415.066V324.953H434.348V393.922Z" fill="url(#paint34_linear)"/>
<path d="M406.167 393.922H379.469V343.384H406.167V393.922Z" fill="url(#paint35_linear)"/>
<path d="M421.37 393.922H402.088V367.761H421.37V393.922Z" fill="url(#paint36_linear)"/>
</g>
<path d="M272.002 61.2341C272.002 48.4023 282.296 38 294.995 38L464.009 38C476.708 38 487.002 48.4023 487.002 61.2341V439.383C487.002 445.799 481.855 451 475.506 451L283.498 451C277.149 451 272.002 445.799 272.002 439.383V61.2341Z" fill="url(#paint37_linear)" fill-opacity="0.5"/>
<path d="M355.002 55.5C355.002 53.567 356.569 52 358.502 52H395.487C397.42 52 398.987 53.567 398.987 55.5V56.7065C398.987 58.6395 397.42 60.2065 395.487 60.2065H358.502C356.569 60.2065 355.002 58.6395 355.002 56.7065V55.5Z" fill="white" fill-opacity="0.35"/>
<path d="M42.6891 227.805L90.7246 235.811V171.763L42.6891 179.769V227.805Z" fill="url(#paint38_linear)"/>
<g filter="url(#filter1_d)">
<path d="M300.873 395.929H340.902L356.914 251.822H316.884L300.873 395.929Z" fill="url(#paint39_linear)"/>
</g>
<path d="M290.873 395.929H330.902L346.914 251.822H306.884L290.873 395.929Z" fill="url(#paint40_linear)"/>
<path d="M306.884 363.905H354.92V283.846H290.873C282.03 283.846 274.861 291.016 274.861 299.858C274.861 308.7 282.03 315.87 290.873 315.87V347.894C290.873 356.736 298.042 363.905 306.884 363.905Z" fill="#FEC9A3"/>
<path d="M477.002 283.846H364.919V363.905H477.002V283.846Z" fill="url(#paint41_linear)"/>
<path d="M477.002 283.846H364.919V363.905H477.002V283.846Z" fill="white" fill-opacity="0.1"/>
<path d="M467.002 283.846H354.919V363.905H467.002V283.846Z" fill="url(#paint42_linear)"/>
<path d="M467.002 283.846H354.919V363.905H467.002V283.846Z" fill="url(#paint43_linear)" fill-opacity="0.23"/>
<path fill-rule="evenodd" clip-rule="evenodd" d="M356.919 285.846H465.002V361.905H356.919V285.846ZM467.002 283.846V363.905H354.919V283.846H467.002Z" fill="url(#paint44_linear)"/>
<path fill-rule="evenodd" clip-rule="evenodd" d="M356.919 285.846H465.002V361.905H356.919V285.846ZM467.002 283.846V363.905H354.919V283.846H467.002Z" fill="url(#paint45_linear)"/>
<path d="M394.949 323.875H378.937V339.887H394.949V323.875Z" fill="#F8CC3D"/>
<g filter="url(#filter2_d)">
<path d="M292.865 155.751V251.822L140.753 315.87V91.7041L292.865 155.751Z" fill="url(#paint46_linear)"/>
</g>
<path d="M282.865 155.751V251.822L130.753 315.87V91.7041L282.865 155.751Z" fill="url(#paint47_linear)"/>
<path d="M120.739 59.6807C88.002 59.6807 100.724 68.6404 100.724 79.6954V327.879C100.724 338.934 95.002 350 120.739 347.894C131.794 347.894 140.754 338.934 140.754 327.879V79.6954C140.754 68.6404 131.794 59.6807 120.739 59.6807Z" fill="url(#paint48_linear)"/>
<path d="M120.739 59.6807C88.002 59.6807 100.724 68.6404 100.724 79.6954V327.879C100.724 338.934 95.002 350 120.739 347.894C131.794 347.894 140.754 338.934 140.754 327.879V79.6954C140.754 68.6404 131.794 59.6807 120.739 59.6807Z" fill="white" fill-opacity="0.1"/>
<path d="M110.739 59.6807C99.6841 59.6807 90.7243 68.6404 90.7243 79.6954V327.879C90.7243 338.934 99.6841 347.894 110.739 347.894C121.794 347.894 130.754 338.934 130.754 327.879V79.6954C130.754 68.6404 121.794 59.6807 110.739 59.6807Z" fill="url(#paint49_linear)"/>
<path d="M110.739 59.6807C99.6841 59.6807 90.7243 68.6404 90.7243 79.6954V327.879C90.7243 338.934 99.6841 347.894 110.739 347.894C121.794 347.894 130.754 338.934 130.754 327.879V79.6954C130.754 68.6404 121.794 59.6807 110.739 59.6807Z" fill="url(#paint50_linear)" fill-opacity="0.23"/>
<path fill-rule="evenodd" clip-rule="evenodd" d="M92.7243 79.6954C92.7243 69.745 100.789 61.6807 110.739 61.6807C120.69 61.6807 128.754 69.745 128.754 79.6954V327.879C128.754 337.829 120.69 345.894 110.739 345.894C100.789 345.894 92.7243 337.829 92.7243 327.879V79.6954ZM90.7243 79.6954C90.7243 68.6404 99.6841 59.6807 110.739 59.6807C121.794 59.6807 130.754 68.6404 130.754 79.6954V327.879C130.754 338.934 121.794 347.894 110.739 347.894C99.6841 347.894 90.7243 338.934 90.7243 327.879V79.6954Z" fill="url(#paint51_linear)"/>
<path fill-rule="evenodd" clip-rule="evenodd" d="M92.7243 79.6954C92.7243 69.745 100.789 61.6807 110.739 61.6807C120.69 61.6807 128.754 69.745 128.754 79.6954V327.879C128.754 337.829 120.69 345.894 110.739 345.894C100.789 345.894 92.7243 337.829 92.7243 327.879V79.6954ZM90.7243 79.6954C90.7243 68.6404 99.6841 59.6807 110.739 59.6807C121.794 59.6807 130.754 68.6404 130.754 79.6954V327.879C130.754 338.934 121.794 347.894 110.739 347.894C99.6841 347.894 90.7243 338.934 90.7243 327.879V79.6954Z" fill="url(#paint52_linear)"/>
<path d="M356.914 155.751H292.866V251.822H356.914C383.441 251.822 404.949 230.314 404.949 203.787C404.949 177.256 383.441 155.751 356.914 155.751Z" fill="url(#paint53_linear)"/>
<path d="M356.914 155.751H292.866V251.822H356.914C383.441 251.822 404.949 230.314 404.949 203.787C404.949 177.256 383.441 155.751 356.914 155.751Z" fill="white" fill-opacity="0.1"/>
<path d="M346.914 155.751H282.866V251.822H346.914C373.441 251.822 394.949 230.314 394.949 203.787C394.949 177.256 373.441 155.751 346.914 155.751Z" fill="url(#paint54_linear)"/>
<path d="M346.914 155.751H282.866V251.822H346.914C373.441 251.822 394.949 230.314 394.949 203.787C394.949 177.256 373.441 155.751 346.914 155.751Z" fill="url(#paint55_linear)" fill-opacity="0.23"/>
<path fill-rule="evenodd" clip-rule="evenodd" d="M285.866 158.751H346.914C371.784 158.751 391.949 178.913 391.949 203.787C391.949 228.658 371.784 248.822 346.914 248.822H285.866V158.751ZM346.914 155.751C373.441 155.751 394.949 177.256 394.949 203.787C394.949 230.314 373.441 251.822 346.914 251.822H282.866V155.751H346.914Z" fill="url(#paint56_linear)"/>
<path fill-rule="evenodd" clip-rule="evenodd" d="M285.866 158.751H346.914C371.784 158.751 391.949 178.913 391.949 203.787C391.949 228.658 371.784 248.822 346.914 248.822H285.866V158.751ZM346.914 155.751C373.441 155.751 394.949 177.256 394.949 203.787C394.949 230.314 373.441 251.822 346.914 251.822H282.866V155.751H346.914Z" fill="url(#paint57_linear)"/>
<path d="M362.926 195.781H346.914V219.799H362.926V195.781Z" fill="#F8CC3D"/>
<path d="M330.9 195.781H314.889V219.799H330.9V195.781Z" fill="#F8CC3D"/>
<path d="M29.084 132.367L5.06236 124.365L3.24249e-05 139.564L24.0256 147.562L29.084 132.367Z" fill="#FF5F2D"/>
<path d="M29.2012 275.43L24.1388 260.239L0.125 268.245L5.18733 283.436L29.2012 275.43Z" fill="#FF5F2D"/>
<path d="M63.1406 69.0275L39.119 53.0156L30.2374 66.338L54.2551 82.3498L63.1406 69.0275Z" fill="#FF5F2D"/>
<path d="M63.1445 338.539L54.2591 325.217L30.2413 341.229L39.1229 354.551L63.1445 338.539Z" fill="#FF5F2D"/>
<path d="M171.39 464.22C195.2 464.22 214.501 444.919 214.501 421.11C214.501 397.301 195.2 378 171.39 378C147.581 378 128.28 397.301 128.28 421.11C128.28 444.919 147.581 464.22 171.39 464.22Z" fill="url(#paint58_linear)"/>
<path d="M163.11 464.22C186.919 464.22 206.22 444.919 206.22 421.11C206.22 397.301 186.919 378 163.11 378C139.301 378 120 397.301 120 421.11C120 444.919 139.301 464.22 163.11 464.22Z" fill="url(#paint59_linear)"/>
<path fill-rule="evenodd" clip-rule="evenodd" d="M163.11 462.564C186.005 462.564 204.564 444.005 204.564 421.11C204.564 398.216 186.005 379.656 163.11 379.656C140.216 379.656 121.656 398.216 121.656 421.11C121.656 444.005 140.216 462.564 163.11 462.564ZM206.22 421.11C206.22 444.919 186.919 464.22 163.11 464.22C139.301 464.22 120 444.919 120 421.11C120 397.301 139.301 378 163.11 378C186.919 378 206.22 397.301 206.22 421.11Z" fill="url(#paint60_linear)"/>
<path fill-rule="evenodd" clip-rule="evenodd" d="M163.11 462.564C186.005 462.564 204.564 444.005 204.564 421.11C204.564 398.216 186.005 379.656 163.11 379.656C140.216 379.656 121.656 398.216 121.656 421.11C121.656 444.005 140.216 462.564 163.11 462.564ZM206.22 421.11C206.22 444.919 186.919 464.22 163.11 464.22C139.301 464.22 120 444.919 120 421.11C120 397.301 139.301 378 163.11 378C186.919 378 206.22 397.301 206.22 421.11Z" fill="url(#paint61_linear)"/>
<g filter="url(#filter3_d)">
<path d="M169.395 417.375C165.555 416.018 161.303 414.375 158.889 412.481C157.993 411.778 157.61 410.29 157.911 408.69C158.209 407.109 159.278 405.194 161.386 404.559C166.094 403.141 169.218 405.586 169.559 405.87C171.134 407.181 173.475 406.966 174.785 405.391C176.096 403.815 175.882 401.475 174.306 400.164C173.64 399.611 171.16 397.732 167.391 396.992V394.892C167.391 392.842 165.73 391.181 163.68 391.181C161.631 391.181 159.97 392.842 159.97 394.892V397.251C159.73 397.312 159.49 397.379 159.246 397.452C154.819 398.786 151.513 402.565 150.617 407.316C149.796 411.675 151.21 415.891 154.308 418.321C156.935 420.382 160.59 422.135 166.922 424.373C171.525 426.001 171.423 429.741 171.166 431.273C170.652 434.327 168.083 437.628 163.656 437.658C159.541 437.685 158.145 437.463 154.933 435.361C153.218 434.239 150.917 434.72 149.795 436.435C148.673 438.15 149.154 440.451 150.869 441.573C154.429 443.901 156.936 444.714 159.97 444.972V447.328C159.97 449.377 161.631 451.039 163.681 451.039C165.73 451.039 167.392 449.377 167.392 447.328V444.618C173.615 443.052 177.604 437.74 178.485 432.503C179.633 425.671 176.065 419.733 169.395 417.375Z" fill="url(#paint62_linear)"/>
<path d="M170.223 417.375C166.383 416.018 162.131 414.375 159.717 412.481C158.822 411.778 158.438 410.29 158.739 408.69C159.037 407.109 160.106 405.194 162.214 404.559C166.922 403.141 170.046 405.586 170.387 405.87C171.962 407.181 174.303 406.966 175.613 405.391C176.924 403.815 176.71 401.475 175.134 400.164C174.468 399.611 171.988 397.732 168.219 396.992V394.892C168.219 392.842 166.558 391.181 164.508 391.181C162.459 391.181 160.798 392.842 160.798 394.892V397.251C160.558 397.312 160.318 397.379 160.074 397.452C155.647 398.786 152.341 402.565 151.445 407.316C150.624 411.675 152.038 415.891 155.136 418.321C157.763 420.382 161.418 422.135 167.75 424.373C172.353 426.001 172.251 429.741 171.994 431.273C171.48 434.327 168.911 437.628 164.484 437.658C160.369 437.685 158.973 437.463 155.761 435.361C154.046 434.239 151.745 434.72 150.623 436.435C149.501 438.15 149.982 440.451 151.697 441.573C155.257 443.901 157.764 444.714 160.798 444.972V447.328C160.798 449.377 162.459 451.039 164.509 451.039C166.558 451.039 168.22 449.377 168.22 447.328V444.618C174.443 443.052 178.432 437.74 179.313 432.503C180.461 425.671 176.893 419.733 170.223 417.375Z" fill="url(#paint63_linear)"/>
<path d="M171.051 417.375C167.211 416.018 162.959 414.375 160.545 412.481C159.65 411.778 159.266 410.29 159.567 408.69C159.865 407.109 160.934 405.194 163.043 404.559C167.75 403.141 170.874 405.586 171.215 405.87C172.79 407.181 175.131 406.966 176.442 405.391C177.752 403.815 177.538 401.475 175.962 400.164C175.296 399.611 172.816 397.732 169.047 396.992V394.892C169.047 392.842 167.386 391.181 165.337 391.181C163.287 391.181 161.626 392.842 161.626 394.892V397.251C161.386 397.312 161.146 397.379 160.902 397.452C156.475 398.786 153.169 402.565 152.273 407.316C151.452 411.675 152.866 415.891 155.965 418.321C158.591 420.382 162.246 422.135 168.578 424.373C173.181 426.001 173.079 429.741 172.822 431.273C172.308 434.327 169.739 437.628 165.312 437.658C161.197 437.685 159.801 437.463 156.589 435.361C154.874 434.239 152.573 434.72 151.451 436.435C150.329 438.15 150.81 440.451 152.525 441.573C156.085 443.901 158.592 444.714 161.626 444.972V447.328C161.626 449.377 163.287 451.039 165.337 451.039C167.387 451.039 169.048 449.377 169.048 447.328V444.618C175.271 443.052 179.261 437.74 180.141 432.503C181.289 425.671 177.721 419.733 171.051 417.375Z" fill="url(#paint64_linear)"/>
<path d="M171.879 417.375C168.039 416.018 163.787 414.375 161.373 412.481C160.478 411.778 160.094 410.29 160.395 408.69C160.693 407.109 161.762 405.194 163.871 404.559C168.578 403.141 171.702 405.586 172.043 405.87C173.618 407.181 175.959 406.966 177.27 405.391C178.58 403.815 178.366 401.475 176.79 400.164C176.124 399.611 173.644 397.732 169.875 396.992V394.892C169.875 392.842 168.214 391.181 166.165 391.181C164.115 391.181 162.454 392.842 162.454 394.892V397.251C162.214 397.312 161.974 397.379 161.73 397.452C157.303 398.786 153.997 402.565 153.101 407.316C152.28 411.675 153.694 415.891 156.793 418.321C159.419 420.382 163.074 422.135 169.406 424.373C174.009 426.001 173.907 429.741 173.65 431.273C173.136 434.327 170.567 437.628 166.14 437.658C162.025 437.685 160.629 437.463 157.417 435.361C155.702 434.239 153.401 434.72 152.279 436.435C151.157 438.15 151.638 440.451 153.353 441.573C156.913 443.901 159.42 444.714 162.454 444.972V447.328C162.454 449.377 164.115 451.039 166.165 451.039C168.215 451.039 169.876 449.377 169.876 447.328V444.618C176.099 443.052 180.089 437.74 180.969 432.503C182.117 425.671 178.549 419.733 171.879 417.375Z" fill="url(#paint65_linear)"/>
</g>
<path d="M168.567 417.375C164.727 416.018 160.475 414.375 158.061 412.481C157.165 411.778 156.782 410.29 157.083 408.69C157.381 407.109 158.45 405.194 160.558 404.559C165.265 403.141 168.39 405.586 168.731 405.87C170.306 407.181 172.647 406.966 173.957 405.391C175.268 403.815 175.053 401.475 173.478 400.164C172.812 399.611 170.332 397.732 166.563 396.992V394.892C166.563 392.842 164.902 391.181 162.852 391.181C160.803 391.181 159.141 392.842 159.141 394.892V397.251C158.902 397.312 158.662 397.379 158.418 397.452C153.991 398.786 150.684 402.565 149.789 407.316C148.968 411.675 150.382 415.891 153.48 418.321C156.107 420.382 159.761 422.135 166.094 424.373C170.697 426.001 170.595 429.741 170.338 431.273C169.824 434.327 167.255 437.628 162.828 437.658C158.712 437.685 157.317 437.463 154.105 435.361C152.39 434.239 150.089 434.72 148.967 436.435C147.845 438.15 148.326 440.451 150.041 441.573C153.6 443.901 156.108 444.714 159.142 444.972V447.328C159.142 449.377 160.803 451.039 162.853 451.039C164.902 451.039 166.564 449.377 166.564 447.328V444.618C172.787 443.052 176.776 437.74 177.657 432.503C178.805 425.671 175.237 419.733 168.567 417.375Z" fill="url(#paint66_linear)"/>
<path d="M604.693 62.5637C619.689 58.5456 628.588 43.1317 624.57 28.1359C620.552 13.1401 605.138 4.24092 590.143 8.25904C575.147 12.2772 566.248 27.691 570.266 42.6868C574.284 57.6826 589.698 66.5818 604.693 62.5637Z" fill="url(#paint67_linear)"/>
<path d="M599.478 63.9613C614.473 59.9432 623.373 44.5293 619.355 29.5335C615.336 14.5377 599.923 5.63851 584.927 9.65662C569.931 13.6747 561.032 29.0886 565.05 44.0844C569.068 59.0802 584.482 67.9794 599.478 63.9613Z" fill="url(#paint68_linear)"/>
<path fill-rule="evenodd" clip-rule="evenodd" d="M599.198 62.9183C613.618 59.0545 622.175 44.2328 618.311 29.813C614.448 15.3932 599.626 6.8359 585.206 10.6997C570.786 14.5634 562.229 29.3852 566.093 43.8049C569.957 58.2247 584.778 66.782 599.198 62.9183ZM619.355 29.5335C623.373 44.5293 614.473 59.9432 599.478 63.9613C584.482 67.9794 569.068 59.0802 565.05 44.0844C561.032 29.0886 569.931 13.6747 584.927 9.65662C599.923 5.63851 615.336 14.5377 619.355 29.5335Z" fill="url(#paint69_linear)"/>
<path fill-rule="evenodd" clip-rule="evenodd" d="M599.198 62.9183C613.618 59.0545 622.175 44.2328 618.311 29.813C614.448 15.3932 599.626 6.8359 585.206 10.6997C570.786 14.5634 562.229 29.3852 566.093 43.8049C569.957 58.2247 584.778 66.782 599.198 62.9183ZM619.355 29.5335C623.373 44.5293 614.473 59.9432 599.478 63.9613C584.482 67.9794 569.068 59.0802 565.05 44.0844C561.032 29.0886 569.931 13.6747 584.927 9.65662C599.923 5.63851 615.336 14.5377 619.355 29.5335Z" fill="url(#paint70_linear)"/>
<g filter="url(#filter4_d)">
<path d="M595.531 33.396C592.883 33.1892 589.928 32.8717 588.087 32.0863C587.405 31.7951 586.912 30.9227 586.832 29.8642C586.753 28.818 587.103 27.431 588.324 26.6753C591.049 24.9879 593.43 26.0007 593.692 26.1219C594.906 26.6817 596.343 26.1515 596.903 24.938C597.463 23.7242 596.933 22.2869 595.719 21.7272C595.207 21.491 593.327 20.7258 590.829 20.8962L590.474 19.5733C590.128 18.2824 588.802 17.5164 587.511 17.8623C586.22 18.2082 585.454 19.535 585.8 20.8259L586.198 22.3116C586.058 22.3906 585.917 22.4733 585.776 22.5607C583.213 24.1476 581.768 27.0862 582.006 30.2296C582.224 33.1133 583.827 35.5304 586.188 36.538C588.191 37.3925 590.788 37.88 595.154 38.2211C598.328 38.4692 598.895 40.8418 598.991 41.8503C599.183 43.8607 598.122 46.3732 595.339 47.1391C592.751 47.8506 591.835 47.9466 589.457 47.1649C588.188 46.7477 586.82 47.4384 586.403 48.7084C585.985 49.9781 586.677 51.3457 587.946 51.7629C590.581 52.6289 592.297 52.7175 594.252 52.368L594.649 53.8519C594.995 55.1428 596.322 55.9088 597.613 55.5629C598.904 55.217 599.67 53.8902 599.324 52.5993L598.867 50.8928C602.522 48.8557 604.138 44.8369 603.809 41.3902C603.379 36.8934 600.13 33.7554 595.531 33.396Z" fill="url(#paint71_linear)"/>
<path d="M596.052 33.2563C593.404 33.0494 590.449 32.7319 588.609 31.9466C587.927 31.6554 587.434 30.783 587.353 29.7244C587.274 28.6783 587.625 27.2913 588.845 26.5356C591.571 24.8481 593.951 25.861 594.214 25.9822C595.427 26.542 596.865 26.0118 597.425 24.7983C597.984 23.5845 597.454 22.1471 596.241 21.5874C595.728 21.3513 593.849 20.5861 591.35 20.7565L590.996 19.4336C590.65 18.1427 589.323 17.3767 588.032 17.7226C586.741 18.0684 585.975 19.3953 586.321 20.6861L586.719 22.1718C586.579 22.2509 586.439 22.3336 586.298 22.4209C583.734 24.0079 582.29 26.9465 582.528 30.0898C582.746 32.9735 584.348 35.3906 586.71 36.3983C588.712 37.2528 591.309 37.7403 595.675 38.0814C598.849 38.3295 599.416 40.7021 599.513 41.7106C599.705 43.721 598.644 46.2335 595.86 46.9994C593.273 47.7109 592.357 47.8069 589.979 47.0252C588.709 46.608 587.341 47.2987 586.924 48.5686C586.507 49.8383 587.198 51.206 588.468 51.6232C591.102 52.4891 592.819 52.5778 594.773 52.2283L595.171 53.7122C595.517 55.003 596.844 55.7691 598.134 55.4232C599.425 55.0773 600.191 53.7505 599.845 52.4596L599.388 50.7531C603.044 48.7159 604.66 44.6971 604.33 41.2504C603.9 36.7536 600.651 33.6157 596.052 33.2563Z" fill="url(#paint72_linear)"/>
<path d="M596.574 33.1165C593.926 32.9097 590.971 32.5922 589.13 31.8069C588.448 31.5157 587.955 30.6432 587.875 29.5847C587.796 28.5385 588.146 27.1515 589.367 26.3958C592.092 24.7084 594.473 25.7212 594.735 25.8425C595.949 26.4023 597.387 25.872 597.946 24.6585C598.506 23.4447 597.976 22.0074 596.762 21.4477C596.25 21.2115 594.37 20.4463 591.872 20.6168L591.517 19.2938C591.171 18.003 589.845 17.2369 588.554 17.5828C587.263 17.9287 586.497 19.2555 586.843 20.5464L587.241 22.0321C587.101 22.1112 586.96 22.1938 586.819 22.2812C584.256 23.8681 582.811 26.8067 583.049 29.9501C583.267 32.8338 584.87 35.2509 587.231 36.2585C589.234 37.113 591.831 37.6005 596.197 37.9417C599.371 38.1897 599.938 40.5623 600.034 41.5708C600.226 43.5812 599.165 46.0938 596.382 46.8597C593.794 47.5711 592.878 47.6671 590.5 46.8854C589.231 46.4682 587.863 47.1589 587.446 48.4289C587.029 49.6986 587.72 51.0662 588.989 51.4834C591.624 52.3494 593.341 52.4381 595.295 52.0885L595.692 53.5724C596.038 54.8633 597.365 55.6293 598.656 55.2834C599.947 54.9375 600.713 53.6107 600.367 52.3199L599.91 50.6133C603.565 48.5762 605.181 44.5574 604.852 41.1107C604.422 36.6139 601.173 33.4759 596.574 33.1165Z" fill="url(#paint73_linear)"/>
<path d="M597.095 32.9768C594.447 32.7699 591.492 32.4525 589.652 31.6671C588.97 31.3759 588.477 30.5035 588.396 29.4449C588.317 28.3988 588.668 27.0118 589.888 26.2561C592.614 24.5686 594.994 25.5815 595.257 25.7027C596.47 26.2625 597.908 25.7323 598.468 24.5188C599.027 23.305 598.497 21.8676 597.284 21.3079C596.771 21.0718 594.892 20.3066 592.393 20.477L592.039 19.1541C591.693 17.8632 590.366 17.0972 589.075 17.4431C587.784 17.789 587.018 19.1158 587.364 20.4066L587.762 21.8923C587.622 21.9714 587.482 22.0541 587.341 22.1415C584.778 23.7284 583.333 26.667 583.571 29.8103C583.789 32.694 585.391 35.1112 587.753 36.1188C589.755 36.9733 592.353 37.4608 596.718 37.8019C599.892 38.05 600.459 40.4226 600.556 41.4311C600.748 43.4415 599.687 45.954 596.903 46.7199C594.316 47.4314 593.4 47.5274 591.022 46.7457C589.752 46.3285 588.384 47.0192 587.967 48.2892C587.55 49.5588 588.241 50.9265 589.511 51.3437C592.145 52.2097 593.862 52.2983 595.816 51.9488L596.214 53.4327C596.56 54.7235 597.887 55.4896 599.177 55.1437C600.468 54.7978 601.234 53.471 600.889 52.1801L600.431 50.4736C604.087 48.4365 605.703 44.4176 605.373 40.971C604.943 36.4741 601.694 33.3362 597.095 32.9768Z" fill="url(#paint74_linear)"/>
</g>
<path d="M595.009 33.5362C592.361 33.3293 589.406 33.0119 587.566 32.2265C586.884 31.9353 586.391 31.0629 586.31 30.0043C586.231 28.9582 586.582 27.5712 587.802 26.8155C590.528 25.128 592.908 26.1409 593.171 26.2621C594.384 26.8219 595.822 26.2917 596.382 25.0782C596.941 23.8644 596.411 22.427 595.198 21.8673C594.685 21.6312 592.806 20.866 590.307 21.0364L589.953 19.7135C589.607 18.4226 588.28 17.6566 586.989 18.0025C585.698 18.3484 584.932 19.6752 585.278 20.966L585.676 22.4517C585.536 22.5308 585.396 22.6135 585.255 22.7009C582.691 24.2878 581.247 27.2264 581.485 30.3697C581.703 33.2534 583.305 35.6706 585.667 36.6782C587.669 37.5327 590.266 38.0202 594.632 38.3613C597.806 38.6094 598.373 40.982 598.47 41.9905C598.662 44.0009 597.601 46.5134 594.817 47.2793C592.23 47.9908 591.314 48.0868 588.936 47.3051C587.666 46.8879 586.298 47.5786 585.881 48.8486C585.464 50.1182 586.155 51.4859 587.425 51.9031C590.059 52.7691 591.776 52.8577 593.73 52.5082L594.128 53.9921C594.474 55.2829 595.801 56.049 597.091 55.7031C598.382 55.3572 599.148 54.0304 598.802 52.7395L598.345 51.033C602.001 48.9958 603.617 44.977 603.287 41.5303C602.857 37.0335 599.608 33.8956 595.009 33.5362Z" fill="url(#paint75_linear)"/>
<g filter="url(#filter5_d)">
<path d="M568.613 370.517L529.359 385.502C523.827 387.614 522.656 394.923 527.251 398.658L534.793 404.787L505.972 441.018L449.803 396.85C444.717 392.852 437.43 393.352 432.938 398.009L393.36 439.052C388.527 444.063 388.672 452.042 393.683 456.875C398.694 461.707 406.674 461.563 411.506 456.551L443.176 423.71L500.242 468.582C502.551 470.398 505.298 471.279 508.025 471.279C511.735 471.279 515.41 469.648 517.898 466.521L554.357 420.688L559.861 425.161C564.456 428.896 571.372 426.255 572.308 420.409L578.951 378.919C579.888 373.073 574.144 368.405 568.613 370.517Z" fill="url(#paint76_linear)"/>
<path d="M569.441 370.517L530.187 385.502C524.655 387.614 523.484 394.923 528.079 398.658L535.621 404.787L506.8 441.018L450.631 396.85C445.545 392.852 438.258 393.352 433.766 398.009L394.188 439.052C389.355 444.063 389.5 452.042 394.511 456.875C399.522 461.707 407.502 461.563 412.334 456.551L444.004 423.71L501.07 468.582C503.379 470.398 506.126 471.279 508.853 471.279C512.563 471.279 516.238 469.648 518.726 466.521L555.185 420.688L560.689 425.161C565.284 428.896 572.2 426.255 573.136 420.409L579.779 378.919C580.716 373.073 574.973 368.405 569.441 370.517Z" fill="url(#paint77_linear)"/>
<path d="M570.269 370.517L531.015 385.502C525.483 387.614 524.312 394.923 528.907 398.658L536.449 404.787L507.628 441.018L451.459 396.85C446.373 392.852 439.086 393.352 434.594 398.009L395.016 439.052C390.183 444.063 390.328 452.042 395.34 456.875C400.35 461.707 408.33 461.563 413.162 456.551L444.832 423.71L501.898 468.582C504.207 470.398 506.954 471.279 509.681 471.279C513.391 471.279 517.067 469.648 519.554 466.521L556.013 420.688L561.517 425.161C566.112 428.896 573.028 426.255 573.964 420.409L580.607 378.919C581.544 373.073 575.801 368.405 570.269 370.517Z" fill="url(#paint78_linear)"/>
<path d="M571.097 370.517L531.844 385.502C526.311 387.614 525.14 394.923 529.735 398.658L537.277 404.787L508.456 441.018L452.287 396.85C447.201 392.852 439.914 393.352 435.422 398.009L395.844 439.052C391.011 444.063 391.156 452.042 396.168 456.875C401.178 461.707 409.158 461.563 413.99 456.551L445.66 423.71L502.726 468.582C505.035 470.398 507.782 471.279 510.509 471.279C514.219 471.279 517.895 469.648 520.382 466.521L556.841 420.688L562.345 425.161C566.94 428.896 573.856 426.255 574.792 420.409L581.435 378.919C582.372 373.073 576.629 368.405 571.097 370.517Z" fill="url(#paint79_linear)"/>
<path d="M571.925 370.517L532.672 385.502C527.139 387.614 525.968 394.923 530.563 398.658L538.105 404.787L509.284 441.018L453.115 396.85C448.029 392.852 440.742 393.352 436.25 398.009L396.672 439.052C391.839 444.063 391.984 452.042 396.996 456.875C402.006 461.707 409.986 461.563 414.818 456.551L446.488 423.71L503.554 468.582C505.863 470.398 508.61 471.279 511.337 471.279C515.047 471.279 518.723 469.648 521.21 466.521L557.669 420.688L563.173 425.161C567.769 428.896 574.684 426.255 575.62 420.409L582.263 378.919C583.2 373.073 577.457 368.405 571.925 370.517Z" fill="url(#paint80_linear)"/>
<path d="M572.753 370.517L533.5 385.502C527.967 387.614 526.796 394.923 531.391 398.658L538.933 404.787L510.112 441.018L453.943 396.85C448.857 392.852 441.57 393.352 437.078 398.009L397.5 439.052C392.667 444.063 392.812 452.042 397.824 456.875C402.834 461.707 410.814 461.563 415.646 456.551L447.316 423.71L504.382 468.582C506.691 470.398 509.438 471.279 512.165 471.279C515.875 471.279 519.551 469.648 522.038 466.521L558.497 420.688L564.001 425.161C568.597 428.896 575.512 426.255 576.448 420.409L583.091 378.919C584.028 373.073 578.285 368.405 572.753 370.517Z" fill="url(#paint81_linear)"/>
<path d="M573.581 370.517L534.328 385.502C528.795 387.614 527.624 394.923 532.219 398.658L539.761 404.787L510.94 441.018L454.771 396.85C449.685 392.852 442.398 393.352 437.906 398.009L398.328 439.052C393.495 444.063 393.64 452.042 398.652 456.875C403.662 461.707 411.642 461.563 416.474 456.551L448.144 423.71L505.21 468.582C507.52 470.398 510.266 471.279 512.993 471.279C516.703 471.279 520.379 469.648 522.866 466.521L559.325 420.688L564.829 425.161C569.425 428.896 576.34 426.255 577.276 420.409L583.919 378.919C584.856 373.073 579.113 368.405 573.581 370.517Z" fill="url(#paint82_linear)"/>
<path d="M574.409 370.517L535.156 385.502C529.623 387.614 528.452 394.923 533.048 398.658L540.589 404.787L511.768 441.018L455.599 396.85C450.513 392.852 443.226 393.352 438.734 398.009L399.156 439.052C394.323 444.063 394.468 452.042 399.48 456.875C404.49 461.707 412.47 461.563 417.302 456.551L448.972 423.71L506.038 468.582C508.348 470.398 511.094 471.279 513.821 471.279C517.531 471.279 521.207 469.648 523.694 466.521L560.153 420.688L565.657 425.161C570.253 428.896 577.168 426.255 578.104 420.409L584.747 378.919C585.684 373.073 579.941 368.405 574.409 370.517Z" fill="url(#paint83_linear)"/>
<path d="M575.237 370.517L535.984 385.502C530.451 387.614 529.28 394.923 533.876 398.658L541.417 404.787L512.596 441.018L456.427 396.85C451.341 392.852 444.054 393.352 439.562 398.009L399.984 439.052C395.151 444.063 395.296 452.042 400.308 456.875C405.318 461.707 413.298 461.563 418.13 456.551L449.8 423.71L506.866 468.582C509.176 470.398 511.922 471.279 514.649 471.279C518.359 471.279 522.035 469.648 524.522 466.521L560.981 420.688L566.485 425.161C571.081 428.896 577.996 426.255 578.932 420.409L585.575 378.919C586.512 373.073 580.769 368.405 575.237 370.517Z" fill="url(#paint84_linear)"/>
</g>
<path d="M567.785 370.517L528.531 385.502C522.999 387.614 521.828 394.923 526.423 398.658L533.965 404.787L505.144 441.018L448.974 396.85C443.889 392.852 436.601 393.352 432.11 398.009L392.532 439.052C387.699 444.063 387.844 452.042 392.855 456.875C397.866 461.707 405.846 461.563 410.678 456.551L442.348 423.71L499.414 468.582C501.723 470.398 504.47 471.279 507.197 471.279C510.907 471.279 514.582 469.648 517.069 466.521L553.529 420.688L559.033 425.161C563.628 428.896 570.543 426.255 571.48 420.409L578.123 378.919C579.06 373.073 573.316 368.405 567.785 370.517Z" fill="url(#paint85_linear)"/>
<path d="M520.083 92.6924C531.302 105.314 531.302 125.779 520.083 138.401C515.348 143.727 509.372 146.806 503.203 147.637C498.519 148.268 491.024 148.804 486.652 147.731C482.887 146.163 482.478 141.804 479.453 138.401C468.234 125.779 465.111 100.318 476.331 87.696C481.861 81.4743 492.585 83.2279 499.456 83.2277C506.638 83.5379 514.394 86.2919 520.083 92.6924Z" fill="url(#paint86_linear)"/>
<path d="M520.083 92.6924C531.302 105.314 531.302 125.779 520.083 138.401C515.348 143.727 509.372 146.806 503.203 147.637C498.519 148.268 491.024 148.804 486.652 147.731C482.887 146.163 482.478 141.804 479.453 138.401C468.234 125.779 465.111 100.318 476.331 87.696C481.861 81.4743 492.585 83.2279 499.456 83.2277C506.638 83.5379 514.394 86.2919 520.083 92.6924Z" fill="white" fill-opacity="0.1"/>
<path d="M543.837 171.161C531.094 161.474 516.086 156.501 501.017 156.24C485.115 155.965 469.146 155.943 455.699 166.164C451.813 169.116 449.491 179.099 449.491 184.504V212.508H550.044V184.504C550.044 179.099 547.723 174.112 543.837 171.161Z" fill="url(#paint87_linear)"/>
<path d="M543.837 171.161C531.094 161.474 516.086 156.501 501.017 156.24C485.115 155.965 469.146 155.943 455.699 166.164C451.813 169.116 449.491 179.099 449.491 184.504V212.508H550.044V184.504C550.044 179.099 547.723 174.112 543.837 171.161Z" fill="white" fill-opacity="0.1"/>
<path d="M507.592 92.6966C518.811 105.319 518.811 125.783 507.592 138.405C496.372 151.027 478.182 151.027 466.962 138.405C455.743 125.783 455.743 105.319 466.962 92.6966C478.182 80.0744 496.372 80.0744 507.592 92.6966Z" fill="url(#paint88_linear)"/>
<path d="M507.592 92.6966C518.811 105.319 518.811 125.783 507.592 138.405C496.372 151.027 478.182 151.027 466.962 138.405C455.743 125.783 455.743 105.319 466.962 92.6966C478.182 80.0744 496.372 80.0744 507.592 92.6966Z" fill="url(#paint89_linear)" fill-opacity="0.23"/>
<path d="M531.346 171.165C505.155 151.257 469.398 151.257 443.207 171.165C439.322 174.116 437 179.103 437 184.508V212.513H537.553V184.508C537.553 179.103 535.231 174.116 531.346 171.165Z" fill="url(#paint90_linear)"/>
<path d="M531.346 171.165C505.155 151.257 469.398 151.257 443.207 171.165C439.322 174.116 437 179.103 437 184.508V212.513H537.553V184.508C537.553 179.103 535.231 174.116 531.346 171.165Z" fill="url(#paint91_linear)" fill-opacity="0.23"/>
<path fill-rule="evenodd" clip-rule="evenodd" d="M468.363 93.9414C457.774 105.853 457.774 125.248 468.363 137.16C478.837 148.943 495.717 148.943 506.191 137.16C516.78 125.248 516.78 105.853 506.191 93.9414L507.592 92.6966C518.811 105.319 518.811 125.783 507.592 138.405C496.372 151.027 478.182 151.027 466.962 138.405C455.743 125.783 455.743 105.319 466.962 92.6966C478.182 80.0744 496.372 80.0744 507.592 92.6966L506.191 93.9414C495.717 82.1577 478.837 82.1577 468.363 93.9414ZM530.213 172.657L530.212 172.657C504.692 153.258 469.862 153.258 444.341 172.657L444.341 172.657C440.976 175.213 438.874 179.617 438.874 184.508V210.639H535.68V184.508C535.68 179.617 533.577 175.213 530.213 172.657ZM537.553 212.513H437V184.508C437 179.103 439.322 174.116 443.207 171.165C469.398 151.257 505.155 151.257 531.346 171.165C535.231 174.116 537.553 179.103 537.553 184.508V212.513Z" fill="url(#paint92_linear)"/>
<path fill-rule="evenodd" clip-rule="evenodd" d="M468.363 93.9414C457.774 105.853 457.774 125.248 468.363 137.16C478.837 148.943 495.717 148.943 506.191 137.16C516.78 125.248 516.78 105.853 506.191 93.9414L507.592 92.6966C518.811 105.319 518.811 125.783 507.592 138.405C496.372 151.027 478.182 151.027 466.962 138.405C455.743 125.783 455.743 105.319 466.962 92.6966C478.182 80.0744 496.372 80.0744 507.592 92.6966L506.191 93.9414C495.717 82.1577 478.837 82.1577 468.363 93.9414ZM530.213 172.657L530.212 172.657C504.692 153.258 469.862 153.258 444.341 172.657L444.341 172.657C440.976 175.213 438.874 179.617 438.874 184.508V210.639H535.68V184.508C535.68 179.617 533.577 175.213 530.213 172.657ZM537.553 212.513H437V184.508C437 179.103 439.322 174.116 443.207 171.165C469.398 151.257 505.155 151.257 531.346 171.165C535.231 174.116 537.553 179.103 537.553 184.508V212.513Z" fill="url(#paint93_linear)"/>
<g filter="url(#filter6_d)">
<path fill-rule="evenodd" clip-rule="evenodd" d="M487.533 135.305C494.28 135.305 500.111 130.896 502.861 124.501L504.377 125.322C501.358 132.345 494.951 137.195 487.533 137.195C480.115 137.195 473.708 132.345 470.688 125.322L472.205 124.501C474.954 130.896 480.786 135.305 487.533 135.305Z" fill="url(#paint94_linear)"/>
<path fill-rule="evenodd" clip-rule="evenodd" d="M488.021 135.305C494.768 135.305 500.6 130.896 503.349 124.501L504.866 125.322C501.846 132.345 495.439 137.195 488.021 137.195C480.603 137.195 474.196 132.345 471.177 125.322L472.693 124.501C475.443 130.896 481.274 135.305 488.021 135.305Z" fill="url(#paint95_linear)"/>
<path fill-rule="evenodd" clip-rule="evenodd" d="M488.509 135.305C495.257 135.305 501.088 130.896 503.837 124.501L505.354 125.322C502.334 132.345 495.927 137.195 488.509 137.195C481.091 137.195 474.684 132.345 471.665 125.322L473.182 124.501C475.931 130.896 481.762 135.305 488.509 135.305Z" fill="url(#paint96_linear)"/>
<path fill-rule="evenodd" clip-rule="evenodd" d="M488.998 135.305C495.745 135.305 501.576 130.896 504.325 124.501L505.842 125.322C502.823 132.345 496.416 137.195 488.998 137.195C481.58 137.195 475.173 132.345 472.153 125.322L473.67 124.501C476.419 130.896 482.25 135.305 488.998 135.305Z" fill="url(#paint97_linear)"/>
</g>
<path fill-rule="evenodd" clip-rule="evenodd" d="M487.047 135.305C493.794 135.305 499.625 130.896 502.374 124.501L503.891 125.322C500.872 132.345 494.465 137.195 487.047 137.195C479.629 137.195 473.222 132.345 470.202 125.322L471.719 124.501C474.468 130.896 480.299 135.305 487.047 135.305Z" fill="url(#paint98_linear)"/>
<path d="M180.311 18.8695C180.311 12.3142 185.625 7 192.18 7H223.832C230.387 7 235.702 12.3142 235.702 18.8695V56.0306C235.702 62.586 230.387 67.9001 223.832 67.9001H192.18C185.625 67.9001 180.311 62.586 180.311 56.0306V18.8695Z" fill="url(#paint99_linear)"/>
<path d="M180.311 18.8695C180.311 12.3142 185.625 7 192.18 7H223.832C230.387 7 235.702 12.3142 235.702 18.8695V56.0306C235.702 62.586 230.387 67.9001 223.832 67.9001H192.18C185.625 67.9001 180.311 62.586 180.311 56.0306V18.8695Z" fill="white" fill-opacity="0.1"/>
<path d="M163 18.8695C163 12.3142 168.314 7 174.87 7H206.522C213.077 7 218.391 12.3142 218.391 18.8695V56.0306C218.391 62.586 213.077 67.9001 206.522 67.9001H174.87C168.314 67.9001 163 62.586 163 56.0306V18.8695Z" fill="url(#paint100_linear)"/>
<path d="M163 18.8695C163 12.3142 168.314 7 174.87 7H206.522C213.077 7 218.391 12.3142 218.391 18.8695V56.0306C218.391 62.586 213.077 67.9001 206.522 67.9001H174.87C168.314 67.9001 163 62.586 163 56.0306V18.8695Z" fill="url(#paint101_linear)" fill-opacity="0.23"/>
<path fill-rule="evenodd" clip-rule="evenodd" d="M206.522 8.97825H174.87C169.407 8.97825 164.978 13.4067 164.978 18.8695V56.0306C164.978 61.4934 169.407 65.9219 174.87 65.9219H206.522C211.984 65.9219 216.413 61.4934 216.413 56.0306V18.8695C216.413 13.4067 211.984 8.97825 206.522 8.97825ZM174.87 7C168.314 7 163 12.3142 163 18.8695V56.0306C163 62.5859 168.314 67.9001 174.87 67.9001H206.522C213.077 67.9001 218.391 62.586 218.391 56.0306V18.8695C218.391 12.3142 213.077 7 206.522 7H174.87Z" fill="url(#paint102_linear)"/>
<path fill-rule="evenodd" clip-rule="evenodd" d="M206.522 8.97825H174.87C169.407 8.97825 164.978 13.4067 164.978 18.8695V56.0306C164.978 61.4934 169.407 65.9219 174.87 65.9219H206.522C211.984 65.9219 216.413 61.4934 216.413 56.0306V18.8695C216.413 13.4067 211.984 8.97825 206.522 8.97825ZM174.87 7C168.314 7 163 12.3142 163 18.8695V56.0306C163 62.5859 168.314 67.9001 174.87 67.9001H206.522C213.077 67.9001 218.391 62.586 218.391 56.0306V18.8695C218.391 12.3142 213.077 7 206.522 7H174.87Z" fill="url(#paint103_linear)"/>
<g clip-path="url(#clip1)">
<path d="M147.293 22.4291H150.542V53.1959H146.34V29.917H141.56V26.6129C143.166 26.4126 144.386 25.9764 145.22 25.3041C146.066 24.6175 146.757 23.6592 147.293 22.4291Z" fill="url(#paint104_linear)"/>
<path d="M174.053 53.1959H156.275C156.275 51.2935 156.524 49.57 157.022 48.0252C157.52 46.4661 158.167 45.1716 158.964 44.1418C159.773 43.1119 160.657 42.1679 161.616 41.3097C162.587 40.4515 163.552 39.672 164.51 38.9711C165.469 38.2559 166.347 37.555 167.143 36.8685C167.953 36.1819 168.606 35.3809 169.104 34.4655C169.602 33.5358 169.851 32.5274 169.851 31.4403C169.851 29.8812 169.428 28.6511 168.581 27.75C167.747 26.8489 166.577 26.3983 165.071 26.3983C164.336 26.3983 163.645 26.5557 162.998 26.8703C162.363 27.1707 161.865 27.5354 161.504 27.9646C161.155 28.3794 160.844 28.8013 160.57 29.2304C160.309 29.6595 160.128 30.0314 160.029 30.3461L159.898 30.7966L156.462 29.0373C156.512 28.8371 156.58 28.5796 156.667 28.2649C156.767 27.9502 157.028 27.3924 157.451 26.5914C157.887 25.7904 158.391 25.0824 158.964 24.4674C159.537 23.8523 160.365 23.2873 161.448 22.7724C162.531 22.2575 163.739 22 165.071 22C167.697 22 169.851 22.9083 171.532 24.7248C173.213 26.5414 174.053 28.7799 174.053 31.4403C174.053 32.842 173.804 34.1437 173.306 35.3451C172.808 36.5466 172.173 37.555 171.401 38.3703C170.642 39.1713 169.764 40.0009 168.768 40.8591C167.785 41.703 166.826 42.4754 165.892 43.1763C164.959 43.8772 164.037 44.7211 163.128 45.708C162.232 46.6807 161.541 47.7105 161.056 48.7976H174.053V53.1959Z" fill="url(#paint105_linear)"/>
<path d="M188.358 23.9953C189.54 25.3256 190.132 26.9275 190.132 28.8013C190.132 30.6751 189.54 32.2842 188.358 33.6287C187.175 34.959 185.725 35.6241 184.006 35.6241C182.301 35.6241 180.857 34.959 179.674 33.6287C178.491 32.2842 177.9 30.6751 177.9 28.8013C177.9 26.9275 178.491 25.3256 179.674 23.9953C180.857 22.6651 182.301 22 184.006 22C185.725 22 187.175 22.6651 188.358 23.9953ZM181.84 26.3125C181.255 26.9848 180.963 27.8215 180.963 28.8228C180.963 29.8097 181.255 30.6393 181.84 31.3116C182.425 31.9838 183.147 32.32 184.006 32.32C184.878 32.32 185.606 31.9838 186.191 31.3116C186.776 30.6393 187.069 29.8097 187.069 28.8228C187.069 27.8215 186.776 26.9848 186.191 26.3125C185.606 25.6402 184.878 25.3041 184.006 25.3041C183.147 25.3041 182.425 25.6402 181.84 26.3125ZM180.963 53.1959L197.788 22.4291H201.224L184.399 53.1959H180.963ZM193.829 51.6297C192.646 50.2994 192.055 48.6975 192.055 46.8237C192.055 44.9499 192.646 43.3479 193.829 42.0177C195.012 40.6875 196.456 40.0224 198.162 40.0224C199.88 40.0224 201.33 40.6875 202.513 42.0177C203.695 43.3479 204.287 44.9499 204.287 46.8237C204.287 48.6975 203.695 50.2994 202.513 51.6297C201.33 52.9599 199.88 53.625 198.162 53.625C196.456 53.625 195.012 52.9599 193.829 51.6297ZM200.347 49.334C200.932 48.6617 201.224 47.8249 201.224 46.8237C201.224 45.8225 200.932 44.9857 200.347 44.3134C199.761 43.6412 199.033 43.305 198.162 43.305C197.303 43.305 196.581 43.6412 195.995 44.3134C195.41 44.9857 195.118 45.8225 195.118 46.8237C195.118 47.8249 195.41 48.6617 195.995 49.334C196.581 50.0062 197.303 50.3424 198.162 50.3424C199.033 50.3424 199.761 50.0062 200.347 49.334Z" fill="url(#paint106_linear)"/>
<path d="M143.991 22.4291H147.24V53.1959H143.038V29.917H138.258V26.6129C139.864 26.4126 141.084 25.9764 141.918 25.3041C142.765 24.6175 143.456 23.6592 143.991 22.4291Z" fill="url(#paint107_linear)"/>
<path d="M143.991 22.4291H147.24V53.1959H143.038V29.917H138.258V26.6129C139.864 26.4126 141.084 25.9764 141.918 25.3041C142.765 24.6175 143.456 23.6592 143.991 22.4291Z" fill="url(#paint108_linear)" fill-opacity="0.4"/>
<path d="M170.751 53.1959H152.973C152.973 51.2935 153.222 49.57 153.72 48.0252C154.218 46.4661 154.866 45.1716 155.662 44.1418C156.472 43.1119 157.355 42.1679 158.314 41.3097C159.285 40.4515 160.25 39.672 161.209 38.9711C162.167 38.2559 163.045 37.555 163.842 36.8685C164.651 36.1819 165.305 35.3809 165.803 34.4655C166.301 33.5358 166.55 32.5274 166.55 31.4403C166.55 29.8812 166.126 28.6511 165.28 27.75C164.446 26.8489 163.275 26.3983 161.769 26.3983C161.034 26.3983 160.343 26.5557 159.696 26.8703C159.061 27.1707 158.563 27.5354 158.202 27.9646C157.853 28.3794 157.542 28.8013 157.268 29.2304C157.007 29.6595 156.826 30.0314 156.727 30.3461L156.596 30.7966L153.16 29.0373C153.21 28.8371 153.278 28.5796 153.365 28.2649C153.465 27.9502 153.726 27.3924 154.15 26.5914C154.585 25.7904 155.09 25.0824 155.662 24.4674C156.235 23.8523 157.063 23.2873 158.146 22.7724C159.229 22.2575 160.437 22 161.769 22C164.396 22 166.55 22.9083 168.23 24.7248C169.911 26.5414 170.751 28.7799 170.751 31.4403C170.751 32.842 170.502 34.1437 170.004 35.3451C169.506 36.5466 168.871 37.555 168.099 38.3703C167.34 39.1713 166.462 40.0009 165.466 40.8591C164.483 41.703 163.524 42.4754 162.591 43.1763C161.657 43.8772 160.736 44.7211 159.827 45.708C158.93 46.6807 158.239 47.7105 157.754 48.7976H170.751V53.1959Z" fill="url(#paint109_linear)"/>
<path d="M170.751 53.1959H152.973C152.973 51.2935 153.222 49.57 153.72 48.0252C154.218 46.4661 154.866 45.1716 155.662 44.1418C156.472 43.1119 157.355 42.1679 158.314 41.3097C159.285 40.4515 160.25 39.672 161.209 38.9711C162.167 38.2559 163.045 37.555 163.842 36.8685C164.651 36.1819 165.305 35.3809 165.803 34.4655C166.301 33.5358 166.55 32.5274 166.55 31.4403C166.55 29.8812 166.126 28.6511 165.28 27.75C164.446 26.8489 163.275 26.3983 161.769 26.3983C161.034 26.3983 160.343 26.5557 159.696 26.8703C159.061 27.1707 158.563 27.5354 158.202 27.9646C157.853 28.3794 157.542 28.8013 157.268 29.2304C157.007 29.6595 156.826 30.0314 156.727 30.3461L156.596 30.7966L153.16 29.0373C153.21 28.8371 153.278 28.5796 153.365 28.2649C153.465 27.9502 153.726 27.3924 154.15 26.5914C154.585 25.7904 155.09 25.0824 155.662 24.4674C156.235 23.8523 157.063 23.2873 158.146 22.7724C159.229 22.2575 160.437 22 161.769 22C164.396 22 166.55 22.9083 168.23 24.7248C169.911 26.5414 170.751 28.7799 170.751 31.4403C170.751 32.842 170.502 34.1437 170.004 35.3451C169.506 36.5466 168.871 37.555 168.099 38.3703C167.34 39.1713 166.462 40.0009 165.466 40.8591C164.483 41.703 163.524 42.4754 162.591 43.1763C161.657 43.8772 160.736 44.7211 159.827 45.708C158.93 46.6807 158.239 47.7105 157.754 48.7976H170.751V53.1959Z" fill="url(#paint110_linear)" fill-opacity="0.4"/>
<path d="M185.056 23.9953C186.239 25.3256 186.83 26.9275 186.83 28.8013C186.83 30.6751 186.239 32.2842 185.056 33.6287C183.873 34.959 182.423 35.6241 180.705 35.6241C178.999 35.6241 177.555 34.959 176.372 33.6287C175.19 32.2842 174.598 30.6751 174.598 28.8013C174.598 26.9275 175.19 25.3256 176.372 23.9953C177.555 22.6651 178.999 22 180.705 22C182.423 22 183.873 22.6651 185.056 23.9953ZM178.538 26.3125C177.953 26.9848 177.661 27.8215 177.661 28.8228C177.661 29.8097 177.953 30.6393 178.538 31.3116C179.124 31.9838 179.846 32.32 180.705 32.32C181.576 32.32 182.304 31.9838 182.89 31.3116C183.475 30.6393 183.767 29.8097 183.767 28.8228C183.767 27.8215 183.475 26.9848 182.89 26.3125C182.304 25.6402 181.576 25.3041 180.705 25.3041C179.846 25.3041 179.124 25.6402 178.538 26.3125ZM177.661 53.1959L194.486 22.4291H197.922L181.097 53.1959H177.661ZM190.527 51.6297C189.345 50.2994 188.753 48.6975 188.753 46.8237C188.753 44.9499 189.345 43.3479 190.527 42.0177C191.71 40.6875 193.154 40.0224 194.86 40.0224C196.578 40.0224 198.028 40.6875 199.211 42.0177C200.394 43.3479 200.985 44.9499 200.985 46.8237C200.985 48.6975 200.394 50.2994 199.211 51.6297C198.028 52.9599 196.578 53.625 194.86 53.625C193.154 53.625 191.71 52.9599 190.527 51.6297ZM197.045 49.334C197.63 48.6617 197.922 47.8249 197.922 46.8237C197.922 45.8225 197.63 44.9857 197.045 44.3134C196.46 43.6412 195.731 43.305 194.86 43.305C194.001 43.305 193.279 43.6412 192.694 44.3134C192.109 44.9857 191.816 45.8225 191.816 46.8237C191.816 47.8249 192.109 48.6617 192.694 49.334C193.279 50.0062 194.001 50.3424 194.86 50.3424C195.731 50.3424 196.46 50.0062 197.045 49.334Z" fill="url(#paint111_linear)"/>
<path d="M185.056 23.9953C186.239 25.3256 186.83 26.9275 186.83 28.8013C186.83 30.6751 186.239 32.2842 185.056 33.6287C183.873 34.959 182.423 35.6241 180.705 35.6241C178.999 35.6241 177.555 34.959 176.372 33.6287C175.19 32.2842 174.598 30.6751 174.598 28.8013C174.598 26.9275 175.19 25.3256 176.372 23.9953C177.555 22.6651 178.999 22 180.705 22C182.423 22 183.873 22.6651 185.056 23.9953ZM178.538 26.3125C177.953 26.9848 177.661 27.8215 177.661 28.8228C177.661 29.8097 177.953 30.6393 178.538 31.3116C179.124 31.9838 179.846 32.32 180.705 32.32C181.576 32.32 182.304 31.9838 182.89 31.3116C183.475 30.6393 183.767 29.8097 183.767 28.8228C183.767 27.8215 183.475 26.9848 182.89 26.3125C182.304 25.6402 181.576 25.3041 180.705 25.3041C179.846 25.3041 179.124 25.6402 178.538 26.3125ZM177.661 53.1959L194.486 22.4291H197.922L181.097 53.1959H177.661ZM190.527 51.6297C189.345 50.2994 188.753 48.6975 188.753 46.8237C188.753 44.9499 189.345 43.3479 190.527 42.0177C191.71 40.6875 193.154 40.0224 194.86 40.0224C196.578 40.0224 198.028 40.6875 199.211 42.0177C200.394 43.3479 200.985 44.9499 200.985 46.8237C200.985 48.6975 200.394 50.2994 199.211 51.6297C198.028 52.9599 196.578 53.625 194.86 53.625C193.154 53.625 191.71 52.9599 190.527 51.6297ZM197.045 49.334C197.63 48.6617 197.922 47.8249 197.922 46.8237C197.922 45.8225 197.63 44.9857 197.045 44.3134C196.46 43.6412 195.731 43.305 194.86 43.305C194.001 43.305 193.279 43.6412 192.694 44.3134C192.109 44.9857 191.816 45.8225 191.816 46.8237C191.816 47.8249 192.109 48.6617 192.694 49.334C193.279 50.0062 194.001 50.3424 194.86 50.3424C195.731 50.3424 196.46 50.0062 197.045 49.334Z" fill="url(#paint112_linear)" fill-opacity="0.4"/>
</g>
</g>
<defs>
<filter id="filter0_d" x="554.672" y="273.622" width="43.6201" height="67.3761" filterUnits="userSpaceOnUse" color-interpolation-filters="sRGB">
<feFlood flood-opacity="0" result="BackgroundImageFix"/>
<feColorMatrix in="SourceAlpha" type="matrix" values="0 0 0 0 0 0 0 0 0 0 0 0 0 0 0 0 0 0 127 0" result="hardAlpha"/>
<feOffset dx="2" dy="2"/>
<feColorMatrix type="matrix" values="0 0 0 0 0 0 0 0 0 0 0 0 0 0 0 0 0 0 0.15 0"/>
<feBlend mode="normal" in2="BackgroundImageFix" result="effect1_dropShadow"/>
<feBlend mode="normal" in="SourceGraphic" in2="effect1_dropShadow" result="shape"/>
</filter>
<filter id="filter1_d" x="300.873" y="251.822" width="58.0414" height="146.106" filterUnits="userSpaceOnUse" color-interpolation-filters="sRGB">
<feFlood flood-opacity="0" result="BackgroundImageFix"/>
<feColorMatrix in="SourceAlpha" type="matrix" values="0 0 0 0 0 0 0 0 0 0 0 0 0 0 0 0 0 0 127 0" result="hardAlpha"/>
<feOffset dx="2" dy="2"/>
<feColorMatrix type="matrix" values="0 0 0 0 0 0 0 0 0 0 0 0 0 0 0 0 0 0 0.15 0"/>
<feBlend mode="normal" in2="BackgroundImageFix" result="effect1_dropShadow"/>
<feBlend mode="normal" in="SourceGraphic" in2="effect1_dropShadow" result="shape"/>
</filter>
<filter id="filter2_d" x="140.753" y="91.7041" width="154.112" height="226.166" filterUnits="userSpaceOnUse" color-interpolation-filters="sRGB">
<feFlood flood-opacity="0" result="BackgroundImageFix"/>
<feColorMatrix in="SourceAlpha" type="matrix" values="0 0 0 0 0 0 0 0 0 0 0 0 0 0 0 0 0 0 127 0" result="hardAlpha"/>
<feOffset dx="2" dy="2"/>
<feColorMatrix type="matrix" values="0 0 0 0 0 0 0 0 0 0 0 0 0 0 0 0 0 0 0.15 0"/>
<feBlend mode="normal" in2="BackgroundImageFix" result="effect1_dropShadow"/>
<feBlend mode="normal" in="SourceGraphic" in2="effect1_dropShadow" result="shape"/>
</filter>
<filter id="filter3_d" x="149.189" y="391.181" width="33.9921" height="61.8579" filterUnits="userSpaceOnUse" color-interpolation-filters="sRGB">
<feFlood flood-opacity="0" result="BackgroundImageFix"/>
<feColorMatrix in="SourceAlpha" type="matrix" values="0 0 0 0 0 0 0 0 0 0 0 0 0 0 0 0 0 0 127 0" result="hardAlpha"/>
<feOffset dx="2" dy="2"/>
<feColorMatrix type="matrix" values="0 0 0 0 0 0 0 0 0 0 0 0 0 0 0 0 0 0 0.15 0"/>
<feBlend mode="normal" in2="BackgroundImageFix" result="effect1_dropShadow"/>
<feBlend mode="normal" in="SourceGraphic" in2="effect1_dropShadow" result="shape"/>
</filter>
<filter id="filter4_d" x="581.98" y="17.36" width="25.4344" height="40.2859" filterUnits="userSpaceOnUse" color-interpolation-filters="sRGB">
<feFlood flood-opacity="0" result="BackgroundImageFix"/>
<feColorMatrix in="SourceAlpha" type="matrix" values="0 0 0 0 0 0 0 0 0 0 0 0 0 0 0 0 0 0 127 0" result="hardAlpha"/>
<feOffset dx="2" dy="2"/>
<feColorMatrix type="matrix" values="0 0 0 0 0 0 0 0 0 0 0 0 0 0 0 0 0 0 0.15 0"/>
<feBlend mode="normal" in2="BackgroundImageFix" result="effect1_dropShadow"/>
<feBlend mode="normal" in="SourceGraphic" in2="effect1_dropShadow" result="shape"/>
</filter>
<filter id="filter5_d" x="389.828" y="370" width="197.848" height="103.279" filterUnits="userSpaceOnUse" color-interpolation-filters="sRGB">
<feFlood flood-opacity="0" result="BackgroundImageFix"/>
<feColorMatrix in="SourceAlpha" type="matrix" values="0 0 0 0 0 0 0 0 0 0 0 0 0 0 0 0 0 0 127 0" result="hardAlpha"/>
<feOffset dx="2" dy="2"/>
<feColorMatrix type="matrix" values="0 0 0 0 0 0 0 0 0 0 0 0 0 0 0 0 0 0 0.15 0"/>
<feBlend mode="normal" in2="BackgroundImageFix" result="effect1_dropShadow"/>
<feBlend mode="normal" in="SourceGraphic" in2="effect1_dropShadow" result="shape"/>
</filter>
<filter id="filter6_d" x="470.688" y="124.501" width="37.1536" height="14.6944" filterUnits="userSpaceOnUse" color-interpolation-filters="sRGB">
<feFlood flood-opacity="0" result="BackgroundImageFix"/>
<feColorMatrix in="SourceAlpha" type="matrix" values="0 0 0 0 0 0 0 0 0 0 0 0 0 0 0 0 0 0 127 0" result="hardAlpha"/>
<feOffset dx="2" dy="2"/>
<feColorMatrix type="matrix" values="0 0 0 0 0 0 0 0 0 0 0 0 0 0 0 0 0 0 0.15 0"/>
<feBlend mode="normal" in2="BackgroundImageFix" result="effect1_dropShadow"/>
<feBlend mode="normal" in="SourceGraphic" in2="effect1_dropShadow" result="shape"/>
</filter>
<linearGradient id="paint0_linear" x1="567.422" y1="254.522" x2="541.989" y2="346.687" gradientUnits="userSpaceOnUse">
<stop stop-color="#5E5D60"/>
<stop offset="0.185142" stop-color="#1A1919"/>
<stop offset="0.325571" stop-color="#6C6C6C"/>
<stop offset="0.54959" stop-color="#282828"/>
<stop offset="0.65625" stop-color="#3C3B3D"/>
<stop offset="0.713542" stop-color="#4F5052"/>
<stop offset="0.863885" stop-color="#5A5A5A"/>
<stop offset="1" stop-color="#16171A"/>
</linearGradient>
<linearGradient id="paint1_linear" x1="587.206" y1="259.438" x2="562.364" y2="352.152" gradientUnits="userSpaceOnUse">
<stop stop-color="#2B292A"/>
<stop offset="0.624381" stop-color="#424041"/>
<stop offset="1" stop-color="#868585"/>
</linearGradient>
<linearGradient id="paint2_linear" x1="624.472" y1="272.173" x2="534.875" y2="350.311" gradientUnits="userSpaceOnUse">
<stop offset="0.670529" stop-color="#5C5757"/>
<stop offset="0.925805" stop-color="#514F50"/>
<stop offset="1" stop-color="#363435"/>
</linearGradient>
<linearGradient id="paint3_linear" x1="574.455" y1="258.646" x2="581.619" y2="309.67" gradientUnits="userSpaceOnUse">
<stop stop-color="white" stop-opacity="0.4"/>
<stop offset="1" stop-color="white" stop-opacity="0"/>
</linearGradient>
<linearGradient id="paint4_linear" x1="591.976" y1="277.894" x2="565.33" y2="330.848" gradientUnits="userSpaceOnUse">
<stop stop-color="#767676"/>
<stop offset="0.135417" stop-color="#606060"/>
<stop offset="0.630208" stop-color="#F8F8F8"/>
<stop offset="1" stop-color="#F8F8F8"/>
</linearGradient>
<linearGradient id="paint5_linear" x1="591.976" y1="277.894" x2="565.33" y2="330.848" gradientUnits="userSpaceOnUse">
<stop stop-color="#767676"/>
<stop offset="0.135417" stop-color="#606060"/>
<stop offset="0.630208" stop-color="#F8F8F8"/>
<stop offset="1" stop-color="#F8F8F8"/>
</linearGradient>
<linearGradient id="paint6_linear" x1="591.976" y1="277.894" x2="565.33" y2="330.848" gradientUnits="userSpaceOnUse">
<stop stop-color="#767676"/>
<stop offset="0.135417" stop-color="#606060"/>
<stop offset="0.630208" stop-color="#F8F8F8"/>
<stop offset="1" stop-color="#F8F8F8"/>
</linearGradient>
<linearGradient id="paint7_linear" x1="591.976" y1="277.894" x2="565.33" y2="330.848" gradientUnits="userSpaceOnUse">
<stop stop-color="#767676"/>
<stop offset="0.135417" stop-color="#606060"/>
<stop offset="0.630208" stop-color="#F8F8F8"/>
<stop offset="1" stop-color="#F8F8F8"/>
</linearGradient>
<linearGradient id="paint8_linear" x1="568.697" y1="282.809" x2="588.982" y2="325.995" gradientUnits="userSpaceOnUse">
<stop stop-color="#F8F8F8"/>
<stop offset="1" stop-color="#BEBEBE"/>
</linearGradient>
<linearGradient id="paint9_linear" x1="481.949" y1="30" x2="542.803" y2="481.804" gradientUnits="userSpaceOnUse">
<stop stop-color="#5E5D5E"/>
<stop offset="0.15625" stop-color="#2E2E2E"/>
<stop offset="0.364583" stop-color="#242327"/>
<stop offset="0.92713" stop-color="#615F60"/>
<stop offset="0.988098" stop-color="#1D1D21"/>
<stop offset="1" stop-color="#151619"/>
</linearGradient>
<linearGradient id="paint10_linear" x1="491.099" y1="482.621" x2="137.671" y2="280.59" gradientUnits="userSpaceOnUse">
<stop stop-color="#292728"/>
<stop offset="0.633935" stop-color="#434142"/>
<stop offset="1" stop-color="#8A8A8A"/>
</linearGradient>
<linearGradient id="paint11_linear" x1="473.229" y1="42.7989" x2="144.949" y2="285.925" gradientUnits="userSpaceOnUse">
<stop offset="0.670529" stop-color="#5C5757"/>
<stop offset="0.925805" stop-color="#514F50"/>
<stop offset="1" stop-color="#363435"/>
</linearGradient>
<linearGradient id="paint12_linear" x1="275.869" y1="35.5273" x2="535.342" y2="168.378" gradientUnits="userSpaceOnUse">
<stop stop-color="white" stop-opacity="0.4"/>
<stop offset="1" stop-color="white" stop-opacity="0"/>
</linearGradient>
<linearGradient id="paint13_linear" x1="379.502" y1="38" x2="379.502" y2="451" gradientUnits="userSpaceOnUse">
<stop stop-color="#292728"/>
<stop offset="0.625" stop-color="#434142"/>
<stop offset="1" stop-color="#8A8A8A"/>
</linearGradient>
<linearGradient id="paint14_linear" x1="311.923" y1="451" x2="517.972" y2="62.7384" gradientUnits="userSpaceOnUse">
<stop stop-color="#BEBEBE"/>
<stop offset="1" stop-color="#F8F8F8"/>
</linearGradient>
<linearGradient id="paint15_linear" x1="379.469" y1="451" x2="379.469" y2="35.9951" gradientUnits="userSpaceOnUse">
<stop stop-color="#292728"/>
<stop offset="0.625" stop-color="#434142"/>
<stop offset="1" stop-color="#8A8A8A"/>
</linearGradient>
<linearGradient id="paint16_linear" x1="379.469" y1="451" x2="379.469" y2="35.9951" gradientUnits="userSpaceOnUse">
<stop stop-color="#292728"/>
<stop offset="0.625" stop-color="#434142"/>
<stop offset="1" stop-color="#8A8A8A"/>
</linearGradient>
<linearGradient id="paint17_linear" x1="379.469" y1="451" x2="379.469" y2="35.9951" gradientUnits="userSpaceOnUse">
<stop stop-color="#292728"/>
<stop offset="0.625" stop-color="#434142"/>
<stop offset="1" stop-color="#8A8A8A"/>
</linearGradient>
<linearGradient id="paint18_linear" x1="379.469" y1="451" x2="379.469" y2="35.9951" gradientUnits="userSpaceOnUse">
<stop stop-color="#292728"/>
<stop offset="0.625" stop-color="#434142"/>
<stop offset="1" stop-color="#8A8A8A"/>
</linearGradient>
<linearGradient id="paint19_linear" x1="379.469" y1="451" x2="379.469" y2="35.9951" gradientUnits="userSpaceOnUse">
<stop stop-color="#292728"/>
<stop offset="0.625" stop-color="#434142"/>
<stop offset="1" stop-color="#8A8A8A"/>
</linearGradient>
<linearGradient id="paint20_linear" x1="379.469" y1="451" x2="379.469" y2="35.9951" gradientUnits="userSpaceOnUse">
<stop stop-color="#292728"/>
<stop offset="0.625" stop-color="#434142"/>
<stop offset="1" stop-color="#8A8A8A"/>
</linearGradient>
<linearGradient id="paint21_linear" x1="379.469" y1="451" x2="379.469" y2="35.9951" gradientUnits="userSpaceOnUse">
<stop stop-color="#292728"/>
<stop offset="0.625" stop-color="#434142"/>
<stop offset="1" stop-color="#8A8A8A"/>
</linearGradient>
<linearGradient id="paint22_linear" x1="379.469" y1="451" x2="379.469" y2="35.9951" gradientUnits="userSpaceOnUse">
<stop stop-color="#292728"/>
<stop offset="0.625" stop-color="#434142"/>
<stop offset="1" stop-color="#8A8A8A"/>
</linearGradient>
<linearGradient id="paint23_linear" x1="379.469" y1="451" x2="379.469" y2="35.9951" gradientUnits="userSpaceOnUse">
<stop stop-color="#292728"/>
<stop offset="0.625" stop-color="#434142"/>
<stop offset="1" stop-color="#8A8A8A"/>
</linearGradient>
<linearGradient id="paint24_linear" x1="379.469" y1="451" x2="379.469" y2="35.9951" gradientUnits="userSpaceOnUse">
<stop stop-color="#292728"/>
<stop offset="0.625" stop-color="#434142"/>
<stop offset="1" stop-color="#8A8A8A"/>
</linearGradient>
<linearGradient id="paint25_linear" x1="379.469" y1="451" x2="379.469" y2="35.9951" gradientUnits="userSpaceOnUse">
<stop stop-color="#292728"/>
<stop offset="0.625" stop-color="#434142"/>
<stop offset="1" stop-color="#8A8A8A"/>
</linearGradient>
<linearGradient id="paint26_linear" x1="379.469" y1="451" x2="379.469" y2="35.9951" gradientUnits="userSpaceOnUse">
<stop stop-color="#292728"/>
<stop offset="0.625" stop-color="#434142"/>
<stop offset="1" stop-color="#8A8A8A"/>
</linearGradient>
<linearGradient id="paint27_linear" x1="379.469" y1="451" x2="379.469" y2="35.9951" gradientUnits="userSpaceOnUse">
<stop stop-color="#292728"/>
<stop offset="0.625" stop-color="#434142"/>
<stop offset="1" stop-color="#8A8A8A"/>
</linearGradient>
<linearGradient id="paint28_linear" x1="379.469" y1="451" x2="379.469" y2="35.9951" gradientUnits="userSpaceOnUse">
<stop stop-color="#292728"/>
<stop offset="0.625" stop-color="#434142"/>
<stop offset="1" stop-color="#8A8A8A"/>
</linearGradient>
<linearGradient id="paint29_linear" x1="379.469" y1="451" x2="379.469" y2="35.9951" gradientUnits="userSpaceOnUse">
<stop stop-color="#292728"/>
<stop offset="0.625" stop-color="#434142"/>
<stop offset="1" stop-color="#8A8A8A"/>
</linearGradient>
<linearGradient id="paint30_linear" x1="379.469" y1="451" x2="379.469" y2="35.9951" gradientUnits="userSpaceOnUse">
<stop stop-color="#292728"/>
<stop offset="0.625" stop-color="#434142"/>
<stop offset="1" stop-color="#8A8A8A"/>
</linearGradient>
<linearGradient id="paint31_linear" x1="379.469" y1="451" x2="379.469" y2="35.9951" gradientUnits="userSpaceOnUse">
<stop stop-color="#292728"/>
<stop offset="0.625" stop-color="#434142"/>
<stop offset="1" stop-color="#8A8A8A"/>
</linearGradient>
<linearGradient id="paint32_linear" x1="379.469" y1="451" x2="379.469" y2="35.9951" gradientUnits="userSpaceOnUse">
<stop stop-color="#292728"/>
<stop offset="0.625" stop-color="#434142"/>
<stop offset="1" stop-color="#8A8A8A"/>
</linearGradient>
<linearGradient id="paint33_linear" x1="379.469" y1="451" x2="379.469" y2="35.9951" gradientUnits="userSpaceOnUse">
<stop stop-color="#292728"/>
<stop offset="0.625" stop-color="#434142"/>
<stop offset="1" stop-color="#8A8A8A"/>
</linearGradient>
<linearGradient id="paint34_linear" x1="379.469" y1="451" x2="379.469" y2="35.9951" gradientUnits="userSpaceOnUse">
<stop stop-color="#292728"/>
<stop offset="0.625" stop-color="#434142"/>
<stop offset="1" stop-color="#8A8A8A"/>
</linearGradient>
<linearGradient id="paint35_linear" x1="379.469" y1="451" x2="379.469" y2="35.9951" gradientUnits="userSpaceOnUse">
<stop stop-color="#292728"/>
<stop offset="0.625" stop-color="#434142"/>
<stop offset="1" stop-color="#8A8A8A"/>
</linearGradient>
<linearGradient id="paint36_linear" x1="379.469" y1="451" x2="379.469" y2="35.9951" gradientUnits="userSpaceOnUse">
<stop stop-color="#292728"/>
<stop offset="0.625" stop-color="#434142"/>
<stop offset="1" stop-color="#8A8A8A"/>
</linearGradient>
<linearGradient id="paint37_linear" x1="379.502" y1="38" x2="379.502" y2="451" gradientUnits="userSpaceOnUse">
<stop stop-color="#292728"/>
<stop offset="0.625" stop-color="#434142"/>
<stop offset="1" stop-color="#8A8A8A"/>
</linearGradient>
<linearGradient id="paint38_linear" x1="66.7069" y1="171.773" x2="66.7069" y2="235.81" gradientUnits="userSpaceOnUse">
<stop stop-color="#2B292A"/>
<stop offset="0.624381" stop-color="#424041"/>
<stop offset="1" stop-color="#868585"/>
</linearGradient>
<linearGradient id="paint39_linear" x1="317.764" y1="255.999" x2="352.257" y2="377.074" gradientUnits="userSpaceOnUse">
<stop stop-color="#767676"/>
<stop offset="0.135417" stop-color="#606060"/>
<stop offset="0.630208" stop-color="#F8F8F8"/>
<stop offset="1" stop-color="#F8F8F8"/>
</linearGradient>
<linearGradient id="paint40_linear" x1="339.079" y1="279.29" x2="271.736" y2="342.244" gradientUnits="userSpaceOnUse">
<stop stop-color="#F8F8F8"/>
<stop offset="1" stop-color="#BEBEBE"/>
</linearGradient>
<linearGradient id="paint41_linear" x1="454.226" y1="283.586" x2="454.453" y2="363.905" gradientUnits="userSpaceOnUse">
<stop stop-color="#56D599"/>
<stop offset="0.15625" stop-color="#1EAD64"/>
<stop offset="0.371058" stop-color="#1EAE65"/>
<stop offset="0.75" stop-color="#57D69A"/>
<stop offset="0.91676" stop-color="#1EA65F"/>
<stop offset="1" stop-color="#178E4E"/>
</linearGradient>
<linearGradient id="paint42_linear" x1="410.961" y1="283.846" x2="410.961" y2="364" gradientUnits="userSpaceOnUse">
<stop stop-color="#1FA05B"/>
<stop offset="0.569228" stop-color="#1DB369"/>
<stop offset="1" stop-color="#62DDA3"/>
</linearGradient>
<linearGradient id="paint43_linear" x1="398.002" y1="284" x2="397.817" y2="364" gradientUnits="userSpaceOnUse">
<stop offset="0.479067" stop-color="white" stop-opacity="0"/>
<stop offset="0.479167" stop-color="white"/>
<stop offset="1" stop-color="white" stop-opacity="0"/>
</linearGradient>
<linearGradient id="paint44_linear" x1="420.903" y1="283.846" x2="409.888" y2="386.155" gradientUnits="userSpaceOnUse">
<stop offset="0.217623" stop-color="#20B56C"/>
<stop offset="0.656122" stop-color="#B2F5D4"/>
<stop offset="1" stop-color="#1FA25D"/>
</linearGradient>
<linearGradient id="paint45_linear" x1="368.803" y1="286.348" x2="385.517" y2="342.019" gradientUnits="userSpaceOnUse">
<stop stop-color="white" stop-opacity="0.67"/>
<stop offset="1" stop-color="white" stop-opacity="0"/>
</linearGradient>
<linearGradient id="paint46_linear" x1="186.601" y1="98.2008" x2="218.983" y2="296.538" gradientUnits="userSpaceOnUse">
<stop stop-color="#767676"/>
<stop offset="0.135417" stop-color="#606060"/>
<stop offset="0.630208" stop-color="#F8F8F8"/>
<stop offset="1" stop-color="#F8F8F8"/>
</linearGradient>
<linearGradient id="paint47_linear" x1="261.599" y1="134.432" x2="168.031" y2="287.057" gradientUnits="userSpaceOnUse">
<stop stop-color="#F8F8F8"/>
<stop offset="1" stop-color="#BEBEBE"/>
</linearGradient>
<linearGradient id="paint48_linear" x1="132.619" y1="58.7446" x2="140.871" y2="347.658" gradientUnits="userSpaceOnUse">
<stop stop-color="#56D599"/>
<stop offset="0.15625" stop-color="#1EAD64"/>
<stop offset="0.371058" stop-color="#1EAE65"/>
<stop offset="0.75" stop-color="#57D69A"/>
<stop offset="0.91676" stop-color="#1EA65F"/>
<stop offset="1" stop-color="#178E4E"/>
</linearGradient>
<linearGradient id="paint49_linear" x1="110.739" y1="59.6807" x2="110.739" y2="451.47" gradientUnits="userSpaceOnUse">
<stop stop-color="#1FA05B"/>
<stop offset="0.569228" stop-color="#1DB369"/>
<stop offset="1" stop-color="#62DDA3"/>
</linearGradient>
<linearGradient id="paint50_linear" x1="104.957" y1="195.376" x2="130.763" y2="195.331" gradientUnits="userSpaceOnUse">
<stop offset="0.479067" stop-color="white" stop-opacity="0"/>
<stop offset="0.479167" stop-color="white"/>
<stop offset="1" stop-color="white" stop-opacity="0"/>
</linearGradient>
<linearGradient id="paint51_linear" x1="114.29" y1="59.6807" x2="-71.3778" y2="230.754" gradientUnits="userSpaceOnUse">
<stop offset="0.217623" stop-color="#20B56C"/>
<stop offset="0.656122" stop-color="#B2F5D4"/>
<stop offset="1" stop-color="#1FA25D"/>
</linearGradient>
<linearGradient id="paint52_linear" x1="95.6828" y1="68.6873" x2="160.769" y2="90.1935" gradientUnits="userSpaceOnUse">
<stop stop-color="white" stop-opacity="0.67"/>
<stop offset="1" stop-color="white" stop-opacity="0"/>
</linearGradient>
<linearGradient id="paint53_linear" x1="382.173" y1="155.439" x2="382.501" y2="251.821" gradientUnits="userSpaceOnUse">
<stop stop-color="#56D599"/>
<stop offset="0.15625" stop-color="#1EAD64"/>
<stop offset="0.371058" stop-color="#1EAE65"/>
<stop offset="0.75" stop-color="#57D69A"/>
<stop offset="0.91676" stop-color="#1EA65F"/>
<stop offset="1" stop-color="#178E4E"/>
</linearGradient>
<linearGradient id="paint54_linear" x1="338.908" y1="155.751" x2="338.908" y2="286.348" gradientUnits="userSpaceOnUse">
<stop stop-color="#1FA05B"/>
<stop offset="0.569228" stop-color="#1DB369"/>
<stop offset="1" stop-color="#62DDA3"/>
</linearGradient>
<linearGradient id="paint55_linear" x1="322.718" y1="200.983" x2="394.959" y2="199.942" gradientUnits="userSpaceOnUse">
<stop offset="0.479067" stop-color="white" stop-opacity="0"/>
<stop offset="0.479167" stop-color="white"/>
<stop offset="1" stop-color="white" stop-opacity="0"/>
</linearGradient>
<linearGradient id="paint56_linear" x1="348.851" y1="155.751" x2="333.068" y2="277.906" gradientUnits="userSpaceOnUse">
<stop offset="0.217623" stop-color="#20B56C"/>
<stop offset="0.656122" stop-color="#B2F5D4"/>
<stop offset="1" stop-color="#1FA25D"/>
</linearGradient>
<linearGradient id="paint57_linear" x1="296.75" y1="158.754" x2="319.974" y2="223.214" gradientUnits="userSpaceOnUse">
<stop stop-color="white" stop-opacity="0.67"/>
<stop offset="1" stop-color="white" stop-opacity="0"/>
</linearGradient>
<linearGradient id="paint58_linear" x1="144.803" y1="378.348" x2="144.163" y2="464.215" gradientUnits="userSpaceOnUse">
<stop stop-color="#5E5D60"/>
<stop offset="0.185142" stop-color="#1A1919"/>
<stop offset="0.325571" stop-color="#6C6C6C"/>
<stop offset="0.54959" stop-color="#282828"/>
<stop offset="0.65625" stop-color="#3C3B3D"/>
<stop offset="0.713542" stop-color="#4F5052"/>
<stop offset="0.863885" stop-color="#5A5A5A"/>
<stop offset="1" stop-color="#16171A"/>
</linearGradient>
<linearGradient id="paint59_linear" x1="163.11" y1="378.014" x2="163.11" y2="464.22" gradientUnits="userSpaceOnUse">
<stop stop-color="#2B292A"/>
<stop offset="0.624381" stop-color="#424041"/>
<stop offset="1" stop-color="#868585"/>
</linearGradient>
<linearGradient id="paint60_linear" x1="198.4" y1="380.399" x2="138.835" y2="469.013" gradientUnits="userSpaceOnUse">
<stop offset="0.670529" stop-color="#5C5757"/>
<stop offset="0.925805" stop-color="#514F50"/>
<stop offset="1" stop-color="#363435"/>
</linearGradient>
<linearGradient id="paint61_linear" x1="151.864" y1="380.291" x2="169.94" y2="422.89" gradientUnits="userSpaceOnUse">
<stop stop-color="white" stop-opacity="0.4"/>
<stop offset="1" stop-color="white" stop-opacity="0"/>
</linearGradient>
<linearGradient id="paint62_linear" x1="171.539" y1="392.916" x2="160.732" y2="445.049" gradientUnits="userSpaceOnUse">
<stop stop-color="#767676"/>
<stop offset="0.135417" stop-color="#606060"/>
<stop offset="0.630208" stop-color="#F8F8F8"/>
<stop offset="1" stop-color="#F8F8F8"/>
</linearGradient>
<linearGradient id="paint63_linear" x1="171.539" y1="392.916" x2="160.732" y2="445.049" gradientUnits="userSpaceOnUse">
<stop stop-color="#767676"/>
<stop offset="0.135417" stop-color="#606060"/>
<stop offset="0.630208" stop-color="#F8F8F8"/>
<stop offset="1" stop-color="#F8F8F8"/>
</linearGradient>
<linearGradient id="paint64_linear" x1="171.539" y1="392.916" x2="160.732" y2="445.049" gradientUnits="userSpaceOnUse">
<stop stop-color="#767676"/>
<stop offset="0.135417" stop-color="#606060"/>
<stop offset="0.630208" stop-color="#F8F8F8"/>
<stop offset="1" stop-color="#F8F8F8"/>
</linearGradient>
<linearGradient id="paint65_linear" x1="171.539" y1="392.916" x2="160.732" y2="445.049" gradientUnits="userSpaceOnUse">
<stop stop-color="#767676"/>
<stop offset="0.135417" stop-color="#606060"/>
<stop offset="0.630208" stop-color="#F8F8F8"/>
<stop offset="1" stop-color="#F8F8F8"/>
</linearGradient>
<linearGradient id="paint66_linear" x1="152.487" y1="402.59" x2="180.124" y2="435.34" gradientUnits="userSpaceOnUse">
<stop stop-color="#F8F8F8"/>
<stop offset="1" stop-color="#BEBEBE"/>
</linearGradient>
<linearGradient id="paint67_linear" x1="573.455" y1="12.9651" x2="587.544" y2="67.1557" gradientUnits="userSpaceOnUse">
<stop stop-color="#5E5D60"/>
<stop offset="0.185142" stop-color="#1A1919"/>
<stop offset="0.325571" stop-color="#6C6C6C"/>
<stop offset="0.54959" stop-color="#282828"/>
<stop offset="0.65625" stop-color="#3C3B3D"/>
<stop offset="0.713542" stop-color="#4F5052"/>
<stop offset="0.863885" stop-color="#5A5A5A"/>
<stop offset="1" stop-color="#16171A"/>
</linearGradient>
<linearGradient id="paint68_linear" x1="584.929" y1="9.66532" x2="599.478" y2="63.9611" gradientUnits="userSpaceOnUse">
<stop stop-color="#2B292A"/>
<stop offset="0.624381" stop-color="#424041"/>
<stop offset="1" stop-color="#868585"/>
</linearGradient>
<linearGradient id="paint69_linear" x1="607.558" y1="5.21195" x2="584.997" y2="71.0765" gradientUnits="userSpaceOnUse">
<stop offset="0.670529" stop-color="#5C5757"/>
<stop offset="0.925805" stop-color="#514F50"/>
<stop offset="1" stop-color="#363435"/>
</linearGradient>
<linearGradient id="paint70_linear" x1="578.23" y1="12.9974" x2="596.804" y2="36.7771" gradientUnits="userSpaceOnUse">
<stop stop-color="white" stop-opacity="0.4"/>
<stop offset="1" stop-color="white" stop-opacity="0"/>
</linearGradient>
<linearGradient id="paint71_linear" x1="592.753" y1="17.6287" x2="594.745" y2="52.2876" gradientUnits="userSpaceOnUse">
<stop stop-color="#767676"/>
<stop offset="0.135417" stop-color="#606060"/>
<stop offset="0.630208" stop-color="#F8F8F8"/>
<stop offset="1" stop-color="#F8F8F8"/>
</linearGradient>
<linearGradient id="paint72_linear" x1="592.753" y1="17.6287" x2="594.745" y2="52.2876" gradientUnits="userSpaceOnUse">
<stop stop-color="#767676"/>
<stop offset="0.135417" stop-color="#606060"/>
<stop offset="0.630208" stop-color="#F8F8F8"/>
<stop offset="1" stop-color="#F8F8F8"/>
</linearGradient>
<linearGradient id="paint73_linear" x1="592.753" y1="17.6287" x2="594.745" y2="52.2876" gradientUnits="userSpaceOnUse">
<stop stop-color="#767676"/>
<stop offset="0.135417" stop-color="#606060"/>
<stop offset="0.630208" stop-color="#F8F8F8"/>
<stop offset="1" stop-color="#F8F8F8"/>
</linearGradient>
<linearGradient id="paint74_linear" x1="592.753" y1="17.6287" x2="594.745" y2="52.2876" gradientUnits="userSpaceOnUse">
<stop stop-color="#767676"/>
<stop offset="0.135417" stop-color="#606060"/>
<stop offset="0.630208" stop-color="#F8F8F8"/>
<stop offset="1" stop-color="#F8F8F8"/>
</linearGradient>
<linearGradient id="paint75_linear" x1="582.386" y1="26.9378" x2="605.32" y2="42.9009" gradientUnits="userSpaceOnUse">
<stop stop-color="#F8F8F8"/>
<stop offset="1" stop-color="#BEBEBE"/>
</linearGradient>
<linearGradient id="paint76_linear" x1="526.646" y1="372.935" x2="521.392" y2="464.633" gradientUnits="userSpaceOnUse">
<stop stop-color="#767676"/>
<stop offset="0.135417" stop-color="#606060"/>
<stop offset="0.630208" stop-color="#F8F8F8"/>
<stop offset="1" stop-color="#F8F8F8"/>
</linearGradient>
<linearGradient id="paint77_linear" x1="526.646" y1="372.935" x2="521.392" y2="464.633" gradientUnits="userSpaceOnUse">
<stop stop-color="#767676"/>
<stop offset="0.135417" stop-color="#606060"/>
<stop offset="0.630208" stop-color="#F8F8F8"/>
<stop offset="1" stop-color="#F8F8F8"/>
</linearGradient>
<linearGradient id="paint78_linear" x1="526.646" y1="372.935" x2="521.392" y2="464.633" gradientUnits="userSpaceOnUse">
<stop stop-color="#767676"/>
<stop offset="0.135417" stop-color="#606060"/>
<stop offset="0.630208" stop-color="#F8F8F8"/>
<stop offset="1" stop-color="#F8F8F8"/>
</linearGradient>
<linearGradient id="paint79_linear" x1="526.646" y1="372.935" x2="521.392" y2="464.633" gradientUnits="userSpaceOnUse">
<stop stop-color="#767676"/>
<stop offset="0.135417" stop-color="#606060"/>
<stop offset="0.630208" stop-color="#F8F8F8"/>
<stop offset="1" stop-color="#F8F8F8"/>
</linearGradient>
<linearGradient id="paint80_linear" x1="526.646" y1="372.935" x2="521.392" y2="464.633" gradientUnits="userSpaceOnUse">
<stop stop-color="#767676"/>
<stop offset="0.135417" stop-color="#606060"/>
<stop offset="0.630208" stop-color="#F8F8F8"/>
<stop offset="1" stop-color="#F8F8F8"/>
</linearGradient>
<linearGradient id="paint81_linear" x1="526.646" y1="372.935" x2="521.392" y2="464.633" gradientUnits="userSpaceOnUse">
<stop stop-color="#767676"/>
<stop offset="0.135417" stop-color="#606060"/>
<stop offset="0.630208" stop-color="#F8F8F8"/>
<stop offset="1" stop-color="#F8F8F8"/>
</linearGradient>
<linearGradient id="paint82_linear" x1="526.646" y1="372.935" x2="521.392" y2="464.633" gradientUnits="userSpaceOnUse">
<stop stop-color="#767676"/>
<stop offset="0.135417" stop-color="#606060"/>
<stop offset="0.630208" stop-color="#F8F8F8"/>
<stop offset="1" stop-color="#F8F8F8"/>
</linearGradient>
<linearGradient id="paint83_linear" x1="526.646" y1="372.935" x2="521.392" y2="464.633" gradientUnits="userSpaceOnUse">
<stop stop-color="#767676"/>
<stop offset="0.135417" stop-color="#606060"/>
<stop offset="0.630208" stop-color="#F8F8F8"/>
<stop offset="1" stop-color="#F8F8F8"/>
</linearGradient>
<linearGradient id="paint84_linear" x1="526.646" y1="372.935" x2="521.392" y2="464.633" gradientUnits="userSpaceOnUse">
<stop stop-color="#767676"/>
<stop offset="0.135417" stop-color="#606060"/>
<stop offset="0.630208" stop-color="#F8F8F8"/>
<stop offset="1" stop-color="#F8F8F8"/>
</linearGradient>
<linearGradient id="paint85_linear" x1="415.455" y1="389.304" x2="435.581" y2="479.697" gradientUnits="userSpaceOnUse">
<stop stop-color="#F8F8F8"/>
<stop offset="1" stop-color="#BEBEBE"/>
</linearGradient>
<linearGradient id="paint86_linear" x1="469.925" y1="82.5794" x2="469.261" y2="212.505" gradientUnits="userSpaceOnUse">
<stop stop-color="#56D599"/>
<stop offset="0.15625" stop-color="#1EAD64"/>
<stop offset="0.371058" stop-color="#1EAE65"/>
<stop offset="0.75" stop-color="#57D69A"/>
<stop offset="0.91676" stop-color="#1EA65F"/>
<stop offset="1" stop-color="#178E4E"/>
</linearGradient>
<linearGradient id="paint87_linear" x1="469.925" y1="82.5794" x2="469.261" y2="212.505" gradientUnits="userSpaceOnUse">
<stop stop-color="#56D599"/>
<stop offset="0.15625" stop-color="#1EAD64"/>
<stop offset="0.371058" stop-color="#1EAE65"/>
<stop offset="0.75" stop-color="#57D69A"/>
<stop offset="0.91676" stop-color="#1EA65F"/>
<stop offset="1" stop-color="#178E4E"/>
</linearGradient>
<linearGradient id="paint88_linear" x1="487.277" y1="83.23" x2="487.277" y2="258.974" gradientUnits="userSpaceOnUse">
<stop stop-color="#1FA05B"/>
<stop offset="0.569228" stop-color="#1DB369"/>
<stop offset="1" stop-color="#62DDA3"/>
</linearGradient>
<linearGradient id="paint89_linear" x1="537.325" y1="141.811" x2="437" y2="141.811" gradientUnits="userSpaceOnUse">
<stop offset="0.479067" stop-color="white" stop-opacity="0"/>
<stop offset="0.479167" stop-color="white"/>
<stop offset="1" stop-color="white" stop-opacity="0"/>
</linearGradient>
<linearGradient id="paint90_linear" x1="487.277" y1="83.23" x2="487.277" y2="258.974" gradientUnits="userSpaceOnUse">
<stop stop-color="#1FA05B"/>
<stop offset="0.569228" stop-color="#1DB369"/>
<stop offset="1" stop-color="#62DDA3"/>
</linearGradient>
<linearGradient id="paint91_linear" x1="537.325" y1="141.811" x2="437" y2="141.811" gradientUnits="userSpaceOnUse">
<stop offset="0.479067" stop-color="white" stop-opacity="0"/>
<stop offset="0.479167" stop-color="white"/>
<stop offset="1" stop-color="white" stop-opacity="0"/>
</linearGradient>
<linearGradient id="paint92_linear" x1="478.357" y1="83.23" x2="509.574" y2="244.307" gradientUnits="userSpaceOnUse">
<stop offset="0.217623" stop-color="#20B56C"/>
<stop offset="0.656122" stop-color="#B2F5D4"/>
<stop offset="1" stop-color="#1FA25D"/>
</linearGradient>
<linearGradient id="paint93_linear" x1="525.098" y1="87.2701" x2="484.106" y2="163.121" gradientUnits="userSpaceOnUse">
<stop stop-color="white" stop-opacity="0.67"/>
<stop offset="1" stop-color="white" stop-opacity="0"/>
</linearGradient>
<linearGradient id="paint94_linear" x1="495.246" y1="124.868" x2="494.786" y2="136.381" gradientUnits="userSpaceOnUse">
<stop stop-color="#767676"/>
<stop offset="0.135417" stop-color="#606060"/>
<stop offset="0.630208" stop-color="#F8F8F8"/>
<stop offset="1" stop-color="#F8F8F8"/>
</linearGradient>
<linearGradient id="paint95_linear" x1="495.246" y1="124.868" x2="494.786" y2="136.381" gradientUnits="userSpaceOnUse">
<stop stop-color="#767676"/>
<stop offset="0.135417" stop-color="#606060"/>
<stop offset="0.630208" stop-color="#F8F8F8"/>
<stop offset="1" stop-color="#F8F8F8"/>
</linearGradient>
<linearGradient id="paint96_linear" x1="495.246" y1="124.868" x2="494.786" y2="136.381" gradientUnits="userSpaceOnUse">
<stop stop-color="#767676"/>
<stop offset="0.135417" stop-color="#606060"/>
<stop offset="0.630208" stop-color="#F8F8F8"/>
<stop offset="1" stop-color="#F8F8F8"/>
</linearGradient>
<linearGradient id="paint97_linear" x1="495.246" y1="124.868" x2="494.786" y2="136.381" gradientUnits="userSpaceOnUse">
<stop stop-color="#767676"/>
<stop offset="0.135417" stop-color="#606060"/>
<stop offset="0.630208" stop-color="#F8F8F8"/>
<stop offset="1" stop-color="#F8F8F8"/>
</linearGradient>
<linearGradient id="paint98_linear" x1="474.912" y1="126.92" x2="476.731" y2="138.526" gradientUnits="userSpaceOnUse">
<stop stop-color="#F8F8F8"/>
<stop offset="1" stop-color="#BEBEBE"/>
</linearGradient>
<linearGradient id="paint99_linear" x1="191.567" y1="6.80221" x2="190.629" y2="89.9402" gradientUnits="userSpaceOnUse">
<stop stop-color="#56D599"/>
<stop offset="0.15625" stop-color="#1EAD64"/>
<stop offset="0.541667" stop-color="#1EAE65"/>
<stop offset="0.75" stop-color="#57D69A"/>
<stop offset="0.91676" stop-color="#1EA65F"/>
<stop offset="1" stop-color="#178E4E"/>
</linearGradient>
<linearGradient id="paint100_linear" x1="190.696" y1="7" x2="190.696" y2="89.7861" gradientUnits="userSpaceOnUse">
<stop stop-color="#1FA05B"/>
<stop offset="0.569228" stop-color="#1DB369"/>
<stop offset="1" stop-color="#62DDA3"/>
</linearGradient>
<linearGradient id="paint101_linear" x1="216.288" y1="34.5954" x2="163" y2="34.5954" gradientUnits="userSpaceOnUse">
<stop offset="0.479067" stop-color="white" stop-opacity="0"/>
<stop offset="0.479167" stop-color="white"/>
<stop offset="1" stop-color="white" stop-opacity="0"/>
</linearGradient>
<linearGradient id="paint102_linear" x1="168.709" y1="9.85469" x2="197.462" y2="92.3332" gradientUnits="userSpaceOnUse">
<stop offset="0.217623" stop-color="#20B56C"/>
<stop offset="0.877893" stop-color="#B2F5D4"/>
<stop offset="1" stop-color="#1FA25D"/>
</linearGradient>
<linearGradient id="paint103_linear" x1="211.53" y1="8.90313" x2="193.95" y2="46.9443" gradientUnits="userSpaceOnUse">
<stop stop-color="white" stop-opacity="0.67"/>
<stop offset="1" stop-color="white" stop-opacity="0"/>
</linearGradient>
<linearGradient id="paint104_linear" x1="145.237" y1="20.2156" x2="191.65" y2="70.7067" gradientUnits="userSpaceOnUse">
<stop stop-color="#1A8E50"/>
<stop offset="0.569228" stop-color="#1A9156"/>
<stop offset="1" stop-color="#5AD79C"/>
</linearGradient>
<linearGradient id="paint105_linear" x1="145.237" y1="20.2156" x2="191.65" y2="70.7067" gradientUnits="userSpaceOnUse">
<stop stop-color="#1A8E50"/>
<stop offset="0.569228" stop-color="#1A9156"/>
<stop offset="1" stop-color="#5AD79C"/>
</linearGradient>
<linearGradient id="paint106_linear" x1="145.237" y1="20.2156" x2="191.65" y2="70.7067" gradientUnits="userSpaceOnUse">
<stop stop-color="#1A8E50"/>
<stop offset="0.569228" stop-color="#1A9156"/>
<stop offset="1" stop-color="#5AD79C"/>
</linearGradient>
<linearGradient id="paint107_linear" x1="145.348" y1="19.2529" x2="203.773" y2="22.3298" gradientUnits="userSpaceOnUse">
<stop stop-color="#A3EFCA"/>
<stop offset="1" stop-color="#B3F7D5"/>
</linearGradient>
<linearGradient id="paint108_linear" x1="207.676" y1="43.321" x2="134.257" y2="43.321" gradientUnits="userSpaceOnUse">
<stop stop-color="white" stop-opacity="0.41"/>
<stop offset="0.479167" stop-color="white"/>
<stop offset="0.671875" stop-color="white" stop-opacity="0"/>
</linearGradient>
<linearGradient id="paint109_linear" x1="145.348" y1="19.2529" x2="203.773" y2="22.3298" gradientUnits="userSpaceOnUse">
<stop stop-color="#A3EFCA"/>
<stop offset="1" stop-color="#B3F7D5"/>
</linearGradient>
<linearGradient id="paint110_linear" x1="207.676" y1="43.321" x2="134.257" y2="43.321" gradientUnits="userSpaceOnUse">
<stop stop-color="white" stop-opacity="0.41"/>
<stop offset="0.479167" stop-color="white"/>
<stop offset="0.671875" stop-color="white" stop-opacity="0"/>
</linearGradient>
<linearGradient id="paint111_linear" x1="145.348" y1="19.2529" x2="203.773" y2="22.3298" gradientUnits="userSpaceOnUse">
<stop stop-color="#A3EFCA"/>
<stop offset="1" stop-color="#B3F7D5"/>
</linearGradient>
<linearGradient id="paint112_linear" x1="207.676" y1="43.321" x2="134.257" y2="43.321" gradientUnits="userSpaceOnUse">
<stop stop-color="white" stop-opacity="0.41"/>
<stop offset="0.479167" stop-color="white"/>
<stop offset="0.671875" stop-color="white" stop-opacity="0"/>
</linearGradient>
<clipPath id="clip0">
<rect width="642" height="531" fill="white"/>
</clipPath>
<clipPath id="clip1">
<rect width="30" height="33" fill="white" transform="translate(174 22)"/>
</clipPath>
</defs>
</svg>
