<?xml version="1.0" encoding="utf-8"?>
<!-- Generator: Adobe Illustrator 25.0.1, SVG Export Plug-In . SVG Version: 6.00 Build 0)  -->
<svg version="1.1" id="Capa_1" xmlns="http://www.w3.org/2000/svg" xmlns:xlink="http://www.w3.org/1999/xlink" x="0px" y="0px"
	 viewBox="0 0 634 699" style="enable-background:new 0 0 634 699;" xml:space="preserve">
<style type="text/css">
	.st0{fill:url(#SVGID_1_);}
	.st1{fill:url(#SVGID_2_);}
	.st2{fill-rule:evenodd;clip-rule:evenodd;fill:url(#SVGID_3_);}
	.st3{fill-rule:evenodd;clip-rule:evenodd;fill:url(#SVGID_4_);}
	.st4{fill-rule:evenodd;clip-rule:evenodd;fill:url(#SVGID_5_);}
	.st5{fill:url(#SVGID_6_);}
	.st6{clip-path:url(#SVGID_8_);}
	.st7{fill:#FFFFFF;}
	.st8{clip-path:url(#SVGID_10_);}
	.st9{fill:#FF5F2D;}
	.st10{fill:url(#SVGID_11_);}
	.st11{fill:url(#SVGID_12_);}
	.st12{fill-rule:evenodd;clip-rule:evenodd;fill:url(#SVGID_13_);}
	.st13{fill-rule:evenodd;clip-rule:evenodd;fill:url(#SVGID_14_);}
	.st14{fill-rule:evenodd;clip-rule:evenodd;fill:url(#SVGID_15_);}
	.st15{fill:url(#SVGID_16_);}
	.st16{fill:url(#SVGID_17_);}
	.st17{fill-rule:evenodd;clip-rule:evenodd;fill:url(#SVGID_18_);}
	.st18{fill-rule:evenodd;clip-rule:evenodd;fill:url(#SVGID_19_);}
	.st19{fill-rule:evenodd;clip-rule:evenodd;fill:url(#SVGID_20_);}
</style>
<linearGradient id="SVGID_1_" gradientUnits="userSpaceOnUse" x1="212.4889" y1="153.8904" x2="177.3119" y2="28.9473" gradientTransform="matrix(1 0 0 -1 0 700)">
	<stop  offset="0" style="stop-color:#AAAAAA"/>
	<stop  offset="0.1563" style="stop-color:#47484A"/>
	<stop  offset="0.3646" style="stop-color:#2A2B2E"/>
	<stop  offset="0.8338" style="stop-color:#777777"/>
	<stop  offset="0.9168" style="stop-color:#3E3E43"/>
	<stop  offset="1" style="stop-color:#28292B"/>
</linearGradient>
<path class="st0" d="M144.7,593.2c11.7-33.8,43.3-55.2,70.7-47.7c2.8,0.8,5.5,1.8,8,3.1c4.9,2.5,15.7,8.2,19.1,12
	c12.2,14.5,11.1,37.7,3,61.2c-11.7,33.8-66.8,51.1-71.4,48.9c-4.6-2.1-9.7-6-13.4-8.6C142.3,649.3,135,621.4,144.7,593.2z"/>
<linearGradient id="SVGID_2_" gradientUnits="userSpaceOnUse" x1="222.9115" y1="148.5714" x2="188.9984" y2="23.934" gradientTransform="matrix(1 0 0 -1 0 700)">
	<stop  offset="0" style="stop-color:#292728"/>
	<stop  offset="0.625" style="stop-color:#434142"/>
	<stop  offset="1" style="stop-color:#8A8A8A"/>
</linearGradient>
<path class="st1" d="M157,598.6c11.3-32.9,42.1-53.6,68.7-46.4l2.8,0.8c26.6,7.2,39,39.8,27.7,72.6l-1.2,3.4
	c-11.3,32.9-42.1,53.6-68.7,46.4l-2.8-0.7c-26.6-7.2-39-39.8-27.7-72.6L157,598.6z"/>
<linearGradient id="SVGID_3_" gradientUnits="userSpaceOnUse" x1="265.462" y1="129.2879" x2="146.332" y2="42.9259" gradientTransform="matrix(1 0 0 -1 0 700)">
	<stop  offset="0.6705" style="stop-color:#8C8C8C"/>
	<stop  offset="0.9258" style="stop-color:#1C1D20"/>
	<stop  offset="1" style="stop-color:#434244"/>
</linearGradient>
<path class="st2" d="M226.8,557.6l-2.7-0.7c-24.6-6.7-53.1,12.5-63.5,42.9l-1.1,3.3c-10.5,30.4,1,60.5,25.6,67.2l2.7,0.7
	c24.6,6.7,53.1-12.5,63.5-42.9l1.1-3.3C262.8,594.3,251.4,564.3,226.8,557.6z M224.9,554.6c-25.6-7-55.3,13-66.2,44.7l-1.1,3.3
	c-10.9,31.7,1,63,26.7,70l2.7,0.7c25.6,7,55.3-13,66.2-44.7l1.1-3.3c10.9-31.7-1-63-26.7-70L224.9,554.6z"/>
<linearGradient id="SVGID_4_" gradientUnits="userSpaceOnUse" x1="225.0151" y1="151.8492" x2="188.0021" y2="24.4671" gradientTransform="matrix(1 0 0 -1 0 700)">
	<stop  offset="0.6705" style="stop-color:#8C8C8C"/>
	<stop  offset="0.9258" style="stop-color:#1C1D20"/>
	<stop  offset="1" style="stop-color:#434244"/>
</linearGradient>
<path class="st3" d="M227.6,555.3l-2.8-0.8c-25.6-7-55.1,13-65.9,44.5l-1.2,3.4c-10.9,31.5,1,62.8,26.6,69.7l2.8,0.8
	c25.6,7,55.1-13,65.9-44.5l1.2-3.4C265.1,593.5,253.2,562.3,227.6,555.3z M225.7,552.2c-26.6-7.2-57.4,13.5-68.7,46.4l-1.2,3.4
	c-11.3,32.9,1.1,65.4,27.7,72.6l2.8,0.7c26.6,7.2,57.4-13.5,68.7-46.4l1.2-3.4c11.3-32.9-1.1-65.4-27.7-72.6L225.7,552.2z"/>
<linearGradient id="SVGID_5_" gradientUnits="userSpaceOnUse" x1="176.0697" y1="170.4973" x2="199.1657" y2="105.3903" gradientTransform="matrix(1 0 0 -1 0 700)">
	<stop  offset="0" style="stop-color:#FFFFFF;stop-opacity:0.94"/>
	<stop  offset="1" style="stop-color:#FFFFFF;stop-opacity:0.26"/>
</linearGradient>
<path class="st4" d="M227.6,555.3l-2.8-0.8c-25.6-7-55.1,13-65.9,44.5l-1.2,3.4c-10.9,31.5,1,62.8,26.6,69.7l2.8,0.8
	c25.6,7,55.1-13,65.9-44.5l1.2-3.4C265.1,593.5,253.2,562.3,227.6,555.3z M225.7,552.2c-26.6-7.2-57.4,13.5-68.7,46.4l-1.2,3.4
	c-11.3,32.9,1.1,65.4,27.7,72.6l2.8,0.7c26.6,7.2,57.4-13.5,68.7-46.4l1.2-3.4c11.3-32.9-1.1-65.4-27.7-72.6L225.7,552.2z"/>
<g>
	
		<linearGradient id="SVGID_6_" gradientUnits="userSpaceOnUse" x1="92.7949" y1="236.1684" x2="19.7465" y2="237.8194" gradientTransform="matrix(1 0 0 -1 0 700)">
		<stop  offset="0" style="stop-color:#1CBA6E"/>
		<stop  offset="1" style="stop-color:#26A862"/>
	</linearGradient>
	<path class="st5" d="M36,427h40c8.8,0,16,7.2,16,16v40c0,8.8-7.2,16-16,16H36c-8.8,0-16-7.2-16-16v-40C20,434.2,27.2,427,36,427z"
		/>
</g>
<g>
	<defs>
		<rect id="SVGID_7_" x="35.4" y="442.4" width="41.1" height="41.1"/>
	</defs>
	<clipPath id="SVGID_8_">
		<use xlink:href="#SVGID_7_"  style="overflow:visible;"/>
	</clipPath>
	<g class="st6">
		<path class="st7" d="M74.5,456c-0.4-4.1-1.3-6.9-1.4-7c-0.1-0.3-0.4-0.5-0.7-0.4c-2.9,0.7-6.3-0.4-7-5.2c0-0.3-0.3-0.5-0.5-0.5
			c0,0-3.5-0.4-9-0.4c-1.1,0-3.3,0-4.4,0.1c-0.3,0,0.1,0.2,0.1,0.5c0,0.3-0.4,0.7,0,0.7c3.3-0.2,11.7,0.1,12.8,0.3
			c0.4,2.3,1.4,3.9,2.9,4.9c1.8,1.2,3.9,1.1,4.9,0.9c3.8,13.4-0.4,27.4-16.2,32.5c-2.6-0.9-7-3.4-9-4.7c-0.7-0.4-1.3,0.6-0.6,1
			c2.2,1.4,6.7,4,9.4,4.9c0.1,0,0.3,0,0.4,0C69.8,479.3,75.8,468.1,74.5,456z"/>
		<path class="st7" d="M47,477.6c-8.7-6.4-9.9-18.7-7.2-27.8c1,0.2,3.1,0.3,4.9-0.9c1.5-1,2.5-2.6,2.9-4.9c0.4,0,3-0.3,4-0.3
			c0.3,0,0-0.4,0-0.7c0-0.3,0.2-0.5-0.1-0.5c-1.7,0.1-4.5,0.4-4.5,0.4c-0.3,0-0.5,0.2-0.5,0.5c-0.3,2.1-1.2,3.7-2.5,4.5
			c-2,1.3-4.5,0.7-4.5,0.7c-0.3-0.1-0.6,0.1-0.7,0.4c-2.9,8.9-2.3,22.2,7.4,29.6c0.1,0.1,0.2,0.1,0.4,0.1c0.2,0,0.4-0.1,0.5-0.2
			C47.3,478.2,47.3,477.8,47,477.6z"/>
		<path class="st7" d="M42,457.4c-0.3,0-0.6,0.2-0.6,0.6c-0.4,10.2,4.5,17.6,14.4,21.3c0.1,0.1,0.3,0.1,0.4,0
			c9.6-3.6,14.4-10.5,14.4-20.2c0-0.3-0.3-0.6-0.6-0.6h0c-0.3,0-0.6,0.3-0.6,0.6c0,9.1-4.5,15.6-13.5,19
			c-9.4-3.6-13.8-10.5-13.4-20.1C42.6,457.7,42.3,457.4,42,457.4z"/>
		<path class="st7" d="M70.1,453.1c0-0.3-0.3-0.5-0.5-0.5c-3.2-0.5-5.7-2-7.3-5.6c-0.1-0.2-0.3-0.4-0.5-0.4c-3.7-0.2-8-0.2-11.6,0
			c-0.2,0-0.4,0.2-0.5,0.4c-1.6,3.6-4,5.2-7.2,5.6c-0.3,0-0.5,0.2-0.5,0.5c-0.1,0.7-0.5,4-0.5,4.7c0,0.3,0.2,0.6,0.5,0.7
			c0.3,0,0.6-0.2,0.7-0.5c0.1-0.6,0.4-3.7,0.5-4.2c3.3-0.6,5.9-2.3,7.6-6c3.4-0.2,7.3-0.2,10.7,0c1.1,2.4,2.6,3.7,3.7,4.5
			c1.2,0.8,2.5,1.3,3.9,1.5c0.2,0.9,0.4,4.4,0.5,5.3c0,0.3,0.3,0.5,0.6,0.5c0,0,0,0,0.1,0c0.3,0,0.6-0.3,0.5-0.7
			C70.6,457.9,70.3,454.2,70.1,453.1z"/>
		<path class="st7" d="M49.5,457.3c0-1.2-1-2.2-2.2-2.2c-2.6,0.1-3,3.6-0.6,4.3v3.8c0,0.2,0.1,0.3,0.2,0.4l2.8,2.7
			c0.2,0.2,0.6,0.2,0.9,0c0.2-0.2,0.2-0.6,0-0.9l-2.6-2.5v-3.6C48.8,459.1,49.5,458.3,49.5,457.3z M47.3,458.3c-0.6,0-1-0.5-1-1
			c0.1-1.3,2-1.3,2,0C48.3,457.8,47.9,458.3,47.3,458.3z"/>
		<path class="st7" d="M49.7,469.8c-0.2,0.2-0.2,0.6,0,0.9c0.2,0.2,0.6,0.2,0.9,0l2.8-2.8c0.1-0.1,0.2-0.3,0.2-0.4v-11.7
			c0-0.2-0.1-0.3-0.2-0.4l-2.8-2.8c-0.2-0.2-0.6-0.2-0.9,0c-0.2,0.2-0.2,0.6,0,0.9l2.6,2.6v11.2L49.7,469.8z"/>
		<path class="st7" d="M61.4,465.5c-0.2,0.2-0.3,0.6,0,0.9c0.2,0.2,0.6,0.3,0.9,0l2.8-2.7c0.1-0.1,0.2-0.3,0.2-0.4v-3.8
			c0.9-0.3,1.6-1.1,1.6-2.1c-0.1-2.9-4.3-2.9-4.4,0c0,1,0.7,1.9,1.6,2.1v3.6L61.4,465.5z M63.7,457.3c0-0.6,0.5-1,1-1
			c1.3,0.1,1.3,2,0,2C64.1,458.3,63.7,457.8,63.7,457.3z"/>
		<path class="st7" d="M61.4,452.5l-2.8,2.8c-0.1,0.1-0.2,0.3-0.2,0.4v11.7c0,0.2,0.1,0.3,0.2,0.4l2.8,2.8c0.2,0.2,0.6,0.2,0.9,0
			c0.2-0.2,0.2-0.6,0-0.9l-2.6-2.6v-11.2l2.6-2.6c0.2-0.2,0.2-0.6,0-0.9C62,452.2,61.6,452.2,61.4,452.5z"/>
		<path class="st7" d="M56,457.9c0.3,0,0.6-0.3,0.6-0.6v-6.6c0-0.8-1.2-0.8-1.2,0v6.6C55.4,457.6,55.7,457.9,56,457.9z"/>
		<path class="st7" d="M53.8,472.9c0,1.2,1,2.2,2.2,2.2c2.6-0.1,3-3.6,0.6-4.3v-2.3c0-0.8-1.2-0.8-1.2,0v2.3
			C54.5,471.1,53.8,471.9,53.8,472.9z M56,471.9c0.6,0,1,0.4,1,1c-0.1,1.3-2,1.3-2,0C55,472.4,55.4,471.9,56,471.9z"/>
		<path class="st7" d="M56,463.5c0.3,0,0.6-0.3,0.6-0.6c0-0.8-1.2-0.8-1.2,0C55.4,463.2,55.7,463.5,56,463.5z"/>
		<path class="st7" d="M56,460.7c0.3,0,0.6-0.3,0.6-0.6c0-0.8-1.2-0.8-1.2,0C55.4,460.4,55.7,460.7,56,460.7z"/>
		<path class="st7" d="M56,465.1c-0.3,0-0.6,0.3-0.6,0.6c0,0.8,1.2,0.8,1.2,0C56.6,465.3,56.3,465.1,56,465.1z"/>
	</g>
</g>
<g>
	<path class="st7" d="M528.6,298h40c8.8,0,16,7.2,16,16v40c0,8.8-7.2,16-16,16h-40c-8.8,0-16-7.2-16-16v-40
		C512.6,305.2,519.7,298,528.6,298z"/>
</g>
<g>
	<defs>
		<rect id="SVGID_9_" x="528" y="313.4" width="41.1" height="41.1"/>
	</defs>
	<clipPath id="SVGID_10_">
		<use xlink:href="#SVGID_9_"  style="overflow:visible;"/>
	</clipPath>
	<g class="st8">
		<path class="st9" d="M555.7,337.6c0.3,0,0.6-0.3,0.6-0.6v-7.6c0-0.3-0.2-0.5-0.4-0.6l-7.1-2.7c-0.1-0.1-0.3-0.1-0.4,0l-7.1,2.7
			c-0.2,0.1-0.4,0.3-0.4,0.6v1.9c0,0.3,0.3,0.6,0.6,0.6s0.6-0.3,0.6-0.6v-1.1l5.9,2.2v8l-5.9-2.2v-6.8c0-0.3-0.3-0.6-0.6-0.6
			s-0.6,0.3-0.6,0.6v7.2c0,0.3,0.2,0.5,0.4,0.6l7.1,2.7v0c0.1,0,0.1,0,0.2,0c0.1,0,0.1,0,0.2,0l7.1-2.7c0.2-0.1,0.4-0.3,0.4-0.6
			v-2.1c0-0.3-0.3-0.6-0.6-0.6c-0.3,0-0.6,0.3-0.6,0.6v1.7l-5.9,2.2v-8l5.9-2.2v6.7C555.1,337.3,555.4,337.6,555.7,337.6z
			 M548.6,331.4l-5.4-2l5.4-2l5.4,2L548.6,331.4z"/>
		<path class="st9" d="M548,319.4v4.3c0,0.3,0.3,0.6,0.6,0.6c0.3,0,0.6-0.3,0.6-0.6v-4.3c1.4-0.3,2.4-1.5,2.4-3c0-1.7-1.4-3-3-3
			c-1.7,0-3,1.4-3,3C545.5,317.9,546.6,319.2,548,319.4z M548.6,314.6c1,0,1.8,0.8,1.8,1.8c0,1-0.8,1.8-1.8,1.8
			c-1,0-1.8-0.8-1.8-1.8C546.7,315.5,547.6,314.6,548.6,314.6z"/>
		<path class="st9" d="M560.2,341.4c-0.9,0-1.8,0.3-2.5,0.8l-1.4-1.4c-0.2-0.2-0.6-0.2-0.9,0c-0.2,0.2-0.2,0.6,0,0.9l1.4,1.4
			c-0.5,0.7-0.8,1.6-0.8,2.5c0,2.3,1.9,4.2,4.2,4.2c2.3,0,4.2-1.9,4.2-4.2C564.3,343.3,562.5,341.4,560.2,341.4z M560.2,348.6
			c-1.6,0-3-1.3-3-3s1.3-3,3-3c1.6,0,3,1.3,3,3S561.8,348.6,560.2,348.6z"/>
		<path class="st9" d="M537,326.6c0.9,0,1.8-0.3,2.5-0.8l1.4,1.4c0.1,0.1,0.3,0.2,0.4,0.2c0.2,0,0.3-0.1,0.4-0.2
			c0.2-0.2,0.2-0.6,0-0.9l-1.4-1.4c0.5-0.7,0.8-1.6,0.8-2.5c0-2.3-1.9-4.2-4.2-4.2c-2.3,0-4.2,1.9-4.2,4.2
			C532.8,324.7,534.7,326.6,537,326.6z M537,319.4c1.6,0,3,1.3,3,3s-1.3,3-3,3s-3-1.3-3-3S535.3,319.4,537,319.4z"/>
		<path class="st9" d="M549.2,348.6v-4.3c0-0.3-0.3-0.6-0.6-0.6c-0.3,0-0.6,0.3-0.6,0.6v4.3c-1.4,0.3-2.4,1.5-2.4,3c0,1.7,1.4,3,3,3
			c1.7,0,3-1.4,3-3C551.6,350.1,550.6,348.8,549.2,348.6z M548.6,353.4c-1,0-1.8-0.8-1.8-1.8c0-1,0.8-1.8,1.8-1.8
			c1,0,1.8,0.8,1.8,1.8C550.4,352.5,549.6,353.4,548.6,353.4z"/>
		<path class="st9" d="M566.1,331c-1.5,0-2.7,1-3,2.4h-4.3c-0.3,0-0.6,0.3-0.6,0.6s0.3,0.6,0.6,0.6h4.3c0.3,1.4,1.5,2.4,3,2.4
			c1.7,0,3-1.4,3-3S567.8,331,566.1,331z M566.1,335.8c-1,0-1.8-0.8-1.8-1.8c0-1,0.8-1.8,1.8-1.8c1,0,1.8,0.8,1.8,1.8
			C567.9,335,567.1,335.8,566.1,335.8z"/>
		<path class="st9" d="M534,334.6h4.3c0.3,0,0.6-0.3,0.6-0.6s-0.3-0.6-0.6-0.6H534c-0.3-1.4-1.5-2.4-3-2.4c-1.7,0-3,1.4-3,3
			s1.4,3,3,3C532.5,337,533.7,336,534,334.6z M531,335.8c-1,0-1.8-0.8-1.8-1.8c0-1,0.8-1.8,1.8-1.8c1,0,1.8,0.8,1.8,1.8
			C532.9,335,532,335.8,531,335.8z"/>
		<path class="st9" d="M555.8,327.4c0.2,0,0.3-0.1,0.4-0.2l1.4-1.4c0.7,0.5,1.6,0.8,2.5,0.8c2.3,0,4.2-1.9,4.2-4.2
			c0-2.3-1.9-4.2-4.2-4.2s-4.2,1.9-4.2,4.2c0,0.9,0.3,1.8,0.8,2.5l-1.4,1.4c-0.2,0.2-0.2,0.6,0,0.9
			C555.5,327.3,555.6,327.4,555.8,327.4z M560.2,319.4c1.6,0,3,1.3,3,3s-1.3,3-3,3c-1.6,0-3-1.3-3-3S558.5,319.4,560.2,319.4z"/>
		<path class="st9" d="M540.9,340.8l-1.4,1.4c-0.7-0.5-1.6-0.8-2.5-0.8c-2.3,0-4.2,1.9-4.2,4.2c0,2.3,1.9,4.2,4.2,4.2
			s4.2-1.9,4.2-4.2c0-0.9-0.3-1.8-0.8-2.5l1.4-1.4c0.2-0.2,0.2-0.6,0-0.9C541.5,340.6,541.1,340.6,540.9,340.8z M537,348.6
			c-1.6,0-3-1.3-3-3s1.3-3,3-3s3,1.3,3,3S538.6,348.6,537,348.6z"/>
	</g>
</g>
<linearGradient id="SVGID_11_" gradientUnits="userSpaceOnUse" x1="524.7632" y1="678.3391" x2="562.7402" y2="517.4325" gradientTransform="matrix(1 0 0 -1 0 700)">
	<stop  offset="0" style="stop-color:#AAAAAA"/>
	<stop  offset="0.1563" style="stop-color:#47484A"/>
	<stop  offset="0.3646" style="stop-color:#2A2B2E"/>
	<stop  offset="0.8338" style="stop-color:#777777"/>
	<stop  offset="0.9168" style="stop-color:#3E3E43"/>
	<stop  offset="1" style="stop-color:#28292B"/>
</linearGradient>
<path class="st10" d="M608.4,85.3c-13-43.6-52.1-72.5-87.4-64.6c-3.6,0.8-7.1,2-10.3,3.5c-6.3,2.9-20.4,9.6-25,14.2
	c-16.4,17.8-16.2,47.4-7.2,77.7c13,43.6,82.3,68.6,88.2,66.2c5.9-2.4,12.6-7.2,17.5-10.2C608.5,156.8,619.3,121.7,608.4,85.3z"/>
<linearGradient id="SVGID_12_" gradientUnits="userSpaceOnUse" x1="511.2105" y1="672.1354" x2="547.5966" y2="511.687" gradientTransform="matrix(1 0 0 -1 0 700)">
	<stop  offset="0" style="stop-color:#292728"/>
	<stop  offset="0.625" style="stop-color:#434142"/>
	<stop  offset="1" style="stop-color:#8A8A8A"/>
</linearGradient>
<path class="st11" d="M592.6,91.4c-12.6-42.4-50.6-70.5-84.9-62.8l-3.5,0.8c-34.3,7.8-51.8,48.5-39.2,90.9l1.3,4.4
	c12.6,42.4,50.6,70.5,84.9,62.8l3.5-0.8c34.3-7.8,51.8-48.5,39.2-90.9L592.6,91.4z"/>
<linearGradient id="SVGID_13_" gradientUnits="userSpaceOnUse" x1="456.0152" y1="649.9083" x2="602.9222" y2="533.5375" gradientTransform="matrix(1 0 0 -1 0 700)">
	<stop  offset="0.6705" style="stop-color:#8C8C8C"/>
	<stop  offset="0.9258" style="stop-color:#1C1D20"/>
	<stop  offset="1" style="stop-color:#434244"/>
</linearGradient>
<path class="st12" d="M506,35.5l3.4-0.8c31.7-7.2,66.8,18.8,78.5,58.1l1.3,4.2c11.7,39.3-4.5,76.9-36.2,84.1l-3.4,0.8
	c-31.7,7.2-66.8-18.8-78.5-58.1l-1.3-4.2C458.1,80.3,474.3,42.7,506,35.5z M508.5,31.7c33-7.5,69.6,19.6,81.8,60.5l1.3,4.2
	c12.2,40.9-4.7,80.1-37.7,87.6l-3.4,0.8c-33,7.5-69.6-19.6-81.8-60.5l-1.3-4.2c-12.2-40.9,4.7-80.1,37.7-87.6L508.5,31.7z"/>
<linearGradient id="SVGID_14_" gradientUnits="userSpaceOnUse" x1="508.7113" y1="676.4217" x2="548.8934" y2="512.3117" gradientTransform="matrix(1 0 0 -1 0 700)">
	<stop  offset="0.6705" style="stop-color:#8C8C8C"/>
	<stop  offset="0.9258" style="stop-color:#1C1D20"/>
	<stop  offset="1" style="stop-color:#434244"/>
</linearGradient>
<path class="st13" d="M505,32.5l3.5-0.8c32.9-7.5,69.4,19.5,81.5,60.2l1.3,4.4c12.1,40.7-4.7,79.8-37.6,87.3l-3.5,0.8
	c-32.9,7.5-69.4-19.5-81.5-60.2l-1.3-4.4C455.3,79.1,472.1,40,505,32.5z M507.7,28.7c34.3-7.8,72.3,20.3,84.9,62.8l1.3,4.4
	c12.6,42.4-4.9,83.1-39.2,90.9l-3.5,0.8c-34.3,7.8-72.3-20.3-84.9-62.8l-1.3-4.4c-12.6-42.4,4.9-83.1,39.2-90.9L507.7,28.7z"/>
<linearGradient id="SVGID_15_" gradientUnits="userSpaceOnUse" x1="572.0093" y1="697.4927" x2="539.0823" y2="615.8962" gradientTransform="matrix(1 0 0 -1 0 700)">
	<stop  offset="0" style="stop-color:#FFFFFF;stop-opacity:0.94"/>
	<stop  offset="1" style="stop-color:#FFFFFF;stop-opacity:0.26"/>
</linearGradient>
<path class="st14" d="M505,32.5l3.5-0.8c32.9-7.5,69.4,19.5,81.5,60.2l1.3,4.4c12.1,40.7-4.7,79.8-37.6,87.3l-3.5,0.8
	c-32.9,7.5-69.4-19.5-81.5-60.2l-1.3-4.4C455.3,79.1,472.1,40,505,32.5z M507.7,28.7c34.3-7.8,72.3,20.3,84.9,62.8l1.3,4.4
	c12.6,42.4-4.9,83.1-39.2,90.9l-3.5,0.8c-34.3,7.8-72.3-20.3-84.9-62.8l-1.3-4.4c-12.6-42.4,4.9-83.1,39.2-90.9L507.7,28.7z"/>
<linearGradient id="SVGID_16_" gradientUnits="userSpaceOnUse" x1="414.7529" y1="556.9944" x2="251.7629" y2="194.3754" gradientTransform="matrix(1 0 0 -1 0 700)">
	<stop  offset="0" style="stop-color:#AAAAAA"/>
	<stop  offset="0.1563" style="stop-color:#47484A"/>
	<stop  offset="0.3646" style="stop-color:#2A2B2E"/>
	<stop  offset="0.8338" style="stop-color:#777777"/>
	<stop  offset="0.9168" style="stop-color:#3E3E43"/>
	<stop  offset="1" style="stop-color:#28292B"/>
</linearGradient>
<path class="st15" d="M481.3,386.9c39-102.3,6.7-214.7-72.2-251.1c-8.1-3.8-16.5-6.5-24.9-8.4c-16.4-3.7-53.1-11.6-68.5-9.5
	c-57.3,10-100.3,66.6-127.5,137.9c-39,102.3,56.6,251.3,71.5,255.3c14.9,4,34.6,4.8,48.2,6.1C376.8,523.6,448.7,472.2,481.3,386.9z"
	/>
<linearGradient id="SVGID_17_" gradientUnits="userSpaceOnUse" x1="379.8124" y1="564.9887" x2="214.4566" y2="205.5733" gradientTransform="matrix(1 0 0 -1 0 700)">
	<stop  offset="0" style="stop-color:#292728"/>
	<stop  offset="0.625" style="stop-color:#434142"/>
	<stop  offset="1" style="stop-color:#8A8A8A"/>
</linearGradient>
<path class="st16" d="M442.1,375.3c38-99.4,6.6-208.7-70.2-244l-7.9-3.7c-76.8-35.3-169.8,16.7-207.8,116.1l-3.9,10.3
	c-38,99.4-6.6,208.7,70.2,244l7.9,3.7c76.8,35.3,169.8-16.7,207.8-116.1L442.1,375.3z"/>
<linearGradient id="SVGID_18_" gradientUnits="userSpaceOnUse" x1="241.9587" y1="603.3472" x2="352.0027" y2="166.3132" gradientTransform="matrix(1 0 0 -1 0 700)">
	<stop  offset="0.6705" style="stop-color:#8C8C8C"/>
	<stop  offset="0.9258" style="stop-color:#1C1D20"/>
	<stop  offset="1" style="stop-color:#434244"/>
</linearGradient>
<path class="st17" d="M358.7,141.9l7.6,3.5c71,32.7,100,133.7,64.9,225.7l-3.8,9.9c-35.2,92-121.2,140.1-192.2,107.4l-7.7-3.5
	c-71-32.7-100-133.7-64.9-225.7l3.8-9.9C201.7,157.3,287.7,109.2,358.7,141.9z M369,138.5c73.9,34,104.2,139.3,67.6,235.1l-3.8,9.9
	c-36.6,95.8-126.2,145.9-200.2,111.9l-7.6-3.5c-73.9-34-104.2-139.3-67.6-235.1l3.8-9.9c36.6-95.8,126.2-145.9,200.2-111.9
	L369,138.5z"/>
<linearGradient id="SVGID_19_" gradientUnits="userSpaceOnUse" x1="381.3164" y1="576.8254" x2="217.8444" y2="204.8674" gradientTransform="matrix(1 0 0 -1 0 700)">
	<stop  offset="0.6705" style="stop-color:#8C8C8C"/>
	<stop  offset="0.9258" style="stop-color:#1C1D20"/>
	<stop  offset="1" style="stop-color:#434244"/>
</linearGradient>
<path class="st18" d="M361.2,134.9l7.9,3.7c73.7,33.9,103.9,138.8,67.4,234.2l-3.9,10.3c-36.5,95.5-125.8,145.4-199.5,111.5
	l-7.9-3.7c-73.7-33.9-103.9-138.8-67.4-234.2l3.9-10.3C198.2,150.9,287.5,101,361.2,134.9z M371.9,131.4
	c76.8,35.3,108.2,144.5,70.2,244l-3.9,10.3c-38,99.4-131,151.4-207.8,116.1l-7.9-3.7c-76.8-35.3-108.2-144.5-70.2-244l3.9-10.3
	c38-99.4,131-151.4,207.8-116.1L371.9,131.4z"/>
<linearGradient id="SVGID_20_" gradientUnits="userSpaceOnUse" x1="532.9363" y1="524.4084" x2="350.7013" y2="416.8864" gradientTransform="matrix(1 0 0 -1 0 700)">
	<stop  offset="0" style="stop-color:#FFFFFF;stop-opacity:0.94"/>
	<stop  offset="1" style="stop-color:#FFFFFF;stop-opacity:0.26"/>
</linearGradient>
<path class="st19" d="M361.2,134.9l7.9,3.7c73.7,33.9,103.9,138.8,67.4,234.2l-3.9,10.3c-36.5,95.5-125.8,145.4-199.5,111.5
	l-7.9-3.7c-73.7-33.9-103.9-138.8-67.4-234.2l3.9-10.3C198.2,150.9,287.5,101,361.2,134.9z M371.9,131.4
	c76.8,35.3,108.2,144.5,70.2,244l-3.9,10.3c-38,99.4-131,151.4-207.8,116.1l-7.9-3.7c-76.8-35.3-108.2-144.5-70.2-244l3.9-10.3
	c38-99.4,131-151.4,207.8-116.1L371.9,131.4z"/>
</svg>
