<svg width="100" height="100" viewBox="0 0 100 100" fill="none" xmlns="http://www.w3.org/2000/svg">
<rect width="100" height="100" rx="16" fill="url(#paint0_linear)"/>
<g clip-path="url(#clip0)">
<path d="M74.5 33.6667H25.5C23.5703 33.6667 22 35.237 22 37.1667V69.8335C22 71.7632 23.5703 73.3335 25.5 73.3335H74.5C76.4297 73.3335 78 71.7632 78 69.8335V37.1667C78 35.237 76.4297 33.6667 74.5 33.6667ZM75.6667 69.8333C75.6667 70.4773 75.144 71 74.5 71H25.5C24.856 71 24.3333 70.4773 24.3333 69.8333V37.1667C24.3333 36.5227 24.856 36 25.5 36H74.5C75.144 36 75.6667 36.5227 75.6667 37.1667V69.8333Z" fill="white"/>
<path d="M55.8331 26.6667H44.1665C42.2368 26.6667 40.6665 28.237 40.6665 30.1667V34.8334C40.6665 35.4774 41.1892 36.0001 41.8332 36.0001H58.1665C58.8105 36.0001 59.3332 35.4774 59.3332 34.8334V30.1667C59.3331 28.237 57.7628 26.6667 55.8331 26.6667ZM56.9998 33.6667H42.9998V30.1667C42.9998 29.5227 43.5225 29 44.1665 29H55.8332C56.4771 29 56.9998 29.5227 56.9998 30.1667V33.6667Z" fill="white"/>
<path d="M76.8333 47.6667H23.1667C22.5227 47.6667 22 48.1893 22 48.8333C22 49.4773 22.5227 50 23.1667 50H76.8334C77.4774 50 78.0001 49.4773 78.0001 48.8333C78.0001 48.1893 77.4773 47.6667 76.8333 47.6667Z" fill="white"/>
<path d="M39.4998 47.6667C38.8558 47.6667 38.3331 48.1894 38.3331 48.8334V54.6667H33.6664V48.8334C33.6664 48.1894 33.1437 47.6667 32.4997 47.6667C31.8557 47.6667 31.333 48.1894 31.333 48.8334V55.8334C31.3331 56.4773 31.8558 57 32.4998 57H39.4998C40.1438 57 40.6665 56.4773 40.6665 55.8333V48.8333C40.6665 48.1893 40.1438 47.6667 39.4998 47.6667Z" fill="white"/>
<path d="M67.4998 47.6667C66.8558 47.6667 66.3331 48.1895 66.3331 48.8335V54.6668H61.6664V48.8335C61.6664 48.1895 61.1437 47.6667 60.4997 47.6667C59.8557 47.6667 59.333 48.1895 59.333 48.8335V55.8335C59.333 56.4775 59.8557 57.0002 60.4997 57.0002H67.4997C68.1437 57.0002 68.6664 56.4775 68.6664 55.8335V48.8335C68.6665 48.1893 68.1438 47.6667 67.4998 47.6667Z" fill="white"/>
</g>
<defs>
<linearGradient id="paint0_linear" x1="6" y1="6" x2="95" y2="96.5" gradientUnits="userSpaceOnUse">
<stop stop-color="#F0BA0D"/>
<stop offset="1" stop-color="#FFDB65"/>
</linearGradient>
<clipPath id="clip0">
<rect width="56" height="56" fill="white" transform="translate(22 22)"/>
</clipPath>
</defs>
</svg>
