<svg width="100" height="100" viewBox="0 0 100 100" fill="none" xmlns="http://www.w3.org/2000/svg">
<rect width="100" height="100" rx="16" fill="url(#paint0_linear)"/>
<path d="M66.3328 36C69.5481 36 72.1661 33.382 72.1661 30.1667C72.1661 26.9514 69.5504 24.3334 66.3328 24.3334C63.1175 24.3334 60.4995 26.9514 60.4995 30.1667C60.4995 33.382 63.1175 36 66.3328 36ZM66.3328 26.6667C68.2625 26.6667 69.8328 28.237 69.8328 30.1667C69.8328 32.0964 68.2648 33.6667 66.3328 33.6667C64.4031 33.6667 62.8328 32.0964 62.8328 30.1667C62.8328 28.237 64.4055 26.6667 66.3328 26.6667Z" fill="white"/>
<path d="M76.4947 55.4017L74.999 43.4457C74.6373 40.5314 72.1477 38.3357 69.2123 38.3357H63.4513C62.8026 38.3357 62.1493 38.45 61.5076 38.6787C60.9009 38.8934 60.5836 39.5607 60.7983 40.1674C61.0153 40.7741 61.6803 41.0937 62.287 40.8767C62.6767 40.739 63.0687 40.669 63.4513 40.669H69.2123C70.974 40.669 72.465 41.9873 72.6843 43.735L74.18 55.691C74.222 56.027 74.1217 56.3537 73.8977 56.608C73.6737 56.8623 73.3634 57.0023 73.0227 57.0023H72.1664C71.5527 57.0023 71.0464 57.4736 71.0021 58.085L69.9124 73.3357H62.7514L61.9114 61.5827C61.8671 60.941 61.3024 60.437 60.6654 60.5024C60.0237 60.5467 59.5384 61.1067 59.5851 61.7484L60.5021 74.5841C60.5488 75.1931 61.0574 75.6668 61.6664 75.6668H70.9997C71.611 75.6668 72.1197 75.1931 72.1617 74.5865L73.2514 59.3288C74.1707 59.2681 75.0317 58.8481 75.6454 58.1528C76.3103 57.399 76.6207 56.398 76.4947 55.4017Z" fill="white"/>
<path d="M39.3178 60.7683C38.6668 60.7076 38.1185 61.207 38.0718 61.8486L37.2505 73.3333H30.0871L28.9998 58.0826C28.9554 57.4737 28.4468 57 27.8331 57H26.9768C26.6361 57 26.3258 56.86 26.1018 56.6057C25.8778 56.3514 25.7775 56.027 25.8195 55.6887L27.3152 43.7327C27.5322 41.985 29.0232 40.6667 30.7872 40.6667H36.5482C36.8095 40.6667 37.0872 40.7064 37.4279 40.7974C38.0509 40.9514 38.6902 40.5874 38.8536 39.9644C39.0169 39.3414 38.6436 38.7021 38.0206 38.5387C37.4816 38.3987 37.0149 38.3334 36.5459 38.3334H30.7871C27.8518 38.3334 25.3644 40.5291 25.0004 43.4434L23.5048 55.3993C23.3811 56.3956 23.6891 57.3966 24.3541 58.1503C24.9678 58.8456 25.8288 59.2656 26.7481 59.3263L27.8378 74.584C27.8821 75.193 28.3908 75.6667 28.9998 75.6667H38.3331C38.9444 75.6667 39.4531 75.193 39.4974 74.584L40.3957 62.0143C40.4424 61.3727 39.9571 60.815 39.3178 60.7683Z" fill="white"/>
<path d="M33.6663 36C36.8816 36 39.4996 33.382 39.4996 30.1667C39.4996 26.9514 36.8839 24.3334 33.6663 24.3334C30.451 24.3334 27.833 26.9514 27.833 30.1667C27.833 33.382 30.451 36 33.6663 36ZM33.6663 26.6667C35.596 26.6667 37.1663 28.237 37.1663 30.1667C37.1663 32.0964 35.5983 33.6667 33.6663 33.6667C31.739 33.6667 30.1663 32.0964 30.1663 30.1667C30.1663 28.237 31.739 26.6667 33.6663 26.6667Z" fill="white"/>
<path d="M60.2736 55.2197L58.7266 41.6677C58.3603 38.436 55.8006 36 52.7766 36H46.8196C43.8003 36 41.2429 38.436 40.8743 41.6677L39.3273 55.2197C39.199 56.3537 39.549 57.4807 40.2863 58.3067C40.9233 59.0184 41.7656 59.4337 42.6826 59.485L43.9706 76.9197C44.0149 77.5287 44.5236 78 45.1326 78H54.4659C55.0772 78 55.5859 77.5287 55.6279 76.9197L56.9159 59.485C57.8306 59.4337 58.6752 59.0207 59.3122 58.3067C60.0543 57.4783 60.402 56.3537 60.2736 55.2197ZM57.5763 56.7527C57.441 56.902 57.1516 57.1564 56.7223 57.1564H55.8333C55.222 57.1564 54.7133 57.6277 54.669 58.2367L53.3833 75.6667H46.2176L44.9343 58.2367C44.8876 57.6277 44.3813 57.1564 43.77 57.1564H42.8833C42.4563 57.1564 42.1646 56.9021 42.0293 56.7527C41.733 56.419 41.593 55.957 41.6466 55.4834L43.1936 41.9314C43.4269 39.8804 44.9879 38.3334 46.8243 38.3334H52.7813C54.6153 38.3334 56.1763 39.8804 56.412 41.9314L57.959 55.4834C58.0126 55.957 57.8726 56.419 57.5763 56.7527Z" fill="white"/>
<path d="M49.7991 33.6667C53.0144 33.6667 55.6324 31.0487 55.6324 27.8334C55.6324 24.6181 53.0168 22 49.7991 22C46.5838 22 43.9658 24.618 43.9658 27.8333C43.9658 31.0486 46.5838 33.6667 49.7991 33.6667ZM49.7991 24.3333C51.7288 24.3333 53.2991 25.9036 53.2991 27.8333C53.2991 29.763 51.7288 31.3333 49.7991 31.3333C47.8694 31.3333 46.2991 29.763 46.2991 27.8333C46.2991 25.9037 47.8718 24.3333 49.7991 24.3333Z" fill="white"/>
<defs>
<linearGradient id="paint0_linear" x1="6" y1="6" x2="95" y2="96.5" gradientUnits="userSpaceOnUse">
<stop stop-color="#F0BA0D"/>
<stop offset="1" stop-color="#FFDB65"/>
</linearGradient>
</defs>
</svg>
