<?xml version="1.0" encoding="utf-8"?>
<!-- Generator: Adobe Illustrator 25.0.1, SVG Export Plug-In . SVG Version: 6.00 Build 0)  -->
<svg version="1.1" id="Capa_1" xmlns="http://www.w3.org/2000/svg" xmlns:xlink="http://www.w3.org/1999/xlink" x="0px" y="0px"
	 viewBox="0 0 100 84" style="enable-background:new 0 0 100 84;" xml:space="preserve">
<style type="text/css">
	.st0{fill:url(#SVGID_1_);}
	.st1{fill:url(#SVGID_2_);}
	.st2{fill:url(#SVGID_3_);}
	.st3{fill:#926A28;}
	.st4{fill:url(#SVGID_4_);}
	.st5{fill:url(#SVGID_5_);}
	.st6{fill:url(#SVGID_6_);}
	.st7{fill:url(#SVGID_7_);}
	.st8{fill:url(#SVGID_8_);}
	.st9{fill:url(#SVGID_9_);}
	.st10{fill:url(#SVGID_10_);}
	.st11{fill:url(#SVGID_11_);}
	.st12{fill:url(#SVGID_12_);}
	.st13{fill:url(#SVGID_13_);}
	.st14{fill:url(#SVGID_14_);}
	.st15{fill:url(#SVGID_15_);}
	.st16{fill:url(#SVGID_16_);}
	.st17{fill:url(#SVGID_17_);}
	.st18{fill:url(#SVGID_18_);}
</style>
<linearGradient id="SVGID_1_" gradientUnits="userSpaceOnUse" x1="65.2439" y1="17.109" x2="29.5784" y2="79.6729" gradientTransform="matrix(1 0 0 -1 0 86)">
	<stop  offset="0" style="stop-color:#A57A2C"/>
	<stop  offset="1" style="stop-color:#F6E948"/>
</linearGradient>
<path class="st0" d="M17.3,24.4v35.4L50,77.6l32.7-17.7V24.4L50,6.7L17.3,24.4z"/>
<linearGradient id="SVGID_2_" gradientUnits="userSpaceOnUse" x1="49.9993" y1="2.3257" x2="49.9993" y2="85.3824" gradientTransform="matrix(1 0 0 -1 0 86)">
	<stop  offset="0" style="stop-color:#6B4C1E"/>
	<stop  offset="1" style="stop-color:#A57A2C"/>
</linearGradient>
<path class="st1" d="M50,83.7L11.7,62.9V21.4L50,0.6l38.3,20.8v41.5L50,83.7z M17.9,59.6L50,77l32.1-17.4V24.7L50,7.3L17.9,24.7
	V59.6z"/>
<linearGradient id="SVGID_3_" gradientUnits="userSpaceOnUse" x1="66.7149" y1="17.2668" x2="24.365" y2="84.6197" gradientTransform="matrix(1 0 0 -1 0 86)">
	<stop  offset="3.000000e-02" style="stop-color:#EED366"/>
	<stop  offset="1" style="stop-color:#FFEEC7"/>
</linearGradient>
<path class="st2" d="M50,81.2L14,61.7V22.6L50,3.1l36,19.5v39.1L50,81.2z M19.8,58.5L50,75l30.2-16.4V25.7L50,9.3L19.8,25.7V58.5z"
	/>
<path class="st3" d="M50,73.8L20.8,58V26.3L50,10.5l29.2,15.8V58L50,73.8z M23,56.8l27,14.7l27-14.7V27.5L50,12.8L23,27.5V56.8z"/>
<linearGradient id="SVGID_4_" gradientUnits="userSpaceOnUse" x1="64.9243" y1="18.5451" x2="29.6774" y2="78.3074" gradientTransform="matrix(1 0 0 -1 0 86)">
	<stop  offset="0" style="stop-color:#FFEEC7"/>
	<stop  offset="0.41" style="stop-color:#EED366"/>
	<stop  offset="1" style="stop-color:#926A28"/>
</linearGradient>
<path class="st4" d="M50,76.3L18.6,59.2V25.1L50,8l31.4,17.1v34.1L50,76.3z M20.8,58L50,73.8L79.2,58V26.3L50,10.5L20.8,26.3V58z"/>
<linearGradient id="SVGID_5_" gradientUnits="userSpaceOnUse" x1="28.4351" y1="12.9004" x2="24.0176" y2="4.2675" gradientTransform="matrix(1 0 0 -1 0 86)">
	<stop  offset="0" style="stop-color:#926A28"/>
	<stop  offset="0.1198" style="stop-color:#A17D2D"/>
	<stop  offset="0.25" style="stop-color:#BB9E35"/>
	<stop  offset="0.3854" style="stop-color:#D0B93C"/>
	<stop  offset="0.5052" style="stop-color:#E1CF41"/>
	<stop  offset="0.6354" style="stop-color:#EDDD45"/>
	<stop  offset="0.8333" style="stop-color:#F4E647"/>
	<stop  offset="1" style="stop-color:#F6E948"/>
</linearGradient>
<path class="st5" d="M17.9,66.3l-3.2,5.2L27.3,75l9.7,8.6l3.2-5.2L17.9,66.3z"/>
<linearGradient id="SVGID_6_" gradientUnits="userSpaceOnUse" x1="70.9455" y1="14.0013" x2="76.896" y2="2.878" gradientTransform="matrix(1 0 0 -1 0 86)">
	<stop  offset="0" style="stop-color:#926A28"/>
	<stop  offset="0.1198" style="stop-color:#A17D2D"/>
	<stop  offset="0.25" style="stop-color:#BB9E35"/>
	<stop  offset="0.3854" style="stop-color:#D0B93C"/>
	<stop  offset="0.5052" style="stop-color:#E1CF41"/>
	<stop  offset="0.6354" style="stop-color:#EDDD45"/>
	<stop  offset="0.8333" style="stop-color:#F4E647"/>
	<stop  offset="1" style="stop-color:#F6E948"/>
</linearGradient>
<path class="st6" d="M82.1,66.3l3.2,5.2L72.7,75l-9.7,8.6l-3.2-5.2L82.1,66.3z"/>
<linearGradient id="SVGID_7_" gradientUnits="userSpaceOnUse" x1="0.1167" y1="56.9613" x2="11.7228" y2="56.9613" gradientTransform="matrix(1 0 0 -1 0 86)">
	<stop  offset="0" style="stop-color:#FFEEC7"/>
	<stop  offset="0.24" style="stop-color:#FDECC4"/>
	<stop  offset="0.4" style="stop-color:#F7E4BC"/>
	<stop  offset="0.54" style="stop-color:#EDD8AD"/>
	<stop  offset="0.66" style="stop-color:#DEC697"/>
	<stop  offset="0.77" style="stop-color:#CCB07C"/>
	<stop  offset="0.88" style="stop-color:#B4945A"/>
	<stop  offset="0.98" style="stop-color:#9A7333"/>
	<stop  offset="1" style="stop-color:#926A28"/>
</linearGradient>
<path class="st7" d="M0.1,33.4h11.6v-8.7L0.1,33.4z"/>
<linearGradient id="SVGID_8_" gradientUnits="userSpaceOnUse" x1="99.8615" y1="56.9613" x2="88.2554" y2="56.9613" gradientTransform="matrix(1 0 0 -1 0 86)">
	<stop  offset="0" style="stop-color:#FFEEC7"/>
	<stop  offset="0.24" style="stop-color:#FDECC4"/>
	<stop  offset="0.4" style="stop-color:#F7E4BC"/>
	<stop  offset="0.54" style="stop-color:#EDD8AD"/>
	<stop  offset="0.66" style="stop-color:#DEC697"/>
	<stop  offset="0.77" style="stop-color:#CCB07C"/>
	<stop  offset="0.88" style="stop-color:#B4945A"/>
	<stop  offset="0.98" style="stop-color:#9A7333"/>
	<stop  offset="1" style="stop-color:#926A28"/>
</linearGradient>
<path class="st8" d="M99.9,33.4H88.3v-8.7L99.9,33.4z"/>
<linearGradient id="SVGID_9_" gradientUnits="userSpaceOnUse" x1="0.1167" y1="30.9873" x2="11.7228" y2="30.9873" gradientTransform="matrix(1 0 0 -1 0 86)">
	<stop  offset="0" style="stop-color:#926A28"/>
	<stop  offset="0.39" style="stop-color:#8F6827"/>
	<stop  offset="0.65" style="stop-color:#876125"/>
	<stop  offset="0.87" style="stop-color:#785621"/>
	<stop  offset="1" style="stop-color:#6B4C1E"/>
</linearGradient>
<path class="st9" d="M0.1,50.7l11.6,8.7v-8.7H0.1z"/>
<linearGradient id="SVGID_10_" gradientUnits="userSpaceOnUse" x1="0.1167" y1="43.9753" x2="11.7228" y2="43.9753" gradientTransform="matrix(1 0 0 -1 0 86)">
	<stop  offset="0" style="stop-color:#EBCC80"/>
	<stop  offset="0.29" style="stop-color:#E9C97E"/>
	<stop  offset="0.47" style="stop-color:#E1C176"/>
	<stop  offset="0.63" style="stop-color:#D3B268"/>
	<stop  offset="0.78" style="stop-color:#C09C55"/>
	<stop  offset="0.91" style="stop-color:#A7813D"/>
	<stop  offset="1" style="stop-color:#926A28"/>
</linearGradient>
<path class="st10" d="M11.7,33.4H0.1v17.3h11.6V33.4z"/>
<linearGradient id="SVGID_11_" gradientUnits="userSpaceOnUse" x1="14751.2998" y1="30.9873" x2="14395.5996" y2="30.9873" gradientTransform="matrix(1 0 0 -1 0 86)">
	<stop  offset="0" style="stop-color:#926A28"/>
	<stop  offset="0.39" style="stop-color:#8F6827"/>
	<stop  offset="0.65" style="stop-color:#876125"/>
	<stop  offset="0.87" style="stop-color:#785621"/>
	<stop  offset="1" style="stop-color:#6B4C1E"/>
</linearGradient>
<path class="st11" d="M99.9,50.7l-11.6,8.7v-8.7H99.9z"/>
<linearGradient id="SVGID_12_" gradientUnits="userSpaceOnUse" x1="99.8834" y1="43.9717" x2="88.2773" y2="43.9717" gradientTransform="matrix(1 0 0 -1 0 86)">
	<stop  offset="0" style="stop-color:#EBCC80"/>
	<stop  offset="0.29" style="stop-color:#E9C97E"/>
	<stop  offset="0.47" style="stop-color:#E1C176"/>
	<stop  offset="0.63" style="stop-color:#D3B268"/>
	<stop  offset="0.78" style="stop-color:#C09C55"/>
	<stop  offset="0.91" style="stop-color:#A7813D"/>
	<stop  offset="1" style="stop-color:#926A28"/>
</linearGradient>
<path class="st12" d="M88.3,50.7h11.6V33.4H88.3V50.7z"/>
<linearGradient id="SVGID_13_" gradientUnits="userSpaceOnUse" x1="16.2741" y1="65.5459" x2="38.8808" y2="87.354" gradientTransform="matrix(1 0 0 -1 0 86)">
	<stop  offset="0" style="stop-color:#EED366"/>
	<stop  offset="1" style="stop-color:#FFEEC7"/>
</linearGradient>
<path class="st13" d="M17.9,14.8l18.5-9.9V8l2.9-1.6V0.6l-24,12.6v6.2l2.6-1.4V14.8z"/>
<linearGradient id="SVGID_14_" gradientUnits="userSpaceOnUse" x1="73.8475" y1="-183.4237" x2="72.4664" y2="-176.2517" gradientTransform="matrix(1 0 0 -1 0 86)">
	<stop  offset="3.000000e-02" style="stop-color:#EED366"/>
	<stop  offset="1" style="stop-color:#FFEEC7"/>
</linearGradient>
<path class="st14" d="M20.8,16.4L20.8,16.4L20.8,16.4l7.8-4.2L20.8,16.4z"/>
<linearGradient id="SVGID_15_" gradientUnits="userSpaceOnUse" x1="28.5256" y1="71.86" x2="26.2741" y2="76.0843" gradientTransform="matrix(1 0 0 -1 0 86)">
	<stop  offset="0" style="stop-color:#EED366"/>
	<stop  offset="1" style="stop-color:#926A28"/>
</linearGradient>
<path class="st15" d="M17.9,18.1v-3.2l18.5-9.9V8l-15.5,8.4L17.9,18.1z"/>
<linearGradient id="SVGID_16_" gradientUnits="userSpaceOnUse" x1="75.4897" y1="75.9904" x2="76.8737" y2="83.1634" gradientTransform="matrix(1 0 0 -1 0 86)">
	<stop  offset="3.000000e-02" style="stop-color:#EED366"/>
	<stop  offset="1" style="stop-color:#FFEEC7"/>
</linearGradient>
<path class="st16" d="M78.6,16.1L78.6,16.1L78.6,16.1l-7.8-4.2L78.6,16.1z"/>
<linearGradient id="SVGID_17_" gradientUnits="userSpaceOnUse" x1="83.1695" y1="65.8625" x2="60.5628" y2="87.6706" gradientTransform="matrix(1 0 0 -1 0 86)">
	<stop  offset="0" style="stop-color:#EED366"/>
	<stop  offset="1" style="stop-color:#FFEEC7"/>
</linearGradient>
<path class="st17" d="M81.6,14.5L63.1,4.6v3.1l-2.9-1.6V0.3l24,12.6v6.2l-2.6-1.4V14.5z"/>
<linearGradient id="SVGID_18_" gradientUnits="userSpaceOnUse" x1="70.8609" y1="72.2089" x2="73.1124" y2="76.4332" gradientTransform="matrix(1 0 0 -1 0 86)">
	<stop  offset="0" style="stop-color:#EED366"/>
	<stop  offset="1" style="stop-color:#926A28"/>
</linearGradient>
<path class="st18" d="M81.5,17.7v-3.2L63,4.6v3.1l15.5,8.4L81.5,17.7z"/>
</svg>
