<?xml version="1.0" encoding="utf-8"?>
<!-- Generator: Adobe Illustrator 25.0.1, SVG Export Plug-In . SVG Version: 6.00 Build 0)  -->
<svg version="1.1" id="Capa_1" xmlns="http://www.w3.org/2000/svg" xmlns:xlink="http://www.w3.org/1999/xlink" x="0px" y="0px"
	 viewBox="0 0 100 85" style="enable-background:new 0 0 100 85;" xml:space="preserve">
<style type="text/css">
	.st0{clip-path:url(#SVGID_2_);}
	.st1{fill:url(#SVGID_3_);}
	.st2{fill:url(#SVGID_4_);}
	.st3{fill:url(#SVGID_5_);}
	.st4{fill:#67352B;}
	.st5{fill:url(#SVGID_6_);}
	.st6{fill:url(#SVGID_7_);}
	.st7{fill:url(#SVGID_8_);}
	.st8{fill:url(#SVGID_9_);}
	.st9{fill:url(#SVGID_10_);}
	.st10{fill:url(#SVGID_11_);}
	.st11{fill:url(#SVGID_12_);}
	.st12{fill:url(#SVGID_13_);}
	.st13{fill:url(#SVGID_14_);}
</style>
<g>
	<defs>
		<rect id="SVGID_1_" width="100" height="84.6"/>
	</defs>
	<clipPath id="SVGID_2_">
		<use xlink:href="#SVGID_1_"  style="overflow:visible;"/>
	</clipPath>
	<g class="st0">
		
			<linearGradient id="SVGID_3_" gradientUnits="userSpaceOnUse" x1="65.5386" y1="17.0904" x2="29.2267" y2="79.3712" gradientTransform="matrix(1 0 0 -1 0 86)">
			<stop  offset="0" style="stop-color:#67352B"/>
			<stop  offset="1" style="stop-color:#C36658"/>
		</linearGradient>
		<path class="st1" d="M17.9,24.4v35.7L50,78l32.1-17.8V24.4L50,6.6L17.9,24.4z"/>
		
			<linearGradient id="SVGID_4_" gradientUnits="userSpaceOnUse" x1="50.0152" y1="1.9062" x2="50.0152" y2="85.5249" gradientTransform="matrix(1 0 0 -1 0 86)">
			<stop  offset="0" style="stop-color:#67352B"/>
			<stop  offset="1" style="stop-color:#B25E55"/>
		</linearGradient>
		<path class="st2" d="M50,84.1L12.3,63.2V21.4L50,0.5l37.7,20.9v41.8L50,84.1z M18.4,59.8L50,77.4l31.6-17.6V24.7L50,7.2L18.4,24.7
			V59.8z"/>
		
			<linearGradient id="SVGID_5_" gradientUnits="userSpaceOnUse" x1="67.002" y1="17.2916" x2="23.9588" y2="84.2235" gradientTransform="matrix(1 0 0 -1 0 86)">
			<stop  offset="3.000000e-02" style="stop-color:#C36658"/>
			<stop  offset="1" style="stop-color:#F2E6E0"/>
		</linearGradient>
		<path class="st3" d="M50,81.6L14.6,61.9V22.6L50,3l35.4,19.7v39.3L50,81.6z M20.3,58.8L50,75.3l29.8-16.5v-33L50,9.3L20.3,25.8
			V58.8z"/>
		<path class="st4" d="M50,74.1L21.3,58.2V26.4L50,10.4l28.7,15.9v31.8L50,74.1z M23.4,57L50,71.8L76.6,57V27.5L50,12.8L23.4,27.5
			V57z"/>
		
			<linearGradient id="SVGID_6_" gradientUnits="userSpaceOnUse" x1="65.2055" y1="18.5346" x2="29.3335" y2="77.9924" gradientTransform="matrix(1 0 0 -1 0 86)">
			<stop  offset="0" style="stop-color:#E6BAB3"/>
			<stop  offset="0.41" style="stop-color:#C78386"/>
			<stop  offset="1" style="stop-color:#572B21"/>
		</linearGradient>
		<path class="st5" d="M50,76.6L19.1,59.5V25.1L50,7.9L81,25.1v34.3L50,76.6z M21.3,58.2L50,74.1l28.7-15.9V26.4L50,10.4L21.3,26.4
			V58.2z"/>
		
			<linearGradient id="SVGID_7_" gradientUnits="userSpaceOnUse" x1="30.4271" y1="12.0373" x2="25.0482" y2="2.3935" gradientTransform="matrix(1 0 0 -1 0 86)">
			<stop  offset="0" style="stop-color:#9E4C46"/>
			<stop  offset="1.000000e-02" style="stop-color:#9F4E48"/>
			<stop  offset="0.13" style="stop-color:#B56F69"/>
			<stop  offset="0.25" style="stop-color:#C78A84"/>
			<stop  offset="0.39" style="stop-color:#D5A099"/>
			<stop  offset="0.54" style="stop-color:#DEAFA8"/>
			<stop  offset="0.73" style="stop-color:#E4B7B0"/>
			<stop  offset="1" style="stop-color:#E6BAB3"/>
		</linearGradient>
		<path class="st6" d="M23,69.1l-3.8,6.3l9.6,1.3l6.1,7.4l3.8-6.3L23,69.1z"/>
		
			<linearGradient id="SVGID_8_" gradientUnits="userSpaceOnUse" x1="69.6016" y1="11.9322" x2="74.9377" y2="2.2662" gradientTransform="matrix(1 0 0 -1 0 86)">
			<stop  offset="0" style="stop-color:#9E4C46"/>
			<stop  offset="1.000000e-02" style="stop-color:#9F4E48"/>
			<stop  offset="0.13" style="stop-color:#B56F69"/>
			<stop  offset="0.25" style="stop-color:#C78A84"/>
			<stop  offset="0.39" style="stop-color:#D5A099"/>
			<stop  offset="0.54" style="stop-color:#DEAFA8"/>
			<stop  offset="0.73" style="stop-color:#E4B7B0"/>
			<stop  offset="1" style="stop-color:#E6BAB3"/>
		</linearGradient>
		<path class="st7" d="M61.3,77.8l3.8,6.3l5.9-7.3l9.7-1.3l-3.8-6.3L61.3,77.8z"/>
		
			<linearGradient id="SVGID_9_" gradientUnits="userSpaceOnUse" x1="5.063" y1="52.0075" x2="12.3109" y2="52.0075" gradientTransform="matrix(1 0 0 -1 0 86)">
			<stop  offset="0" style="stop-color:#F2E6E0"/>
			<stop  offset="0.27" style="stop-color:#F1E3DD"/>
			<stop  offset="0.44" style="stop-color:#EEDBD5"/>
			<stop  offset="0.59" style="stop-color:#EACCC6"/>
			<stop  offset="0.73" style="stop-color:#E3B8B0"/>
			<stop  offset="0.85" style="stop-color:#DA9D95"/>
			<stop  offset="0.97" style="stop-color:#CF7C74"/>
			<stop  offset="1" style="stop-color:#CC7269"/>
		</linearGradient>
		<path class="st8" d="M5.1,36.8h7.2v-5.5L5.1,36.8z"/>
		
			<linearGradient id="SVGID_10_" gradientUnits="userSpaceOnUse" x1="5.063" y1="35.42" x2="12.3109" y2="35.42" gradientTransform="matrix(1 0 0 -1 0 86)">
			<stop  offset="0" style="stop-color:#9E4C46"/>
			<stop  offset="0.35" style="stop-color:#9B4B45"/>
			<stop  offset="0.58" style="stop-color:#934740"/>
			<stop  offset="0.77" style="stop-color:#844139"/>
			<stop  offset="0.95" style="stop-color:#6F382F"/>
			<stop  offset="1" style="stop-color:#67352B"/>
		</linearGradient>
		<path class="st9" d="M5.1,47.8l7.2,5.5v-5.5H5.1z"/>
		
			<linearGradient id="SVGID_11_" gradientUnits="userSpaceOnUse" x1="5.063" y1="43.7138" x2="12.3109" y2="43.7138" gradientTransform="matrix(1 0 0 -1 0 86)">
			<stop  offset="0" style="stop-color:#CC7269"/>
			<stop  offset="0.37" style="stop-color:#C97067"/>
			<stop  offset="0.62" style="stop-color:#C16960"/>
			<stop  offset="0.82" style="stop-color:#B25C55"/>
			<stop  offset="1" style="stop-color:#9E4C46"/>
		</linearGradient>
		<path class="st10" d="M12.3,36.8H5.1v11.1h7.2V36.8z"/>
		
			<linearGradient id="SVGID_12_" gradientUnits="userSpaceOnUse" x1="94.9323" y1="52.0075" x2="87.6846" y2="52.0075" gradientTransform="matrix(1 0 0 -1 0 86)">
			<stop  offset="0" style="stop-color:#F2E6E0"/>
			<stop  offset="0.27" style="stop-color:#F1E3DD"/>
			<stop  offset="0.44" style="stop-color:#EEDBD5"/>
			<stop  offset="0.59" style="stop-color:#EACCC6"/>
			<stop  offset="0.73" style="stop-color:#E3B8B0"/>
			<stop  offset="0.85" style="stop-color:#DA9D95"/>
			<stop  offset="0.97" style="stop-color:#CF7C74"/>
			<stop  offset="1" style="stop-color:#CC7269"/>
		</linearGradient>
		<path class="st11" d="M94.9,36.8h-7.2v-5.5L94.9,36.8z"/>
		
			<linearGradient id="SVGID_13_" gradientUnits="userSpaceOnUse" x1="94.9323" y1="35.42" x2="87.6846" y2="35.42" gradientTransform="matrix(1 0 0 -1 0 86)">
			<stop  offset="0" style="stop-color:#9E4C46"/>
			<stop  offset="0.35" style="stop-color:#9B4B45"/>
			<stop  offset="0.58" style="stop-color:#934740"/>
			<stop  offset="0.77" style="stop-color:#844139"/>
			<stop  offset="0.95" style="stop-color:#6F382F"/>
			<stop  offset="1" style="stop-color:#67352B"/>
		</linearGradient>
		<path class="st12" d="M94.9,47.8l-7.2,5.5v-5.5H94.9z"/>
		
			<linearGradient id="SVGID_14_" gradientUnits="userSpaceOnUse" x1="94.9323" y1="43.7137" x2="87.6846" y2="43.7137" gradientTransform="matrix(1 0 0 -1 0 86)">
			<stop  offset="0" style="stop-color:#CC7269"/>
			<stop  offset="0.37" style="stop-color:#C97067"/>
			<stop  offset="0.62" style="stop-color:#C16960"/>
			<stop  offset="0.82" style="stop-color:#B25C55"/>
			<stop  offset="1" style="stop-color:#9E4C46"/>
		</linearGradient>
		<path class="st13" d="M87.7,36.8h7.2v11.1h-7.2V36.8z"/>
	</g>
</g>
</svg>
