<?xml version="1.0" encoding="utf-8"?>
<!-- Generator: Adobe Illustrator 25.0.1, SVG Export Plug-In . SVG Version: 6.00 Build 0)  -->
<svg version="1.1" id="Capa_1" xmlns="http://www.w3.org/2000/svg" xmlns:xlink="http://www.w3.org/1999/xlink" x="0px" y="0px"
	 viewBox="0 0 100 85" style="enable-background:new 0 0 100 85;" xml:space="preserve">
<style type="text/css">
	.st0{clip-path:url(#SVGID_2_);}
	.st1{fill:url(#SVGID_3_);}
	.st2{fill:url(#SVGID_4_);}
	.st3{fill:url(#SVGID_5_);}
	.st4{fill:url(#SVGID_6_);}
	.st5{fill:url(#SVGID_7_);}
	.st6{fill:url(#SVGID_8_);}
	.st7{fill:url(#SVGID_9_);}
	.st8{fill:url(#SVGID_10_);}
	.st9{fill:url(#SVGID_11_);}
	.st10{fill:url(#SVGID_12_);}
	.st11{fill:url(#SVGID_13_);}
	.st12{fill:url(#SVGID_14_);}
	.st13{fill:url(#SVGID_15_);}
	.st14{fill:url(#SVGID_16_);}
	.st15{fill:url(#SVGID_17_);}
	.st16{fill:url(#SVGID_18_);}
	.st17{fill:url(#SVGID_19_);}
	.st18{fill:#45575A;}
	.st19{fill:url(#SVGID_20_);}
</style>
<g>
	<defs>
		<rect id="SVGID_1_" width="100" height="84.6"/>
	</defs>
	<clipPath id="SVGID_2_">
		<use xlink:href="#SVGID_1_"  style="overflow:visible;"/>
	</clipPath>
	<g class="st0">
		
			<linearGradient id="SVGID_3_" gradientUnits="userSpaceOnUse" x1="28.403" y1="12.3298" x2="24.0335" y2="4.33" gradientTransform="matrix(1 0 0 -1 0 86)">
			<stop  offset="0" style="stop-color:#607479"/>
			<stop  offset="1.000000e-02" style="stop-color:#63777C"/>
			<stop  offset="0.13" style="stop-color:#84959A"/>
			<stop  offset="0.26" style="stop-color:#9FAEB3"/>
			<stop  offset="0.39" style="stop-color:#B5C1C6"/>
			<stop  offset="0.55" style="stop-color:#C4CFD4"/>
			<stop  offset="0.73" style="stop-color:#CCD7DC"/>
			<stop  offset="1" style="stop-color:#CFD9DE"/>
		</linearGradient>
		<path class="st1" d="M17.9,66.6l-3.2,5.3l12.7,3.6l9.7,8.7l3.2-5.3L17.9,66.6z"/>
		
			<linearGradient id="SVGID_4_" gradientUnits="userSpaceOnUse" x1="71.5768" y1="12.329" x2="75.9498" y2="4.3312" gradientTransform="matrix(1 0 0 -1 0 86)">
			<stop  offset="0" style="stop-color:#607479"/>
			<stop  offset="1.000000e-02" style="stop-color:#63777C"/>
			<stop  offset="0.13" style="stop-color:#84959A"/>
			<stop  offset="0.26" style="stop-color:#9FAEB3"/>
			<stop  offset="0.39" style="stop-color:#B5C1C6"/>
			<stop  offset="0.55" style="stop-color:#C4CFD4"/>
			<stop  offset="0.73" style="stop-color:#CCD7DC"/>
			<stop  offset="1" style="stop-color:#CFD9DE"/>
		</linearGradient>
		<path class="st2" d="M59.7,78.8l3.2,5.3l9.6-8.6l12.8-3.6l-3.2-5.3L59.7,78.8z"/>
		
			<linearGradient id="SVGID_5_" gradientUnits="userSpaceOnUse" x1="6.8696" y1="38.4755" x2="11.7257" y2="38.4755" gradientTransform="matrix(1 0 0 -1 0 86)">
			<stop  offset="0" style="stop-color:#CFD9DE"/>
			<stop  offset="0.31" style="stop-color:#CCD7DC"/>
			<stop  offset="0.51" style="stop-color:#C4CFD4"/>
			<stop  offset="0.69" style="stop-color:#B5C2C7"/>
			<stop  offset="0.84" style="stop-color:#9FAFB4"/>
			<stop  offset="0.99" style="stop-color:#84979C"/>
			<stop  offset="1" style="stop-color:#819499"/>
		</linearGradient>
		<path class="st3" d="M6.9,49.3h4.9v-3.6L6.9,49.3z"/>
		
			<linearGradient id="SVGID_6_" gradientUnits="userSpaceOnUse" x1="6.8696" y1="27.5311" x2="11.7257" y2="27.5311" gradientTransform="matrix(1 0 0 -1 0 86)">
			<stop  offset="0" style="stop-color:#687B80"/>
			<stop  offset="0.4" style="stop-color:#66787D"/>
			<stop  offset="0.66" style="stop-color:#5D7075"/>
			<stop  offset="0.88" style="stop-color:#506266"/>
			<stop  offset="1" style="stop-color:#45575A"/>
		</linearGradient>
		<path class="st4" d="M6.9,56.6l4.9,3.6v-3.6H6.9z"/>
		
			<linearGradient id="SVGID_7_" gradientUnits="userSpaceOnUse" x1="6.8696" y1="33.0041" x2="11.7257" y2="33.0041" gradientTransform="matrix(1 0 0 -1 0 86)">
			<stop  offset="0" style="stop-color:#A8BBC0"/>
			<stop  offset="0.33" style="stop-color:#A5B8BD"/>
			<stop  offset="0.55" style="stop-color:#9DB0B5"/>
			<stop  offset="0.74" style="stop-color:#8EA1A6"/>
			<stop  offset="0.9" style="stop-color:#798C91"/>
			<stop  offset="1" style="stop-color:#687B80"/>
		</linearGradient>
		<path class="st5" d="M11.7,49.3H6.9v7.3h4.9V49.3z"/>
		
			<linearGradient id="SVGID_8_" gradientUnits="userSpaceOnUse" x1="5.063" y1="59.2942" x2="11.7259" y2="59.2942" gradientTransform="matrix(1 0 0 -1 0 86)">
			<stop  offset="0" style="stop-color:#CFD9DE"/>
			<stop  offset="0.31" style="stop-color:#CCD7DC"/>
			<stop  offset="0.51" style="stop-color:#C4CFD4"/>
			<stop  offset="0.69" style="stop-color:#B5C2C7"/>
			<stop  offset="0.84" style="stop-color:#9FAFB4"/>
			<stop  offset="0.99" style="stop-color:#84979C"/>
			<stop  offset="1" style="stop-color:#819499"/>
		</linearGradient>
		<path class="st6" d="M5.1,29.2h6.7v-5L5.1,29.2z"/>
		
			<linearGradient id="SVGID_9_" gradientUnits="userSpaceOnUse" x1="5.063" y1="44.2748" x2="11.7259" y2="44.2748" gradientTransform="matrix(1 0 0 -1 0 86)">
			<stop  offset="0" style="stop-color:#687B80"/>
			<stop  offset="0.4" style="stop-color:#66787D"/>
			<stop  offset="0.66" style="stop-color:#5D7075"/>
			<stop  offset="0.88" style="stop-color:#506266"/>
			<stop  offset="1" style="stop-color:#45575A"/>
		</linearGradient>
		<path class="st7" d="M5.1,39.2l6.7,5v-5H5.1z"/>
		
			<linearGradient id="SVGID_10_" gradientUnits="userSpaceOnUse" x1="5.063" y1="51.7862" x2="11.7259" y2="51.7862" gradientTransform="matrix(1 0 0 -1 0 86)">
			<stop  offset="0" style="stop-color:#A8BBC0"/>
			<stop  offset="0.33" style="stop-color:#A5B8BD"/>
			<stop  offset="0.55" style="stop-color:#9DB0B5"/>
			<stop  offset="0.74" style="stop-color:#8EA1A6"/>
			<stop  offset="0.9" style="stop-color:#798C91"/>
			<stop  offset="1" style="stop-color:#687B80"/>
		</linearGradient>
		<path class="st8" d="M11.7,29.2H5.1v10h6.7V29.2z"/>
		
			<linearGradient id="SVGID_11_" gradientUnits="userSpaceOnUse" x1="93.1144" y1="38.4755" x2="88.2583" y2="38.4755" gradientTransform="matrix(1 0 0 -1 0 86)">
			<stop  offset="0" style="stop-color:#CFD9DE"/>
			<stop  offset="0.31" style="stop-color:#CCD7DC"/>
			<stop  offset="0.51" style="stop-color:#C4CFD4"/>
			<stop  offset="0.69" style="stop-color:#B5C2C7"/>
			<stop  offset="0.84" style="stop-color:#9FAFB4"/>
			<stop  offset="0.99" style="stop-color:#84979C"/>
			<stop  offset="1" style="stop-color:#819499"/>
		</linearGradient>
		<path class="st9" d="M93.1,49.3h-4.9v-3.6L93.1,49.3z"/>
		
			<linearGradient id="SVGID_12_" gradientUnits="userSpaceOnUse" x1="93.1144" y1="27.5311" x2="88.2583" y2="27.5311" gradientTransform="matrix(1 0 0 -1 0 86)">
			<stop  offset="0" style="stop-color:#687B80"/>
			<stop  offset="0.4" style="stop-color:#66787D"/>
			<stop  offset="0.66" style="stop-color:#5D7075"/>
			<stop  offset="0.88" style="stop-color:#506266"/>
			<stop  offset="1" style="stop-color:#45575A"/>
		</linearGradient>
		<path class="st10" d="M93.1,56.6l-4.9,3.6v-3.6H93.1z"/>
		
			<linearGradient id="SVGID_13_" gradientUnits="userSpaceOnUse" x1="93.1144" y1="33.004" x2="88.2583" y2="33.004" gradientTransform="matrix(1 0 0 -1 0 86)">
			<stop  offset="0" style="stop-color:#A8BBC0"/>
			<stop  offset="0.33" style="stop-color:#A5B8BD"/>
			<stop  offset="0.55" style="stop-color:#9DB0B5"/>
			<stop  offset="0.74" style="stop-color:#8EA1A6"/>
			<stop  offset="0.9" style="stop-color:#798C91"/>
			<stop  offset="1" style="stop-color:#687B80"/>
		</linearGradient>
		<path class="st11" d="M88.3,49.3h4.9v7.3h-4.9V49.3z"/>
		
			<linearGradient id="SVGID_14_" gradientUnits="userSpaceOnUse" x1="65.413" y1="16.8471" x2="29.3566" y2="79.6425" gradientTransform="matrix(1 0 0 -1 0 86)">
			<stop  offset="0" style="stop-color:#45575A"/>
			<stop  offset="1" style="stop-color:#CFD9DE"/>
		</linearGradient>
		<path class="st12" d="M17.3,24.5v35.7L50,78l32.7-17.8V24.5L50,6.6L17.3,24.5z"/>
		
			<linearGradient id="SVGID_15_" gradientUnits="userSpaceOnUse" x1="94.9402" y1="59.2942" x2="88.2773" y2="59.2942" gradientTransform="matrix(1 0 0 -1 0 86)">
			<stop  offset="0" style="stop-color:#CFD9DE"/>
			<stop  offset="0.31" style="stop-color:#CCD7DC"/>
			<stop  offset="0.51" style="stop-color:#C4CFD4"/>
			<stop  offset="0.69" style="stop-color:#B5C2C7"/>
			<stop  offset="0.84" style="stop-color:#9FAFB4"/>
			<stop  offset="0.99" style="stop-color:#84979C"/>
			<stop  offset="1" style="stop-color:#819499"/>
		</linearGradient>
		<path class="st13" d="M94.9,29.2h-6.7v-5L94.9,29.2z"/>
		
			<linearGradient id="SVGID_16_" gradientUnits="userSpaceOnUse" x1="94.9402" y1="44.2748" x2="88.2773" y2="44.2748" gradientTransform="matrix(1 0 0 -1 0 86)">
			<stop  offset="0" style="stop-color:#687B80"/>
			<stop  offset="0.4" style="stop-color:#66787D"/>
			<stop  offset="0.66" style="stop-color:#5D7075"/>
			<stop  offset="0.88" style="stop-color:#506266"/>
			<stop  offset="1" style="stop-color:#45575A"/>
		</linearGradient>
		<path class="st14" d="M94.9,39.2l-6.7,5v-5H94.9z"/>
		
			<linearGradient id="SVGID_17_" gradientUnits="userSpaceOnUse" x1="94.9402" y1="51.7862" x2="88.2773" y2="51.7862" gradientTransform="matrix(1 0 0 -1 0 86)">
			<stop  offset="0" style="stop-color:#A8BBC0"/>
			<stop  offset="0.33" style="stop-color:#A5B8BD"/>
			<stop  offset="0.55" style="stop-color:#9DB0B5"/>
			<stop  offset="0.74" style="stop-color:#8EA1A6"/>
			<stop  offset="0.9" style="stop-color:#798C91"/>
			<stop  offset="1" style="stop-color:#687B80"/>
		</linearGradient>
		<path class="st15" d="M88.3,29.2h6.7v10h-6.7V29.2z"/>
		
			<linearGradient id="SVGID_18_" gradientUnits="userSpaceOnUse" x1="50.0007" y1="1.8596" x2="50.0007" y2="85.5249" gradientTransform="matrix(1 0 0 -1 0 86)">
			<stop  offset="0" style="stop-color:#607479"/>
			<stop  offset="1" style="stop-color:#819499"/>
		</linearGradient>
		<path class="st16" d="M50,84.1L11.7,63.2V21.4L50,0.5l38.3,20.9v41.8L50,84.1z M17.9,59.9L50,77.4l32.2-17.6V24.7L50,7.2
			L17.9,24.7V59.9z"/>
		
			<linearGradient id="SVGID_19_" gradientUnits="userSpaceOnUse" x1="66.8856" y1="17.0186" x2="24.0948" y2="84.5832" gradientTransform="matrix(1 0 0 -1 0 86)">
			<stop  offset="3.000000e-02" style="stop-color:#819499"/>
			<stop  offset="1" style="stop-color:#E5F0F2"/>
		</linearGradient>
		<path class="st17" d="M50,81.6L14,62V22.6L50,3l36,19.7V62L50,81.6z M19.8,58.8L50,75.4l30.2-16.5v-33L50,9.3L19.8,25.8V58.8z"/>
		<path class="st18" d="M50,74.2L20.8,58.2V26.4L50,10.4l29.2,15.9v31.9L50,74.2z M23,57.1l27,14.8l27-14.8V27.5L50,12.8L23,27.5
			V57.1z"/>
		
			<linearGradient id="SVGID_20_" gradientUnits="userSpaceOnUse" x1="65.0876" y1="18.2932" x2="29.454" y2="78.266" gradientTransform="matrix(1 0 0 -1 0 86)">
			<stop  offset="0" style="stop-color:#CFD9DE"/>
			<stop  offset="0.41" style="stop-color:#819499"/>
			<stop  offset="1" style="stop-color:#607479"/>
		</linearGradient>
		<path class="st19" d="M50,76.7L18.6,59.5V25.1L50,7.9l31.4,17.2v34.4L50,76.7z M20.8,58.2L50,74.2l29.2-15.9V26.4L50,10.4
			L20.8,26.4V58.2z"/>
	</g>
</g>
</svg>
