<svg width="100" height="100" viewBox="0 0 100 100" fill="none" xmlns="http://www.w3.org/2000/svg">
<rect width="100" height="100" rx="16" fill="url(#paint0_linear)"/>
<path d="M50 36.6086C46.6449 36.6086 43.9131 39.3405 43.9131 42.6956C43.9131 46.0506 46.6449 48.7825 50 48.7825C53.3551 48.7825 56.0869 46.0506 56.0869 42.6956C56.0869 39.3405 53.3552 36.6086 50 36.6086ZM50 46.3477C47.9864 46.3477 46.3478 44.7092 46.3478 42.6956C46.3478 40.682 47.9864 39.0434 50 39.0434C52.0136 39.0434 53.6522 40.682 53.6522 42.6956C53.6522 44.7092 52.0136 46.3477 50 46.3477Z" fill="white"/>
<path d="M50 46.3478C43.9593 46.3478 39.0435 51.2636 39.0435 57.3043C39.0435 57.9763 39.5889 58.5217 40.2609 58.5217H59.7392C60.4112 58.5217 60.9566 57.9763 60.9566 57.3043C60.9565 51.2636 56.0407 46.3478 50 46.3478ZM41.566 56.087C42.1576 51.9624 45.7172 48.7826 50.0025 48.7826C54.2877 48.7826 57.8449 51.9624 58.4366 56.087H41.566Z" fill="white"/>
<path d="M35.3911 26.8696C32.036 26.8696 29.3042 29.6015 29.3042 32.9565C29.3042 36.3116 32.036 39.0434 35.3911 39.0434C38.7462 39.0434 41.4781 36.3116 41.4781 32.9565C41.4781 29.6015 38.7463 26.8696 35.3911 26.8696ZM35.3911 36.6087C33.3775 36.6087 31.7389 34.9701 31.7389 32.9565C31.7389 30.9429 33.3775 29.3044 35.3911 29.3044C37.4047 29.3044 39.0433 30.9429 39.0433 32.9565C39.0433 34.9701 37.4047 36.6087 35.3911 36.6087Z" fill="white"/>
<path d="M28.0869 43.9131C24.7318 43.9131 22 46.6449 22 50C22 53.3551 24.7318 56.0869 28.0869 56.0869C31.442 56.0869 34.1738 53.3551 34.1738 50C34.1738 46.6449 31.4421 43.9131 28.0869 43.9131ZM28.0869 53.6522C26.0733 53.6522 24.4347 52.0136 24.4347 50C24.4347 47.9864 26.0733 46.3478 28.0869 46.3478C30.1005 46.3478 31.7391 47.9864 31.7391 50C31.7391 52.0136 30.1005 53.6522 28.0869 53.6522Z" fill="white"/>
<path d="M35.3911 60.9564C32.036 60.9564 29.3042 63.6882 29.3042 67.0434C29.3042 70.3986 32.036 73.1304 35.3911 73.1304C38.7462 73.1304 41.478 70.3985 41.478 67.0434C41.478 63.6884 38.7463 60.9564 35.3911 60.9564ZM35.3911 70.6956C33.3775 70.6956 31.7389 69.057 31.7389 67.0434C31.7389 65.0298 33.3775 63.3913 35.3911 63.3913C37.4047 63.3913 39.0433 65.0298 39.0433 67.0434C39.0433 69.0569 37.4047 70.6956 35.3911 70.6956Z" fill="white"/>
<path d="M64.6084 60.9564C61.2533 60.9564 58.5215 63.6882 58.5215 67.0433C58.5215 70.3984 61.2533 73.1304 64.6084 73.1304C67.9635 73.1304 70.6953 70.3985 70.6953 67.0434C70.6953 63.6884 67.9636 60.9564 64.6084 60.9564ZM64.6084 70.6956C62.5948 70.6956 60.9562 69.057 60.9562 67.0434C60.9562 65.0298 62.5948 63.3913 64.6084 63.3913C66.622 63.3913 68.2606 65.0298 68.2606 67.0434C68.2606 69.0569 66.622 70.6956 64.6084 70.6956Z" fill="white"/>
<path d="M71.9131 43.9131C68.558 43.9131 65.8262 46.6449 65.8262 50C65.8262 53.3551 68.558 56.0869 71.9131 56.0869C75.2682 56.0869 78 53.3551 78 50C78 46.6449 75.2683 43.9131 71.9131 43.9131ZM71.9131 53.6522C69.8995 53.6522 68.2609 52.0136 68.2609 50C68.2609 47.9864 69.8995 46.3478 71.9131 46.3478C73.9267 46.3478 75.5653 47.9864 75.5653 50C75.5653 52.0136 73.9267 53.6522 71.9131 53.6522Z" fill="white"/>
<path d="M64.6084 26.8696C61.2533 26.8696 58.5215 29.6015 58.5215 32.9565C58.5215 36.3116 61.2533 39.0434 64.6084 39.0434C67.9635 39.0434 70.6954 36.3116 70.6954 32.9565C70.6954 29.6015 67.9636 26.8696 64.6084 26.8696ZM64.6084 36.6087C62.5948 36.6087 60.9562 34.9701 60.9562 32.9565C60.9562 30.9429 62.5948 29.3044 64.6084 29.3044C66.622 29.3044 68.2606 30.9429 68.2606 32.9565C68.2606 34.9701 66.622 36.6087 64.6084 36.6087Z" fill="white"/>
<path d="M42.3374 38.184L39.9027 35.7493C39.4279 35.2745 38.6561 35.2745 38.1813 35.7493C37.7065 36.2241 37.7065 36.9959 38.1813 37.4707L40.616 39.9055C40.8547 40.1416 41.1662 40.261 41.4779 40.261C41.7896 40.261 42.1012 40.1417 42.3374 39.9055C42.8122 39.4306 42.8122 38.6588 42.3374 38.184Z" fill="white"/>
<path d="M37.8263 48.7826H32.9567C32.2847 48.7826 31.7393 49.328 31.7393 50C31.7393 50.672 32.2847 51.2173 32.9567 51.2173H37.8263C38.4983 51.2173 39.0437 50.6719 39.0437 49.9999C39.0437 49.3279 38.4983 48.7826 37.8263 48.7826Z" fill="white"/>
<path d="M42.3374 60.0971C41.8627 59.6223 41.0908 59.6223 40.616 60.0971L38.1813 62.5318C37.7065 63.0066 37.7065 63.7784 38.1813 64.2532C38.4199 64.4894 38.7315 64.6087 39.0432 64.6087C39.3549 64.6087 39.6665 64.4895 39.9027 64.2532L42.3374 61.8185C42.8122 61.3436 42.8122 60.5718 42.3374 60.0971Z" fill="white"/>
<path d="M61.816 62.5318L59.3812 60.0971C58.9064 59.6223 58.1346 59.6223 57.6598 60.0971C57.185 60.5718 57.185 61.3437 57.6598 61.8185L60.0945 64.2532C60.3332 64.4894 60.6447 64.6087 60.9564 64.6087C61.2681 64.6087 61.5797 64.4895 61.816 64.2532C62.2907 63.7784 62.2907 63.0066 61.816 62.5318Z" fill="white"/>
<path d="M67.0436 48.7826H62.174C61.502 48.7826 60.9565 49.328 60.9565 50C60.9565 50.672 61.502 51.2173 62.174 51.2173H67.0436C67.7156 51.2173 68.261 50.6719 68.261 49.9999C68.261 49.3279 67.7156 48.7826 67.0436 48.7826Z" fill="white"/>
<path d="M61.816 35.7492C61.3412 35.2744 60.5693 35.2744 60.0945 35.7492L57.6598 38.1839C57.185 38.6587 57.185 39.4305 57.6598 39.9053C57.8984 40.1415 58.21 40.2608 58.5217 40.2608C58.8334 40.2608 59.145 40.1416 59.3812 39.9053L61.816 37.4706C62.2907 36.9958 62.2907 36.2239 61.816 35.7492Z" fill="white"/>
<defs>
<linearGradient id="paint0_linear" x1="6" y1="6" x2="95" y2="96.5" gradientUnits="userSpaceOnUse">
<stop stop-color="#F0BA0D"/>
<stop offset="1" stop-color="#FFDB65"/>
</linearGradient>
</defs>
</svg>
