<svg width="110" height="110" viewBox="0 0 110 110" fill="none" xmlns="http://www.w3.org/2000/svg">
<g filter="url(#filter0_d)">
<rect width="70" height="70" rx="16" transform="matrix(-1 0 0 1 90 5)" fill="url(#paint0_linear)"/>
</g>
<g clip-path="url(#clip0)">
<path d="M36.982 33.1605C37.3382 29.1732 38.2793 26.432 38.3192 26.3172C38.4198 26.0276 38.7279 25.8648 39.0242 25.9436C41.8385 26.5776 45.1807 25.5266 45.7978 20.9087C45.837 20.649 46.0443 20.4471 46.3049 20.4148C46.3383 20.4105 49.7035 20 55.0137 20C56.1008 20 58.2663 20.0171 59.3182 20.0509C59.6416 20.0613 59.2459 20.1979 59.2355 20.5214C59.2251 20.8448 59.6049 21.2323 59.2805 21.2221C56.0396 21.0403 47.8945 21.35 46.8807 21.5308C46.4644 23.7321 45.5101 25.3328 44.0406 26.2923C42.2617 27.4537 40.234 27.3338 39.2749 27.1859C35.5726 40.2152 39.6493 53.8628 55.0137 58.7957C57.5231 57.9428 61.7907 55.4547 63.7546 54.2009C64.423 53.8061 65.0244 54.749 64.3852 55.1887C62.2921 56.525 57.8737 59.0764 55.1994 59.9698C55.0789 60.0101 54.9487 60.0101 54.8281 59.9698C41.6199 55.839 35.7358 44.9841 36.982 33.1605Z" fill="white"/>
<path d="M63.7546 54.2009C72.2028 47.9316 73.412 36.0067 70.7522 27.186C69.7929 27.3338 67.7653 27.4535 65.9867 26.2922C64.517 25.3326 63.5629 23.732 63.1466 21.5304C62.7165 21.4867 60.2452 21.2848 59.2429 21.2203C58.9199 21.1995 59.2146 20.8443 59.2355 20.5214C59.2563 20.1985 58.9958 20.0298 59.3182 20.0509C61.0108 20.1599 63.6831 20.4097 63.7223 20.4146C63.983 20.447 64.1902 20.6489 64.2295 20.9085C64.5443 22.9922 65.3482 24.4716 66.619 25.3054C68.5513 26.5734 70.9787 25.95 71.0018 25.9439C71.2987 25.8636 71.6071 26.0266 71.7081 26.3171C74.5056 34.9859 73.9464 47.9173 64.4808 55.1206C64.3733 55.2055 64.2452 55.2467 64.118 55.2467C63.9449 55.2467 63.7734 55.1702 63.6578 55.0238C63.4573 54.7699 63.5006 54.4014 63.7546 54.2009Z" fill="white"/>
<path d="M68.6412 34.5245C68.9646 34.5121 69.2362 34.7656 69.2478 35.089C69.6146 44.9959 64.9155 52.1758 55.2211 55.8165C55.0873 55.8672 54.9398 55.8672 54.8061 55.8165C45.4959 52.3049 40.7805 45.6026 40.7583 36.1495C40.7572 35.8259 41.0187 35.5627 41.3423 35.5616H41.3442C41.6669 35.5616 41.9291 35.8227 41.9302 36.1456C41.9523 45.035 46.2832 51.2705 55.0136 54.6412C64.1119 51.1433 68.4191 44.4581 68.0767 35.1311C68.0651 34.8078 68.3178 34.5361 68.6412 34.5245Z" fill="white"/>
<path d="M41.3122 30.3927C41.3602 30.1443 41.5622 29.9549 41.813 29.9228C44.9252 29.458 47.3359 27.9431 48.8669 24.4368C48.9522 24.2293 49.1484 24.0888 49.3723 24.0748C52.9231 23.8503 57.1043 23.8503 60.6552 24.0749C60.8791 24.0889 61.0752 24.2294 61.1605 24.4368C62.6901 27.94 65.0977 29.4557 68.2091 29.9221C68.4599 29.9543 68.6618 30.144 68.7096 30.3924C68.8462 31.1015 69.1529 34.2709 69.24 34.9901C69.279 35.3113 69.0501 35.6033 68.7289 35.6422C68.4077 35.6813 68.1156 35.4523 68.0767 35.1311C68.0094 34.5761 67.7327 31.5725 67.6344 31.0213C64.4201 30.4084 61.928 28.8104 60.223 25.2229C56.9287 25.03 53.0987 25.0301 49.8045 25.2229C48.7752 27.5166 47.2767 28.8447 46.1762 29.5632C45.0486 30.2994 43.7758 30.7894 42.3871 31.0224C42.2337 31.8798 42.0073 35.2824 41.9302 36.1456C41.903 36.4502 41.6473 36.6795 41.3473 36.6794C41.3298 36.6794 41.3122 36.6786 41.2944 36.6771C40.9721 36.6483 40.7341 36.3636 40.763 36.0414C40.8556 35.0016 41.1134 31.4202 41.3122 30.3927Z" fill="white"/>
<path d="M61.2993 34.4183C61.2993 33.2336 62.263 32.2699 63.4477 32.2699C65.9505 32.3317 66.3992 35.762 64.0337 36.4856V40.2199C64.0337 40.3817 63.9668 40.5364 63.8488 40.6471L61.0907 43.2371C60.8552 43.4583 60.4844 43.4474 60.2624 43.2111C60.0409 42.9752 60.0525 42.6044 60.2884 42.3828L62.8617 39.9663V36.4855C61.961 36.2299 61.2993 35.3999 61.2993 34.4183ZM63.4477 35.3949C63.9862 35.3949 64.4243 34.9568 64.4243 34.4183C64.3706 33.1228 62.5246 33.1231 62.4712 34.4183C62.4712 34.9568 62.9093 35.3949 63.4477 35.3949Z" fill="white"/>
<path d="M61.1039 46.5719C61.3327 46.8008 61.3327 47.1718 61.1039 47.4005C60.8751 47.6294 60.5041 47.6294 60.2753 47.4005L57.5715 44.6967C57.4616 44.5869 57.3999 44.4378 57.3999 44.2824V32.8762C57.3999 32.7208 57.4616 32.5717 57.5715 32.4619L60.2753 29.7581C60.5042 29.5293 60.8752 29.5293 61.1039 29.7581C61.3327 29.9869 61.3327 30.358 61.1039 30.5867L58.5717 33.1189V44.0398L61.1039 46.5719Z" fill="white"/>
<path d="M49.7388 42.3828C49.9747 42.6043 49.9863 42.9751 49.7648 43.2111C49.5429 43.4473 49.1721 43.4583 48.9365 43.2371L46.1783 40.647C46.0605 40.5363 45.9935 40.3817 45.9935 40.2199V36.4855C45.0927 36.2298 44.431 35.3999 44.431 34.4183C44.549 31.568 48.6103 31.569 48.7279 34.4183C48.7279 35.3998 48.0662 36.2298 47.1654 36.4854V39.9663L49.7388 42.3828ZM47.5561 34.4183C47.5561 33.8797 47.118 33.4417 46.5795 33.4417C45.284 33.4954 45.2844 35.3414 46.5795 35.3948C47.118 35.3948 47.5561 34.9568 47.5561 34.4183Z" fill="white"/>
<path d="M49.752 29.758L52.4558 32.4618C52.5657 32.5716 52.6274 32.7207 52.6274 32.8761V44.2823C52.6274 44.4377 52.5657 44.5867 52.4558 44.6966L49.752 47.4005C49.5232 47.6293 49.1522 47.6293 48.9234 47.4005C48.6946 47.1716 48.6946 46.8006 48.9234 46.5719L51.4556 44.0397V33.1188L48.9234 30.5866C48.6946 30.3578 48.6946 29.9868 48.9234 29.758C49.1522 29.5293 49.5232 29.5293 49.752 29.758Z" fill="white"/>
<path d="M55.0122 35.0382C54.6886 35.0382 54.4263 34.7759 54.4263 34.4523V28.0528C54.4531 27.277 55.5715 27.2776 55.5981 28.0528V34.4523C55.5981 34.7759 55.3358 35.0382 55.0122 35.0382Z" fill="white"/>
<path d="M57.1606 49.6391C57.1606 50.8238 56.1969 51.7875 55.0122 51.7875C52.5095 51.7256 52.0607 48.2954 54.4262 47.5718V45.3116C54.4531 44.5357 55.5715 44.5363 55.5981 45.3116V47.5718C56.4989 47.8275 57.1606 48.6575 57.1606 49.6391ZM55.0122 48.6625C54.4737 48.6625 54.0356 49.1006 54.0356 49.6391C54.0893 50.9346 55.9353 50.9342 55.9887 49.6391C55.9887 49.1006 55.5507 48.6625 55.0122 48.6625Z" fill="white"/>
<path d="M55.0151 40.4593C54.6915 40.4593 54.4292 40.197 54.4292 39.8734C54.456 39.0978 55.5744 39.0979 55.6011 39.8734C55.6011 40.197 55.3387 40.4593 55.0151 40.4593Z" fill="white"/>
<path d="M55.0122 37.725C54.6886 37.725 54.4263 37.4626 54.4263 37.139C54.4531 36.3634 55.5715 36.3636 55.5981 37.139C55.5981 37.4626 55.3358 37.725 55.0122 37.725Z" fill="white"/>
<path d="M55.0123 42.0219C55.3359 42.0219 55.5983 42.2843 55.5983 42.6079C55.5715 43.3835 54.4531 43.3833 54.4264 42.6079C54.4264 42.2843 54.6887 42.0219 55.0123 42.0219Z" fill="white"/>
</g>
<defs>
<filter id="filter0_d" x="0" y="0" width="110" height="110" filterUnits="userSpaceOnUse" color-interpolation-filters="sRGB">
<feFlood flood-opacity="0" result="BackgroundImageFix"/>
<feColorMatrix in="SourceAlpha" type="matrix" values="0 0 0 0 0 0 0 0 0 0 0 0 0 0 0 0 0 0 127 0"/>
<feOffset dy="15"/>
<feGaussianBlur stdDeviation="10"/>
<feColorMatrix type="matrix" values="0 0 0 0 0.129412 0 0 0 0 0.694118 0 0 0 0 0.407843 0 0 0 0.25 0"/>
<feBlend mode="normal" in2="BackgroundImageFix" result="effect1_dropShadow"/>
<feBlend mode="normal" in="SourceGraphic" in2="effect1_dropShadow" result="shape"/>
</filter>
<linearGradient id="paint0_linear" x1="70" y1="70" x2="-1.01926" y2="68.3953" gradientUnits="userSpaceOnUse">
<stop stop-color="#1CBA6E"/>
<stop offset="1" stop-color="#26A862"/>
</linearGradient>
<clipPath id="clip0">
<rect width="40" height="40" fill="white" transform="matrix(-1 0 0 1 75 20)"/>
</clipPath>
</defs>
</svg>
