<?xml version="1.0" encoding="utf-8"?>
<!-- Generator: Adobe Illustrator 25.0.1, SVG Export Plug-In . SVG Version: 6.00 Build 0)  -->
<svg version="1.1" id="Capa_1" xmlns="http://www.w3.org/2000/svg" xmlns:xlink="http://www.w3.org/1999/xlink" x="0px" y="0px"
	 viewBox="0 0 157 162" style="enable-background:new 0 0 157 162;" xml:space="preserve">
<style type="text/css">
	.st0{fill:url(#SVGID_1_);}
	.st1{fill:url(#SVGID_2_);}
	.st2{fill-rule:evenodd;clip-rule:evenodd;fill:url(#SVGID_3_);}
	.st3{fill-rule:evenodd;clip-rule:evenodd;fill:url(#SVGID_4_);}
	.st4{fill-rule:evenodd;clip-rule:evenodd;fill:url(#SVGID_5_);}
</style>
<linearGradient id="SVGID_1_" gradientUnits="userSpaceOnUse" x1="72.2015" y1="146.2698" x2="104.8389" y2="30.3474" gradientTransform="matrix(1 0 0 -1 0 164)">
	<stop  offset="0" style="stop-color:#AAAAAA"/>
	<stop  offset="0.1563" style="stop-color:#47484A"/>
	<stop  offset="0.3646" style="stop-color:#2A2B2E"/>
	<stop  offset="0.8338" style="stop-color:#777777"/>
	<stop  offset="0.9168" style="stop-color:#3E3E43"/>
	<stop  offset="1" style="stop-color:#28292B"/>
</linearGradient>
<path class="st0" d="M135.1,61.5c-10.8-31.4-40.2-51.2-65.6-44.3c-2.6,0.7-5.1,1.7-7.4,2.9c-4.5,2.3-14.6,7.6-17.8,11.1
	C32.9,44.6,34,66.1,41.5,88c10.8,31.4,62,47.4,66.3,45.4c4.2-2,9-5.6,12.4-8C137.4,113.5,144.1,87.6,135.1,61.5z"/>
<linearGradient id="SVGID_2_" gradientUnits="userSpaceOnUse" x1="62.5296" y1="141.3342" x2="93.9947" y2="25.6953" gradientTransform="matrix(1 0 0 -1 0 164)">
	<stop  offset="0" style="stop-color:#292728"/>
	<stop  offset="0.625" style="stop-color:#434142"/>
	<stop  offset="1" style="stop-color:#8A8A8A"/>
</linearGradient>
<path class="st1" d="M123.7,66.4c-10.5-30.5-39-49.8-63.7-43l-2.6,0.7c-24.7,6.7-36.2,36.9-25.7,67.4l1.1,3.2
	c10.5,30.5,39,49.8,63.7,43l2.6-0.7c24.7-6.7,36.2-36.9,25.7-67.4L123.7,66.4z"/>
<linearGradient id="SVGID_3_" gradientUnits="userSpaceOnUse" x1="23.0488" y1="123.4432" x2="133.578" y2="43.3167" gradientTransform="matrix(1 0 0 -1 0 164)">
	<stop  offset="0.6705" style="stop-color:#8C8C8C"/>
	<stop  offset="0.9258" style="stop-color:#1C1D20"/>
	<stop  offset="1" style="stop-color:#434244"/>
</linearGradient>
<path class="st2" d="M59,28.4l2.5-0.7c22.8-6.2,49.2,11.6,58.9,39.8l1,3c9.7,28.2-0.9,56.1-23.8,62.3l-2.5,0.7
	c-22.8,6.2-49.2-11.6-58.9-39.8l-1-3C25.5,62.5,36.1,34.6,59,28.4z M60.7,25.6C84.5,19.1,112,37.7,122.1,67l1,3
	c10.1,29.4-1,58.4-24.7,64.9l-2.5,0.7c-23.8,6.5-51.3-12.1-61.4-41.5l-1-3c-10.1-29.4,1-58.4,24.7-64.9L60.7,25.6z"/>
<linearGradient id="SVGID_4_" gradientUnits="userSpaceOnUse" x1="60.5777" y1="144.376" x2="94.9189" y2="26.1903" gradientTransform="matrix(1 0 0 -1 0 164)">
	<stop  offset="0.6705" style="stop-color:#8C8C8C"/>
	<stop  offset="0.9258" style="stop-color:#1C1D20"/>
	<stop  offset="1" style="stop-color:#434244"/>
</linearGradient>
<path class="st3" d="M58.2,26.3l2.6-0.7c23.7-6.5,51.1,12,61.2,41.3L123,70c10.1,29.3-1,58.2-24.7,64.7l-2.6,0.7
	c-23.7,6.5-51.1-12-61.2-41.3l-1.1-3.2C23.4,61.7,34.5,32.7,58.2,26.3z M60,23.4c24.7-6.7,53.2,12.5,63.7,43l1.1,3.2
	c10.5,30.5-1,60.6-25.7,67.4l-2.6,0.7c-24.7,6.7-53.2-12.5-63.7-43l-1.1-3.2c-10.5-30.5,1-60.6,25.7-67.4L60,23.4z"/>
<linearGradient id="SVGID_5_" gradientUnits="userSpaceOnUse" x1="105.9894" y1="161.6772" x2="84.5609" y2="101.2708" gradientTransform="matrix(1 0 0 -1 0 164)">
	<stop  offset="0" style="stop-color:#FFFFFF;stop-opacity:0.94"/>
	<stop  offset="1" style="stop-color:#FFFFFF;stop-opacity:0.26"/>
</linearGradient>
<path class="st4" d="M58.2,26.3l2.6-0.7c23.7-6.5,51.1,12,61.2,41.3L123,70c10.1,29.3-1,58.2-24.7,64.7l-2.6,0.7
	c-23.7,6.5-51.1-12-61.2-41.3l-1.1-3.2C23.4,61.7,34.5,32.7,58.2,26.3z M60,23.4c24.7-6.7,53.2,12.5,63.7,43l1.1,3.2
	c10.5,30.5-1,60.6-25.7,67.4l-2.6,0.7c-24.7,6.7-53.2-12.5-63.7-43l-1.1-3.2c-10.5-30.5,1-60.6,25.7-67.4L60,23.4z"/>
</svg>
