<svg width="110" height="110" viewBox="0 0 110 110" fill="none" xmlns="http://www.w3.org/2000/svg">
<g filter="url(#filter0_d)">
<rect width="70" height="70" rx="16" transform="matrix(-1 0 0 1 90 5)" fill="white"/>
</g>
<g clip-path="url(#clip0)">
<path d="M48.0551 43.4769C47.7314 43.4769 47.4691 43.2146 47.4691 42.891V35.5016C47.4691 35.2574 47.6206 35.0387 47.8493 34.953L54.7942 32.3487C54.9269 32.2989 55.073 32.2989 55.2058 32.3487L62.1507 34.953C62.3794 35.0388 62.5308 35.2574 62.5308 35.5016V37.3828C62.5308 37.7064 62.2686 37.9688 61.9449 37.9688C61.6212 37.9688 61.359 37.7064 61.359 37.3828V36.3471L55.5859 38.512V46.2572L61.359 44.0924V37.4922C61.359 37.1686 61.6212 36.9063 61.9449 36.9063C62.2686 36.9063 62.5308 37.1686 62.5308 37.4922V44.4985C62.5308 44.7427 62.3794 44.9614 62.1507 45.0471L55.2058 47.6514L55.2054 47.6497C55.1394 47.6745 55.0701 47.6886 54.9999 47.6886C54.9306 47.6886 54.8609 47.6764 54.7942 47.6513L47.8493 45.047C47.6206 44.9612 47.4691 44.7426 47.4691 44.4984V42.4642C47.4691 42.1406 47.7314 41.8782 48.0551 41.8782C48.3787 41.8782 48.641 42.1406 48.641 42.4642V44.0923L54.414 46.2572V38.512L48.641 36.3471V42.891C48.641 43.2146 48.3787 43.4769 48.0551 43.4769ZM55 37.4802L60.2761 35.5017L55 33.5231L49.7239 35.5017L55 37.4802Z" fill="#FF5F2D"/>
<path d="M55.5859 25.8484V30.0562C55.5859 30.3798 55.3237 30.6422 55 30.6422C54.6763 30.6422 54.4141 30.3798 54.4141 30.0562V25.8484C53.0652 25.5759 52.0465 24.3815 52.0465 22.9535C52.0465 21.3249 53.3714 20 55 20C56.6286 20 57.9535 21.3249 57.9535 22.9535C57.9535 24.3815 56.9348 25.5759 55.5859 25.8484ZM55 21.1719C54.0177 21.1719 53.2184 21.9711 53.2184 22.9535C53.2184 23.9359 54.0177 24.7352 55 24.7352C55.9824 24.7352 56.7817 23.9359 56.7817 22.9535C56.7817 21.9711 55.9824 21.1719 55 21.1719Z" fill="#FF5F2D"/>
<path d="M43.7276 47.2141C44.6356 47.2141 45.4748 47.5139 46.1517 48.0196L47.5543 46.6171C47.7832 46.3882 48.1541 46.3882 48.383 46.6171C48.6118 46.8459 48.6118 47.2169 48.383 47.4457L46.9803 48.8482C47.4861 49.5251 47.7859 50.3644 47.7859 51.2724C47.7859 53.5102 45.9652 55.3307 43.7275 55.3307C41.4898 55.3307 39.6691 53.5102 39.6691 51.2724C39.6691 49.0346 41.4898 47.2141 43.7276 47.2141ZM43.7276 54.1589C45.3192 54.1589 46.6141 52.864 46.6141 51.2725C46.6141 49.6809 45.3192 48.386 43.7276 48.386C42.1359 48.386 40.8411 49.6809 40.8411 51.2725C40.8411 52.864 42.1359 54.1589 43.7276 54.1589Z" fill="#FF5F2D"/>
<path d="M66.2724 32.7859C65.3644 32.7859 64.5252 32.4861 63.8483 31.9803L62.4457 33.3829C62.3312 33.4973 62.1812 33.5546 62.0313 33.5546C61.8814 33.5546 61.7314 33.4974 61.6169 33.3829C61.3881 33.1541 61.3881 32.7831 61.6169 32.5543L63.0195 31.1518C62.5137 30.4749 62.214 29.6356 62.214 28.7276C62.214 26.4898 64.0346 24.6693 66.2723 24.6693C68.5101 24.6693 70.3307 26.4898 70.3307 28.7276C70.3307 30.9654 68.5102 32.7859 66.2724 32.7859ZM66.2724 25.8411C64.6808 25.8411 63.3859 27.136 63.3859 28.7275C63.3859 30.3191 64.6808 31.614 66.2724 31.614C67.8641 31.614 69.1589 30.3191 69.1589 28.7275C69.1589 27.136 67.8641 25.8411 66.2724 25.8411Z" fill="#FF5F2D"/>
<path d="M54.4141 54.1515V49.9437C54.4141 49.6201 54.6763 49.3578 55 49.3578C55.3237 49.3578 55.5859 49.6201 55.5859 49.9437V54.1515C56.9348 54.4241 57.9535 55.6185 57.9535 57.0465C57.9535 58.6751 56.6286 60 55 60C53.3714 60 52.0465 58.6751 52.0465 57.0465C52.0465 55.6185 53.0652 54.4241 54.4141 54.1515ZM55 58.8281C55.9824 58.8281 56.7817 58.0289 56.7817 57.0465C56.7817 56.064 55.9824 55.2648 55 55.2648C54.0177 55.2648 53.2184 56.064 53.2184 57.0465C53.2184 58.0289 54.0177 58.8281 55 58.8281Z" fill="#FF5F2D"/>
<path d="M37.9535 37.0464C39.3815 37.0464 40.5759 38.0652 40.8484 39.414H45.0563C45.3799 39.414 45.6422 39.6763 45.6422 39.9999C45.6422 40.3235 45.3799 40.5859 45.0563 40.5859H40.8484C40.5759 41.9347 39.3815 42.9534 37.9535 42.9534C36.3249 42.9534 35 41.6285 35 39.9999C35 38.3713 36.3249 37.0464 37.9535 37.0464ZM37.9535 41.7816C38.9359 41.7816 39.7351 40.9824 39.7351 39.9999C39.7351 39.0175 38.9359 38.2183 37.9535 38.2183C36.9711 38.2183 36.1719 39.0175 36.1719 39.9999C36.1719 40.9824 36.9711 41.7816 37.9535 41.7816Z" fill="#FF5F2D"/>
<path d="M69.1516 40.5859H64.9438C64.6201 40.5859 64.3578 40.3235 64.3578 39.9999C64.3578 39.6763 64.6201 39.414 64.9438 39.414H69.1516C69.4241 38.0652 70.6185 37.0464 72.0465 37.0464C73.6751 37.0464 75 38.3713 75 39.9999C75 41.6285 73.6751 42.9534 72.0465 42.9534C70.6185 42.9534 69.4241 41.9347 69.1516 40.5859ZM72.0465 41.7816C73.0289 41.7816 73.8281 40.9824 73.8281 39.9999C73.8281 39.0175 73.0289 38.2183 72.0465 38.2183C71.0641 38.2183 70.2649 39.0175 70.2649 39.9999C70.2649 40.9824 71.0641 41.7816 72.0465 41.7816Z" fill="#FF5F2D"/>
<path d="M47.9687 33.5546C47.8188 33.5546 47.6688 33.4975 47.5543 33.383L46.1517 31.9804C45.4749 32.4862 44.6356 32.786 43.7276 32.786C41.4898 32.786 39.6692 30.9654 39.6692 28.7276C39.6692 26.4898 41.4899 24.6693 43.7276 24.6693C45.9653 24.6693 47.786 26.4898 47.786 28.7276C47.786 29.6357 47.4862 30.4749 46.9804 31.1518L48.3831 32.5543C48.6119 32.7832 48.6119 33.1542 48.3831 33.3829C48.2686 33.4975 48.1186 33.5546 47.9687 33.5546ZM43.7276 25.8411C42.136 25.8411 40.8411 27.1361 40.8411 28.7276C40.8411 30.3192 42.136 31.6141 43.7276 31.6141C45.3192 31.6141 46.6141 30.3192 46.6141 28.7276C46.6141 27.1361 45.3192 25.8411 43.7276 25.8411Z" fill="#FF5F2D"/>
<path d="M62.4457 46.6171L63.8483 48.0196C64.5252 47.5138 65.3645 47.2141 66.2724 47.2141C68.5102 47.2141 70.3308 49.0346 70.3308 51.2724C70.3308 53.5103 68.5102 55.3308 66.2724 55.3308C64.0347 55.3308 62.2141 53.5103 62.2141 51.2724C62.2141 50.3644 62.5138 49.5252 63.0196 48.8483L61.617 47.4457C61.3882 47.2169 61.3882 46.8459 61.617 46.6171C61.8459 46.3882 62.2168 46.3882 62.4457 46.6171ZM66.2724 54.1589C67.8641 54.1589 69.1589 52.864 69.1589 51.2724C69.1589 49.6809 67.8641 48.386 66.2724 48.386C64.6808 48.386 63.3859 49.6809 63.3859 51.2724C63.3859 52.864 64.6808 54.1589 66.2724 54.1589Z" fill="#FF5F2D"/>
</g>
<defs>
<filter id="filter0_d" x="0" y="0" width="110" height="110" filterUnits="userSpaceOnUse" color-interpolation-filters="sRGB">
<feFlood flood-opacity="0" result="BackgroundImageFix"/>
<feColorMatrix in="SourceAlpha" type="matrix" values="0 0 0 0 0 0 0 0 0 0 0 0 0 0 0 0 0 0 127 0"/>
<feOffset dy="15"/>
<feGaussianBlur stdDeviation="10"/>
<feColorMatrix type="matrix" values="0 0 0 0 0.360784 0 0 0 0 0.403922 0 0 0 0 0.490196 0 0 0 0.15 0"/>
<feBlend mode="normal" in2="BackgroundImageFix" result="effect1_dropShadow"/>
<feBlend mode="normal" in="SourceGraphic" in2="effect1_dropShadow" result="shape"/>
</filter>
<clipPath id="clip0">
<rect width="40" height="40" transform="matrix(-1 0 0 1 75 20)" fill="white"/>
</clipPath>
</defs>
</svg>
