<?xml version="1.0" encoding="utf-8"?>
<!-- Generator: Adobe Illustrator 25.0.1, SVG Export Plug-In . SVG Version: 6.00 Build 0)  -->
<svg version="1.1" id="Capa_1" xmlns="http://www.w3.org/2000/svg" xmlns:xlink="http://www.w3.org/1999/xlink" x="0px" y="0px"
	 viewBox="0 0 845 701" style="enable-background:new 0 0 845 701;" xml:space="preserve">
<style type="text/css">
	.st0{fill:none;stroke:#1CBA6E;stroke-width:2;}
	.st1{fill:url(#SVGID_1_);}
	.st2{fill:#FFFFFF;}
	.st3{fill:url(#SVGID_2_);}
	.st4{fill:url(#SVGID_3_);}
	.st5{fill-rule:evenodd;clip-rule:evenodd;fill:url(#SVGID_4_);}
	.st6{fill-rule:evenodd;clip-rule:evenodd;fill:url(#SVGID_5_);}
	.st7{fill-rule:evenodd;clip-rule:evenodd;fill:url(#SVGID_6_);}
	.st8{fill:url(#SVGID_7_);}
	.st9{fill:url(#SVGID_8_);}
	.st10{fill-rule:evenodd;clip-rule:evenodd;fill:url(#SVGID_9_);}
	.st11{fill-rule:evenodd;clip-rule:evenodd;fill:url(#SVGID_10_);}
	.st12{fill-rule:evenodd;clip-rule:evenodd;fill:url(#SVGID_11_);}
	.st13{fill:url(#SVGID_12_);}
	.st14{clip-path:url(#SVGID_14_);}
	.st15{clip-path:url(#SVGID_16_);}
	.st16{fill:#FF5F2D;}
	.st17{fill:url(#SVGID_17_);}
	.st18{fill:url(#SVGID_18_);}
	.st19{fill-rule:evenodd;clip-rule:evenodd;fill:url(#SVGID_19_);}
	.st20{fill-rule:evenodd;clip-rule:evenodd;fill:url(#SVGID_20_);}
	.st21{fill-rule:evenodd;clip-rule:evenodd;fill:url(#SVGID_21_);}
</style>
<path class="st0" d="M728.6,520.1L728.6,520.1l102.6-177.7c4.7-8.2,7-12.1,7.9-16.3c0.8-3.7,0.8-7.5,0-11.2
	c-0.9-4.1-3.1-8.1-7.9-16.3L728.6,120.9c-4.7-8.2-7-12.1-10.2-15c-2.8-2.5-6.1-4.4-9.7-5.6c-4-1.3-8.6-1.3-18-1.3H483.3
	c-9.5,0-14,0-18,1.3c-3.6,1.2-6.9,3.1-9.7,5.6c-3.1,2.8-5.4,6.7-10.2,15L342.8,298.6c-4.7,8.2-7,12.1-7.9,16.3
	c-0.8,3.7-0.8,7.5,0,11.2c0.9,4.1,3.1,8.1,7.9,16.3l102.6,177.7c4.7,8.2,7,12.1,10.2,15c2.8,2.5,6.1,4.4,9.7,5.6
	c4,1.3,8.6,1.3,18,1.3h207.4c9.5,0,14,0,18-1.3c3.6-1.2,6.9-3.1,9.7-5.6C721.6,532.2,723.9,528.3,728.6,520.1z"/>
<g>
	
		<linearGradient id="SVGID_1_" gradientUnits="userSpaceOnUse" x1="679.3835" y1="390.772" x2="280.0095" y2="358.7539" gradientTransform="matrix(1 0 0 -1 0 702)">
		<stop  offset="0" style="stop-color:#FFDC67"/>
		<stop  offset="1" style="stop-color:#F0B90B"/>
	</linearGradient>
	<path class="st1" d="M678.3,489.7L763,343.5c4.7-8.2,7.1-12.3,8-16.6c0.8-3.8,0.8-7.8,0-11.7c-0.9-4.4-3.3-8.4-8-16.6l-84.7-146.2
		c-4.7-8.1-7.1-12.2-10.4-15.2c-2.9-2.6-6.3-4.6-10.1-5.8c-4.2-1.4-8.9-1.4-18.3-1.4h-164c-9.4,0-14.1,0-18.3,1.4
		c-3.7,1.2-7.2,3.2-10.1,5.8c-3.3,3-5.7,7-10.4,15.2L352,298.5c-4.7,8.2-7.1,12.3-8,16.6c-0.8,3.8-0.8,7.8,0,11.7
		c0.9,4.4,3.3,8.4,8,16.6l84.7,146.2c4.7,8.1,7.1,12.2,10.4,15.2c2.9,2.6,6.3,4.6,10.1,5.8c4.2,1.4,8.9,1.4,18.3,1.4h164
		c9.4,0,14.1,0,18.3-1.4c3.7-1.2,7.2-3.2,10.1-5.8C671.2,501.9,673.5,497.8,678.3,489.7L678.3,489.7z"/>
</g>
<g>
	<path class="st2" d="M549.1,548.6L668,342.9c4.7-8.2,7.1-12.3,8-16.6c0.8-3.8,0.8-7.8,0-11.7c-0.9-4.3-3.3-8.4-8-16.6L549.1,92.4v0
		c-4.7-8.2-7.1-12.2-10.4-15.2c-2.9-2.6-6.3-4.6-10.1-5.8c-4.2-1.4-8.9-1.4-18.3-1.4H266.6c-9.4,0-14.1,0-18.3,1.4
		c-3.7,1.2-7.2,3.2-10.1,5.8c-3.3,3-5.7,7-10.4,15.2L109,298.1c-4.7,8.2-7.1,12.3-8,16.6c-0.8,3.8-0.8,7.8,0,11.7
		c0.9,4.3,3.3,8.4,8,16.6l118.9,205.7c4.7,8.2,7.1,12.2,10.4,15.2c2.9,2.6,6.3,4.6,10.1,5.8c4.2,1.4,8.9,1.4,18.3,1.4l243.7,0
		c9.4,0,14.1,0,18.3-1.4c3.7-1.2,7.2-3.2,10.1-5.8C542.1,560.8,544.4,556.8,549.1,548.6z"/>
</g>
<linearGradient id="SVGID_2_" gradientUnits="userSpaceOnUse" x1="370.2019" y1="265.2694" x2="402.8389" y2="149.3474" gradientTransform="matrix(1 0 0 -1 0 702)">
	<stop  offset="0" style="stop-color:#AAAAAA"/>
	<stop  offset="0.1563" style="stop-color:#47484A"/>
	<stop  offset="0.3646" style="stop-color:#2A2B2E"/>
	<stop  offset="0.8338" style="stop-color:#777777"/>
	<stop  offset="0.9168" style="stop-color:#3E3E43"/>
	<stop  offset="1" style="stop-color:#28292B"/>
</linearGradient>
<path class="st3" d="M433.1,480.5c-10.8-31.4-40.2-51.2-65.6-44.3c-2.6,0.7-5.1,1.7-7.4,2.9c-4.5,2.3-14.6,7.6-17.8,11.1
	c-11.4,13.5-10.3,35-2.8,56.8c10.8,31.4,62,47.4,66.3,45.4c4.2-2,9-5.6,12.4-8C435.4,532.5,442.1,506.6,433.1,480.5z"/>
<linearGradient id="SVGID_3_" gradientUnits="userSpaceOnUse" x1="360.5295" y1="260.3345" x2="391.9945" y2="144.6953" gradientTransform="matrix(1 0 0 -1 0 702)">
	<stop  offset="0" style="stop-color:#292728"/>
	<stop  offset="0.625" style="stop-color:#434142"/>
	<stop  offset="1" style="stop-color:#8A8A8A"/>
</linearGradient>
<path class="st4" d="M421.7,485.4c-10.5-30.5-39-49.8-63.7-43l-2.6,0.7c-24.7,6.7-36.2,36.9-25.7,67.4l1.1,3.2
	c10.5,30.5,39,49.8,63.7,43l2.6-0.7c24.7-6.7,36.2-36.9,25.7-67.4L421.7,485.4z"/>
<linearGradient id="SVGID_4_" gradientUnits="userSpaceOnUse" x1="321.0491" y1="242.4428" x2="431.5781" y2="162.3168" gradientTransform="matrix(1 0 0 -1 0 702)">
	<stop  offset="0.6705" style="stop-color:#8C8C8C"/>
	<stop  offset="0.9258" style="stop-color:#1C1D20"/>
	<stop  offset="1" style="stop-color:#434244"/>
</linearGradient>
<path class="st5" d="M357,447.4l2.5-0.7c22.8-6.2,49.2,11.6,58.9,39.8l1,3c9.7,28.2-0.9,56.1-23.8,62.3l-2.5,0.7
	c-22.8,6.2-49.2-11.6-58.9-39.8l-1-3C323.5,481.5,334.1,453.6,357,447.4z M358.7,444.6c23.8-6.5,51.3,12.1,61.4,41.5l1,3
	c10.1,29.4-1,58.4-24.7,64.9l-2.5,0.7c-23.8,6.5-51.3-12.1-61.4-41.5l-1-3c-10.1-29.4,1-58.4,24.7-64.9L358.7,444.6z"/>
<linearGradient id="SVGID_5_" gradientUnits="userSpaceOnUse" x1="358.5777" y1="263.3763" x2="392.9187" y2="145.1902" gradientTransform="matrix(1 0 0 -1 0 702)">
	<stop  offset="0.6705" style="stop-color:#8C8C8C"/>
	<stop  offset="0.9258" style="stop-color:#1C1D20"/>
	<stop  offset="1" style="stop-color:#434244"/>
</linearGradient>
<path class="st6" d="M356.2,445.3l2.6-0.7c23.7-6.5,51.1,12,61.2,41.3l1.1,3.2c10.1,29.3-1,58.2-24.7,64.7l-2.6,0.7
	c-23.7,6.5-51.1-12-61.2-41.3l-1.1-3.2C321.4,480.7,332.5,451.7,356.2,445.3z M358,442.4c24.7-6.7,53.2,12.5,63.7,43l1.1,3.2
	c10.5,30.5-1,60.6-25.7,67.4l-2.6,0.7c-24.7,6.7-53.2-12.5-63.7-43l-1.1-3.2c-10.5-30.5,1-60.6,25.7-67.4L358,442.4z"/>
<linearGradient id="SVGID_6_" gradientUnits="userSpaceOnUse" x1="403.9887" y1="280.6769" x2="382.5607" y2="220.271" gradientTransform="matrix(1 0 0 -1 0 702)">
	<stop  offset="0" style="stop-color:#FFFFFF;stop-opacity:0.94"/>
	<stop  offset="1" style="stop-color:#FFFFFF;stop-opacity:0.26"/>
</linearGradient>
<path class="st7" d="M356.2,445.3l2.6-0.7c23.7-6.5,51.1,12,61.2,41.3l1.1,3.2c10.1,29.3-1,58.2-24.7,64.7l-2.6,0.7
	c-23.7,6.5-51.1-12-61.2-41.3l-1.1-3.2C321.4,480.7,332.5,451.7,356.2,445.3z M358,442.4c24.7-6.7,53.2,12.5,63.7,43l1.1,3.2
	c10.5,30.5-1,60.6-25.7,67.4l-2.6,0.7c-24.7,6.7-53.2-12.5-63.7-43l-1.1-3.2c-10.5-30.5,1-60.6,25.7-67.4L358,442.4z"/>
<linearGradient id="SVGID_7_" gradientUnits="userSpaceOnUse" x1="479.8727" y1="504.7068" x2="603.7587" y2="229.0869" gradientTransform="matrix(1 0 0 -1 0 702)">
	<stop  offset="0" style="stop-color:#AAAAAA"/>
	<stop  offset="0.1563" style="stop-color:#47484A"/>
	<stop  offset="0.3646" style="stop-color:#2A2B2E"/>
	<stop  offset="0.8338" style="stop-color:#777777"/>
	<stop  offset="0.9168" style="stop-color:#3E3E43"/>
	<stop  offset="1" style="stop-color:#28292B"/>
</linearGradient>
<path class="st8" d="M429.3,382.7c-29.7-77.8-5.1-163.2,54.9-190.8c6.2-2.9,12.5-5,18.9-6.4c12.4-2.8,40.3-8.8,52.1-7.2
	c43.6,7.6,76.2,50.7,96.9,104.8c29.7,77.8-43,191-54.4,194.1c-11.3,3.1-26.3,3.6-36.7,4.6C508.7,486.5,454.1,447.5,429.3,382.7z"/>
<linearGradient id="SVGID_8_" gradientUnits="userSpaceOnUse" x1="506.4291" y1="510.7839" x2="632.1133" y2="237.5973" gradientTransform="matrix(1 0 0 -1 0 702)">
	<stop  offset="0" style="stop-color:#292728"/>
	<stop  offset="0.625" style="stop-color:#434142"/>
	<stop  offset="1" style="stop-color:#8A8A8A"/>
</linearGradient>
<path class="st9" d="M459.1,373.9c-28.9-75.6-5-158.6,53.3-185.4l6-2.8c58.3-26.8,129.1,12.7,157.9,88.2l3,7.8
	c28.9,75.6,5,158.6-53.3,185.4l-6,2.8c-58.3,26.8-129.1-12.7-157.9-88.2L459.1,373.9z"/>
<linearGradient id="SVGID_9_" gradientUnits="userSpaceOnUse" x1="611.2097" y1="539.9388" x2="527.5676" y2="207.7568" gradientTransform="matrix(1 0 0 -1 0 702)">
	<stop  offset="0.6705" style="stop-color:#8C8C8C"/>
	<stop  offset="0.9258" style="stop-color:#1C1D20"/>
	<stop  offset="1" style="stop-color:#434244"/>
</linearGradient>
<path class="st10" d="M522.5,196.4l-5.8,2.7c-54,24.8-76,101.6-49.3,171.5l2.9,7.5c26.7,69.9,92.1,106.5,146.1,81.7l5.8-2.7
	c54-24.8,76-101.6,49.3-171.5l-2.9-7.5C641.8,208.2,576.4,171.6,522.5,196.4z M514.6,193.8c-56.2,25.9-79.2,105.9-51.4,178.7
	l2.9,7.5c27.8,72.8,96,110.9,152.2,85.1l5.8-2.7c56.2-25.9,79.2-105.9,51.4-178.7l-2.9-7.5c-27.8-72.8-96-110.9-152.2-85.1
	L514.6,193.8z"/>
<linearGradient id="SVGID_10_" gradientUnits="userSpaceOnUse" x1="505.2868" y1="519.7798" x2="629.5378" y2="237.0609" gradientTransform="matrix(1 0 0 -1 0 702)">
	<stop  offset="0.6705" style="stop-color:#8C8C8C"/>
	<stop  offset="0.9258" style="stop-color:#1C1D20"/>
	<stop  offset="1" style="stop-color:#434244"/>
</linearGradient>
<path class="st11" d="M520.6,191.1l-6,2.8c-56,25.8-78.9,105.5-51.2,178l3,7.8c27.7,72.6,95.6,110.5,151.6,84.7l6-2.8
	c56-25.8,78.9-105.5,51.2-178l-3-7.8C644.5,203.3,576.6,165.4,520.6,191.1z M512.5,188.4c-58.3,26.8-82.2,109.9-53.3,185.4l3,7.8
	C491,457.3,561.7,496.8,620,470l6-2.8c58.3-26.8,82.2-109.9,53.3-185.4l-3-7.8c-28.9-75.6-99.6-115.1-157.9-88.2L512.5,188.4z"/>
<linearGradient id="SVGID_11_" gradientUnits="userSpaceOnUse" x1="390.0414" y1="479.9377" x2="528.5563" y2="398.2127" gradientTransform="matrix(1 0 0 -1 0 702)">
	<stop  offset="0" style="stop-color:#FFFFFF;stop-opacity:0.94"/>
	<stop  offset="1" style="stop-color:#FFFFFF;stop-opacity:0.26"/>
</linearGradient>
<path class="st12" d="M520.6,191.1l-6,2.8c-56,25.8-78.9,105.5-51.2,178l3,7.8c27.7,72.6,95.6,110.5,151.6,84.7l6-2.8
	c56-25.8,78.9-105.5,51.2-178l-3-7.8C644.5,203.3,576.6,165.4,520.6,191.1z M512.5,188.4c-58.3,26.8-82.2,109.9-53.3,185.4l3,7.8
	C491,457.3,561.7,496.8,620,470l6-2.8c58.3-26.8,82.2-109.9,53.3-185.4l-3-7.8c-28.9-75.6-99.6-115.1-157.9-88.2L512.5,188.4z"/>
<g>
	
		<linearGradient id="SVGID_12_" gradientUnits="userSpaceOnUse" x1="-1003.2274" y1="666.1917" x2="-1074.2467" y2="667.7964" gradientTransform="matrix(-1 0 0 -1 -751 1009)">
		<stop  offset="0" style="stop-color:#1CBA6E"/>
		<stop  offset="1" style="stop-color:#26A862"/>
	</linearGradient>
	<path class="st13" d="M307,307h-38c-8.8,0-16,7.2-16,16v38c0,8.8,7.2,16,16,16h38c8.8,0,16-7.2,16-16v-38
		C323,314.2,315.8,307,307,307z"/>
</g>
<g>
	<defs>
		<rect id="SVGID_13_" x="268" y="322" width="40" height="40"/>
	</defs>
	<clipPath id="SVGID_14_">
		<use xlink:href="#SVGID_13_"  style="overflow:visible;"/>
	</clipPath>
	<g class="st14">
		<path class="st2" d="M270,335.2c0.4-4,1.3-6.7,1.3-6.8c0.1-0.3,0.4-0.5,0.7-0.4c2.8,0.6,6.2-0.4,6.8-5c0-0.3,0.2-0.5,0.5-0.5
			c0,0,3.4-0.4,8.7-0.4c1.1,0,3.3,0,4.3,0.1c0.3,0-0.1,0.1-0.1,0.5c0,0.3,0.4,0.7,0,0.7c-3.2-0.2-11.4,0.1-12.4,0.3
			c-0.4,2.2-1.4,3.8-2.8,4.8c-1.8,1.2-3.8,1-4.8,0.9c-3.7,13,0.4,26.7,15.7,31.6c2.5-0.9,6.8-3.3,8.7-4.6c0.7-0.4,1.3,0.5,0.6,1
			c-2.1,1.3-6.5,3.9-9.2,4.8c-0.1,0-0.3,0-0.4,0C274.6,357.8,268.7,347,270,335.2z"/>
		<path class="st2" d="M296.8,356.2c8.4-6.3,9.7-18.2,7-27c-1,0.1-3,0.3-4.8-0.9c-1.5-1-2.4-2.6-2.8-4.8c-0.4,0-2.9-0.2-3.9-0.3
			c-0.3,0,0-0.4,0-0.7c0-0.3-0.2-0.5,0.1-0.5c1.7,0.1,4.4,0.4,4.4,0.4c0.3,0,0.5,0.2,0.5,0.5c0.3,2.1,1.1,3.6,2.4,4.4
			c1.9,1.3,4.4,0.6,4.4,0.6c0.3-0.1,0.6,0.1,0.7,0.4c2.8,8.7,2.2,21.6-7.2,28.8c-0.1,0.1-0.2,0.1-0.4,0.1c-0.2,0-0.3-0.1-0.5-0.2
			C296.5,356.8,296.5,356.4,296.8,356.2z"/>
		<path class="st2" d="M301.6,336.5c0.3,0,0.6,0.2,0.6,0.6c0.4,9.9-4.3,17.1-14,20.7c-0.1,0.1-0.3,0.1-0.4,0
			c-9.3-3.5-14-10.2-14-19.7c0-0.3,0.3-0.6,0.6-0.6h0c0.3,0,0.6,0.3,0.6,0.6c0,8.9,4.4,15.1,13.1,18.5c9.1-3.5,13.4-10.2,13.1-19.5
			C301.1,336.8,301.3,336.5,301.6,336.5z"/>
		<path class="st2" d="M274.3,332.4c0-0.2,0.3-0.4,0.5-0.5c3.1-0.5,5.5-2,7.1-5.5c0.1-0.2,0.3-0.3,0.5-0.4c3.6-0.2,7.7-0.2,11.3,0
			c0.2,0,0.4,0.2,0.5,0.4c1.5,3.5,3.9,5,7,5.5c0.3,0,0.5,0.2,0.5,0.5c0.1,0.7,0.4,3.9,0.5,4.6c0,0.3-0.2,0.6-0.5,0.7
			c-0.3,0-0.6-0.2-0.7-0.5c-0.1-0.6-0.3-3.6-0.4-4.1c-3.2-0.6-5.7-2.2-7.4-5.8c-3.3-0.2-7.1-0.2-10.4,0c-1,2.3-2.5,3.6-3.6,4.3
			c-1.1,0.7-2.4,1.2-3.8,1.5c-0.2,0.9-0.4,4.3-0.5,5.1c0,0.3-0.3,0.5-0.6,0.5c0,0,0,0-0.1,0c-0.3,0-0.6-0.3-0.5-0.6
			C273.9,337,274.1,333.4,274.3,332.4z"/>
		<path class="st2" d="M294.3,336.4c0-1.2,1-2.1,2.1-2.1c2.5,0.1,3,3.5,0.6,4.2v3.7c0,0.2-0.1,0.3-0.2,0.4l-2.8,2.6
			c-0.2,0.2-0.6,0.2-0.8,0c-0.2-0.2-0.2-0.6,0-0.8l2.6-2.4v-3.5C295,338.2,294.3,337.4,294.3,336.4z M296.4,337.4c0.5,0,1-0.4,1-1
			c-0.1-1.3-1.9-1.3-2,0C295.5,337,295.9,337.4,296.4,337.4z"/>
		<path class="st2" d="M294.1,348.6c0.2,0.2,0.2,0.6,0,0.8c-0.2,0.2-0.6,0.2-0.8,0l-2.7-2.7c-0.1-0.1-0.2-0.3-0.2-0.4v-11.4
			c0-0.2,0.1-0.3,0.2-0.4l2.7-2.7c0.2-0.2,0.6-0.2,0.8,0s0.2,0.6,0,0.8l-2.5,2.5V346L294.1,348.6z"/>
		<path class="st2" d="M282.7,344.4c0.2,0.2,0.2,0.6,0,0.8c-0.2,0.2-0.6,0.2-0.8,0l-2.8-2.6c-0.1-0.1-0.2-0.3-0.2-0.4v-3.7
			c-0.9-0.3-1.6-1.1-1.6-2.1c0.1-2.9,4.2-2.8,4.3,0c0,1-0.7,1.8-1.6,2.1v3.5L282.7,344.4z M280.6,336.4c0-0.5-0.4-1-1-1
			c-1.3,0.1-1.3,1.9,0,2C280.1,337.4,280.6,337,280.6,336.4z"/>
		<path class="st2" d="M282.8,331.8l2.7,2.7c0.1,0.1,0.2,0.3,0.2,0.4v11.4c0,0.2-0.1,0.3-0.2,0.4l-2.7,2.7c-0.2,0.2-0.6,0.2-0.8,0
			c-0.2-0.2-0.2-0.6,0-0.8l2.5-2.5v-10.9l-2.5-2.5c-0.2-0.2-0.2-0.6,0-0.8C282.2,331.5,282.5,331.5,282.8,331.8z"/>
		<path class="st2" d="M288,337c-0.3,0-0.6-0.3-0.6-0.6v-6.4c0-0.8,1.1-0.8,1.2,0v6.4C288.6,336.8,288.3,337,288,337z"/>
		<path class="st2" d="M290.2,351.6c0,1.2-1,2.1-2.1,2.1c-2.5-0.1-3-3.5-0.6-4.2v-2.3c0-0.8,1.1-0.8,1.2,0v2.3
			C289.5,349.8,290.2,350.7,290.2,351.6z M288,350.7c-0.5,0-1,0.4-1,1c0.1,1.3,1.9,1.3,2,0C289,351.1,288.6,350.7,288,350.7z"/>
		<path class="st2" d="M288,342.5c-0.3,0-0.6-0.3-0.6-0.6c0-0.8,1.1-0.8,1.2,0C288.6,342.2,288.3,342.5,288,342.5z"/>
		<path class="st2" d="M288,339.7c-0.3,0-0.6-0.3-0.6-0.6c0-0.8,1.1-0.8,1.2,0C288.6,339.5,288.3,339.7,288,339.7z"/>
		<path class="st2" d="M288,344c0.3,0,0.6,0.3,0.6,0.6c0,0.8-1.1,0.8-1.2,0C287.4,344.3,287.7,344,288,344z"/>
	</g>
</g>
<g>
	<path class="st2" d="M712,140h-38c-8.8,0-16,7.2-16,16v38c0,8.8,7.2,16,16,16h38c8.8,0,16-7.2,16-16v-38
		C728,147.2,720.8,140,712,140z"/>
</g>
<g>
	<defs>
		<rect id="SVGID_15_" x="673" y="155" width="40" height="40"/>
	</defs>
	<clipPath id="SVGID_16_">
		<use xlink:href="#SVGID_15_"  style="overflow:visible;"/>
	</clipPath>
	<g class="st15">
		<path class="st16" d="M686.1,178.5c-0.3,0-0.6-0.3-0.6-0.6v-7.4c0-0.2,0.2-0.5,0.4-0.5l6.9-2.6c0.1-0.1,0.3-0.1,0.4,0l6.9,2.6
			c0.2,0.1,0.4,0.3,0.4,0.5v1.9c0,0.3-0.3,0.6-0.6,0.6c-0.3,0-0.6-0.3-0.6-0.6v-1l-5.8,2.2v7.7l5.8-2.2v-6.6c0-0.3,0.3-0.6,0.6-0.6
			c0.3,0,0.6,0.3,0.6,0.6v7c0,0.2-0.2,0.5-0.4,0.5l-6.9,2.6l0,0c-0.1,0-0.1,0-0.2,0c-0.1,0-0.1,0-0.2,0l-6.9-2.6
			c-0.2-0.1-0.4-0.3-0.4-0.5v-2c0-0.3,0.3-0.6,0.6-0.6c0.3,0,0.6,0.3,0.6,0.6v1.6l5.8,2.2v-7.7l-5.8-2.2v6.5
			C686.6,178.2,686.4,178.5,686.1,178.5z M693,172.5l5.3-2l-5.3-2l-5.3,2L693,172.5z"/>
		<path class="st16" d="M693.6,160.8v4.2c0,0.3-0.3,0.6-0.6,0.6s-0.6-0.3-0.6-0.6v-4.2c-1.3-0.3-2.4-1.5-2.4-2.9c0-1.6,1.3-3,3-3
			s3,1.3,3,3C696,159.4,694.9,160.6,693.6,160.8z M693,156.2c-1,0-1.8,0.8-1.8,1.8c0,1,0.8,1.8,1.8,1.8s1.8-0.8,1.8-1.8
			C694.8,157,694,156.2,693,156.2z"/>
		<path class="st16" d="M681.7,182.2c0.9,0,1.7,0.3,2.4,0.8l1.4-1.4c0.2-0.2,0.6-0.2,0.8,0c0.2,0.2,0.2,0.6,0,0.8l-1.4,1.4
			c0.5,0.7,0.8,1.5,0.8,2.4c0,2.2-1.8,4.1-4.1,4.1c-2.2,0-4.1-1.8-4.1-4.1C677.7,184,679.5,182.2,681.7,182.2z M681.7,189.2
			c1.6,0,2.9-1.3,2.9-2.9c0-1.6-1.3-2.9-2.9-2.9c-1.6,0-2.9,1.3-2.9,2.9C678.8,187.9,680.1,189.2,681.7,189.2z"/>
		<path class="st16" d="M704.3,167.8c-0.9,0-1.7-0.3-2.4-0.8l-1.4,1.4c-0.1,0.1-0.3,0.2-0.4,0.2s-0.3-0.1-0.4-0.2
			c-0.2-0.2-0.2-0.6,0-0.8l1.4-1.4c-0.5-0.7-0.8-1.5-0.8-2.4c0-2.2,1.8-4.1,4.1-4.1c2.2,0,4.1,1.8,4.1,4.1
			C708.3,166,706.5,167.8,704.3,167.8z M704.3,160.8c-1.6,0-2.9,1.3-2.9,2.9c0,1.6,1.3,2.9,2.9,2.9c1.6,0,2.9-1.3,2.9-2.9
			C707.2,162.1,705.9,160.8,704.3,160.8z"/>
		<path class="st16" d="M692.4,189.2v-4.2c0-0.3,0.3-0.6,0.6-0.6s0.6,0.3,0.6,0.6v4.2c1.3,0.3,2.4,1.5,2.4,2.9c0,1.6-1.3,3-3,3
			s-3-1.3-3-3C690,190.6,691.1,189.4,692.4,189.2z M693,193.8c1,0,1.8-0.8,1.8-1.8c0-1-0.8-1.8-1.8-1.8s-1.8,0.8-1.8,1.8
			C691.2,193,692,193.8,693,193.8z"/>
		<path class="st16" d="M676,172c1.4,0,2.6,1,2.9,2.4h4.2c0.3,0,0.6,0.3,0.6,0.6s-0.3,0.6-0.6,0.6h-4.2c-0.3,1.3-1.5,2.4-2.9,2.4
			c-1.6,0-3-1.3-3-3S674.3,172,676,172z M676,176.8c1,0,1.8-0.8,1.8-1.8s-0.8-1.8-1.8-1.8c-1,0-1.8,0.8-1.8,1.8S675,176.8,676,176.8
			z"/>
		<path class="st16" d="M707.2,175.6h-4.2c-0.3,0-0.6-0.3-0.6-0.6s0.3-0.6,0.6-0.6h4.2c0.3-1.3,1.5-2.4,2.9-2.4c1.6,0,3,1.3,3,3
			s-1.3,3-3,3C708.6,178,707.4,176.9,707.2,175.6z M710,176.8c1,0,1.8-0.8,1.8-1.8s-0.8-1.8-1.8-1.8c-1,0-1.8,0.8-1.8,1.8
			S709.1,176.8,710,176.8z"/>
		<path class="st16" d="M686,168.6c-0.2,0-0.3-0.1-0.4-0.2l-1.4-1.4c-0.7,0.5-1.5,0.8-2.4,0.8c-2.2,0-4.1-1.8-4.1-4.1
			c0-2.2,1.8-4.1,4.1-4.1c2.2,0,4.1,1.8,4.1,4.1c0,0.9-0.3,1.7-0.8,2.4l1.4,1.4c0.2,0.2,0.2,0.6,0,0.8
			C686.3,168.5,686.1,168.6,686,168.6z M681.7,160.8c-1.6,0-2.9,1.3-2.9,2.9c0,1.6,1.3,2.9,2.9,2.9c1.6,0,2.9-1.3,2.9-2.9
			C684.6,162.1,683.3,160.8,681.7,160.8z"/>
		<path class="st16" d="M700.4,181.6l1.4,1.4c0.7-0.5,1.5-0.8,2.4-0.8c2.2,0,4.1,1.8,4.1,4.1c0,2.2-1.8,4.1-4.1,4.1
			c-2.2,0-4.1-1.8-4.1-4.1c0-0.9,0.3-1.7,0.8-2.4l-1.4-1.4c-0.2-0.2-0.2-0.6,0-0.8C699.8,181.4,700.2,181.4,700.4,181.6z
			 M704.3,189.2c1.6,0,2.9-1.3,2.9-2.9c0-1.6-1.3-2.9-2.9-2.9c-1.6,0-2.9,1.3-2.9,2.9C701.4,187.9,702.7,189.2,704.3,189.2z"/>
	</g>
</g>
<linearGradient id="SVGID_17_" gradientUnits="userSpaceOnUse" x1="330.2799" y1="614.9996" x2="293.4609" y2="459.0008" gradientTransform="matrix(1 0 0 -1 0 702)">
	<stop  offset="0" style="stop-color:#AAAAAA"/>
	<stop  offset="0.1563" style="stop-color:#47484A"/>
	<stop  offset="0.3646" style="stop-color:#2A2B2E"/>
	<stop  offset="0.8338" style="stop-color:#777777"/>
	<stop  offset="0.9168" style="stop-color:#3E3E43"/>
	<stop  offset="1" style="stop-color:#28292B"/>
</linearGradient>
<path class="st17" d="M249.2,148.7c12.6-42.3,50.5-70.3,84.7-62.6c3.5,0.8,6.9,1.9,10,3.4c6.1,2.8,19.8,9.3,24.2,13.7
	c15.9,17.3,15.7,45.9,7,75.4c-12.6,42.3-79.8,66.5-85.5,64.1c-5.8-2.4-12.2-6.9-16.9-9.9C249.1,218.1,238.6,184,249.2,148.7z"/>
<linearGradient id="SVGID_18_" gradientUnits="userSpaceOnUse" x1="343.4196" y1="608.9852" x2="308.1435" y2="453.43" gradientTransform="matrix(1 0 0 -1 0 702)">
	<stop  offset="0" style="stop-color:#292728"/>
	<stop  offset="0.625" style="stop-color:#434142"/>
	<stop  offset="1" style="stop-color:#8A8A8A"/>
</linearGradient>
<path class="st18" d="M264.5,154.6c12.2-41.1,49.1-68.4,82.3-60.8l3.4,0.8c33.2,7.5,50.2,47,38,88.1L387,187
	c-12.2,41.1-49.1,68.4-82.3,60.8l-3.4-0.8c-33.2-7.5-50.2-47-38-88.1L264.5,154.6z"/>
<linearGradient id="SVGID_19_" gradientUnits="userSpaceOnUse" x1="396.9321" y1="587.4363" x2="254.5061" y2="474.6143" gradientTransform="matrix(1 0 0 -1 0 702)">
	<stop  offset="0.6705" style="stop-color:#8C8C8C"/>
	<stop  offset="0.9258" style="stop-color:#1C1D20"/>
	<stop  offset="1" style="stop-color:#434244"/>
</linearGradient>
<path class="st19" d="M348.5,100.4l-3.3-0.8c-30.7-7-64.8,18.2-76.1,56.3l-1.2,4.1c-11.3,38.1,4.4,74.5,35.1,81.5l3.3,0.8
	c30.7,7,64.8-18.2,76.1-56.3l1.2-4.1C394.9,143.9,379.2,107.4,348.5,100.4z M346,96.8c-32-7.3-67.5,19-79.3,58.6l-1.2,4.1
	c-11.8,39.6,4.6,77.7,36.6,84.9l3.3,0.8c32,7.3,67.5-19,79.3-58.6l1.2-4.1c11.8-39.6-4.6-77.7-36.6-84.9L346,96.8z"/>
<linearGradient id="SVGID_20_" gradientUnits="userSpaceOnUse" x1="345.8424" y1="613.1407" x2="306.8864" y2="454.0356" gradientTransform="matrix(1 0 0 -1 0 702)">
	<stop  offset="0.6705" style="stop-color:#8C8C8C"/>
	<stop  offset="0.9258" style="stop-color:#1C1D20"/>
	<stop  offset="1" style="stop-color:#434244"/>
</linearGradient>
<path class="st20" d="M349.4,97.6l-3.4-0.8c-31.9-7.2-67.3,18.9-79,58.4l-1.3,4.3c-11.7,39.5,4.6,77.4,36.5,84.6l3.4,0.8
	c31.9,7.2,67.3-18.9,79-58.4l1.3-4.3C397.6,142.7,381.3,104.8,349.4,97.6z M346.9,93.8c-33.2-7.5-70.1,19.7-82.3,60.8l-1.3,4.3
	c-12.2,41.1,4.8,80.6,38,88.1l3.4,0.8c33.2,7.5,70.1-19.7,82.3-60.8l1.3-4.3c12.2-41.1-4.8-80.6-38-88.1L346.9,93.8z"/>
<linearGradient id="SVGID_21_" gradientUnits="userSpaceOnUse" x1="284.4748" y1="633.5692" x2="316.3978" y2="554.4611" gradientTransform="matrix(1 0 0 -1 0 702)">
	<stop  offset="0" style="stop-color:#FFFFFF;stop-opacity:0.94"/>
	<stop  offset="1" style="stop-color:#FFFFFF;stop-opacity:0.26"/>
</linearGradient>
<path class="st21" d="M349.4,97.6l-3.4-0.8c-31.9-7.2-67.3,18.9-79,58.4l-1.3,4.3c-11.7,39.5,4.6,77.4,36.5,84.6l3.4,0.8
	c31.9,7.2,67.3-18.9,79-58.4l1.3-4.3C397.6,142.7,381.3,104.8,349.4,97.6z M346.9,93.8c-33.2-7.5-70.1,19.7-82.3,60.8l-1.3,4.3
	c-12.2,41.1,4.8,80.6,38,88.1l3.4,0.8c33.2,7.5,70.1-19.7,82.3-60.8l1.3-4.3c12.2-41.1-4.8-80.6-38-88.1L346.9,93.8z"/>
</svg>
