<?xml version="1.0" encoding="utf-8"?>
<!-- Generator: Adobe Illustrator 25.0.1, SVG Export Plug-In . SVG Version: 6.00 Build 0)  -->
<svg version="1.1" id="Capa_1" xmlns="http://www.w3.org/2000/svg" xmlns:xlink="http://www.w3.org/1999/xlink" x="0px" y="0px"
	 viewBox="0 0 199 201" style="enable-background:new 0 0 199 201;" xml:space="preserve">
<style type="text/css">
	.st0{fill:url(#SVGID_1_);}
	.st1{fill:url(#SVGID_2_);}
	.st2{fill-rule:evenodd;clip-rule:evenodd;fill:url(#SVGID_3_);}
	.st3{fill-rule:evenodd;clip-rule:evenodd;fill:url(#SVGID_4_);}
	.st4{fill-rule:evenodd;clip-rule:evenodd;fill:url(#SVGID_5_);}
</style>
<linearGradient id="SVGID_1_" gradientUnits="userSpaceOnUse" x1="81.7068" y1="186.3902" x2="86.518" y2="26.177" gradientTransform="matrix(1 0 0 -1 0 202)">
	<stop  offset="0" style="stop-color:#AAAAAA"/>
	<stop  offset="0.1563" style="stop-color:#47484A"/>
	<stop  offset="0.3646" style="stop-color:#2A2B2E"/>
	<stop  offset="0.8338" style="stop-color:#777777"/>
	<stop  offset="0.9168" style="stop-color:#3E3E43"/>
	<stop  offset="1" style="stop-color:#28292B"/>
</linearGradient>
<path class="st0" d="M19.3,96.2c1.2-44.1,30.6-81,65.6-82.4c3.6-0.1,7.1,0.1,10.6,0.7c6.7,1.2,21.6,3.9,27,7
	c19.8,12.6,27.1,40.3,26.2,71c-1.2,44.1-59.8,84.9-66,84.1c-6.2-0.8-13.6-3.5-18.9-5.2C37.2,163.2,18.3,133,19.3,96.2z"/>
<linearGradient id="SVGID_2_" gradientUnits="userSpaceOnUse" x1="95.9563" y1="183.9814" x2="102.1433" y2="24.5966" gradientTransform="matrix(1 0 0 -1 0 202)">
	<stop  offset="0" style="stop-color:#292728"/>
	<stop  offset="0.625" style="stop-color:#434142"/>
	<stop  offset="1" style="stop-color:#8A8A8A"/>
</linearGradient>
<path class="st1" d="M35.7,98c1.2-42.9,29.7-78.7,63.8-80.1l3.5-0.1c34-1.3,60.7,32.4,59.5,75.3l-0.1,4.4
	c-1.2,42.9-29.7,78.7-63.8,80.1l-3.5,0.1c-34,1.3-60.7-32.4-59.5-75.3L35.7,98z"/>
<linearGradient id="SVGID_3_" gradientUnits="userSpaceOnUse" x1="153.224" y1="177.0172" x2="44.851" y2="31.1772" gradientTransform="matrix(1 0 0 -1 0 202)">
	<stop  offset="0.6705" style="stop-color:#8C8C8C"/>
	<stop  offset="0.9258" style="stop-color:#1C1D20"/>
	<stop  offset="1" style="stop-color:#434244"/>
</linearGradient>
<path class="st2" d="M102.8,23.8L99.4,24c-31.5,1.2-57.9,34.4-59,74.1l-0.1,4.3c-1.1,39.7,23.6,70.9,55,69.6l3.4-0.1
	c31.5-1.2,57.9-34.4,59-74.1l0.1-4.3C158.9,53.8,134.2,22.6,102.8,23.8z M99.5,21C66.7,22.2,39.2,56.8,38,98.1l-0.1,4.3
	c-1.1,41.3,24.5,73.8,57.3,72.5l3.4-0.1c32.8-1.3,60.3-35.8,61.4-77.2l0.1-4.3c1.1-41.3-24.5-73.8-57.3-72.5L99.5,21z"/>
<linearGradient id="SVGID_4_" gradientUnits="userSpaceOnUse" x1="97.2214" y1="188.6226" x2="100.772" y2="24.8566" gradientTransform="matrix(1 0 0 -1 0 202)">
	<stop  offset="0.6705" style="stop-color:#8C8C8C"/>
	<stop  offset="0.9258" style="stop-color:#1C1D20"/>
	<stop  offset="1" style="stop-color:#434244"/>
</linearGradient>
<path class="st3" d="M102.9,20.9L99.4,21c-32.7,1.3-60.1,35.7-61.2,76.9l-0.1,4.4c-1.1,41.2,24.5,73.5,57.1,72.3l3.5-0.1
	c32.7-1.3,60.1-35.7,61.2-76.9l0.1-4.4C161.2,51.9,135.6,19.6,102.9,20.9z M99.5,17.9c-34,1.3-62.6,37.2-63.8,80.1l-0.1,4.4
	c-1.2,42.9,25.5,76.6,59.5,75.3l3.5-0.1c34-1.3,62.6-37.2,63.8-80.1l0.1-4.4c1.2-42.9-25.5-76.6-59.5-75.3L99.5,17.9z"/>
<linearGradient id="SVGID_5_" gradientUnits="userSpaceOnUse" x1="32.6577" y1="192.4718" x2="83.9676" y2="124.3215" gradientTransform="matrix(1 0 0 -1 0 202)">
	<stop  offset="0" style="stop-color:#FFFFFF;stop-opacity:0.94"/>
	<stop  offset="1" style="stop-color:#FFFFFF;stop-opacity:0.26"/>
</linearGradient>
<path class="st4" d="M102.9,20.9L99.4,21c-32.7,1.3-60.1,35.7-61.2,76.9l-0.1,4.4c-1.1,41.2,24.5,73.5,57.1,72.3l3.5-0.1
	c32.7-1.3,60.1-35.7,61.2-76.9l0.1-4.4C161.2,51.9,135.6,19.6,102.9,20.9z M99.5,17.9c-34,1.3-62.6,37.2-63.8,80.1l-0.1,4.4
	c-1.2,42.9,25.5,76.6,59.5,75.3l3.5-0.1c34-1.3,62.6-37.2,63.8-80.1l0.1-4.4c1.2-42.9-25.5-76.6-59.5-75.3L99.5,17.9z"/>
</svg>
