<?xml version="1.0" encoding="utf-8"?>
<!-- Generator: Adobe Illustrator 25.0.1, SVG Export Plug-In . SVG Version: 6.00 Build 0)  -->
<svg version="1.1" id="Capa_1" xmlns="http://www.w3.org/2000/svg" xmlns:xlink="http://www.w3.org/1999/xlink" x="0px" y="0px"
	 viewBox="0 0 310 328" style="enable-background:new 0 0 310 328;" xml:space="preserve">
<style type="text/css">
	.st0{fill:url(#SVGID_1_);}
	.st1{fill:url(#SVGID_2_);}
	.st2{fill-rule:evenodd;clip-rule:evenodd;fill:url(#SVGID_3_);}
	.st3{fill-rule:evenodd;clip-rule:evenodd;fill:url(#SVGID_4_);}
	.st4{fill-rule:evenodd;clip-rule:evenodd;fill:url(#SVGID_5_);}
</style>
<linearGradient id="SVGID_1_" gradientUnits="userSpaceOnUse" x1="122.892" y1="321.5016" x2="131.9625" y2="19.4551" gradientTransform="matrix(1 0 0 -1 0 330)">
	<stop  offset="0" style="stop-color:#AAAAAA"/>
	<stop  offset="0.1563" style="stop-color:#47484A"/>
	<stop  offset="0.3646" style="stop-color:#2A2B2E"/>
	<stop  offset="0.8338" style="stop-color:#777777"/>
	<stop  offset="0.9168" style="stop-color:#3E3E43"/>
	<stop  offset="1" style="stop-color:#28292B"/>
</linearGradient>
<path class="st0" d="M5.3,160.5C7.6,77.3,63,7.7,129,5.1c6.8-0.3,13.5,0.2,19.9,1.3c12.6,2.2,40.7,7.3,50.9,13.2
	c37.3,23.7,51.1,76,49.4,133.9c-2.3,83.2-112.8,160-124.5,158.5c-11.6-1.5-25.7-6.7-35.6-9.8C38.9,286.8,3.3,229.8,5.3,160.5z"/>
<linearGradient id="SVGID_2_" gradientUnits="userSpaceOnUse" x1="149.7539" y1="316.9606" x2="161.4169" y2="16.4754" gradientTransform="matrix(1 0 0 -1 0 330)">
	<stop  offset="0" style="stop-color:#292728"/>
	<stop  offset="0.625" style="stop-color:#434142"/>
	<stop  offset="1" style="stop-color:#8A8A8A"/>
</linearGradient>
<path class="st1" d="M36.2,163.7c2.2-80.9,56-148.5,120.2-151l6.6-0.3c64.2-2.5,114.4,61.1,112.2,141.9l-0.2,8.4
	c-2.2,80.9-56,148.5-120.2,151l-6.6,0.3C84,316.5,33.7,253,36,172.1L36.2,163.7z"/>
<linearGradient id="SVGID_3_" gradientUnits="userSpaceOnUse" x1="257.7213" y1="303.8309" x2="53.4066" y2="28.8822" gradientTransform="matrix(1 0 0 -1 0 330)">
	<stop  offset="0.6705" style="stop-color:#8C8C8C"/>
	<stop  offset="0.9258" style="stop-color:#1C1D20"/>
	<stop  offset="1" style="stop-color:#434244"/>
</linearGradient>
<path class="st2" d="M162.6,24l-6.4,0.2C96.8,26.6,47.1,89.1,45,163.9l-0.2,8.1c-2,74.8,44.4,133.6,103.7,131.3l6.4-0.2
	c59.3-2.3,109.1-64.8,111.2-139.6l0.2-8.1C268.4,80.5,221.9,21.7,162.6,24z M156.3,18.6C94.5,21,42.7,86.1,40.6,164.1l-0.2,8.1
	c-2.1,77.9,46.3,139.2,108.1,136.8l6.4-0.2c61.8-2.4,113.7-67.5,115.8-145.5l0.2-8.1C272.9,77.2,224.6,16,162.7,18.4L156.3,18.6z"/>
<linearGradient id="SVGID_4_" gradientUnits="userSpaceOnUse" x1="152.1382" y1="325.7103" x2="158.8322" y2="16.9649" gradientTransform="matrix(1 0 0 -1 0 330)">
	<stop  offset="0.6705" style="stop-color:#8C8C8C"/>
	<stop  offset="0.9258" style="stop-color:#1C1D20"/>
	<stop  offset="1" style="stop-color:#434244"/>
</linearGradient>
<path class="st3" d="M162.9,18.4l-6.6,0.3C94.6,21,43,85.9,40.8,163.6l-0.2,8.4c-2.1,77.6,46.1,138.6,107.7,136.3l6.6-0.3
	c61.6-2.4,113.3-67.3,115.4-144.9l0.2-8.4C272.7,77,224.5,16,162.9,18.4z M156.4,12.8c-64.2,2.5-118,70.1-120.2,151l-0.2,8.4
	C33.7,253,84,316.5,148.1,314l6.6-0.3c64.2-2.5,118-70.1,120.2-151l0.2-8.4C277.4,73.6,227.2,10,163,12.5L156.4,12.8z"/>
<linearGradient id="SVGID_5_" gradientUnits="userSpaceOnUse" x1="30.4173" y1="332.9667" x2="127.1514" y2="204.4844" gradientTransform="matrix(1 0 0 -1 0 330)">
	<stop  offset="0" style="stop-color:#FFFFFF;stop-opacity:0.94"/>
	<stop  offset="1" style="stop-color:#FFFFFF;stop-opacity:0.26"/>
</linearGradient>
<path class="st4" d="M162.9,18.4l-6.6,0.3C94.6,21,43,85.9,40.8,163.6l-0.2,8.4c-2.1,77.6,46.1,138.6,107.7,136.3l6.6-0.3
	c61.6-2.4,113.3-67.3,115.4-144.9l0.2-8.4C272.7,77,224.5,16,162.9,18.4z M156.4,12.8c-64.2,2.5-118,70.1-120.2,151l-0.2,8.4
	C33.7,253,84,316.5,148.1,314l6.6-0.3c64.2-2.5,118-70.1,120.2-151l0.2-8.4C277.4,73.6,227.2,10,163,12.5L156.4,12.8z"/>
</svg>
