<?xml version="1.0" encoding="UTF-8" ?>
<!DOCTYPE svg PUBLIC "-//W3C//DTD SVG 1.1//EN" "http://www.w3.org/Graphics/SVG/1.1/DTD/svg11.dtd">
<svg width="16" height="16" viewBox="0 0 301 301" version="1.1" xmlns="http://www.w3.org/2000/svg">
<g id="#fefefeff">
<path fill="#fefefe" opacity="1.00" d=" M 81.35 97.52 C 87.64 97.35 93.87 98.50 99.94 100.06 C 108.41 102.63 115.81 108.80 119.02 117.16 C 120.35 124.79 120.88 133.48 116.24 140.16 C 109.98 149.85 98.11 154.13 87.03 154.64 C 81.56 154.63 76.11 155.03 70.66 155.32 C 70.81 167.21 70.43 179.12 70.86 191.00 C 70.93 194.82 73.16 198.10 76.73 199.48 C 78.84 199.55 80.96 199.64 83.08 199.72 C 83.77 199.99 85.15 200.54 85.84 200.82 C 85.42 201.40 84.57 202.56 84.15 203.14 C 77.42 203.74 70.71 202.31 63.98 203.24 C 58.92 203.37 53.87 202.95 48.83 202.91 C 43.08 203.79 37.33 202.84 31.58 202.61 L 31.74 200.47 C 33.10 200.23 34.46 200.00 35.83 199.76 C 38.76 199.68 41.97 199.31 44.04 196.97 C 46.12 194.92 46.18 191.72 46.32 188.99 C 46.33 162.99 46.40 136.99 46.28 110.98 C 46.29 107.84 45.67 104.05 42.73 102.30 C 39.39 100.11 35.24 100.60 31.44 100.37 C 31.58 99.68 31.86 98.31 32.00 97.63 C 48.44 97.31 64.90 97.53 81.35 97.52 M 70.67 103.41 C 70.63 118.67 70.71 133.93 70.64 149.19 C 76.21 149.60 82.24 149.14 86.88 145.69 C 91.49 142.61 93.31 136.97 94.14 131.75 C 95.05 124.63 94.60 116.72 90.57 110.56 C 86.21 104.17 77.80 103.12 70.67 103.41 Z" />
<path fill="#fefefe" opacity="1.00" d=" M 128.33 97.50 C 142.71 97.46 157.10 97.49 171.49 97.49 C 174.27 104.00 177.09 110.50 179.82 117.04 C 184.79 128.97 189.86 140.86 195.00 152.72 C 196.78 156.94 198.89 161.06 200.07 165.52 C 200.68 165.49 201.30 165.47 201.92 165.44 C 206.88 151.84 212.96 138.66 218.29 125.20 C 219.74 121.43 221.29 117.69 222.80 113.94 C 225.07 108.45 227.46 103.00 229.66 97.48 C 243.98 97.50 258.31 97.44 272.63 97.52 C 272.62 98.48 272.61 99.45 272.60 100.41 C 268.19 100.21 263.70 100.49 259.87 102.92 C 258.32 106.40 257.69 110.22 257.70 114.01 C 257.67 138.01 257.70 162.01 257.69 186.01 C 257.69 189.22 258.32 192.39 258.61 195.59 C 260.17 197.06 261.89 198.35 263.68 199.52 C 266.60 199.64 269.53 199.75 272.46 199.78 C 272.55 200.73 272.66 201.68 272.76 202.64 C 271.50 202.72 270.25 202.80 269.00 202.89 C 265.68 203.45 262.31 203.30 258.97 203.17 C 252.67 202.06 246.33 203.71 240.01 202.92 C 234.00 203.39 227.97 203.29 221.95 203.23 C 220.46 202.97 218.97 202.74 217.49 202.52 L 217.54 200.56 C 218.14 200.38 219.34 200.02 219.93 199.83 C 223.11 199.82 226.30 199.54 229.26 198.31 C 233.18 194.14 232.25 188.20 232.41 182.98 C 232.36 157.67 232.52 132.37 232.32 107.06 C 228.81 115.01 225.54 123.05 222.21 131.07 C 221.39 132.98 220.61 134.90 219.80 136.81 C 212.66 153.78 205.37 170.70 198.43 187.76 C 195.94 193.14 194.24 198.91 191.02 203.94 C 186.35 195.61 183.10 186.58 179.29 177.85 C 173.29 163.83 167.23 149.85 161.15 135.87 C 159.16 131.21 157.17 126.54 155.24 121.85 C 153.12 116.99 151.00 112.13 148.93 107.24 C 148.91 133.51 148.83 159.79 148.97 186.06 C 148.65 191.24 150.81 197.15 156.16 198.86 C 158.97 200.37 164.22 198.21 164.77 202.62 C 152.61 202.97 140.44 202.65 128.28 202.75 L 128.33 200.47 C 129.20 200.27 130.94 199.88 131.81 199.69 C 132.97 199.60 134.13 199.51 135.30 199.43 C 137.52 198.14 139.90 196.80 141.23 194.51 C 142.90 191.30 143.10 187.58 143.25 184.04 C 143.25 164.04 143.25 144.05 143.25 124.06 C 143.29 117.23 143.55 110.23 141.51 103.63 C 139.77 102.59 138.02 101.56 136.25 100.57 C 133.63 100.52 131.00 100.46 128.38 100.42 C 128.36 99.44 128.34 98.47 128.33 97.50 Z" />
</g>
<g id="#d9251bff">
<path fill="#d9251b" opacity="1.00" d=" M 83.45 16.52 C 104.18 5.80 127.72 0.62 151.02 1.05 C 169.93 0.81 188.96 4.48 206.44 11.69 C 226.27 19.92 244.47 32.19 259.11 47.93 C 275.66 65.53 287.95 87.19 294.32 110.51 C 297.72 123.72 299.51 137.35 299.70 150.98 C 299.01 173.94 294.45 197.22 283.49 217.59 C 269.41 245.62 246.21 269.02 218.21 283.18 C 197.67 294.34 174.16 299.01 150.97 299.70 C 130.64 299.41 110.22 295.71 91.47 287.73 C 69.42 278.01 49.49 263.34 34.35 244.54 C 25.27 233.77 18.41 221.36 12.52 208.63 C -2.19 173.76 -2.89 133.34 10.07 97.83 C 23.36 62.90 49.81 33.00 83.45 16.52 M 81.35 97.52 C 64.90 97.53 48.44 97.31 32.00 97.63 C 31.86 98.31 31.58 99.68 31.44 100.37 C 35.24 100.60 39.39 100.11 42.73 102.30 C 45.67 104.05 46.29 107.84 46.28 110.98 C 46.40 136.99 46.33 162.99 46.32 188.99 C 46.18 191.72 46.12 194.92 44.04 196.97 C 41.97 199.31 38.76 199.68 35.83 199.76 C 34.46 200.00 33.10 200.23 31.74 200.47 L 31.58 202.61 C 37.33 202.84 43.08 203.79 48.83 202.91 C 53.87 202.95 58.92 203.37 63.98 203.24 C 70.71 202.31 77.42 203.74 84.15 203.14 C 84.57 202.56 85.42 201.40 85.84 200.82 C 85.15 200.54 83.77 199.99 83.08 199.72 C 80.96 199.64 78.84 199.55 76.73 199.48 C 73.16 198.10 70.93 194.82 70.86 191.00 C 70.43 179.12 70.81 167.21 70.66 155.32 C 76.11 155.03 81.56 154.63 87.03 154.64 C 98.11 154.13 109.98 149.85 116.24 140.16 C 120.88 133.48 120.35 124.79 119.02 117.16 C 115.81 108.80 108.41 102.63 99.94 100.06 C 93.87 98.50 87.64 97.35 81.35 97.52 M 128.33 97.50 C 128.34 98.47 128.36 99.44 128.38 100.42 C 131.00 100.46 133.63 100.52 136.25 100.57 C 138.02 101.56 139.77 102.59 141.51 103.63 C 143.55 110.23 143.29 117.23 143.25 124.06 C 143.25 144.05 143.25 164.04 143.25 184.04 C 143.10 187.58 142.90 191.30 141.23 194.51 C 139.90 196.80 137.52 198.14 135.30 199.43 C 134.13 199.51 132.97 199.60 131.81 199.69 C 130.94 199.88 129.20 200.27 128.33 200.47 L 128.28 202.75 C 140.44 202.65 152.61 202.97 164.77 202.62 C 164.22 198.21 158.97 200.37 156.16 198.86 C 150.81 197.15 148.65 191.24 148.97 186.06 C 148.83 159.79 148.91 133.51 148.93 107.24 C 151.00 112.13 153.12 116.99 155.24 121.85 C 157.17 126.54 159.16 131.21 161.15 135.87 C 167.23 149.85 173.29 163.83 179.29 177.85 C 183.10 186.58 186.35 195.61 191.02 203.94 C 194.24 198.91 195.94 193.14 198.43 187.76 C 205.37 170.70 212.66 153.78 219.80 136.81 C 220.61 134.90 221.39 132.98 222.21 131.07 C 225.54 123.05 228.81 115.01 232.32 107.06 C 232.52 132.37 232.36 157.67 232.41 182.98 C 232.25 188.20 233.18 194.14 229.26 198.31 C 226.30 199.54 223.11 199.82 219.93 199.83 C 219.34 200.02 218.14 200.38 217.54 200.56 L 217.49 202.52 C 218.97 202.74 220.46 202.97 221.95 203.23 C 227.97 203.29 234.00 203.39 240.01 202.92 C 246.33 203.71 252.67 202.06 258.97 203.17 C 262.31 203.30 265.68 203.45 269.00 202.89 C 270.25 202.80 271.50 202.72 272.76 202.64 C 272.66 201.68 272.55 200.73 272.46 199.78 C 269.53 199.75 266.60 199.64 263.68 199.52 C 261.89 198.35 260.17 197.06 258.61 195.59 C 258.32 192.39 257.69 189.22 257.69 186.01 C 257.70 162.01 257.67 138.01 257.70 114.01 C 257.69 110.22 258.32 106.40 259.87 102.92 C 263.70 100.49 268.19 100.21 272.60 100.41 C 272.61 99.45 272.62 98.48 272.63 97.52 C 258.31 97.44 243.98 97.50 229.66 97.48 C 227.46 103.00 225.07 108.45 222.80 113.94 C 221.29 117.69 219.74 121.43 218.29 125.20 C 212.96 138.66 206.88 151.84 201.92 165.44 C 201.30 165.47 200.68 165.49 200.07 165.52 C 198.89 161.06 196.78 156.94 195.00 152.72 C 189.86 140.86 184.79 128.97 179.82 117.04 C 177.09 110.50 174.27 104.00 171.49 97.49 C 157.10 97.49 142.71 97.46 128.33 97.50 Z" />
<path fill="#d9251b" opacity="1.00" d=" M 70.67 103.41 C 77.80 103.12 86.21 104.17 90.57 110.56 C 94.60 116.72 95.05 124.63 94.14 131.75 C 93.31 136.97 91.49 142.61 86.88 145.69 C 82.24 149.14 76.21 149.60 70.64 149.19 C 70.71 133.93 70.63 118.67 70.67 103.41 Z" />
</g>
</svg>
