<?xml version="1.0" encoding="utf-8"?>
<!-- Generator: Adobe Illustrator 24.0.0, SVG Export Plug-In . SVG Version: 6.00 Build 0)  -->
<svg version="1.1" id="Capa_1" xmlns="http://www.w3.org/2000/svg" xmlns:xlink="http://www.w3.org/1999/xlink" x="0px" y="0px"
	 viewBox="0 0 26 26" enable-background="new 0 0 26 26" xml:space="preserve">
<g>
	<circle fill="#FFFFFF" cx="13" cy="13" r="12"/>
	<path fill="#EAECEF" d="M13,0C5.8,0,0,5.8,0,13s5.8,13,13,13s13-5.8,13-13S20.2,0,13,0z M13,25C6.4,25,1,19.6,1,13S6.4,1,13,1
		s12,5.4,12,12S19.6,25,13,25z"/>
</g>
<g id="_x23_fefefeff">
	<path fill="#FEFEFE" d="M8.4,9.6c0.4,0,0.8,0.1,1.2,0.2c0.6,0.2,1.1,0.6,1.3,1.1c0.1,0.5,0.1,1.1-0.2,1.5c-0.4,0.6-1.2,0.9-1.9,1
		c-0.4,0-0.7,0-1.1,0c0,0.8,0,1.6,0,2.4c0,0.3,0.2,0.5,0.4,0.6c0.1,0,0.3,0,0.4,0c0,0,0.1,0.1,0.2,0.1c0,0-0.1,0.1-0.1,0.2
		c-0.4,0-0.9-0.1-1.3,0c-0.3,0-0.7,0-1,0c-0.4,0.1-0.8,0-1.1,0l0-0.1c0.1,0,0.2,0,0.3,0c0.2,0,0.4,0,0.5-0.2C6,16.1,6,15.9,6,15.7
		c0-1.7,0-3.5,0-5.2c0-0.2,0-0.5-0.2-0.6C5.6,9.8,5.3,9.8,5,9.8c0,0,0-0.1,0-0.2C6.2,9.6,7.3,9.6,8.4,9.6 M7.6,10c0,1,0,2,0,3
		c0.4,0,0.8,0,1.1-0.2c0.3-0.2,0.4-0.6,0.5-0.9c0.1-0.5,0-1-0.2-1.4C8.7,10.1,8.1,10,7.6,10z"/>
	<path fill="#FEFEFE" d="M11.5,9.6c1,0,1.9,0,2.9,0c0.2,0.4,0.4,0.9,0.6,1.3c0.3,0.8,0.7,1.6,1,2.4c0.1,0.3,0.3,0.6,0.3,0.9
		c0,0,0.1,0,0.1,0c0.3-0.9,0.7-1.8,1.1-2.7c0.1-0.3,0.2-0.5,0.3-0.7c0.2-0.4,0.3-0.7,0.5-1.1c1,0,1.9,0,2.9,0c0,0.1,0,0.1,0,0.2
		c-0.3,0-0.6,0-0.8,0.2c-0.1,0.2-0.1,0.5-0.1,0.7c0,1.6,0,3.2,0,4.8c0,0.2,0,0.4,0.1,0.6c0.1,0.1,0.2,0.2,0.3,0.3c0.2,0,0.4,0,0.6,0
		c0,0.1,0,0.1,0,0.2c-0.1,0-0.2,0-0.3,0c-0.2,0-0.4,0-0.7,0c-0.4-0.1-0.8,0-1.3,0c-0.4,0-0.8,0-1.2,0c-0.1,0-0.2,0-0.3,0l0-0.1
		c0,0,0.1,0,0.2,0c0.2,0,0.4,0,0.6-0.1c0.3-0.3,0.2-0.7,0.2-1c0-1.7,0-3.4,0-5.1c-0.2,0.5-0.5,1.1-0.7,1.6c-0.1,0.1-0.1,0.3-0.2,0.4
		c-0.5,1.1-1,2.3-1.4,3.4c-0.2,0.4-0.3,0.7-0.5,1.1c-0.3-0.6-0.5-1.2-0.8-1.7c-0.4-0.9-0.8-1.9-1.2-2.8c-0.1-0.3-0.3-0.6-0.4-0.9
		c-0.1-0.3-0.3-0.6-0.4-1c0,1.7,0,3.5,0,5.2c0,0.3,0.1,0.7,0.5,0.9c0.2,0.1,0.5,0,0.6,0.3c-0.8,0-1.6,0-2.4,0l0-0.2
		c0.1,0,0.2,0,0.2-0.1c0.1,0,0.2,0,0.2,0c0.1-0.1,0.3-0.2,0.4-0.3c0.1-0.2,0.1-0.5,0.1-0.7c0-1.3,0-2.7,0-4c0-0.5,0-0.9-0.1-1.4
		C12.3,10,12.1,9.9,12,9.8c-0.2,0-0.3,0-0.5,0C11.5,9.8,11.5,9.7,11.5,9.6z"/>
</g>
<g id="_x23_d9251bff">
	<path fill="#D9251B" d="M8.5,4.2c1.4-0.7,2.9-1.1,4.5-1c1.3,0,2.5,0.2,3.7,0.7c1.3,0.5,2.5,1.4,3.5,2.4c1.1,1.2,1.9,2.6,2.3,4.2
		c0.2,0.9,0.3,1.8,0.4,2.7c0,1.5-0.3,3.1-1.1,4.4c-0.9,1.9-2.5,3.4-4.3,4.4c-1.4,0.7-2.9,1.1-4.5,1.1c-1.4,0-2.7-0.3-4-0.8
		c-1.5-0.6-2.8-1.6-3.8-2.9c-0.6-0.7-1.1-1.5-1.5-2.4c-1-2.3-1-5-0.2-7.4C4.5,7.3,6.3,5.3,8.5,4.2 M8.4,9.6c-1.1,0-2.2,0-3.3,0
		c0,0,0,0.1,0,0.2c0.3,0,0.5,0,0.8,0.1C6,10.1,6,10.3,6,10.5c0,1.7,0,3.5,0,5.2c0,0.2,0,0.4-0.2,0.5c-0.1,0.2-0.4,0.2-0.5,0.2
		c-0.1,0-0.2,0-0.3,0l0,0.1c0.4,0,0.8,0.1,1.1,0c0.3,0,0.7,0,1,0c0.4-0.1,0.9,0,1.3,0c0,0,0.1-0.1,0.1-0.2c0,0-0.1-0.1-0.2-0.1
		c-0.1,0-0.3,0-0.4,0c-0.2-0.1-0.4-0.3-0.4-0.6c0-0.8,0-1.6,0-2.4c0.4,0,0.7,0,1.1,0c0.7,0,1.5-0.3,1.9-1c0.3-0.4,0.3-1,0.2-1.5
		c-0.2-0.6-0.7-1-1.3-1.1C9.2,9.7,8.8,9.6,8.4,9.6 M11.5,9.6c0,0.1,0,0.1,0,0.2c0.2,0,0.3,0,0.5,0c0.1,0.1,0.2,0.1,0.4,0.2
		c0.1,0.4,0.1,0.9,0.1,1.4c0,1.3,0,2.7,0,4c0,0.2,0,0.5-0.1,0.7c-0.1,0.2-0.2,0.2-0.4,0.3c-0.1,0-0.2,0-0.2,0c-0.1,0-0.2,0-0.2,0.1
		l0,0.2c0.8,0,1.6,0,2.4,0c0-0.3-0.4-0.1-0.6-0.3c-0.4-0.1-0.5-0.5-0.5-0.9c0-1.7,0-3.5,0-5.2c0.1,0.3,0.3,0.6,0.4,1
		c0.1,0.3,0.3,0.6,0.4,0.9c0.4,0.9,0.8,1.9,1.2,2.8c0.3,0.6,0.5,1.2,0.8,1.7c0.2-0.3,0.3-0.7,0.5-1.1c0.5-1.1,0.9-2.3,1.4-3.4
		c0.1-0.1,0.1-0.3,0.2-0.4c0.2-0.5,0.4-1.1,0.7-1.6c0,1.7,0,3.4,0,5.1c0,0.3,0.1,0.7-0.2,1c-0.2,0.1-0.4,0.1-0.6,0.1
		c0,0-0.1,0-0.2,0l0,0.1c0.1,0,0.2,0,0.3,0c0.4,0,0.8,0,1.2,0c0.4,0.1,0.8-0.1,1.3,0c0.2,0,0.4,0,0.7,0c0.1,0,0.2,0,0.3,0
		c0-0.1,0-0.1,0-0.2c-0.2,0-0.4,0-0.6,0c-0.1-0.1-0.2-0.2-0.3-0.3c0-0.2-0.1-0.4-0.1-0.6c0-1.6,0-3.2,0-4.8c0-0.3,0-0.5,0.1-0.7
		c0.3-0.2,0.6-0.2,0.8-0.2c0-0.1,0-0.1,0-0.2c-1,0-1.9,0-2.9,0c-0.1,0.4-0.3,0.7-0.5,1.1c-0.1,0.2-0.2,0.5-0.3,0.7
		c-0.4,0.9-0.8,1.8-1.1,2.7c0,0-0.1,0-0.1,0c-0.1-0.3-0.2-0.6-0.3-0.9c-0.3-0.8-0.7-1.6-1-2.4c-0.2-0.4-0.4-0.9-0.6-1.3
		C13.4,9.6,12.4,9.6,11.5,9.6z"/>
	<path fill="#D9251B" d="M7.6,10c0.5,0,1,0.1,1.3,0.5c0.3,0.4,0.3,0.9,0.2,1.4c-0.1,0.3-0.2,0.7-0.5,0.9c-0.3,0.2-0.7,0.3-1.1,0.2
		C7.7,12.1,7.6,11,7.6,10z"/>
</g>
</svg>
