<?xml version="1.0" encoding="UTF-8" ?>
<!DOCTYPE svg PUBLIC "-//W3C//DTD SVG 1.1//EN" "http://www.w3.org/Graphics/SVG/1.1/DTD/svg11.dtd">
<svg width="16" height="16" viewBox="0 0 512 512" version="1.1" xmlns="http://www.w3.org/2000/svg">
<g id="#ffffffff">
<path fill="#ffffff" opacity="1.00" d=" M 172.10 97.41 C 202.74 97.51 233.39 97.42 264.03 97.46 C 280.57 97.94 297.22 97.66 313.58 100.47 C 330.50 103.28 345.27 114.17 355.06 127.97 C 369.81 147.59 374.60 172.92 374.13 197.00 C 374.54 215.83 371.42 235.03 363.11 252.05 C 355.65 266.71 344.83 280.30 330.00 287.96 C 319.64 293.20 308.01 295.29 296.56 296.45 C 272.90 299.43 249.02 297.72 225.26 298.35 C 224.87 338.87 225.37 379.41 225.02 419.94 C 207.35 420.05 189.68 420.03 172.01 419.95 C 171.85 318.97 171.99 217.98 171.94 117.00 C 172.01 110.47 171.76 103.93 172.10 97.41 M 225.22 152.21 C 225.02 182.50 225.15 212.78 225.15 243.07 C 240.78 243.40 256.43 243.36 272.07 242.92 C 279.51 242.32 287.09 241.81 294.18 239.25 C 300.36 237.04 305.58 232.69 309.60 227.58 C 316.63 218.73 319.23 207.07 318.97 195.96 C 318.74 183.02 313.85 169.69 303.66 161.31 C 295.50 154.37 284.26 153.32 273.99 152.94 C 257.76 151.68 241.47 152.15 225.22 152.21 Z" />
</g>
<g id="#0098deff">
<path fill="#0098de" opacity="1.00" d=" M 240.49 2.62 C 252.32 1.44 264.22 2.15 276.04 3.03 C 315.60 6.30 354.44 18.87 388.17 39.85 C 441.48 72.60 482.07 125.64 499.02 185.94 C 503.94 203.51 507.38 221.58 508.20 239.83 C 509.27 250.28 509.27 260.88 508.29 271.34 C 505.20 328.37 481.82 384.09 443.25 426.23 C 438.63 430.91 434.62 436.21 429.42 440.30 C 389.54 478.66 336.53 502.84 281.53 508.46 C 267.64 509.68 253.60 510.76 239.67 509.29 C 180.72 506.12 123.15 481.22 80.58 440.30 C 75.38 436.21 71.37 430.92 66.75 426.23 C 28.19 384.09 4.78 328.37 1.71 271.33 C 0.14 255.56 1.47 239.69 3.16 224.00 C 9.79 170.96 33.62 120.13 70.70 81.58 C 74.79 76.38 80.08 72.37 84.77 67.75 C 127.11 28.96 183.17 5.63 240.49 2.62 M 172.10 97.41 C 171.76 103.93 172.01 110.47 171.94 117.00 C 171.99 217.98 171.85 318.97 172.01 419.95 C 189.68 420.03 207.35 420.05 225.02 419.94 C 225.37 379.41 224.87 338.87 225.26 298.35 C 249.02 297.72 272.90 299.43 296.56 296.45 C 308.01 295.29 319.64 293.20 330.00 287.96 C 344.83 280.30 355.65 266.71 363.11 252.05 C 371.42 235.03 374.54 215.83 374.13 197.00 C 374.60 172.92 369.81 147.59 355.06 127.97 C 345.27 114.17 330.50 103.28 313.58 100.47 C 297.22 97.66 280.57 97.94 264.03 97.46 C 233.39 97.42 202.74 97.51 172.10 97.41 Z" />
<path fill="#0098de" opacity="1.00" d=" M 225.22 152.21 C 241.47 152.15 257.76 151.68 273.99 152.94 C 284.26 153.32 295.50 154.37 303.66 161.31 C 313.85 169.69 318.74 183.02 318.97 195.96 C 319.23 207.07 316.63 218.73 309.60 227.58 C 305.58 232.69 300.36 237.04 294.18 239.25 C 287.09 241.81 279.51 242.32 272.07 242.92 C 256.43 243.36 240.78 243.40 225.15 243.07 C 225.15 212.78 225.02 182.50 225.22 152.21 Z" />
</g>
</svg>
