<?xml version="1.0" encoding="utf-8"?>
<!-- Generator: Adobe Illustrator 24.0.0, SVG Export Plug-In . SVG Version: 6.00 Build 0)  -->
<svg version="1.1" id="Capa_1" xmlns="http://www.w3.org/2000/svg" xmlns:xlink="http://www.w3.org/1999/xlink" x="0px" y="0px"
	 viewBox="0 0 26 26" enable-background="new 0 0 26 26" xml:space="preserve">
<g>
	<circle fill="#FFFFFF" cx="13" cy="13" r="12"/>
	<path fill="#EAECEF" d="M13,0C5.8,0,0,5.8,0,13s5.8,13,13,13s13-5.8,13-13S20.2,0,13,0z M13,25C6.4,25,1,19.6,1,13S6.4,1,13,1
		s12,5.4,12,12S19.6,25,13,25z"/>
</g>
<g id="_x23_ffffffff">
	<path fill="#FFFFFF" d="M9.7,6.9c1.2,0,2.4,0,3.6,0c0.6,0,1.3,0,1.9,0.1c0.7,0.1,1.2,0.5,1.6,1.1c0.6,0.8,0.8,1.8,0.7,2.7
		c0,0.7-0.1,1.5-0.4,2.2c-0.3,0.6-0.7,1.1-1.3,1.4c-0.4,0.2-0.9,0.3-1.3,0.3c-0.9,0.1-1.9,0-2.8,0.1c0,1.6,0,3.2,0,4.8
		c-0.7,0-1.4,0-2.1,0c0-4,0-7.9,0-11.9C9.7,7.4,9.7,7.2,9.7,6.9 M11.8,9.1c0,1.2,0,2.4,0,3.6c0.6,0,1.2,0,1.8,0c0.3,0,0.6,0,0.9-0.1
		c0.2-0.1,0.4-0.3,0.6-0.5c0.3-0.3,0.4-0.8,0.4-1.2c0-0.5-0.2-1-0.6-1.4c-0.3-0.3-0.8-0.3-1.2-0.3C13.1,9,12.4,9.1,11.8,9.1z"/>
</g>
<g id="_x23_0098deff">
	<path fill="#0098DE" d="M12.4,3.2c0.5,0,0.9,0,1.4,0c1.5,0.1,3.1,0.6,4.4,1.4c2.1,1.3,3.7,3.4,4.3,5.7c0.2,0.7,0.3,1.4,0.4,2.1
		c0,0.4,0,0.8,0,1.2c-0.1,2.2-1,4.4-2.5,6.1c-0.2,0.2-0.3,0.4-0.5,0.6c-1.6,1.5-3.6,2.4-5.8,2.7c-0.5,0-1.1,0.1-1.6,0
		c-2.3-0.1-4.6-1.1-6.2-2.7c-0.2-0.2-0.4-0.4-0.5-0.6C4.1,18.1,3.2,16,3,13.7c-0.1-0.6,0-1.2,0.1-1.9c0.3-2.1,1.2-4.1,2.6-5.6
		c0.2-0.2,0.4-0.4,0.6-0.5C7.9,4.2,10.1,3.3,12.4,3.2 M9.7,6.9c0,0.3,0,0.5,0,0.8c0,4,0,7.9,0,11.9c0.7,0,1.4,0,2.1,0
		c0-1.6,0-3.2,0-4.8c0.9,0,1.9,0,2.8-0.1c0.4,0,0.9-0.1,1.3-0.3c0.6-0.3,1-0.8,1.3-1.4c0.3-0.7,0.4-1.4,0.4-2.2
		c0-0.9-0.2-1.9-0.7-2.7c-0.4-0.5-1-1-1.6-1.1c-0.6-0.1-1.3-0.1-1.9-0.1C12.1,6.9,10.9,6.9,9.7,6.9z"/>
	<path fill="#0098DE" d="M11.8,9.1c0.6,0,1.3,0,1.9,0c0.4,0,0.8,0.1,1.2,0.3c0.4,0.3,0.6,0.9,0.6,1.4c0,0.4-0.1,0.9-0.4,1.2
		c-0.2,0.2-0.4,0.4-0.6,0.5c-0.3,0.1-0.6,0.1-0.9,0.1c-0.6,0-1.2,0-1.8,0C11.8,11.4,11.8,10.2,11.8,9.1z"/>
</g>
</svg>
