<?xml version="1.0" encoding="utf-8"?>
<!-- Generator: Adobe Illustrator 24.0.0, SVG Export Plug-In . SVG Version: 6.00 Build 0)  -->
<svg version="1.1" id="Capa_1" xmlns="http://www.w3.org/2000/svg" xmlns:xlink="http://www.w3.org/1999/xlink" x="0px" y="0px"
	 viewBox="0 0 26 26" enable-background="new 0 0 26 26" xml:space="preserve">
<g>
	<circle fill="#FFFFFF" cx="13" cy="13" r="12"/>
	<path fill="#EAECEF" d="M13,0C5.8,0,0,5.8,0,13s5.8,13,13,13s13-5.8,13-13S20.2,0,13,0z M13,25C6.4,25,1,19.6,1,13S6.4,1,13,1
		s12,5.4,12,12S19.6,25,13,25z"/>
</g>
<path fill="#F8AC4A" d="M22.6,15.5c-1.3,5.3-6.7,8.6-12.1,7.3C5.2,21.5,2,16.1,3.3,10.7S10,2.1,15.4,3.5S23.9,10.2,22.6,15.5
	L22.6,15.5z"/>
<path fill="#FFFFFF" d="M17.3,11.7c0.2-1.3-0.8-2-2.2-2.5l0.4-1.8l-1.1-0.3l-0.4,1.7c-0.3-0.1-0.6-0.1-0.9-0.2l0.4-1.8l-1.1-0.3
	l-0.4,1.8L9.9,7.9L9.6,9.1c0,0,0.8,0.2,0.8,0.2c0.4,0.1,0.5,0.4,0.5,0.6l-1.2,4.9c-0.1,0.1-0.2,0.3-0.5,0.3c0,0-0.8-0.2-0.8-0.2
	l-0.5,1.3l2.2,0.6l-0.5,1.8l1.1,0.3l0.4-1.8c0.3,0.1,0.6,0.2,0.9,0.2L11.6,19l1.1,0.3l0.5-1.8c1.9,0.4,3.3,0.2,3.9-1.5
	c0.5-1.4,0-2.1-1-2.7C16.7,13.2,17.2,12.7,17.3,11.7 M14.8,15.2c-0.3,1.4-2.6,0.6-3.4,0.4l0.6-2.4C12.8,13.4,15.2,13.8,14.8,15.2
	 M15.2,11.7c-0.3,1.2-2.2,0.6-2.8,0.5l0.5-2.2C13.5,10.1,15.5,10.4,15.2,11.7"/>
</svg>
