<?xml version="1.0" encoding="utf-8"?>
<!-- Generator: Adobe Illustrator 24.0.0, SVG Export Plug-In . SVG Version: 6.00 Build 0)  -->
<svg version="1.1" id="Capa_1" xmlns="http://www.w3.org/2000/svg" xmlns:xlink="http://www.w3.org/1999/xlink" x="0px" y="0px"
	 viewBox="0 0 26 26" enable-background="new 0 0 26 26" xml:space="preserve">
<g>
	<circle fill="#FFFFFF" cx="13" cy="13" r="12"/>
	<path fill="#EAECEF" d="M13,0C5.8,0,0,5.8,0,13s5.8,13,13,13s13-5.8,13-13S20.2,0,13,0z M13,25C6.4,25,1,19.6,1,13S6.4,1,13,1
		s12,5.4,12,12S19.6,25,13,25z"/>
</g>
<path fill="#345D9D" d="M22.9,13.1c0,5.5-4.5,10-10,10c-5.5,0-10-4.5-10-10c0-5.5,4.5-10,10-10C18.5,3.2,22.9,7.6,22.9,13.1"/>
<path fill="#FFFFFF" d="M12.4,15.8l0.6-2.4l1.5-0.6l0.4-1.4l0,0l-1.5,0.6l1.1-4.1h-3.1L10,13.1l-1.2,0.4L8.4,15l1.2-0.4l-0.8,3.1H17
	l0.5-2L12.4,15.8"/>
</svg>
