<svg width="16" height="16" viewBox="0 0 1024 1024" version="1.1" xmlns="http://www.w3.org/2000/svg">
												<path fill="#454A75" opacity="1.00" d=" M 497.70 0.00 L 526.26 0.00 C 541.19 1.50 556.26 1.41 571.13 3.64 C 621.31 9.47 670.64 22.70 716.91 43.02 C 780.69 70.90 838.56 112.09 885.98 163.02 C 931.19 211.44 966.87 268.76 990.28 330.74 C 1009.82 382.35 1020.72 437.16 1022.88 492.28 C 1023.15 503.19 1022.93 514.11 1023.00 525.03 C 1020.64 626.57 986.85 727.10 927.40 809.47 C 907.56 837.46 884.42 862.96 859.48 886.48 C 832.50 911.44 802.88 933.60 771.18 952.22 C 690.90 999.79 597.27 1024.36 504.00 1022.74 C 448.66 1021.99 393.47 1011.97 341.30 993.53 C 278.96 971.54 221.16 937.05 171.80 893.12 C 158.77 881.52 146.69 868.92 134.54 856.41 C 120.28 840.24 106.39 823.68 94.12 805.93 C 32.55 719.09 -0.76 612.48 1.00 506.00 C 0.93 470.99 5.36 436.06 12.64 401.85 C 26.70 337.52 53.40 276.00 90.81 221.80 C 132.98 160.50 188.69 108.53 252.83 70.81 C 317.56 32.41 391.01 9.08 465.92 2.24 C 476.48 1.08 487.16 1.26 497.70 0.00 Z"></path>
												<path fill="white" opacity="1.00" d=" M 511.17 111.81 C 512.93 113.18 513.80 115.28 514.90 117.16 C 520.73 126.66 526.34 136.30 532.16 145.81 C 534.53 149.70 536.75 153.69 539.24 157.51 C 540.55 159.60 541.81 161.72 543.11 163.82 C 544.30 165.97 545.69 168.01 546.88 170.17 C 552.70 179.68 558.33 189.31 564.14 198.82 C 565.34 200.97 566.71 203.02 567.92 205.17 C 569.00 206.97 570.05 208.80 571.23 210.55 C 579.47 224.33 587.86 238.02 596.10 251.80 C 606.64 269.54 617.42 287.12 628.07 304.78 C 635.05 316.48 642.06 328.16 649.10 339.82 C 652.73 345.82 656.44 351.78 660.05 357.81 C 667.02 369.49 674.01 381.16 681.06 392.79 C 683.58 397.04 686.10 401.30 688.73 405.48 C 693.17 412.66 697.42 419.95 701.82 427.16 C 705.51 433.40 709.29 439.60 713.03 445.82 C 719.96 457.27 726.68 468.83 733.78 480.17 C 740.77 491.85 747.79 503.51 754.81 515.17 C 755.67 516.67 756.74 518.08 757.18 519.80 C 745.32 526.16 733.94 533.46 722.25 540.15 C 716.58 543.50 710.94 546.90 705.23 550.18 C 696.93 555.25 688.41 559.94 680.16 565.08 C 668.08 571.97 656.18 579.16 644.22 586.25 C 630.17 594.44 616.19 602.80 602.17 611.05 C 596.55 614.49 590.78 617.65 585.17 621.09 C 578.83 624.74 572.53 628.44 566.28 632.24 C 550.98 641.20 535.72 650.24 520.48 659.30 C 517.65 660.79 515.02 662.61 512.26 664.21 C 508.60 663.99 505.88 660.67 502.52 659.29 C 488.78 651.13 475.03 642.99 461.24 634.92 C 455.56 631.55 449.91 628.13 444.18 624.85 C 442.03 623.65 439.99 622.29 437.86 621.10 C 432.22 617.68 426.46 614.48 420.83 611.05 C 418.97 609.96 417.11 608.89 415.35 607.66 C 396.70 597.08 378.46 585.76 359.84 575.11 C 354.18 571.75 348.65 568.14 342.82 565.07 C 328.88 556.62 314.74 548.51 300.75 540.15 C 289.18 533.42 277.75 526.43 266.12 519.80 C 265.71 518.21 267.16 517.09 267.81 515.84 C 285.49 486.21 303.51 456.80 321.18 427.16 C 328.06 415.68 335.00 404.23 341.94 392.79 C 348.98 381.16 355.96 369.50 362.94 357.84 C 366.64 351.85 370.12 345.73 373.90 339.81 C 380.95 328.17 387.92 316.49 394.92 304.83 C 404.25 289.22 413.77 273.76 423.12 258.17 C 424.30 256.02 425.70 253.99 426.88 251.83 C 436.25 236.26 445.62 220.69 455.08 205.17 C 456.28 203.02 457.67 200.98 458.85 198.82 C 464.68 189.32 470.30 179.68 476.12 170.17 C 477.31 168.01 478.69 165.97 479.89 163.81 C 481.19 161.72 482.44 159.59 483.76 157.50 C 486.25 153.69 488.46 149.69 490.85 145.80 C 496.65 136.28 502.29 126.66 508.10 117.14 C 509.12 115.36 510.19 113.61 511.17 111.81 Z M 269.13 570.77 C 268.30 569.40 266.75 568.37 266.68 566.65 C 272.07 569.12 276.84 572.75 282.09 575.49 C 295.78 583.62 309.50 591.70 323.22 599.79 C 341.36 610.63 359.70 621.15 377.78 632.09 C 385.72 636.43 393.33 641.35 401.20 645.81 C 419.35 656.60 437.59 667.26 455.73 678.08 C 461.40 681.48 467.18 684.68 472.83 688.14 C 474.97 689.33 477.02 690.69 479.16 691.90 C 484.89 695.15 490.51 698.59 496.18 701.94 C 501.41 704.93 506.58 708.02 511.74 711.13 C 514.42 708.88 517.65 707.44 520.58 705.54 C 528.42 701.15 536.01 696.32 543.84 691.91 C 545.97 690.69 548.02 689.32 550.18 688.14 C 574.02 673.99 597.98 660.04 621.78 645.82 C 647.81 630.55 673.81 615.21 699.77 599.82 C 707.65 595.37 715.30 590.54 723.19 586.09 C 733.76 579.46 744.91 573.74 755.30 566.85 C 755.61 567.08 756.24 567.54 756.55 567.77 C 753.09 571.35 750.74 575.82 747.68 579.73 C 744.48 584.49 740.90 588.98 737.74 593.77 C 730.45 603.85 723.31 614.02 716.15 624.19 C 714.94 625.64 713.80 627.15 712.84 628.79 C 708.19 635.20 703.66 641.71 699.10 648.18 C 696.42 651.83 693.71 655.48 691.22 659.27 C 689.98 660.69 688.86 662.21 687.89 663.82 C 680.81 674.06 673.35 684.05 666.28 694.29 C 652.37 713.73 638.62 733.27 624.68 752.69 C 610.76 772.40 596.78 792.10 582.73 811.71 C 581.39 813.99 579.72 816.06 578.14 818.19 C 574.87 823.17 571.07 827.79 567.91 832.85 C 565.53 835.87 563.48 839.14 561.12 842.18 C 558.60 845.94 555.91 849.58 553.22 853.22 C 550.53 857.41 547.57 861.44 544.57 865.42 C 541.97 869.48 539.00 873.29 536.21 877.22 C 529.82 886.44 523.24 895.53 516.76 904.69 C 514.67 907.01 513.51 910.05 511.15 912.14 C 503.65 900.11 494.64 889.06 486.82 877.23 C 484.00 873.30 481.03 869.48 478.42 865.41 C 475.43 861.43 472.46 857.42 469.79 853.22 C 467.08 849.59 464.40 845.93 461.88 842.18 C 456.09 834.25 450.50 826.18 444.84 818.16 C 436.45 806.55 428.23 794.82 419.93 783.15 C 412.73 772.97 405.39 762.88 398.29 752.65 C 379.47 726.17 360.53 699.78 341.91 673.17 C 339.51 670.15 337.47 666.88 335.11 663.84 C 334.14 662.21 333.01 660.69 331.80 659.25 C 311.08 629.64 289.99 600.29 269.13 570.77 Z"></path>
											</svg>