<svg width="16" height="16" viewBox="0 0 1243 1243" version="1.1" xmlns="http://www.w3.org/2000/svg">
												<path fill="#2573C2" opacity="1.00" d=" M 614.71 0.00 L 628.02 0.00 C 666.58 0.68 705.15 4.35 742.98 11.97 C 820.46 27.26 894.89 57.69 960.95 100.96 C 1036.38 150.20 1100.90 216.05 1148.61 292.46 C 1192.43 362.46 1222.02 441.33 1234.92 522.90 C 1250.00 617.80 1243.09 716.21 1214.20 807.90 C 1191.42 880.61 1154.91 948.95 1107.39 1008.50 C 1059.87 1068.12 1001.33 1118.94 935.56 1157.52 C 863.21 1200.06 782.11 1227.63 698.81 1237.87 C 605.75 1249.44 510.04 1240.03 421.24 1209.72 C 343.39 1183.35 271.00 1141.10 209.50 1086.57 C 172.46 1053.75 139.33 1016.52 111.08 975.89 C 68.92 915.41 37.67 847.33 19.46 775.88 C 8.06 731.48 1.73 685.79 0.37 639.97 C 0.09 635.08 0.47 630.17 0.00 625.29 L 0.00 617.59 C 0.50 612.06 0.06 606.51 0.44 600.98 C 2.14 547.14 10.84 493.51 26.39 441.93 C 48.60 367.97 84.93 298.31 132.69 237.63 C 174.11 184.95 224.04 138.96 280.04 102.13 C 342.64 60.82 412.83 31.05 486.07 14.84 C 528.28 5.38 571.49 0.72 614.71 0.00 Z"></path>
												<path fill="white" opacity="1.00" d=" M 472.15 349.21 C 551.08 349.30 630.00 349.22 708.93 349.25 C 754.13 349.25 800.33 352.65 842.86 369.13 C 872.32 380.45 899.46 399.46 917.18 425.89 C 934.99 451.77 943.29 483.02 946.02 514.01 C 948.87 546.52 946.19 579.25 941.26 611.43 C 934.85 653.31 924.23 694.81 906.49 733.40 C 890.96 767.31 869.75 798.96 842.21 824.29 C 816.14 848.66 784.22 866.19 750.49 877.47 C 725.53 885.91 699.24 889.64 673.04 891.48 C 645.41 893.56 617.70 892.90 590.02 893.00 C 518.82 893.00 447.63 893.00 376.44 893.00 C 383.19 855.25 389.94 817.50 396.72 779.76 C 440.82 779.82 484.92 779.54 529.00 780.00 C 555.33 780.00 581.66 780.00 607.98 780.00 C 639.94 779.95 672.40 777.30 702.78 766.73 C 717.49 761.57 731.62 754.46 743.95 744.85 C 756.33 735.30 766.78 723.30 774.72 709.84 C 783.22 695.61 789.10 679.97 793.69 664.08 C 798.99 645.31 803.43 626.30 806.88 607.11 C 809.48 591.92 811.74 576.55 811.39 561.11 C 811.02 543.00 807.76 524.39 798.23 508.72 C 789.91 494.86 776.72 484.45 762.11 477.84 C 742.74 469.00 721.44 465.53 700.38 463.83 C 677.29 462.13 654.14 462.94 631.02 462.75 C 598.34 462.75 565.67 462.75 533.00 462.75 C 505.98 462.39 478.95 462.53 451.92 462.50 C 458.58 424.72 465.41 386.97 472.15 349.21 Z"></path>
												<path fill="white" opacity="1.00" d=" M 343.14 566.70 C 356.21 563.72 369.66 564.62 382.95 564.50 C 460.90 564.50 538.86 564.48 616.82 564.51 C 614.02 578.42 610.71 592.23 607.46 606.04 C 603.93 621.07 600.45 636.62 591.56 649.55 C 583.75 661.35 571.41 669.73 557.90 673.63 C 546.62 677.06 534.75 677.86 523.02 677.76 C 441.09 677.74 359.17 677.78 277.24 677.73 C 280.16 663.92 283.32 650.16 286.60 636.43 C 290.43 620.16 294.18 603.09 304.71 589.63 C 313.92 577.33 328.26 569.70 343.14 566.70 Z"></path>
											</svg>