<?xml version="1.0" encoding="utf-8"?>
<!-- Generator: Adobe Illustrator 24.0.0, SVG Export Plug-In . SVG Version: 6.00 Build 0)  -->
<svg version="1.1" id="Capa_1" xmlns="http://www.w3.org/2000/svg" xmlns:xlink="http://www.w3.org/1999/xlink" x="0px" y="0px"
	 viewBox="0 0 26 26" enable-background="new 0 0 26 26" xml:space="preserve">
<g>
	<circle fill="#FFFFFF" cx="13" cy="13" r="12"/>
	<path fill="#EAECEF" d="M13,0C5.8,0,0,5.8,0,13s5.8,13,13,13s13-5.8,13-13S20.2,0,13,0z M13,25C6.4,25,1,19.6,1,13S6.4,1,13,1
		s12,5.4,12,12S19.6,25,13,25z"/>
</g>
<path fill="#2573C2" d="M12.8,3.2h0.2c0.6,0,1.2,0.1,1.8,0.2c1.2,0.2,2.4,0.7,3.5,1.4c1.2,0.8,2.2,1.8,3,3.1
	c0.7,1.1,1.2,2.4,1.4,3.7c0.2,1.5,0.1,3.1-0.3,4.6c-0.4,1.2-0.9,2.3-1.7,3.2c-0.8,1-1.7,1.8-2.8,2.4c-1.2,0.7-2.5,1.1-3.8,1.3
	c-1.5,0.2-3,0-4.4-0.5c-1.2-0.4-2.4-1.1-3.4-2c-0.6-0.5-1.1-1.1-1.6-1.8c-0.7-1-1.2-2.1-1.5-3.2C3.1,14.9,3,14.2,3,13.4
	c0-0.1,0-0.2,0-0.2v-0.1c0-0.1,0-0.2,0-0.3c0-0.9,0.2-1.7,0.4-2.5C3.8,9.1,4.4,8,5.1,7c0.7-0.8,1.5-1.6,2.4-2.2
	c1-0.7,2.1-1.1,3.3-1.4C11.5,3.3,12.2,3.2,12.8,3.2z"/>
<path fill="#FFFFFF" d="M10.6,8.8c1.3,0,2.5,0,3.8,0c0.7,0,1.5,0.1,2.1,0.3c0.5,0.2,0.9,0.5,1.2,0.9c0.3,0.4,0.4,0.9,0.5,1.4
	c0,0.5,0,1-0.1,1.6c-0.1,0.7-0.3,1.3-0.6,2c-0.2,0.5-0.6,1-1,1.5c-0.4,0.4-0.9,0.7-1.5,0.9c-0.4,0.1-0.8,0.2-1.2,0.2
	c-0.4,0-0.9,0-1.3,0c-1.1,0-2.3,0-3.4,0c0.1-0.6,0.2-1.2,0.3-1.8c0.7,0,1.4,0,2.1,0c0.4,0,0.8,0,1.3,0c0.5,0,1,0,1.5-0.2
	c0.2-0.1,0.5-0.2,0.7-0.4c0.2-0.2,0.4-0.3,0.5-0.6c0.1-0.2,0.2-0.5,0.3-0.7c0.1-0.3,0.2-0.6,0.2-0.9c0-0.2,0.1-0.5,0.1-0.7
	c0-0.3-0.1-0.6-0.2-0.8c-0.1-0.2-0.3-0.4-0.6-0.5c-0.3-0.1-0.7-0.2-1-0.2c-0.4,0-0.7,0-1.1,0c-0.5,0-1,0-1.6,0c-0.4,0-0.9,0-1.3,0
	C10.3,10,10.5,9.4,10.6,8.8z"/>
<path fill="#FFFFFF" d="M8.5,12.2c0.2,0,0.4,0,0.6,0c1.2,0,2.5,0,3.7,0c0,0.2-0.1,0.4-0.1,0.7c-0.1,0.2-0.1,0.5-0.3,0.7
	c-0.1,0.2-0.3,0.3-0.5,0.4C11.8,14,11.6,14,11.4,14c-1.3,0-2.6,0-3.9,0c0-0.2,0.1-0.4,0.1-0.7c0.1-0.3,0.1-0.5,0.3-0.7
	C8,12.4,8.3,12.3,8.5,12.2z"/>
</svg>
