<svg width="20" height="12" viewBox="0 0 1471 907" version="1.1" xmlns="http://www.w3.org/2000/svg">
												<path fill="#2DB300" opacity="1.00" d=" M 0.00 0.00 L 413.78 0.00 C 409.93 3.47 405.68 6.43 401.53 9.52 C 387.97 19.47 375.04 30.26 362.58 41.54 C 354.94 47.88 348.34 55.33 341.21 62.22 C 334.82 68.83 327.90 74.96 321.99 82.03 C 291.99 115.07 266.50 152.08 245.27 191.30 C 237.37 206.89 229.37 222.44 222.81 238.66 C 215.64 256.59 208.70 274.66 203.48 293.27 C 198.36 309.75 194.86 326.67 191.30 343.54 C 185.79 372.36 181.90 401.60 181.50 430.95 C 180.14 441.25 180.63 451.67 180.78 462.03 C 182.23 470.74 181.07 479.59 182.30 488.32 C 184.00 515.41 188.10 542.33 193.91 568.84 C 197.54 587.32 202.73 605.49 208.87 623.29 C 232.74 696.30 272.90 763.70 324.38 820.59 C 329.64 826.66 335.64 832.02 341.22 837.79 C 348.00 844.34 354.28 851.45 361.58 857.46 C 374.54 869.25 388.13 880.36 402.17 890.83 C 406.24 893.62 410.20 896.57 413.76 900.00 L 0.00 900.00 L 0.00 0.00 Z M 699.74 0.00 L 758.27 0.00 C 761.76 0.80 765.34 1.07 768.91 1.29 C 821.35 5.70 873.00 19.61 920.46 42.37 C 926.20 44.80 931.86 47.45 937.20 50.68 C 1007.86 87.25 1068.06 143.41 1110.16 210.87 C 1115.79 219.18 1120.10 228.27 1125.13 236.94 C 1134.96 255.16 1143.29 274.17 1150.62 293.53 C 1158.04 312.56 1163.15 332.39 1167.85 352.24 C 1173.56 378.48 1176.74 405.21 1178.18 432.00 C 1178.13 444.00 1178.13 456.00 1178.18 468.00 C 1176.73 493.92 1173.88 519.83 1168.31 545.21 C 1160.02 584.08 1146.43 621.80 1128.20 657.11 C 1123.82 665.12 1119.48 673.16 1115.03 681.13 C 1098.44 707.82 1079.88 733.40 1058.34 756.34 C 1046.22 767.88 1035.22 780.61 1022.23 791.20 C 992.93 816.77 960.14 838.34 925.11 855.23 C 886.04 874.78 843.79 887.62 800.73 894.71 C 791.51 895.95 782.34 897.55 773.05 898.10 C 771.44 898.05 770.31 899.28 769.03 900.00 L 688.96 900.00 C 687.97 899.22 686.91 898.62 685.79 898.21 C 635.46 893.76 585.95 880.36 540.17 859.02 C 523.41 851.71 507.65 842.35 491.92 833.08 C 436.75 798.55 388.90 752.22 353.34 697.65 C 347.74 690.31 343.88 681.88 338.87 674.16 C 333.94 666.40 330.28 657.95 326.08 649.79 C 321.10 640.14 316.71 630.20 312.75 620.09 C 292.52 571.64 281.79 519.40 279.82 466.99 C 279.99 453.98 279.72 440.97 279.93 427.96 C 280.65 421.23 280.83 414.45 281.47 407.72 C 285.51 363.33 296.02 319.49 313.17 278.33 C 325.26 249.13 340.11 221.06 358.00 194.99 C 373.80 172.51 390.96 150.86 410.70 131.69 C 416.30 126.28 421.44 120.37 427.50 115.45 C 467.36 79.33 513.79 50.49 563.78 30.63 C 603.51 14.91 645.57 5.20 688.10 1.25 C 691.99 1.05 695.93 0.94 699.74 0.00 Z  M 1044.17 0.00 L 1460.00 0.00 L 1460.00 900.00 L 1043.25 900.00 C 1048.30 895.00 1054.56 891.52 1060.03 887.04 C 1074.70 875.83 1088.74 863.81 1102.32 851.31 C 1108.62 844.95 1114.97 838.63 1121.29 832.30 C 1133.89 820.16 1145.11 806.69 1156.16 793.15 C 1181.26 761.82 1202.88 727.72 1220.78 691.79 C 1229.71 674.13 1237.08 655.71 1244.04 637.19 C 1251.51 616.05 1258.55 594.68 1262.89 572.65 C 1265.73 561.67 1267.58 550.48 1269.58 539.34 C 1273.27 515.41 1276.28 491.27 1276.50 467.05 C 1277.95 455.10 1277.65 442.99 1276.40 431.05 C 1276.65 420.60 1275.44 410.22 1274.62 399.83 C 1272.44 375.97 1268.73 352.24 1263.35 328.88 C 1250.76 270.50 1227.36 214.66 1196.32 163.72 C 1175.73 130.53 1152.15 99.10 1124.92 71.06 C 1117.16 61.17 1107.01 53.66 1098.29 44.71 C 1085.64 33.27 1072.53 22.34 1058.94 12.03 C 1054.07 7.95 1048.19 5.04 1044.17 0.00 Z"></path>
												<path fill="white" opacity="1.00" d=" M 670.69 172.92 C 686.56 168.48 702.39 163.67 718.66 160.87 C 726.88 187.27 732.18 214.45 739.79 241.02 C 769.92 238.95 801.34 233.54 830.68 243.39 C 847.44 248.95 862.32 260.49 870.95 276.03 C 885.35 298.80 893.70 328.46 882.39 354.29 C 878.21 367.34 868.21 377.03 860.22 387.72 C 879.40 389.62 899.51 392.20 916.01 402.99 C 929.74 411.24 939.53 424.59 945.96 439.03 C 953.78 456.90 957.93 476.43 957.78 495.95 C 956.28 526.00 942.00 555.53 917.98 573.98 C 893.14 593.29 862.68 602.50 833.84 613.98 C 838.24 641.48 846.60 668.09 853.17 695.09 C 837.25 700.44 820.88 704.47 804.31 707.15 C 796.55 681.25 791.30 654.68 783.83 628.71 C 770.36 628.79 757.62 633.43 744.66 636.39 C 748.42 664.07 758.82 690.34 763.22 717.91 C 747.44 722.56 731.13 725.05 715.39 729.88 C 707.40 703.13 701.43 675.84 694.75 648.76 C 661.20 654.77 628.27 663.80 595.26 672.20 C 592.96 652.06 592.27 631.77 589.95 611.64 C 601.19 607.51 613.23 606.91 624.68 603.66 C 630.56 601.32 637.70 598.15 639.38 591.36 C 642.43 572.15 633.93 554.03 629.24 535.87 C 614.57 477.71 600.48 419.41 585.64 361.31 C 583.22 353.36 577.84 345.47 569.19 343.72 C 550.72 340.28 533.72 349.49 516.18 353.33 C 510.46 336.17 507.53 318.25 501.98 301.05 C 534.95 292.00 568.31 284.48 601.45 276.06 C 596.31 248.75 587.69 222.24 581.69 195.12 C 597.84 190.42 614.31 186.91 630.65 182.92 C 637.30 209.01 643.88 235.12 650.00 261.34 C 662.94 258.84 675.59 255.13 688.30 251.66 C 685.56 224.78 675.07 199.49 670.69 172.92 M 666.85 319.29 C 667.45 323.84 668.07 328.42 669.02 332.93 C 675.60 361.55 682.91 390.00 690.93 418.25 C 714.69 415.51 737.70 407.72 759.01 396.99 C 772.52 389.62 785.88 380.07 793.07 366.05 C 801.25 350.81 795.14 331.83 784.54 319.45 C 774.20 308.35 758.76 303.99 743.99 304.10 C 717.55 304.28 692.07 312.14 666.85 319.29 M 702.75 468.17 C 704.01 476.32 706.66 484.14 708.85 492.07 C 716.63 520.25 722.14 549.01 730.08 577.15 C 762.94 568.04 798.02 562.92 827.38 544.41 C 837.00 539.03 844.66 530.65 850.26 521.25 C 857.89 508.27 859.01 491.84 853.02 478.00 C 845.77 462.09 828.73 452.17 811.69 450.41 C 774.44 447.16 738.15 458.12 702.75 468.17 Z"></path>
											</svg>