<?xml version="1.0" encoding="utf-8"?>
<!-- Generator: Adobe Illustrator 24.0.0, SVG Export Plug-In . SVG Version: 6.00 Build 0)  -->
<svg version="1.1" id="Capa_1" xmlns="http://www.w3.org/2000/svg" xmlns:xlink="http://www.w3.org/1999/xlink" x="0px" y="0px"
	 viewBox="0 0 26 26" enable-background="new 0 0 26 26" xml:space="preserve">
<g>
	<circle fill="#FFFFFF" cx="13" cy="13" r="12"/>
	<path fill="#EAECEF" d="M13,0C5.8,0,0,5.8,0,13s5.8,13,13,13s13-5.8,13-13S20.2,0,13,0z M13,25C6.4,25,1,19.6,1,13S6.4,1,13,1
		s12,5.4,12,12S19.6,25,13,25z"/>
</g>
<path fill="#2DB300" d="M12.3,3.2h1.3c0.1,0,0.2,0,0.2,0c1.2,0.1,2.3,0.4,3.4,0.9c0.1,0.1,0.3,0.1,0.4,0.2c1.6,0.8,2.9,2.1,3.8,3.6
	c0.1,0.2,0.2,0.4,0.3,0.6c0.2,0.4,0.4,0.8,0.6,1.3c0.2,0.4,0.3,0.9,0.4,1.3c0.1,0.6,0.2,1.2,0.2,1.8c0,0.3,0,0.5,0,0.8
	c0,0.6-0.1,1.2-0.2,1.7c-0.2,0.9-0.5,1.7-0.9,2.5c-0.1,0.2-0.2,0.4-0.3,0.5c-0.4,0.6-0.8,1.2-1.3,1.7c-0.3,0.3-0.5,0.5-0.8,0.8
	c-0.7,0.6-1.4,1-2.2,1.4c-0.9,0.4-1.8,0.7-2.8,0.9c-0.2,0-0.4,0.1-0.6,0.1c0,0-0.1,0-0.1,0H12c0,0,0,0-0.1,0
	c-1.1-0.1-2.2-0.4-3.2-0.9c-0.4-0.2-0.7-0.4-1.1-0.6c-1.2-0.8-2.3-1.8-3.1-3c-0.1-0.2-0.2-0.4-0.3-0.5C4.2,18,4.1,17.8,4,17.6
	c-0.1-0.2-0.2-0.4-0.3-0.7c-0.4-1.1-0.7-2.2-0.7-3.4c0-0.3,0-0.6,0-0.9c0-0.1,0-0.3,0-0.4c0.1-1,0.3-2,0.7-2.9
	c0.3-0.6,0.6-1.3,1-1.9C5,7,5.4,6.5,5.9,6.1C6,6,6.1,5.8,6.2,5.7c0.9-0.8,1.9-1.4,3-1.9c0.9-0.3,1.8-0.6,2.8-0.7
	C12.1,3.2,12.2,3.2,12.3,3.2z"/>
<path fill="#FFFFFF" d="M11.6,7c0.4-0.1,0.7-0.2,1.1-0.3c0.2,0.6,0.3,1.2,0.5,1.8c0.7,0,1.4-0.2,2,0.1c0.4,0.1,0.7,0.4,0.9,0.7
	c0.3,0.5,0.5,1.2,0.3,1.7c-0.1,0.3-0.3,0.5-0.5,0.7c0.4,0,0.9,0.1,1.2,0.3c0.3,0.2,0.5,0.5,0.7,0.8c0.2,0.4,0.3,0.8,0.3,1.3
	c0,0.7-0.4,1.3-0.9,1.7c-0.6,0.4-1.2,0.6-1.9,0.9c0.1,0.6,0.3,1.2,0.4,1.8c-0.4,0.1-0.7,0.2-1.1,0.3c-0.2-0.6-0.3-1.2-0.5-1.7
	c-0.3,0-0.6,0.1-0.9,0.2c0.1,0.6,0.3,1.2,0.4,1.8c-0.4,0.1-0.7,0.2-1.1,0.3c-0.2-0.6-0.3-1.2-0.5-1.8c-0.7,0.1-1.5,0.3-2.2,0.5
	c-0.1-0.4-0.1-0.9-0.1-1.3c0.2-0.1,0.5-0.1,0.8-0.2c0.1-0.1,0.3-0.1,0.3-0.3c0.1-0.4-0.1-0.8-0.2-1.2c-0.3-1.3-0.6-2.6-1-3.9
	c-0.1-0.2-0.2-0.4-0.4-0.4C9,10.7,8.6,10.9,8.2,11C8.1,10.6,8,10.2,7.9,9.9c0.7-0.2,1.5-0.4,2.2-0.6C10,8.7,9.8,8.1,9.7,7.5
	c0.4-0.1,0.7-0.2,1.1-0.3C10.9,7.8,11,8.4,11.2,9c0.3-0.1,0.6-0.1,0.9-0.2C12,8.2,11.7,7.6,11.6,7 M11.5,10.3c0,0.1,0,0.2,0,0.3
	c0.1,0.6,0.3,1.3,0.5,1.9c0.5-0.1,1-0.2,1.5-0.5c0.3-0.2,0.6-0.4,0.8-0.7c0.2-0.3,0-0.8-0.2-1c-0.2-0.2-0.6-0.3-0.9-0.3
	C12.7,9.9,12.1,10.1,11.5,10.3 M12.3,13.6c0,0.2,0.1,0.4,0.1,0.5c0.2,0.6,0.3,1.3,0.5,1.9c0.7-0.2,1.5-0.3,2.2-0.7
	c0.2-0.1,0.4-0.3,0.5-0.5c0.2-0.3,0.2-0.7,0.1-1c-0.2-0.4-0.5-0.6-0.9-0.6C13.9,13.1,13.1,13.3,12.3,13.6z"/>
</svg>
