<svg width="16" height="16" viewBox="0 0 602 602" version="1.1" xmlns="http://www.w3.org/2000/svg">
												<path fill="#C2A633" opacity="1.00" d=" M 286.35 1.34 C 329.53 -0.72 373.20 6.45 413.29 22.70 C 484.93 51.40 544.40 108.95 575.40 179.62 C 591.66 216.17 600.23 256.03 600.99 296.00 C 601.56 335.50 594.45 375.14 579.81 411.86 C 556.69 470.29 514.55 520.91 461.45 554.49 C 429.56 574.76 393.77 588.89 356.62 595.79 C 284.00 609.73 206.38 595.50 143.59 556.41 C 89.70 523.26 46.75 472.66 23.00 414.01 C 8.35 378.26 1.03 339.61 0.98 301.00 C 0.95 249.40 14.32 197.80 39.97 152.99 C 69.46 100.90 114.92 58.02 168.66 31.66 C 205.24 13.54 245.60 3.34 286.35 1.34 Z"></path>
												<path fill="white" opacity="1.00" d=" M 204.29 139.07 C 206.18 138.85 208.07 138.67 209.98 138.67 C 232.99 138.77 255.99 138.69 279.00 138.72 C 294.66 138.81 310.36 138.26 325.97 139.86 C 359.95 143.14 394.29 154.79 419.62 178.37 C 438.69 195.71 451.41 219.17 458.14 243.87 C 463.39 263.09 465.64 283.09 465.37 303.00 C 465.77 337.22 459.57 372.72 441.07 402.04 C 426.60 425.27 403.97 442.90 378.43 452.48 C 357.01 460.66 333.87 463.97 311.01 463.15 C 283.67 463.09 256.33 463.15 229.00 463.13 C 220.76 462.94 212.50 463.55 204.29 462.81 C 204.12 424.54 204.28 386.27 204.22 348.00 C 204.04 338.30 204.59 328.59 203.98 318.91 C 191.41 318.17 178.80 318.92 166.22 318.62 C 165.34 312.78 165.90 306.87 165.79 301.00 C 165.90 295.11 165.39 289.20 166.13 283.34 C 178.74 282.95 191.38 283.76 203.97 283.00 C 204.08 281.67 204.17 280.33 204.23 279.01 C 204.25 232.36 204.12 185.71 204.29 139.07 M 265.36 199.10 C 265.30 227.01 265.29 254.94 265.36 282.86 C 266.88 283.05 268.41 283.24 269.96 283.29 C 290.85 283.33 311.75 283.13 332.64 283.36 C 332.78 295.10 332.82 306.86 332.61 318.60 C 314.74 318.68 296.87 318.58 279.00 318.63 C 274.45 318.71 269.86 318.17 265.36 319.06 C 265.30 346.97 265.29 374.89 265.36 402.80 C 278.87 403.69 292.46 402.90 306.00 403.19 C 327.17 403.53 349.18 399.91 367.19 388.18 C 380.66 379.67 390.96 366.61 396.84 351.87 C 404.08 333.92 405.72 314.22 404.67 295.05 C 403.79 278.84 400.41 262.54 393.02 247.99 C 386.77 235.64 377.60 224.72 366.21 216.81 C 347.39 203.46 323.85 197.93 300.99 198.66 C 289.12 198.99 277.18 198.06 265.36 199.10 Z"></path>
											</svg>