<?xml version="1.0" encoding="utf-8"?>
<!-- Generator: Adobe Illustrator 24.0.0, SVG Export Plug-In . SVG Version: 6.00 Build 0)  -->
<svg version="1.1" id="Capa_1" xmlns="http://www.w3.org/2000/svg" xmlns:xlink="http://www.w3.org/1999/xlink" x="0px" y="0px"
	 viewBox="0 0 26 26" enable-background="new 0 0 26 26" xml:space="preserve">
<g>
	<circle fill="#FFFFFF" cx="13" cy="13" r="12"/>
	<path fill="#EAECEF" d="M13,0C5.8,0,0,5.8,0,13s5.8,13,13,13s13-5.8,13-13S20.2,0,13,0z M13,25C6.4,25,1,19.6,1,13S6.4,1,13,1
		s12,5.4,12,12S19.6,25,13,25z"/>
</g>
<path fill="#C2A633" d="M12.4,3.2c1.4-0.1,2.9,0.2,4.3,0.7c2.4,1,4.4,2.9,5.4,5.3c0.5,1.2,0.8,2.6,0.9,3.9c0,1.3-0.2,2.7-0.7,3.9
	c-0.8,2-2.2,3.7-4,4.8c-1.1,0.7-2.3,1.2-3.5,1.4c-2.4,0.5-5,0-7.1-1.3c-1.8-1.1-3.2-2.8-4-4.8c-0.5-1.2-0.7-2.5-0.7-3.8
	c0-1.7,0.4-3.5,1.3-5c1-1.7,2.5-3.2,4.3-4.1C9.7,3.6,11.1,3.3,12.4,3.2z"/>
<path fill="#FFFFFF" d="M9.7,7.8c0.1,0,0.1,0,0.2,0c0.8,0,1.5,0,2.3,0c0.5,0,1.1,0,1.6,0c1.1,0.1,2.3,0.5,3.1,1.3
	c0.6,0.6,1.1,1.4,1.3,2.2c0.2,0.6,0.3,1.3,0.2,2c0,1.1-0.2,2.3-0.8,3.3c-0.5,0.8-1.2,1.4-2.1,1.7c-0.7,0.3-1.5,0.4-2.3,0.4
	c-0.9,0-1.8,0-2.7,0c-0.3,0-0.6,0-0.8,0c0-1.3,0-2.6,0-3.8c0-0.3,0-0.7,0-1c-0.4,0-0.8,0-1.3,0c0-0.2,0-0.4,0-0.6c0-0.2,0-0.4,0-0.6
	c0.4,0,0.8,0,1.3,0c0,0,0-0.1,0-0.1C9.7,10.9,9.7,9.4,9.7,7.8 M11.7,9.8c0,0.9,0,1.9,0,2.8c0.1,0,0.1,0,0.2,0c0.7,0,1.4,0,2.1,0
	c0,0.4,0,0.8,0,1.2c-0.6,0-1.2,0-1.8,0c-0.2,0-0.3,0-0.5,0c0,0.9,0,1.9,0,2.8c0.5,0,0.9,0,1.4,0c0.7,0,1.4-0.1,2-0.5
	c0.5-0.3,0.8-0.7,1-1.2c0.2-0.6,0.3-1.3,0.3-1.9c0-0.5-0.1-1.1-0.4-1.6c-0.2-0.4-0.5-0.8-0.9-1c-0.6-0.4-1.4-0.6-2.2-0.6
	C12.5,9.8,12.1,9.8,11.7,9.8z"/>
</svg>
