<svg xmlns="http://www.w3.org/2000/svg" fill="none" viewBox="0 0 40 40" id="btc">
			<rect width="40" height="40" rx="8" fill="#F7971A"></rect>
			<g clip-path="url(#btc_a)">
				<path d="M27.322 20.542c-.511-.661-1.283-1.115-2.314-1.362 1.313-.67 1.89-1.807 1.732-3.411-.053-.582-.214-1.086-.483-1.514a3.028 3.028 0 0 0-1.09-1.03 6.008 6.008 0 0 0-1.495-.596 11.784 11.784 0 0 0-1.85-.297V9h-2.037v3.24c-.352 0-.89.008-1.613.026V9h-2.036v3.332c-.29.009-.718.013-1.282.013l-2.803-.013V14.5h1.467c.67 0 1.062.3 1.177.9v3.794c.088 0 .159.004.212.013h-.212v5.315c-.07.45-.326.674-.767.674h-1.467l-.41 2.42h2.644c.168 0 .41.002.727.006.318.005.555.007.714.007V31h2.037v-3.332c.37.01.908.014 1.613.014V31h2.036V27.63c.723-.036 1.364-.101 1.923-.199a7.827 7.827 0 0 0 1.607-.456 4.336 4.336 0 0 0 1.282-.773c.344-.309.628-.701.853-1.177.224-.476.368-1.027.43-1.653.114-1.225-.084-2.168-.595-2.83zm-9.11-5.897.522-.006.714-.014c.19-.004.445.007.767.033.322.027.593.062.813.106.22.044.463.117.727.218.265.102.476.225.635.37.159.146.293.33.403.556.11.224.165.482.165.773 0 .247-.04.472-.118.674-.08.203-.199.373-.357.51a3.628 3.628 0 0 1-.49.357 2.239 2.239 0 0 1-.64.244c-.26.062-.488.11-.682.145-.194.036-.436.06-.727.073a14.392 14.392 0 0 1-1.276.026l-.456-.006v-4.059zm5.56 9.004a1.88 1.88 0 0 1-.324.529c-.133.15-.307.282-.523.396a4.484 4.484 0 0 1-.627.278c-.203.07-.448.132-.734.185a9.663 9.663 0 0 1-1.527.166 17.486 17.486 0 0 1-1.336.012 42.782 42.782 0 0 0-.49-.006V20.74c.071 0 .28-.004.629-.013.348-.009.632-.013.853-.013.22 0 .524.013.912.04.388.026.714.065.979.118.264.053.552.135.866.245.312.11.566.244.76.403.194.159.357.361.489.608s.198.53.198.846c0 .247-.041.472-.125.675z" fill="#fff"></path>
			</g>
			<defs>
				<clipPath id="btc_a">
					<path fill="#fff" transform="translate(9 9)" d="M0 0h22v22H0z"></path>
				</clipPath>
			</defs>
		</svg>