<svg xmlns="http://www.w3.org/2000/svg" viewBox="0 0 512 512" id="usdt.bep20">
			<g fill-rule="nonzero" fill="none">
				<rect fill="#33B48F" width="512" height="512" rx="8"></rect>
				<path d="M287.018 210.323v-37.338h85.411v-56.842H139.901v56.842h85.411v37.338c-69.375 3.204-121.598 16.927-121.598 33.367 0 16.44 52.223 30.163 121.598 33.367v119.467h61.775V277.057c69.306-3.204 121.39-16.927 121.39-33.367-.07-16.44-52.154-30.163-121.46-33.367zm.07 56.633c-1.744.07-10.668.627-30.61.627-15.966 0-27.122-.418-31.096-.627v.07c-61.287-2.717-107.095-13.375-107.095-26.122 0-12.748 45.738-23.406 107.095-26.123V256.3c4.044.278 15.479.975 31.376.975 19.034 0 28.586-.767 30.4-.975v-41.657c61.216 2.717 106.885 13.375 106.885 26.122-.139 12.748-45.808 23.406-106.956 26.192" fill="#FFF"></path>
				<g transform="translate(342 342)">
					<rect fill="#F3BA2F" width="170" height="170" rx="8"></rect>
					<g fill="#FFF">
						<path d="M66.439 77.08 84.5 59.017l18.07 18.07 10.509-10.51L84.5 38 55.93 66.57l10.51 10.509h-.001zM38 84.5 48.51 73.99l10.508 10.509-10.51 10.51L38 84.5zm28.439 7.422 18.061 18.06 18.07-18.069 10.514 10.504-.005.005L84.5 131l-28.57-28.57-.014-.015L66.44 91.921h-.001zm43.543-7.418 10.51-10.509L131 84.504l-10.509 10.51-10.51-10.51z"></path>
						<path d="M95.159 84.495h.004L84.5 73.83l-7.882 7.88-.905.905-1.867 1.868-.015.015.015.015L84.5 95.17l10.664-10.664.005-.006-.01-.005"></path>
					</g>
				</g>
			</g>
		</svg>