<svg xmlns="http://www.w3.org/2000/svg" fill="none" viewBox="0 0 40 40" id="pm">
			<rect width="40" height="40" rx="8" fill="#E44746"></rect>
			<g clip-path="url(#pm_a)" fill="#fff">
				<path d="M13.215 19.728c.834-.014 1.39-.11 1.667-.287.442-.282.663-.89.663-1.824 0-.638-.107-1.153-.321-1.544-.214-.392-.624-.588-1.23-.588-.278 0-.478.034-.601.103-.119.063-.178.19-.178.382v3.758zm-3.43 4.373c.46-.032.768-.128.923-.287.159-.164.239-.494.239-.99V16.64c0-.529-.08-.861-.24-.998-.159-.141-.466-.237-.922-.287V15h4.503c1.193 0 2.1.194 2.72.58.623.388.935 1.053.935 1.996 0 .46-.123.893-.369 1.298-.241.4-.642.724-1.202.97a4.328 4.328 0 0 1-1.271.314 23.89 23.89 0 0 1-1.886.055v2.61c0 .515.087.852.26 1.011.173.16.496.249.97.267v.355h-4.66v-.355zM18.305 24.1c.533-.004.88-.097 1.039-.28.16-.186.239-.464.239-.833v-6.641c0-.383-.091-.633-.273-.752-.182-.123-.506-.202-.97-.239V15h3.525l2.754 6.477h.116L27.475 15H31v.355c-.474.037-.797.125-.97.267-.173.136-.26.476-.26 1.018v6.183c0 .515.087.852.26 1.011.173.16.496.249.97.267v.355h-4.646v-.355c.414-.014.726-.082.936-.205.21-.128.314-.403.314-.827v-6.84h-.102l-3.43 8.227h-.376l-3.464-8.062h-.061v6.334c0 .464.086.803.26 1.018.172.214.555.332 1.147.355v.355h-3.273v-.355z"></path>
				<path fill-rule="evenodd" clip-rule="evenodd" d="M13.157 19.696 9 19.419l3.918.84.24-.563z"></path>
			</g>
			<defs>
				<clipPath id="pm_a">
					<path fill="#fff" transform="translate(9 9)" d="M0 0h21.934v22H0z"></path>
				</clipPath>
			</defs>
		</svg>