<svg id="btc" xmlns="http://www.w3.org/2000/svg" viewBox="0 0 40 40"><rect width="40" height="40" rx="8" style="fill:#1e73b9"/><path d="M8.81,25.49c.33-1,.67-1.94,1-2.88,0-.11.22-.17.33-.17H23.07a.44.44,0,0,0,.5-.39c.61-1.83,1.28-3.66,1.89-5.49a.9.9,0,0,1,.11-.34H12c.34-1,.67-2,1-2.94,0,0,.17-.16.28-.16H28.07a2.26,2.26,0,0,1,2.27,3.05c-.44,1.5-1,2.94-1.49,4.44l-.5,1.5a5.15,5.15,0,0,1-3.72,3.33,1.7,1.7,0,0,1-.5,0H8.81Z" style="fill:#fff"/><path d="M17.41,17.83c-.33,1-.66,1.89-1.05,2.78,0,.05-.17.11-.22.11H8.42a.4.4,0,0,1-.16-.06c.33-.88.61-1.77,1-2.66,0-.06.17-.17.23-.17Z" style="fill:#fff"/></svg>