<svg xmlns="http://www.w3.org/2000/svg" fill="none" viewBox="0 0 40 40" id="bch">
			<rect width="40" height="40" rx="8" fill="#0AC18E"></rect>
			<g clip-path="url(#bch_a)">
				<path d="M26.255 16.424c-.702-.288-1.515-.295-2.438-.02.729-1.124.666-2.28-.187-3.47-.306-.434-.662-.758-1.067-.972a2.75 2.75 0 0 0-1.327-.316c-.479.004-.96.074-1.445.21-.485.137-1.016.34-1.592.607l-1.513-2.62-1.602.924 1.472 2.548c-.278.16-.697.412-1.257.754l-1.483-2.57-1.602.925 1.513 2.622c-.225.139-.559.336-1.003.593l-2.21 1.262.984 1.706 1.155-.667c.527-.304.971-.246 1.333.173l1.724 2.985c.07-.04.127-.068.172-.085l-.166.096 2.414 4.18c.149.386.05.68-.297.88l-1.154.666.776 2.09 2.08-1.201c.132-.076.324-.185.575-.326.252-.14.44-.247.565-.319l1.531 2.652 1.602-.925-1.513-2.62c.295-.162.72-.402 1.275-.723l1.507 2.61 1.602-.924-1.532-2.652a14.38 14.38 0 0 0 1.424-1.03c.396-.33.748-.693 1.056-1.088a3.94 3.94 0 0 0 .657-1.191c.13-.399.176-.836.137-1.313a4.543 4.543 0 0 0-.413-1.495c-.466-1.016-1.05-1.668-1.753-1.956zm-9.844-.501.408-.243c.223-.133.408-.245.555-.335.147-.09.353-.197.619-.322.265-.125.494-.22.687-.286.194-.065.417-.118.671-.159.255-.04.477-.039.668.003.19.043.38.127.569.254.189.127.35.305.481.533.112.195.183.39.213.585.03.195.013.383-.05.563-.062.179-.136.347-.222.503a2.039 2.039 0 0 1-.394.483 12.13 12.13 0 0 1-.469.424 5.079 5.079 0 0 1-.539.387c-.223.143-.392.25-.508.321-.116.072-.277.165-.484.28l-.362.202-1.843-3.193zm8.463 4.557c.026.198.021.386-.015.564a1.668 1.668 0 0 1-.23.549c-.118.188-.241.356-.368.503a4.583 4.583 0 0 1-.493.48 8.782 8.782 0 0 1-1.127.823 15.812 15.812 0 0 1-1.044.617c-.204.113-.333.185-.388.217l-2.03-3.515c.055-.032.218-.131.488-.296.27-.165.491-.298.665-.398.173-.1.418-.228.736-.383.317-.155.591-.272.823-.351.232-.078.496-.145.793-.2.296-.056.556-.066.78-.03.226.038.446.123.662.257a1.6 1.6 0 0 1 .54.576c.113.194.182.39.208.587z" fill="#fff"></path>
			</g>
			<defs>
				<clipPath id="bch_a">
					<path fill="#fff" transform="translate(9 9)" d="M0 0h22v22H0z"></path>
				</clipPath>
			</defs>
		</svg>