<svg xmlns="http://www.w3.org/2000/svg" fill="none" viewBox="0 0 40 40" id="doge">
			<rect width="40" height="40" rx="8" fill="#DBB815"></rect>
			<path d="M12.837 31V9h4.485c3.387 0 6.091.858 8.114 2.573 2.507 2.089 3.76 4.903 3.76 8.444 0 3.43-1.286 6.244-3.859 8.443-1.055.902-2.188 1.55-3.397 1.946-1.21.396-2.76.594-4.65.594h-4.453zm2.44-19.691V28.69h2.144c2.617 0 4.717-.66 6.3-1.979 1.98-1.671 2.969-3.903 2.969-6.695 0-2.64-.847-4.75-2.54-6.333-1.693-1.583-3.936-2.375-6.729-2.375h-2.144z" fill="#fff"></path>
			<path d="M10 19.006h8.995v2.998H10v-2.998z" fill="#fff"></path>
		</svg>