<svg xmlns="http://www.w3.org/2000/svg" fill="none" viewBox="0 0 40 40" id="trx">
			<rect width="40" height="40" rx="8" fill="#DA3C4C"></rect>
			<g clip-path="url(#trx_a)">
				<path d="M30.157 15.627c-1.031-.952-2.458-2.406-3.62-3.437l-.068-.048a1.312 1.312 0 0 0-.382-.213c-2.801-.523-15.84-2.96-16.094-2.93a.481.481 0 0 0-.2.077l-.065.051a.767.767 0 0 0-.179.289l-.017.045V9.742C11 13.83 16.796 27.22 17.937 30.36c.069.214.2.62.443.64h.055c.131 0 .688-.736.688-.736s9.955-12.072 10.962-13.358c.13-.158.245-.328.344-.509a.828.828 0 0 0-.272-.77zm-8.48 1.406 4.249-3.523 2.492 2.296-6.741 1.227zm-1.65-.23-7.315-5.995 11.835 2.183-4.52 3.812zm.66 1.571 7.487-1.207-8.56 10.313 1.073-9.106zm-8.969-6.968 7.697 6.531-1.114 9.55-6.582-16.08z" fill="#fff"></path>
			</g>
			<defs>
				<clipPath id="trx_a">
					<path fill="#fff" transform="translate(9 9)" d="M0 0h22v22H0z"></path>
				</clipPath>
			</defs>
		</svg>