<svg id="btc" xmlns="http://www.w3.org/2000/svg" viewBox="0 0 40 40"><rect width="40" height="40" rx="8"/><g id="Layer_2" data-name="Layer 2"><g id="Layer_1-2" data-name="Layer 1-2"><path d="M29.21,11.6,26,13.22,10.7,21a7.84,7.84,0,0,1-.08-1.19,9.14,9.14,0,0,1,9.15-9.13,9.33,9.33,0,0,1,4.44,1.16L26,11l.27-.14a11.17,11.17,0,0,0-17.72,9,7.94,7.94,0,0,0,0,.85,2,2,0,0,1-1.11,2l-1,.49v2.28L9.38,24h0l.91-.46.9-.46h0l16.17-8.24,1.82-.92L32.93,12V9.7Z" style="fill:#fff"/><path d="M32.93,14.26,12.11,24.86l-1.82.93L6.55,27.7V30l3.72-1.89,3.17-1.61L28.8,18.64a9.67,9.67,0,0,1,.08,1.2,9.15,9.15,0,0,1-13.61,8l-.11.06-2,1a11.15,11.15,0,0,0,17.71-9c0-.28,0-.57,0-.85A2,2,0,0,1,32,17l1-.49Z" style="fill:#fff"/></g></g></svg>