<svg xmlns="http://www.w3.org/2000/svg" viewBox="0 0 512 512" id="usdt.trc20">
			<g fill-rule="nonzero" fill="none">
				<rect fill="#33B48F" width="512" height="512" rx="8"></rect>
				<g transform="translate(342 342)">
					<rect fill="#DA3B4B" width="170" height="170" rx="8"></rect>
					<path d="M115.786 46.143 34 31l43.04 109L137 66.458l-21.214-20.315zm-1.305 6.676 12.517 11.97-34.22 6.238 21.703-18.208zM85.344 69.782l-36.069-30.11 58.941 10.917-22.872 19.193zm-2.582 5.335L76.89 124.05 45.185 43.722l37.577 31.395zm5.436 2.586 37.89-6.909-43.449 53.296 5.559-46.387z" fill="#FFF"></path>
				</g>
				<path d="M287.018 210.323v-37.338h85.411v-56.842H139.901v56.842h85.411v37.338c-69.375 3.204-121.598 16.927-121.598 33.367 0 16.44 52.223 30.163 121.598 33.367v119.467h61.775V277.057c69.306-3.204 121.39-16.927 121.39-33.367-.07-16.44-52.154-30.163-121.46-33.367zm.07 56.633c-1.744.07-10.668.627-30.61.627-15.966 0-27.122-.418-31.096-.627v.07c-61.287-2.717-107.095-13.375-107.095-26.122 0-12.748 45.738-23.406 107.095-26.123V256.3c4.044.278 15.479.975 31.376.975 19.034 0 28.586-.767 30.4-.975v-41.657c61.216 2.717 106.885 13.375 106.885 26.122-.139 12.748-45.808 23.406-106.956 26.192" fill="#FFF"></path>
			</g>
		</svg>