<svg xmlns="http://www.w3.org/2000/svg" viewBox="0 0 512 512" id="bnb.bsc">
			<g fill-rule="nonzero" fill="none">
				<rect fill="#F3BA2F" width="512" height="512" rx="8"></rect>
				<g fill="#FFF">
					<path d="M201.31 233.53 256 178.842l54.714 54.712 31.82-31.82L256 115.2l-86.508 86.508 31.82 31.82-.001.002zM115.2 256l31.822-31.827 31.82 31.82-31.822 31.821L115.2 256zm86.11 22.472L256 333.157l54.714-54.71 31.837 31.803-.017.017L256 396.799l-86.508-86.508-.044-.045 31.867-31.777-.004.003zm131.847-22.46 31.822-31.821 31.82 31.82-31.821 31.821-31.82-31.82z"></path>
					<path d="M288.274 255.983h.013L256 223.693l-23.866 23.859-2.74 2.743-5.655 5.655-.045.045.045.046L256 288.307l32.29-32.29.015-.018-.03-.016"></path>
				</g>
			</g>
		</svg>