<?xml version="1.0" encoding="UTF-8" ?>
<!DOCTYPE svg PUBLIC "-//W3C//DTD SVG 1.1//EN" "http://www.w3.org/Graphics/SVG/1.1/DTD/svg11.dtd">
<svg width="625pt" height="636pt" viewBox="0 0 625 636" version="1.1" xmlns="http://www.w3.org/2000/svg">
<g id="#cbcbcbff">
<path fill="#cbcbcb" opacity="1.00" d=" M 545.31 14.11 C 548.80 11.96 553.90 14.89 553.73 18.99 C 553.39 22.09 552.04 24.97 551.12 27.93 C 548.70 34.47 546.71 41.16 544.81 47.86 C 544.03 50.73 541.11 53.22 538.03 52.50 C 534.83 52.03 532.59 48.55 533.52 45.46 C 535.88 36.50 538.99 27.74 542.00 18.98 C 542.64 17.13 543.44 15.05 545.31 14.11 Z" />
<path fill="#cbcbcb" opacity="1.00" d=" M 588.38 50.28 C 591.89 48.08 596.88 50.99 596.86 55.09 C 597.03 57.69 595.10 59.75 592.93 60.87 C 584.83 65.51 576.83 70.33 568.65 74.83 C 565.12 77.10 560.01 74.18 560.14 70.01 C 559.91 67.06 562.49 65.12 564.79 63.86 C 572.67 59.37 580.45 54.68 588.38 50.28 Z" />
<path fill="#cbcbcb" opacity="1.00" d=" M 573.45 101.29 C 575.35 100.00 577.80 100.48 579.97 100.46 C 588.63 101.01 597.32 101.24 605.98 101.84 C 609.45 101.89 612.30 105.57 611.28 108.93 C 610.67 111.72 607.82 113.49 605.06 113.22 C 595.20 112.73 585.31 112.47 575.48 111.62 C 570.54 111.04 569.11 103.69 573.45 101.29 Z" />
</g>
<g id="#e2e2e2ff">
<path fill="#e2e2e2" opacity="1.00" d=" M 118.03 63.30 C 239.44 63.33 360.85 63.34 482.26 63.29 C 482.24 66.60 482.29 69.90 482.19 73.21 C 441.47 72.78 400.73 73.15 360.00 73.02 C 290.00 73.03 220.00 73.02 150.00 73.03 C 144.02 72.92 137.98 72.65 132.10 73.94 C 131.80 87.29 132.16 100.65 131.94 114.00 C 131.85 118.41 132.06 122.83 132.63 127.21 C 126.03 134.88 127.13 145.55 126.13 154.94 C 123.45 187.37 120.94 219.83 118.19 252.26 C 117.75 203.80 118.14 155.33 117.99 106.87 C 118.03 92.35 117.95 77.82 118.03 63.30 Z" />
</g>
<g id="#eaeaeaff">
<path fill="#eaeaea" opacity="1.00" d=" M 132.10 73.94 C 137.98 72.65 144.02 72.92 150.00 73.03 C 220.00 73.02 290.00 73.03 360.00 73.02 C 400.73 73.15 441.47 72.78 482.19 73.21 C 486.90 73.35 491.62 73.27 496.33 73.27 C 496.43 79.27 496.49 85.28 496.30 91.29 C 380.26 91.09 264.21 91.21 148.16 91.22 C 147.77 101.24 148.14 111.26 147.94 121.28 C 142.26 121.14 136.89 123.58 132.63 127.21 C 132.06 122.83 131.85 118.41 131.94 114.00 C 132.16 100.65 131.80 87.29 132.10 73.94 Z" />
</g>
<g id="#ffffffff">
<path fill="#ffffff" opacity="1.00" d=" M 148.16 91.22 C 264.21 91.21 380.26 91.09 496.30 91.29 C 501.64 91.36 506.98 91.33 512.32 91.31 C 512.38 94.14 512.43 96.98 512.30 99.81 C 504.21 99.24 496.10 99.67 488.00 99.55 C 456.66 99.55 425.33 99.55 394.00 99.54 C 388.79 99.48 383.40 100.89 379.56 104.57 C 374.57 108.92 371.11 114.89 365.46 118.50 C 361.49 121.10 356.60 121.41 352.00 121.41 C 283.98 121.25 215.96 121.51 147.94 121.28 C 148.14 111.26 147.77 101.24 148.16 91.22 Z" />
<path fill="#ffffff" opacity="1.00" d=" M 278.32 250.29 C 287.91 247.17 298.93 254.92 299.24 264.97 C 300.17 274.07 292.20 282.89 283.00 282.58 C 274.71 282.99 267.11 276.09 266.37 267.91 C 265.31 260.14 270.79 252.26 278.32 250.29 Z" />
<path fill="#ffffff" opacity="1.00" d=" M 372.31 250.29 C 381.24 247.45 391.61 253.76 393.04 263.04 C 395.13 272.34 387.60 282.30 378.01 282.55 C 369.15 283.45 360.59 275.92 360.44 267.01 C 359.81 259.52 365.11 252.24 372.31 250.29 Z" />
<path fill="#ffffff" opacity="1.00" d=" M 325.48 321.63 C 344.90 319.77 364.23 326.95 379.80 338.23 C 382.31 340.00 382.10 344.01 379.55 345.64 C 376.75 347.69 373.53 345.30 371.06 343.87 C 359.28 335.98 345.32 330.69 331.00 330.97 C 318.67 330.97 306.61 334.94 295.92 340.90 C 292.31 342.79 289.05 345.63 284.99 346.45 C 280.58 346.94 278.42 340.45 282.11 338.13 C 294.99 329.37 309.83 322.90 325.48 321.63 Z" />
</g>
<g id="#f4c149ff">
<path fill="#f4c149" opacity="1.00" d=" M 379.56 104.57 C 383.40 100.89 388.79 99.48 394.00 99.54 C 425.33 99.55 456.66 99.55 488.00 99.55 C 496.10 99.67 504.21 99.24 512.30 99.81 C 520.70 100.82 525.64 108.31 531.37 113.62 C 536.16 117.99 538.89 124.46 538.21 130.97 C 530.15 230.63 522.02 330.29 513.93 429.95 C 513.66 435.84 511.14 441.76 506.32 445.32 C 502.35 448.60 497.09 449.71 492.06 449.75 C 371.71 449.74 251.35 449.75 131.00 449.74 C 126.12 449.71 121.16 450.03 116.37 448.91 C 112.31 446.35 108.18 443.40 106.05 438.95 C 103.96 434.97 103.79 430.35 104.04 425.95 C 108.83 368.06 113.46 310.16 118.19 252.26 C 120.94 219.83 123.45 187.37 126.13 154.94 C 127.13 145.55 126.03 134.88 132.63 127.21 C 136.89 123.58 142.26 121.14 147.94 121.28 C 215.96 121.51 283.98 121.25 352.00 121.41 C 356.60 121.41 361.49 121.10 365.46 118.50 C 371.11 114.89 374.57 108.92 379.56 104.57 M 278.32 250.29 C 270.79 252.26 265.31 260.14 266.37 267.91 C 267.11 276.09 274.71 282.99 283.00 282.58 C 292.20 282.89 300.17 274.07 299.24 264.97 C 298.93 254.92 287.91 247.17 278.32 250.29 M 372.31 250.29 C 365.11 252.24 359.81 259.52 360.44 267.01 C 360.59 275.92 369.15 283.45 378.01 282.55 C 387.60 282.30 395.13 272.34 393.04 263.04 C 391.61 253.76 381.24 247.45 372.31 250.29 M 325.48 321.63 C 309.83 322.90 294.99 329.37 282.11 338.13 C 278.42 340.45 280.58 346.94 284.99 346.45 C 289.05 345.63 292.31 342.79 295.92 340.90 C 306.61 334.94 318.67 330.97 331.00 330.97 C 345.32 330.69 359.28 335.98 371.06 343.87 C 373.53 345.30 376.75 347.69 379.55 345.64 C 382.10 344.01 382.31 340.00 379.80 338.23 C 364.23 326.95 344.90 319.77 325.48 321.63 Z" />
</g>
<g id="#c6a968ff">
<path fill="#c6a968" opacity="1.00" d=" M 89.22 110.22 C 92.19 107.70 96.13 106.73 99.97 106.81 C 105.97 106.81 111.98 106.78 117.99 106.87 C 118.14 155.33 117.75 203.80 118.19 252.26 C 113.46 310.16 108.83 368.06 104.04 425.95 C 103.79 430.35 103.96 434.97 106.05 438.95 C 108.18 443.40 112.31 446.35 116.37 448.91 C 110.45 447.69 105.29 443.48 102.91 437.93 C 101.04 433.87 101.13 429.32 100.86 424.96 C 95.21 324.63 89.56 224.30 83.87 123.98 C 83.34 118.87 85.12 113.46 89.22 110.22 Z" />
</g>
<g id="#959595ff">
<path fill="#959595" opacity="1.00" d=" M 201.91 563.03 C 204.46 563.03 207.00 563.04 209.55 563.10 C 209.50 569.90 209.46 576.71 209.58 583.51 C 212.88 579.82 217.70 577.03 222.80 578.45 C 227.59 578.83 230.48 583.52 230.85 587.93 C 231.59 595.89 231.11 603.90 231.19 611.88 C 228.68 611.87 226.17 611.87 223.67 611.89 C 223.51 605.58 223.75 599.27 223.54 592.97 C 223.42 590.20 222.95 587.04 220.59 585.25 C 217.87 583.30 213.89 584.32 211.92 586.87 C 209.75 589.38 209.58 592.85 209.51 596.01 C 209.50 601.29 209.49 606.56 209.56 611.84 C 207.03 611.87 204.49 611.87 201.95 611.89 C 201.84 595.60 201.92 579.31 201.91 563.03 Z" />
<path fill="#959595" opacity="1.00" d=" M 525.06 563.04 C 527.59 563.04 530.12 563.04 532.66 563.09 C 532.63 579.34 532.60 595.60 532.67 611.86 C 530.14 611.87 527.62 611.88 525.09 611.91 C 525.05 610.20 525.02 608.50 525.00 606.81 C 522.59 609.60 519.60 612.23 515.76 612.52 C 509.57 613.64 503.24 609.47 501.55 603.47 C 499.50 596.44 500.07 587.84 505.25 582.25 C 510.35 576.65 520.52 576.57 525.00 583.02 C 525.09 576.36 525.00 569.70 525.06 563.04 M 514.49 584.70 C 509.08 586.41 507.81 593.06 508.45 598.01 C 508.64 602.47 512.22 606.98 517.02 606.49 C 521.47 606.43 524.71 602.27 524.96 598.08 C 525.24 594.35 525.65 590.01 523.06 586.95 C 521.05 584.45 517.45 583.71 514.49 584.70 Z" />
<path fill="#959595" opacity="1.00" d=" M 241.44 564.26 C 244.24 562.21 248.87 564.45 248.56 568.03 C 248.44 571.63 243.52 573.30 241.00 570.97 C 238.82 569.34 239.15 565.61 241.44 564.26 Z" />
<path fill="#959595" opacity="1.00" d=" M 89.16 565.73 C 92.20 566.03 95.90 564.82 98.52 566.37 C 106.21 577.68 113.15 589.51 120.95 600.75 C 121.00 589.06 120.91 577.38 120.97 565.70 C 123.43 565.68 125.88 565.68 128.34 565.70 C 128.42 581.09 128.42 596.49 128.34 611.89 C 125.63 611.87 122.91 611.99 120.21 611.81 C 114.78 604.78 110.42 596.94 105.43 589.58 C 102.38 584.77 99.00 580.15 96.32 575.12 C 97.12 587.36 96.65 599.67 96.63 611.93 C 94.14 611.88 91.65 611.86 89.16 611.85 C 89.19 596.48 89.18 581.11 89.16 565.73 Z" />
<path fill="#959595" opacity="1.00" d=" M 354.24 565.75 C 362.58 565.63 370.92 565.67 379.26 565.73 C 379.27 567.91 379.28 570.09 379.28 572.28 C 373.53 572.33 367.79 572.33 362.05 572.28 C 361.97 576.86 361.99 581.44 362.01 586.02 C 367.33 586.06 372.65 586.01 377.97 586.06 C 377.96 588.26 377.94 590.46 377.91 592.66 C 372.61 592.62 367.30 592.62 362.00 592.66 C 361.99 599.07 362.02 605.49 361.98 611.90 C 359.40 611.88 356.83 611.87 354.25 611.85 C 354.27 596.48 354.29 581.12 354.24 565.75 Z" />
<path fill="#959595" opacity="1.00" d=" M 543.32 565.78 C 545.88 565.71 548.44 565.65 551.00 565.69 C 550.89 576.53 550.61 587.37 550.52 598.21 C 548.40 598.30 546.29 598.32 544.18 598.34 C 544.05 587.48 543.59 576.63 543.32 565.78 Z" />
<path fill="#959595" opacity="1.00" d=" M 180.17 571.22 C 182.69 570.51 185.20 569.80 187.72 569.10 C 187.74 572.35 187.72 575.61 187.76 578.87 C 190.39 578.90 193.03 578.90 195.67 579.05 C 195.65 580.95 195.65 582.87 195.65 584.78 C 193.02 584.82 190.38 584.82 187.75 584.86 C 187.90 591.17 187.31 597.53 188.07 603.81 C 188.82 607.38 193.12 606.27 195.74 606.16 C 195.67 608.01 195.62 609.87 195.56 611.74 C 191.76 612.74 187.48 613.17 183.92 611.19 C 181.36 609.84 180.32 606.79 180.23 604.07 C 179.96 597.67 180.21 591.26 180.12 584.86 C 178.29 584.83 176.47 584.82 174.65 584.82 C 174.64 582.86 174.62 580.90 174.62 578.95 C 176.45 578.91 178.27 578.89 180.10 578.88 C 180.12 576.32 180.12 573.77 180.17 571.22 Z" />
<path fill="#959595" opacity="1.00" d=" M 149.39 578.62 C 156.08 577.10 164.35 578.65 168.06 584.98 C 172.37 592.57 171.54 603.74 164.33 609.32 C 156.31 615.26 142.56 613.37 138.31 603.69 C 135.55 596.89 136.19 587.97 141.65 582.63 C 143.77 580.58 146.51 579.23 149.39 578.62 M 151.44 584.60 C 144.43 586.37 143.23 595.61 145.68 601.36 C 147.59 606.22 154.04 607.82 158.39 605.40 C 163.31 602.15 163.45 595.12 161.95 590.00 C 160.70 585.62 155.67 583.33 151.44 584.60 Z" />
<path fill="#959595" opacity="1.00" d=" M 265.00 584.03 C 267.96 579.78 273.22 577.00 278.43 578.53 C 283.79 579.07 286.28 584.80 286.56 589.55 C 287.08 596.97 286.66 604.43 286.79 611.87 C 284.25 611.87 281.70 611.87 279.16 611.87 C 279.16 605.90 279.21 599.94 279.17 593.98 C 279.11 591.20 278.97 588.09 277.03 585.92 C 274.65 583.47 270.46 583.84 268.02 585.98 C 265.69 587.90 265.01 591.06 264.98 593.94 C 264.89 599.93 265.01 605.91 264.94 611.90 C 262.39 611.88 259.85 611.87 257.30 611.84 C 257.32 600.89 257.33 589.94 257.30 578.99 C 259.84 578.91 262.38 578.89 264.93 578.89 C 264.95 580.60 264.97 582.31 265.00 584.03 Z" />
<path fill="#959595" opacity="1.00" d=" M 294.49 589.38 C 295.91 583.20 301.44 577.98 307.98 578.13 C 311.90 577.71 315.30 579.99 318.06 582.50 C 318.12 581.61 318.23 579.82 318.29 578.93 C 320.80 578.90 323.31 578.90 325.83 578.94 C 325.78 589.32 325.91 599.69 325.77 610.07 C 325.70 615.63 323.79 621.80 318.69 624.73 C 312.04 628.40 303.67 627.87 296.71 625.35 C 295.73 623.18 296.40 620.59 296.18 618.27 C 301.65 621.05 308.70 622.87 314.21 619.20 C 318.39 616.64 318.05 611.08 318.21 606.81 C 316.63 608.33 315.21 610.10 313.26 611.17 C 308.19 613.79 301.30 612.94 297.53 608.48 C 293.09 603.27 293.02 595.73 294.49 589.38 M 310.18 584.29 C 306.51 584.24 303.30 586.86 302.29 590.32 C 301.05 594.76 300.89 600.20 304.00 603.94 C 307.05 607.65 313.57 607.12 316.23 603.22 C 318.58 599.99 318.39 595.76 318.19 591.97 C 318.10 587.83 314.37 584.09 310.18 584.29 Z" />
<path fill="#959595" opacity="1.00" d=" M 397.38 578.56 C 403.62 577.30 411.12 578.51 415.08 583.97 C 419.01 589.60 419.24 597.45 416.59 603.65 C 412.10 613.66 397.30 615.51 389.48 608.49 C 384.26 603.69 383.40 595.70 385.34 589.19 C 386.92 583.72 391.81 579.54 397.38 578.56 M 401.17 584.28 C 392.77 584.43 390.45 595.08 393.44 601.43 C 395.82 607.76 406.24 608.34 409.09 602.13 C 410.83 598.23 410.91 593.53 409.46 589.54 C 408.27 586.12 404.69 584.09 401.17 584.28 Z" />
<path fill="#959595" opacity="1.00" d=" M 471.94 583.50 C 475.15 579.93 479.80 577.10 484.78 578.43 C 489.96 578.76 492.90 583.92 493.29 588.62 C 494.07 596.33 493.40 604.11 493.68 611.86 C 491.13 611.87 488.59 611.87 486.06 611.90 C 485.97 605.57 486.14 599.24 485.99 592.92 C 485.83 590.13 485.43 586.80 482.91 585.11 C 479.78 583.26 475.42 584.46 473.51 587.50 C 471.90 589.63 471.84 592.42 471.81 594.98 C 471.80 600.60 471.85 606.23 471.82 611.85 C 469.26 611.87 466.71 611.87 464.16 611.87 C 464.19 600.90 464.17 589.92 464.17 578.95 C 466.70 578.90 469.23 578.90 471.76 578.93 C 471.81 580.44 471.87 581.97 471.94 583.50 Z" />
<path fill="#959595" opacity="1.00" d=" M 240.17 578.94 C 242.70 578.90 245.24 578.90 247.77 578.95 C 247.76 589.92 247.75 600.90 247.78 611.87 C 245.24 611.87 242.70 611.87 240.16 611.87 C 240.19 600.89 240.17 589.92 240.17 578.94 Z" />
<path fill="#959595" opacity="1.00" d=" M 425.17 578.94 C 427.70 578.90 430.24 578.90 432.77 578.95 C 432.80 585.31 432.69 591.67 432.80 598.04 C 432.83 600.93 433.52 604.36 436.30 605.88 C 438.99 606.98 442.48 606.69 444.53 604.46 C 446.71 602.27 447.05 599.00 447.05 596.06 C 447.06 590.34 447.02 584.61 447.04 578.89 C 449.58 578.89 452.12 578.91 454.67 579.01 C 454.62 589.96 454.60 600.91 454.67 611.86 C 452.14 611.87 449.61 611.88 447.09 611.90 C 447.05 610.27 447.02 608.65 447.00 607.04 C 444.16 611.31 438.86 613.77 433.81 612.18 C 429.17 611.78 426.00 607.40 425.65 603.00 C 424.67 595.02 425.40 586.95 425.17 578.94 Z" />
<path fill="#959595" opacity="1.00" d=" M 545.38 604.24 C 548.42 602.72 552.69 605.29 551.97 608.85 C 551.45 612.82 545.48 613.78 543.44 610.51 C 542.07 608.34 542.98 605.22 545.38 604.24 Z" />
</g>
</svg>
